ISO-10303-21;
HEADER;
FILE_DESCRIPTION((''),'2;1');
FILE_NAME('C-63969-1','2018-02-27T',('workeradm'),('TE Connectivity Ltd.'),
'CREO PARAMETRIC BY PTC INC, 2016050','CREO PARAMETRIC BY PTC INC, 2016050','');
FILE_SCHEMA(('AUTOMOTIVE_DESIGN { 1 0 10303 214 1 1 1 1 }'));
ENDSEC;
DATA;
#134=DIRECTION('',(1.E0,0.E0,0.E0));
#135=VECTOR('',#134,6.523276107603E-1);
#136=CARTESIAN_POINT('',(-1.738905078190E0,2.24028E0,-8.382E0));
#137=LINE('',#136,#135);
#138=CARTESIAN_POINT('',(-2.2225E0,1.22428E0,-8.382E0));
#139=DIRECTION('',(0.E0,0.E0,-1.E0));
#140=DIRECTION('',(-1.E-1,9.949874371066E-1,0.E0));
#141=AXIS2_PLACEMENT_3D('',#138,#139,#140);
#143=DIRECTION('',(0.E0,1.E0,0.E0));
#144=VECTOR('',#143,4.015091651802E-1);
#145=CARTESIAN_POINT('',(-2.3749E0,2.339131688970E0,-8.382E0));
#146=LINE('',#145,#144);
#147=CARTESIAN_POINT('',(-2.2225E0,1.22428E0,-8.382E0));
#148=DIRECTION('',(0.E0,0.E0,1.E0));
#149=DIRECTION('',(4.297781072231E-1,9.029345372461E-1,0.E0));
#150=AXIS2_PLACEMENT_3D('',#147,#148,#149);
#152=DIRECTION('',(1.E0,0.E0,0.E0));
#153=VECTOR('',#152,6.523276107603E-1);
#154=CARTESIAN_POINT('',(1.086577467430E0,2.24028E0,-8.382E0));
#155=LINE('',#154,#153);
#156=CARTESIAN_POINT('',(2.2225E0,1.22428E0,-8.382E0));
#157=DIRECTION('',(0.E0,0.E0,1.E0));
#158=DIRECTION('',(1.354401805869E-1,9.907855254709E-1,0.E0));
#159=AXIS2_PLACEMENT_3D('',#156,#157,#158);
#161=DIRECTION('',(0.E0,1.E0,0.E0));
#162=VECTOR('',#161,4.015091651802E-1);
#163=CARTESIAN_POINT('',(2.3749E0,2.339131688970E0,-8.382E0));
#164=LINE('',#163,#162);
#165=CARTESIAN_POINT('',(2.2225E0,1.22428E0,-8.382E0));
#166=DIRECTION('',(0.E0,0.E0,-1.E0));
#167=DIRECTION('',(-7.453559924999E-1,6.666666666667E-1,0.E0));
#168=AXIS2_PLACEMENT_3D('',#165,#166,#167);
#170=DIRECTION('',(0.E0,1.E0,0.E0));
#171=VECTOR('',#170,3.9878E-1);
#172=CARTESIAN_POINT('',(7.251729447439E-1,0.E0,-8.382E0));
#173=LINE('',#172,#171);
#174=DIRECTION('',(-3.826834323651E-1,-9.238795325113E-1,0.E0));
#175=VECTOR('',#174,9.322281410624E-1);
#176=CARTESIAN_POINT('',(7.251729447439E-1,0.E0,-8.382E0));
#177=LINE('',#176,#175);
#178=CARTESIAN_POINT('',(0.E0,-7.0866E-1,-8.382E0));
#179=DIRECTION('',(0.E0,0.E0,-1.E0));
#180=DIRECTION('',(9.238795325113E-1,-3.826834323651E-1,0.E0));
#181=AXIS2_PLACEMENT_3D('',#178,#179,#180);
#183=DIRECTION('',(-3.826834323651E-1,9.238795325113E-1,0.E0));
#184=VECTOR('',#183,9.322281410624E-1);
#185=CARTESIAN_POINT('',(-3.684246799749E-1,-8.612664991586E-1,-8.382E0));
#186=LINE('',#185,#184);
#187=DIRECTION('',(0.E0,1.E0,0.E0));
#188=VECTOR('',#187,3.9878E-1);
#189=CARTESIAN_POINT('',(-7.251729447439E-1,0.E0,-8.382E0));
#190=LINE('',#189,#188);
#191=DIRECTION('',(1.E0,0.E0,0.E0));
#192=VECTOR('',#191,1.134107055256E0);
#193=CARTESIAN_POINT('',(-1.85928E0,3.9878E-1,-8.382E0));
#194=LINE('',#193,#192);
#195=DIRECTION('',(0.E0,1.E0,0.E0));
#196=VECTOR('',#195,3.9878E-1);
#197=CARTESIAN_POINT('',(-1.85928E0,0.E0,-8.382E0));
#198=LINE('',#197,#196);
#199=DIRECTION('',(-1.E0,0.E0,0.E0));
#200=VECTOR('',#199,7.024706936235E-1);
#201=CARTESIAN_POINT('',(-1.156809306377E0,0.E0,-8.382E0));
#202=LINE('',#201,#200);
#203=DIRECTION('',(3.826834323651E-1,-9.238795325113E-1,0.E0));
#204=VECTOR('',#203,1.097408225465E0);
#205=CARTESIAN_POINT('',(-1.156809306377E0,0.E0,-8.382E0));
#206=LINE('',#205,#204);
#207=CARTESIAN_POINT('',(0.E0,-7.0866E-1,-8.382E0));
#208=DIRECTION('',(0.E0,0.E0,1.E0));
#209=DIRECTION('',(-9.238795325113E-1,-3.826834323651E-1,0.E0));
#210=AXIS2_PLACEMENT_3D('',#207,#208,#209);
#212=DIRECTION('',(3.826834323651E-1,9.238795325113E-1,0.E0));
#213=VECTOR('',#212,1.097408225465E0);
#214=CARTESIAN_POINT('',(7.368493599497E-1,-1.013872998317E0,-8.382E0));
#215=LINE('',#214,#213);
#216=DIRECTION('',(-1.E0,0.E0,0.E0));
#217=VECTOR('',#216,7.024706936235E-1);
#218=CARTESIAN_POINT('',(1.85928E0,0.E0,-8.382E0));
#219=LINE('',#218,#217);
#220=DIRECTION('',(0.E0,1.E0,0.E0));
#221=VECTOR('',#220,3.9878E-1);
#222=CARTESIAN_POINT('',(1.85928E0,0.E0,-8.382E0));
#223=LINE('',#222,#221);
#224=DIRECTION('',(1.E0,0.E0,0.E0));
#225=VECTOR('',#224,1.134107055256E0);
#226=CARTESIAN_POINT('',(7.251729447439E-1,3.9878E-1,-8.382E0));
#227=LINE('',#226,#225);
#228=CARTESIAN_POINT('',(-1.09728E0,1.22428E0,-1.271740979371E0));
#229=CARTESIAN_POINT('',(-1.09728E0,1.22428E0,-1.232200476197E0));
#230=CARTESIAN_POINT('',(-1.097265762945E0,1.228844783242E0,-1.153743478914E0));
#231=CARTESIAN_POINT('',(-1.097455437719E0,1.249486072615E0,-1.036649994775E0));
#232=CARTESIAN_POINT('',(-1.098594046250E0,1.283275654415E0,
-9.239885300984E-1));
#233=CARTESIAN_POINT('',(-1.101772421102E0,1.329017947734E0,
-8.175832996683E-1));
#234=CARTESIAN_POINT('',(-1.108318705341E0,1.385483152783E0,
-7.187705441554E-1));
#235=CARTESIAN_POINT('',(-1.119497339032E0,1.450350855320E0,
-6.297690429501E-1));
#236=CARTESIAN_POINT('',(-1.130650342422E0,1.497455268952E0,
-5.777247310482E-1));
#237=CARTESIAN_POINT('',(-1.137342645769E0,1.521859510314E0,
-5.533204896855E-1));
#239=CARTESIAN_POINT('',(-1.09728E0,1.22428E0,-7.366E0));
#240=CARTESIAN_POINT('',(-1.09728E0,1.329072490345E0,-7.470792490345E0));
#241=CARTESIAN_POINT('',(-1.125833957168E0,1.527909663441E0,-7.669629663441E0));
#242=CARTESIAN_POINT('',(-1.240286178597E0,1.799206925057E0,-7.940926925057E0));
#243=CARTESIAN_POINT('',(-1.396849902704E0,2.002257027192E0,-8.143977027192E0));
#244=CARTESIAN_POINT('',(-1.570031987673E0,2.146655676023E0,-8.288375676023E0));
#245=CARTESIAN_POINT('',(-1.677434748262E0,2.211021398233E0,-8.352741398233E0));
#246=CARTESIAN_POINT('',(-1.738905078190E0,2.24028E0,-8.382E0));
#248=DIRECTION('',(0.E0,0.E0,1.E0));
#249=VECTOR('',#248,1.016E0);
#250=CARTESIAN_POINT('',(-2.3749E0,2.339131688970E0,-8.382E0));
#251=LINE('',#250,#249);
#252=CARTESIAN_POINT('',(-2.2225E0,1.22428E0,-7.366E0));
#253=DIRECTION('',(0.E0,0.E0,1.E0));
#254=DIRECTION('',(-1.354401805869E-1,9.907855254709E-1,0.E0));
#255=AXIS2_PLACEMENT_3D('',#252,#253,#254);
#257=DIRECTION('',(0.E0,0.E0,-1.E0));
#258=VECTOR('',#257,7.366E0);
#259=CARTESIAN_POINT('',(-3.34772E0,1.22428E0,0.E0));
#260=LINE('',#259,#258);
#261=CARTESIAN_POINT('',(-1.137342645769E0,1.521859510314E0,
-5.533204896855E-1));
#262=CARTESIAN_POINT('',(-1.165369735526E0,1.624063464259E0,
-4.511165357414E-1));
#263=CARTESIAN_POINT('',(-1.249470720467E0,1.819175098383E0,
-2.560049016170E-1));
#264=CARTESIAN_POINT('',(-1.393068092695E0,1.994566315307E0,
-8.061368469302E-2));
#265=CARTESIAN_POINT('',(-1.486232902813E0,2.07518E0,0.E0));
#267=DIRECTION('',(-1.E0,0.E0,0.E0));
#268=VECTOR('',#267,4.095073021525E-1);
#269=CARTESIAN_POINT('',(-7.278353436168E-1,1.521859510314E0,
-5.533204896855E-1));
#270=LINE('',#269,#268);
#271=DIRECTION('',(0.E0,-1.E0,0.E0));
#272=VECTOR('',#271,3.9878E-1);
#273=CARTESIAN_POINT('',(-1.524E0,3.9878E-1,0.E0));
#274=LINE('',#273,#272);
#275=DIRECTION('',(-1.E0,0.E0,0.E0));
#276=VECTOR('',#275,1.69672E0);
#277=CARTESIAN_POINT('',(-1.524E0,0.E0,0.E0));
#278=LINE('',#277,#276);
#279=CARTESIAN_POINT('',(-3.22072E0,5.2578E-1,0.E0));
#280=DIRECTION('',(0.E0,0.E0,-1.E0));
#281=DIRECTION('',(0.E0,-1.E0,0.E0));
#282=AXIS2_PLACEMENT_3D('',#279,#280,#281);
#284=DIRECTION('',(0.E0,1.E0,0.E0));
#285=VECTOR('',#284,6.985E-1);
#286=CARTESIAN_POINT('',(-3.7465E0,5.2578E-1,0.E0));
#287=LINE('',#286,#285);
#288=CARTESIAN_POINT('',(-2.2225E0,1.22428E0,0.E0));
#289=DIRECTION('',(0.E0,0.E0,-1.E0));
#290=DIRECTION('',(-1.E0,0.E0,0.E0));
#291=AXIS2_PLACEMENT_3D('',#288,#289,#290);
#293=DIRECTION('',(1.E0,0.E0,0.E0));
#294=VECTOR('',#293,5.280687719555E-1);
#295=CARTESIAN_POINT('',(-1.486232902813E0,2.07518E0,0.E0));
#296=LINE('',#295,#294);
#297=CARTESIAN_POINT('',(-2.2225E0,1.22428E0,0.E0));
#298=DIRECTION('',(0.E0,0.E0,1.E0));
#299=DIRECTION('',(6.543316837480E-1,7.562076749436E-1,0.E0));
#300=AXIS2_PLACEMENT_3D('',#297,#298,#299);
#302=DIRECTION('',(0.E0,-1.E0,0.E0));
#303=VECTOR('',#302,6.985E-1);
#304=CARTESIAN_POINT('',(-3.34772E0,1.22428E0,0.E0));
#305=LINE('',#304,#303);
#306=CARTESIAN_POINT('',(-3.22072E0,5.2578E-1,0.E0));
#307=DIRECTION('',(0.E0,0.E0,1.E0));
#308=DIRECTION('',(-1.E0,0.E0,0.E0));
#309=AXIS2_PLACEMENT_3D('',#306,#307,#308);
#311=DIRECTION('',(1.E0,0.E0,0.E0));
#312=VECTOR('',#311,1.69672E0);
#313=CARTESIAN_POINT('',(-3.22072E0,3.9878E-1,0.E0));
#314=LINE('',#313,#312);
#315=DIRECTION('',(0.E0,1.E0,0.E0));
#316=VECTOR('',#315,3.9878E-1);
#317=CARTESIAN_POINT('',(1.524E0,0.E0,0.E0));
#318=LINE('',#317,#316);
#319=DIRECTION('',(1.E0,0.E0,0.E0));
#320=VECTOR('',#319,1.69672E0);
#321=CARTESIAN_POINT('',(1.524E0,3.9878E-1,0.E0));
#322=LINE('',#321,#320);
#323=CARTESIAN_POINT('',(3.22072E0,5.2578E-1,0.E0));
#324=DIRECTION('',(0.E0,0.E0,1.E0));
#325=DIRECTION('',(0.E0,-1.E0,0.E0));
#326=AXIS2_PLACEMENT_3D('',#323,#324,#325);
#328=DIRECTION('',(0.E0,1.E0,0.E0));
#329=VECTOR('',#328,6.985E-1);
#330=CARTESIAN_POINT('',(3.34772E0,5.2578E-1,0.E0));
#331=LINE('',#330,#329);
#332=CARTESIAN_POINT('',(2.2225E0,1.22428E0,0.E0));
#333=DIRECTION('',(0.E0,0.E0,1.E0));
#334=DIRECTION('',(1.E0,0.E0,0.E0));
#335=AXIS2_PLACEMENT_3D('',#332,#333,#334);
#337=DIRECTION('',(1.E0,0.E0,0.E0));
#338=VECTOR('',#337,5.280687719555E-1);
#339=CARTESIAN_POINT('',(9.581641308576E-1,2.07518E0,0.E0));
#340=LINE('',#339,#338);
#341=CARTESIAN_POINT('',(2.2225E0,1.22428E0,0.E0));
#342=DIRECTION('',(0.E0,0.E0,-1.E0));
#343=DIRECTION('',(-8.296167120357E-1,5.583333333333E-1,0.E0));
#344=AXIS2_PLACEMENT_3D('',#341,#342,#343);
#346=DIRECTION('',(0.E0,-1.E0,0.E0));
#347=VECTOR('',#346,6.985E-1);
#348=CARTESIAN_POINT('',(3.7465E0,1.22428E0,0.E0));
#349=LINE('',#348,#347);
#350=CARTESIAN_POINT('',(3.22072E0,5.2578E-1,0.E0));
#351=DIRECTION('',(0.E0,0.E0,-1.E0));
#352=DIRECTION('',(1.E0,1.161365330640E-14,0.E0));
#353=AXIS2_PLACEMENT_3D('',#350,#351,#352);
#355=DIRECTION('',(-1.E0,0.E0,0.E0));
#356=VECTOR('',#355,1.69672E0);
#357=CARTESIAN_POINT('',(3.22072E0,0.E0,0.E0));
#358=LINE('',#357,#356);
#359=CARTESIAN_POINT('',(-1.524E0,3.9878E-1,2.54E-1));
#360=DIRECTION('',(0.E0,-1.E0,0.E0));
#361=DIRECTION('',(0.E0,0.E0,-1.E0));
#362=AXIS2_PLACEMENT_3D('',#359,#360,#361);
#364=CARTESIAN_POINT('',(-1.524E0,0.E0,2.54E-1));
#365=DIRECTION('',(0.E0,1.E0,0.E0));
#366=DIRECTION('',(1.E0,0.E0,0.E0));
#367=AXIS2_PLACEMENT_3D('',#364,#365,#366);
#369=DIRECTION('',(0.E0,0.E0,-1.E0));
#370=VECTOR('',#369,4.009608521952E0);
#371=CARTESIAN_POINT('',(1.27E0,3.9878E-1,-4.353914780480E-1));
#372=LINE('',#371,#370);
#373=DIRECTION('',(1.E0,0.E0,0.E0));
#374=VECTOR('',#373,2.54E0);
#375=CARTESIAN_POINT('',(-1.27E0,3.9878E-1,-4.445E0));
#376=LINE('',#375,#374);
#377=DIRECTION('',(0.E0,0.E0,-1.E0));
#378=VECTOR('',#377,4.009608521952E0);
#379=CARTESIAN_POINT('',(-1.27E0,3.9878E-1,-4.353914780480E-1));
#380=LINE('',#379,#378);
#381=DIRECTION('',(1.E0,0.E0,0.E0));
#382=VECTOR('',#381,2.54E0);
#383=CARTESIAN_POINT('',(-1.27E0,3.9878E-1,-4.353914780480E-1));
#384=LINE('',#383,#382);
#385=DIRECTION('',(0.E0,0.E0,1.E0));
#386=VECTOR('',#385,7.45998E-1);
#387=CARTESIAN_POINT('',(1.27E0,3.9878E-1,2.54E-1));
#388=LINE('',#387,#386);
#389=DIRECTION('',(0.E0,0.E0,-1.E0));
#390=VECTOR('',#389,2.54E0);
#391=CARTESIAN_POINT('',(-3.22072E0,3.9878E-1,-7.366E0));
#392=LINE('',#391,#390);
#393=DIRECTION('',(1.310790080755E-1,0.E0,-9.913719249817E-1));
#394=VECTOR('',#393,1.927429925678E0);
#395=CARTESIAN_POINT('',(-3.22072E0,3.9878E-1,-9.906E0));
#396=LINE('',#395,#394);
#397=CARTESIAN_POINT('',(-2.54E0,3.9878E-1,-1.17602E1));
#398=DIRECTION('',(0.E0,-1.E0,0.E0));
#399=DIRECTION('',(-9.913719249817E-1,0.E0,-1.310790080755E-1));
#400=AXIS2_PLACEMENT_3D('',#397,#398,#399);
#402=DIRECTION('',(1.310790080755E-1,0.E0,9.913719249817E-1));
#403=VECTOR('',#402,1.927429925678E0);
#404=CARTESIAN_POINT('',(-2.111925602793E0,3.9878E-1,-1.181679991569E1));
#405=LINE('',#404,#403);
#406=DIRECTION('',(0.E0,0.E0,1.E0));
#407=VECTOR('',#406,1.524E0);
#408=CARTESIAN_POINT('',(-1.85928E0,3.9878E-1,-9.906E0));
#409=LINE('',#408,#407);
#410=DIRECTION('',(3.826834323651E-1,0.E0,9.238795325113E-1));
#411=VECTOR('',#410,9.322281410624E-1);
#412=CARTESIAN_POINT('',(-7.251729447439E-1,3.9878E-1,-8.382E0));
#413=LINE('',#412,#411);
#414=CARTESIAN_POINT('',(0.E0,3.9878E-1,-7.67334E0));
#415=DIRECTION('',(0.E0,1.E0,0.E0));
#416=DIRECTION('',(-9.238795325113E-1,0.E0,3.826834323651E-1));
#417=AXIS2_PLACEMENT_3D('',#414,#415,#416);
#419=DIRECTION('',(3.826834323651E-1,0.E0,-9.238795325113E-1));
#420=VECTOR('',#419,9.322281410623E-1);
#421=CARTESIAN_POINT('',(3.684246799749E-1,3.9878E-1,-7.520733500841E0));
#422=LINE('',#421,#420);
#423=DIRECTION('',(0.E0,0.E0,-1.E0));
#424=VECTOR('',#423,1.524E0);
#425=CARTESIAN_POINT('',(1.85928E0,3.9878E-1,-8.382E0));
#426=LINE('',#425,#424);
#427=DIRECTION('',(1.310790080755E-1,0.E0,-9.913719249817E-1));
#428=VECTOR('',#427,1.927429925678E0);
#429=CARTESIAN_POINT('',(1.85928E0,3.9878E-1,-9.906E0));
#430=LINE('',#429,#428);
#431=CARTESIAN_POINT('',(2.54E0,3.9878E-1,-1.17602E1));
#432=DIRECTION('',(0.E0,-1.E0,0.E0));
#433=DIRECTION('',(-9.913719249817E-1,0.E0,-1.310790080755E-1));
#434=AXIS2_PLACEMENT_3D('',#431,#432,#433);
#436=DIRECTION('',(1.310790080755E-1,0.E0,9.913719249817E-1));
#437=VECTOR('',#436,1.927429925678E0);
#438=CARTESIAN_POINT('',(2.968074397207E0,3.9878E-1,-1.181679991569E1));
#439=LINE('',#438,#437);
#440=DIRECTION('',(0.E0,0.E0,1.E0));
#441=VECTOR('',#440,2.54E0);
#442=CARTESIAN_POINT('',(3.22072E0,3.9878E-1,-9.906E0));
#443=LINE('',#442,#441);
#444=DIRECTION('',(0.E0,0.E0,-1.E0));
#445=VECTOR('',#444,7.366E0);
#446=CARTESIAN_POINT('',(3.22072E0,3.9878E-1,0.E0));
#447=LINE('',#446,#445);
#448=DIRECTION('',(0.E0,-1.E0,0.E0));
#449=VECTOR('',#448,1.651E-1);
#450=CARTESIAN_POINT('',(1.27E0,5.6388E-1,-4.445E0));
#451=LINE('',#450,#449);
#452=DIRECTION('',(0.E0,3.420201433257E-1,-9.396926207859E-1));
#453=VECTOR('',#452,4.827201064669E-1);
#454=CARTESIAN_POINT('',(1.27E0,3.9878E-1,-4.353914780480E-1));
#455=LINE('',#454,#453);
#456=DIRECTION('',(0.E0,0.E0,-1.E0));
#457=VECTOR('',#456,3.556E0);
#458=CARTESIAN_POINT('',(1.27E0,5.6388E-1,-8.89E-1));
#459=LINE('',#458,#457);
#460=DIRECTION('',(1.E0,0.E0,0.E0));
#461=VECTOR('',#460,2.54E0);
#462=CARTESIAN_POINT('',(-1.27E0,5.6388E-1,-4.445E0));
#463=LINE('',#462,#461);
#464=DIRECTION('',(1.E0,0.E0,0.E0));
#465=VECTOR('',#464,2.54E0);
#466=CARTESIAN_POINT('',(-1.27E0,5.6388E-1,-8.89E-1));
#467=LINE('',#466,#465);
#468=DIRECTION('',(0.E0,-1.E0,0.E0));
#469=VECTOR('',#468,1.651E-1);
#470=CARTESIAN_POINT('',(-1.27E0,5.6388E-1,-4.445E0));
#471=LINE('',#470,#469);
#472=DIRECTION('',(0.E0,0.E0,-1.E0));
#473=VECTOR('',#472,3.556E0);
#474=CARTESIAN_POINT('',(-1.27E0,5.6388E-1,-8.89E-1));
#475=LINE('',#474,#473);
#476=DIRECTION('',(0.E0,3.420201433257E-1,-9.396926207859E-1));
#477=VECTOR('',#476,4.827201064669E-1);
#478=CARTESIAN_POINT('',(-1.27E0,3.9878E-1,-4.353914780480E-1));
#479=LINE('',#478,#477);
#480=CARTESIAN_POINT('',(1.524E0,0.E0,2.54E-1));
#481=DIRECTION('',(0.E0,1.E0,0.E0));
#482=DIRECTION('',(0.E0,0.E0,-1.E0));
#483=AXIS2_PLACEMENT_3D('',#480,#481,#482);
#485=CARTESIAN_POINT('',(1.524E0,3.9878E-1,2.54E-1));
#486=DIRECTION('',(0.E0,-1.E0,0.E0));
#487=DIRECTION('',(-1.E0,0.E0,0.E0));
#488=AXIS2_PLACEMENT_3D('',#485,#486,#487);
#490=DIRECTION('',(0.E0,0.E0,1.E0));
#491=VECTOR('',#490,2.54E0);
#492=CARTESIAN_POINT('',(3.22072E0,0.E0,-9.906E0));
#493=LINE('',#492,#491);
#494=DIRECTION('',(1.310790080755E-1,0.E0,9.913719249817E-1));
#495=VECTOR('',#494,1.927429925678E0);
#496=CARTESIAN_POINT('',(2.968074397207E0,0.E0,-1.181679991569E1));
#497=LINE('',#496,#495);
#498=CARTESIAN_POINT('',(2.54E0,0.E0,-1.17602E1));
#499=DIRECTION('',(0.E0,-1.E0,0.E0));
#500=DIRECTION('',(-9.913719249817E-1,0.E0,-1.310790080755E-1));
#501=AXIS2_PLACEMENT_3D('',#498,#499,#500);
#503=DIRECTION('',(1.310790080755E-1,0.E0,-9.913719249817E-1));
#504=VECTOR('',#503,1.927429925678E0);
#505=CARTESIAN_POINT('',(1.85928E0,0.E0,-9.906E0));
#506=LINE('',#505,#504);
#507=DIRECTION('',(0.E0,0.E0,-1.E0));
#508=VECTOR('',#507,1.524E0);
#509=CARTESIAN_POINT('',(1.85928E0,0.E0,-8.382E0));
#510=LINE('',#509,#508);
#511=DIRECTION('',(-3.826834323651E-1,0.E0,9.238795325113E-1));
#512=VECTOR('',#511,1.097408225465E0);
#513=CARTESIAN_POINT('',(1.156809306377E0,0.E0,-8.382E0));
#514=LINE('',#513,#512);
#515=CARTESIAN_POINT('',(0.E0,0.E0,-7.67334E0));
#516=DIRECTION('',(0.E0,-1.E0,0.E0));
#517=DIRECTION('',(9.238795325113E-1,0.E0,3.826834323651E-1));
#518=AXIS2_PLACEMENT_3D('',#515,#516,#517);
#520=DIRECTION('',(-3.826834323651E-1,0.E0,-9.238795325113E-1));
#521=VECTOR('',#520,1.097408225465E0);
#522=CARTESIAN_POINT('',(-7.368493599497E-1,0.E0,-7.368127001683E0));
#523=LINE('',#522,#521);
#524=DIRECTION('',(0.E0,0.E0,1.E0));
#525=VECTOR('',#524,1.524E0);
#526=CARTESIAN_POINT('',(-1.85928E0,0.E0,-9.906E0));
#527=LINE('',#526,#525);
#528=DIRECTION('',(1.310790080755E-1,0.E0,9.913719249817E-1));
#529=VECTOR('',#528,1.927429925678E0);
#530=CARTESIAN_POINT('',(-2.111925602793E0,0.E0,-1.181679991569E1));
#531=LINE('',#530,#529);
#532=CARTESIAN_POINT('',(-2.54E0,0.E0,-1.17602E1));
#533=DIRECTION('',(0.E0,-1.E0,0.E0));
#534=DIRECTION('',(-9.913719249817E-1,0.E0,-1.310790080755E-1));
#535=AXIS2_PLACEMENT_3D('',#532,#533,#534);
#537=DIRECTION('',(1.310790080755E-1,0.E0,-9.913719249817E-1));
#538=VECTOR('',#537,1.927429925678E0);
#539=CARTESIAN_POINT('',(-3.22072E0,0.E0,-9.906E0));
#540=LINE('',#539,#538);
#541=DIRECTION('',(0.E0,0.E0,-1.E0));
#542=VECTOR('',#541,2.54E0);
#543=CARTESIAN_POINT('',(-3.22072E0,0.E0,-7.366E0));
#544=LINE('',#543,#542);
#545=DIRECTION('',(0.E0,0.E0,-1.E0));
#546=VECTOR('',#545,7.366E0);
#547=CARTESIAN_POINT('',(-3.22072E0,0.E0,0.E0));
#548=LINE('',#547,#546);
#549=DIRECTION('',(0.E0,0.E0,1.E0));
#550=VECTOR('',#549,7.45998E-1);
#551=CARTESIAN_POINT('',(-1.27E0,0.E0,2.54E-1));
#552=LINE('',#551,#550);
#553=DIRECTION('',(0.E0,1.E0,0.E0));
#554=VECTOR('',#553,3.9878E-1);
#555=CARTESIAN_POINT('',(1.27E0,0.E0,2.54E-1));
#556=LINE('',#555,#554);
#557=DIRECTION('',(0.E0,0.E0,1.E0));
#558=VECTOR('',#557,7.45998E-1);
#559=CARTESIAN_POINT('',(1.27E0,0.E0,2.54E-1));
#560=LINE('',#559,#558);
#561=DIRECTION('',(0.E0,-1.E0,0.E0));
#562=VECTOR('',#561,3.9878E-1);
#563=CARTESIAN_POINT('',(-1.27E0,3.9878E-1,9.99998E-1));
#564=LINE('',#563,#562);
#565=DIRECTION('',(-1.E0,0.E0,0.E0));
#566=VECTOR('',#565,2.54E0);
#567=CARTESIAN_POINT('',(1.27E0,3.9878E-1,9.99998E-1));
#568=LINE('',#567,#566);
#569=DIRECTION('',(0.E0,1.E0,0.E0));
#570=VECTOR('',#569,3.9878E-1);
#571=CARTESIAN_POINT('',(1.27E0,0.E0,9.99998E-1));
#572=LINE('',#571,#570);
#573=DIRECTION('',(1.E0,0.E0,0.E0));
#574=VECTOR('',#573,2.54E0);
#575=CARTESIAN_POINT('',(-1.27E0,0.E0,9.99998E-1));
#576=LINE('',#575,#574);
#577=DIRECTION('',(0.E0,-1.E0,0.E0));
#578=VECTOR('',#577,3.9878E-1);
#579=CARTESIAN_POINT('',(-1.27E0,3.9878E-1,2.54E-1));
#580=LINE('',#579,#578);
#581=DIRECTION('',(0.E0,0.E0,1.E0));
#582=VECTOR('',#581,7.45998E-1);
#583=CARTESIAN_POINT('',(-1.27E0,3.9878E-1,2.54E-1));
#584=LINE('',#583,#582);
#585=CARTESIAN_POINT('',(3.22072E0,5.2578E-1,-7.366E0));
#586=DIRECTION('',(0.E0,0.E0,1.E0));
#587=DIRECTION('',(0.E0,-1.E0,0.E0));
#588=AXIS2_PLACEMENT_3D('',#585,#586,#587);
#590=DIRECTION('',(0.E0,0.E0,-1.E0));
#591=VECTOR('',#590,7.366E0);
#592=CARTESIAN_POINT('',(3.22072E0,0.E0,0.E0));
#593=LINE('',#592,#591);
#594=DIRECTION('',(0.E0,1.E0,0.E0));
#595=VECTOR('',#594,3.9878E-1);
#596=CARTESIAN_POINT('',(3.22072E0,0.E0,-7.366E0));
#597=LINE('',#596,#595);
#598=DIRECTION('',(0.E0,1.E0,0.E0));
#599=VECTOR('',#598,4.015091651802E-1);
#600=CARTESIAN_POINT('',(2.3749E0,2.339131688970E0,-7.366E0));
#601=LINE('',#600,#599);
#602=DIRECTION('',(0.E0,1.E0,0.E0));
#603=VECTOR('',#602,3.9878E-1);
#604=CARTESIAN_POINT('',(3.22072E0,0.E0,-9.906E0));
#605=LINE('',#604,#603);
#606=DIRECTION('',(0.E0,1.E0,0.E0));
#607=VECTOR('',#606,3.9878E-1);
#608=CARTESIAN_POINT('',(2.968074397207E0,0.E0,-1.181679991569E1));
#609=LINE('',#608,#607);
#610=DIRECTION('',(0.E0,1.E0,0.E0));
#611=VECTOR('',#610,3.9878E-1);
#612=CARTESIAN_POINT('',(2.111925602793E0,0.E0,-1.181679991569E1));
#613=LINE('',#612,#611);
#614=DIRECTION('',(0.E0,1.E0,0.E0));
#615=VECTOR('',#614,3.9878E-1);
#616=CARTESIAN_POINT('',(1.85928E0,0.E0,-9.906E0));
#617=LINE('',#616,#615);
#618=DIRECTION('',(0.E0,1.E0,0.E0));
#619=VECTOR('',#618,6.985E-1);
#620=CARTESIAN_POINT('',(3.7465E0,5.2578E-1,-7.366E0));
#621=LINE('',#620,#619);
#622=DIRECTION('',(0.E0,0.E0,-1.E0));
#623=VECTOR('',#622,7.366E0);
#624=CARTESIAN_POINT('',(3.7465E0,5.2578E-1,0.E0));
#625=LINE('',#624,#623);
#626=CARTESIAN_POINT('',(6.985E-1,1.22428E0,-1.271740979371E0));
#627=CARTESIAN_POINT('',(6.985E-1,1.22428E0,-1.232848272534E0));
#628=CARTESIAN_POINT('',(6.984902643304E-1,1.228699534649E0,-1.155583965089E0));
#629=CARTESIAN_POINT('',(6.986212544874E-1,1.248740737501E0,-1.040051266370E0));
#630=CARTESIAN_POINT('',(6.994192945872E-1,1.281711212486E0,
-9.284809987371E-1));
#631=CARTESIAN_POINT('',(7.016453892440E-1,1.326381377714E0,
-8.229589208436E-1));
#632=CARTESIAN_POINT('',(7.063145975579E-1,1.382432527495E0,
-7.234371088491E-1));
#633=CARTESIAN_POINT('',(7.144514342275E-1,1.447879787756E0,
-6.326761052158E-1));
#634=CARTESIAN_POINT('',(7.227686368620E-1,1.496410757130E0,
-5.787692428698E-1));
#635=CARTESIAN_POINT('',(7.278353436168E-1,1.521859510314E0,
-5.533204896855E-1));
#637=CARTESIAN_POINT('',(1.086577467430E0,2.24028E0,-8.382E0));
#638=CARTESIAN_POINT('',(1.017567804612E0,2.163124851417E0,-8.304844851417E0));
#639=CARTESIAN_POINT('',(9.029444701875E-1,2.004022080414E0,-8.145742080414E0));
#640=CARTESIAN_POINT('',(7.459859370918E-1,1.671008916193E0,-7.812728916193E0));
#641=CARTESIAN_POINT('',(6.985E-1,1.406862405878E0,-7.548582405878E0));
#642=CARTESIAN_POINT('',(6.985E-1,1.22428E0,-7.366E0));
#644=DIRECTION('',(0.E0,0.E0,1.E0));
#645=VECTOR('',#644,1.016E0);
#646=CARTESIAN_POINT('',(2.3749E0,2.740640854150E0,-8.382E0));
#647=LINE('',#646,#645);
#648=CARTESIAN_POINT('',(2.2225E0,1.22428E0,-7.366E0));
#649=DIRECTION('',(0.E0,0.E0,1.E0));
#650=DIRECTION('',(1.E0,0.E0,0.E0));
#651=AXIS2_PLACEMENT_3D('',#648,#649,#650);
#653=DIRECTION('',(0.E0,0.E0,-1.E0));
#654=VECTOR('',#653,7.366E0);
#655=CARTESIAN_POINT('',(3.7465E0,1.22428E0,0.E0));
#656=LINE('',#655,#654);
#657=CARTESIAN_POINT('',(7.278353436168E-1,1.521859510314E0,
-5.533204896855E-1));
#658=CARTESIAN_POINT('',(7.470090122643E-1,1.618163872232E0,
-4.570161277678E-1));
#659=CARTESIAN_POINT('',(8.037664203236E-1,1.806859299551E0,
-2.683207004493E-1));
#660=CARTESIAN_POINT('',(8.990629766618E-1,1.987362736917E0,
-8.781726308327E-2));
#661=CARTESIAN_POINT('',(9.581641308576E-1,2.07518E0,0.E0));
#663=DIRECTION('',(-1.E0,0.E0,0.E0));
#664=VECTOR('',#663,4.095073021525E-1);
#665=CARTESIAN_POINT('',(1.137342645769E0,1.521859510314E0,-5.533204896855E-1));
#666=LINE('',#665,#664);
#667=CARTESIAN_POINT('',(1.137342645769E0,1.521859510314E0,-5.533204896855E-1));
#668=CARTESIAN_POINT('',(1.130650427727E0,1.497455580026E0,-5.777244199745E-1));
#669=CARTESIAN_POINT('',(1.119497419232E0,1.450351509606E0,-6.297679475411E-1));
#670=CARTESIAN_POINT('',(1.108318373610E0,1.385480769585E0,-7.187743844798E-1));
#671=CARTESIAN_POINT('',(1.101772552117E0,1.329019186503E0,-8.175808591478E-1));
#672=CARTESIAN_POINT('',(1.098593912464E0,1.283273698134E0,-9.239932156498E-1));
#673=CARTESIAN_POINT('',(1.097455438690E0,1.249485231633E0,-1.036654151806E0));
#674=CARTESIAN_POINT('',(1.097265760510E0,1.228844669842E0,-1.153745086815E0));
#675=CARTESIAN_POINT('',(1.09728E0,1.22428E0,-1.232201016765E0));
#676=CARTESIAN_POINT('',(1.09728E0,1.22428E0,-1.271740979371E0));
#678=CARTESIAN_POINT('',(1.486232902813E0,2.07518E0,0.E0));
#679=CARTESIAN_POINT('',(1.393068092695E0,1.994566315307E0,-8.061368469302E-2));
#680=CARTESIAN_POINT('',(1.249470720467E0,1.819175098383E0,-2.560049016170E-1));
#681=CARTESIAN_POINT('',(1.165369735526E0,1.624063464259E0,-4.511165357414E-1));
#682=CARTESIAN_POINT('',(1.137342645769E0,1.521859510314E0,-5.533204896855E-1));
#684=CARTESIAN_POINT('',(2.2225E0,1.22428E0,-7.366E0));
#685=DIRECTION('',(0.E0,0.E0,1.E0));
#686=DIRECTION('',(1.E0,0.E0,0.E0));
#687=AXIS2_PLACEMENT_3D('',#684,#685,#686);
#689=DIRECTION('',(0.E0,0.E0,1.E0));
#690=VECTOR('',#689,1.016E0);
#691=CARTESIAN_POINT('',(2.3749E0,2.339131688970E0,-8.382E0));
#692=LINE('',#691,#690);
#693=CARTESIAN_POINT('',(1.738905078190E0,2.24028E0,-8.382E0));
#694=CARTESIAN_POINT('',(1.677434748262E0,2.211021398233E0,-8.352741398233E0));
#695=CARTESIAN_POINT('',(1.570031987673E0,2.146655676023E0,-8.288375676023E0));
#696=CARTESIAN_POINT('',(1.396849902704E0,2.002257027192E0,-8.143977027192E0));
#697=CARTESIAN_POINT('',(1.240286178597E0,1.799206925057E0,-7.940926925057E0));
#698=CARTESIAN_POINT('',(1.125833957168E0,1.527909663441E0,-7.669629663441E0));
#699=CARTESIAN_POINT('',(1.09728E0,1.329072490345E0,-7.470792490345E0));
#700=CARTESIAN_POINT('',(1.09728E0,1.22428E0,-7.366E0));
#702=DIRECTION('',(0.E0,0.E0,-1.E0));
#703=VECTOR('',#702,6.094259020629E0);
#704=CARTESIAN_POINT('',(1.09728E0,1.22428E0,-1.271740979371E0));
#705=LINE('',#704,#703);
#706=DIRECTION('',(0.E0,-1.E0,0.E0));
#707=VECTOR('',#706,6.985E-1);
#708=CARTESIAN_POINT('',(3.34772E0,1.22428E0,-7.366E0));
#709=LINE('',#708,#707);
#710=DIRECTION('',(0.E0,0.E0,-1.E0));
#711=VECTOR('',#710,7.366E0);
#712=CARTESIAN_POINT('',(3.34772E0,1.22428E0,0.E0));
#713=LINE('',#712,#711);
#714=CARTESIAN_POINT('',(3.22072E0,5.2578E-1,-7.366E0));
#715=DIRECTION('',(0.E0,0.E0,1.E0));
#716=DIRECTION('',(0.E0,-1.E0,0.E0));
#717=AXIS2_PLACEMENT_3D('',#714,#715,#716);
#719=DIRECTION('',(0.E0,0.E0,-1.E0));
#720=VECTOR('',#719,7.366E0);
#721=CARTESIAN_POINT('',(3.34772E0,5.2578E-1,0.E0));
#722=LINE('',#721,#720);
#723=DIRECTION('',(-1.E0,0.E0,0.E0));
#724=VECTOR('',#723,3.9878E-1);
#725=CARTESIAN_POINT('',(1.09728E0,1.22428E0,-1.271740979371E0));
#726=LINE('',#725,#724);
#727=DIRECTION('',(1.E0,0.E0,0.E0));
#728=VECTOR('',#727,3.9878E-1);
#729=CARTESIAN_POINT('',(6.985E-1,1.22428E0,-7.366E0));
#730=LINE('',#729,#728);
#731=DIRECTION('',(0.E0,0.E0,-1.E0));
#732=VECTOR('',#731,6.094259020629E0);
#733=CARTESIAN_POINT('',(6.985E-1,1.22428E0,-1.271740979371E0));
#734=LINE('',#733,#732);
#735=CARTESIAN_POINT('',(7.368493599497E-1,0.E0,-8.382E0));
#736=DIRECTION('',(-1.E0,0.E0,0.E0));
#737=DIRECTION('',(0.E0,-1.E0,0.E0));
#738=AXIS2_PLACEMENT_3D('',#735,#736,#737);
#740=CARTESIAN_POINT('',(-7.368493599497E-1,0.E0,-8.382E0));
#741=DIRECTION('',(-1.E0,0.E0,0.E0));
#742=DIRECTION('',(0.E0,-1.E0,0.E0));
#743=AXIS2_PLACEMENT_3D('',#740,#741,#742);
#745=DIRECTION('',(0.E0,1.E0,0.E0));
#746=VECTOR('',#745,3.9878E-1);
#747=CARTESIAN_POINT('',(-1.85928E0,0.E0,-9.906E0));
#748=LINE('',#747,#746);
#749=DIRECTION('',(0.E0,1.E0,0.E0));
#750=VECTOR('',#749,3.9878E-1);
#751=CARTESIAN_POINT('',(-2.111925602793E0,0.E0,-1.181679991569E1));
#752=LINE('',#751,#750);
#753=DIRECTION('',(0.E0,1.E0,0.E0));
#754=VECTOR('',#753,3.9878E-1);
#755=CARTESIAN_POINT('',(-2.968074397207E0,0.E0,-1.181679991569E1));
#756=LINE('',#755,#754);
#757=DIRECTION('',(0.E0,1.E0,0.E0));
#758=VECTOR('',#757,3.9878E-1);
#759=CARTESIAN_POINT('',(-3.22072E0,0.E0,-9.906E0));
#760=LINE('',#759,#758);
#761=DIRECTION('',(0.E0,1.E0,0.E0));
#762=VECTOR('',#761,3.9878E-1);
#763=CARTESIAN_POINT('',(-3.22072E0,0.E0,-7.366E0));
#764=LINE('',#763,#762);
#765=CARTESIAN_POINT('',(-3.22072E0,5.2578E-1,-7.366E0));
#766=DIRECTION('',(0.E0,0.E0,1.E0));
#767=DIRECTION('',(-1.E0,0.E0,0.E0));
#768=AXIS2_PLACEMENT_3D('',#765,#766,#767);
#770=DIRECTION('',(0.E0,0.E0,-1.E0));
#771=VECTOR('',#770,7.366E0);
#772=CARTESIAN_POINT('',(-3.22072E0,3.9878E-1,0.E0));
#773=LINE('',#772,#771);
#774=DIRECTION('',(0.E0,1.E0,0.E0));
#775=VECTOR('',#774,6.985E-1);
#776=CARTESIAN_POINT('',(-3.34772E0,5.2578E-1,-7.366E0));
#777=LINE('',#776,#775);
#778=DIRECTION('',(0.E0,0.E0,-1.E0));
#779=VECTOR('',#778,7.366E0);
#780=CARTESIAN_POINT('',(-3.34772E0,5.2578E-1,0.E0));
#781=LINE('',#780,#779);
#782=DIRECTION('',(0.E0,1.E0,0.E0));
#783=VECTOR('',#782,4.015091651802E-1);
#784=CARTESIAN_POINT('',(-2.3749E0,2.339131688970E0,-7.366E0));
#785=LINE('',#784,#783);
#786=CARTESIAN_POINT('',(-7.278353436168E-1,1.521859510314E0,
-5.533204896855E-1));
#787=CARTESIAN_POINT('',(-7.227688739708E-1,1.496411948066E0,
-5.787680519337E-1));
#788=CARTESIAN_POINT('',(-7.144517185662E-1,1.447882000048E0,
-6.326731226175E-1));
#789=CARTESIAN_POINT('',(-7.063143136262E-1,1.382430151140E0,
-7.234404557896E-1));
#790=CARTESIAN_POINT('',(-7.016453273506E-1,1.326380004459E0,
-8.229620860741E-1));
#791=CARTESIAN_POINT('',(-6.994193134689E-1,1.281711587288E0,
-9.284802551972E-1));
#792=CARTESIAN_POINT('',(-6.986212560380E-1,1.248741000942E0,
-1.040049986917E0));
#793=CARTESIAN_POINT('',(-6.984902642217E-1,1.228699535937E0,
-1.155583703093E0));
#794=CARTESIAN_POINT('',(-6.985E-1,1.22428E0,-1.232848183787E0));
#795=CARTESIAN_POINT('',(-6.985E-1,1.22428E0,-1.271740979371E0));
#797=CARTESIAN_POINT('',(-9.581641308576E-1,2.07518E0,0.E0));
#798=CARTESIAN_POINT('',(-8.990629766618E-1,1.987362736917E0,
-8.781726308327E-2));
#799=CARTESIAN_POINT('',(-8.037664203236E-1,1.806859299551E0,
-2.683207004493E-1));
#800=CARTESIAN_POINT('',(-7.470090122643E-1,1.618163872232E0,
-4.570161277678E-1));
#801=CARTESIAN_POINT('',(-7.278353436168E-1,1.521859510314E0,
-5.533204896855E-1));
#803=CARTESIAN_POINT('',(-2.2225E0,1.22428E0,-7.366E0));
#804=DIRECTION('',(0.E0,0.E0,1.E0));
#805=DIRECTION('',(-1.E-1,9.949874371066E-1,0.E0));
#806=AXIS2_PLACEMENT_3D('',#803,#804,#805);
#808=DIRECTION('',(0.E0,0.E0,1.E0));
#809=VECTOR('',#808,1.016E0);
#810=CARTESIAN_POINT('',(-2.3749E0,2.740640854150E0,-8.382E0));
#811=LINE('',#810,#809);
#812=CARTESIAN_POINT('',(-6.985E-1,1.22428E0,-7.366E0));
#813=CARTESIAN_POINT('',(-6.985E-1,1.406862405878E0,-7.548582405878E0));
#814=CARTESIAN_POINT('',(-7.459859370918E-1,1.671008916193E0,
-7.812728916193E0));
#815=CARTESIAN_POINT('',(-9.029444701875E-1,2.004022080414E0,
-8.145742080414E0));
#816=CARTESIAN_POINT('',(-1.017567804612E0,2.163124851417E0,-8.304844851417E0));
#817=CARTESIAN_POINT('',(-1.086577467430E0,2.24028E0,-8.382E0));
#819=DIRECTION('',(0.E0,0.E0,-1.E0));
#820=VECTOR('',#819,6.094259020629E0);
#821=CARTESIAN_POINT('',(-6.985E-1,1.22428E0,-1.271740979371E0));
#822=LINE('',#821,#820);
#823=DIRECTION('',(0.E0,-1.E0,0.E0));
#824=VECTOR('',#823,6.985E-1);
#825=CARTESIAN_POINT('',(-3.7465E0,1.22428E0,-7.366E0));
#826=LINE('',#825,#824);
#827=DIRECTION('',(0.E0,0.E0,-1.E0));
#828=VECTOR('',#827,7.366E0);
#829=CARTESIAN_POINT('',(-3.7465E0,1.22428E0,0.E0));
#830=LINE('',#829,#828);
#831=CARTESIAN_POINT('',(-3.22072E0,5.2578E-1,-7.366E0));
#832=DIRECTION('',(0.E0,0.E0,1.E0));
#833=DIRECTION('',(-1.E0,0.E0,0.E0));
#834=AXIS2_PLACEMENT_3D('',#831,#832,#833);
#836=DIRECTION('',(0.E0,0.E0,-1.E0));
#837=VECTOR('',#836,7.366E0);
#838=CARTESIAN_POINT('',(-3.7465E0,5.2578E-1,0.E0));
#839=LINE('',#838,#837);
#840=DIRECTION('',(-1.E0,0.E0,0.E0));
#841=VECTOR('',#840,3.9878E-1);
#842=CARTESIAN_POINT('',(-6.985E-1,1.22428E0,-1.271740979371E0));
#843=LINE('',#842,#841);
#844=DIRECTION('',(1.E0,0.E0,0.E0));
#845=VECTOR('',#844,3.9878E-1);
#846=CARTESIAN_POINT('',(-1.09728E0,1.22428E0,-7.366E0));
#847=LINE('',#846,#845);
#848=DIRECTION('',(0.E0,0.E0,-1.E0));
#849=VECTOR('',#848,6.094259020629E0);
#850=CARTESIAN_POINT('',(-1.09728E0,1.22428E0,-1.271740979371E0));
#851=LINE('',#850,#849);
#852=DIRECTION('',(0.E0,-1.E0,0.E0));
#853=VECTOR('',#852,3.9878E-1);
#854=CARTESIAN_POINT('',(-3.684246799749E-1,3.9878E-1,-7.520733500841E0));
#855=LINE('',#854,#853);
#856=CARTESIAN_POINT('',(0.E0,0.E0,-7.67334E0));
#857=DIRECTION('',(0.E0,1.E0,0.E0));
#858=DIRECTION('',(-9.238795325113E-1,0.E0,3.826834323651E-1));
#859=AXIS2_PLACEMENT_3D('',#856,#857,#858);
#861=CARTESIAN_POINT('',(3.684246799749E-1,0.E0,-8.382E0));
#862=DIRECTION('',(-1.E0,0.E0,0.E0));
#863=DIRECTION('',(0.E0,-1.E0,0.E0));
#864=AXIS2_PLACEMENT_3D('',#861,#862,#863);
#866=DIRECTION('',(3.826834323651E-1,0.E0,9.238795325113E-1));
#867=VECTOR('',#866,9.322281410624E-1);
#868=CARTESIAN_POINT('',(-7.251729447439E-1,0.E0,-8.382E0));
#869=LINE('',#868,#867);
#870=CARTESIAN_POINT('',(-3.684246799749E-1,0.E0,-8.382E0));
#871=DIRECTION('',(-1.E0,0.E0,0.E0));
#872=DIRECTION('',(0.E0,-1.E0,0.E0));
#873=AXIS2_PLACEMENT_3D('',#870,#871,#872);
#875=DIRECTION('',(3.826834323651E-1,0.E0,-9.238795325113E-1));
#876=VECTOR('',#875,9.322281410624E-1);
#877=CARTESIAN_POINT('',(3.684246799749E-1,0.E0,-7.520733500841E0));
#878=LINE('',#877,#876);
#879=DIRECTION('',(0.E0,-1.E0,0.E0));
#880=VECTOR('',#879,3.9878E-1);
#881=CARTESIAN_POINT('',(3.684246799749E-1,3.9878E-1,-7.520733500841E0));
#882=LINE('',#881,#880);
#883=CARTESIAN_POINT('',(3.7465E0,5.2578E-1,0.E0));
#884=CARTESIAN_POINT('',(3.22072E0,0.E0,0.E0));
#885=VERTEX_POINT('',#883);
#886=VERTEX_POINT('',#884);
#887=CARTESIAN_POINT('',(3.7465E0,1.22428E0,0.E0));
#888=VERTEX_POINT('',#887);
#889=CARTESIAN_POINT('',(3.34772E0,5.2578E-1,0.E0));
#890=CARTESIAN_POINT('',(3.34772E0,1.22428E0,0.E0));
#891=VERTEX_POINT('',#889);
#892=VERTEX_POINT('',#890);
#893=CARTESIAN_POINT('',(3.22072E0,3.9878E-1,0.E0));
#894=VERTEX_POINT('',#893);
#895=CARTESIAN_POINT('',(-3.34772E0,5.2578E-1,0.E0));
#896=CARTESIAN_POINT('',(-3.22072E0,3.9878E-1,0.E0));
#897=VERTEX_POINT('',#895);
#898=VERTEX_POINT('',#896);
#899=CARTESIAN_POINT('',(-3.34772E0,1.22428E0,0.E0));
#900=VERTEX_POINT('',#899);
#901=CARTESIAN_POINT('',(-3.7465E0,5.2578E-1,0.E0));
#902=CARTESIAN_POINT('',(-3.7465E0,1.22428E0,0.E0));
#903=VERTEX_POINT('',#901);
#904=VERTEX_POINT('',#902);
#905=CARTESIAN_POINT('',(-3.22072E0,0.E0,0.E0));
#906=VERTEX_POINT('',#905);
#907=CARTESIAN_POINT('',(1.27E0,5.6388E-1,-8.89E-1));
#908=CARTESIAN_POINT('',(1.27E0,5.6388E-1,-4.445E0));
#909=VERTEX_POINT('',#907);
#910=VERTEX_POINT('',#908);
#911=CARTESIAN_POINT('',(-1.27E0,5.6388E-1,-8.89E-1));
#912=CARTESIAN_POINT('',(-1.27E0,5.6388E-1,-4.445E0));
#913=VERTEX_POINT('',#911);
#914=VERTEX_POINT('',#912);
#915=CARTESIAN_POINT('',(1.27E0,3.9878E-1,-4.445E0));
#916=VERTEX_POINT('',#915);
#917=CARTESIAN_POINT('',(1.27E0,3.9878E-1,-4.353914780480E-1));
#918=VERTEX_POINT('',#917);
#919=CARTESIAN_POINT('',(-1.27E0,3.9878E-1,-4.445E0));
#920=VERTEX_POINT('',#919);
#921=CARTESIAN_POINT('',(-1.27E0,3.9878E-1,-4.353914780480E-1));
#922=VERTEX_POINT('',#921);
#923=CARTESIAN_POINT('',(-2.3749E0,2.339131688970E0,-7.366E0));
#924=CARTESIAN_POINT('',(-2.3749E0,2.740640854150E0,-7.366E0));
#925=VERTEX_POINT('',#923);
#926=VERTEX_POINT('',#924);
#927=CARTESIAN_POINT('',(2.3749E0,2.339131688970E0,-7.366E0));
#928=CARTESIAN_POINT('',(2.3749E0,2.740640854150E0,-7.366E0));
#929=VERTEX_POINT('',#927);
#930=VERTEX_POINT('',#928);
#931=CARTESIAN_POINT('',(-3.22072E0,0.E0,-9.906E0));
#932=CARTESIAN_POINT('',(-2.968074397207E0,0.E0,-1.181679991569E1));
#933=VERTEX_POINT('',#931);
#934=VERTEX_POINT('',#932);
#935=CARTESIAN_POINT('',(-2.111925602793E0,0.E0,-1.181679991569E1));
#936=VERTEX_POINT('',#935);
#937=CARTESIAN_POINT('',(-1.85928E0,0.E0,-9.906E0));
#938=VERTEX_POINT('',#937);
#939=CARTESIAN_POINT('',(1.85928E0,0.E0,-9.906E0));
#940=CARTESIAN_POINT('',(2.111925602793E0,0.E0,-1.181679991569E1));
#941=VERTEX_POINT('',#939);
#942=VERTEX_POINT('',#940);
#943=CARTESIAN_POINT('',(2.968074397207E0,0.E0,-1.181679991569E1));
#944=VERTEX_POINT('',#943);
#945=CARTESIAN_POINT('',(3.22072E0,0.E0,-9.906E0));
#946=VERTEX_POINT('',#945);
#947=CARTESIAN_POINT('',(-3.22072E0,3.9878E-1,-9.906E0));
#948=CARTESIAN_POINT('',(-2.968074397207E0,3.9878E-1,-1.181679991569E1));
#949=VERTEX_POINT('',#947);
#950=VERTEX_POINT('',#948);
#951=CARTESIAN_POINT('',(-2.111925602793E0,3.9878E-1,-1.181679991569E1));
#952=VERTEX_POINT('',#951);
#953=CARTESIAN_POINT('',(-1.85928E0,3.9878E-1,-9.906E0));
#954=VERTEX_POINT('',#953);
#955=CARTESIAN_POINT('',(1.85928E0,3.9878E-1,-9.906E0));
#956=CARTESIAN_POINT('',(2.111925602793E0,3.9878E-1,-1.181679991569E1));
#957=VERTEX_POINT('',#955);
#958=VERTEX_POINT('',#956);
#959=CARTESIAN_POINT('',(2.968074397207E0,3.9878E-1,-1.181679991569E1));
#960=VERTEX_POINT('',#959);
#961=CARTESIAN_POINT('',(3.22072E0,3.9878E-1,-9.906E0));
#962=VERTEX_POINT('',#961);
#963=CARTESIAN_POINT('',(-3.22072E0,0.E0,-7.366E0));
#964=VERTEX_POINT('',#963);
#965=CARTESIAN_POINT('',(-1.85928E0,0.E0,-8.382E0));
#966=VERTEX_POINT('',#965);
#967=CARTESIAN_POINT('',(1.85928E0,0.E0,-8.382E0));
#968=VERTEX_POINT('',#967);
#969=CARTESIAN_POINT('',(3.22072E0,0.E0,-7.366E0));
#970=VERTEX_POINT('',#969);
#971=CARTESIAN_POINT('',(-3.22072E0,3.9878E-1,-7.366E0));
#972=VERTEX_POINT('',#971);
#973=CARTESIAN_POINT('',(-1.85928E0,3.9878E-1,-8.382E0));
#974=VERTEX_POINT('',#973);
#975=CARTESIAN_POINT('',(1.85928E0,3.9878E-1,-8.382E0));
#976=VERTEX_POINT('',#975);
#977=CARTESIAN_POINT('',(3.22072E0,3.9878E-1,-7.366E0));
#978=VERTEX_POINT('',#977);
#979=CARTESIAN_POINT('',(3.684246799749E-1,-8.612664991586E-1,-8.382E0));
#980=CARTESIAN_POINT('',(-3.684246799749E-1,-8.612664991586E-1,-8.382E0));
#981=VERTEX_POINT('',#979);
#982=VERTEX_POINT('',#980);
#983=CARTESIAN_POINT('',(-1.156809306377E0,0.E0,-8.382E0));
#984=CARTESIAN_POINT('',(-7.368493599497E-1,-1.013872998317E0,-8.382E0));
#985=VERTEX_POINT('',#983);
#986=VERTEX_POINT('',#984);
#987=CARTESIAN_POINT('',(7.368493599497E-1,-1.013872998317E0,-8.382E0));
#988=CARTESIAN_POINT('',(1.156809306377E0,0.E0,-8.382E0));
#989=VERTEX_POINT('',#987);
#990=VERTEX_POINT('',#988);
#991=CARTESIAN_POINT('',(-7.368493599497E-1,0.E0,-7.368127001683E0));
#992=VERTEX_POINT('',#991);
#993=CARTESIAN_POINT('',(7.368493599497E-1,0.E0,-7.368127001683E0));
#994=VERTEX_POINT('',#993);
#995=CARTESIAN_POINT('',(-3.684246799749E-1,3.9878E-1,-7.520733500841E0));
#996=CARTESIAN_POINT('',(-3.684246799749E-1,0.E0,-7.520733500841E0));
#997=VERTEX_POINT('',#995);
#998=VERTEX_POINT('',#996);
#999=CARTESIAN_POINT('',(3.684246799749E-1,3.9878E-1,-7.520733500841E0));
#1000=CARTESIAN_POINT('',(3.684246799749E-1,0.E0,-7.520733500841E0));
#1001=VERTEX_POINT('',#999);
#1002=VERTEX_POINT('',#1000);
#1003=CARTESIAN_POINT('',(-1.27E0,3.9878E-1,9.99998E-1));
#1004=CARTESIAN_POINT('',(-1.27E0,0.E0,9.99998E-1));
#1005=VERTEX_POINT('',#1003);
#1006=VERTEX_POINT('',#1004);
#1007=CARTESIAN_POINT('',(1.27E0,0.E0,9.99998E-1));
#1008=VERTEX_POINT('',#1007);
#1009=CARTESIAN_POINT('',(1.27E0,3.9878E-1,9.99998E-1));
#1010=VERTEX_POINT('',#1009);
#1011=CARTESIAN_POINT('',(-1.524E0,3.9878E-1,0.E0));
#1012=CARTESIAN_POINT('',(-1.27E0,3.9878E-1,2.54E-1));
#1013=VERTEX_POINT('',#1011);
#1014=VERTEX_POINT('',#1012);
#1015=CARTESIAN_POINT('',(-1.27E0,0.E0,2.54E-1));
#1016=CARTESIAN_POINT('',(-1.524E0,0.E0,0.E0));
#1017=VERTEX_POINT('',#1015);
#1018=VERTEX_POINT('',#1016);
#1019=CARTESIAN_POINT('',(1.524E0,0.E0,0.E0));
#1020=CARTESIAN_POINT('',(1.27E0,0.E0,2.54E-1));
#1021=VERTEX_POINT('',#1019);
#1022=VERTEX_POINT('',#1020);
#1023=CARTESIAN_POINT('',(1.27E0,3.9878E-1,2.54E-1));
#1024=CARTESIAN_POINT('',(1.524E0,3.9878E-1,0.E0));
#1025=VERTEX_POINT('',#1023);
#1026=VERTEX_POINT('',#1024);
#1027=CARTESIAN_POINT('',(-2.3749E0,2.339131688970E0,-8.382E0));
#1028=CARTESIAN_POINT('',(-2.3749E0,2.740640854150E0,-8.382E0));
#1029=VERTEX_POINT('',#1027);
#1030=VERTEX_POINT('',#1028);
#1031=CARTESIAN_POINT('',(2.3749E0,2.339131688970E0,-8.382E0));
#1032=CARTESIAN_POINT('',(2.3749E0,2.740640854150E0,-8.382E0));
#1033=VERTEX_POINT('',#1031);
#1034=VERTEX_POINT('',#1032);
#1035=CARTESIAN_POINT('',(3.7465E0,5.2578E-1,-7.366E0));
#1036=CARTESIAN_POINT('',(3.7465E0,1.22428E0,-7.366E0));
#1037=VERTEX_POINT('',#1035);
#1038=VERTEX_POINT('',#1036);
#1039=CARTESIAN_POINT('',(3.34772E0,1.22428E0,-7.366E0));
#1040=VERTEX_POINT('',#1039);
#1041=CARTESIAN_POINT('',(3.34772E0,5.2578E-1,-7.366E0));
#1042=VERTEX_POINT('',#1041);
#1043=CARTESIAN_POINT('',(-3.34772E0,5.2578E-1,-7.366E0));
#1044=CARTESIAN_POINT('',(-3.34772E0,1.22428E0,-7.366E0));
#1045=VERTEX_POINT('',#1043);
#1046=VERTEX_POINT('',#1044);
#1047=CARTESIAN_POINT('',(-3.7465E0,1.22428E0,-7.366E0));
#1048=VERTEX_POINT('',#1047);
#1049=CARTESIAN_POINT('',(-3.7465E0,5.2578E-1,-7.366E0));
#1050=VERTEX_POINT('',#1049);
#1051=CARTESIAN_POINT('',(-1.738905078190E0,2.24028E0,-8.382E0));
#1052=CARTESIAN_POINT('',(-1.086577467430E0,2.24028E0,-8.382E0));
#1053=VERTEX_POINT('',#1051);
#1054=VERTEX_POINT('',#1052);
#1055=CARTESIAN_POINT('',(1.086577467430E0,2.24028E0,-8.382E0));
#1056=CARTESIAN_POINT('',(1.738905078190E0,2.24028E0,-8.382E0));
#1057=VERTEX_POINT('',#1055);
#1058=VERTEX_POINT('',#1056);
#1059=VERTEX_POINT('',#642);
#1060=CARTESIAN_POINT('',(1.09728E0,1.22428E0,-7.366E0));
#1061=VERTEX_POINT('',#1060);
#1062=VERTEX_POINT('',#239);
#1063=CARTESIAN_POINT('',(-6.985E-1,1.22428E0,-7.366E0));
#1064=VERTEX_POINT('',#1063);
#1065=CARTESIAN_POINT('',(7.251729447439E-1,0.E0,-8.382E0));
#1066=CARTESIAN_POINT('',(7.251729447439E-1,3.9878E-1,-8.382E0));
#1067=VERTEX_POINT('',#1065);
#1068=VERTEX_POINT('',#1066);
#1069=CARTESIAN_POINT('',(-7.251729447439E-1,0.E0,-8.382E0));
#1070=CARTESIAN_POINT('',(-7.251729447439E-1,3.9878E-1,-8.382E0));
#1071=VERTEX_POINT('',#1069);
#1072=VERTEX_POINT('',#1070);
#1073=CARTESIAN_POINT('',(9.581641308576E-1,2.07518E0,0.E0));
#1074=CARTESIAN_POINT('',(1.486232902813E0,2.07518E0,0.E0));
#1075=VERTEX_POINT('',#1073);
#1076=VERTEX_POINT('',#1074);
#1077=CARTESIAN_POINT('',(-1.486232902813E0,2.07518E0,0.E0));
#1078=CARTESIAN_POINT('',(-9.581641308576E-1,2.07518E0,0.E0));
#1079=VERTEX_POINT('',#1077);
#1080=VERTEX_POINT('',#1078);
#1081=VERTEX_POINT('',#228);
#1082=VERTEX_POINT('',#237);
#1083=CARTESIAN_POINT('',(-7.278353436168E-1,1.521859510314E0,
-5.533204896855E-1));
#1084=VERTEX_POINT('',#1083);
#1085=VERTEX_POINT('',#795);
#1086=VERTEX_POINT('',#626);
#1087=VERTEX_POINT('',#635);
#1088=CARTESIAN_POINT('',(1.137342645769E0,1.521859510314E0,
-5.533204896855E-1));
#1089=VERTEX_POINT('',#1088);
#1090=VERTEX_POINT('',#676);
#1091=CARTESIAN_POINT('',(0.E0,0.E0,-8.382E0));
#1092=DIRECTION('',(0.E0,0.E0,1.E0));
#1093=DIRECTION('',(1.E0,0.E0,0.E0));
#1094=AXIS2_PLACEMENT_3D('',#1091,#1092,#1093);
#1095=PLANE('',#1094);
#1097=ORIENTED_EDGE('',*,*,#1096,.T.);
#1099=ORIENTED_EDGE('',*,*,#1098,.F.);
#1101=ORIENTED_EDGE('',*,*,#1100,.F.);
#1103=ORIENTED_EDGE('',*,*,#1102,.F.);
#1104=EDGE_LOOP('',(#1097,#1099,#1101,#1103));
#1105=FACE_OUTER_BOUND('',#1104,.F.);
#1107=CARTESIAN_POINT('',(0.E0,0.E0,-8.382E0));
#1108=DIRECTION('',(0.E0,0.E0,1.E0));
#1109=DIRECTION('',(1.E0,0.E0,0.E0));
#1110=AXIS2_PLACEMENT_3D('',#1107,#1108,#1109);
#1111=PLANE('',#1110);
#1113=ORIENTED_EDGE('',*,*,#1112,.T.);
#1115=ORIENTED_EDGE('',*,*,#1114,.F.);
#1117=ORIENTED_EDGE('',*,*,#1116,.T.);
#1119=ORIENTED_EDGE('',*,*,#1118,.F.);
#1120=EDGE_LOOP('',(#1113,#1115,#1117,#1119));
#1121=FACE_OUTER_BOUND('',#1120,.F.);
#1123=CARTESIAN_POINT('',(0.E0,0.E0,-8.382E0));
#1124=DIRECTION('',(0.E0,0.E0,1.E0));
#1125=DIRECTION('',(1.E0,0.E0,0.E0));
#1126=AXIS2_PLACEMENT_3D('',#1123,#1124,#1125);
#1127=PLANE('',#1126);
#1129=ORIENTED_EDGE('',*,*,#1128,.F.);
#1131=ORIENTED_EDGE('',*,*,#1130,.T.);
#1133=ORIENTED_EDGE('',*,*,#1132,.T.);
#1135=ORIENTED_EDGE('',*,*,#1134,.T.);
#1137=ORIENTED_EDGE('',*,*,#1136,.T.);
#1139=ORIENTED_EDGE('',*,*,#1138,.F.);
#1141=ORIENTED_EDGE('',*,*,#1140,.F.);
#1143=ORIENTED_EDGE('',*,*,#1142,.F.);
#1145=ORIENTED_EDGE('',*,*,#1144,.T.);
#1147=ORIENTED_EDGE('',*,*,#1146,.T.);
#1149=ORIENTED_EDGE('',*,*,#1148,.T.);
#1151=ORIENTED_EDGE('',*,*,#1150,.F.);
#1153=ORIENTED_EDGE('',*,*,#1152,.T.);
#1155=ORIENTED_EDGE('',*,*,#1154,.F.);
#1156=EDGE_LOOP('',(#1129,#1131,#1133,#1135,#1137,#1139,#1141,#1143,#1145,#1147,
#1149,#1151,#1153,#1155));
#1157=FACE_OUTER_BOUND('',#1156,.F.);
#1159=CARTESIAN_POINT('',(-4.4958E0,2.24028E0,-8.382E0));
#1160=DIRECTION('',(0.E0,7.071067811865E-1,7.071067811865E-1));
#1161=DIRECTION('',(0.E0,-7.071067811865E-1,7.071067811865E-1));
#1162=AXIS2_PLACEMENT_3D('',#1159,#1160,#1161);
#1163=PLANE('',#1162);
#1165=ORIENTED_EDGE('',*,*,#1164,.F.);
#1167=ORIENTED_EDGE('',*,*,#1166,.T.);
#1169=ORIENTED_EDGE('',*,*,#1168,.T.);
#1170=ORIENTED_EDGE('',*,*,#1096,.F.);
#1171=EDGE_LOOP('',(#1165,#1167,#1169,#1170));
#1172=FACE_OUTER_BOUND('',#1171,.F.);
#1174=CARTESIAN_POINT('',(-4.4958E0,2.24028E0,-8.382E0));
#1175=DIRECTION('',(0.E0,7.071067811865E-1,7.071067811865E-1));
#1176=DIRECTION('',(0.E0,-7.071067811865E-1,7.071067811865E-1));
#1177=AXIS2_PLACEMENT_3D('',#1174,#1175,#1176);
#1178=PLANE('',#1177);
#1180=ORIENTED_EDGE('',*,*,#1179,.T.);
#1182=ORIENTED_EDGE('',*,*,#1181,.T.);
#1184=ORIENTED_EDGE('',*,*,#1183,.F.);
#1185=ORIENTED_EDGE('',*,*,#1112,.F.);
#1186=EDGE_LOOP('',(#1180,#1182,#1184,#1185));
#1187=FACE_OUTER_BOUND('',#1186,.F.);
#1189=CARTESIAN_POINT('',(-2.2225E0,1.22428E0,-8.382E0));
#1190=DIRECTION('',(0.E0,0.E0,1.E0));
#1191=DIRECTION('',(1.E0,0.E0,0.E0));
#1192=AXIS2_PLACEMENT_3D('',#1189,#1190,#1191);
#1193=CYLINDRICAL_SURFACE('',#1192,1.12522E0);
#1195=ORIENTED_EDGE('',*,*,#1194,.F.);
#1197=ORIENTED_EDGE('',*,*,#1196,.T.);
#1198=ORIENTED_EDGE('',*,*,#1164,.T.);
#1199=ORIENTED_EDGE('',*,*,#1102,.T.);
#1201=ORIENTED_EDGE('',*,*,#1200,.T.);
#1203=ORIENTED_EDGE('',*,*,#1202,.T.);
#1205=ORIENTED_EDGE('',*,*,#1204,.F.);
#1207=ORIENTED_EDGE('',*,*,#1206,.F.);
#1209=ORIENTED_EDGE('',*,*,#1208,.F.);
#1210=EDGE_LOOP('',(#1195,#1197,#1198,#1199,#1201,#1203,#1205,#1207,#1209));
#1211=FACE_OUTER_BOUND('',#1210,.F.);
#1213=CARTESIAN_POINT('',(1.35143748E1,2.24028E0,-1.271740979371E0));
#1214=DIRECTION('',(-1.E0,0.E0,0.E0));
#1215=DIRECTION('',(0.E0,-1.E0,0.E0));
#1216=AXIS2_PLACEMENT_3D('',#1213,#1214,#1215);
#1217=CYLINDRICAL_SURFACE('',#1216,1.016E0);
#1218=ORIENTED_EDGE('',*,*,#1194,.T.);
#1220=ORIENTED_EDGE('',*,*,#1219,.F.);
#1222=ORIENTED_EDGE('',*,*,#1221,.T.);
#1224=ORIENTED_EDGE('',*,*,#1223,.T.);
#1225=EDGE_LOOP('',(#1218,#1220,#1222,#1224));
#1226=FACE_OUTER_BOUND('',#1225,.F.);
#1228=CARTESIAN_POINT('',(-1.027722065429E0,1.64973E0,-4.2545E-1));
#1229=DIRECTION('',(0.E0,-7.071067811865E-1,7.071067811865E-1));
#1230=DIRECTION('',(0.E0,-7.071067811865E-1,-7.071067811865E-1));
#1231=AXIS2_PLACEMENT_3D('',#1228,#1229,#1230);
#1232=PLANE('',#1231);
#1233=ORIENTED_EDGE('',*,*,#1219,.T.);
#1234=ORIENTED_EDGE('',*,*,#1208,.T.);
#1236=ORIENTED_EDGE('',*,*,#1235,.T.);
#1238=ORIENTED_EDGE('',*,*,#1237,.T.);
#1239=EDGE_LOOP('',(#1233,#1234,#1236,#1238));
#1240=FACE_OUTER_BOUND('',#1239,.F.);
#1242=CARTESIAN_POINT('',(0.E0,0.E0,0.E0));
#1243=DIRECTION('',(0.E0,0.E0,1.E0));
#1244=DIRECTION('',(1.E0,0.E0,0.E0));
#1245=AXIS2_PLACEMENT_3D('',#1242,#1243,#1244);
#1246=PLANE('',#1245);
#1248=ORIENTED_EDGE('',*,*,#1247,.T.);
#1250=ORIENTED_EDGE('',*,*,#1249,.T.);
#1252=ORIENTED_EDGE('',*,*,#1251,.T.);
#1254=ORIENTED_EDGE('',*,*,#1253,.T.);
#1256=ORIENTED_EDGE('',*,*,#1255,.T.);
#1257=ORIENTED_EDGE('',*,*,#1235,.F.);
#1258=ORIENTED_EDGE('',*,*,#1206,.T.);
#1260=ORIENTED_EDGE('',*,*,#1259,.T.);
#1262=ORIENTED_EDGE('',*,*,#1261,.T.);
#1264=ORIENTED_EDGE('',*,*,#1263,.T.);
#1265=EDGE_LOOP('',(#1248,#1250,#1252,#1254,#1256,#1257,#1258,#1260,#1262,
#1264));
#1266=FACE_OUTER_BOUND('',#1265,.F.);
#1268=CARTESIAN_POINT('',(0.E0,0.E0,0.E0));
#1269=DIRECTION('',(0.E0,0.E0,1.E0));
#1270=DIRECTION('',(1.E0,0.E0,0.E0));
#1271=AXIS2_PLACEMENT_3D('',#1268,#1269,#1270);
#1272=PLANE('',#1271);
#1274=ORIENTED_EDGE('',*,*,#1273,.T.);
#1276=ORIENTED_EDGE('',*,*,#1275,.T.);
#1278=ORIENTED_EDGE('',*,*,#1277,.T.);
#1280=ORIENTED_EDGE('',*,*,#1279,.T.);
#1282=ORIENTED_EDGE('',*,*,#1281,.T.);
#1284=ORIENTED_EDGE('',*,*,#1283,.F.);
#1286=ORIENTED_EDGE('',*,*,#1285,.T.);
#1288=ORIENTED_EDGE('',*,*,#1287,.T.);
#1290=ORIENTED_EDGE('',*,*,#1289,.T.);
#1292=ORIENTED_EDGE('',*,*,#1291,.T.);
#1293=EDGE_LOOP('',(#1274,#1276,#1278,#1280,#1282,#1284,#1286,#1288,#1290,
#1292));
#1294=FACE_OUTER_BOUND('',#1293,.F.);
#1296=CARTESIAN_POINT('',(-1.524E0,8.294706268069E0,2.54E-1));
#1297=DIRECTION('',(0.E0,-1.E0,0.E0));
#1298=DIRECTION('',(0.E0,0.E0,-1.E0));
#1299=AXIS2_PLACEMENT_3D('',#1296,#1297,#1298);
#1300=CYLINDRICAL_SURFACE('',#1299,2.54E-1);
#1302=ORIENTED_EDGE('',*,*,#1301,.T.);
#1304=ORIENTED_EDGE('',*,*,#1303,.T.);
#1306=ORIENTED_EDGE('',*,*,#1305,.T.);
#1307=ORIENTED_EDGE('',*,*,#1247,.F.);
#1308=EDGE_LOOP('',(#1302,#1304,#1306,#1307));
#1309=FACE_OUTER_BOUND('',#1308,.F.);
#1311=CARTESIAN_POINT('',(3.22072E0,3.9878E-1,-8.382E0));
#1312=DIRECTION('',(0.E0,1.E0,0.E0));
#1313=DIRECTION('',(-1.E0,0.E0,0.E0));
#1314=AXIS2_PLACEMENT_3D('',#1311,#1312,#1313);
#1315=PLANE('',#1314);
#1316=ORIENTED_EDGE('',*,*,#1275,.F.);
#1318=ORIENTED_EDGE('',*,*,#1317,.F.);
#1320=ORIENTED_EDGE('',*,*,#1319,.T.);
#1322=ORIENTED_EDGE('',*,*,#1321,.T.);
#1324=ORIENTED_EDGE('',*,*,#1323,.F.);
#1325=ORIENTED_EDGE('',*,*,#1301,.F.);
#1326=ORIENTED_EDGE('',*,*,#1263,.F.);
#1328=ORIENTED_EDGE('',*,*,#1327,.T.);
#1330=ORIENTED_EDGE('',*,*,#1329,.T.);
#1332=ORIENTED_EDGE('',*,*,#1331,.T.);
#1334=ORIENTED_EDGE('',*,*,#1333,.T.);
#1336=ORIENTED_EDGE('',*,*,#1335,.T.);
#1338=ORIENTED_EDGE('',*,*,#1337,.T.);
#1339=ORIENTED_EDGE('',*,*,#1138,.T.);
#1341=ORIENTED_EDGE('',*,*,#1340,.T.);
#1343=ORIENTED_EDGE('',*,*,#1342,.T.);
#1345=ORIENTED_EDGE('',*,*,#1344,.T.);
#1346=ORIENTED_EDGE('',*,*,#1154,.T.);
#1348=ORIENTED_EDGE('',*,*,#1347,.T.);
#1350=ORIENTED_EDGE('',*,*,#1349,.T.);
#1352=ORIENTED_EDGE('',*,*,#1351,.T.);
#1354=ORIENTED_EDGE('',*,*,#1353,.T.);
#1356=ORIENTED_EDGE('',*,*,#1355,.T.);
#1358=ORIENTED_EDGE('',*,*,#1357,.F.);
#1359=EDGE_LOOP('',(#1316,#1318,#1320,#1322,#1324,#1325,#1326,#1328,#1330,#1332,
#1334,#1336,#1338,#1339,#1341,#1343,#1345,#1346,#1348,#1350,#1352,#1354,#1356,
#1358));
#1360=FACE_OUTER_BOUND('',#1359,.F.);
#1362=ORIENTED_EDGE('',*,*,#1361,.T.);
#1364=ORIENTED_EDGE('',*,*,#1363,.F.);
#1366=ORIENTED_EDGE('',*,*,#1365,.F.);
#1368=ORIENTED_EDGE('',*,*,#1367,.T.);
#1369=EDGE_LOOP('',(#1362,#1364,#1366,#1368));
#1370=FACE_BOUND('',#1369,.F.);
#1372=CARTESIAN_POINT('',(1.27E0,0.E0,0.E0));
#1373=DIRECTION('',(1.E0,0.E0,0.E0));
#1374=DIRECTION('',(0.E0,0.E0,-1.E0));
#1375=AXIS2_PLACEMENT_3D('',#1372,#1373,#1374);
#1376=PLANE('',#1375);
#1378=ORIENTED_EDGE('',*,*,#1377,.T.);
#1379=ORIENTED_EDGE('',*,*,#1361,.F.);
#1381=ORIENTED_EDGE('',*,*,#1380,.T.);
#1383=ORIENTED_EDGE('',*,*,#1382,.T.);
#1384=EDGE_LOOP('',(#1378,#1379,#1381,#1383));
#1385=FACE_OUTER_BOUND('',#1384,.F.);
#1387=CARTESIAN_POINT('',(1.27E0,3.9878E-1,-4.445E0));
#1388=DIRECTION('',(0.E0,0.E0,-1.E0));
#1389=DIRECTION('',(0.E0,1.E0,0.E0));
#1390=AXIS2_PLACEMENT_3D('',#1387,#1388,#1389);
#1391=PLANE('',#1390);
#1392=ORIENTED_EDGE('',*,*,#1377,.F.);
#1394=ORIENTED_EDGE('',*,*,#1393,.F.);
#1396=ORIENTED_EDGE('',*,*,#1395,.T.);
#1397=ORIENTED_EDGE('',*,*,#1363,.T.);
#1398=EDGE_LOOP('',(#1392,#1394,#1396,#1397));
#1399=FACE_OUTER_BOUND('',#1398,.F.);
#1401=CARTESIAN_POINT('',(1.27E0,5.6388E-1,-4.445E0));
#1402=DIRECTION('',(0.E0,1.E0,0.E0));
#1403=DIRECTION('',(0.E0,0.E0,1.E0));
#1404=AXIS2_PLACEMENT_3D('',#1401,#1402,#1403);
#1405=PLANE('',#1404);
#1406=ORIENTED_EDGE('',*,*,#1382,.F.);
#1408=ORIENTED_EDGE('',*,*,#1407,.F.);
#1410=ORIENTED_EDGE('',*,*,#1409,.T.);
#1411=ORIENTED_EDGE('',*,*,#1393,.T.);
#1412=EDGE_LOOP('',(#1406,#1408,#1410,#1411));
#1413=FACE_OUTER_BOUND('',#1412,.F.);
#1415=CARTESIAN_POINT('',(1.27E0,5.6388E-1,-8.89E-1));
#1416=DIRECTION('',(0.E0,9.396926207859E-1,3.420201433257E-1));
#1417=DIRECTION('',(0.E0,-3.420201433257E-1,9.396926207859E-1));
#1418=AXIS2_PLACEMENT_3D('',#1415,#1416,#1417);
#1419=PLANE('',#1418);
#1420=ORIENTED_EDGE('',*,*,#1380,.F.);
#1421=ORIENTED_EDGE('',*,*,#1367,.F.);
#1423=ORIENTED_EDGE('',*,*,#1422,.T.);
#1424=ORIENTED_EDGE('',*,*,#1407,.T.);
#1425=EDGE_LOOP('',(#1420,#1421,#1423,#1424));
#1426=FACE_OUTER_BOUND('',#1425,.F.);
#1428=CARTESIAN_POINT('',(-1.27E0,0.E0,0.E0));
#1429=DIRECTION('',(1.E0,0.E0,0.E0));
#1430=DIRECTION('',(0.E0,0.E0,-1.E0));
#1431=AXIS2_PLACEMENT_3D('',#1428,#1429,#1430);
#1432=PLANE('',#1431);
#1433=ORIENTED_EDGE('',*,*,#1395,.F.);
#1434=ORIENTED_EDGE('',*,*,#1409,.F.);
#1435=ORIENTED_EDGE('',*,*,#1422,.F.);
#1436=ORIENTED_EDGE('',*,*,#1365,.T.);
#1437=EDGE_LOOP('',(#1433,#1434,#1435,#1436));
#1438=FACE_OUTER_BOUND('',#1437,.F.);
#1440=CARTESIAN_POINT('',(1.524E0,-7.052533371703E0,2.54E-1));
#1441=DIRECTION('',(0.E0,1.E0,0.E0));
#1442=DIRECTION('',(0.E0,0.E0,-1.E0));
#1443=AXIS2_PLACEMENT_3D('',#1440,#1441,#1442);
#1444=CYLINDRICAL_SURFACE('',#1443,2.54E-1);
#1446=ORIENTED_EDGE('',*,*,#1445,.T.);
#1448=ORIENTED_EDGE('',*,*,#1447,.T.);
#1449=ORIENTED_EDGE('',*,*,#1317,.T.);
#1450=ORIENTED_EDGE('',*,*,#1273,.F.);
#1451=EDGE_LOOP('',(#1446,#1448,#1449,#1450));
#1452=FACE_OUTER_BOUND('',#1451,.F.);
#1454=CARTESIAN_POINT('',(-3.22072E0,0.E0,-8.382E0));
#1455=DIRECTION('',(0.E0,-1.E0,0.E0));
#1456=DIRECTION('',(1.E0,0.E0,0.E0));
#1457=AXIS2_PLACEMENT_3D('',#1454,#1455,#1456);
#1458=PLANE('',#1457);
#1460=ORIENTED_EDGE('',*,*,#1459,.F.);
#1461=ORIENTED_EDGE('',*,*,#1445,.F.);
#1462=ORIENTED_EDGE('',*,*,#1291,.F.);
#1464=ORIENTED_EDGE('',*,*,#1463,.T.);
#1466=ORIENTED_EDGE('',*,*,#1465,.F.);
#1468=ORIENTED_EDGE('',*,*,#1467,.F.);
#1470=ORIENTED_EDGE('',*,*,#1469,.F.);
#1472=ORIENTED_EDGE('',*,*,#1471,.F.);
#1474=ORIENTED_EDGE('',*,*,#1473,.F.);
#1475=ORIENTED_EDGE('',*,*,#1150,.T.);
#1477=ORIENTED_EDGE('',*,*,#1476,.T.);
#1479=ORIENTED_EDGE('',*,*,#1478,.T.);
#1481=ORIENTED_EDGE('',*,*,#1480,.T.);
#1482=ORIENTED_EDGE('',*,*,#1142,.T.);
#1484=ORIENTED_EDGE('',*,*,#1483,.F.);
#1486=ORIENTED_EDGE('',*,*,#1485,.F.);
#1488=ORIENTED_EDGE('',*,*,#1487,.F.);
#1490=ORIENTED_EDGE('',*,*,#1489,.F.);
#1492=ORIENTED_EDGE('',*,*,#1491,.F.);
#1494=ORIENTED_EDGE('',*,*,#1493,.F.);
#1495=ORIENTED_EDGE('',*,*,#1249,.F.);
#1496=ORIENTED_EDGE('',*,*,#1305,.F.);
#1498=ORIENTED_EDGE('',*,*,#1497,.T.);
#1500=ORIENTED_EDGE('',*,*,#1499,.T.);
#1501=EDGE_LOOP('',(#1460,#1461,#1462,#1464,#1466,#1468,#1470,#1472,#1474,#1475,
#1477,#1479,#1481,#1482,#1484,#1486,#1488,#1490,#1492,#1494,#1495,#1496,#1498,
#1500));
#1502=FACE_OUTER_BOUND('',#1501,.F.);
#1504=CARTESIAN_POINT('',(1.27E0,0.E0,0.E0));
#1505=DIRECTION('',(1.E0,0.E0,0.E0));
#1506=DIRECTION('',(0.E0,1.E0,0.E0));
#1507=AXIS2_PLACEMENT_3D('',#1504,#1505,#1506);
#1508=PLANE('',#1507);
#1509=ORIENTED_EDGE('',*,*,#1447,.F.);
#1510=ORIENTED_EDGE('',*,*,#1459,.T.);
#1512=ORIENTED_EDGE('',*,*,#1511,.T.);
#1513=ORIENTED_EDGE('',*,*,#1319,.F.);
#1514=EDGE_LOOP('',(#1509,#1510,#1512,#1513));
#1515=FACE_OUTER_BOUND('',#1514,.F.);
#1517=CARTESIAN_POINT('',(0.E0,0.E0,9.99998E-1));
#1518=DIRECTION('',(0.E0,0.E0,1.E0));
#1519=DIRECTION('',(1.E0,0.E0,0.E0));
#1520=AXIS2_PLACEMENT_3D('',#1517,#1518,#1519);
#1521=PLANE('',#1520);
#1523=ORIENTED_EDGE('',*,*,#1522,.F.);
#1524=ORIENTED_EDGE('',*,*,#1321,.F.);
#1525=ORIENTED_EDGE('',*,*,#1511,.F.);
#1526=ORIENTED_EDGE('',*,*,#1499,.F.);
#1527=EDGE_LOOP('',(#1523,#1524,#1525,#1526));
#1528=FACE_OUTER_BOUND('',#1527,.F.);
#1530=CARTESIAN_POINT('',(-1.27E0,3.9878E-1,0.E0));
#1531=DIRECTION('',(-1.E0,0.E0,0.E0));
#1532=DIRECTION('',(0.E0,-1.E0,0.E0));
#1533=AXIS2_PLACEMENT_3D('',#1530,#1531,#1532);
#1534=PLANE('',#1533);
#1535=ORIENTED_EDGE('',*,*,#1303,.F.);
#1536=ORIENTED_EDGE('',*,*,#1323,.T.);
#1537=ORIENTED_EDGE('',*,*,#1522,.T.);
#1538=ORIENTED_EDGE('',*,*,#1497,.F.);
#1539=EDGE_LOOP('',(#1535,#1536,#1537,#1538));
#1540=FACE_OUTER_BOUND('',#1539,.F.);
#1542=CARTESIAN_POINT('',(3.22072E0,5.2578E-1,-8.382E0));
#1543=DIRECTION('',(0.E0,0.E0,1.E0));
#1544=DIRECTION('',(1.E0,0.E0,0.E0));
#1545=AXIS2_PLACEMENT_3D('',#1542,#1543,#1544);
#1546=CYLINDRICAL_SURFACE('',#1545,5.2578E-1);
#1548=ORIENTED_EDGE('',*,*,#1547,.F.);
#1549=ORIENTED_EDGE('',*,*,#1463,.F.);
#1550=ORIENTED_EDGE('',*,*,#1289,.F.);
#1552=ORIENTED_EDGE('',*,*,#1551,.T.);
#1553=EDGE_LOOP('',(#1548,#1549,#1550,#1552));
#1554=FACE_OUTER_BOUND('',#1553,.F.);
#1556=CARTESIAN_POINT('',(2.3749E0,0.E0,-7.366E0));
#1557=DIRECTION('',(0.E0,0.E0,1.E0));
#1558=DIRECTION('',(1.E0,0.E0,0.E0));
#1559=AXIS2_PLACEMENT_3D('',#1556,#1557,#1558);
#1560=PLANE('',#1559);
#1562=ORIENTED_EDGE('',*,*,#1561,.F.);
#1563=ORIENTED_EDGE('',*,*,#1547,.T.);
#1565=ORIENTED_EDGE('',*,*,#1564,.T.);
#1567=ORIENTED_EDGE('',*,*,#1566,.T.);
#1569=ORIENTED_EDGE('',*,*,#1568,.F.);
#1571=ORIENTED_EDGE('',*,*,#1570,.F.);
#1573=ORIENTED_EDGE('',*,*,#1572,.T.);
#1575=ORIENTED_EDGE('',*,*,#1574,.F.);
#1576=EDGE_LOOP('',(#1562,#1563,#1565,#1567,#1569,#1571,#1573,#1575));
#1577=FACE_OUTER_BOUND('',#1576,.F.);
#1579=CARTESIAN_POINT('',(3.22072E0,0.E0,-9.906E0));
#1580=DIRECTION('',(1.E0,0.E0,0.E0));
#1581=DIRECTION('',(0.E0,0.E0,1.E0));
#1582=AXIS2_PLACEMENT_3D('',#1579,#1580,#1581);
#1583=PLANE('',#1582);
#1584=ORIENTED_EDGE('',*,*,#1465,.T.);
#1585=ORIENTED_EDGE('',*,*,#1561,.T.);
#1586=ORIENTED_EDGE('',*,*,#1355,.F.);
#1588=ORIENTED_EDGE('',*,*,#1587,.F.);
#1589=EDGE_LOOP('',(#1584,#1585,#1586,#1588));
#1590=FACE_OUTER_BOUND('',#1589,.F.);
#1592=CARTESIAN_POINT('',(2.968074397207E0,0.E0,-1.181679991569E1));
#1593=DIRECTION('',(9.913719249817E-1,0.E0,-1.310790080755E-1));
#1594=DIRECTION('',(1.310790080755E-1,0.E0,9.913719249817E-1));
#1595=AXIS2_PLACEMENT_3D('',#1592,#1593,#1594);
#1596=PLANE('',#1595);
#1597=ORIENTED_EDGE('',*,*,#1467,.T.);
#1598=ORIENTED_EDGE('',*,*,#1587,.T.);
#1599=ORIENTED_EDGE('',*,*,#1353,.F.);
#1601=ORIENTED_EDGE('',*,*,#1600,.F.);
#1602=EDGE_LOOP('',(#1597,#1598,#1599,#1601));
#1603=FACE_OUTER_BOUND('',#1602,.F.);
#1605=CARTESIAN_POINT('',(2.54E0,0.E0,-1.17602E1));
#1606=DIRECTION('',(0.E0,-1.E0,0.E0));
#1607=DIRECTION('',(1.E0,0.E0,0.E0));
#1608=AXIS2_PLACEMENT_3D('',#1605,#1606,#1607);
#1609=CYLINDRICAL_SURFACE('',#1608,4.318E-1);
#1610=ORIENTED_EDGE('',*,*,#1469,.T.);
#1611=ORIENTED_EDGE('',*,*,#1600,.T.);
#1612=ORIENTED_EDGE('',*,*,#1351,.F.);
#1614=ORIENTED_EDGE('',*,*,#1613,.F.);
#1615=EDGE_LOOP('',(#1610,#1611,#1612,#1614));
#1616=FACE_OUTER_BOUND('',#1615,.F.);
#1618=CARTESIAN_POINT('',(1.85928E0,0.E0,-9.906E0));
#1619=DIRECTION('',(-9.913719249817E-1,0.E0,-1.310790080755E-1));
#1620=DIRECTION('',(1.310790080755E-1,0.E0,-9.913719249817E-1));
#1621=AXIS2_PLACEMENT_3D('',#1618,#1619,#1620);
#1622=PLANE('',#1621);
#1623=ORIENTED_EDGE('',*,*,#1471,.T.);
#1624=ORIENTED_EDGE('',*,*,#1613,.T.);
#1625=ORIENTED_EDGE('',*,*,#1349,.F.);
#1627=ORIENTED_EDGE('',*,*,#1626,.F.);
#1628=EDGE_LOOP('',(#1623,#1624,#1625,#1627));
#1629=FACE_OUTER_BOUND('',#1628,.F.);
#1631=CARTESIAN_POINT('',(1.85928E0,0.E0,-8.382E0));
#1632=DIRECTION('',(-1.E0,0.E0,0.E0));
#1633=DIRECTION('',(0.E0,0.E0,-1.E0));
#1634=AXIS2_PLACEMENT_3D('',#1631,#1632,#1633);
#1635=PLANE('',#1634);
#1636=ORIENTED_EDGE('',*,*,#1473,.T.);
#1637=ORIENTED_EDGE('',*,*,#1626,.T.);
#1638=ORIENTED_EDGE('',*,*,#1347,.F.);
#1639=ORIENTED_EDGE('',*,*,#1152,.F.);
#1640=EDGE_LOOP('',(#1636,#1637,#1638,#1639));
#1641=FACE_OUTER_BOUND('',#1640,.F.);
#1643=CARTESIAN_POINT('',(3.7465E0,5.2578E-1,-8.382E0));
#1644=DIRECTION('',(1.E0,0.E0,0.E0));
#1645=DIRECTION('',(0.E0,1.E0,0.E0));
#1646=AXIS2_PLACEMENT_3D('',#1643,#1644,#1645);
#1647=PLANE('',#1646);
#1648=ORIENTED_EDGE('',*,*,#1564,.F.);
#1649=ORIENTED_EDGE('',*,*,#1551,.F.);
#1650=ORIENTED_EDGE('',*,*,#1287,.F.);
#1652=ORIENTED_EDGE('',*,*,#1651,.T.);
#1653=EDGE_LOOP('',(#1648,#1649,#1650,#1652));
#1654=FACE_OUTER_BOUND('',#1653,.F.);
#1656=CARTESIAN_POINT('',(2.2225E0,1.22428E0,-8.382E0));
#1657=DIRECTION('',(0.E0,0.E0,1.E0));
#1658=DIRECTION('',(1.E0,0.E0,0.E0));
#1659=AXIS2_PLACEMENT_3D('',#1656,#1657,#1658);
#1660=CYLINDRICAL_SURFACE('',#1659,1.524E0);
#1662=ORIENTED_EDGE('',*,*,#1661,.F.);
#1664=ORIENTED_EDGE('',*,*,#1663,.T.);
#1665=ORIENTED_EDGE('',*,*,#1179,.F.);
#1666=ORIENTED_EDGE('',*,*,#1118,.T.);
#1668=ORIENTED_EDGE('',*,*,#1667,.T.);
#1669=ORIENTED_EDGE('',*,*,#1566,.F.);
#1670=ORIENTED_EDGE('',*,*,#1651,.F.);
#1671=ORIENTED_EDGE('',*,*,#1285,.F.);
#1673=ORIENTED_EDGE('',*,*,#1672,.F.);
#1674=EDGE_LOOP('',(#1662,#1664,#1665,#1666,#1668,#1669,#1670,#1671,#1673));
#1675=FACE_OUTER_BOUND('',#1674,.F.);
#1677=CARTESIAN_POINT('',(1.35143748E1,2.24028E0,-1.271740979371E0));
#1678=DIRECTION('',(-1.E0,0.E0,0.E0));
#1679=DIRECTION('',(0.E0,-1.E0,0.E0));
#1680=AXIS2_PLACEMENT_3D('',#1677,#1678,#1679);
#1681=CYLINDRICAL_SURFACE('',#1680,1.016E0);
#1682=ORIENTED_EDGE('',*,*,#1661,.T.);
#1684=ORIENTED_EDGE('',*,*,#1683,.F.);
#1686=ORIENTED_EDGE('',*,*,#1685,.T.);
#1688=ORIENTED_EDGE('',*,*,#1687,.T.);
#1689=EDGE_LOOP('',(#1682,#1684,#1686,#1688));
#1690=FACE_OUTER_BOUND('',#1689,.F.);
#1692=CARTESIAN_POINT('',(1.027722065429E0,1.64973E0,-4.2545E-1));
#1693=DIRECTION('',(0.E0,-7.071067811865E-1,7.071067811865E-1));
#1694=DIRECTION('',(0.E0,-7.071067811865E-1,-7.071067811865E-1));
#1695=AXIS2_PLACEMENT_3D('',#1692,#1693,#1694);
#1696=PLANE('',#1695);
#1697=ORIENTED_EDGE('',*,*,#1683,.T.);
#1698=ORIENTED_EDGE('',*,*,#1672,.T.);
#1699=ORIENTED_EDGE('',*,*,#1283,.T.);
#1701=ORIENTED_EDGE('',*,*,#1700,.T.);
#1702=EDGE_LOOP('',(#1697,#1698,#1699,#1701));
#1703=FACE_OUTER_BOUND('',#1702,.F.);
#1705=CARTESIAN_POINT('',(2.2225E0,1.22428E0,-8.382E0));
#1706=DIRECTION('',(0.E0,0.E0,1.E0));
#1707=DIRECTION('',(1.E0,0.E0,0.E0));
#1708=AXIS2_PLACEMENT_3D('',#1705,#1706,#1707);
#1709=CYLINDRICAL_SURFACE('',#1708,1.12522E0);
#1710=ORIENTED_EDGE('',*,*,#1685,.F.);
#1711=ORIENTED_EDGE('',*,*,#1700,.F.);
#1712=ORIENTED_EDGE('',*,*,#1281,.F.);
#1714=ORIENTED_EDGE('',*,*,#1713,.T.);
#1715=ORIENTED_EDGE('',*,*,#1570,.T.);
#1717=ORIENTED_EDGE('',*,*,#1716,.F.);
#1718=ORIENTED_EDGE('',*,*,#1114,.T.);
#1719=ORIENTED_EDGE('',*,*,#1183,.T.);
#1721=ORIENTED_EDGE('',*,*,#1720,.F.);
#1722=EDGE_LOOP('',(#1710,#1711,#1712,#1714,#1715,#1717,#1718,#1719,#1721));
#1723=FACE_OUTER_BOUND('',#1722,.F.);
#1725=CARTESIAN_POINT('',(3.34772E0,1.22428E0,-8.382E0));
#1726=DIRECTION('',(-1.E0,0.E0,0.E0));
#1727=DIRECTION('',(0.E0,-1.E0,0.E0));
#1728=AXIS2_PLACEMENT_3D('',#1725,#1726,#1727);
#1729=PLANE('',#1728);
#1730=ORIENTED_EDGE('',*,*,#1572,.F.);
#1731=ORIENTED_EDGE('',*,*,#1713,.F.);
#1732=ORIENTED_EDGE('',*,*,#1279,.F.);
#1734=ORIENTED_EDGE('',*,*,#1733,.T.);
#1735=EDGE_LOOP('',(#1730,#1731,#1732,#1734));
#1736=FACE_OUTER_BOUND('',#1735,.F.);
#1738=CARTESIAN_POINT('',(3.22072E0,5.2578E-1,-8.382E0));
#1739=DIRECTION('',(0.E0,0.E0,1.E0));
#1740=DIRECTION('',(1.E0,0.E0,0.E0));
#1741=AXIS2_PLACEMENT_3D('',#1738,#1739,#1740);
#1742=CYLINDRICAL_SURFACE('',#1741,1.27E-1);
#1743=ORIENTED_EDGE('',*,*,#1574,.T.);
#1744=ORIENTED_EDGE('',*,*,#1733,.F.);
#1745=ORIENTED_EDGE('',*,*,#1277,.F.);
#1746=ORIENTED_EDGE('',*,*,#1357,.T.);
#1747=EDGE_LOOP('',(#1743,#1744,#1745,#1746));
#1748=FACE_OUTER_BOUND('',#1747,.F.);
#1750=CARTESIAN_POINT('',(2.3749E0,0.E0,-8.382E0));
#1751=DIRECTION('',(-1.E0,0.E0,0.E0));
#1752=DIRECTION('',(0.E0,0.E0,1.E0));
#1753=AXIS2_PLACEMENT_3D('',#1750,#1751,#1752);
#1754=PLANE('',#1753);
#1755=ORIENTED_EDGE('',*,*,#1568,.T.);
#1756=ORIENTED_EDGE('',*,*,#1667,.F.);
#1757=ORIENTED_EDGE('',*,*,#1116,.F.);
#1758=ORIENTED_EDGE('',*,*,#1716,.T.);
#1759=EDGE_LOOP('',(#1755,#1756,#1757,#1758));
#1760=FACE_OUTER_BOUND('',#1759,.F.);
#1762=CARTESIAN_POINT('',(6.985E-1,1.22428E0,-8.382E0));
#1763=DIRECTION('',(0.E0,-1.E0,0.E0));
#1764=DIRECTION('',(1.E0,0.E0,0.E0));
#1765=AXIS2_PLACEMENT_3D('',#1762,#1763,#1764);
#1766=PLANE('',#1765);
#1767=ORIENTED_EDGE('',*,*,#1687,.F.);
#1768=ORIENTED_EDGE('',*,*,#1720,.T.);
#1769=ORIENTED_EDGE('',*,*,#1181,.F.);
#1770=ORIENTED_EDGE('',*,*,#1663,.F.);
#1771=EDGE_LOOP('',(#1767,#1768,#1769,#1770));
#1772=FACE_OUTER_BOUND('',#1771,.F.);
#1774=CARTESIAN_POINT('',(9.426297336988E-1,0.E0,-8.382E0));
#1775=DIRECTION('',(-1.E0,0.E0,0.E0));
#1776=DIRECTION('',(0.E0,1.E0,0.E0));
#1777=AXIS2_PLACEMENT_3D('',#1774,#1775,#1776);
#1778=CONICAL_SURFACE('',#1777,5.170752291417E-1,6.75E1);
#1779=ORIENTED_EDGE('',*,*,#1148,.F.);
#1781=ORIENTED_EDGE('',*,*,#1780,.T.);
#1782=ORIENTED_EDGE('',*,*,#1476,.F.);
#1783=EDGE_LOOP('',(#1779,#1781,#1782));
#1784=FACE_OUTER_BOUND('',#1783,.F.);
#1786=CARTESIAN_POINT('',(7.504088660871E-1,-9.783408252052E-1,
-8.412745599054E0));
#1787=CARTESIAN_POINT('',(4.473440677796E-1,-1.819720311216E0,
-8.439187014625E0));
#1788=CARTESIAN_POINT('',(-4.473440677796E-1,-1.819720311216E0,
-8.439187014625E0));
#1789=CARTESIAN_POINT('',(-7.504088660871E-1,-9.783408252052E-1,
-8.412745599054E0));
#1790=CARTESIAN_POINT('',(7.504088660871E-1,-9.972616237361E-1,
-7.810676027544E0));
#1791=CARTESIAN_POINT('',(4.473440677796E-1,-1.854913119800E0,
-7.319333687628E0));
#1792=CARTESIAN_POINT('',(-4.473440677796E-1,-1.854913119800E0,
-7.319333687628E0));
#1793=CARTESIAN_POINT('',(-7.504088660871E-1,-9.972616237361E-1,
-7.810676027544E0));
#1794=CARTESIAN_POINT('',(7.504088660871E-1,-5.713239724563E-1,
-7.384738376264E0));
#1795=CARTESIAN_POINT('',(4.473440677796E-1,-1.062666312372E0,
-6.527086880200E0));
#1796=CARTESIAN_POINT('',(-4.473440677796E-1,-1.062666312372E0,
-6.527086880200E0));
#1797=CARTESIAN_POINT('',(-7.504088660871E-1,-5.713239724563E-1,
-7.384738376264E0));
#1798=CARTESIAN_POINT('',(7.504088660871E-1,3.074559905397E-2,
-7.403659174795E0));
#1799=CARTESIAN_POINT('',(4.473440677796E-1,5.718701462477E-2,
-6.562279688784E0));
#1800=CARTESIAN_POINT('',(-4.473440677796E-1,5.718701462477E-2,
-6.562279688784E0));
#1801=CARTESIAN_POINT('',(-7.504088660871E-1,3.074559905397E-2,
-7.403659174795E0));
#1802=(BOUNDED_SURFACE()B_SPLINE_SURFACE(3,3,((#1786,#1787,#1788,#1789),(#1790,
#1791,#1792,#1793),(#1794,#1795,#1796,#1797),(#1798,#1799,#1800,#1801)),
.UNSPECIFIED.,.F.,.F.,.F.)B_SPLINE_SURFACE_WITH_KNOTS((4,4),(4,4),(0.E0,1.E0),(
0.E0,1.E0),.UNSPECIFIED.)GEOMETRIC_REPRESENTATION_ITEM()RATIONAL_B_SPLINE_SURFACE(((1.773704493672E0,9.917821454348E-1,9.917821454348E-1,1.773704493672E0),(
1.400691016501E0,7.832084467244E-1,7.832084467244E-1,1.400691016501E0),(
1.400691016501E0,7.832084467244E-1,7.832084467244E-1,1.400691016501E0),(
1.773704493672E0,9.917821454348E-1,9.917821454348E-1,1.773704493672E0)))REPRESENTATION_ITEM('')SURFACE());
#1804=ORIENTED_EDGE('',*,*,#1803,.T.);
#1805=ORIENTED_EDGE('',*,*,#1478,.F.);
#1806=ORIENTED_EDGE('',*,*,#1780,.F.);
#1807=ORIENTED_EDGE('',*,*,#1146,.F.);
#1808=EDGE_LOOP('',(#1804,#1805,#1806,#1807));
#1809=FACE_OUTER_BOUND('',#1808,.F.);
#1811=CARTESIAN_POINT('',(-9.426297336988E-1,0.E0,-8.382E0));
#1812=DIRECTION('',(1.E0,0.E0,0.E0));
#1813=DIRECTION('',(0.E0,-1.E0,0.E0));
#1814=AXIS2_PLACEMENT_3D('',#1811,#1812,#1813);
#1815=CONICAL_SURFACE('',#1814,5.170752291417E-1,6.75E1);
#1816=ORIENTED_EDGE('',*,*,#1144,.F.);
#1817=ORIENTED_EDGE('',*,*,#1480,.F.);
#1818=ORIENTED_EDGE('',*,*,#1803,.F.);
#1819=EDGE_LOOP('',(#1816,#1817,#1818));
#1820=FACE_OUTER_BOUND('',#1819,.F.);
#1822=CARTESIAN_POINT('',(-1.85928E0,0.E0,-9.906E0));
#1823=DIRECTION('',(1.E0,0.E0,0.E0));
#1824=DIRECTION('',(0.E0,0.E0,1.E0));
#1825=AXIS2_PLACEMENT_3D('',#1822,#1823,#1824);
#1826=PLANE('',#1825);
#1827=ORIENTED_EDGE('',*,*,#1483,.T.);
#1828=ORIENTED_EDGE('',*,*,#1140,.T.);
#1829=ORIENTED_EDGE('',*,*,#1337,.F.);
#1831=ORIENTED_EDGE('',*,*,#1830,.F.);
#1832=EDGE_LOOP('',(#1827,#1828,#1829,#1831));
#1833=FACE_OUTER_BOUND('',#1832,.F.);
#1835=CARTESIAN_POINT('',(-2.111925602793E0,0.E0,-1.181679991569E1));
#1836=DIRECTION('',(9.913719249817E-1,0.E0,-1.310790080755E-1));
#1837=DIRECTION('',(1.310790080755E-1,0.E0,9.913719249817E-1));
#1838=AXIS2_PLACEMENT_3D('',#1835,#1836,#1837);
#1839=PLANE('',#1838);
#1840=ORIENTED_EDGE('',*,*,#1485,.T.);
#1841=ORIENTED_EDGE('',*,*,#1830,.T.);
#1842=ORIENTED_EDGE('',*,*,#1335,.F.);
#1844=ORIENTED_EDGE('',*,*,#1843,.F.);
#1845=EDGE_LOOP('',(#1840,#1841,#1842,#1844));
#1846=FACE_OUTER_BOUND('',#1845,.F.);
#1848=CARTESIAN_POINT('',(-2.54E0,0.E0,-1.17602E1));
#1849=DIRECTION('',(0.E0,-1.E0,0.E0));
#1850=DIRECTION('',(1.E0,0.E0,0.E0));
#1851=AXIS2_PLACEMENT_3D('',#1848,#1849,#1850);
#1852=CYLINDRICAL_SURFACE('',#1851,4.318E-1);
#1853=ORIENTED_EDGE('',*,*,#1487,.T.);
#1854=ORIENTED_EDGE('',*,*,#1843,.T.);
#1855=ORIENTED_EDGE('',*,*,#1333,.F.);
#1857=ORIENTED_EDGE('',*,*,#1856,.F.);
#1858=EDGE_LOOP('',(#1853,#1854,#1855,#1857));
#1859=FACE_OUTER_BOUND('',#1858,.F.);
#1861=CARTESIAN_POINT('',(-3.22072E0,0.E0,-9.906E0));
#1862=DIRECTION('',(-9.913719249817E-1,0.E0,-1.310790080755E-1));
#1863=DIRECTION('',(1.310790080755E-1,0.E0,-9.913719249817E-1));
#1864=AXIS2_PLACEMENT_3D('',#1861,#1862,#1863);
#1865=PLANE('',#1864);
#1866=ORIENTED_EDGE('',*,*,#1489,.T.);
#1867=ORIENTED_EDGE('',*,*,#1856,.T.);
#1868=ORIENTED_EDGE('',*,*,#1331,.F.);
#1870=ORIENTED_EDGE('',*,*,#1869,.F.);
#1871=EDGE_LOOP('',(#1866,#1867,#1868,#1870));
#1872=FACE_OUTER_BOUND('',#1871,.F.);
#1874=CARTESIAN_POINT('',(-3.22072E0,0.E0,-7.366E0));
#1875=DIRECTION('',(-1.E0,0.E0,0.E0));
#1876=DIRECTION('',(0.E0,0.E0,-1.E0));
#1877=AXIS2_PLACEMENT_3D('',#1874,#1875,#1876);
#1878=PLANE('',#1877);
#1879=ORIENTED_EDGE('',*,*,#1491,.T.);
#1880=ORIENTED_EDGE('',*,*,#1869,.T.);
#1881=ORIENTED_EDGE('',*,*,#1329,.F.);
#1883=ORIENTED_EDGE('',*,*,#1882,.F.);
#1884=EDGE_LOOP('',(#1879,#1880,#1881,#1883));
#1885=FACE_OUTER_BOUND('',#1884,.F.);
#1887=CARTESIAN_POINT('',(-3.7465E0,0.E0,-7.366E0));
#1888=DIRECTION('',(0.E0,0.E0,1.E0));
#1889=DIRECTION('',(1.E0,0.E0,0.E0));
#1890=AXIS2_PLACEMENT_3D('',#1887,#1888,#1889);
#1891=PLANE('',#1890);
#1892=ORIENTED_EDGE('',*,*,#1882,.T.);
#1894=ORIENTED_EDGE('',*,*,#1893,.F.);
#1896=ORIENTED_EDGE('',*,*,#1895,.T.);
#1897=ORIENTED_EDGE('',*,*,#1202,.F.);
#1899=ORIENTED_EDGE('',*,*,#1898,.T.);
#1901=ORIENTED_EDGE('',*,*,#1900,.T.);
#1903=ORIENTED_EDGE('',*,*,#1902,.T.);
#1905=ORIENTED_EDGE('',*,*,#1904,.T.);
#1906=EDGE_LOOP('',(#1892,#1894,#1896,#1897,#1899,#1901,#1903,#1905));
#1907=FACE_OUTER_BOUND('',#1906,.F.);
#1909=CARTESIAN_POINT('',(-3.22072E0,5.2578E-1,-8.382E0));
#1910=DIRECTION('',(0.E0,0.E0,1.E0));
#1911=DIRECTION('',(1.E0,0.E0,0.E0));
#1912=AXIS2_PLACEMENT_3D('',#1909,#1910,#1911);
#1913=CYLINDRICAL_SURFACE('',#1912,1.27E-1);
#1914=ORIENTED_EDGE('',*,*,#1893,.T.);
#1915=ORIENTED_EDGE('',*,*,#1327,.F.);
#1916=ORIENTED_EDGE('',*,*,#1261,.F.);
#1918=ORIENTED_EDGE('',*,*,#1917,.T.);
#1919=EDGE_LOOP('',(#1914,#1915,#1916,#1918));
#1920=FACE_OUTER_BOUND('',#1919,.F.);
#1922=CARTESIAN_POINT('',(-3.34772E0,5.2578E-1,-8.382E0));
#1923=DIRECTION('',(1.E0,0.E0,0.E0));
#1924=DIRECTION('',(0.E0,1.E0,0.E0));
#1925=AXIS2_PLACEMENT_3D('',#1922,#1923,#1924);
#1926=PLANE('',#1925);
#1927=ORIENTED_EDGE('',*,*,#1895,.F.);
#1928=ORIENTED_EDGE('',*,*,#1917,.F.);
#1929=ORIENTED_EDGE('',*,*,#1259,.F.);
#1930=ORIENTED_EDGE('',*,*,#1204,.T.);
#1931=EDGE_LOOP('',(#1927,#1928,#1929,#1930));
#1932=FACE_OUTER_BOUND('',#1931,.F.);
#1934=CARTESIAN_POINT('',(-2.3749E0,0.E0,-7.366E0));
#1935=DIRECTION('',(1.E0,0.E0,0.E0));
#1936=DIRECTION('',(0.E0,0.E0,-1.E0));
#1937=AXIS2_PLACEMENT_3D('',#1934,#1935,#1936);
#1938=PLANE('',#1937);
#1939=ORIENTED_EDGE('',*,*,#1898,.F.);
#1940=ORIENTED_EDGE('',*,*,#1200,.F.);
#1941=ORIENTED_EDGE('',*,*,#1100,.T.);
#1943=ORIENTED_EDGE('',*,*,#1942,.T.);
#1944=EDGE_LOOP('',(#1939,#1940,#1941,#1943));
#1945=FACE_OUTER_BOUND('',#1944,.F.);
#1947=CARTESIAN_POINT('',(-2.2225E0,1.22428E0,-8.382E0));
#1948=DIRECTION('',(0.E0,0.E0,1.E0));
#1949=DIRECTION('',(1.E0,0.E0,0.E0));
#1950=AXIS2_PLACEMENT_3D('',#1947,#1948,#1949);
#1951=CYLINDRICAL_SURFACE('',#1950,1.524E0);
#1952=ORIENTED_EDGE('',*,*,#1221,.F.);
#1953=ORIENTED_EDGE('',*,*,#1237,.F.);
#1954=ORIENTED_EDGE('',*,*,#1255,.F.);
#1956=ORIENTED_EDGE('',*,*,#1955,.T.);
#1957=ORIENTED_EDGE('',*,*,#1900,.F.);
#1958=ORIENTED_EDGE('',*,*,#1942,.F.);
#1959=ORIENTED_EDGE('',*,*,#1098,.T.);
#1960=ORIENTED_EDGE('',*,*,#1168,.F.);
#1962=ORIENTED_EDGE('',*,*,#1961,.F.);
#1963=EDGE_LOOP('',(#1952,#1953,#1954,#1956,#1957,#1958,#1959,#1960,#1962));
#1964=FACE_OUTER_BOUND('',#1963,.F.);
#1966=CARTESIAN_POINT('',(-3.7465E0,1.22428E0,-8.382E0));
#1967=DIRECTION('',(-1.E0,0.E0,0.E0));
#1968=DIRECTION('',(0.E0,-1.E0,0.E0));
#1969=AXIS2_PLACEMENT_3D('',#1966,#1967,#1968);
#1970=PLANE('',#1969);
#1971=ORIENTED_EDGE('',*,*,#1902,.F.);
#1972=ORIENTED_EDGE('',*,*,#1955,.F.);
#1973=ORIENTED_EDGE('',*,*,#1253,.F.);
#1975=ORIENTED_EDGE('',*,*,#1974,.T.);
#1976=EDGE_LOOP('',(#1971,#1972,#1973,#1975));
#1977=FACE_OUTER_BOUND('',#1976,.F.);
#1979=CARTESIAN_POINT('',(-3.22072E0,5.2578E-1,-8.382E0));
#1980=DIRECTION('',(0.E0,0.E0,1.E0));
#1981=DIRECTION('',(1.E0,0.E0,0.E0));
#1982=AXIS2_PLACEMENT_3D('',#1979,#1980,#1981);
#1983=CYLINDRICAL_SURFACE('',#1982,5.2578E-1);
#1984=ORIENTED_EDGE('',*,*,#1904,.F.);
#1985=ORIENTED_EDGE('',*,*,#1974,.F.);
#1986=ORIENTED_EDGE('',*,*,#1251,.F.);
#1987=ORIENTED_EDGE('',*,*,#1493,.T.);
#1988=EDGE_LOOP('',(#1984,#1985,#1986,#1987));
#1989=FACE_OUTER_BOUND('',#1988,.F.);
#1991=CARTESIAN_POINT('',(-1.09728E0,1.22428E0,-8.382E0));
#1992=DIRECTION('',(0.E0,-1.E0,0.E0));
#1993=DIRECTION('',(1.E0,0.E0,0.E0));
#1994=AXIS2_PLACEMENT_3D('',#1991,#1992,#1993);
#1995=PLANE('',#1994);
#1996=ORIENTED_EDGE('',*,*,#1223,.F.);
#1997=ORIENTED_EDGE('',*,*,#1961,.T.);
#1998=ORIENTED_EDGE('',*,*,#1166,.F.);
#1999=ORIENTED_EDGE('',*,*,#1196,.F.);
#2000=EDGE_LOOP('',(#1996,#1997,#1998,#1999));
#2001=FACE_OUTER_BOUND('',#2000,.F.);
#2003=CARTESIAN_POINT('',(-7.251729447439E-1,3.9878E-1,-8.382E0));
#2004=DIRECTION('',(-9.238795325113E-1,0.E0,3.826834323651E-1));
#2005=DIRECTION('',(3.826834323651E-1,0.E0,9.238795325113E-1));
#2006=AXIS2_PLACEMENT_3D('',#2003,#2004,#2005);
#2007=PLANE('',#2006);
#2009=ORIENTED_EDGE('',*,*,#2008,.F.);
#2010=ORIENTED_EDGE('',*,*,#1340,.F.);
#2011=ORIENTED_EDGE('',*,*,#1136,.F.);
#2013=ORIENTED_EDGE('',*,*,#2012,.T.);
#2014=EDGE_LOOP('',(#2009,#2010,#2011,#2013));
#2015=FACE_OUTER_BOUND('',#2014,.F.);
#2017=CARTESIAN_POINT('',(0.E0,3.9878E-1,-7.67334E0));
#2018=DIRECTION('',(0.E0,1.E0,0.E0));
#2019=DIRECTION('',(0.E0,0.E0,-1.E0));
#2020=AXIS2_PLACEMENT_3D('',#2017,#2018,#2019);
#2021=CYLINDRICAL_SURFACE('',#2020,3.9878E-1);
#2022=ORIENTED_EDGE('',*,*,#2008,.T.);
#2024=ORIENTED_EDGE('',*,*,#2023,.T.);
#2026=ORIENTED_EDGE('',*,*,#2025,.F.);
#2027=ORIENTED_EDGE('',*,*,#1342,.F.);
#2028=EDGE_LOOP('',(#2022,#2024,#2026,#2027));
#2029=FACE_OUTER_BOUND('',#2028,.F.);
#2031=CARTESIAN_POINT('',(0.E0,0.E0,-8.382E0));
#2032=DIRECTION('',(-1.E0,0.E0,0.E0));
#2033=DIRECTION('',(0.E0,1.E0,0.E0));
#2034=AXIS2_PLACEMENT_3D('',#2031,#2032,#2033);
#2035=TOROIDAL_SURFACE('',#2034,7.0866E-1,3.9878E-1);
#2036=ORIENTED_EDGE('',*,*,#2023,.F.);
#2038=ORIENTED_EDGE('',*,*,#2037,.F.);
#2039=ORIENTED_EDGE('',*,*,#1132,.F.);
#2041=ORIENTED_EDGE('',*,*,#2040,.T.);
#2042=EDGE_LOOP('',(#2036,#2038,#2039,#2041));
#2043=FACE_OUTER_BOUND('',#2042,.F.);
#2045=CARTESIAN_POINT('',(-5.432313297117E-1,0.E0,-8.382E0));
#2046=DIRECTION('',(1.E0,0.E0,0.E0));
#2047=DIRECTION('',(0.E0,-1.E0,0.E0));
#2048=AXIS2_PLACEMENT_3D('',#2045,#2046,#2047);
#2049=CONICAL_SURFACE('',#2048,4.392459145709E-1,6.75E1);
#2050=ORIENTED_EDGE('',*,*,#2012,.F.);
#2051=ORIENTED_EDGE('',*,*,#1134,.F.);
#2052=ORIENTED_EDGE('',*,*,#2037,.T.);
#2053=EDGE_LOOP('',(#2050,#2051,#2052));
#2054=FACE_OUTER_BOUND('',#2053,.F.);
#2056=CARTESIAN_POINT('',(5.432313297117E-1,0.E0,-8.382E0));
#2057=DIRECTION('',(-1.E0,0.E0,0.E0));
#2058=DIRECTION('',(0.E0,1.E0,0.E0));
#2059=AXIS2_PLACEMENT_3D('',#2056,#2057,#2058);
#2060=CONICAL_SURFACE('',#2059,4.392459145709E-1,6.75E1);
#2062=ORIENTED_EDGE('',*,*,#2061,.F.);
#2063=ORIENTED_EDGE('',*,*,#2040,.F.);
#2064=ORIENTED_EDGE('',*,*,#1130,.F.);
#2065=EDGE_LOOP('',(#2062,#2063,#2064));
#2066=FACE_OUTER_BOUND('',#2065,.F.);
#2068=CARTESIAN_POINT('',(3.684246799749E-1,3.9878E-1,-7.520733500841E0));
#2069=DIRECTION('',(9.238795325113E-1,0.E0,3.826834323651E-1));
#2070=DIRECTION('',(3.826834323651E-1,0.E0,-9.238795325113E-1));
#2071=AXIS2_PLACEMENT_3D('',#2068,#2069,#2070);
#2072=PLANE('',#2071);
#2073=ORIENTED_EDGE('',*,*,#2025,.T.);
#2074=ORIENTED_EDGE('',*,*,#2061,.T.);
#2075=ORIENTED_EDGE('',*,*,#1128,.T.);
#2076=ORIENTED_EDGE('',*,*,#1344,.F.);
#2077=EDGE_LOOP('',(#2073,#2074,#2075,#2076));
#2078=FACE_OUTER_BOUND('',#2077,.F.);
#2080=CLOSED_SHELL('',(#1106,#1122,#1158,#1173,#1188,#1212,#1227,#1241,#1267,
#1295,#1310,#1371,#1386,#1400,#1414,#1427,#1439,#1453,#1503,#1516,#1529,#1541,
#1555,#1578,#1591,#1604,#1617,#1630,#1642,#1655,#1676,#1691,#1704,#1724,#1737,
#1749,#1761,#1773,#1785,#1810,#1821,#1834,#1847,#1860,#1873,#1886,#1908,#1921,
#1933,#1946,#1965,#1978,#1990,#2002,#2016,#2030,#2044,#2055,#2067,#2079));
#2081=MANIFOLD_SOLID_BREP('',#2080);
#2084=PLANE_ANGLE_MEASURE_WITH_UNIT(PLANE_ANGLE_MEASURE(1.745329251994E-2),
#2083);
#2085=(CONVERSION_BASED_UNIT('DEGREE',#2084)NAMED_UNIT(*)PLANE_ANGLE_UNIT());
#2087=UNCERTAINTY_MEASURE_WITH_UNIT(LENGTH_MEASURE(6.565242250442E-4),#2082,
'distance_accuracy_value',
'Maximum model space distance between geometric entities at asserted connectivities');
#2090=APPLICATION_CONTEXT('automotive_design');
#2091=APPLICATION_PROTOCOL_DEFINITION('international standard',
'automotive_design',2001,#2090);
#2092=PRODUCT_DEFINITION_CONTEXT('part definition',#2090,'design');
#2093=PRODUCT_CONTEXT('',#2090,'mechanical');
#2094=PRODUCT('C-63969-1','C-63969-1','NOT SPECIFIED',(#2093));
#2095=PRODUCT_DEFINITION_FORMATION('1','LAST_VERSION',#2094);
#2103=DERIVED_UNIT_ELEMENT(#2102,2.E0);
#2104=DERIVED_UNIT((#2103));
#2105=MEASURE_REPRESENTATION_ITEM('surface area measure',AREA_MEASURE(
3.303350778512E2),#2104);
#2110=DERIVED_UNIT_ELEMENT(#2109,3.E0);
#2111=DERIVED_UNIT((#2110));
#2112=MEASURE_REPRESENTATION_ITEM('volume measure',VOLUME_MEASURE(
6.152161679963E1),#2111);
#2116=CARTESIAN_POINT('centre point',(-3.358371586211E-8,1.018145603347E0,
-4.319559264275E0));
#2121=DERIVED_UNIT_ELEMENT(#2120,2.E0);
#2122=DERIVED_UNIT((#2121));
#2123=MEASURE_REPRESENTATION_ITEM('surface area measure',AREA_MEASURE(
3.303350778512E2),#2122);
#2128=DERIVED_UNIT_ELEMENT(#2127,3.E0);
#2129=DERIVED_UNIT((#2128));
#2130=MEASURE_REPRESENTATION_ITEM('volume measure',VOLUME_MEASURE(
6.152161679963E1),#2129);
#2134=CARTESIAN_POINT('centre point',(-3.358371586211E-8,1.018145603347E0,
-4.319559264275E0));
#2139=PRODUCT_RELATED_PRODUCT_CATEGORY('part','',(#2094));
#1=DRAUGHTING_PRE_DEFINED_COLOUR('black');
#2=COLOUR_RGB('',0.E0,0.E0,3.6E-1);
#3=COLOUR_RGB('',0.E0,0.E0,4.8E-1);
#4=DRAUGHTING_PRE_DEFINED_COLOUR('blue');
#5=COLOUR_RGB('',0.E0,5.8824E-2,4.58824E-1);
#6=COLOUR_RGB('',0.E0,1.80392E-1,4.78431E-1);
#7=COLOUR_RGB('',0.E0,3.6E-1,9.E-2);
#8=COLOUR_RGB('',0.E0,3.6E-1,2.7E-1);
#9=COLOUR_RGB('',0.E0,5.6E-1,6.4E-1);
#10=COLOUR_RGB('',0.E0,5.8E-1,8.E-1);
#11=COLOUR_RGB('',0.E0,7.1E-1,6.6E-1);
#12=COLOUR_RGB('',0.E0,7.13E-1,0.E0);
#13=COLOUR_RGB('',0.E0,9.5E-1,8.4E-1);
#14=DRAUGHTING_PRE_DEFINED_COLOUR('green');
#15=DRAUGHTING_PRE_DEFINED_COLOUR('cyan');
#16=COLOUR_RGB('',1.1765E-2,1.9608E-2,3.9216E-2);
#17=COLOUR_RGB('',4.E-2,0.E0,1.6E-1);
#18=COLOUR_RGB('',3.9216E-2,2.19608E-1,1.21569E-1);
#19=COLOUR_RGB('',3.9216E-2,3.60784E-1,2.E-1);
#20=COLOUR_RGB('',5.098E-2,7.0588E-2,1.01961E-1);
#21=COLOUR_RGB('',9.E-2,0.E0,1.2E-1);
#22=COLOUR_RGB('',9.0196E-2,1.60784E-1,1.09804E-1);
#23=COLOUR_RGB('',9.0196E-2,3.80392E-1,6.70588E-1);
#24=COLOUR_RGB('',1.E-1,0.E0,2.5E-1);
#25=COLOUR_RGB('',1.01961E-1,4.78431E-1,3.88235E-1);
#26=COLOUR_RGB('',1.09804E-1,1.4902E-1,9.0196E-2);
#27=COLOUR_RGB('',1.4902E-1,3.09804E-1,5.29412E-1);
#28=COLOUR_RGB('',1.4902E-1,4.E-1,1.60784E-1);
#29=COLOUR_RGB('',1.6E-1,3.2E-2,0.E0);
#30=COLOUR_RGB('',1.60784E-1,4.5098E-1,7.21569E-1);
#31=COLOUR_RGB('',1.6E-1,4.6E-1,6.5E-1);
#32=COLOUR_RGB('',1.6E-1,1.E0,1.6E-1);
#33=COLOUR_RGB('',2.E-1,3.2E-2,0.E0);
#34=COLOUR_RGB('',2.11765E-1,4.11765E-1,1.4902E-1);
#35=COLOUR_RGB('',2.39216E-1,2.39216E-1,2.31373E-1);
#36=COLOUR_RGB('',2.39216E-1,2.70588E-1,1.80392E-1);
#37=COLOUR_RGB('',2.5098E-1,2.90196E-1,3.29412E-1);
#38=COLOUR_RGB('',2.90196E-1,4.31373E-1,2.E-1);
#39=COLOUR_RGB('',3.1E-1,3.1E-1,5.6E-1);
#40=COLOUR_RGB('',3.09804E-1,6.58824E-1,2.E-1);
#41=COLOUR_RGB('',3.2E-1,1.5E-1,0.E0);
#42=COLOUR_RGB('',3.60784E-1,3.1373E-2,1.68627E-1);
#43=COLOUR_RGB('',3.68627E-1,2.E-1,1.21569E-1);
#44=COLOUR_RGB('',3.88235E-1,2.39216E-1,6.11765E-1);
#45=COLOUR_RGB('',4.E-1,4.E-1,4.E-1);
#46=COLOUR_RGB('',4.11765E-1,5.8824E-2,7.8431E-2);
#47=COLOUR_RGB('',4.11765E-1,3.29412E-1,2.19608E-1);
#48=COLOUR_RGB('',4.2E-1,4.2E-1,1.E0);
#49=COLOUR_RGB('',4.4E-1,8.5E-1,1.E0);
#50=COLOUR_RGB('',4.58824E-1,4.5098E-1,3.09804E-1);
#51=COLOUR_RGB('',4.70588E-1,5.09804E-1,5.4902E-1);
#52=COLOUR_RGB('',4.78431E-1,4.90196E-1,4.58824E-1);
#53=COLOUR_RGB('',4.90196E-1,3.60784E-1,2.19608E-1);
#54=COLOUR_RGB('',4.9E-1,4.9E-1,0.E0);
#55=COLOUR_RGB('',4.9E-1,1.E0,0.E0);
#56=COLOUR_RGB('',5.E-1,0.E0,0.E0);
#57=COLOUR_RGB('',5.E-1,0.E0,2.3E-1);
#58=COLOUR_RGB('',5.E-1,5.E-1,5.E-1);
#59=COLOUR_RGB('',5.21569E-1,2.19608E-1,1.68627E-1);
#60=COLOUR_RGB('',5.3E-1,0.E0,0.E0);
#61=COLOUR_RGB('',5.29412E-1,5.80392E-1,6.5098E-1);
#62=COLOUR_RGB('',5.4E-1,0.E0,4.4E-1);
#63=COLOUR_RGB('',5.5E-1,3.E-1,0.E0);
#64=COLOUR_RGB('',5.6E-1,1.E-1,5.E-2);
#65=COLOUR_RGB('',5.60784E-1,5.80392E-1,6.19608E-1);
#66=COLOUR_RGB('',5.68627E-1,5.8824E-2,4.E-1);
#67=COLOUR_RGB('',5.8E-1,2.2E-1,1.E-2);
#68=COLOUR_RGB('',5.88235E-1,1.21569E-1,1.09804E-1);
#69=COLOUR_RGB('',6.E-1,6.E-1,6.E-1);
#70=COLOUR_RGB('',6.11765E-1,5.60784E-1,3.80392E-1);
#71=COLOUR_RGB('',6.11765E-1,6.11765E-1,6.5098E-1);
#72=COLOUR_RGB('',6.2E-1,0.E0,5.5E-1);
#73=COLOUR_RGB('',6.19608E-1,6.39216E-1,6.90196E-1);
#74=COLOUR_RGB('',6.4E-1,0.E0,2.5E-1);
#75=COLOUR_RGB('',6.4E-1,1.E-2,0.E0);
#76=COLOUR_RGB('',6.39216E-1,5.4902E-1,4.78431E-1);
#77=COLOUR_RGB('',6.5098E-1,6.70588E-1,7.09804E-1);
#78=COLOUR_RGB('',6.70588E-1,1.21569E-1,1.09804E-1);
#79=COLOUR_RGB('',6.78431E-1,4.78431E-1,3.09804E-1);
#80=COLOUR_RGB('',6.8E-1,7.5E-1,1.E0);
#81=COLOUR_RGB('',6.952E-1,7.426E-1,7.9E-1);
#82=COLOUR_RGB('',7.09804E-1,7.0588E-2,2.E-1);
#83=COLOUR_RGB('',7.1E-1,3.1E-1,0.E0);
#84=COLOUR_RGB('',7.2E-1,7.2E-1,7.2E-1);
#85=COLOUR_RGB('',7.29412E-1,7.41176E-1,7.29412E-1);
#86=COLOUR_RGB('',7.41176E-1,7.29412E-1,6.70588E-1);
#87=COLOUR_RGB('',7.4E-1,1.E0,2.6E-1);
#88=COLOUR_RGB('',7.5E-1,3.E-2,0.E0);
#89=COLOUR_RGB('',7.4902E-1,8.90196E-1,7.29412E-1);
#90=COLOUR_RGB('',7.6E-1,0.E0,4.7E-1);
#91=COLOUR_RGB('',7.80392E-1,9.0196E-2,7.0588E-2);
#92=COLOUR_RGB('',7.88235E-1,2.19608E-1,5.4902E-1);
#93=COLOUR_RGB('',8.1E-1,4.E-2,0.E0);
#94=COLOUR_RGB('',8.1E-1,6.1E-1,0.E0);
#95=COLOUR_RGB('',8.2E-1,4.E-2,6.6E-1);
#96=COLOUR_RGB('',8.31373E-1,8.5098E-1,8.58824E-1);
#97=COLOUR_RGB('',8.5098E-1,7.29412E-1,5.4902E-1);
#98=COLOUR_RGB('',8.5E-1,8.5E-1,8.5E-1);
#99=COLOUR_RGB('',8.78431E-1,3.68627E-1,1.21569E-1);
#100=COLOUR_RGB('',8.784E-1,9.49E-1,1.E0);
#101=COLOUR_RGB('',8.90196E-1,5.88235E-1,1.41176E-1);
#102=COLOUR_RGB('',9.E-1,1.E0,0.E0);
#103=COLOUR_RGB('',9.09804E-1,6.11765E-1,7.09804E-1);
#104=COLOUR_RGB('',9.37E-1,7.85E-1,0.E0);
#105=COLOUR_RGB('',9.41176E-1,9.29412E-1,9.01961E-1);
#106=COLOUR_RGB('',9.5E-1,2.2E-1,8.1E-1);
#107=COLOUR_RGB('',9.6E-1,3.7E-1,3.E-1);
#108=COLOUR_RGB('',9.6E-1,7.1E-1,3.75E-1);
#109=COLOUR_RGB('',9.80392E-1,1.E0,1.E0);
#110=COLOUR_RGB('',9.88235E-1,1.09804E-1,7.8431E-2);
#111=COLOUR_RGB('',9.88235E-1,7.21569E-1,1.29412E-1);
#112=COLOUR_RGB('',9.88235E-1,9.21569E-1,8.E-1);
#113=DRAUGHTING_PRE_DEFINED_COLOUR('red');
#114=COLOUR_RGB('',1.E0,0.E0,6.1E-1);
#115=COLOUR_RGB('',1.E0,4.E-2,0.E0);
#116=COLOUR_RGB('',1.E0,2.3E-1,0.E0);
#117=COLOUR_RGB('',1.E0,3.5E-1,5.2E-1);
#118=COLOUR_RGB('',1.E0,3.6E-1,0.E0);
#119=COLOUR_RGB('',1.E0,3.88235E-1,2.11765E-1);
#120=COLOUR_RGB('',1.E0,4.9E-1,3.7E-1);
#121=COLOUR_RGB('',1.E0,5.E-1,0.E0);
#122=COLOUR_RGB('',1.E0,5.6E-1,7.8E-1);
#123=COLOUR_RGB('',1.E0,6.4E-1,4.9E-1);
#124=COLOUR_RGB('',1.E0,6.7E-1,0.E0);
#125=COLOUR_RGB('',1.E0,7.6E-1,6.5E-1);
#126=COLOUR_RGB('',1.E0,8.39216E-1,3.01961E-1);
#127=COLOUR_RGB('',1.E0,8.6E-1,4.E-2);
#128=COLOUR_RGB('',1.E0,9.60784E-1,2.58824E-1);
#129=COLOUR_RGB('',1.E0,9.60784E-1,8.90196E-1);
#130=COLOUR_RGB('',1.E0,9.8E-1,7.2E-1);
#131=DRAUGHTING_PRE_DEFINED_COLOUR('yellow');
#132=COLOUR_RGB('',1.E0,1.E0,3.9216E-2);
#133=DRAUGHTING_PRE_DEFINED_COLOUR('white');
#142=CIRCLE('',#141,1.524E0);
#151=CIRCLE('',#150,1.12522E0);
#160=CIRCLE('',#159,1.12522E0);
#169=CIRCLE('',#168,1.524E0);
#182=CIRCLE('',#181,3.9878E-1);
#211=CIRCLE('',#210,7.9756E-1);
#238=B_SPLINE_CURVE_WITH_KNOTS('',3,(#228,#229,#230,#231,#232,#233,#234,#235,
#236,#237),.UNSPECIFIED.,.F.,.F.,(4,1,1,1,1,1,1,4),(0.E0,1.428571428571E-1,
2.857142857143E-1,4.285714285714E-1,5.714285714286E-1,7.142857142857E-1,
8.571428571429E-1,1.E0),.UNSPECIFIED.);
#247=B_SPLINE_CURVE_WITH_KNOTS('',3,(#239,#240,#241,#242,#243,#244,#245,#246),
.UNSPECIFIED.,.F.,.F.,(4,1,1,1,1,4),(0.E0,2.5E-1,5.E-1,7.5E-1,8.75E-1,1.E0),
.UNSPECIFIED.);
#256=CIRCLE('',#255,1.12522E0);
#266=B_SPLINE_CURVE_WITH_KNOTS('',3,(#261,#262,#263,#264,#265),.UNSPECIFIED.,
.F.,.F.,(4,1,4),(0.E0,5.E-1,1.E0),.UNSPECIFIED.);
#283=CIRCLE('',#282,5.2578E-1);
#292=CIRCLE('',#291,1.524E0);
#301=CIRCLE('',#300,1.12522E0);
#310=CIRCLE('',#309,1.27E-1);
#327=CIRCLE('',#326,1.27E-1);
#336=CIRCLE('',#335,1.12522E0);
#345=CIRCLE('',#344,1.524E0);
#354=CIRCLE('',#353,5.2578E-1);
#363=CIRCLE('',#362,2.54E-1);
#368=CIRCLE('',#367,2.54E-1);
#401=CIRCLE('',#400,4.318E-1);
#418=CIRCLE('',#417,3.9878E-1);
#435=CIRCLE('',#434,4.318E-1);
#484=CIRCLE('',#483,2.54E-1);
#489=CIRCLE('',#488,2.54E-1);
#502=CIRCLE('',#501,4.318E-1);
#519=CIRCLE('',#518,7.9756E-1);
#536=CIRCLE('',#535,4.318E-1);
#589=CIRCLE('',#588,5.2578E-1);
#636=B_SPLINE_CURVE_WITH_KNOTS('',3,(#626,#627,#628,#629,#630,#631,#632,#633,
#634,#635),.UNSPECIFIED.,.F.,.F.,(4,1,1,1,1,1,1,4),(0.E0,1.428571428571E-1,
2.857142857143E-1,4.285714285714E-1,5.714285714286E-1,7.142857142857E-1,
8.571428571429E-1,1.E0),.UNSPECIFIED.);
#643=B_SPLINE_CURVE_WITH_KNOTS('',3,(#637,#638,#639,#640,#641,#642),
.UNSPECIFIED.,.F.,.F.,(4,1,1,4),(0.E0,2.5E-1,5.E-1,1.E0),.UNSPECIFIED.);
#652=CIRCLE('',#651,1.524E0);
#662=B_SPLINE_CURVE_WITH_KNOTS('',3,(#657,#658,#659,#660,#661),.UNSPECIFIED.,
.F.,.F.,(4,1,4),(0.E0,5.E-1,1.E0),.UNSPECIFIED.);
#677=B_SPLINE_CURVE_WITH_KNOTS('',3,(#667,#668,#669,#670,#671,#672,#673,#674,
#675,#676),.UNSPECIFIED.,.F.,.F.,(4,1,1,1,1,1,1,4),(0.E0,1.428571428571E-1,
2.857142857143E-1,4.285714285714E-1,5.714285714286E-1,7.142857142857E-1,
8.571428571429E-1,1.E0),.UNSPECIFIED.);
#683=B_SPLINE_CURVE_WITH_KNOTS('',3,(#678,#679,#680,#681,#682),.UNSPECIFIED.,
.F.,.F.,(4,1,4),(0.E0,5.E-1,1.E0),.UNSPECIFIED.);
#688=CIRCLE('',#687,1.12522E0);
#701=B_SPLINE_CURVE_WITH_KNOTS('',3,(#693,#694,#695,#696,#697,#698,#699,#700),
.UNSPECIFIED.,.F.,.F.,(4,1,1,1,1,4),(0.E0,1.25E-1,2.5E-1,5.E-1,7.5E-1,1.E0),
.UNSPECIFIED.);
#718=CIRCLE('',#717,1.27E-1);
#739=CIRCLE('',#738,1.013872998317E0);
#744=CIRCLE('',#743,1.013872998317E0);
#769=CIRCLE('',#768,1.27E-1);
#796=B_SPLINE_CURVE_WITH_KNOTS('',3,(#786,#787,#788,#789,#790,#791,#792,#793,
#794,#795),.UNSPECIFIED.,.F.,.F.,(4,1,1,1,1,1,1,4),(0.E0,1.428571428571E-1,
2.857142857143E-1,4.285714285714E-1,5.714285714286E-1,7.142857142857E-1,
8.571428571429E-1,1.E0),.UNSPECIFIED.);
#802=B_SPLINE_CURVE_WITH_KNOTS('',3,(#797,#798,#799,#800,#801),.UNSPECIFIED.,
.F.,.F.,(4,1,4),(0.E0,5.E-1,1.E0),.UNSPECIFIED.);
#807=CIRCLE('',#806,1.524E0);
#818=B_SPLINE_CURVE_WITH_KNOTS('',3,(#812,#813,#814,#815,#816,#817),
.UNSPECIFIED.,.F.,.F.,(4,1,1,4),(0.E0,5.E-1,7.5E-1,1.E0),.UNSPECIFIED.);
#835=CIRCLE('',#834,5.2578E-1);
#860=CIRCLE('',#859,3.9878E-1);
#865=CIRCLE('',#864,8.612664991586E-1);
#874=CIRCLE('',#873,8.612664991586E-1);
#1096=EDGE_CURVE('',#1053,#1054,#137,.T.);
#1098=EDGE_CURVE('',#1030,#1054,#142,.T.);
#1100=EDGE_CURVE('',#1029,#1030,#146,.T.);
#1102=EDGE_CURVE('',#1053,#1029,#151,.T.);
#1106=ADVANCED_FACE('',(#1105),#1095,.F.);
#1112=EDGE_CURVE('',#1057,#1058,#155,.T.);
#1114=EDGE_CURVE('',#1033,#1058,#160,.T.);
#1116=EDGE_CURVE('',#1033,#1034,#164,.T.);
#1118=EDGE_CURVE('',#1057,#1034,#169,.T.);
#1122=ADVANCED_FACE('',(#1121),#1111,.F.);
#1128=EDGE_CURVE('',#1067,#1068,#173,.T.);
#1130=EDGE_CURVE('',#1067,#981,#177,.T.);
#1132=EDGE_CURVE('',#981,#982,#182,.T.);
#1134=EDGE_CURVE('',#982,#1071,#186,.T.);
#1136=EDGE_CURVE('',#1071,#1072,#190,.T.);
#1138=EDGE_CURVE('',#974,#1072,#194,.T.);
#1140=EDGE_CURVE('',#966,#974,#198,.T.);
#1142=EDGE_CURVE('',#985,#966,#202,.T.);
#1144=EDGE_CURVE('',#985,#986,#206,.T.);
#1146=EDGE_CURVE('',#986,#989,#211,.T.);
#1148=EDGE_CURVE('',#989,#990,#215,.T.);
#1150=EDGE_CURVE('',#968,#990,#219,.T.);
#1152=EDGE_CURVE('',#968,#976,#223,.T.);
#1154=EDGE_CURVE('',#1068,#976,#227,.T.);
#1158=ADVANCED_FACE('',(#1157),#1127,.F.);
#1164=EDGE_CURVE('',#1062,#1053,#247,.T.);
#1166=EDGE_CURVE('',#1062,#1064,#847,.T.);
#1168=EDGE_CURVE('',#1064,#1054,#818,.T.);
#1173=ADVANCED_FACE('',(#1172),#1163,.F.);
#1179=EDGE_CURVE('',#1057,#1059,#643,.T.);
#1181=EDGE_CURVE('',#1059,#1061,#730,.T.);
#1183=EDGE_CURVE('',#1058,#1061,#701,.T.);
#1188=ADVANCED_FACE('',(#1187),#1178,.F.);
#1194=EDGE_CURVE('',#1081,#1082,#238,.T.);
#1196=EDGE_CURVE('',#1081,#1062,#851,.T.);
#1200=EDGE_CURVE('',#1029,#925,#251,.T.);
#1202=EDGE_CURVE('',#925,#1046,#256,.T.);
#1204=EDGE_CURVE('',#900,#1046,#260,.T.);
#1206=EDGE_CURVE('',#1079,#900,#301,.T.);
#1208=EDGE_CURVE('',#1082,#1079,#266,.T.);
#1212=ADVANCED_FACE('',(#1211),#1193,.F.);
#1219=EDGE_CURVE('',#1084,#1082,#270,.T.);
#1221=EDGE_CURVE('',#1084,#1085,#796,.T.);
#1223=EDGE_CURVE('',#1085,#1081,#843,.T.);
#1227=ADVANCED_FACE('',(#1226),#1217,.T.);
#1235=EDGE_CURVE('',#1079,#1080,#296,.T.);
#1237=EDGE_CURVE('',#1080,#1084,#802,.T.);
#1241=ADVANCED_FACE('',(#1240),#1232,.T.);
#1247=EDGE_CURVE('',#1013,#1018,#274,.T.);
#1249=EDGE_CURVE('',#1018,#906,#278,.T.);
#1251=EDGE_CURVE('',#906,#903,#283,.T.);
#1253=EDGE_CURVE('',#903,#904,#287,.T.);
#1255=EDGE_CURVE('',#904,#1080,#292,.T.);
#1259=EDGE_CURVE('',#900,#897,#305,.T.);
#1261=EDGE_CURVE('',#897,#898,#310,.T.);
#1263=EDGE_CURVE('',#898,#1013,#314,.T.);
#1267=ADVANCED_FACE('',(#1266),#1246,.T.);
#1273=EDGE_CURVE('',#1021,#1026,#318,.T.);
#1275=EDGE_CURVE('',#1026,#894,#322,.T.);
#1277=EDGE_CURVE('',#894,#891,#327,.T.);
#1279=EDGE_CURVE('',#891,#892,#331,.T.);
#1281=EDGE_CURVE('',#892,#1076,#336,.T.);
#1283=EDGE_CURVE('',#1075,#1076,#340,.T.);
#1285=EDGE_CURVE('',#1075,#888,#345,.T.);
#1287=EDGE_CURVE('',#888,#885,#349,.T.);
#1289=EDGE_CURVE('',#885,#886,#354,.T.);
#1291=EDGE_CURVE('',#886,#1021,#358,.T.);
#1295=ADVANCED_FACE('',(#1294),#1272,.T.);
#1301=EDGE_CURVE('',#1013,#1014,#363,.T.);
#1303=EDGE_CURVE('',#1014,#1017,#580,.T.);
#1305=EDGE_CURVE('',#1017,#1018,#368,.T.);
#1310=ADVANCED_FACE('',(#1309),#1300,.F.);
#1317=EDGE_CURVE('',#1025,#1026,#489,.T.);
#1319=EDGE_CURVE('',#1025,#1010,#388,.T.);
#1321=EDGE_CURVE('',#1010,#1005,#568,.T.);
#1323=EDGE_CURVE('',#1014,#1005,#584,.T.);
#1327=EDGE_CURVE('',#898,#972,#773,.T.);
#1329=EDGE_CURVE('',#972,#949,#392,.T.);
#1331=EDGE_CURVE('',#949,#950,#396,.T.);
#1333=EDGE_CURVE('',#950,#952,#401,.T.);
#1335=EDGE_CURVE('',#952,#954,#405,.T.);
#1337=EDGE_CURVE('',#954,#974,#409,.T.);
#1340=EDGE_CURVE('',#1072,#997,#413,.T.);
#1342=EDGE_CURVE('',#997,#1001,#418,.T.);
#1344=EDGE_CURVE('',#1001,#1068,#422,.T.);
#1347=EDGE_CURVE('',#976,#957,#426,.T.);
#1349=EDGE_CURVE('',#957,#958,#430,.T.);
#1351=EDGE_CURVE('',#958,#960,#435,.T.);
#1353=EDGE_CURVE('',#960,#962,#439,.T.);
#1355=EDGE_CURVE('',#962,#978,#443,.T.);
#1357=EDGE_CURVE('',#894,#978,#447,.T.);
#1361=EDGE_CURVE('',#918,#916,#372,.T.);
#1363=EDGE_CURVE('',#920,#916,#376,.T.);
#1365=EDGE_CURVE('',#922,#920,#380,.T.);
#1367=EDGE_CURVE('',#922,#918,#384,.T.);
#1371=ADVANCED_FACE('',(#1360,#1370),#1315,.T.);
#1377=EDGE_CURVE('',#910,#916,#451,.T.);
#1380=EDGE_CURVE('',#918,#909,#455,.T.);
#1382=EDGE_CURVE('',#909,#910,#459,.T.);
#1386=ADVANCED_FACE('',(#1385),#1376,.T.);
#1393=EDGE_CURVE('',#914,#910,#463,.T.);
#1395=EDGE_CURVE('',#914,#920,#471,.T.);
#1400=ADVANCED_FACE('',(#1399),#1391,.T.);
#1407=EDGE_CURVE('',#913,#909,#467,.T.);
#1409=EDGE_CURVE('',#913,#914,#475,.T.);
#1414=ADVANCED_FACE('',(#1413),#1405,.T.);
#1422=EDGE_CURVE('',#922,#913,#479,.T.);
#1427=ADVANCED_FACE('',(#1426),#1419,.T.);
#1439=ADVANCED_FACE('',(#1438),#1432,.F.);
#1445=EDGE_CURVE('',#1021,#1022,#484,.T.);
#1447=EDGE_CURVE('',#1022,#1025,#556,.T.);
#1453=ADVANCED_FACE('',(#1452),#1444,.F.);
#1459=EDGE_CURVE('',#1022,#1008,#560,.T.);
#1463=EDGE_CURVE('',#886,#970,#593,.T.);
#1465=EDGE_CURVE('',#946,#970,#493,.T.);
#1467=EDGE_CURVE('',#944,#946,#497,.T.);
#1469=EDGE_CURVE('',#942,#944,#502,.T.);
#1471=EDGE_CURVE('',#941,#942,#506,.T.);
#1473=EDGE_CURVE('',#968,#941,#510,.T.);
#1476=EDGE_CURVE('',#990,#994,#514,.T.);
#1478=EDGE_CURVE('',#994,#992,#519,.T.);
#1480=EDGE_CURVE('',#992,#985,#523,.T.);
#1483=EDGE_CURVE('',#938,#966,#527,.T.);
#1485=EDGE_CURVE('',#936,#938,#531,.T.);
#1487=EDGE_CURVE('',#934,#936,#536,.T.);
#1489=EDGE_CURVE('',#933,#934,#540,.T.);
#1491=EDGE_CURVE('',#964,#933,#544,.T.);
#1493=EDGE_CURVE('',#906,#964,#548,.T.);
#1497=EDGE_CURVE('',#1017,#1006,#552,.T.);
#1499=EDGE_CURVE('',#1006,#1008,#576,.T.);
#1503=ADVANCED_FACE('',(#1502),#1458,.T.);
#1511=EDGE_CURVE('',#1008,#1010,#572,.T.);
#1516=ADVANCED_FACE('',(#1515),#1508,.T.);
#1522=EDGE_CURVE('',#1005,#1006,#564,.T.);
#1529=ADVANCED_FACE('',(#1528),#1521,.T.);
#1541=ADVANCED_FACE('',(#1540),#1534,.T.);
#1547=EDGE_CURVE('',#970,#1037,#589,.T.);
#1551=EDGE_CURVE('',#885,#1037,#625,.T.);
#1555=ADVANCED_FACE('',(#1554),#1546,.T.);
#1561=EDGE_CURVE('',#970,#978,#597,.T.);
#1564=EDGE_CURVE('',#1037,#1038,#621,.T.);
#1566=EDGE_CURVE('',#1038,#930,#652,.T.);
#1568=EDGE_CURVE('',#929,#930,#601,.T.);
#1570=EDGE_CURVE('',#1040,#929,#688,.T.);
#1572=EDGE_CURVE('',#1040,#1042,#709,.T.);
#1574=EDGE_CURVE('',#978,#1042,#718,.T.);
#1578=ADVANCED_FACE('',(#1577),#1560,.F.);
#1587=EDGE_CURVE('',#946,#962,#605,.T.);
#1591=ADVANCED_FACE('',(#1590),#1583,.T.);
#1600=EDGE_CURVE('',#944,#960,#609,.T.);
#1604=ADVANCED_FACE('',(#1603),#1596,.T.);
#1613=EDGE_CURVE('',#942,#958,#613,.T.);
#1617=ADVANCED_FACE('',(#1616),#1609,.T.);
#1626=EDGE_CURVE('',#941,#957,#617,.T.);
#1630=ADVANCED_FACE('',(#1629),#1622,.T.);
#1642=ADVANCED_FACE('',(#1641),#1635,.T.);
#1651=EDGE_CURVE('',#888,#1038,#656,.T.);
#1655=ADVANCED_FACE('',(#1654),#1647,.T.);
#1661=EDGE_CURVE('',#1086,#1087,#636,.T.);
#1663=EDGE_CURVE('',#1086,#1059,#734,.T.);
#1667=EDGE_CURVE('',#1034,#930,#647,.T.);
#1672=EDGE_CURVE('',#1087,#1075,#662,.T.);
#1676=ADVANCED_FACE('',(#1675),#1660,.T.);
#1683=EDGE_CURVE('',#1089,#1087,#666,.T.);
#1685=EDGE_CURVE('',#1089,#1090,#677,.T.);
#1687=EDGE_CURVE('',#1090,#1086,#726,.T.);
#1691=ADVANCED_FACE('',(#1690),#1681,.T.);
#1700=EDGE_CURVE('',#1076,#1089,#683,.T.);
#1704=ADVANCED_FACE('',(#1703),#1696,.T.);
#1713=EDGE_CURVE('',#892,#1040,#713,.T.);
#1716=EDGE_CURVE('',#1033,#929,#692,.T.);
#1720=EDGE_CURVE('',#1090,#1061,#705,.T.);
#1724=ADVANCED_FACE('',(#1723),#1709,.F.);
#1733=EDGE_CURVE('',#891,#1042,#722,.T.);
#1737=ADVANCED_FACE('',(#1736),#1729,.T.);
#1749=ADVANCED_FACE('',(#1748),#1742,.F.);
#1761=ADVANCED_FACE('',(#1760),#1754,.F.);
#1773=ADVANCED_FACE('',(#1772),#1766,.T.);
#1780=EDGE_CURVE('',#989,#994,#739,.T.);
#1785=ADVANCED_FACE('',(#1784),#1778,.T.);
#1803=EDGE_CURVE('',#986,#992,#744,.T.);
#1810=ADVANCED_FACE('',(#1809),#1802,.T.);
#1821=ADVANCED_FACE('',(#1820),#1815,.T.);
#1830=EDGE_CURVE('',#938,#954,#748,.T.);
#1834=ADVANCED_FACE('',(#1833),#1826,.T.);
#1843=EDGE_CURVE('',#936,#952,#752,.T.);
#1847=ADVANCED_FACE('',(#1846),#1839,.T.);
#1856=EDGE_CURVE('',#934,#950,#756,.T.);
#1860=ADVANCED_FACE('',(#1859),#1852,.T.);
#1869=EDGE_CURVE('',#933,#949,#760,.T.);
#1873=ADVANCED_FACE('',(#1872),#1865,.T.);
#1882=EDGE_CURVE('',#964,#972,#764,.T.);
#1886=ADVANCED_FACE('',(#1885),#1878,.T.);
#1893=EDGE_CURVE('',#1045,#972,#769,.T.);
#1895=EDGE_CURVE('',#1045,#1046,#777,.T.);
#1898=EDGE_CURVE('',#925,#926,#785,.T.);
#1900=EDGE_CURVE('',#926,#1048,#807,.T.);
#1902=EDGE_CURVE('',#1048,#1050,#826,.T.);
#1904=EDGE_CURVE('',#1050,#964,#835,.T.);
#1908=ADVANCED_FACE('',(#1907),#1891,.F.);
#1917=EDGE_CURVE('',#897,#1045,#781,.T.);
#1921=ADVANCED_FACE('',(#1920),#1913,.F.);
#1933=ADVANCED_FACE('',(#1932),#1926,.T.);
#1942=EDGE_CURVE('',#1030,#926,#811,.T.);
#1946=ADVANCED_FACE('',(#1945),#1938,.F.);
#1955=EDGE_CURVE('',#904,#1048,#830,.T.);
#1961=EDGE_CURVE('',#1085,#1064,#822,.T.);
#1965=ADVANCED_FACE('',(#1964),#1951,.T.);
#1974=EDGE_CURVE('',#903,#1050,#839,.T.);
#1978=ADVANCED_FACE('',(#1977),#1970,.T.);
#1990=ADVANCED_FACE('',(#1989),#1983,.T.);
#2002=ADVANCED_FACE('',(#2001),#1995,.T.);
#2008=EDGE_CURVE('',#997,#998,#855,.T.);
#2012=EDGE_CURVE('',#1071,#998,#869,.T.);
#2016=ADVANCED_FACE('',(#2015),#2007,.F.);
#2023=EDGE_CURVE('',#998,#1002,#860,.T.);
#2025=EDGE_CURVE('',#1001,#1002,#882,.T.);
#2030=ADVANCED_FACE('',(#2029),#2021,.F.);
#2037=EDGE_CURVE('',#982,#998,#874,.T.);
#2040=EDGE_CURVE('',#981,#1002,#865,.T.);
#2044=ADVANCED_FACE('',(#2043),#2035,.F.);
#2055=ADVANCED_FACE('',(#2054),#2049,.F.);
#2061=EDGE_CURVE('',#1002,#1067,#878,.T.);
#2067=ADVANCED_FACE('',(#2066),#2060,.F.);
#2079=ADVANCED_FACE('',(#2078),#2072,.F.);
#2082=(LENGTH_UNIT()NAMED_UNIT(*)SI_UNIT(.MILLI.,.METRE.));
#2083=(NAMED_UNIT(*)PLANE_ANGLE_UNIT()SI_UNIT($,.RADIAN.));
#2086=(NAMED_UNIT(*)SI_UNIT($,.STERADIAN.)SOLID_ANGLE_UNIT());
#2088=(GEOMETRIC_REPRESENTATION_CONTEXT(3)GLOBAL_UNCERTAINTY_ASSIGNED_CONTEXT((
#2087))GLOBAL_UNIT_ASSIGNED_CONTEXT((#2082,#2085,#2086))REPRESENTATION_CONTEXT(
'ID1','3'));
#2089=ADVANCED_BREP_SHAPE_REPRESENTATION('',(#2081),#2088);
#2096=PRODUCT_DEFINITION('part definition','',#2095,#2092);
#2097=PRODUCT_DEFINITION_SHAPE('','SHAPE FOR C-63969-1.',#2096);
#2098=SHAPE_ASPECT('','solid data associated with C-63969-1',#2097,.F.);
#2099=PROPERTY_DEFINITION('',
'shape for solid data with which properties are associated',#2098);
#2100=SHAPE_REPRESENTATION('',(#2081),#2088);
#2101=SHAPE_DEFINITION_REPRESENTATION(#2099,#2100);
#2102=(LENGTH_UNIT()NAMED_UNIT(*)SI_UNIT(.MILLI.,.METRE.));
#2106=PROPERTY_DEFINITION('geometric validation property','area of C-63969-1',
#2098);
#2107=REPRESENTATION('surface area',(#2105),#2088);
#2108=PROPERTY_DEFINITION_REPRESENTATION(#2106,#2107);
#2109=(LENGTH_UNIT()NAMED_UNIT(*)SI_UNIT(.MILLI.,.METRE.));
#2113=PROPERTY_DEFINITION('geometric validation property','volume of C-63969-1',
#2098);
#2114=REPRESENTATION('volume',(#2112),#2088);
#2115=PROPERTY_DEFINITION_REPRESENTATION(#2113,#2114);
#2117=PROPERTY_DEFINITION('geometric validation property',
'centroid of C-63969-1',#2098);
#2118=REPRESENTATION('centroid',(#2116),#2088);
#2119=PROPERTY_DEFINITION_REPRESENTATION(#2117,#2118);
#2120=(LENGTH_UNIT()NAMED_UNIT(*)SI_UNIT(.MILLI.,.METRE.));
#2124=PROPERTY_DEFINITION('geometric validation property','area of C-63969-1',
#2097);
#2125=REPRESENTATION('surface area',(#2123),#2088);
#2126=PROPERTY_DEFINITION_REPRESENTATION(#2124,#2125);
#2127=(LENGTH_UNIT()NAMED_UNIT(*)SI_UNIT(.MILLI.,.METRE.));
#2131=PROPERTY_DEFINITION('geometric validation property','volume of C-63969-1',
#2097);
#2132=REPRESENTATION('volume',(#2130),#2088);
#2133=PROPERTY_DEFINITION_REPRESENTATION(#2131,#2132);
#2135=PROPERTY_DEFINITION('geometric validation property',
'centroid of C-63969-1',#2097);
#2136=REPRESENTATION('centroid',(#2134),#2088);
#2137=PROPERTY_DEFINITION_REPRESENTATION(#2135,#2136);
#2138=SHAPE_DEFINITION_REPRESENTATION(#2097,#2089);
ENDSEC;
END-ISO-10303-21;
