G04 #@! TF.GenerationSoftware,KiCad,Pcbnew,(5.1.5)-3*
G04 #@! TF.CreationDate,2020-06-10T14:36:35-04:00*
G04 #@! TF.ProjectId,Modbus Adapter,4d6f6462-7573-4204-9164-61707465722e,rev?*
G04 #@! TF.SameCoordinates,Original*
G04 #@! TF.FileFunction,Legend,Bot*
G04 #@! TF.FilePolarity,Positive*
%FSLAX46Y46*%
G04 Gerber Fmt 4.6, Leading zero omitted, Abs format (unit mm)*
G04 Created by KiCad (PCBNEW (5.1.5)-3) date 2020-06-10 14:36:35*
%MOMM*%
%LPD*%
G04 APERTURE LIST*
%ADD10C,0.120000*%
%ADD11C,0.150000*%
G04 APERTURE END LIST*
D10*
X174104000Y-98685000D02*
X173084000Y-98685000D01*
X173084000Y-98685000D02*
X173084000Y-99170000D01*
X173084000Y-99170000D02*
X167784000Y-99170000D01*
X167784000Y-99170000D02*
X167784000Y-98685000D01*
X173084000Y-86735000D02*
X173084000Y-86250000D01*
X173084000Y-86250000D02*
X167784000Y-86250000D01*
X167784000Y-86250000D02*
X167784000Y-86735000D01*
X173084000Y-96895000D02*
X173084000Y-96145000D01*
X167784000Y-96895000D02*
X167784000Y-96145000D01*
X173084000Y-94355000D02*
X173084000Y-93605000D01*
X167784000Y-94355000D02*
X167784000Y-93605000D01*
X173084000Y-91815000D02*
X173084000Y-91065000D01*
X167784000Y-91815000D02*
X167784000Y-91065000D01*
X173084000Y-89275000D02*
X173084000Y-88525000D01*
X167784000Y-89275000D02*
X167784000Y-88525000D01*
D11*
X175851619Y-93043333D02*
X175137333Y-93043333D01*
X174994476Y-93090952D01*
X174899238Y-93186190D01*
X174851619Y-93329047D01*
X174851619Y-93424285D01*
X175756380Y-92614761D02*
X175804000Y-92567142D01*
X175851619Y-92471904D01*
X175851619Y-92233809D01*
X175804000Y-92138571D01*
X175756380Y-92090952D01*
X175661142Y-92043333D01*
X175565904Y-92043333D01*
X175423047Y-92090952D01*
X174851619Y-92662380D01*
X174851619Y-92043333D01*
M02*
