G04 #@! TF.GenerationSoftware,KiCad,Pcbnew,(5.1.5)-3*
G04 #@! TF.CreationDate,2020-06-10T14:36:35-04:00*
G04 #@! TF.ProjectId,Modbus Adapter,4d6f6462-7573-4204-9164-61707465722e,rev?*
G04 #@! TF.SameCoordinates,Original*
G04 #@! TF.FileFunction,Soldermask,Bot*
G04 #@! TF.FilePolarity,Negative*
%FSLAX46Y46*%
G04 Gerber Fmt 4.6, Leading zero omitted, Abs format (unit mm)*
G04 Created by KiCad (PCBNEW (5.1.5)-3) date 2020-06-10 14:36:35*
%MOMM*%
%LPD*%
G04 APERTURE LIST*
%ADD10C,0.100000*%
G04 APERTURE END LIST*
D10*
G36*
X169105000Y-98476000D02*
G01*
X166713000Y-98476000D01*
X166713000Y-97104000D01*
X169105000Y-97104000D01*
X169105000Y-98476000D01*
G37*
G36*
X174155000Y-98476000D02*
G01*
X171763000Y-98476000D01*
X171763000Y-97104000D01*
X174155000Y-97104000D01*
X174155000Y-98476000D01*
G37*
G36*
X169105000Y-95936000D02*
G01*
X166713000Y-95936000D01*
X166713000Y-94564000D01*
X169105000Y-94564000D01*
X169105000Y-95936000D01*
G37*
G36*
X174155000Y-95936000D02*
G01*
X171763000Y-95936000D01*
X171763000Y-94564000D01*
X174155000Y-94564000D01*
X174155000Y-95936000D01*
G37*
G36*
X174155000Y-93396000D02*
G01*
X171763000Y-93396000D01*
X171763000Y-92024000D01*
X174155000Y-92024000D01*
X174155000Y-93396000D01*
G37*
G36*
X169105000Y-93396000D02*
G01*
X166713000Y-93396000D01*
X166713000Y-92024000D01*
X169105000Y-92024000D01*
X169105000Y-93396000D01*
G37*
G36*
X174155000Y-90856000D02*
G01*
X171763000Y-90856000D01*
X171763000Y-89484000D01*
X174155000Y-89484000D01*
X174155000Y-90856000D01*
G37*
G36*
X169105000Y-90856000D02*
G01*
X166713000Y-90856000D01*
X166713000Y-89484000D01*
X169105000Y-89484000D01*
X169105000Y-90856000D01*
G37*
G36*
X169105000Y-88316000D02*
G01*
X166713000Y-88316000D01*
X166713000Y-86944000D01*
X169105000Y-86944000D01*
X169105000Y-88316000D01*
G37*
G36*
X174155000Y-88316000D02*
G01*
X171763000Y-88316000D01*
X171763000Y-86944000D01*
X174155000Y-86944000D01*
X174155000Y-88316000D01*
G37*
M02*
