%TF.GenerationSoftware,KiCad,Pcbnew,(5.1.10)-1*%
%TF.CreationDate,2021-07-20T09:59:38-04:00*%
%TF.ProjectId,Smart Tank Current Shunt,536d6172-7420-4546-916e-6b2043757272,rev?*%
%TF.SameCoordinates,Original*%
%TF.FileFunction,Legend,Top*%
%TF.FilePolarity,Positive*%
%FSLAX46Y46*%
G04 Gerber Fmt 4.6, Leading zero omitted, Abs format (unit mm)*
G04 Created by KiCad (PCBNEW (5.1.10)-1) date 2021-07-20 09:59:38*
%MOMM*%
%LPD*%
G01*
G04 APERTURE LIST*
%ADD10C,0.150000*%
%ADD11C,0.120000*%
G04 APERTURE END LIST*
D10*
X114104761Y-105604761D02*
X114152380Y-105461904D01*
X114152380Y-105223809D01*
X114104761Y-105128571D01*
X114057142Y-105080952D01*
X113961904Y-105033333D01*
X113866666Y-105033333D01*
X113771428Y-105080952D01*
X113723809Y-105128571D01*
X113676190Y-105223809D01*
X113628571Y-105414285D01*
X113580952Y-105509523D01*
X113533333Y-105557142D01*
X113438095Y-105604761D01*
X113342857Y-105604761D01*
X113247619Y-105557142D01*
X113200000Y-105509523D01*
X113152380Y-105414285D01*
X113152380Y-105176190D01*
X113200000Y-105033333D01*
X114152380Y-104604761D02*
X113152380Y-104604761D01*
X113866666Y-104271428D01*
X113152380Y-103938095D01*
X114152380Y-103938095D01*
X113866666Y-103509523D02*
X113866666Y-103033333D01*
X114152380Y-103604761D02*
X113152380Y-103271428D01*
X114152380Y-102938095D01*
X114152380Y-102033333D02*
X113676190Y-102366666D01*
X114152380Y-102604761D02*
X113152380Y-102604761D01*
X113152380Y-102223809D01*
X113200000Y-102128571D01*
X113247619Y-102080952D01*
X113342857Y-102033333D01*
X113485714Y-102033333D01*
X113580952Y-102080952D01*
X113628571Y-102128571D01*
X113676190Y-102223809D01*
X113676190Y-102604761D01*
X113152380Y-101747619D02*
X113152380Y-101176190D01*
X114152380Y-101461904D02*
X113152380Y-101461904D01*
X114247619Y-101080952D02*
X114247619Y-100319047D01*
X113152380Y-100223809D02*
X113152380Y-99652380D01*
X114152380Y-99938095D02*
X113152380Y-99938095D01*
X113866666Y-99366666D02*
X113866666Y-98890476D01*
X114152380Y-99461904D02*
X113152380Y-99128571D01*
X114152380Y-98795238D01*
X114152380Y-98461904D02*
X113152380Y-98461904D01*
X114152380Y-97890476D01*
X113152380Y-97890476D01*
X114152380Y-97414285D02*
X113152380Y-97414285D01*
X114152380Y-96842857D02*
X113580952Y-97271428D01*
X113152380Y-96842857D02*
X113723809Y-97414285D01*
X114247619Y-96652380D02*
X114247619Y-95890476D01*
X114057142Y-95080952D02*
X114104761Y-95128571D01*
X114152380Y-95271428D01*
X114152380Y-95366666D01*
X114104761Y-95509523D01*
X114009523Y-95604761D01*
X113914285Y-95652380D01*
X113723809Y-95700000D01*
X113580952Y-95700000D01*
X113390476Y-95652380D01*
X113295238Y-95604761D01*
X113200000Y-95509523D01*
X113152380Y-95366666D01*
X113152380Y-95271428D01*
X113200000Y-95128571D01*
X113247619Y-95080952D01*
X113152380Y-94652380D02*
X113961904Y-94652380D01*
X114057142Y-94604761D01*
X114104761Y-94557142D01*
X114152380Y-94461904D01*
X114152380Y-94271428D01*
X114104761Y-94176190D01*
X114057142Y-94128571D01*
X113961904Y-94080952D01*
X113152380Y-94080952D01*
X114152380Y-93033333D02*
X113676190Y-93366666D01*
X114152380Y-93604761D02*
X113152380Y-93604761D01*
X113152380Y-93223809D01*
X113200000Y-93128571D01*
X113247619Y-93080952D01*
X113342857Y-93033333D01*
X113485714Y-93033333D01*
X113580952Y-93080952D01*
X113628571Y-93128571D01*
X113676190Y-93223809D01*
X113676190Y-93604761D01*
X114152380Y-92033333D02*
X113676190Y-92366666D01*
X114152380Y-92604761D02*
X113152380Y-92604761D01*
X113152380Y-92223809D01*
X113200000Y-92128571D01*
X113247619Y-92080952D01*
X113342857Y-92033333D01*
X113485714Y-92033333D01*
X113580952Y-92080952D01*
X113628571Y-92128571D01*
X113676190Y-92223809D01*
X113676190Y-92604761D01*
X113628571Y-91604761D02*
X113628571Y-91271428D01*
X114152380Y-91128571D02*
X114152380Y-91604761D01*
X113152380Y-91604761D01*
X113152380Y-91128571D01*
X114152380Y-90700000D02*
X113152380Y-90700000D01*
X114152380Y-90128571D01*
X113152380Y-90128571D01*
X113152380Y-89795238D02*
X113152380Y-89223809D01*
X114152380Y-89509523D02*
X113152380Y-89509523D01*
X114247619Y-89128571D02*
X114247619Y-88366666D01*
X114104761Y-88176190D02*
X114152380Y-88033333D01*
X114152380Y-87795238D01*
X114104761Y-87700000D01*
X114057142Y-87652380D01*
X113961904Y-87604761D01*
X113866666Y-87604761D01*
X113771428Y-87652380D01*
X113723809Y-87700000D01*
X113676190Y-87795238D01*
X113628571Y-87985714D01*
X113580952Y-88080952D01*
X113533333Y-88128571D01*
X113438095Y-88176190D01*
X113342857Y-88176190D01*
X113247619Y-88128571D01*
X113200000Y-88080952D01*
X113152380Y-87985714D01*
X113152380Y-87747619D01*
X113200000Y-87604761D01*
X114152380Y-87176190D02*
X113152380Y-87176190D01*
X113628571Y-87176190D02*
X113628571Y-86604761D01*
X114152380Y-86604761D02*
X113152380Y-86604761D01*
X113152380Y-86128571D02*
X113961904Y-86128571D01*
X114057142Y-86080952D01*
X114104761Y-86033333D01*
X114152380Y-85938095D01*
X114152380Y-85747619D01*
X114104761Y-85652380D01*
X114057142Y-85604761D01*
X113961904Y-85557142D01*
X113152380Y-85557142D01*
X114152380Y-85080952D02*
X113152380Y-85080952D01*
X114152380Y-84509523D01*
X113152380Y-84509523D01*
X113152380Y-84176190D02*
X113152380Y-83604761D01*
X114152380Y-83890476D02*
X113152380Y-83890476D01*
X114247619Y-83509523D02*
X114247619Y-82747619D01*
X113485714Y-82604761D02*
X114152380Y-82366666D01*
X113485714Y-82128571D01*
X114152380Y-81223809D02*
X114152380Y-81795238D01*
X114152380Y-81509523D02*
X113152380Y-81509523D01*
X113295238Y-81604761D01*
X113390476Y-81700000D01*
X113438095Y-81795238D01*
X114057142Y-80795238D02*
X114104761Y-80747619D01*
X114152380Y-80795238D01*
X114104761Y-80842857D01*
X114057142Y-80795238D01*
X114152380Y-80795238D01*
X113152380Y-80128571D02*
X113152380Y-80033333D01*
X113200000Y-79938095D01*
X113247619Y-79890476D01*
X113342857Y-79842857D01*
X113533333Y-79795238D01*
X113771428Y-79795238D01*
X113961904Y-79842857D01*
X114057142Y-79890476D01*
X114104761Y-79938095D01*
X114152380Y-80033333D01*
X114152380Y-80128571D01*
X114104761Y-80223809D01*
X114057142Y-80271428D01*
X113961904Y-80319047D01*
X113771428Y-80366666D01*
X113533333Y-80366666D01*
X113342857Y-80319047D01*
X113247619Y-80271428D01*
X113200000Y-80223809D01*
X113152380Y-80128571D01*
D11*
%TO.C,C1*%
X120790000Y-85034420D02*
X120790000Y-85315580D01*
X121810000Y-85034420D02*
X121810000Y-85315580D01*
%TO.C,C2*%
X130890000Y-100615580D02*
X130890000Y-100334420D01*
X131910000Y-100615580D02*
X131910000Y-100334420D01*
%TO.C,CTRL_AMPS*%
X126200000Y-83160000D02*
X129650000Y-83160000D01*
X126200000Y-83160000D02*
X124250000Y-83160000D01*
X126200000Y-78040000D02*
X128150000Y-78040000D01*
X126200000Y-78040000D02*
X124250000Y-78040000D01*
%TO.C,PUMP_AMPS*%
X126200000Y-107560000D02*
X128150000Y-107560000D01*
X126200000Y-107560000D02*
X124250000Y-107560000D01*
X126200000Y-102440000D02*
X128150000Y-102440000D01*
X126200000Y-102440000D02*
X122750000Y-102440000D01*
%TO.C,R1*%
X131600000Y-77100000D02*
X121000000Y-77100000D01*
X131600000Y-68700000D02*
X121000000Y-68700000D01*
%TO.C,R2*%
X120970000Y-116900000D02*
X131570000Y-116900000D01*
X120970000Y-108500000D02*
X131570000Y-108500000D01*
%TO.C,C1*%
D10*
X120157142Y-85441666D02*
X120204761Y-85489285D01*
X120252380Y-85632142D01*
X120252380Y-85727380D01*
X120204761Y-85870238D01*
X120109523Y-85965476D01*
X120014285Y-86013095D01*
X119823809Y-86060714D01*
X119680952Y-86060714D01*
X119490476Y-86013095D01*
X119395238Y-85965476D01*
X119300000Y-85870238D01*
X119252380Y-85727380D01*
X119252380Y-85632142D01*
X119300000Y-85489285D01*
X119347619Y-85441666D01*
X120252380Y-84489285D02*
X120252380Y-85060714D01*
X120252380Y-84775000D02*
X119252380Y-84775000D01*
X119395238Y-84870238D01*
X119490476Y-84965476D01*
X119538095Y-85060714D01*
%TO.C,C2*%
X133257142Y-100666666D02*
X133304761Y-100714285D01*
X133352380Y-100857142D01*
X133352380Y-100952380D01*
X133304761Y-101095238D01*
X133209523Y-101190476D01*
X133114285Y-101238095D01*
X132923809Y-101285714D01*
X132780952Y-101285714D01*
X132590476Y-101238095D01*
X132495238Y-101190476D01*
X132400000Y-101095238D01*
X132352380Y-100952380D01*
X132352380Y-100857142D01*
X132400000Y-100714285D01*
X132447619Y-100666666D01*
X132447619Y-100285714D02*
X132400000Y-100238095D01*
X132352380Y-100142857D01*
X132352380Y-99904761D01*
X132400000Y-99809523D01*
X132447619Y-99761904D01*
X132542857Y-99714285D01*
X132638095Y-99714285D01*
X132780952Y-99761904D01*
X133352380Y-100333333D01*
X133352380Y-99714285D01*
%TO.C,CTRL_AMPS*%
X122866666Y-90357142D02*
X122819047Y-90404761D01*
X122676190Y-90452380D01*
X122580952Y-90452380D01*
X122438095Y-90404761D01*
X122342857Y-90309523D01*
X122295238Y-90214285D01*
X122247619Y-90023809D01*
X122247619Y-89880952D01*
X122295238Y-89690476D01*
X122342857Y-89595238D01*
X122438095Y-89500000D01*
X122580952Y-89452380D01*
X122676190Y-89452380D01*
X122819047Y-89500000D01*
X122866666Y-89547619D01*
X123152380Y-89452380D02*
X123723809Y-89452380D01*
X123438095Y-90452380D02*
X123438095Y-89452380D01*
X124628571Y-90452380D02*
X124295238Y-89976190D01*
X124057142Y-90452380D02*
X124057142Y-89452380D01*
X124438095Y-89452380D01*
X124533333Y-89500000D01*
X124580952Y-89547619D01*
X124628571Y-89642857D01*
X124628571Y-89785714D01*
X124580952Y-89880952D01*
X124533333Y-89928571D01*
X124438095Y-89976190D01*
X124057142Y-89976190D01*
X125533333Y-90452380D02*
X125057142Y-90452380D01*
X125057142Y-89452380D01*
X125628571Y-90547619D02*
X126390476Y-90547619D01*
X126580952Y-90166666D02*
X127057142Y-90166666D01*
X126485714Y-90452380D02*
X126819047Y-89452380D01*
X127152380Y-90452380D01*
X127485714Y-90452380D02*
X127485714Y-89452380D01*
X127819047Y-90166666D01*
X128152380Y-89452380D01*
X128152380Y-90452380D01*
X128628571Y-90452380D02*
X128628571Y-89452380D01*
X129009523Y-89452380D01*
X129104761Y-89500000D01*
X129152380Y-89547619D01*
X129200000Y-89642857D01*
X129200000Y-89785714D01*
X129152380Y-89880952D01*
X129104761Y-89928571D01*
X129009523Y-89976190D01*
X128628571Y-89976190D01*
X129580952Y-90404761D02*
X129723809Y-90452380D01*
X129961904Y-90452380D01*
X130057142Y-90404761D01*
X130104761Y-90357142D01*
X130152380Y-90261904D01*
X130152380Y-90166666D01*
X130104761Y-90071428D01*
X130057142Y-90023809D01*
X129961904Y-89976190D01*
X129771428Y-89928571D01*
X129676190Y-89880952D01*
X129628571Y-89833333D01*
X129580952Y-89738095D01*
X129580952Y-89642857D01*
X129628571Y-89547619D01*
X129676190Y-89500000D01*
X129771428Y-89452380D01*
X130009523Y-89452380D01*
X130152380Y-89500000D01*
%TO.C,PUMP_AMPS*%
X121985714Y-96052380D02*
X121985714Y-95052380D01*
X122366666Y-95052380D01*
X122461904Y-95100000D01*
X122509523Y-95147619D01*
X122557142Y-95242857D01*
X122557142Y-95385714D01*
X122509523Y-95480952D01*
X122461904Y-95528571D01*
X122366666Y-95576190D01*
X121985714Y-95576190D01*
X122985714Y-95052380D02*
X122985714Y-95861904D01*
X123033333Y-95957142D01*
X123080952Y-96004761D01*
X123176190Y-96052380D01*
X123366666Y-96052380D01*
X123461904Y-96004761D01*
X123509523Y-95957142D01*
X123557142Y-95861904D01*
X123557142Y-95052380D01*
X124033333Y-96052380D02*
X124033333Y-95052380D01*
X124366666Y-95766666D01*
X124700000Y-95052380D01*
X124700000Y-96052380D01*
X125176190Y-96052380D02*
X125176190Y-95052380D01*
X125557142Y-95052380D01*
X125652380Y-95100000D01*
X125700000Y-95147619D01*
X125747619Y-95242857D01*
X125747619Y-95385714D01*
X125700000Y-95480952D01*
X125652380Y-95528571D01*
X125557142Y-95576190D01*
X125176190Y-95576190D01*
X125938095Y-96147619D02*
X126700000Y-96147619D01*
X126890476Y-95766666D02*
X127366666Y-95766666D01*
X126795238Y-96052380D02*
X127128571Y-95052380D01*
X127461904Y-96052380D01*
X127795238Y-96052380D02*
X127795238Y-95052380D01*
X128128571Y-95766666D01*
X128461904Y-95052380D01*
X128461904Y-96052380D01*
X128938095Y-96052380D02*
X128938095Y-95052380D01*
X129319047Y-95052380D01*
X129414285Y-95100000D01*
X129461904Y-95147619D01*
X129509523Y-95242857D01*
X129509523Y-95385714D01*
X129461904Y-95480952D01*
X129414285Y-95528571D01*
X129319047Y-95576190D01*
X128938095Y-95576190D01*
X129890476Y-96004761D02*
X130033333Y-96052380D01*
X130271428Y-96052380D01*
X130366666Y-96004761D01*
X130414285Y-95957142D01*
X130461904Y-95861904D01*
X130461904Y-95766666D01*
X130414285Y-95671428D01*
X130366666Y-95623809D01*
X130271428Y-95576190D01*
X130080952Y-95528571D01*
X129985714Y-95480952D01*
X129938095Y-95433333D01*
X129890476Y-95338095D01*
X129890476Y-95242857D01*
X129938095Y-95147619D01*
X129985714Y-95100000D01*
X130080952Y-95052380D01*
X130319047Y-95052380D01*
X130461904Y-95100000D01*
%TO.C,R1*%
X120633333Y-78652380D02*
X120300000Y-78176190D01*
X120061904Y-78652380D02*
X120061904Y-77652380D01*
X120442857Y-77652380D01*
X120538095Y-77700000D01*
X120585714Y-77747619D01*
X120633333Y-77842857D01*
X120633333Y-77985714D01*
X120585714Y-78080952D01*
X120538095Y-78128571D01*
X120442857Y-78176190D01*
X120061904Y-78176190D01*
X121585714Y-78652380D02*
X121014285Y-78652380D01*
X121300000Y-78652380D02*
X121300000Y-77652380D01*
X121204761Y-77795238D01*
X121109523Y-77890476D01*
X121014285Y-77938095D01*
%TO.C,R2*%
X131433333Y-107852380D02*
X131100000Y-107376190D01*
X130861904Y-107852380D02*
X130861904Y-106852380D01*
X131242857Y-106852380D01*
X131338095Y-106900000D01*
X131385714Y-106947619D01*
X131433333Y-107042857D01*
X131433333Y-107185714D01*
X131385714Y-107280952D01*
X131338095Y-107328571D01*
X131242857Y-107376190D01*
X130861904Y-107376190D01*
X131814285Y-106947619D02*
X131861904Y-106900000D01*
X131957142Y-106852380D01*
X132195238Y-106852380D01*
X132290476Y-106900000D01*
X132338095Y-106947619D01*
X132385714Y-107042857D01*
X132385714Y-107138095D01*
X132338095Y-107280952D01*
X131766666Y-107852380D01*
X132385714Y-107852380D01*
%TD*%
M02*
