M48
; DRILL file {KiCad (5.1.10)-1} date 07/20/21 09:59:52
; FORMAT={-:-/ absolute / inch / decimal}
; #@! TF.CreationDate,2021-07-20T09:59:52-04:00
; #@! TF.GenerationSoftware,Kicad,Pcbnew,(5.1.10)-1
; #@! TF.FileFunction,Plated,1,6,PTH
FMAT,2
INCH
T1C0.0118
T2C0.0157
T3C0.0394
T4C0.0689
%
G90
G05
T1
X0.0Y0.0
X4.774Y-4.3803
X4.774Y-4.4157
X4.774Y-4.4512
X4.774Y-4.4866
X4.774Y-4.522
X4.774Y-4.5575
X4.7744Y-2.7504
X4.7744Y-2.7858
X4.7744Y-2.8213
X4.7744Y-2.8567
X4.7744Y-2.8921
X4.7744Y-2.9276
X4.8094Y-4.3803
X4.8094Y-4.4157
X4.8094Y-4.4512
X4.8094Y-4.4866
X4.8094Y-4.522
X4.8094Y-4.5575
X4.8098Y-2.7504
X4.8098Y-2.7858
X4.8098Y-2.8213
X4.8098Y-2.8567
X4.8098Y-2.8921
X4.8098Y-2.9276
X4.8449Y-4.3803
X4.8449Y-4.4157
X4.8449Y-4.4512
X4.8449Y-4.4866
X4.8449Y-4.522
X4.8449Y-4.5575
X4.8453Y-2.7504
X4.8453Y-2.7858
X4.8453Y-2.8213
X4.8453Y-2.8567
X4.8453Y-2.8921
X4.8453Y-2.9276
X5.0984Y-2.75
X5.0984Y-2.7854
X5.0984Y-2.8209
X5.0984Y-2.8563
X5.0984Y-2.8917
X5.0984Y-2.9272
X5.0984Y-4.3799
X5.0984Y-4.4154
X5.0984Y-4.4508
X5.0984Y-4.4862
X5.0984Y-4.5217
X5.0984Y-4.5571
X5.1339Y-2.75
X5.1339Y-2.7854
X5.1339Y-2.8209
X5.1339Y-2.8563
X5.1339Y-2.8917
X5.1339Y-2.9272
X5.1339Y-4.3799
X5.1339Y-4.4154
X5.1339Y-4.4508
X5.1339Y-4.4862
X5.1339Y-4.5217
X5.1339Y-4.5571
X5.1693Y-2.75
X5.1693Y-2.7854
X5.1693Y-2.8209
X5.1693Y-2.8563
X5.1693Y-2.8917
X5.1693Y-2.9272
X5.1693Y-4.3799
X5.1693Y-4.4154
X5.1693Y-4.4508
X5.1693Y-4.4862
X5.1693Y-4.5217
X5.1693Y-4.5571
T2
X4.7992Y-4.1575
X4.8071Y-3.0984
X5.1378Y-4.2087
T3
X4.8953Y-3.3524
X4.8958Y-3.8661
X4.9453Y-3.4394
X4.9453Y-3.9528
X4.9953Y-3.3524
X4.9958Y-3.8661
X5.0453Y-3.4394
X5.0453Y-3.9528
T4
X4.5567Y-2.8465
X4.5567Y-3.0465
X4.5571Y-4.2583
X4.5571Y-4.4583
X5.3835Y-2.8465
X5.3835Y-3.0465
X5.3835Y-4.2583
X5.3835Y-4.4583
T0
M30
