%TF.GenerationSoftware,KiCad,Pcbnew,(5.1.10)-1*%
%TF.CreationDate,2021-07-20T09:59:38-04:00*%
%TF.ProjectId,Smart Tank Current Shunt,536d6172-7420-4546-916e-6b2043757272,rev?*%
%TF.SameCoordinates,Original*%
%TF.FileFunction,Soldermask,Bot*%
%TF.FilePolarity,Negative*%
%FSLAX46Y46*%
G04 Gerber Fmt 4.6, Leading zero omitted, Abs format (unit mm)*
G04 Created by KiCad (PCBNEW (5.1.10)-1) date 2021-07-20 09:59:38*
%MOMM*%
%LPD*%
G01*
G04 APERTURE LIST*
%ADD10C,0.500000*%
%ADD11C,3.100000*%
%ADD12C,3.099999*%
%ADD13C,1.900000*%
G04 APERTURE END LIST*
D10*
%TO.C,REF\u002A\u002A*%
X123060000Y-115760000D03*
%TD*%
%TO.C,REF\u002A\u002A*%
X122160000Y-115760000D03*
%TD*%
%TO.C,REF\u002A\u002A*%
X121260000Y-115760000D03*
%TD*%
%TO.C,REF\u002A\u002A*%
X123060000Y-114860000D03*
%TD*%
%TO.C,REF\u002A\u002A*%
X122160000Y-114860000D03*
%TD*%
%TO.C,REF\u002A\u002A*%
X121260000Y-114860000D03*
%TD*%
%TO.C,REF\u002A\u002A*%
X123060000Y-113960000D03*
%TD*%
%TO.C,REF\u002A\u002A*%
X122160000Y-113960000D03*
%TD*%
%TO.C,REF\u002A\u002A*%
X121260000Y-113960000D03*
%TD*%
%TO.C,REF\u002A\u002A*%
X123060000Y-113060000D03*
%TD*%
%TO.C,REF\u002A\u002A*%
X122160000Y-113060000D03*
%TD*%
%TO.C,REF\u002A\u002A*%
X121260000Y-113060000D03*
%TD*%
%TO.C,REF\u002A\u002A*%
X123060000Y-112160000D03*
%TD*%
%TO.C,REF\u002A\u002A*%
X122160000Y-112160000D03*
%TD*%
%TO.C,REF\u002A\u002A*%
X121260000Y-112160000D03*
%TD*%
%TO.C,REF\u002A\u002A*%
X123060000Y-111260000D03*
%TD*%
%TO.C,REF\u002A\u002A*%
X122160000Y-111260000D03*
%TD*%
%TO.C,REF\u002A\u002A*%
X131300000Y-115750000D03*
%TD*%
%TO.C,REF\u002A\u002A*%
X130400000Y-115750000D03*
%TD*%
%TO.C,REF\u002A\u002A*%
X129500000Y-115750000D03*
%TD*%
%TO.C,REF\u002A\u002A*%
X131300000Y-114850000D03*
%TD*%
%TO.C,REF\u002A\u002A*%
X130400000Y-114850000D03*
%TD*%
%TO.C,REF\u002A\u002A*%
X129500000Y-114850000D03*
%TD*%
%TO.C,REF\u002A\u002A*%
X131300000Y-113950000D03*
%TD*%
%TO.C,REF\u002A\u002A*%
X130400000Y-113950000D03*
%TD*%
%TO.C,REF\u002A\u002A*%
X129500000Y-113950000D03*
%TD*%
%TO.C,REF\u002A\u002A*%
X131300000Y-113050000D03*
%TD*%
%TO.C,REF\u002A\u002A*%
X130400000Y-113050000D03*
%TD*%
%TO.C,REF\u002A\u002A*%
X129500000Y-113050000D03*
%TD*%
%TO.C,REF\u002A\u002A*%
X131300000Y-112150000D03*
%TD*%
%TO.C,REF\u002A\u002A*%
X130400000Y-112150000D03*
%TD*%
%TO.C,REF\u002A\u002A*%
X129500000Y-112150000D03*
%TD*%
%TO.C,REF\u002A\u002A*%
X131300000Y-111250000D03*
%TD*%
%TO.C,REF\u002A\u002A*%
X130400000Y-111250000D03*
%TD*%
%TO.C,REF\u002A\u002A*%
X131300000Y-74350000D03*
%TD*%
%TO.C,REF\u002A\u002A*%
X130400000Y-74350000D03*
%TD*%
%TO.C,REF\u002A\u002A*%
X129500000Y-74350000D03*
%TD*%
%TO.C,REF\u002A\u002A*%
X131300000Y-73450000D03*
%TD*%
%TO.C,REF\u002A\u002A*%
X130400000Y-73450000D03*
%TD*%
%TO.C,REF\u002A\u002A*%
X129500000Y-73450000D03*
%TD*%
%TO.C,REF\u002A\u002A*%
X131300000Y-72550000D03*
%TD*%
%TO.C,REF\u002A\u002A*%
X130400000Y-72550000D03*
%TD*%
%TO.C,REF\u002A\u002A*%
X129500000Y-72550000D03*
%TD*%
%TO.C,REF\u002A\u002A*%
X131300000Y-71650000D03*
%TD*%
%TO.C,REF\u002A\u002A*%
X130400000Y-71650000D03*
%TD*%
%TO.C,REF\u002A\u002A*%
X129500000Y-71650000D03*
%TD*%
%TO.C,REF\u002A\u002A*%
X131300000Y-70750000D03*
%TD*%
%TO.C,REF\u002A\u002A*%
X130400000Y-70750000D03*
%TD*%
%TO.C,REF\u002A\u002A*%
X129500000Y-70750000D03*
%TD*%
%TO.C,REF\u002A\u002A*%
X131300000Y-69850000D03*
%TD*%
%TO.C,REF\u002A\u002A*%
X130400000Y-69850000D03*
%TD*%
%TO.C,REF\u002A\u002A*%
X123070000Y-74360000D03*
%TD*%
%TO.C,REF\u002A\u002A*%
X122170000Y-74360000D03*
%TD*%
%TO.C,REF\u002A\u002A*%
X121270000Y-74360000D03*
%TD*%
%TO.C,REF\u002A\u002A*%
X123070000Y-73460000D03*
%TD*%
%TO.C,REF\u002A\u002A*%
X122170000Y-73460000D03*
%TD*%
%TO.C,REF\u002A\u002A*%
X121270000Y-73460000D03*
%TD*%
%TO.C,REF\u002A\u002A*%
X123070000Y-72560000D03*
%TD*%
%TO.C,REF\u002A\u002A*%
X122170000Y-72560000D03*
%TD*%
%TO.C,REF\u002A\u002A*%
X121270000Y-72560000D03*
%TD*%
%TO.C,REF\u002A\u002A*%
X123070000Y-71660000D03*
%TD*%
%TO.C,REF\u002A\u002A*%
X122170000Y-71660000D03*
%TD*%
%TO.C,REF\u002A\u002A*%
X121270000Y-71660000D03*
%TD*%
%TO.C,REF\u002A\u002A*%
X123070000Y-70760000D03*
%TD*%
%TO.C,REF\u002A\u002A*%
X122170000Y-70760000D03*
%TD*%
%TO.C,REF\u002A\u002A*%
X121270000Y-70760000D03*
%TD*%
%TO.C,REF\u002A\u002A*%
X123070000Y-69860000D03*
%TD*%
%TO.C,REF\u002A\u002A*%
X122170000Y-69860000D03*
%TD*%
%TO.C,REF\u002A\u002A*%
X121260000Y-111260000D03*
%TD*%
%TO.C,REF\u002A\u002A*%
X129500000Y-69850000D03*
%TD*%
%TO.C,REF\u002A\u002A*%
X121270000Y-69860000D03*
%TD*%
%TO.C,REF\u002A\u002A*%
X129500000Y-111250000D03*
%TD*%
%TO.C,REF\u002A\u002A*%
X0Y0D03*
%TD*%
D11*
%TO.C,J1*%
X115740000Y-72300770D03*
X115740000Y-77380770D03*
D12*
X136740000Y-72300770D03*
X136740000Y-77380770D03*
D13*
X124340000Y-85150000D03*
X126880000Y-85150000D03*
X125610000Y-87360000D03*
X128150000Y-87360000D03*
D12*
X115750000Y-108160770D03*
X115750000Y-113240770D03*
X136740000Y-108160770D03*
X136740000Y-113240770D03*
D13*
X128150000Y-100400000D03*
X126892132Y-98200000D03*
X125610000Y-100400000D03*
X124352132Y-98200000D03*
%TD*%
M02*
