%TF.GenerationSoftware,KiCad,Pcbnew,(5.1.10)-1*%
%TF.CreationDate,2021-07-20T09:59:38-04:00*%
%TF.ProjectId,Smart Tank Current Shunt,536d6172-7420-4546-916e-6b2043757272,rev?*%
%TF.SameCoordinates,Original*%
%TF.FileFunction,Paste,Top*%
%TF.FilePolarity,Positive*%
%FSLAX46Y46*%
G04 Gerber Fmt 4.6, Leading zero omitted, Abs format (unit mm)*
G04 Created by KiCad (PCBNEW (5.1.10)-1) date 2021-07-20 09:59:38*
%MOMM*%
%LPD*%
G01*
G04 APERTURE LIST*
%ADD10R,2.440000X0.890000*%
%ADD11R,2.440000X5.200000*%
G04 APERTURE END LIST*
%TO.C,C1*%
G36*
G01*
X121050000Y-83950000D02*
X121550000Y-83950000D01*
G75*
G02*
X121775000Y-84175000I0J-225000D01*
G01*
X121775000Y-84625000D01*
G75*
G02*
X121550000Y-84850000I-225000J0D01*
G01*
X121050000Y-84850000D01*
G75*
G02*
X120825000Y-84625000I0J225000D01*
G01*
X120825000Y-84175000D01*
G75*
G02*
X121050000Y-83950000I225000J0D01*
G01*
G37*
G36*
G01*
X121050000Y-85500000D02*
X121550000Y-85500000D01*
G75*
G02*
X121775000Y-85725000I0J-225000D01*
G01*
X121775000Y-86175000D01*
G75*
G02*
X121550000Y-86400000I-225000J0D01*
G01*
X121050000Y-86400000D01*
G75*
G02*
X120825000Y-86175000I0J225000D01*
G01*
X120825000Y-85725000D01*
G75*
G02*
X121050000Y-85500000I225000J0D01*
G01*
G37*
%TD*%
%TO.C,C2*%
G36*
G01*
X131650000Y-100150000D02*
X131150000Y-100150000D01*
G75*
G02*
X130925000Y-99925000I0J225000D01*
G01*
X130925000Y-99475000D01*
G75*
G02*
X131150000Y-99250000I225000J0D01*
G01*
X131650000Y-99250000D01*
G75*
G02*
X131875000Y-99475000I0J-225000D01*
G01*
X131875000Y-99925000D01*
G75*
G02*
X131650000Y-100150000I-225000J0D01*
G01*
G37*
G36*
G01*
X131650000Y-101700000D02*
X131150000Y-101700000D01*
G75*
G02*
X130925000Y-101475000I0J225000D01*
G01*
X130925000Y-101025000D01*
G75*
G02*
X131150000Y-100800000I225000J0D01*
G01*
X131650000Y-100800000D01*
G75*
G02*
X131875000Y-101025000I0J-225000D01*
G01*
X131875000Y-101475000D01*
G75*
G02*
X131650000Y-101700000I-225000J0D01*
G01*
G37*
%TD*%
%TO.C,CTRL_AMPS*%
G36*
G01*
X129650000Y-82355000D02*
X129650000Y-82655000D01*
G75*
G02*
X129500000Y-82805000I-150000J0D01*
G01*
X127850000Y-82805000D01*
G75*
G02*
X127700000Y-82655000I0J150000D01*
G01*
X127700000Y-82355000D01*
G75*
G02*
X127850000Y-82205000I150000J0D01*
G01*
X129500000Y-82205000D01*
G75*
G02*
X129650000Y-82355000I0J-150000D01*
G01*
G37*
G36*
G01*
X129650000Y-81085000D02*
X129650000Y-81385000D01*
G75*
G02*
X129500000Y-81535000I-150000J0D01*
G01*
X127850000Y-81535000D01*
G75*
G02*
X127700000Y-81385000I0J150000D01*
G01*
X127700000Y-81085000D01*
G75*
G02*
X127850000Y-80935000I150000J0D01*
G01*
X129500000Y-80935000D01*
G75*
G02*
X129650000Y-81085000I0J-150000D01*
G01*
G37*
G36*
G01*
X129650000Y-79815000D02*
X129650000Y-80115000D01*
G75*
G02*
X129500000Y-80265000I-150000J0D01*
G01*
X127850000Y-80265000D01*
G75*
G02*
X127700000Y-80115000I0J150000D01*
G01*
X127700000Y-79815000D01*
G75*
G02*
X127850000Y-79665000I150000J0D01*
G01*
X129500000Y-79665000D01*
G75*
G02*
X129650000Y-79815000I0J-150000D01*
G01*
G37*
G36*
G01*
X129650000Y-78545000D02*
X129650000Y-78845000D01*
G75*
G02*
X129500000Y-78995000I-150000J0D01*
G01*
X127850000Y-78995000D01*
G75*
G02*
X127700000Y-78845000I0J150000D01*
G01*
X127700000Y-78545000D01*
G75*
G02*
X127850000Y-78395000I150000J0D01*
G01*
X129500000Y-78395000D01*
G75*
G02*
X129650000Y-78545000I0J-150000D01*
G01*
G37*
G36*
G01*
X124700000Y-78545000D02*
X124700000Y-78845000D01*
G75*
G02*
X124550000Y-78995000I-150000J0D01*
G01*
X122900000Y-78995000D01*
G75*
G02*
X122750000Y-78845000I0J150000D01*
G01*
X122750000Y-78545000D01*
G75*
G02*
X122900000Y-78395000I150000J0D01*
G01*
X124550000Y-78395000D01*
G75*
G02*
X124700000Y-78545000I0J-150000D01*
G01*
G37*
G36*
G01*
X124700000Y-79815000D02*
X124700000Y-80115000D01*
G75*
G02*
X124550000Y-80265000I-150000J0D01*
G01*
X122900000Y-80265000D01*
G75*
G02*
X122750000Y-80115000I0J150000D01*
G01*
X122750000Y-79815000D01*
G75*
G02*
X122900000Y-79665000I150000J0D01*
G01*
X124550000Y-79665000D01*
G75*
G02*
X124700000Y-79815000I0J-150000D01*
G01*
G37*
G36*
G01*
X124700000Y-81085000D02*
X124700000Y-81385000D01*
G75*
G02*
X124550000Y-81535000I-150000J0D01*
G01*
X122900000Y-81535000D01*
G75*
G02*
X122750000Y-81385000I0J150000D01*
G01*
X122750000Y-81085000D01*
G75*
G02*
X122900000Y-80935000I150000J0D01*
G01*
X124550000Y-80935000D01*
G75*
G02*
X124700000Y-81085000I0J-150000D01*
G01*
G37*
G36*
G01*
X124700000Y-82355000D02*
X124700000Y-82655000D01*
G75*
G02*
X124550000Y-82805000I-150000J0D01*
G01*
X122900000Y-82805000D01*
G75*
G02*
X122750000Y-82655000I0J150000D01*
G01*
X122750000Y-82355000D01*
G75*
G02*
X122900000Y-82205000I150000J0D01*
G01*
X124550000Y-82205000D01*
G75*
G02*
X124700000Y-82355000I0J-150000D01*
G01*
G37*
%TD*%
%TO.C,PUMP_AMPS*%
G36*
G01*
X127700000Y-103245000D02*
X127700000Y-102945000D01*
G75*
G02*
X127850000Y-102795000I150000J0D01*
G01*
X129500000Y-102795000D01*
G75*
G02*
X129650000Y-102945000I0J-150000D01*
G01*
X129650000Y-103245000D01*
G75*
G02*
X129500000Y-103395000I-150000J0D01*
G01*
X127850000Y-103395000D01*
G75*
G02*
X127700000Y-103245000I0J150000D01*
G01*
G37*
G36*
G01*
X127700000Y-104515000D02*
X127700000Y-104215000D01*
G75*
G02*
X127850000Y-104065000I150000J0D01*
G01*
X129500000Y-104065000D01*
G75*
G02*
X129650000Y-104215000I0J-150000D01*
G01*
X129650000Y-104515000D01*
G75*
G02*
X129500000Y-104665000I-150000J0D01*
G01*
X127850000Y-104665000D01*
G75*
G02*
X127700000Y-104515000I0J150000D01*
G01*
G37*
G36*
G01*
X127700000Y-105785000D02*
X127700000Y-105485000D01*
G75*
G02*
X127850000Y-105335000I150000J0D01*
G01*
X129500000Y-105335000D01*
G75*
G02*
X129650000Y-105485000I0J-150000D01*
G01*
X129650000Y-105785000D01*
G75*
G02*
X129500000Y-105935000I-150000J0D01*
G01*
X127850000Y-105935000D01*
G75*
G02*
X127700000Y-105785000I0J150000D01*
G01*
G37*
G36*
G01*
X127700000Y-107055000D02*
X127700000Y-106755000D01*
G75*
G02*
X127850000Y-106605000I150000J0D01*
G01*
X129500000Y-106605000D01*
G75*
G02*
X129650000Y-106755000I0J-150000D01*
G01*
X129650000Y-107055000D01*
G75*
G02*
X129500000Y-107205000I-150000J0D01*
G01*
X127850000Y-107205000D01*
G75*
G02*
X127700000Y-107055000I0J150000D01*
G01*
G37*
G36*
G01*
X122750000Y-107055000D02*
X122750000Y-106755000D01*
G75*
G02*
X122900000Y-106605000I150000J0D01*
G01*
X124550000Y-106605000D01*
G75*
G02*
X124700000Y-106755000I0J-150000D01*
G01*
X124700000Y-107055000D01*
G75*
G02*
X124550000Y-107205000I-150000J0D01*
G01*
X122900000Y-107205000D01*
G75*
G02*
X122750000Y-107055000I0J150000D01*
G01*
G37*
G36*
G01*
X122750000Y-105785000D02*
X122750000Y-105485000D01*
G75*
G02*
X122900000Y-105335000I150000J0D01*
G01*
X124550000Y-105335000D01*
G75*
G02*
X124700000Y-105485000I0J-150000D01*
G01*
X124700000Y-105785000D01*
G75*
G02*
X124550000Y-105935000I-150000J0D01*
G01*
X122900000Y-105935000D01*
G75*
G02*
X122750000Y-105785000I0J150000D01*
G01*
G37*
G36*
G01*
X122750000Y-104515000D02*
X122750000Y-104215000D01*
G75*
G02*
X122900000Y-104065000I150000J0D01*
G01*
X124550000Y-104065000D01*
G75*
G02*
X124700000Y-104215000I0J-150000D01*
G01*
X124700000Y-104515000D01*
G75*
G02*
X124550000Y-104665000I-150000J0D01*
G01*
X122900000Y-104665000D01*
G75*
G02*
X122750000Y-104515000I0J150000D01*
G01*
G37*
G36*
G01*
X122750000Y-103245000D02*
X122750000Y-102945000D01*
G75*
G02*
X122900000Y-102795000I150000J0D01*
G01*
X124550000Y-102795000D01*
G75*
G02*
X124700000Y-102945000I0J-150000D01*
G01*
X124700000Y-103245000D01*
G75*
G02*
X124550000Y-103395000I-150000J0D01*
G01*
X122900000Y-103395000D01*
G75*
G02*
X122750000Y-103245000I0J150000D01*
G01*
G37*
%TD*%
D10*
%TO.C,R1*%
X122170000Y-75873500D03*
X130400000Y-75873500D03*
D11*
X122170000Y-72100000D03*
X130400000Y-72100000D03*
%TD*%
%TO.C,R2*%
X122170000Y-113500000D03*
X130400000Y-113500000D03*
D10*
X122170000Y-109726500D03*
X130400000Y-109726500D03*
%TD*%
M02*
