%TF.GenerationSoftware,KiCad,Pcbnew,(5.1.10)-1*%
%TF.CreationDate,2021-07-20T09:59:38-04:00*%
%TF.ProjectId,Smart Tank Current Shunt,536d6172-7420-4546-916e-6b2043757272,rev?*%
%TF.SameCoordinates,Original*%
%TF.FileFunction,Copper,L3,Inr*%
%TF.FilePolarity,Positive*%
%FSLAX46Y46*%
G04 Gerber Fmt 4.6, Leading zero omitted, Abs format (unit mm)*
G04 Created by KiCad (PCBNEW (5.1.10)-1) date 2021-07-20 09:59:38*
%MOMM*%
%LPD*%
G01*
G04 APERTURE LIST*
%TA.AperFunction,ComponentPad*%
%ADD10C,0.500000*%
%TD*%
%TA.AperFunction,ComponentPad*%
%ADD11C,3.100000*%
%TD*%
%TA.AperFunction,ComponentPad*%
%ADD12C,3.099999*%
%TD*%
%TA.AperFunction,ComponentPad*%
%ADD13C,1.900000*%
%TD*%
%TA.AperFunction,ViaPad*%
%ADD14C,0.800000*%
%TD*%
%TA.AperFunction,Conductor*%
%ADD15C,0.254000*%
%TD*%
%TA.AperFunction,Conductor*%
%ADD16C,0.100000*%
%TD*%
G04 APERTURE END LIST*
D10*
%TO.N,Net-(J1-Pad8)*%
%TO.C,REF\u002A\u002A*%
X123060000Y-115760000D03*
%TD*%
%TO.N,Net-(J1-Pad8)*%
%TO.C,REF\u002A\u002A*%
X122160000Y-115760000D03*
%TD*%
%TO.N,Net-(J1-Pad8)*%
%TO.C,REF\u002A\u002A*%
X121260000Y-115760000D03*
%TD*%
%TO.N,Net-(J1-Pad8)*%
%TO.C,REF\u002A\u002A*%
X123060000Y-114860000D03*
%TD*%
%TO.N,Net-(J1-Pad8)*%
%TO.C,REF\u002A\u002A*%
X122160000Y-114860000D03*
%TD*%
%TO.N,Net-(J1-Pad8)*%
%TO.C,REF\u002A\u002A*%
X121260000Y-114860000D03*
%TD*%
%TO.N,Net-(J1-Pad8)*%
%TO.C,REF\u002A\u002A*%
X123060000Y-113960000D03*
%TD*%
%TO.N,Net-(J1-Pad8)*%
%TO.C,REF\u002A\u002A*%
X122160000Y-113960000D03*
%TD*%
%TO.N,Net-(J1-Pad8)*%
%TO.C,REF\u002A\u002A*%
X121260000Y-113960000D03*
%TD*%
%TO.N,Net-(J1-Pad8)*%
%TO.C,REF\u002A\u002A*%
X123060000Y-113060000D03*
%TD*%
%TO.N,Net-(J1-Pad8)*%
%TO.C,REF\u002A\u002A*%
X122160000Y-113060000D03*
%TD*%
%TO.N,Net-(J1-Pad8)*%
%TO.C,REF\u002A\u002A*%
X121260000Y-113060000D03*
%TD*%
%TO.N,Net-(J1-Pad8)*%
%TO.C,REF\u002A\u002A*%
X123060000Y-112160000D03*
%TD*%
%TO.N,Net-(J1-Pad8)*%
%TO.C,REF\u002A\u002A*%
X122160000Y-112160000D03*
%TD*%
%TO.N,Net-(J1-Pad8)*%
%TO.C,REF\u002A\u002A*%
X121260000Y-112160000D03*
%TD*%
%TO.N,Net-(J1-Pad8)*%
%TO.C,REF\u002A\u002A*%
X123060000Y-111260000D03*
%TD*%
%TO.N,Net-(J1-Pad8)*%
%TO.C,REF\u002A\u002A*%
X122160000Y-111260000D03*
%TD*%
%TO.N,Net-(J1-Pad7)*%
%TO.C,REF\u002A\u002A*%
X131300000Y-115750000D03*
%TD*%
%TO.N,Net-(J1-Pad7)*%
%TO.C,REF\u002A\u002A*%
X130400000Y-115750000D03*
%TD*%
%TO.N,Net-(J1-Pad7)*%
%TO.C,REF\u002A\u002A*%
X129500000Y-115750000D03*
%TD*%
%TO.N,Net-(J1-Pad7)*%
%TO.C,REF\u002A\u002A*%
X131300000Y-114850000D03*
%TD*%
%TO.N,Net-(J1-Pad7)*%
%TO.C,REF\u002A\u002A*%
X130400000Y-114850000D03*
%TD*%
%TO.N,Net-(J1-Pad7)*%
%TO.C,REF\u002A\u002A*%
X129500000Y-114850000D03*
%TD*%
%TO.N,Net-(J1-Pad7)*%
%TO.C,REF\u002A\u002A*%
X131300000Y-113950000D03*
%TD*%
%TO.N,Net-(J1-Pad7)*%
%TO.C,REF\u002A\u002A*%
X130400000Y-113950000D03*
%TD*%
%TO.N,Net-(J1-Pad7)*%
%TO.C,REF\u002A\u002A*%
X129500000Y-113950000D03*
%TD*%
%TO.N,Net-(J1-Pad7)*%
%TO.C,REF\u002A\u002A*%
X131300000Y-113050000D03*
%TD*%
%TO.N,Net-(J1-Pad7)*%
%TO.C,REF\u002A\u002A*%
X130400000Y-113050000D03*
%TD*%
%TO.N,Net-(J1-Pad7)*%
%TO.C,REF\u002A\u002A*%
X129500000Y-113050000D03*
%TD*%
%TO.N,Net-(J1-Pad7)*%
%TO.C,REF\u002A\u002A*%
X131300000Y-112150000D03*
%TD*%
%TO.N,Net-(J1-Pad7)*%
%TO.C,REF\u002A\u002A*%
X130400000Y-112150000D03*
%TD*%
%TO.N,Net-(J1-Pad7)*%
%TO.C,REF\u002A\u002A*%
X129500000Y-112150000D03*
%TD*%
%TO.N,Net-(J1-Pad7)*%
%TO.C,REF\u002A\u002A*%
X131300000Y-111250000D03*
%TD*%
%TO.N,Net-(J1-Pad7)*%
%TO.C,REF\u002A\u002A*%
X130400000Y-111250000D03*
%TD*%
%TO.N,Net-(J1-Pad2)*%
%TO.C,REF\u002A\u002A*%
X131300000Y-74350000D03*
%TD*%
%TO.N,Net-(J1-Pad2)*%
%TO.C,REF\u002A\u002A*%
X130400000Y-74350000D03*
%TD*%
%TO.N,Net-(J1-Pad2)*%
%TO.C,REF\u002A\u002A*%
X129500000Y-74350000D03*
%TD*%
%TO.N,Net-(J1-Pad2)*%
%TO.C,REF\u002A\u002A*%
X131300000Y-73450000D03*
%TD*%
%TO.N,Net-(J1-Pad2)*%
%TO.C,REF\u002A\u002A*%
X130400000Y-73450000D03*
%TD*%
%TO.N,Net-(J1-Pad2)*%
%TO.C,REF\u002A\u002A*%
X129500000Y-73450000D03*
%TD*%
%TO.N,Net-(J1-Pad2)*%
%TO.C,REF\u002A\u002A*%
X131300000Y-72550000D03*
%TD*%
%TO.N,Net-(J1-Pad2)*%
%TO.C,REF\u002A\u002A*%
X130400000Y-72550000D03*
%TD*%
%TO.N,Net-(J1-Pad2)*%
%TO.C,REF\u002A\u002A*%
X129500000Y-72550000D03*
%TD*%
%TO.N,Net-(J1-Pad2)*%
%TO.C,REF\u002A\u002A*%
X131300000Y-71650000D03*
%TD*%
%TO.N,Net-(J1-Pad2)*%
%TO.C,REF\u002A\u002A*%
X130400000Y-71650000D03*
%TD*%
%TO.N,Net-(J1-Pad2)*%
%TO.C,REF\u002A\u002A*%
X129500000Y-71650000D03*
%TD*%
%TO.N,Net-(J1-Pad2)*%
%TO.C,REF\u002A\u002A*%
X131300000Y-70750000D03*
%TD*%
%TO.N,Net-(J1-Pad2)*%
%TO.C,REF\u002A\u002A*%
X130400000Y-70750000D03*
%TD*%
%TO.N,Net-(J1-Pad2)*%
%TO.C,REF\u002A\u002A*%
X129500000Y-70750000D03*
%TD*%
%TO.N,Net-(J1-Pad2)*%
%TO.C,REF\u002A\u002A*%
X131300000Y-69850000D03*
%TD*%
%TO.N,Net-(J1-Pad2)*%
%TO.C,REF\u002A\u002A*%
X130400000Y-69850000D03*
%TD*%
%TO.N,Net-(J1-Pad1)*%
%TO.C,REF\u002A\u002A*%
X123070000Y-74360000D03*
%TD*%
%TO.N,Net-(J1-Pad1)*%
%TO.C,REF\u002A\u002A*%
X122170000Y-74360000D03*
%TD*%
%TO.N,Net-(J1-Pad1)*%
%TO.C,REF\u002A\u002A*%
X121270000Y-74360000D03*
%TD*%
%TO.N,Net-(J1-Pad1)*%
%TO.C,REF\u002A\u002A*%
X123070000Y-73460000D03*
%TD*%
%TO.N,Net-(J1-Pad1)*%
%TO.C,REF\u002A\u002A*%
X122170000Y-73460000D03*
%TD*%
%TO.N,Net-(J1-Pad1)*%
%TO.C,REF\u002A\u002A*%
X121270000Y-73460000D03*
%TD*%
%TO.N,Net-(J1-Pad1)*%
%TO.C,REF\u002A\u002A*%
X123070000Y-72560000D03*
%TD*%
%TO.N,Net-(J1-Pad1)*%
%TO.C,REF\u002A\u002A*%
X122170000Y-72560000D03*
%TD*%
%TO.N,Net-(J1-Pad1)*%
%TO.C,REF\u002A\u002A*%
X121270000Y-72560000D03*
%TD*%
%TO.N,Net-(J1-Pad1)*%
%TO.C,REF\u002A\u002A*%
X123070000Y-71660000D03*
%TD*%
%TO.N,Net-(J1-Pad1)*%
%TO.C,REF\u002A\u002A*%
X122170000Y-71660000D03*
%TD*%
%TO.N,Net-(J1-Pad1)*%
%TO.C,REF\u002A\u002A*%
X121270000Y-71660000D03*
%TD*%
%TO.N,Net-(J1-Pad1)*%
%TO.C,REF\u002A\u002A*%
X123070000Y-70760000D03*
%TD*%
%TO.N,Net-(J1-Pad1)*%
%TO.C,REF\u002A\u002A*%
X122170000Y-70760000D03*
%TD*%
%TO.N,Net-(J1-Pad1)*%
%TO.C,REF\u002A\u002A*%
X121270000Y-70760000D03*
%TD*%
%TO.N,Net-(J1-Pad1)*%
%TO.C,REF\u002A\u002A*%
X123070000Y-69860000D03*
%TD*%
%TO.N,Net-(J1-Pad1)*%
%TO.C,REF\u002A\u002A*%
X122170000Y-69860000D03*
%TD*%
%TO.N,Net-(J1-Pad8)*%
%TO.C,REF\u002A\u002A*%
X121260000Y-111260000D03*
%TD*%
%TO.N,Net-(J1-Pad2)*%
%TO.C,REF\u002A\u002A*%
X129500000Y-69850000D03*
%TD*%
%TO.N,Net-(J1-Pad1)*%
%TO.C,REF\u002A\u002A*%
X121270000Y-69860000D03*
%TD*%
%TO.N,Net-(J1-Pad7)*%
%TO.C,REF\u002A\u002A*%
X129500000Y-111250000D03*
%TD*%
%TO.N,N/C*%
%TO.C,REF\u002A\u002A*%
X0Y0D03*
%TD*%
D11*
%TO.N,Net-(J1-Pad1)*%
%TO.C,J1*%
X115740000Y-72300770D03*
X115740000Y-77380770D03*
D12*
%TO.N,Net-(J1-Pad2)*%
X136740000Y-72300770D03*
X136740000Y-77380770D03*
D13*
%TO.N,Net-(J1-Pad3)*%
X124340000Y-85150000D03*
%TO.N,Earth*%
X126880000Y-85150000D03*
%TO.N,Net-(CTRL_AMPS1-Pad5)*%
X125610000Y-87360000D03*
%TO.N,Net-(C1-Pad1)*%
X128150000Y-87360000D03*
D12*
%TO.N,Net-(J1-Pad8)*%
X115750000Y-108160770D03*
X115750000Y-113240770D03*
%TO.N,Net-(J1-Pad7)*%
X136740000Y-108160770D03*
X136740000Y-113240770D03*
D13*
%TO.N,Net-(J1-Pad9)*%
X128150000Y-100400000D03*
%TO.N,Net-(J1-Pad10)*%
X126892132Y-98200000D03*
%TO.N,Earth*%
X125610000Y-100400000D03*
%TO.N,Net-(C2-Pad1)*%
X124352132Y-98200000D03*
%TD*%
D14*
%TO.N,Net-(C2-Pad1)*%
X121900000Y-105600000D03*
%TO.N,Net-(CTRL_AMPS1-Pad5)*%
X122100000Y-78700000D03*
%TO.N,Net-(J1-Pad10)*%
X130500000Y-106900000D03*
%TD*%
D15*
%TO.N,Earth*%
X127773000Y-75100000D02*
X127775440Y-75124776D01*
X127782667Y-75148601D01*
X127794403Y-75170557D01*
X127810197Y-75189803D01*
X127829443Y-75205597D01*
X127851399Y-75217333D01*
X127875224Y-75224560D01*
X127900000Y-75227000D01*
X132173000Y-75227000D01*
X132173000Y-81200000D01*
X132175440Y-81224776D01*
X132182667Y-81248601D01*
X132194403Y-81270557D01*
X132210197Y-81289803D01*
X132229443Y-81305597D01*
X132251399Y-81317333D01*
X132275224Y-81324560D01*
X132300000Y-81327000D01*
X139648000Y-81327000D01*
X139648001Y-104273000D01*
X132300000Y-104273000D01*
X132275224Y-104275440D01*
X132251399Y-104282667D01*
X132229443Y-104294403D01*
X132210197Y-104310197D01*
X132194403Y-104329443D01*
X132182667Y-104351399D01*
X132175440Y-104375224D01*
X132173000Y-104400000D01*
X132173000Y-110373000D01*
X127900000Y-110373000D01*
X127875224Y-110375440D01*
X127851399Y-110382667D01*
X127829443Y-110394403D01*
X127810197Y-110410197D01*
X127794403Y-110429443D01*
X127782667Y-110451399D01*
X127775440Y-110475224D01*
X127773000Y-110500000D01*
X127773000Y-117248000D01*
X124827000Y-117248000D01*
X124827000Y-110500000D01*
X124824560Y-110475224D01*
X124817333Y-110451399D01*
X124805597Y-110429443D01*
X124789803Y-110410197D01*
X124770557Y-110394403D01*
X124748601Y-110382667D01*
X124724776Y-110375440D01*
X124700000Y-110373000D01*
X120427000Y-110373000D01*
X120427000Y-106828397D01*
X129773000Y-106828397D01*
X129773000Y-106971603D01*
X129800938Y-107112058D01*
X129855741Y-107244364D01*
X129935302Y-107363436D01*
X130036564Y-107464698D01*
X130155636Y-107544259D01*
X130287942Y-107599062D01*
X130428397Y-107627000D01*
X130571603Y-107627000D01*
X130712058Y-107599062D01*
X130844364Y-107544259D01*
X130963436Y-107464698D01*
X131064698Y-107363436D01*
X131144259Y-107244364D01*
X131199062Y-107112058D01*
X131227000Y-106971603D01*
X131227000Y-106828397D01*
X131199062Y-106687942D01*
X131144259Y-106555636D01*
X131064698Y-106436564D01*
X130963436Y-106335302D01*
X130844364Y-106255741D01*
X130712058Y-106200938D01*
X130571603Y-106173000D01*
X130428397Y-106173000D01*
X130287942Y-106200938D01*
X130155636Y-106255741D01*
X130036564Y-106335302D01*
X129935302Y-106436564D01*
X129855741Y-106555636D01*
X129800938Y-106687942D01*
X129773000Y-106828397D01*
X120427000Y-106828397D01*
X120427000Y-105528397D01*
X121173000Y-105528397D01*
X121173000Y-105671603D01*
X121200938Y-105812058D01*
X121255741Y-105944364D01*
X121335302Y-106063436D01*
X121436564Y-106164698D01*
X121555636Y-106244259D01*
X121687942Y-106299062D01*
X121828397Y-106327000D01*
X121971603Y-106327000D01*
X122112058Y-106299062D01*
X122244364Y-106244259D01*
X122363436Y-106164698D01*
X122464698Y-106063436D01*
X122544259Y-105944364D01*
X122599062Y-105812058D01*
X122627000Y-105671603D01*
X122627000Y-105528397D01*
X122599062Y-105387942D01*
X122544259Y-105255636D01*
X122464698Y-105136564D01*
X122363436Y-105035302D01*
X122244364Y-104955741D01*
X122112058Y-104900938D01*
X121971603Y-104873000D01*
X121828397Y-104873000D01*
X121687942Y-104900938D01*
X121555636Y-104955741D01*
X121436564Y-105035302D01*
X121335302Y-105136564D01*
X121255741Y-105255636D01*
X121200938Y-105387942D01*
X121173000Y-105528397D01*
X120427000Y-105528397D01*
X120427000Y-104400000D01*
X120424560Y-104375224D01*
X120417333Y-104351399D01*
X120405597Y-104329443D01*
X120389803Y-104310197D01*
X120370557Y-104294403D01*
X120348601Y-104282667D01*
X120324776Y-104275440D01*
X120300000Y-104273000D01*
X112952000Y-104273000D01*
X112952000Y-101499752D01*
X124689853Y-101499752D01*
X124779579Y-101759042D01*
X125060671Y-101894935D01*
X125362873Y-101973379D01*
X125674573Y-101991359D01*
X125983791Y-101948184D01*
X126278644Y-101845513D01*
X126440421Y-101759042D01*
X126530147Y-101499752D01*
X125610000Y-100579605D01*
X124689853Y-101499752D01*
X112952000Y-101499752D01*
X112952000Y-98074226D01*
X123075132Y-98074226D01*
X123075132Y-98325774D01*
X123124206Y-98572487D01*
X123220469Y-98804886D01*
X123360221Y-99014040D01*
X123538092Y-99191911D01*
X123747246Y-99331663D01*
X123979645Y-99427926D01*
X124226358Y-99477000D01*
X124477906Y-99477000D01*
X124502500Y-99472108D01*
X124510246Y-99479854D01*
X124250958Y-99569579D01*
X124115065Y-99850671D01*
X124036621Y-100152873D01*
X124018641Y-100464573D01*
X124061816Y-100773791D01*
X124164487Y-101068644D01*
X124250958Y-101230421D01*
X124510248Y-101320147D01*
X125430395Y-100400000D01*
X125416253Y-100385858D01*
X125595858Y-100206253D01*
X125610000Y-100220395D01*
X125624143Y-100206253D01*
X125803748Y-100385858D01*
X125789605Y-100400000D01*
X126709752Y-101320147D01*
X126969042Y-101230421D01*
X127052998Y-101056760D01*
X127158089Y-101214040D01*
X127335960Y-101391911D01*
X127545114Y-101531663D01*
X127777513Y-101627926D01*
X128024226Y-101677000D01*
X128275774Y-101677000D01*
X128522487Y-101627926D01*
X128754886Y-101531663D01*
X128964040Y-101391911D01*
X129141911Y-101214040D01*
X129281663Y-101004886D01*
X129377926Y-100772487D01*
X129427000Y-100525774D01*
X129427000Y-100274226D01*
X129377926Y-100027513D01*
X129281663Y-99795114D01*
X129141911Y-99585960D01*
X128964040Y-99408089D01*
X128754886Y-99268337D01*
X128522487Y-99172074D01*
X128275774Y-99123000D01*
X128024226Y-99123000D01*
X127777513Y-99172074D01*
X127667924Y-99217467D01*
X127706172Y-99191911D01*
X127884043Y-99014040D01*
X128023795Y-98804886D01*
X128120058Y-98572487D01*
X128169132Y-98325774D01*
X128169132Y-98074226D01*
X128120058Y-97827513D01*
X128023795Y-97595114D01*
X127884043Y-97385960D01*
X127706172Y-97208089D01*
X127497018Y-97068337D01*
X127264619Y-96972074D01*
X127017906Y-96923000D01*
X126766358Y-96923000D01*
X126519645Y-96972074D01*
X126287246Y-97068337D01*
X126078092Y-97208089D01*
X125900221Y-97385960D01*
X125760469Y-97595114D01*
X125664206Y-97827513D01*
X125622132Y-98039034D01*
X125580058Y-97827513D01*
X125483795Y-97595114D01*
X125344043Y-97385960D01*
X125166172Y-97208089D01*
X124957018Y-97068337D01*
X124724619Y-96972074D01*
X124477906Y-96923000D01*
X124226358Y-96923000D01*
X123979645Y-96972074D01*
X123747246Y-97068337D01*
X123538092Y-97208089D01*
X123360221Y-97385960D01*
X123220469Y-97595114D01*
X123124206Y-97827513D01*
X123075132Y-98074226D01*
X112952000Y-98074226D01*
X112952000Y-85024226D01*
X123063000Y-85024226D01*
X123063000Y-85275774D01*
X123112074Y-85522487D01*
X123208337Y-85754886D01*
X123348089Y-85964040D01*
X123525960Y-86141911D01*
X123735114Y-86281663D01*
X123967513Y-86377926D01*
X124214226Y-86427000D01*
X124465774Y-86427000D01*
X124712487Y-86377926D01*
X124893371Y-86303001D01*
X124795960Y-86368089D01*
X124618089Y-86545960D01*
X124478337Y-86755114D01*
X124382074Y-86987513D01*
X124333000Y-87234226D01*
X124333000Y-87485774D01*
X124382074Y-87732487D01*
X124478337Y-87964886D01*
X124618089Y-88174040D01*
X124795960Y-88351911D01*
X125005114Y-88491663D01*
X125237513Y-88587926D01*
X125484226Y-88637000D01*
X125735774Y-88637000D01*
X125982487Y-88587926D01*
X126214886Y-88491663D01*
X126424040Y-88351911D01*
X126601911Y-88174040D01*
X126741663Y-87964886D01*
X126837926Y-87732487D01*
X126880000Y-87520966D01*
X126922074Y-87732487D01*
X127018337Y-87964886D01*
X127158089Y-88174040D01*
X127335960Y-88351911D01*
X127545114Y-88491663D01*
X127777513Y-88587926D01*
X128024226Y-88637000D01*
X128275774Y-88637000D01*
X128522487Y-88587926D01*
X128754886Y-88491663D01*
X128964040Y-88351911D01*
X129141911Y-88174040D01*
X129281663Y-87964886D01*
X129377926Y-87732487D01*
X129427000Y-87485774D01*
X129427000Y-87234226D01*
X129377926Y-86987513D01*
X129281663Y-86755114D01*
X129141911Y-86545960D01*
X128964040Y-86368089D01*
X128754886Y-86228337D01*
X128522487Y-86132074D01*
X128275774Y-86083000D01*
X128024226Y-86083000D01*
X127997854Y-86088246D01*
X127979754Y-86070146D01*
X128239042Y-85980421D01*
X128374935Y-85699329D01*
X128453379Y-85397127D01*
X128471359Y-85085427D01*
X128428184Y-84776209D01*
X128325513Y-84481356D01*
X128239042Y-84319579D01*
X127979752Y-84229853D01*
X127059605Y-85150000D01*
X127073748Y-85164143D01*
X126894143Y-85343748D01*
X126880000Y-85329605D01*
X126865858Y-85343748D01*
X126686253Y-85164143D01*
X126700395Y-85150000D01*
X125780248Y-84229853D01*
X125520958Y-84319579D01*
X125437002Y-84493240D01*
X125331911Y-84335960D01*
X125154040Y-84158089D01*
X124992645Y-84050248D01*
X125959853Y-84050248D01*
X126880000Y-84970395D01*
X127800147Y-84050248D01*
X127710421Y-83790958D01*
X127429329Y-83655065D01*
X127127127Y-83576621D01*
X126815427Y-83558641D01*
X126506209Y-83601816D01*
X126211356Y-83704487D01*
X126049579Y-83790958D01*
X125959853Y-84050248D01*
X124992645Y-84050248D01*
X124944886Y-84018337D01*
X124712487Y-83922074D01*
X124465774Y-83873000D01*
X124214226Y-83873000D01*
X123967513Y-83922074D01*
X123735114Y-84018337D01*
X123525960Y-84158089D01*
X123348089Y-84335960D01*
X123208337Y-84545114D01*
X123112074Y-84777513D01*
X123063000Y-85024226D01*
X112952000Y-85024226D01*
X112952000Y-81327000D01*
X120300000Y-81327000D01*
X120324776Y-81324560D01*
X120348601Y-81317333D01*
X120370557Y-81305597D01*
X120389803Y-81289803D01*
X120405597Y-81270557D01*
X120417333Y-81248601D01*
X120424560Y-81224776D01*
X120427000Y-81200000D01*
X120427000Y-78628397D01*
X121373000Y-78628397D01*
X121373000Y-78771603D01*
X121400938Y-78912058D01*
X121455741Y-79044364D01*
X121535302Y-79163436D01*
X121636564Y-79264698D01*
X121755636Y-79344259D01*
X121887942Y-79399062D01*
X122028397Y-79427000D01*
X122171603Y-79427000D01*
X122312058Y-79399062D01*
X122444364Y-79344259D01*
X122563436Y-79264698D01*
X122664698Y-79163436D01*
X122744259Y-79044364D01*
X122799062Y-78912058D01*
X122827000Y-78771603D01*
X122827000Y-78628397D01*
X122799062Y-78487942D01*
X122744259Y-78355636D01*
X122664698Y-78236564D01*
X122563436Y-78135302D01*
X122444364Y-78055741D01*
X122312058Y-78000938D01*
X122171603Y-77973000D01*
X122028397Y-77973000D01*
X121887942Y-78000938D01*
X121755636Y-78055741D01*
X121636564Y-78135302D01*
X121535302Y-78236564D01*
X121455741Y-78355636D01*
X121400938Y-78487942D01*
X121373000Y-78628397D01*
X120427000Y-78628397D01*
X120427000Y-75227000D01*
X124700000Y-75227000D01*
X124724776Y-75224560D01*
X124748601Y-75217333D01*
X124770557Y-75205597D01*
X124789803Y-75189803D01*
X124805597Y-75170557D01*
X124817333Y-75148601D01*
X124824560Y-75124776D01*
X124827000Y-75100000D01*
X124827000Y-68352000D01*
X127773000Y-68352000D01*
X127773000Y-75100000D01*
%TA.AperFunction,Conductor*%
D16*
G36*
X127773000Y-75100000D02*
G01*
X127775440Y-75124776D01*
X127782667Y-75148601D01*
X127794403Y-75170557D01*
X127810197Y-75189803D01*
X127829443Y-75205597D01*
X127851399Y-75217333D01*
X127875224Y-75224560D01*
X127900000Y-75227000D01*
X132173000Y-75227000D01*
X132173000Y-81200000D01*
X132175440Y-81224776D01*
X132182667Y-81248601D01*
X132194403Y-81270557D01*
X132210197Y-81289803D01*
X132229443Y-81305597D01*
X132251399Y-81317333D01*
X132275224Y-81324560D01*
X132300000Y-81327000D01*
X139648000Y-81327000D01*
X139648001Y-104273000D01*
X132300000Y-104273000D01*
X132275224Y-104275440D01*
X132251399Y-104282667D01*
X132229443Y-104294403D01*
X132210197Y-104310197D01*
X132194403Y-104329443D01*
X132182667Y-104351399D01*
X132175440Y-104375224D01*
X132173000Y-104400000D01*
X132173000Y-110373000D01*
X127900000Y-110373000D01*
X127875224Y-110375440D01*
X127851399Y-110382667D01*
X127829443Y-110394403D01*
X127810197Y-110410197D01*
X127794403Y-110429443D01*
X127782667Y-110451399D01*
X127775440Y-110475224D01*
X127773000Y-110500000D01*
X127773000Y-117248000D01*
X124827000Y-117248000D01*
X124827000Y-110500000D01*
X124824560Y-110475224D01*
X124817333Y-110451399D01*
X124805597Y-110429443D01*
X124789803Y-110410197D01*
X124770557Y-110394403D01*
X124748601Y-110382667D01*
X124724776Y-110375440D01*
X124700000Y-110373000D01*
X120427000Y-110373000D01*
X120427000Y-106828397D01*
X129773000Y-106828397D01*
X129773000Y-106971603D01*
X129800938Y-107112058D01*
X129855741Y-107244364D01*
X129935302Y-107363436D01*
X130036564Y-107464698D01*
X130155636Y-107544259D01*
X130287942Y-107599062D01*
X130428397Y-107627000D01*
X130571603Y-107627000D01*
X130712058Y-107599062D01*
X130844364Y-107544259D01*
X130963436Y-107464698D01*
X131064698Y-107363436D01*
X131144259Y-107244364D01*
X131199062Y-107112058D01*
X131227000Y-106971603D01*
X131227000Y-106828397D01*
X131199062Y-106687942D01*
X131144259Y-106555636D01*
X131064698Y-106436564D01*
X130963436Y-106335302D01*
X130844364Y-106255741D01*
X130712058Y-106200938D01*
X130571603Y-106173000D01*
X130428397Y-106173000D01*
X130287942Y-106200938D01*
X130155636Y-106255741D01*
X130036564Y-106335302D01*
X129935302Y-106436564D01*
X129855741Y-106555636D01*
X129800938Y-106687942D01*
X129773000Y-106828397D01*
X120427000Y-106828397D01*
X120427000Y-105528397D01*
X121173000Y-105528397D01*
X121173000Y-105671603D01*
X121200938Y-105812058D01*
X121255741Y-105944364D01*
X121335302Y-106063436D01*
X121436564Y-106164698D01*
X121555636Y-106244259D01*
X121687942Y-106299062D01*
X121828397Y-106327000D01*
X121971603Y-106327000D01*
X122112058Y-106299062D01*
X122244364Y-106244259D01*
X122363436Y-106164698D01*
X122464698Y-106063436D01*
X122544259Y-105944364D01*
X122599062Y-105812058D01*
X122627000Y-105671603D01*
X122627000Y-105528397D01*
X122599062Y-105387942D01*
X122544259Y-105255636D01*
X122464698Y-105136564D01*
X122363436Y-105035302D01*
X122244364Y-104955741D01*
X122112058Y-104900938D01*
X121971603Y-104873000D01*
X121828397Y-104873000D01*
X121687942Y-104900938D01*
X121555636Y-104955741D01*
X121436564Y-105035302D01*
X121335302Y-105136564D01*
X121255741Y-105255636D01*
X121200938Y-105387942D01*
X121173000Y-105528397D01*
X120427000Y-105528397D01*
X120427000Y-104400000D01*
X120424560Y-104375224D01*
X120417333Y-104351399D01*
X120405597Y-104329443D01*
X120389803Y-104310197D01*
X120370557Y-104294403D01*
X120348601Y-104282667D01*
X120324776Y-104275440D01*
X120300000Y-104273000D01*
X112952000Y-104273000D01*
X112952000Y-101499752D01*
X124689853Y-101499752D01*
X124779579Y-101759042D01*
X125060671Y-101894935D01*
X125362873Y-101973379D01*
X125674573Y-101991359D01*
X125983791Y-101948184D01*
X126278644Y-101845513D01*
X126440421Y-101759042D01*
X126530147Y-101499752D01*
X125610000Y-100579605D01*
X124689853Y-101499752D01*
X112952000Y-101499752D01*
X112952000Y-98074226D01*
X123075132Y-98074226D01*
X123075132Y-98325774D01*
X123124206Y-98572487D01*
X123220469Y-98804886D01*
X123360221Y-99014040D01*
X123538092Y-99191911D01*
X123747246Y-99331663D01*
X123979645Y-99427926D01*
X124226358Y-99477000D01*
X124477906Y-99477000D01*
X124502500Y-99472108D01*
X124510246Y-99479854D01*
X124250958Y-99569579D01*
X124115065Y-99850671D01*
X124036621Y-100152873D01*
X124018641Y-100464573D01*
X124061816Y-100773791D01*
X124164487Y-101068644D01*
X124250958Y-101230421D01*
X124510248Y-101320147D01*
X125430395Y-100400000D01*
X125416253Y-100385858D01*
X125595858Y-100206253D01*
X125610000Y-100220395D01*
X125624143Y-100206253D01*
X125803748Y-100385858D01*
X125789605Y-100400000D01*
X126709752Y-101320147D01*
X126969042Y-101230421D01*
X127052998Y-101056760D01*
X127158089Y-101214040D01*
X127335960Y-101391911D01*
X127545114Y-101531663D01*
X127777513Y-101627926D01*
X128024226Y-101677000D01*
X128275774Y-101677000D01*
X128522487Y-101627926D01*
X128754886Y-101531663D01*
X128964040Y-101391911D01*
X129141911Y-101214040D01*
X129281663Y-101004886D01*
X129377926Y-100772487D01*
X129427000Y-100525774D01*
X129427000Y-100274226D01*
X129377926Y-100027513D01*
X129281663Y-99795114D01*
X129141911Y-99585960D01*
X128964040Y-99408089D01*
X128754886Y-99268337D01*
X128522487Y-99172074D01*
X128275774Y-99123000D01*
X128024226Y-99123000D01*
X127777513Y-99172074D01*
X127667924Y-99217467D01*
X127706172Y-99191911D01*
X127884043Y-99014040D01*
X128023795Y-98804886D01*
X128120058Y-98572487D01*
X128169132Y-98325774D01*
X128169132Y-98074226D01*
X128120058Y-97827513D01*
X128023795Y-97595114D01*
X127884043Y-97385960D01*
X127706172Y-97208089D01*
X127497018Y-97068337D01*
X127264619Y-96972074D01*
X127017906Y-96923000D01*
X126766358Y-96923000D01*
X126519645Y-96972074D01*
X126287246Y-97068337D01*
X126078092Y-97208089D01*
X125900221Y-97385960D01*
X125760469Y-97595114D01*
X125664206Y-97827513D01*
X125622132Y-98039034D01*
X125580058Y-97827513D01*
X125483795Y-97595114D01*
X125344043Y-97385960D01*
X125166172Y-97208089D01*
X124957018Y-97068337D01*
X124724619Y-96972074D01*
X124477906Y-96923000D01*
X124226358Y-96923000D01*
X123979645Y-96972074D01*
X123747246Y-97068337D01*
X123538092Y-97208089D01*
X123360221Y-97385960D01*
X123220469Y-97595114D01*
X123124206Y-97827513D01*
X123075132Y-98074226D01*
X112952000Y-98074226D01*
X112952000Y-85024226D01*
X123063000Y-85024226D01*
X123063000Y-85275774D01*
X123112074Y-85522487D01*
X123208337Y-85754886D01*
X123348089Y-85964040D01*
X123525960Y-86141911D01*
X123735114Y-86281663D01*
X123967513Y-86377926D01*
X124214226Y-86427000D01*
X124465774Y-86427000D01*
X124712487Y-86377926D01*
X124893371Y-86303001D01*
X124795960Y-86368089D01*
X124618089Y-86545960D01*
X124478337Y-86755114D01*
X124382074Y-86987513D01*
X124333000Y-87234226D01*
X124333000Y-87485774D01*
X124382074Y-87732487D01*
X124478337Y-87964886D01*
X124618089Y-88174040D01*
X124795960Y-88351911D01*
X125005114Y-88491663D01*
X125237513Y-88587926D01*
X125484226Y-88637000D01*
X125735774Y-88637000D01*
X125982487Y-88587926D01*
X126214886Y-88491663D01*
X126424040Y-88351911D01*
X126601911Y-88174040D01*
X126741663Y-87964886D01*
X126837926Y-87732487D01*
X126880000Y-87520966D01*
X126922074Y-87732487D01*
X127018337Y-87964886D01*
X127158089Y-88174040D01*
X127335960Y-88351911D01*
X127545114Y-88491663D01*
X127777513Y-88587926D01*
X128024226Y-88637000D01*
X128275774Y-88637000D01*
X128522487Y-88587926D01*
X128754886Y-88491663D01*
X128964040Y-88351911D01*
X129141911Y-88174040D01*
X129281663Y-87964886D01*
X129377926Y-87732487D01*
X129427000Y-87485774D01*
X129427000Y-87234226D01*
X129377926Y-86987513D01*
X129281663Y-86755114D01*
X129141911Y-86545960D01*
X128964040Y-86368089D01*
X128754886Y-86228337D01*
X128522487Y-86132074D01*
X128275774Y-86083000D01*
X128024226Y-86083000D01*
X127997854Y-86088246D01*
X127979754Y-86070146D01*
X128239042Y-85980421D01*
X128374935Y-85699329D01*
X128453379Y-85397127D01*
X128471359Y-85085427D01*
X128428184Y-84776209D01*
X128325513Y-84481356D01*
X128239042Y-84319579D01*
X127979752Y-84229853D01*
X127059605Y-85150000D01*
X127073748Y-85164143D01*
X126894143Y-85343748D01*
X126880000Y-85329605D01*
X126865858Y-85343748D01*
X126686253Y-85164143D01*
X126700395Y-85150000D01*
X125780248Y-84229853D01*
X125520958Y-84319579D01*
X125437002Y-84493240D01*
X125331911Y-84335960D01*
X125154040Y-84158089D01*
X124992645Y-84050248D01*
X125959853Y-84050248D01*
X126880000Y-84970395D01*
X127800147Y-84050248D01*
X127710421Y-83790958D01*
X127429329Y-83655065D01*
X127127127Y-83576621D01*
X126815427Y-83558641D01*
X126506209Y-83601816D01*
X126211356Y-83704487D01*
X126049579Y-83790958D01*
X125959853Y-84050248D01*
X124992645Y-84050248D01*
X124944886Y-84018337D01*
X124712487Y-83922074D01*
X124465774Y-83873000D01*
X124214226Y-83873000D01*
X123967513Y-83922074D01*
X123735114Y-84018337D01*
X123525960Y-84158089D01*
X123348089Y-84335960D01*
X123208337Y-84545114D01*
X123112074Y-84777513D01*
X123063000Y-85024226D01*
X112952000Y-85024226D01*
X112952000Y-81327000D01*
X120300000Y-81327000D01*
X120324776Y-81324560D01*
X120348601Y-81317333D01*
X120370557Y-81305597D01*
X120389803Y-81289803D01*
X120405597Y-81270557D01*
X120417333Y-81248601D01*
X120424560Y-81224776D01*
X120427000Y-81200000D01*
X120427000Y-78628397D01*
X121373000Y-78628397D01*
X121373000Y-78771603D01*
X121400938Y-78912058D01*
X121455741Y-79044364D01*
X121535302Y-79163436D01*
X121636564Y-79264698D01*
X121755636Y-79344259D01*
X121887942Y-79399062D01*
X122028397Y-79427000D01*
X122171603Y-79427000D01*
X122312058Y-79399062D01*
X122444364Y-79344259D01*
X122563436Y-79264698D01*
X122664698Y-79163436D01*
X122744259Y-79044364D01*
X122799062Y-78912058D01*
X122827000Y-78771603D01*
X122827000Y-78628397D01*
X122799062Y-78487942D01*
X122744259Y-78355636D01*
X122664698Y-78236564D01*
X122563436Y-78135302D01*
X122444364Y-78055741D01*
X122312058Y-78000938D01*
X122171603Y-77973000D01*
X122028397Y-77973000D01*
X121887942Y-78000938D01*
X121755636Y-78055741D01*
X121636564Y-78135302D01*
X121535302Y-78236564D01*
X121455741Y-78355636D01*
X121400938Y-78487942D01*
X121373000Y-78628397D01*
X120427000Y-78628397D01*
X120427000Y-75227000D01*
X124700000Y-75227000D01*
X124724776Y-75224560D01*
X124748601Y-75217333D01*
X124770557Y-75205597D01*
X124789803Y-75189803D01*
X124805597Y-75170557D01*
X124817333Y-75148601D01*
X124824560Y-75124776D01*
X124827000Y-75100000D01*
X124827000Y-68352000D01*
X127773000Y-68352000D01*
X127773000Y-75100000D01*
G37*
%TD.AperFunction*%
%TD*%
D15*
%TO.N,Net-(J1-Pad1)*%
X124373000Y-74773000D02*
X120100000Y-74773000D01*
X120075224Y-74775440D01*
X120051399Y-74782667D01*
X120029443Y-74794403D01*
X120010197Y-74810197D01*
X119994403Y-74829443D01*
X119982667Y-74851399D01*
X119975440Y-74875224D01*
X119973000Y-74900000D01*
X119973000Y-80873000D01*
X112952000Y-80873000D01*
X112952000Y-68352000D01*
X124373000Y-68352000D01*
X124373000Y-74773000D01*
%TA.AperFunction,Conductor*%
D16*
G36*
X124373000Y-74773000D02*
G01*
X120100000Y-74773000D01*
X120075224Y-74775440D01*
X120051399Y-74782667D01*
X120029443Y-74794403D01*
X120010197Y-74810197D01*
X119994403Y-74829443D01*
X119982667Y-74851399D01*
X119975440Y-74875224D01*
X119973000Y-74900000D01*
X119973000Y-80873000D01*
X112952000Y-80873000D01*
X112952000Y-68352000D01*
X124373000Y-68352000D01*
X124373000Y-74773000D01*
G37*
%TD.AperFunction*%
%TD*%
D15*
%TO.N,Net-(J1-Pad2)*%
X139648000Y-80873000D02*
X132627000Y-80873000D01*
X132627000Y-74900000D01*
X132624560Y-74875224D01*
X132617333Y-74851399D01*
X132605597Y-74829443D01*
X132589803Y-74810197D01*
X132570557Y-74794403D01*
X132548601Y-74782667D01*
X132524776Y-74775440D01*
X132500000Y-74773000D01*
X128227000Y-74773000D01*
X128227000Y-68352000D01*
X139648000Y-68352000D01*
X139648000Y-80873000D01*
%TA.AperFunction,Conductor*%
D16*
G36*
X139648000Y-80873000D02*
G01*
X132627000Y-80873000D01*
X132627000Y-74900000D01*
X132624560Y-74875224D01*
X132617333Y-74851399D01*
X132605597Y-74829443D01*
X132589803Y-74810197D01*
X132570557Y-74794403D01*
X132548601Y-74782667D01*
X132524776Y-74775440D01*
X132500000Y-74773000D01*
X128227000Y-74773000D01*
X128227000Y-68352000D01*
X139648000Y-68352000D01*
X139648000Y-80873000D01*
G37*
%TD.AperFunction*%
%TD*%
D15*
%TO.N,Net-(J1-Pad8)*%
X119973000Y-110700000D02*
X119975440Y-110724776D01*
X119982667Y-110748601D01*
X119994403Y-110770557D01*
X120010197Y-110789803D01*
X120029443Y-110805597D01*
X120051399Y-110817333D01*
X120075224Y-110824560D01*
X120100000Y-110827000D01*
X124373000Y-110827000D01*
X124373000Y-117248000D01*
X112952000Y-117248000D01*
X112952000Y-104727000D01*
X119973000Y-104727000D01*
X119973000Y-110700000D01*
%TA.AperFunction,Conductor*%
D16*
G36*
X119973000Y-110700000D02*
G01*
X119975440Y-110724776D01*
X119982667Y-110748601D01*
X119994403Y-110770557D01*
X120010197Y-110789803D01*
X120029443Y-110805597D01*
X120051399Y-110817333D01*
X120075224Y-110824560D01*
X120100000Y-110827000D01*
X124373000Y-110827000D01*
X124373000Y-117248000D01*
X112952000Y-117248000D01*
X112952000Y-104727000D01*
X119973000Y-104727000D01*
X119973000Y-110700000D01*
G37*
%TD.AperFunction*%
%TD*%
D15*
%TO.N,Net-(J1-Pad7)*%
X139648001Y-117248000D02*
X128227000Y-117248000D01*
X128227000Y-110827000D01*
X132500000Y-110827000D01*
X132524776Y-110824560D01*
X132548601Y-110817333D01*
X132570557Y-110805597D01*
X132589803Y-110789803D01*
X132605597Y-110770557D01*
X132617333Y-110748601D01*
X132624560Y-110724776D01*
X132627000Y-110700000D01*
X132627000Y-104727000D01*
X139648001Y-104727000D01*
X139648001Y-117248000D01*
%TA.AperFunction,Conductor*%
D16*
G36*
X139648001Y-117248000D02*
G01*
X128227000Y-117248000D01*
X128227000Y-110827000D01*
X132500000Y-110827000D01*
X132524776Y-110824560D01*
X132548601Y-110817333D01*
X132570557Y-110805597D01*
X132589803Y-110789803D01*
X132605597Y-110770557D01*
X132617333Y-110748601D01*
X132624560Y-110724776D01*
X132627000Y-110700000D01*
X132627000Y-104727000D01*
X139648001Y-104727000D01*
X139648001Y-117248000D01*
G37*
%TD.AperFunction*%
%TD*%
M02*
