  0
SECTION
  2
HEADER
  9
$ANGBASE
  50
0.0
  9
$ANGDIR
  70
1
  9
$MEASUREMENT
  70
0
  0
ENDSEC
  0
SECTION
  2
TABLES
  0
TABLE
  2
LTYPE
  70
4
  0
LTYPE
  5
40F
  2
CONTINUOUS
  70
0
  3
Solid line
  72
65
  73
0
  40
0.0
  0
LTYPE
  5
410
  2
DASHDOT
 70
0
  3
Dash Dot ____ _ ____ _
 72
65
 73
4
 40
2.0
 49
1.25
 49
-0.25
 49
0.25
 49
-0.25
  0
LTYPE
  5
411
  2
DASHED
 70
0
  3
Dashed __ __ __ __ __
 72
65
 73
2
 40
0.75
 49
0.5
 49
-0.25
  0
LTYPE
  5
43B
  2
DOTTED
 70
0
  3
Dotted .  .  .  .
 72
65
 73
2
 40
0.2
 49
0.0
 49
-0.2
  0
ENDTAB
  0
TABLE
  2
STYLE
  70
4
  0
STYLE
  2
KICAD
  70
0
  40
0
  41
1
  42
1
  50
0
  71
0
  3
isocp.shx
  0
STYLE
  2
KICADB
  70
0
  40
0
  41
1
  42
1
  50
0
  71
0
  3
isocp.shx
  0
STYLE
  2
KICADI
  70
0
  40
0
  41
1
  42
1
  50
15
  71
0
  3
isocp.shx
  0
STYLE
  2
KICADBI
  70
0
  40
0
  41
1
  42
1
  50
15
  71
0
  3
isocp.shx
  0
ENDTAB
  0
TABLE
  2
LAYER
  70
1
  0
LAYER
  2
BLACK
  70
0
  62
7
  6
CONTINUOUS
  0
ENDTAB
  0
ENDSEC
  0
SECTION
  2
ENTITIES
0
LINE
8
BLACK
6
CONTINUOUS
10
18.8499999999999979
20
-2.6999999999999997
11
3.1000000000000001
21
-2.6999999999999997
0
LINE
8
BLACK
6
CONTINUOUS
10
3.1000000000000001
20
-13.1999999999999993
11
18.8499999999999979
21
-13.1999999999999993
0
LINE
8
BLACK
6
CONTINUOUS
10
3.1000000000000001
20
-13.1999999999999993
11
3.1000000000000001
21
-2.6999999999999997
0
LINE
8
BLACK
6
CONTINUOUS
10
18.8499999999999979
20
-2.6999999999999997
11
18.8499999999999979
21
-13.1999999999999993
0
LINE
8
BLACK
6
CONTINUOUS
10
10.0305118110236222
20
-11.7840551181102366
11
10.0805118110236211
21
-11.8340551181102356
0
LINE
8
BLACK
6
CONTINUOUS
10
10.0805118110236211
20
-11.7840551181102366
11
10.0305118110236222
21
-11.8340551181102356
0
LINE
8
BLACK
6
CONTINUOUS
10
12.1714566929133863
20
-11.6639763779527552
11
12.2214566929133852
21
-11.7139763779527559
0
LINE
8
BLACK
6
CONTINUOUS
10
12.2214566929133852
20
-11.6639763779527552
11
12.1714566929133863
21
-11.7139763779527559
0
CIRCLE
8
BLACK
10
4.2599999999999998
20
-4.5940000000000003
40
0.0492125984251968
0
CIRCLE
8
BLACK
10
4.8109999999999999
20
-5.1059999999999999
40
0.0492125984251968
0
CIRCLE
8
BLACK
10
6.6600000000000001
20
-4.5940000000000003
40
0.0492125984251968
0
CIRCLE
8
BLACK
10
7.2109999999999994
20
-5.1059999999999999
40
0.0492125984251968
0
CIRCLE
8
BLACK
10
9.0600000000000005
20
-4.5940000000000003
40
0.0492125984251968
0
CIRCLE
8
BLACK
10
9.6110000000000007
20
-5.1059999999999999
40
0.0492125984251968
0
CIRCLE
8
BLACK
10
11.4599999999999991
20
-4.5940000000000003
40
0.0492125984251968
0
CIRCLE
8
BLACK
10
12.0109999999999992
20
-5.1059999999999999
40
0.0492125984251968
0
CIRCLE
8
BLACK
10
13.8599999999999994
20
-4.5940000000000003
40
0.0492125984251968
0
CIRCLE
8
BLACK
10
14.4109999999999996
20
-5.1059999999999999
40
0.0492125984251968
0
CIRCLE
8
BLACK
10
16.259999999999998
20
-4.5940000000000003
40
0.0492125984251968
0
CIRCLE
8
BLACK
10
16.8109999999999999
20
-5.1059999999999999
40
0.0492125984251968
0
LINE
8
BLACK
6
CONTINUOUS
10
13.2999999999999989
20
-5.3289999999999997
11
13.2999999999999989
21
-5.4470000000000001
0
LINE
8
BLACK
6
CONTINUOUS
10
13.2409999999999997
20
-5.3879999999999999
11
13.359
21
-5.3879999999999999
0
LINE
8
BLACK
6
CONTINUOUS
10
3.1997152755905511
20
-13.3255841732283464
11
3.1997152755905511
21
-13.2468440157480316
0
LINE
8
BLACK
6
CONTINUOUS
10
3.1997152755905511
20
-13.2468440157480316
11
3.2184629133858267
21
-13.2468440157480316
0
LINE
8
BLACK
6
CONTINUOUS
10
3.2184629133858267
20
-13.2468440157480316
11
3.2297115354330708
21
-13.2505935433070867
0
LINE
8
BLACK
6
CONTINUOUS
10
3.2297115354330708
20
-13.2505935433070867
11
3.237210590551181
21
-13.2580925984251969
0
LINE
8
BLACK
6
CONTINUOUS
10
3.237210590551181
20
-13.2580925984251969
11
3.2409601181102361
21
-13.2655916535433072
0
LINE
8
BLACK
6
CONTINUOUS
10
3.2409601181102361
20
-13.2655916535433072
11
3.2447096456692912
21
-13.2805897637795276
0
LINE
8
BLACK
6
CONTINUOUS
10
3.2447096456692912
20
-13.2805897637795276
11
3.2447096456692912
21
-13.2918383858267717
0
LINE
8
BLACK
6
CONTINUOUS
10
3.2447096456692912
20
-13.2918383858267717
11
3.2409601181102361
21
-13.3068364960629921
0
LINE
8
BLACK
6
CONTINUOUS
10
3.2409601181102361
20
-13.3068364960629921
11
3.237210590551181
21
-13.3143355511811023
0
LINE
8
BLACK
6
CONTINUOUS
10
3.237210590551181
20
-13.3143355511811023
11
3.2297115354330708
21
-13.3218346456692913
0
LINE
8
BLACK
6
CONTINUOUS
10
3.2297115354330708
20
-13.3218346456692913
11
3.2184629133858267
21
-13.3255841732283464
0
LINE
8
BLACK
6
CONTINUOUS
10
3.2184629133858267
20
-13.3255841732283464
11
3.1997152755905511
21
-13.3255841732283464
0
LINE
8
BLACK
6
CONTINUOUS
10
3.278455433070866
20
-13.3255841732283464
11
3.278455433070866
21
-13.2730907086614174
0
LINE
8
BLACK
6
CONTINUOUS
10
3.278455433070866
20
-13.2880888582677166
11
3.2822049606299211
21
-13.2805897637795276
0
LINE
8
BLACK
6
CONTINUOUS
10
3.2822049606299211
20
-13.2805897637795276
11
3.2859544881889762
21
-13.2768402362204725
0
LINE
8
BLACK
6
CONTINUOUS
10
3.2859544881889762
20
-13.2768402362204725
11
3.2934535433070864
21
-13.2730907086614174
0
LINE
8
BLACK
6
CONTINUOUS
10
3.2934535433070864
20
-13.2730907086614174
11
3.3009526377952754
21
-13.2730907086614174
0
LINE
8
BLACK
6
CONTINUOUS
10
3.3271993307086611
20
-13.3255841732283464
11
3.3271993307086611
21
-13.2730907086614174
0
LINE
8
BLACK
6
CONTINUOUS
10
3.3271993307086611
20
-13.2468440157480316
11
3.323449803149606
21
-13.2505935433070867
0
LINE
8
BLACK
6
CONTINUOUS
10
3.323449803149606
20
-13.2505935433070867
11
3.3271993307086611
21
-13.2543430708661418
0
LINE
8
BLACK
6
CONTINUOUS
10
3.3271993307086611
20
-13.2543430708661418
11
3.3309488582677163
21
-13.2505935433070867
0
LINE
8
BLACK
6
CONTINUOUS
10
3.3309488582677163
20
-13.2505935433070867
11
3.3271993307086611
21
-13.2468440157480316
0
LINE
8
BLACK
6
CONTINUOUS
10
3.3271993307086611
20
-13.2468440157480316
11
3.3271993307086611
21
-13.2543430708661418
0
LINE
8
BLACK
6
CONTINUOUS
10
3.3759432283464568
20
-13.3255841732283464
11
3.3684441732283465
21
-13.3218346456692913
0
LINE
8
BLACK
6
CONTINUOUS
10
3.3684441732283465
20
-13.3218346456692913
11
3.3646946456692914
21
-13.3143355511811023
0
LINE
8
BLACK
6
CONTINUOUS
10
3.3646946456692914
20
-13.3143355511811023
11
3.3646946456692914
21
-13.2468440157480316
0
LINE
8
BLACK
6
CONTINUOUS
10
3.4171880708661417
20
-13.3255841732283464
11
3.4096890157480315
21
-13.3218346456692913
0
LINE
8
BLACK
6
CONTINUOUS
10
3.4096890157480315
20
-13.3218346456692913
11
3.4059394881889764
21
-13.3143355511811023
0
LINE
8
BLACK
6
CONTINUOUS
10
3.4059394881889764
20
-13.3143355511811023
11
3.4059394881889764
21
-13.2468440157480316
0
LINE
8
BLACK
6
CONTINUOUS
10
3.5071768503937006
20
-13.3255841732283464
11
3.5071768503937006
21
-13.2468440157480316
0
LINE
8
BLACK
6
CONTINUOUS
10
3.5071768503937006
20
-13.2468440157480316
11
3.5334235826771652
21
-13.303086968503937
0
LINE
8
BLACK
6
CONTINUOUS
10
3.5334235826771652
20
-13.303086968503937
11
3.5596702755905509
21
-13.2468440157480316
0
LINE
8
BLACK
6
CONTINUOUS
10
3.5596702755905509
20
-13.2468440157480316
11
3.5596702755905509
21
-13.3255841732283464
0
LINE
8
BLACK
6
CONTINUOUS
10
3.630911377952756
20
-13.3255841732283464
11
3.630911377952756
21
-13.2843393307086615
0
LINE
8
BLACK
6
CONTINUOUS
10
3.630911377952756
20
-13.2843393307086615
11
3.6271618503937009
21
-13.2768402362204725
0
LINE
8
BLACK
6
CONTINUOUS
10
3.6271618503937009
20
-13.2768402362204725
11
3.6196627952755906
21
-13.2730907086614174
0
LINE
8
BLACK
6
CONTINUOUS
10
3.6196627952755906
20
-13.2730907086614174
11
3.6046646456692915
21
-13.2730907086614174
0
LINE
8
BLACK
6
CONTINUOUS
10
3.6046646456692915
20
-13.2730907086614174
11
3.5971655905511812
21
-13.2768402362204725
0
LINE
8
BLACK
6
CONTINUOUS
10
3.630911377952756
20
-13.3218346456692913
11
3.6234123228346458
21
-13.3255841732283464
0
LINE
8
BLACK
6
CONTINUOUS
10
3.6234123228346458
20
-13.3255841732283464
11
3.6046646456692915
21
-13.3255841732283464
0
LINE
8
BLACK
6
CONTINUOUS
10
3.6046646456692915
20
-13.3255841732283464
11
3.5971655905511812
21
-13.3218346456692913
0
LINE
8
BLACK
6
CONTINUOUS
10
3.5971655905511812
20
-13.3218346456692913
11
3.5934160629921257
21
-13.3143355511811023
0
LINE
8
BLACK
6
CONTINUOUS
10
3.5934160629921257
20
-13.3143355511811023
11
3.5934160629921257
21
-13.3068364960629921
0
LINE
8
BLACK
6
CONTINUOUS
10
3.5934160629921257
20
-13.3068364960629921
11
3.5971655905511812
21
-13.2993374409448819
0
LINE
8
BLACK
6
CONTINUOUS
10
3.5971655905511812
20
-13.2993374409448819
11
3.6046646456692915
21
-13.2955879133858268
0
LINE
8
BLACK
6
CONTINUOUS
10
3.6046646456692915
20
-13.2955879133858268
11
3.6234123228346458
21
-13.2955879133858268
0
LINE
8
BLACK
6
CONTINUOUS
10
3.6234123228346458
20
-13.2955879133858268
11
3.630911377952756
21
-13.2918383858267717
0
LINE
8
BLACK
6
CONTINUOUS
10
3.6684066929133858
20
-13.2730907086614174
11
3.6684066929133858
21
-13.3518308661417322
0
LINE
8
BLACK
6
CONTINUOUS
10
3.6684066929133858
20
-13.2768402362204725
11
3.6759057480314961
21
-13.2730907086614174
0
LINE
8
BLACK
6
CONTINUOUS
10
3.6759057480314961
20
-13.2730907086614174
11
3.6909038976377953
21
-13.2730907086614174
0
LINE
8
BLACK
6
CONTINUOUS
10
3.6909038976377953
20
-13.2730907086614174
11
3.6984029527559055
21
-13.2768402362204725
0
LINE
8
BLACK
6
CONTINUOUS
10
3.6984029527559055
20
-13.2768402362204725
11
3.7021524803149606
21
-13.2805897637795276
0
LINE
8
BLACK
6
CONTINUOUS
10
3.7021524803149606
20
-13.2805897637795276
11
3.7059020078740157
21
-13.2880888582677166
0
LINE
8
BLACK
6
CONTINUOUS
10
3.7059020078740157
20
-13.2880888582677166
11
3.7059020078740157
21
-13.3105860236220472
0
LINE
8
BLACK
6
CONTINUOUS
10
3.7059020078740157
20
-13.3105860236220472
11
3.7021524803149606
21
-13.3180850787401575
0
LINE
8
BLACK
6
CONTINUOUS
10
3.7021524803149606
20
-13.3180850787401575
11
3.6984029527559055
21
-13.3218346456692913
0
LINE
8
BLACK
6
CONTINUOUS
10
3.6984029527559055
20
-13.3218346456692913
11
3.6909038976377953
21
-13.3255841732283464
0
LINE
8
BLACK
6
CONTINUOUS
10
3.6909038976377953
20
-13.3255841732283464
11
3.6759057480314961
21
-13.3255841732283464
0
LINE
8
BLACK
6
CONTINUOUS
10
3.6759057480314961
20
-13.3255841732283464
11
3.6684066929133858
21
-13.3218346456692913
0
LINE
8
BLACK
6
CONTINUOUS
10
3.7396477952755904
20
-13.3180850787401575
11
3.7433973228346455
21
-13.3218346456692913
0
LINE
8
BLACK
6
CONTINUOUS
10
3.7433973228346455
20
-13.3218346456692913
11
3.7396477952755904
21
-13.3255841732283464
0
LINE
8
BLACK
6
CONTINUOUS
10
3.7396477952755904
20
-13.3255841732283464
11
3.7358982677165353
21
-13.3218346456692913
0
LINE
8
BLACK
6
CONTINUOUS
10
3.7358982677165353
20
-13.3218346456692913
11
3.7396477952755904
21
-13.3180850787401575
0
LINE
8
BLACK
6
CONTINUOUS
10
3.7396477952755904
20
-13.3180850787401575
11
3.7396477952755904
21
-13.3255841732283464
0
LINE
8
BLACK
6
CONTINUOUS
10
3.7396477952755904
20
-13.2768402362204725
11
3.7433973228346455
21
-13.2805897637795276
0
LINE
8
BLACK
6
CONTINUOUS
10
3.7433973228346455
20
-13.2805897637795276
11
3.7396477952755904
21
-13.2843393307086615
0
LINE
8
BLACK
6
CONTINUOUS
10
3.7396477952755904
20
-13.2843393307086615
11
3.7358982677165353
21
-13.2805897637795276
0
LINE
8
BLACK
6
CONTINUOUS
10
3.7358982677165353
20
-13.2805897637795276
11
3.7396477952755904
21
-13.2768402362204725
0
LINE
8
BLACK
6
CONTINUOUS
10
3.7396477952755904
20
-13.2768402362204725
11
3.7396477952755904
21
-13.2843393307086615
0
LINE
8
BLACK
6
CONTINUOUS
10
3.0470472440944882
20
-13.4299212598425193
11
3.0970472440944881
21
-13.47992125984252
0
LINE
8
BLACK
6
CONTINUOUS
10
3.0970472440944881
20
-13.4299212598425193
11
3.0470472440944882
21
-13.47992125984252
0
LINE
8
BLACK
6
CONTINUOUS
10
3.2409601181102361
20
-13.4909385039370076
11
3.195965748031496
21
-13.4909385039370076
0
LINE
8
BLACK
6
CONTINUOUS
10
3.2184629133858267
20
-13.4909385039370076
11
3.2184629133858267
21
-13.4121983464566927
0
LINE
8
BLACK
6
CONTINUOUS
10
3.2184629133858267
20
-13.4121983464566927
11
3.2109638582677165
21
-13.4234469291338581
0
LINE
8
BLACK
6
CONTINUOUS
10
3.2109638582677165
20
-13.4234469291338581
11
3.2034648031496062
21
-13.4309459842519683
0
LINE
8
BLACK
6
CONTINUOUS
10
3.2034648031496062
20
-13.4309459842519683
11
3.195965748031496
21
-13.4346955118110234
0
LINE
8
BLACK
6
CONTINUOUS
10
3.2747059055118108
20
-13.4834394094488186
11
3.278455433070866
21
-13.4871889763779524
0
LINE
8
BLACK
6
CONTINUOUS
10
3.278455433070866
20
-13.4871889763779524
11
3.2747059055118108
21
-13.4909385039370076
0
LINE
8
BLACK
6
CONTINUOUS
10
3.2747059055118108
20
-13.4909385039370076
11
3.2709563779527557
21
-13.4871889763779524
0
LINE
8
BLACK
6
CONTINUOUS
10
3.2709563779527557
20
-13.4871889763779524
11
3.2747059055118108
21
-13.4834394094488186
0
LINE
8
BLACK
6
CONTINUOUS
10
3.2747059055118108
20
-13.4834394094488186
11
3.2747059055118108
21
-13.4909385039370076
0
LINE
8
BLACK
6
CONTINUOUS
10
3.3084516929133856
20
-13.419697401574803
11
3.3122012204724407
21
-13.4159478740157478
0
LINE
8
BLACK
6
CONTINUOUS
10
3.3122012204724407
20
-13.4159478740157478
11
3.3197002755905509
21
-13.4121983464566927
0
LINE
8
BLACK
6
CONTINUOUS
10
3.3197002755905509
20
-13.4121983464566927
11
3.3384479527559052
21
-13.4121983464566927
0
LINE
8
BLACK
6
CONTINUOUS
10
3.3384479527559052
20
-13.4121983464566927
11
3.3459470078740159
21
-13.4159478740157478
0
LINE
8
BLACK
6
CONTINUOUS
10
3.3459470078740159
20
-13.4159478740157478
11
3.349696535433071
21
-13.419697401574803
0
LINE
8
BLACK
6
CONTINUOUS
10
3.349696535433071
20
-13.419697401574803
11
3.3534460629921261
21
-13.4271964566929132
0
LINE
8
BLACK
6
CONTINUOUS
10
3.3534460629921261
20
-13.4271964566929132
11
3.3534460629921261
21
-13.4346955118110234
0
LINE
8
BLACK
6
CONTINUOUS
10
3.3534460629921261
20
-13.4346955118110234
11
3.349696535433071
21
-13.4459440944881887
0
LINE
8
BLACK
6
CONTINUOUS
10
3.349696535433071
20
-13.4459440944881887
11
3.3047021653543305
21
-13.4909385039370076
0
LINE
8
BLACK
6
CONTINUOUS
10
3.3047021653543305
20
-13.4909385039370076
11
3.3534460629921261
21
-13.4909385039370076
0
LINE
8
BLACK
6
CONTINUOUS
10
3.3796927952755906
20
-13.4121983464566927
11
3.4321862204724409
21
-13.4121983464566927
0
LINE
8
BLACK
6
CONTINUOUS
10
3.4321862204724409
20
-13.4121983464566927
11
3.3984404330708662
21
-13.4909385039370076
0
LINE
8
BLACK
6
CONTINUOUS
10
3.477180590551181
20
-13.4121983464566927
11
3.48467968503937
21
-13.4121983464566927
0
LINE
8
BLACK
6
CONTINUOUS
10
3.48467968503937
20
-13.4121983464566927
11
3.4921787401574802
21
-13.4159478740157478
0
LINE
8
BLACK
6
CONTINUOUS
10
3.4921787401574802
20
-13.4159478740157478
11
3.4959282677165353
21
-13.419697401574803
0
LINE
8
BLACK
6
CONTINUOUS
10
3.4959282677165353
20
-13.419697401574803
11
3.4996777952755904
21
-13.4271964566929132
0
LINE
8
BLACK
6
CONTINUOUS
10
3.4996777952755904
20
-13.4271964566929132
11
3.5034273228346455
21
-13.4421945669291336
0
LINE
8
BLACK
6
CONTINUOUS
10
3.5034273228346455
20
-13.4421945669291336
11
3.5034273228346455
21
-13.4609422440944879
0
LINE
8
BLACK
6
CONTINUOUS
10
3.5034273228346455
20
-13.4609422440944879
11
3.4996777952755904
21
-13.4759403543307084
0
LINE
8
BLACK
6
CONTINUOUS
10
3.4996777952755904
20
-13.4759403543307084
11
3.4959282677165353
21
-13.4834394094488186
0
LINE
8
BLACK
6
CONTINUOUS
10
3.4959282677165353
20
-13.4834394094488186
11
3.4921787401574802
21
-13.4871889763779524
0
LINE
8
BLACK
6
CONTINUOUS
10
3.4921787401574802
20
-13.4871889763779524
11
3.48467968503937
21
-13.4909385039370076
0
LINE
8
BLACK
6
CONTINUOUS
10
3.48467968503937
20
-13.4909385039370076
11
3.477180590551181
21
-13.4909385039370076
0
LINE
8
BLACK
6
CONTINUOUS
10
3.477180590551181
20
-13.4909385039370076
11
3.4696815354330708
21
-13.4871889763779524
0
LINE
8
BLACK
6
CONTINUOUS
10
3.4696815354330708
20
-13.4871889763779524
11
3.4659320078740157
21
-13.4834394094488186
0
LINE
8
BLACK
6
CONTINUOUS
10
3.4659320078740157
20
-13.4834394094488186
11
3.4621824803149606
21
-13.4759403543307084
0
LINE
8
BLACK
6
CONTINUOUS
10
3.4621824803149606
20
-13.4759403543307084
11
3.4584329527559055
21
-13.4609422440944879
0
LINE
8
BLACK
6
CONTINUOUS
10
3.4584329527559055
20
-13.4609422440944879
11
3.4584329527559055
21
-13.4421945669291336
0
LINE
8
BLACK
6
CONTINUOUS
10
3.4584329527559055
20
-13.4421945669291336
11
3.4621824803149606
21
-13.4271964566929132
0
LINE
8
BLACK
6
CONTINUOUS
10
3.4621824803149606
20
-13.4271964566929132
11
3.4659320078740157
21
-13.419697401574803
0
LINE
8
BLACK
6
CONTINUOUS
10
3.4659320078740157
20
-13.419697401574803
11
3.4696815354330708
21
-13.4159478740157478
0
LINE
8
BLACK
6
CONTINUOUS
10
3.4696815354330708
20
-13.4159478740157478
11
3.477180590551181
21
-13.4121983464566927
0
LINE
8
BLACK
6
CONTINUOUS
10
3.5371731102362203
20
-13.4909385039370076
11
3.5371731102362203
21
-13.4384450393700785
0
LINE
8
BLACK
6
CONTINUOUS
10
3.5371731102362203
20
-13.4459440944881887
11
3.5409226377952754
21
-13.4421945669291336
0
LINE
8
BLACK
6
CONTINUOUS
10
3.5409226377952754
20
-13.4421945669291336
11
3.5484216929133856
21
-13.4384450393700785
0
LINE
8
BLACK
6
CONTINUOUS
10
3.5484216929133856
20
-13.4384450393700785
11
3.5596703149606297
21
-13.4384450393700785
0
LINE
8
BLACK
6
CONTINUOUS
10
3.5596703149606297
20
-13.4384450393700785
11
3.5671693700787399
21
-13.4421945669291336
0
LINE
8
BLACK
6
CONTINUOUS
10
3.5671693700787399
20
-13.4421945669291336
11
3.570918897637795
21
-13.4496936614173226
0
LINE
8
BLACK
6
CONTINUOUS
10
3.570918897637795
20
-13.4496936614173226
11
3.570918897637795
21
-13.4909385039370076
0
LINE
8
BLACK
6
CONTINUOUS
10
3.570918897637795
20
-13.4496936614173226
11
3.5746684251968501
21
-13.4421945669291336
0
LINE
8
BLACK
6
CONTINUOUS
10
3.5746684251968501
20
-13.4421945669291336
11
3.5821674803149604
21
-13.4384450393700785
0
LINE
8
BLACK
6
CONTINUOUS
10
3.5821674803149604
20
-13.4384450393700785
11
3.5934160629921257
21
-13.4384450393700785
0
LINE
8
BLACK
6
CONTINUOUS
10
3.5934160629921257
20
-13.4384450393700785
11
3.6009151574803151
21
-13.4421945669291336
0
LINE
8
BLACK
6
CONTINUOUS
10
3.6009151574803151
20
-13.4421945669291336
11
3.6046646850393702
21
-13.4496936614173226
0
LINE
8
BLACK
6
CONTINUOUS
10
3.6046646850393702
20
-13.4496936614173226
11
3.6046646850393702
21
-13.4909385039370076
0
LINE
8
BLACK
6
CONTINUOUS
10
3.6421600000000001
20
-13.4909385039370076
11
3.6421600000000001
21
-13.4384450393700785
0
LINE
8
BLACK
6
CONTINUOUS
10
3.6421600000000001
20
-13.4459440944881887
11
3.6459095275590552
21
-13.4421945669291336
0
LINE
8
BLACK
6
CONTINUOUS
10
3.6459095275590552
20
-13.4421945669291336
11
3.6534085826771654
21
-13.4384450393700785
0
LINE
8
BLACK
6
CONTINUOUS
10
3.6534085826771654
20
-13.4384450393700785
11
3.6646572047244095
21
-13.4384450393700785
0
LINE
8
BLACK
6
CONTINUOUS
10
3.6646572047244095
20
-13.4384450393700785
11
3.6721562598425197
21
-13.4421945669291336
0
LINE
8
BLACK
6
CONTINUOUS
10
3.6721562598425197
20
-13.4421945669291336
11
3.6759057874015748
21
-13.4496936614173226
0
LINE
8
BLACK
6
CONTINUOUS
10
3.6759057874015748
20
-13.4496936614173226
11
3.6759057874015748
21
-13.4909385039370076
0
LINE
8
BLACK
6
CONTINUOUS
10
3.6759057874015748
20
-13.4496936614173226
11
3.6796553149606299
21
-13.4421945669291336
0
LINE
8
BLACK
6
CONTINUOUS
10
3.6796553149606299
20
-13.4421945669291336
11
3.6871543700787401
21
-13.4384450393700785
0
LINE
8
BLACK
6
CONTINUOUS
10
3.6871543700787401
20
-13.4384450393700785
11
3.6984029527559055
21
-13.4384450393700785
0
LINE
8
BLACK
6
CONTINUOUS
10
3.6984029527559055
20
-13.4384450393700785
11
3.7059020472440944
21
-13.4421945669291336
0
LINE
8
BLACK
6
CONTINUOUS
10
3.7059020472440944
20
-13.4421945669291336
11
3.7096515748031496
21
-13.4496936614173226
0
LINE
8
BLACK
6
CONTINUOUS
10
3.7096515748031496
20
-13.4496936614173226
11
3.7096515748031496
21
-13.4909385039370076
0
LINE
8
BLACK
6
CONTINUOUS
10
3.8633823622047245
20
-13.4084488188976376
11
3.7958908267716533
21
-13.5096861417322831
0
LINE
8
BLACK
6
CONTINUOUS
10
3.9646197244094488
20
-13.4121983464566927
11
3.9721188188976377
21
-13.4121983464566927
0
LINE
8
BLACK
6
CONTINUOUS
10
3.9721188188976377
20
-13.4121983464566927
11
3.979617874015748
21
-13.4159478740157478
0
LINE
8
BLACK
6
CONTINUOUS
10
3.979617874015748
20
-13.4159478740157478
11
3.9833674015748031
21
-13.419697401574803
0
LINE
8
BLACK
6
CONTINUOUS
10
3.9833674015748031
20
-13.419697401574803
11
3.9871169291338582
21
-13.4271964566929132
0
LINE
8
BLACK
6
CONTINUOUS
10
3.9871169291338582
20
-13.4271964566929132
11
3.9908664566929133
21
-13.4421945669291336
0
LINE
8
BLACK
6
CONTINUOUS
10
3.9908664566929133
20
-13.4421945669291336
11
3.9908664566929133
21
-13.4609422440944879
0
LINE
8
BLACK
6
CONTINUOUS
10
3.9908664566929133
20
-13.4609422440944879
11
3.9871169291338582
21
-13.4759403543307084
0
LINE
8
BLACK
6
CONTINUOUS
10
3.9871169291338582
20
-13.4759403543307084
11
3.9833674015748031
21
-13.4834394094488186
0
LINE
8
BLACK
6
CONTINUOUS
10
3.9833674015748031
20
-13.4834394094488186
11
3.979617874015748
21
-13.4871889763779524
0
LINE
8
BLACK
6
CONTINUOUS
10
3.979617874015748
20
-13.4871889763779524
11
3.9721188188976377
21
-13.4909385039370076
0
LINE
8
BLACK
6
CONTINUOUS
10
3.9721188188976377
20
-13.4909385039370076
11
3.9646197244094488
21
-13.4909385039370076
0
LINE
8
BLACK
6
CONTINUOUS
10
3.9646197244094488
20
-13.4909385039370076
11
3.9571206692913385
21
-13.4871889763779524
0
LINE
8
BLACK
6
CONTINUOUS
10
3.9571206692913385
20
-13.4871889763779524
11
3.9533711417322834
21
-13.4834394094488186
0
LINE
8
BLACK
6
CONTINUOUS
10
3.9533711417322834
20
-13.4834394094488186
11
3.9496216141732283
21
-13.4759403543307084
0
LINE
8
BLACK
6
CONTINUOUS
10
3.9496216141732283
20
-13.4759403543307084
11
3.9458720866141732
21
-13.4609422440944879
0
LINE
8
BLACK
6
CONTINUOUS
10
3.9458720866141732
20
-13.4609422440944879
11
3.9458720866141732
21
-13.4421945669291336
0
LINE
8
BLACK
6
CONTINUOUS
10
3.9458720866141732
20
-13.4421945669291336
11
3.9496216141732283
21
-13.4271964566929132
0
LINE
8
BLACK
6
CONTINUOUS
10
3.9496216141732283
20
-13.4271964566929132
11
3.9533711417322834
21
-13.419697401574803
0
LINE
8
BLACK
6
CONTINUOUS
10
3.9533711417322834
20
-13.419697401574803
11
3.9571206692913385
21
-13.4159478740157478
0
LINE
8
BLACK
6
CONTINUOUS
10
3.9571206692913385
20
-13.4159478740157478
11
3.9646197244094488
21
-13.4121983464566927
0
LINE
8
BLACK
6
CONTINUOUS
10
4.024612244094488
20
-13.4834394094488186
11
4.0283617716535431
21
-13.4871889763779524
0
LINE
8
BLACK
6
CONTINUOUS
10
4.0283617716535431
20
-13.4871889763779524
11
4.024612244094488
21
-13.4909385039370076
0
LINE
8
BLACK
6
CONTINUOUS
10
4.024612244094488
20
-13.4909385039370076
11
4.0208627165354329
21
-13.4871889763779524
0
LINE
8
BLACK
6
CONTINUOUS
10
4.0208627165354329
20
-13.4871889763779524
11
4.024612244094488
21
-13.4834394094488186
0
LINE
8
BLACK
6
CONTINUOUS
10
4.024612244094488
20
-13.4834394094488186
11
4.024612244094488
21
-13.4909385039370076
0
LINE
8
BLACK
6
CONTINUOUS
10
4.0771056692913383
20
-13.4121983464566927
11
4.0846047637795273
21
-13.4121983464566927
0
LINE
8
BLACK
6
CONTINUOUS
10
4.0846047637795273
20
-13.4121983464566927
11
4.0921038188976375
21
-13.4159478740157478
0
LINE
8
BLACK
6
CONTINUOUS
10
4.0921038188976375
20
-13.4159478740157478
11
4.0958533464566926
21
-13.419697401574803
0
LINE
8
BLACK
6
CONTINUOUS
10
4.0958533464566926
20
-13.419697401574803
11
4.0996028740157477
21
-13.4271964566929132
0
LINE
8
BLACK
6
CONTINUOUS
10
4.0996028740157477
20
-13.4271964566929132
11
4.1033524015748029
21
-13.4421945669291336
0
LINE
8
BLACK
6
CONTINUOUS
10
4.1033524015748029
20
-13.4421945669291336
11
4.1033524015748029
21
-13.4609422440944879
0
LINE
8
BLACK
6
CONTINUOUS
10
4.1033524015748029
20
-13.4609422440944879
11
4.0996028740157477
21
-13.4759403543307084
0
LINE
8
BLACK
6
CONTINUOUS
10
4.0996028740157477
20
-13.4759403543307084
11
4.0958533464566926
21
-13.4834394094488186
0
LINE
8
BLACK
6
CONTINUOUS
10
4.0958533464566926
20
-13.4834394094488186
11
4.0921038188976375
21
-13.4871889763779524
0
LINE
8
BLACK
6
CONTINUOUS
10
4.0921038188976375
20
-13.4871889763779524
11
4.0846047637795273
21
-13.4909385039370076
0
LINE
8
BLACK
6
CONTINUOUS
10
4.0846047637795273
20
-13.4909385039370076
11
4.0771056692913383
21
-13.4909385039370076
0
LINE
8
BLACK
6
CONTINUOUS
10
4.0771056692913383
20
-13.4909385039370076
11
4.0696066141732281
21
-13.4871889763779524
0
LINE
8
BLACK
6
CONTINUOUS
10
4.0696066141732281
20
-13.4871889763779524
11
4.065857086614173
21
-13.4834394094488186
0
LINE
8
BLACK
6
CONTINUOUS
10
4.065857086614173
20
-13.4834394094488186
11
4.0621075590551179
21
-13.4759403543307084
0
LINE
8
BLACK
6
CONTINUOUS
10
4.0621075590551179
20
-13.4759403543307084
11
4.0583580314960628
21
-13.4609422440944879
0
LINE
8
BLACK
6
CONTINUOUS
10
4.0583580314960628
20
-13.4609422440944879
11
4.0583580314960628
21
-13.4421945669291336
0
LINE
8
BLACK
6
CONTINUOUS
10
4.0583580314960628
20
-13.4421945669291336
11
4.0621075590551179
21
-13.4271964566929132
0
LINE
8
BLACK
6
CONTINUOUS
10
4.0621075590551179
20
-13.4271964566929132
11
4.065857086614173
21
-13.419697401574803
0
LINE
8
BLACK
6
CONTINUOUS
10
4.065857086614173
20
-13.419697401574803
11
4.0696066141732281
21
-13.4159478740157478
0
LINE
8
BLACK
6
CONTINUOUS
10
4.0696066141732281
20
-13.4159478740157478
11
4.0771056692913383
21
-13.4121983464566927
0
LINE
8
BLACK
6
CONTINUOUS
10
4.1745935039370075
20
-13.4121983464566927
11
4.1370981889763776
21
-13.4121983464566927
0
LINE
8
BLACK
6
CONTINUOUS
10
4.1370981889763776
20
-13.4121983464566927
11
4.1333486614173225
21
-13.4496936614173226
0
LINE
8
BLACK
6
CONTINUOUS
10
4.1333486614173225
20
-13.4496936614173226
11
4.1370981889763776
21
-13.4459440944881887
0
LINE
8
BLACK
6
CONTINUOUS
10
4.1370981889763776
20
-13.4459440944881887
11
4.1445972440944878
21
-13.4421945669291336
0
LINE
8
BLACK
6
CONTINUOUS
10
4.1445972440944878
20
-13.4421945669291336
11
4.1633449212598421
21
-13.4421945669291336
0
LINE
8
BLACK
6
CONTINUOUS
10
4.1633449212598421
20
-13.4421945669291336
11
4.1708439763779523
21
-13.4459440944881887
0
LINE
8
BLACK
6
CONTINUOUS
10
4.1708439763779523
20
-13.4459440944881887
11
4.1745935039370075
21
-13.4496936614173226
0
LINE
8
BLACK
6
CONTINUOUS
10
4.1745935039370075
20
-13.4496936614173226
11
4.1783430314960626
21
-13.4571927165354328
0
LINE
8
BLACK
6
CONTINUOUS
10
4.1783430314960626
20
-13.4571927165354328
11
4.1783430314960626
21
-13.4759403543307084
0
LINE
8
BLACK
6
CONTINUOUS
10
4.1783430314960626
20
-13.4759403543307084
11
4.1745935039370075
21
-13.4834394094488186
0
LINE
8
BLACK
6
CONTINUOUS
10
4.1745935039370075
20
-13.4834394094488186
11
4.1708439763779523
21
-13.4871889763779524
0
LINE
8
BLACK
6
CONTINUOUS
10
4.1708439763779523
20
-13.4871889763779524
11
4.1633449212598421
21
-13.4909385039370076
0
LINE
8
BLACK
6
CONTINUOUS
10
4.1633449212598421
20
-13.4909385039370076
11
4.1445972440944878
21
-13.4909385039370076
0
LINE
8
BLACK
6
CONTINUOUS
10
4.1445972440944878
20
-13.4909385039370076
11
4.1370981889763776
21
-13.4871889763779524
0
LINE
8
BLACK
6
CONTINUOUS
10
4.1370981889763776
20
-13.4871889763779524
11
4.1333486614173225
21
-13.4834394094488186
0
LINE
8
BLACK
6
CONTINUOUS
10
4.2270869291338578
20
-13.4121983464566927
11
4.2345860236220467
21
-13.4121983464566927
0
LINE
8
BLACK
6
CONTINUOUS
10
4.2345860236220467
20
-13.4121983464566927
11
4.2420850787401569
21
-13.4159478740157478
0
LINE
8
BLACK
6
CONTINUOUS
10
4.2420850787401569
20
-13.4159478740157478
11
4.2458346062992129
21
-13.419697401574803
0
LINE
8
BLACK
6
CONTINUOUS
10
4.2458346062992129
20
-13.419697401574803
11
4.2495841338582681
21
-13.4271964566929132
0
LINE
8
BLACK
6
CONTINUOUS
10
4.2495841338582681
20
-13.4271964566929132
11
4.2533336614173232
21
-13.4421945669291336
0
LINE
8
BLACK
6
CONTINUOUS
10
4.2533336614173232
20
-13.4421945669291336
11
4.2533336614173232
21
-13.4609422440944879
0
LINE
8
BLACK
6
CONTINUOUS
10
4.2533336614173232
20
-13.4609422440944879
11
4.2495841338582681
21
-13.4759403543307084
0
LINE
8
BLACK
6
CONTINUOUS
10
4.2495841338582681
20
-13.4759403543307084
11
4.2458346062992129
21
-13.4834394094488186
0
LINE
8
BLACK
6
CONTINUOUS
10
4.2458346062992129
20
-13.4834394094488186
11
4.2420850787401569
21
-13.4871889763779524
0
LINE
8
BLACK
6
CONTINUOUS
10
4.2420850787401569
20
-13.4871889763779524
11
4.2345860236220467
21
-13.4909385039370076
0
LINE
8
BLACK
6
CONTINUOUS
10
4.2345860236220467
20
-13.4909385039370076
11
4.2270869291338578
21
-13.4909385039370076
0
LINE
8
BLACK
6
CONTINUOUS
10
4.2270869291338578
20
-13.4909385039370076
11
4.2195878740157475
21
-13.4871889763779524
0
LINE
8
BLACK
6
CONTINUOUS
10
4.2195878740157475
20
-13.4871889763779524
11
4.2158383464566924
21
-13.4834394094488186
0
LINE
8
BLACK
6
CONTINUOUS
10
4.2158383464566924
20
-13.4834394094488186
11
4.2120888188976373
21
-13.4759403543307084
0
LINE
8
BLACK
6
CONTINUOUS
10
4.2120888188976373
20
-13.4759403543307084
11
4.2083392913385822
21
-13.4609422440944879
0
LINE
8
BLACK
6
CONTINUOUS
10
4.2083392913385822
20
-13.4609422440944879
11
4.2083392913385822
21
-13.4421945669291336
0
LINE
8
BLACK
6
CONTINUOUS
10
4.2083392913385822
20
-13.4421945669291336
11
4.2120888188976373
21
-13.4271964566929132
0
LINE
8
BLACK
6
CONTINUOUS
10
4.2120888188976373
20
-13.4271964566929132
11
4.2158383464566924
21
-13.419697401574803
0
LINE
8
BLACK
6
CONTINUOUS
10
4.2158383464566924
20
-13.419697401574803
11
4.2195878740157475
21
-13.4159478740157478
0
LINE
8
BLACK
6
CONTINUOUS
10
4.2195878740157475
20
-13.4159478740157478
11
4.2270869291338578
21
-13.4121983464566927
0
LINE
8
BLACK
6
CONTINUOUS
10
4.3020775590551183
20
-13.4121983464566927
11
4.3095766535433073
21
-13.4121983464566927
0
LINE
8
BLACK
6
CONTINUOUS
10
4.3095766535433073
20
-13.4121983464566927
11
4.3170757086614175
21
-13.4159478740157478
0
LINE
8
BLACK
6
CONTINUOUS
10
4.3170757086614175
20
-13.4159478740157478
11
4.3208252362204727
21
-13.419697401574803
0
LINE
8
BLACK
6
CONTINUOUS
10
4.3208252362204727
20
-13.419697401574803
11
4.3245747637795278
21
-13.4271964566929132
0
LINE
8
BLACK
6
CONTINUOUS
10
4.3245747637795278
20
-13.4271964566929132
11
4.3283242913385829
21
-13.4421945669291336
0
LINE
8
BLACK
6
CONTINUOUS
10
4.3283242913385829
20
-13.4421945669291336
11
4.3283242913385829
21
-13.4609422440944879
0
LINE
8
BLACK
6
CONTINUOUS
10
4.3283242913385829
20
-13.4609422440944879
11
4.3245747637795278
21
-13.4759403543307084
0
LINE
8
BLACK
6
CONTINUOUS
10
4.3245747637795278
20
-13.4759403543307084
11
4.3208252362204727
21
-13.4834394094488186
0
LINE
8
BLACK
6
CONTINUOUS
10
4.3208252362204727
20
-13.4834394094488186
11
4.3170757086614175
21
-13.4871889763779524
0
LINE
8
BLACK
6
CONTINUOUS
10
4.3170757086614175
20
-13.4871889763779524
11
4.3095766535433073
21
-13.4909385039370076
0
LINE
8
BLACK
6
CONTINUOUS
10
4.3095766535433073
20
-13.4909385039370076
11
4.3020775590551183
21
-13.4909385039370076
0
LINE
8
BLACK
6
CONTINUOUS
10
4.3020775590551183
20
-13.4909385039370076
11
4.2945785039370081
21
-13.4871889763779524
0
LINE
8
BLACK
6
CONTINUOUS
10
4.2945785039370081
20
-13.4871889763779524
11
4.290828976377953
21
-13.4834394094488186
0
LINE
8
BLACK
6
CONTINUOUS
10
4.290828976377953
20
-13.4834394094488186
11
4.2870794488188979
21
-13.4759403543307084
0
LINE
8
BLACK
6
CONTINUOUS
10
4.2870794488188979
20
-13.4759403543307084
11
4.2833299212598428
21
-13.4609422440944879
0
LINE
8
BLACK
6
CONTINUOUS
10
4.2833299212598428
20
-13.4609422440944879
11
4.2833299212598428
21
-13.4421945669291336
0
LINE
8
BLACK
6
CONTINUOUS
10
4.2833299212598428
20
-13.4421945669291336
11
4.2870794488188979
21
-13.4271964566929132
0
LINE
8
BLACK
6
CONTINUOUS
10
4.2870794488188979
20
-13.4271964566929132
11
4.290828976377953
21
-13.419697401574803
0
LINE
8
BLACK
6
CONTINUOUS
10
4.290828976377953
20
-13.419697401574803
11
4.2945785039370081
21
-13.4159478740157478
0
LINE
8
BLACK
6
CONTINUOUS
10
4.2945785039370081
20
-13.4159478740157478
11
4.3020775590551183
21
-13.4121983464566927
0
LINE
8
BLACK
6
CONTINUOUS
10
4.3583205511811025
20
-13.4121983464566927
11
4.3583205511811025
21
-13.4271964566929132
0
LINE
8
BLACK
6
CONTINUOUS
10
4.3883168110236221
20
-13.4121983464566927
11
4.3883168110236221
21
-13.4271964566929132
0
LINE
8
BLACK
6
CONTINUOUS
10
4.5045523228346456
20
-13.5209347244094484
11
4.5008027559055117
21
-13.5171851968503933
0
LINE
8
BLACK
6
CONTINUOUS
10
4.5008027559055117
20
-13.5171851968503933
11
4.4933037007874015
21
-13.505936614173228
0
LINE
8
BLACK
6
CONTINUOUS
10
4.4933037007874015
20
-13.505936614173228
11
4.4895541732283464
21
-13.4984375590551178
0
LINE
8
BLACK
6
CONTINUOUS
10
4.4895541732283464
20
-13.4984375590551178
11
4.4858046456692913
21
-13.4871889763779524
0
LINE
8
BLACK
6
CONTINUOUS
10
4.4858046456692913
20
-13.4871889763779524
11
4.4820551181102362
21
-13.4684412992125981
0
LINE
8
BLACK
6
CONTINUOUS
10
4.4820551181102362
20
-13.4684412992125981
11
4.4820551181102362
21
-13.4534431889763777
0
LINE
8
BLACK
6
CONTINUOUS
10
4.4820551181102362
20
-13.4534431889763777
11
4.4858046456692913
21
-13.4346955118110234
0
LINE
8
BLACK
6
CONTINUOUS
10
4.4858046456692913
20
-13.4346955118110234
11
4.4895541732283464
21
-13.4234469291338581
0
LINE
8
BLACK
6
CONTINUOUS
10
4.4895541732283464
20
-13.4234469291338581
11
4.4933037007874015
21
-13.4159478740157478
0
LINE
8
BLACK
6
CONTINUOUS
10
4.4933037007874015
20
-13.4159478740157478
11
4.5008027559055117
21
-13.4046992519685038
0
LINE
8
BLACK
6
CONTINUOUS
10
4.5008027559055117
20
-13.4046992519685038
11
4.5045523228346456
21
-13.4009497244094486
0
LINE
8
BLACK
6
CONTINUOUS
10
4.5307990157480313
20
-13.419697401574803
11
4.5345485433070865
21
-13.4159478740157478
0
LINE
8
BLACK
6
CONTINUOUS
10
4.5345485433070865
20
-13.4159478740157478
11
4.5420475984251967
21
-13.4121983464566927
0
LINE
8
BLACK
6
CONTINUOUS
10
4.5420475984251967
20
-13.4121983464566927
11
4.560795275590551
21
-13.4121983464566927
0
LINE
8
BLACK
6
CONTINUOUS
10
4.560795275590551
20
-13.4121983464566927
11
4.5682943307086612
21
-13.4159478740157478
0
LINE
8
BLACK
6
CONTINUOUS
10
4.5682943307086612
20
-13.4159478740157478
11
4.5720438582677163
21
-13.419697401574803
0
LINE
8
BLACK
6
CONTINUOUS
10
4.5720438582677163
20
-13.419697401574803
11
4.5757933858267714
21
-13.4271964566929132
0
LINE
8
BLACK
6
CONTINUOUS
10
4.5757933858267714
20
-13.4271964566929132
11
4.5757933858267714
21
-13.4346955118110234
0
LINE
8
BLACK
6
CONTINUOUS
10
4.5757933858267714
20
-13.4346955118110234
11
4.5720438582677163
21
-13.4459440944881887
0
LINE
8
BLACK
6
CONTINUOUS
10
4.5720438582677163
20
-13.4459440944881887
11
4.5270494881889762
21
-13.4909385039370076
0
LINE
8
BLACK
6
CONTINUOUS
10
4.5270494881889762
20
-13.4909385039370076
11
4.5757933858267714
21
-13.4909385039370076
0
LINE
8
BLACK
6
CONTINUOUS
10
4.6695316929133854
20
-13.4909385039370076
11
4.6695316929133854
21
-13.4121983464566927
0
LINE
8
BLACK
6
CONTINUOUS
10
4.7032774803149602
20
-13.4909385039370076
11
4.7032774803149602
21
-13.4496936614173226
0
LINE
8
BLACK
6
CONTINUOUS
10
4.7032774803149602
20
-13.4496936614173226
11
4.6995279527559051
21
-13.4421945669291336
0
LINE
8
BLACK
6
CONTINUOUS
10
4.6995279527559051
20
-13.4421945669291336
11
4.6920288976377948
21
-13.4384450393700785
0
LINE
8
BLACK
6
CONTINUOUS
10
4.6920288976377948
20
-13.4384450393700785
11
4.6807802755905508
21
-13.4384450393700785
0
LINE
8
BLACK
6
CONTINUOUS
10
4.6807802755905508
20
-13.4384450393700785
11
4.6732812204724405
21
-13.4421945669291336
0
LINE
8
BLACK
6
CONTINUOUS
10
4.6732812204724405
20
-13.4421945669291336
11
4.6695316929133854
21
-13.4459440944881887
0
LINE
8
BLACK
6
CONTINUOUS
10
4.7520213779527554
20
-13.4909385039370076
11
4.7445223228346451
21
-13.4871889763779524
0
LINE
8
BLACK
6
CONTINUOUS
10
4.7445223228346451
20
-13.4871889763779524
11
4.74077279527559
21
-13.4834394094488186
0
LINE
8
BLACK
6
CONTINUOUS
10
4.74077279527559
20
-13.4834394094488186
11
4.7370232677165349
21
-13.4759403543307084
0
LINE
8
BLACK
6
CONTINUOUS
10
4.7370232677165349
20
-13.4759403543307084
11
4.7370232677165349
21
-13.4534431889763777
0
LINE
8
BLACK
6
CONTINUOUS
10
4.7370232677165349
20
-13.4534431889763777
11
4.74077279527559
21
-13.4459440944881887
0
LINE
8
BLACK
6
CONTINUOUS
10
4.74077279527559
20
-13.4459440944881887
11
4.7445223228346451
21
-13.4421945669291336
0
LINE
8
BLACK
6
CONTINUOUS
10
4.7445223228346451
20
-13.4421945669291336
11
4.7520213779527554
21
-13.4384450393700785
0
LINE
8
BLACK
6
CONTINUOUS
10
4.7520213779527554
20
-13.4384450393700785
11
4.7632699999999994
21
-13.4384450393700785
0
LINE
8
BLACK
6
CONTINUOUS
10
4.7632699999999994
20
-13.4384450393700785
11
4.7707690551181106
21
-13.4421945669291336
0
LINE
8
BLACK
6
CONTINUOUS
10
4.7707690551181106
20
-13.4421945669291336
11
4.7745185826771657
21
-13.4459440944881887
0
LINE
8
BLACK
6
CONTINUOUS
10
4.7745185826771657
20
-13.4459440944881887
11
4.7782681102362208
21
-13.4534431889763777
0
LINE
8
BLACK
6
CONTINUOUS
10
4.7782681102362208
20
-13.4534431889763777
11
4.7782681102362208
21
-13.4759403543307084
0
LINE
8
BLACK
6
CONTINUOUS
10
4.7782681102362208
20
-13.4759403543307084
11
4.7745185826771657
21
-13.4834394094488186
0
LINE
8
BLACK
6
CONTINUOUS
10
4.7745185826771657
20
-13.4834394094488186
11
4.7707690551181106
21
-13.4871889763779524
0
LINE
8
BLACK
6
CONTINUOUS
10
4.7707690551181106
20
-13.4871889763779524
11
4.7632699999999994
21
-13.4909385039370076
0
LINE
8
BLACK
6
CONTINUOUS
10
4.7632699999999994
20
-13.4909385039370076
11
4.7520213779527554
21
-13.4909385039370076
0
LINE
8
BLACK
6
CONTINUOUS
10
4.8232624803149609
20
-13.4909385039370076
11
4.8157634251968506
21
-13.4871889763779524
0
LINE
8
BLACK
6
CONTINUOUS
10
4.8157634251968506
20
-13.4871889763779524
11
4.8120138976377955
21
-13.4796898818897635
0
LINE
8
BLACK
6
CONTINUOUS
10
4.8120138976377955
20
-13.4796898818897635
11
4.8120138976377955
21
-13.4121983464566927
0
LINE
8
BLACK
6
CONTINUOUS
10
4.8832550000000001
20
-13.4871889763779524
11
4.8757559448818899
21
-13.4909385039370076
0
LINE
8
BLACK
6
CONTINUOUS
10
4.8757559448818899
20
-13.4909385039370076
11
4.8607577952755907
21
-13.4909385039370076
0
LINE
8
BLACK
6
CONTINUOUS
10
4.8607577952755907
20
-13.4909385039370076
11
4.8532587401574805
21
-13.4871889763779524
0
LINE
8
BLACK
6
CONTINUOUS
10
4.8532587401574805
20
-13.4871889763779524
11
4.8495092125984254
21
-13.4796898818897635
0
LINE
8
BLACK
6
CONTINUOUS
10
4.8495092125984254
20
-13.4796898818897635
11
4.8495092125984254
21
-13.4496936614173226
0
LINE
8
BLACK
6
CONTINUOUS
10
4.8495092125984254
20
-13.4496936614173226
11
4.8532587401574805
21
-13.4421945669291336
0
LINE
8
BLACK
6
CONTINUOUS
10
4.8532587401574805
20
-13.4421945669291336
11
4.8607577952755907
21
-13.4384450393700785
0
LINE
8
BLACK
6
CONTINUOUS
10
4.8607577952755907
20
-13.4384450393700785
11
4.8757559448818899
21
-13.4384450393700785
0
LINE
8
BLACK
6
CONTINUOUS
10
4.8757559448818899
20
-13.4384450393700785
11
4.8832550000000001
21
-13.4421945669291336
0
LINE
8
BLACK
6
CONTINUOUS
10
4.8832550000000001
20
-13.4421945669291336
11
4.8870045275590552
21
-13.4496936614173226
0
LINE
8
BLACK
6
CONTINUOUS
10
4.8870045275590552
20
-13.4496936614173226
11
4.8870045275590552
21
-13.4571927165354328
0
LINE
8
BLACK
6
CONTINUOUS
10
4.8870045275590552
20
-13.4571927165354328
11
4.8495092125984254
21
-13.464691771653543
0
LINE
8
BLACK
6
CONTINUOUS
10
4.9170007874015749
20
-13.4871889763779524
11
4.9244998425196851
21
-13.4909385039370076
0
LINE
8
BLACK
6
CONTINUOUS
10
4.9244998425196851
20
-13.4909385039370076
11
4.9394979527559055
21
-13.4909385039370076
0
LINE
8
BLACK
6
CONTINUOUS
10
4.9394979527559055
20
-13.4909385039370076
11
4.9469970472440945
21
-13.4871889763779524
0
LINE
8
BLACK
6
CONTINUOUS
10
4.9469970472440945
20
-13.4871889763779524
11
4.9507465748031496
21
-13.4796898818897635
0
LINE
8
BLACK
6
CONTINUOUS
10
4.9507465748031496
20
-13.4796898818897635
11
4.9507465748031496
21
-13.4759403543307084
0
LINE
8
BLACK
6
CONTINUOUS
10
4.9507465748031496
20
-13.4759403543307084
11
4.9469970472440945
21
-13.4684412992125981
0
LINE
8
BLACK
6
CONTINUOUS
10
4.9469970472440945
20
-13.4684412992125981
11
4.9394979527559055
21
-13.464691771653543
0
LINE
8
BLACK
6
CONTINUOUS
10
4.9394979527559055
20
-13.464691771653543
11
4.9282493700787402
21
-13.464691771653543
0
LINE
8
BLACK
6
CONTINUOUS
10
4.9282493700787402
20
-13.464691771653543
11
4.92075031496063
21
-13.4609422440944879
0
LINE
8
BLACK
6
CONTINUOUS
10
4.92075031496063
20
-13.4609422440944879
11
4.9170007874015749
21
-13.4534431889763777
0
LINE
8
BLACK
6
CONTINUOUS
10
4.9170007874015749
20
-13.4534431889763777
11
4.9170007874015749
21
-13.4496936614173226
0
LINE
8
BLACK
6
CONTINUOUS
10
4.9170007874015749
20
-13.4496936614173226
11
4.92075031496063
21
-13.4421945669291336
0
LINE
8
BLACK
6
CONTINUOUS
10
4.92075031496063
20
-13.4421945669291336
11
4.9282493700787402
21
-13.4384450393700785
0
LINE
8
BLACK
6
CONTINUOUS
10
4.9282493700787402
20
-13.4384450393700785
11
4.9394979527559055
21
-13.4384450393700785
0
LINE
8
BLACK
6
CONTINUOUS
10
4.9394979527559055
20
-13.4384450393700785
11
4.9469970472440945
21
-13.4421945669291336
0
LINE
8
BLACK
6
CONTINUOUS
10
4.9769933070866141
20
-13.5209347244094484
11
4.9807428346456692
21
-13.5171851968503933
0
LINE
8
BLACK
6
CONTINUOUS
10
4.9807428346456692
20
-13.5171851968503933
11
4.9882418897637795
21
-13.505936614173228
0
LINE
8
BLACK
6
CONTINUOUS
10
4.9882418897637795
20
-13.505936614173228
11
4.9919914173228346
21
-13.4984375590551178
0
LINE
8
BLACK
6
CONTINUOUS
10
4.9919914173228346
20
-13.4984375590551178
11
4.9957409448818897
21
-13.4871889763779524
0
LINE
8
BLACK
6
CONTINUOUS
10
4.9957409448818897
20
-13.4871889763779524
11
4.9994904724409448
21
-13.4684412992125981
0
LINE
8
BLACK
6
CONTINUOUS
10
4.9994904724409448
20
-13.4684412992125981
11
4.9994904724409448
21
-13.4534431889763777
0
LINE
8
BLACK
6
CONTINUOUS
10
4.9994904724409448
20
-13.4534431889763777
11
4.9957409448818897
21
-13.4346955118110234
0
LINE
8
BLACK
6
CONTINUOUS
10
4.9957409448818897
20
-13.4346955118110234
11
4.9919914173228346
21
-13.4234469291338581
0
LINE
8
BLACK
6
CONTINUOUS
10
4.9919914173228346
20
-13.4234469291338581
11
4.9882418897637795
21
-13.4159478740157478
0
LINE
8
BLACK
6
CONTINUOUS
10
4.9882418897637795
20
-13.4159478740157478
11
4.9807428346456692
21
-13.4046992519685038
0
LINE
8
BLACK
6
CONTINUOUS
10
4.9807428346456692
20
-13.4046992519685038
11
4.9769933070866141
21
-13.4009497244094486
0
LINE
8
BLACK
6
CONTINUOUS
10
5.1194755118110233
20
-13.5209347244094484
11
5.1157259448818895
21
-13.5171851968503933
0
LINE
8
BLACK
6
CONTINUOUS
10
5.1157259448818895
20
-13.5171851968503933
11
5.1082268897637793
21
-13.505936614173228
0
LINE
8
BLACK
6
CONTINUOUS
10
5.1082268897637793
20
-13.505936614173228
11
5.1044773622047241
21
-13.4984375590551178
0
LINE
8
BLACK
6
CONTINUOUS
10
5.1044773622047241
20
-13.4984375590551178
11
5.100727834645669
21
-13.4871889763779524
0
LINE
8
BLACK
6
CONTINUOUS
10
5.100727834645669
20
-13.4871889763779524
11
5.0969783070866139
21
-13.4684412992125981
0
LINE
8
BLACK
6
CONTINUOUS
10
5.0969783070866139
20
-13.4684412992125981
11
5.0969783070866139
21
-13.4534431889763777
0
LINE
8
BLACK
6
CONTINUOUS
10
5.0969783070866139
20
-13.4534431889763777
11
5.100727834645669
21
-13.4346955118110234
0
LINE
8
BLACK
6
CONTINUOUS
10
5.100727834645669
20
-13.4346955118110234
11
5.1044773622047241
21
-13.4234469291338581
0
LINE
8
BLACK
6
CONTINUOUS
10
5.1044773622047241
20
-13.4234469291338581
11
5.1082268897637793
21
-13.4159478740157478
0
LINE
8
BLACK
6
CONTINUOUS
10
5.1082268897637793
20
-13.4159478740157478
11
5.1157259448818895
21
-13.4046992519685038
0
LINE
8
BLACK
6
CONTINUOUS
10
5.1157259448818895
20
-13.4046992519685038
11
5.1194755118110233
21
-13.4009497244094486
0
LINE
8
BLACK
6
CONTINUOUS
10
5.1494717322834642
20
-13.4384450393700785
11
5.1494717322834642
21
-13.4909385039370076
0
LINE
8
BLACK
6
CONTINUOUS
10
5.1494717322834642
20
-13.4459440944881887
11
5.1532212598425193
21
-13.4421945669291336
0
LINE
8
BLACK
6
CONTINUOUS
10
5.1532212598425193
20
-13.4421945669291336
11
5.1607203149606296
21
-13.4384450393700785
0
LINE
8
BLACK
6
CONTINUOUS
10
5.1607203149606296
20
-13.4384450393700785
11
5.1719689370078736
21
-13.4384450393700785
0
LINE
8
BLACK
6
CONTINUOUS
10
5.1719689370078736
20
-13.4384450393700785
11
5.1794679921259839
21
-13.4421945669291336
0
LINE
8
BLACK
6
CONTINUOUS
10
5.1794679921259839
20
-13.4421945669291336
11
5.183217519685039
21
-13.4496936614173226
0
LINE
8
BLACK
6
CONTINUOUS
10
5.183217519685039
20
-13.4496936614173226
11
5.183217519685039
21
-13.4909385039370076
0
LINE
8
BLACK
6
CONTINUOUS
10
5.2319614173228342
20
-13.4909385039370076
11
5.2244623622047239
21
-13.4871889763779524
0
LINE
8
BLACK
6
CONTINUOUS
10
5.2244623622047239
20
-13.4871889763779524
11
5.2207128346456688
21
-13.4834394094488186
0
LINE
8
BLACK
6
CONTINUOUS
10
5.2207128346456688
20
-13.4834394094488186
11
5.2169633070866137
21
-13.4759403543307084
0
LINE
8
BLACK
6
CONTINUOUS
10
5.2169633070866137
20
-13.4759403543307084
11
5.2169633070866137
21
-13.4534431889763777
0
LINE
8
BLACK
6
CONTINUOUS
10
5.2169633070866137
20
-13.4534431889763777
11
5.2207128346456688
21
-13.4459440944881887
0
LINE
8
BLACK
6
CONTINUOUS
10
5.2207128346456688
20
-13.4459440944881887
11
5.2244623622047239
21
-13.4421945669291336
0
LINE
8
BLACK
6
CONTINUOUS
10
5.2244623622047239
20
-13.4421945669291336
11
5.2319614173228342
21
-13.4384450393700785
0
LINE
8
BLACK
6
CONTINUOUS
10
5.2319614173228342
20
-13.4384450393700785
11
5.2432100393700782
21
-13.4384450393700785
0
LINE
8
BLACK
6
CONTINUOUS
10
5.2432100393700782
20
-13.4384450393700785
11
5.2507090944881885
21
-13.4421945669291336
0
LINE
8
BLACK
6
CONTINUOUS
10
5.2507090944881885
20
-13.4421945669291336
11
5.2544586220472436
21
-13.4459440944881887
0
LINE
8
BLACK
6
CONTINUOUS
10
5.2544586220472436
20
-13.4459440944881887
11
5.2582081496062987
21
-13.4534431889763777
0
LINE
8
BLACK
6
CONTINUOUS
10
5.2582081496062987
20
-13.4534431889763777
11
5.2582081496062987
21
-13.4759403543307084
0
LINE
8
BLACK
6
CONTINUOUS
10
5.2582081496062987
20
-13.4759403543307084
11
5.2544586220472436
21
-13.4834394094488186
0
LINE
8
BLACK
6
CONTINUOUS
10
5.2544586220472436
20
-13.4834394094488186
11
5.2507090944881885
21
-13.4871889763779524
0
LINE
8
BLACK
6
CONTINUOUS
10
5.2507090944881885
20
-13.4871889763779524
11
5.2432100393700782
21
-13.4909385039370076
0
LINE
8
BLACK
6
CONTINUOUS
10
5.2432100393700782
20
-13.4909385039370076
11
5.2319614173228342
21
-13.4909385039370076
0
LINE
8
BLACK
6
CONTINUOUS
10
5.280705354330709
20
-13.4384450393700785
11
5.3107015748031499
21
-13.4384450393700785
0
LINE
8
BLACK
6
CONTINUOUS
10
5.2919539370078743
20
-13.4121983464566927
11
5.2919539370078743
21
-13.4796898818897635
0
LINE
8
BLACK
6
CONTINUOUS
10
5.2919539370078743
20
-13.4796898818897635
11
5.2957034645669294
21
-13.4871889763779524
0
LINE
8
BLACK
6
CONTINUOUS
10
5.2957034645669294
20
-13.4871889763779524
11
5.3032025196850396
21
-13.4909385039370076
0
LINE
8
BLACK
6
CONTINUOUS
10
5.3032025196850396
20
-13.4909385039370076
11
5.3107015748031499
21
-13.4909385039370076
0
LINE
8
BLACK
6
CONTINUOUS
10
5.3969408267716537
20
-13.4384450393700785
11
5.3969408267716537
21
-13.5171851968503933
0
LINE
8
BLACK
6
CONTINUOUS
10
5.3969408267716537
20
-13.4421945669291336
11
5.4044398818897639
21
-13.4384450393700785
0
LINE
8
BLACK
6
CONTINUOUS
10
5.4044398818897639
20
-13.4384450393700785
11
5.4194380314960631
21
-13.4384450393700785
0
LINE
8
BLACK
6
CONTINUOUS
10
5.4194380314960631
20
-13.4384450393700785
11
5.4269370866141733
21
-13.4421945669291336
0
LINE
8
BLACK
6
CONTINUOUS
10
5.4269370866141733
20
-13.4421945669291336
11
5.4306866141732284
21
-13.4459440944881887
0
LINE
8
BLACK
6
CONTINUOUS
10
5.4306866141732284
20
-13.4459440944881887
11
5.4344361417322835
21
-13.4534431889763777
0
LINE
8
BLACK
6
CONTINUOUS
10
5.4344361417322835
20
-13.4534431889763777
11
5.4344361417322835
21
-13.4759403543307084
0
LINE
8
BLACK
6
CONTINUOUS
10
5.4344361417322835
20
-13.4759403543307084
11
5.4306866141732284
21
-13.4834394094488186
0
LINE
8
BLACK
6
CONTINUOUS
10
5.4306866141732284
20
-13.4834394094488186
11
5.4269370866141733
21
-13.4871889763779524
0
LINE
8
BLACK
6
CONTINUOUS
10
5.4269370866141733
20
-13.4871889763779524
11
5.4194380314960631
21
-13.4909385039370076
0
LINE
8
BLACK
6
CONTINUOUS
10
5.4194380314960631
20
-13.4909385039370076
11
5.4044398818897639
21
-13.4909385039370076
0
LINE
8
BLACK
6
CONTINUOUS
10
5.4044398818897639
20
-13.4909385039370076
11
5.3969408267716537
21
-13.4871889763779524
0
LINE
8
BLACK
6
CONTINUOUS
10
5.4794305118110236
20
-13.4909385039370076
11
5.4719314566929134
21
-13.4871889763779524
0
LINE
8
BLACK
6
CONTINUOUS
10
5.4719314566929134
20
-13.4871889763779524
11
5.4681819291338583
21
-13.4796898818897635
0
LINE
8
BLACK
6
CONTINUOUS
10
5.4681819291338583
20
-13.4796898818897635
11
5.4681819291338583
21
-13.4121983464566927
0
LINE
8
BLACK
6
CONTINUOUS
10
5.543172559055118
20
-13.4909385039370076
11
5.543172559055118
21
-13.4496936614173226
0
LINE
8
BLACK
6
CONTINUOUS
10
5.543172559055118
20
-13.4496936614173226
11
5.5394230314960629
21
-13.4421945669291336
0
LINE
8
BLACK
6
CONTINUOUS
10
5.5394230314960629
20
-13.4421945669291336
11
5.5319239763779526
21
-13.4384450393700785
0
LINE
8
BLACK
6
CONTINUOUS
10
5.5319239763779526
20
-13.4384450393700785
11
5.5169258267716534
21
-13.4384450393700785
0
LINE
8
BLACK
6
CONTINUOUS
10
5.5169258267716534
20
-13.4384450393700785
11
5.5094267716535432
21
-13.4421945669291336
0
LINE
8
BLACK
6
CONTINUOUS
10
5.543172559055118
20
-13.4871889763779524
11
5.5356735039370077
21
-13.4909385039370076
0
LINE
8
BLACK
6
CONTINUOUS
10
5.5356735039370077
20
-13.4909385039370076
11
5.5169258267716534
21
-13.4909385039370076
0
LINE
8
BLACK
6
CONTINUOUS
10
5.5169258267716534
20
-13.4909385039370076
11
5.5094267716535432
21
-13.4871889763779524
0
LINE
8
BLACK
6
CONTINUOUS
10
5.5094267716535432
20
-13.4871889763779524
11
5.5056772440944881
21
-13.4796898818897635
0
LINE
8
BLACK
6
CONTINUOUS
10
5.5056772440944881
20
-13.4796898818897635
11
5.5056772440944881
21
-13.4721908267716532
0
LINE
8
BLACK
6
CONTINUOUS
10
5.5056772440944881
20
-13.4721908267716532
11
5.5094267716535432
21
-13.464691771653543
0
LINE
8
BLACK
6
CONTINUOUS
10
5.5094267716535432
20
-13.464691771653543
11
5.5169258267716534
21
-13.4609422440944879
0
LINE
8
BLACK
6
CONTINUOUS
10
5.5169258267716534
20
-13.4609422440944879
11
5.5356735039370077
21
-13.4609422440944879
0
LINE
8
BLACK
6
CONTINUOUS
10
5.5356735039370077
20
-13.4609422440944879
11
5.543172559055118
21
-13.4571927165354328
0
LINE
8
BLACK
6
CONTINUOUS
10
5.5694192913385825
20
-13.4384450393700785
11
5.5994155118110234
21
-13.4384450393700785
0
LINE
8
BLACK
6
CONTINUOUS
10
5.5806678740157478
20
-13.4121983464566927
11
5.5806678740157478
21
-13.4796898818897635
0
LINE
8
BLACK
6
CONTINUOUS
10
5.5806678740157478
20
-13.4796898818897635
11
5.5844174015748029
21
-13.4871889763779524
0
LINE
8
BLACK
6
CONTINUOUS
10
5.5844174015748029
20
-13.4871889763779524
11
5.5919164566929132
21
-13.4909385039370076
0
LINE
8
BLACK
6
CONTINUOUS
10
5.5919164566929132
20
-13.4909385039370076
11
5.5994155118110234
21
-13.4909385039370076
0
LINE
8
BLACK
6
CONTINUOUS
10
5.6556585039370075
20
-13.4871889763779524
11
5.6481594488188973
21
-13.4909385039370076
0
LINE
8
BLACK
6
CONTINUOUS
10
5.6481594488188973
20
-13.4909385039370076
11
5.6331612992125981
21
-13.4909385039370076
0
LINE
8
BLACK
6
CONTINUOUS
10
5.6331612992125981
20
-13.4909385039370076
11
5.6256622440944879
21
-13.4871889763779524
0
LINE
8
BLACK
6
CONTINUOUS
10
5.6256622440944879
20
-13.4871889763779524
11
5.6219127165354328
21
-13.4796898818897635
0
LINE
8
BLACK
6
CONTINUOUS
10
5.6219127165354328
20
-13.4796898818897635
11
5.6219127165354328
21
-13.4496936614173226
0
LINE
8
BLACK
6
CONTINUOUS
10
5.6219127165354328
20
-13.4496936614173226
11
5.6256622440944879
21
-13.4421945669291336
0
LINE
8
BLACK
6
CONTINUOUS
10
5.6256622440944879
20
-13.4421945669291336
11
5.6331612992125981
21
-13.4384450393700785
0
LINE
8
BLACK
6
CONTINUOUS
10
5.6331612992125981
20
-13.4384450393700785
11
5.6481594488188973
21
-13.4384450393700785
0
LINE
8
BLACK
6
CONTINUOUS
10
5.6481594488188973
20
-13.4384450393700785
11
5.6556585039370075
21
-13.4421945669291336
0
LINE
8
BLACK
6
CONTINUOUS
10
5.6556585039370075
20
-13.4421945669291336
11
5.6594080314960626
21
-13.4496936614173226
0
LINE
8
BLACK
6
CONTINUOUS
10
5.6594080314960626
20
-13.4496936614173226
11
5.6594080314960626
21
-13.4571927165354328
0
LINE
8
BLACK
6
CONTINUOUS
10
5.6594080314960626
20
-13.4571927165354328
11
5.6219127165354328
21
-13.464691771653543
0
LINE
8
BLACK
6
CONTINUOUS
10
5.7268996062992121
20
-13.4909385039370076
11
5.7268996062992121
21
-13.4121983464566927
0
LINE
8
BLACK
6
CONTINUOUS
10
5.7268996062992121
20
-13.4871889763779524
11
5.7194005511811019
21
-13.4909385039370076
0
LINE
8
BLACK
6
CONTINUOUS
10
5.7194005511811019
20
-13.4909385039370076
11
5.7044024015748027
21
-13.4909385039370076
0
LINE
8
BLACK
6
CONTINUOUS
10
5.7044024015748027
20
-13.4909385039370076
11
5.6969033464566925
21
-13.4871889763779524
0
LINE
8
BLACK
6
CONTINUOUS
10
5.6969033464566925
20
-13.4871889763779524
11
5.6931538188976374
21
-13.4834394094488186
0
LINE
8
BLACK
6
CONTINUOUS
10
5.6931538188976374
20
-13.4834394094488186
11
5.6894042913385823
21
-13.4759403543307084
0
LINE
8
BLACK
6
CONTINUOUS
10
5.6894042913385823
20
-13.4759403543307084
11
5.6894042913385823
21
-13.4534431889763777
0
LINE
8
BLACK
6
CONTINUOUS
10
5.6894042913385823
20
-13.4534431889763777
11
5.6931538188976374
21
-13.4459440944881887
0
LINE
8
BLACK
6
CONTINUOUS
10
5.6931538188976374
20
-13.4459440944881887
11
5.6969033464566925
21
-13.4421945669291336
0
LINE
8
BLACK
6
CONTINUOUS
10
5.6969033464566925
20
-13.4421945669291336
11
5.7044024015748027
21
-13.4384450393700785
0
LINE
8
BLACK
6
CONTINUOUS
10
5.7044024015748027
20
-13.4384450393700785
11
5.7194005511811019
21
-13.4384450393700785
0
LINE
8
BLACK
6
CONTINUOUS
10
5.7194005511811019
20
-13.4384450393700785
11
5.7268996062992121
21
-13.4421945669291336
0
LINE
8
BLACK
6
CONTINUOUS
10
5.7568958661417318
20
-13.5209347244094484
11
5.7606453937007869
21
-13.5171851968503933
0
LINE
8
BLACK
6
CONTINUOUS
10
5.7606453937007869
20
-13.5171851968503933
11
5.7681444488188971
21
-13.505936614173228
0
LINE
8
BLACK
6
CONTINUOUS
10
5.7681444488188971
20
-13.505936614173228
11
5.7718939763779522
21
-13.4984375590551178
0
LINE
8
BLACK
6
CONTINUOUS
10
5.7718939763779522
20
-13.4984375590551178
11
5.7756435039370073
21
-13.4871889763779524
0
LINE
8
BLACK
6
CONTINUOUS
10
5.7756435039370073
20
-13.4871889763779524
11
5.7793930314960624
21
-13.4684412992125981
0
LINE
8
BLACK
6
CONTINUOUS
10
5.7793930314960624
20
-13.4684412992125981
11
5.7793930314960624
21
-13.4534431889763777
0
LINE
8
BLACK
6
CONTINUOUS
10
5.7793930314960624
20
-13.4534431889763777
11
5.7756435039370073
21
-13.4346955118110234
0
LINE
8
BLACK
6
CONTINUOUS
10
5.7756435039370073
20
-13.4346955118110234
11
5.7718939763779522
21
-13.4234469291338581
0
LINE
8
BLACK
6
CONTINUOUS
10
5.7718939763779522
20
-13.4234469291338581
11
5.7681444488188971
21
-13.4159478740157478
0
LINE
8
BLACK
6
CONTINUOUS
10
5.7681444488188971
20
-13.4159478740157478
11
5.7606453937007869
21
-13.4046992519685038
0
LINE
8
BLACK
6
CONTINUOUS
10
5.7606453937007869
20
-13.4046992519685038
11
5.7568958661417318
21
-13.4009497244094486
0
CIRCLE
8
BLACK
10
3.0576771653543307
20
-13.5588582677165359
40
0.0393700787401575
0
LINE
8
BLACK
6
CONTINUOUS
10
3.195965748031496
20
-13.5236344094488192
11
3.1997152755905511
21
-13.5198848818897641
0
LINE
8
BLACK
6
CONTINUOUS
10
3.1997152755905511
20
-13.5198848818897641
11
3.2072143307086614
21
-13.516135354330709
0
LINE
8
BLACK
6
CONTINUOUS
10
3.2072143307086614
20
-13.516135354330709
11
3.2259620078740157
21
-13.516135354330709
0
LINE
8
BLACK
6
CONTINUOUS
10
3.2259620078740157
20
-13.516135354330709
11
3.2334610629921259
21
-13.5198848818897641
0
LINE
8
BLACK
6
CONTINUOUS
10
3.2334610629921259
20
-13.5198848818897641
11
3.237210590551181
21
-13.5236344094488192
0
LINE
8
BLACK
6
CONTINUOUS
10
3.237210590551181
20
-13.5236344094488192
11
3.2409601181102361
21
-13.5311334645669294
0
LINE
8
BLACK
6
CONTINUOUS
10
3.2409601181102361
20
-13.5311334645669294
11
3.2409601181102361
21
-13.5386325196850397
0
LINE
8
BLACK
6
CONTINUOUS
10
3.2409601181102361
20
-13.5386325196850397
11
3.237210590551181
21
-13.549881102362205
0
LINE
8
BLACK
6
CONTINUOUS
10
3.237210590551181
20
-13.549881102362205
11
3.1922162204724409
21
-13.5948755118110238
0
LINE
8
BLACK
6
CONTINUOUS
10
3.1922162204724409
20
-13.5948755118110238
11
3.2409601181102361
21
-13.5948755118110238
0
LINE
8
BLACK
6
CONTINUOUS
10
3.2747059055118108
20
-13.5873764173228349
11
3.278455433070866
21
-13.5911259842519687
0
LINE
8
BLACK
6
CONTINUOUS
10
3.278455433070866
20
-13.5911259842519687
11
3.2747059055118108
21
-13.5948755118110238
0
LINE
8
BLACK
6
CONTINUOUS
10
3.2747059055118108
20
-13.5948755118110238
11
3.2709563779527557
21
-13.5911259842519687
0
LINE
8
BLACK
6
CONTINUOUS
10
3.2709563779527557
20
-13.5911259842519687
11
3.2747059055118108
21
-13.5873764173228349
0
LINE
8
BLACK
6
CONTINUOUS
10
3.2747059055118108
20
-13.5873764173228349
11
3.2747059055118108
21
-13.5948755118110238
0
LINE
8
BLACK
6
CONTINUOUS
10
3.349696535433071
20
-13.516135354330709
11
3.3122012204724407
21
-13.516135354330709
0
LINE
8
BLACK
6
CONTINUOUS
10
3.3122012204724407
20
-13.516135354330709
11
3.3084516929133856
21
-13.5536306692913389
0
LINE
8
BLACK
6
CONTINUOUS
10
3.3084516929133856
20
-13.5536306692913389
11
3.3122012204724407
21
-13.549881102362205
0
LINE
8
BLACK
6
CONTINUOUS
10
3.3122012204724407
20
-13.549881102362205
11
3.3197002755905509
21
-13.5461315748031499
0
LINE
8
BLACK
6
CONTINUOUS
10
3.3197002755905509
20
-13.5461315748031499
11
3.3384479527559052
21
-13.5461315748031499
0
LINE
8
BLACK
6
CONTINUOUS
10
3.3384479527559052
20
-13.5461315748031499
11
3.3459470078740159
21
-13.549881102362205
0
LINE
8
BLACK
6
CONTINUOUS
10
3.3459470078740159
20
-13.549881102362205
11
3.349696535433071
21
-13.5536306692913389
0
LINE
8
BLACK
6
CONTINUOUS
10
3.349696535433071
20
-13.5536306692913389
11
3.3534460629921261
21
-13.5611297244094491
0
LINE
8
BLACK
6
CONTINUOUS
10
3.3534460629921261
20
-13.5611297244094491
11
3.3534460629921261
21
-13.5798773622047246
0
LINE
8
BLACK
6
CONTINUOUS
10
3.3534460629921261
20
-13.5798773622047246
11
3.349696535433071
21
-13.5873764173228349
0
LINE
8
BLACK
6
CONTINUOUS
10
3.349696535433071
20
-13.5873764173228349
11
3.3459470078740159
21
-13.5911259842519687
0
LINE
8
BLACK
6
CONTINUOUS
10
3.3459470078740159
20
-13.5911259842519687
11
3.3384479527559052
21
-13.5948755118110238
0
LINE
8
BLACK
6
CONTINUOUS
10
3.3384479527559052
20
-13.5948755118110238
11
3.3197002755905509
21
-13.5948755118110238
0
LINE
8
BLACK
6
CONTINUOUS
10
3.3197002755905509
20
-13.5948755118110238
11
3.3122012204724407
21
-13.5911259842519687
0
LINE
8
BLACK
6
CONTINUOUS
10
3.3122012204724407
20
-13.5911259842519687
11
3.3084516929133856
21
-13.5873764173228349
0
LINE
8
BLACK
6
CONTINUOUS
10
3.4021899606299213
20
-13.516135354330709
11
3.4096890551181103
21
-13.516135354330709
0
LINE
8
BLACK
6
CONTINUOUS
10
3.4096890551181103
20
-13.516135354330709
11
3.4171881102362205
21
-13.5198848818897641
0
LINE
8
BLACK
6
CONTINUOUS
10
3.4171881102362205
20
-13.5198848818897641
11
3.4209376377952756
21
-13.5236344094488192
0
LINE
8
BLACK
6
CONTINUOUS
10
3.4209376377952756
20
-13.5236344094488192
11
3.4246871653543307
21
-13.5311334645669294
0
LINE
8
BLACK
6
CONTINUOUS
10
3.4246871653543307
20
-13.5311334645669294
11
3.4284366929133858
21
-13.5461315748031499
0
LINE
8
BLACK
6
CONTINUOUS
10
3.4284366929133858
20
-13.5461315748031499
11
3.4284366929133858
21
-13.5648792519685042
0
LINE
8
BLACK
6
CONTINUOUS
10
3.4284366929133858
20
-13.5648792519685042
11
3.4246871653543307
21
-13.5798773622047246
0
LINE
8
BLACK
6
CONTINUOUS
10
3.4246871653543307
20
-13.5798773622047246
11
3.4209376377952756
21
-13.5873764173228349
0
LINE
8
BLACK
6
CONTINUOUS
10
3.4209376377952756
20
-13.5873764173228349
11
3.4171881102362205
21
-13.5911259842519687
0
LINE
8
BLACK
6
CONTINUOUS
10
3.4171881102362205
20
-13.5911259842519687
11
3.4096890551181103
21
-13.5948755118110238
0
LINE
8
BLACK
6
CONTINUOUS
10
3.4096890551181103
20
-13.5948755118110238
11
3.4021899606299213
21
-13.5948755118110238
0
LINE
8
BLACK
6
CONTINUOUS
10
3.4021899606299213
20
-13.5948755118110238
11
3.3946909055118111
21
-13.5911259842519687
0
LINE
8
BLACK
6
CONTINUOUS
10
3.3946909055118111
20
-13.5911259842519687
11
3.390941377952756
21
-13.5873764173228349
0
LINE
8
BLACK
6
CONTINUOUS
10
3.390941377952756
20
-13.5873764173228349
11
3.3871918503937009
21
-13.5798773622047246
0
LINE
8
BLACK
6
CONTINUOUS
10
3.3871918503937009
20
-13.5798773622047246
11
3.3834423228346457
21
-13.5648792519685042
0
LINE
8
BLACK
6
CONTINUOUS
10
3.3834423228346457
20
-13.5648792519685042
11
3.3834423228346457
21
-13.5461315748031499
0
LINE
8
BLACK
6
CONTINUOUS
10
3.3834423228346457
20
-13.5461315748031499
11
3.3871918503937009
21
-13.5311334645669294
0
LINE
8
BLACK
6
CONTINUOUS
10
3.3871918503937009
20
-13.5311334645669294
11
3.390941377952756
21
-13.5236344094488192
0
LINE
8
BLACK
6
CONTINUOUS
10
3.390941377952756
20
-13.5236344094488192
11
3.3946909055118111
21
-13.5198848818897641
0
LINE
8
BLACK
6
CONTINUOUS
10
3.3946909055118111
20
-13.5198848818897641
11
3.4021899606299213
21
-13.516135354330709
0
LINE
8
BLACK
6
CONTINUOUS
10
3.477180590551181
20
-13.516135354330709
11
3.48467968503937
21
-13.516135354330709
0
LINE
8
BLACK
6
CONTINUOUS
10
3.48467968503937
20
-13.516135354330709
11
3.4921787401574802
21
-13.5198848818897641
0
LINE
8
BLACK
6
CONTINUOUS
10
3.4921787401574802
20
-13.5198848818897641
11
3.4959282677165353
21
-13.5236344094488192
0
LINE
8
BLACK
6
CONTINUOUS
10
3.4959282677165353
20
-13.5236344094488192
11
3.4996777952755904
21
-13.5311334645669294
0
LINE
8
BLACK
6
CONTINUOUS
10
3.4996777952755904
20
-13.5311334645669294
11
3.5034273228346455
21
-13.5461315748031499
0
LINE
8
BLACK
6
CONTINUOUS
10
3.5034273228346455
20
-13.5461315748031499
11
3.5034273228346455
21
-13.5648792519685042
0
LINE
8
BLACK
6
CONTINUOUS
10
3.5034273228346455
20
-13.5648792519685042
11
3.4996777952755904
21
-13.5798773622047246
0
LINE
8
BLACK
6
CONTINUOUS
10
3.4996777952755904
20
-13.5798773622047246
11
3.4959282677165353
21
-13.5873764173228349
0
LINE
8
BLACK
6
CONTINUOUS
10
3.4959282677165353
20
-13.5873764173228349
11
3.4921787401574802
21
-13.5911259842519687
0
LINE
8
BLACK
6
CONTINUOUS
10
3.4921787401574802
20
-13.5911259842519687
11
3.48467968503937
21
-13.5948755118110238
0
LINE
8
BLACK
6
CONTINUOUS
10
3.48467968503937
20
-13.5948755118110238
11
3.477180590551181
21
-13.5948755118110238
0
LINE
8
BLACK
6
CONTINUOUS
10
3.477180590551181
20
-13.5948755118110238
11
3.4696815354330708
21
-13.5911259842519687
0
LINE
8
BLACK
6
CONTINUOUS
10
3.4696815354330708
20
-13.5911259842519687
11
3.4659320078740157
21
-13.5873764173228349
0
LINE
8
BLACK
6
CONTINUOUS
10
3.4659320078740157
20
-13.5873764173228349
11
3.4621824803149606
21
-13.5798773622047246
0
LINE
8
BLACK
6
CONTINUOUS
10
3.4621824803149606
20
-13.5798773622047246
11
3.4584329527559055
21
-13.5648792519685042
0
LINE
8
BLACK
6
CONTINUOUS
10
3.4584329527559055
20
-13.5648792519685042
11
3.4584329527559055
21
-13.5461315748031499
0
LINE
8
BLACK
6
CONTINUOUS
10
3.4584329527559055
20
-13.5461315748031499
11
3.4621824803149606
21
-13.5311334645669294
0
LINE
8
BLACK
6
CONTINUOUS
10
3.4621824803149606
20
-13.5311334645669294
11
3.4659320078740157
21
-13.5236344094488192
0
LINE
8
BLACK
6
CONTINUOUS
10
3.4659320078740157
20
-13.5236344094488192
11
3.4696815354330708
21
-13.5198848818897641
0
LINE
8
BLACK
6
CONTINUOUS
10
3.4696815354330708
20
-13.5198848818897641
11
3.477180590551181
21
-13.516135354330709
0
LINE
8
BLACK
6
CONTINUOUS
10
3.5371731102362203
20
-13.5948755118110238
11
3.5371731102362203
21
-13.5423820472440948
0
LINE
8
BLACK
6
CONTINUOUS
10
3.5371731102362203
20
-13.549881102362205
11
3.5409226377952754
21
-13.5461315748031499
0
LINE
8
BLACK
6
CONTINUOUS
10
3.5409226377952754
20
-13.5461315748031499
11
3.5484216929133856
21
-13.5423820472440948
0
LINE
8
BLACK
6
CONTINUOUS
10
3.5484216929133856
20
-13.5423820472440948
11
3.5596703149606297
21
-13.5423820472440948
0
LINE
8
BLACK
6
CONTINUOUS
10
3.5596703149606297
20
-13.5423820472440948
11
3.5671693700787399
21
-13.5461315748031499
0
LINE
8
BLACK
6
CONTINUOUS
10
3.5671693700787399
20
-13.5461315748031499
11
3.570918897637795
21
-13.5536306692913389
0
LINE
8
BLACK
6
CONTINUOUS
10
3.570918897637795
20
-13.5536306692913389
11
3.570918897637795
21
-13.5948755118110238
0
LINE
8
BLACK
6
CONTINUOUS
10
3.570918897637795
20
-13.5536306692913389
11
3.5746684251968501
21
-13.5461315748031499
0
LINE
8
BLACK
6
CONTINUOUS
10
3.5746684251968501
20
-13.5461315748031499
11
3.5821674803149604
21
-13.5423820472440948
0
LINE
8
BLACK
6
CONTINUOUS
10
3.5821674803149604
20
-13.5423820472440948
11
3.5934160629921257
21
-13.5423820472440948
0
LINE
8
BLACK
6
CONTINUOUS
10
3.5934160629921257
20
-13.5423820472440948
11
3.6009151574803151
21
-13.5461315748031499
0
LINE
8
BLACK
6
CONTINUOUS
10
3.6009151574803151
20
-13.5461315748031499
11
3.6046646850393702
21
-13.5536306692913389
0
LINE
8
BLACK
6
CONTINUOUS
10
3.6046646850393702
20
-13.5536306692913389
11
3.6046646850393702
21
-13.5948755118110238
0
LINE
8
BLACK
6
CONTINUOUS
10
3.6421600000000001
20
-13.5948755118110238
11
3.6421600000000001
21
-13.5423820472440948
0
LINE
8
BLACK
6
CONTINUOUS
10
3.6421600000000001
20
-13.549881102362205
11
3.6459095275590552
21
-13.5461315748031499
0
LINE
8
BLACK
6
CONTINUOUS
10
3.6459095275590552
20
-13.5461315748031499
11
3.6534085826771654
21
-13.5423820472440948
0
LINE
8
BLACK
6
CONTINUOUS
10
3.6534085826771654
20
-13.5423820472440948
11
3.6646572047244095
21
-13.5423820472440948
0
LINE
8
BLACK
6
CONTINUOUS
10
3.6646572047244095
20
-13.5423820472440948
11
3.6721562598425197
21
-13.5461315748031499
0
LINE
8
BLACK
6
CONTINUOUS
10
3.6721562598425197
20
-13.5461315748031499
11
3.6759057874015748
21
-13.5536306692913389
0
LINE
8
BLACK
6
CONTINUOUS
10
3.6759057874015748
20
-13.5536306692913389
11
3.6759057874015748
21
-13.5948755118110238
0
LINE
8
BLACK
6
CONTINUOUS
10
3.6759057874015748
20
-13.5536306692913389
11
3.6796553149606299
21
-13.5461315748031499
0
LINE
8
BLACK
6
CONTINUOUS
10
3.6796553149606299
20
-13.5461315748031499
11
3.6871543700787401
21
-13.5423820472440948
0
LINE
8
BLACK
6
CONTINUOUS
10
3.6871543700787401
20
-13.5423820472440948
11
3.6984029527559055
21
-13.5423820472440948
0
LINE
8
BLACK
6
CONTINUOUS
10
3.6984029527559055
20
-13.5423820472440948
11
3.7059020472440944
21
-13.5461315748031499
0
LINE
8
BLACK
6
CONTINUOUS
10
3.7059020472440944
20
-13.5461315748031499
11
3.7096515748031496
21
-13.5536306692913389
0
LINE
8
BLACK
6
CONTINUOUS
10
3.7096515748031496
20
-13.5536306692913389
11
3.7096515748031496
21
-13.5948755118110238
0
LINE
8
BLACK
6
CONTINUOUS
10
3.8633823622047245
20
-13.5123858267716539
11
3.7958908267716533
21
-13.6136231496062994
0
LINE
8
BLACK
6
CONTINUOUS
10
3.9646197244094488
20
-13.516135354330709
11
3.9721188188976377
21
-13.516135354330709
0
LINE
8
BLACK
6
CONTINUOUS
10
3.9721188188976377
20
-13.516135354330709
11
3.979617874015748
21
-13.5198848818897641
0
LINE
8
BLACK
6
CONTINUOUS
10
3.979617874015748
20
-13.5198848818897641
11
3.9833674015748031
21
-13.5236344094488192
0
LINE
8
BLACK
6
CONTINUOUS
10
3.9833674015748031
20
-13.5236344094488192
11
3.9871169291338582
21
-13.5311334645669294
0
LINE
8
BLACK
6
CONTINUOUS
10
3.9871169291338582
20
-13.5311334645669294
11
3.9908664566929133
21
-13.5461315748031499
0
LINE
8
BLACK
6
CONTINUOUS
10
3.9908664566929133
20
-13.5461315748031499
11
3.9908664566929133
21
-13.5648792519685042
0
LINE
8
BLACK
6
CONTINUOUS
10
3.9908664566929133
20
-13.5648792519685042
11
3.9871169291338582
21
-13.5798773622047246
0
LINE
8
BLACK
6
CONTINUOUS
10
3.9871169291338582
20
-13.5798773622047246
11
3.9833674015748031
21
-13.5873764173228349
0
LINE
8
BLACK
6
CONTINUOUS
10
3.9833674015748031
20
-13.5873764173228349
11
3.979617874015748
21
-13.5911259842519687
0
LINE
8
BLACK
6
CONTINUOUS
10
3.979617874015748
20
-13.5911259842519687
11
3.9721188188976377
21
-13.5948755118110238
0
LINE
8
BLACK
6
CONTINUOUS
10
3.9721188188976377
20
-13.5948755118110238
11
3.9646197244094488
21
-13.5948755118110238
0
LINE
8
BLACK
6
CONTINUOUS
10
3.9646197244094488
20
-13.5948755118110238
11
3.9571206692913385
21
-13.5911259842519687
0
LINE
8
BLACK
6
CONTINUOUS
10
3.9571206692913385
20
-13.5911259842519687
11
3.9533711417322834
21
-13.5873764173228349
0
LINE
8
BLACK
6
CONTINUOUS
10
3.9533711417322834
20
-13.5873764173228349
11
3.9496216141732283
21
-13.5798773622047246
0
LINE
8
BLACK
6
CONTINUOUS
10
3.9496216141732283
20
-13.5798773622047246
11
3.9458720866141732
21
-13.5648792519685042
0
LINE
8
BLACK
6
CONTINUOUS
10
3.9458720866141732
20
-13.5648792519685042
11
3.9458720866141732
21
-13.5461315748031499
0
LINE
8
BLACK
6
CONTINUOUS
10
3.9458720866141732
20
-13.5461315748031499
11
3.9496216141732283
21
-13.5311334645669294
0
LINE
8
BLACK
6
CONTINUOUS
10
3.9496216141732283
20
-13.5311334645669294
11
3.9533711417322834
21
-13.5236344094488192
0
LINE
8
BLACK
6
CONTINUOUS
10
3.9533711417322834
20
-13.5236344094488192
11
3.9571206692913385
21
-13.5198848818897641
0
LINE
8
BLACK
6
CONTINUOUS
10
3.9571206692913385
20
-13.5198848818897641
11
3.9646197244094488
21
-13.516135354330709
0
LINE
8
BLACK
6
CONTINUOUS
10
4.024612244094488
20
-13.5873764173228349
11
4.0283617716535431
21
-13.5911259842519687
0
LINE
8
BLACK
6
CONTINUOUS
10
4.0283617716535431
20
-13.5911259842519687
11
4.024612244094488
21
-13.5948755118110238
0
LINE
8
BLACK
6
CONTINUOUS
10
4.024612244094488
20
-13.5948755118110238
11
4.0208627165354329
21
-13.5911259842519687
0
LINE
8
BLACK
6
CONTINUOUS
10
4.0208627165354329
20
-13.5911259842519687
11
4.024612244094488
21
-13.5873764173228349
0
LINE
8
BLACK
6
CONTINUOUS
10
4.024612244094488
20
-13.5873764173228349
11
4.024612244094488
21
-13.5948755118110238
0
LINE
8
BLACK
6
CONTINUOUS
10
4.0771056692913383
20
-13.516135354330709
11
4.0846047637795273
21
-13.516135354330709
0
LINE
8
BLACK
6
CONTINUOUS
10
4.0846047637795273
20
-13.516135354330709
11
4.0921038188976375
21
-13.5198848818897641
0
LINE
8
BLACK
6
CONTINUOUS
10
4.0921038188976375
20
-13.5198848818897641
11
4.0958533464566926
21
-13.5236344094488192
0
LINE
8
BLACK
6
CONTINUOUS
10
4.0958533464566926
20
-13.5236344094488192
11
4.0996028740157477
21
-13.5311334645669294
0
LINE
8
BLACK
6
CONTINUOUS
10
4.0996028740157477
20
-13.5311334645669294
11
4.1033524015748029
21
-13.5461315748031499
0
LINE
8
BLACK
6
CONTINUOUS
10
4.1033524015748029
20
-13.5461315748031499
11
4.1033524015748029
21
-13.5648792519685042
0
LINE
8
BLACK
6
CONTINUOUS
10
4.1033524015748029
20
-13.5648792519685042
11
4.0996028740157477
21
-13.5798773622047246
0
LINE
8
BLACK
6
CONTINUOUS
10
4.0996028740157477
20
-13.5798773622047246
11
4.0958533464566926
21
-13.5873764173228349
0
LINE
8
BLACK
6
CONTINUOUS
10
4.0958533464566926
20
-13.5873764173228349
11
4.0921038188976375
21
-13.5911259842519687
0
LINE
8
BLACK
6
CONTINUOUS
10
4.0921038188976375
20
-13.5911259842519687
11
4.0846047637795273
21
-13.5948755118110238
0
LINE
8
BLACK
6
CONTINUOUS
10
4.0846047637795273
20
-13.5948755118110238
11
4.0771056692913383
21
-13.5948755118110238
0
LINE
8
BLACK
6
CONTINUOUS
10
4.0771056692913383
20
-13.5948755118110238
11
4.0696066141732281
21
-13.5911259842519687
0
LINE
8
BLACK
6
CONTINUOUS
10
4.0696066141732281
20
-13.5911259842519687
11
4.065857086614173
21
-13.5873764173228349
0
LINE
8
BLACK
6
CONTINUOUS
10
4.065857086614173
20
-13.5873764173228349
11
4.0621075590551179
21
-13.5798773622047246
0
LINE
8
BLACK
6
CONTINUOUS
10
4.0621075590551179
20
-13.5798773622047246
11
4.0583580314960628
21
-13.5648792519685042
0
LINE
8
BLACK
6
CONTINUOUS
10
4.0583580314960628
20
-13.5648792519685042
11
4.0583580314960628
21
-13.5461315748031499
0
LINE
8
BLACK
6
CONTINUOUS
10
4.0583580314960628
20
-13.5461315748031499
11
4.0621075590551179
21
-13.5311334645669294
0
LINE
8
BLACK
6
CONTINUOUS
10
4.0621075590551179
20
-13.5311334645669294
11
4.065857086614173
21
-13.5236344094488192
0
LINE
8
BLACK
6
CONTINUOUS
10
4.065857086614173
20
-13.5236344094488192
11
4.0696066141732281
21
-13.5198848818897641
0
LINE
8
BLACK
6
CONTINUOUS
10
4.0696066141732281
20
-13.5198848818897641
11
4.0771056692913383
21
-13.516135354330709
0
LINE
8
BLACK
6
CONTINUOUS
10
4.1408477165354327
20
-13.5948755118110238
11
4.1558458267716532
21
-13.5948755118110238
0
LINE
8
BLACK
6
CONTINUOUS
10
4.1558458267716532
20
-13.5948755118110238
11
4.1633449212598421
21
-13.5911259842519687
0
LINE
8
BLACK
6
CONTINUOUS
10
4.1633449212598421
20
-13.5911259842519687
11
4.1670944488188972
21
-13.5873764173228349
0
LINE
8
BLACK
6
CONTINUOUS
10
4.1670944488188972
20
-13.5873764173228349
11
4.1745935039370075
21
-13.5761278346456695
0
LINE
8
BLACK
6
CONTINUOUS
10
4.1745935039370075
20
-13.5761278346456695
11
4.1783430314960626
21
-13.5611297244094491
0
LINE
8
BLACK
6
CONTINUOUS
10
4.1783430314960626
20
-13.5611297244094491
11
4.1783430314960626
21
-13.5311334645669294
0
LINE
8
BLACK
6
CONTINUOUS
10
4.1783430314960626
20
-13.5311334645669294
11
4.1745935039370075
21
-13.5236344094488192
0
LINE
8
BLACK
6
CONTINUOUS
10
4.1745935039370075
20
-13.5236344094488192
11
4.1708439763779523
21
-13.5198848818897641
0
LINE
8
BLACK
6
CONTINUOUS
10
4.1708439763779523
20
-13.5198848818897641
11
4.1633449212598421
21
-13.516135354330709
0
LINE
8
BLACK
6
CONTINUOUS
10
4.1633449212598421
20
-13.516135354330709
11
4.1483467716535429
21
-13.516135354330709
0
LINE
8
BLACK
6
CONTINUOUS
10
4.1483467716535429
20
-13.516135354330709
11
4.1408477165354327
21
-13.5198848818897641
0
LINE
8
BLACK
6
CONTINUOUS
10
4.1408477165354327
20
-13.5198848818897641
11
4.1370981889763776
21
-13.5236344094488192
0
LINE
8
BLACK
6
CONTINUOUS
10
4.1370981889763776
20
-13.5236344094488192
11
4.1333486614173225
21
-13.5311334645669294
0
LINE
8
BLACK
6
CONTINUOUS
10
4.1333486614173225
20
-13.5311334645669294
11
4.1333486614173225
21
-13.549881102362205
0
LINE
8
BLACK
6
CONTINUOUS
10
4.1333486614173225
20
-13.549881102362205
11
4.1370981889763776
21
-13.557380196850394
0
LINE
8
BLACK
6
CONTINUOUS
10
4.1370981889763776
20
-13.557380196850394
11
4.1408477165354327
21
-13.5611297244094491
0
LINE
8
BLACK
6
CONTINUOUS
10
4.1408477165354327
20
-13.5611297244094491
11
4.1483467716535429
21
-13.5648792519685042
0
LINE
8
BLACK
6
CONTINUOUS
10
4.1483467716535429
20
-13.5648792519685042
11
4.1633449212598421
21
-13.5648792519685042
0
LINE
8
BLACK
6
CONTINUOUS
10
4.1633449212598421
20
-13.5648792519685042
11
4.1708439763779523
21
-13.5611297244094491
0
LINE
8
BLACK
6
CONTINUOUS
10
4.1708439763779523
20
-13.5611297244094491
11
4.1745935039370075
21
-13.557380196850394
0
LINE
8
BLACK
6
CONTINUOUS
10
4.1745935039370075
20
-13.557380196850394
11
4.1783430314960626
21
-13.549881102362205
0
LINE
8
BLACK
6
CONTINUOUS
10
4.2233374015748026
20
-13.549881102362205
11
4.2158383464566924
21
-13.5461315748031499
0
LINE
8
BLACK
6
CONTINUOUS
10
4.2158383464566924
20
-13.5461315748031499
11
4.2120888188976373
21
-13.5423820472440948
0
LINE
8
BLACK
6
CONTINUOUS
10
4.2120888188976373
20
-13.5423820472440948
11
4.2083392913385822
21
-13.5348829921259846
0
LINE
8
BLACK
6
CONTINUOUS
10
4.2083392913385822
20
-13.5348829921259846
11
4.2083392913385822
21
-13.5311334645669294
0
LINE
8
BLACK
6
CONTINUOUS
10
4.2083392913385822
20
-13.5311334645669294
11
4.2120888188976373
21
-13.5236344094488192
0
LINE
8
BLACK
6
CONTINUOUS
10
4.2120888188976373
20
-13.5236344094488192
11
4.2158383464566924
21
-13.5198848818897641
0
LINE
8
BLACK
6
CONTINUOUS
10
4.2158383464566924
20
-13.5198848818897641
11
4.2233374015748026
21
-13.516135354330709
0
LINE
8
BLACK
6
CONTINUOUS
10
4.2233374015748026
20
-13.516135354330709
11
4.2383355511811018
21
-13.516135354330709
0
LINE
8
BLACK
6
CONTINUOUS
10
4.2383355511811018
20
-13.516135354330709
11
4.2458346062992129
21
-13.5198848818897641
0
LINE
8
BLACK
6
CONTINUOUS
10
4.2458346062992129
20
-13.5198848818897641
11
4.2495841338582681
21
-13.5236344094488192
0
LINE
8
BLACK
6
CONTINUOUS
10
4.2495841338582681
20
-13.5236344094488192
11
4.2533336614173232
21
-13.5311334645669294
0
LINE
8
BLACK
6
CONTINUOUS
10
4.2533336614173232
20
-13.5311334645669294
11
4.2533336614173232
21
-13.5348829921259846
0
LINE
8
BLACK
6
CONTINUOUS
10
4.2533336614173232
20
-13.5348829921259846
11
4.2495841338582681
21
-13.5423820472440948
0
LINE
8
BLACK
6
CONTINUOUS
10
4.2495841338582681
20
-13.5423820472440948
11
4.2458346062992129
21
-13.5461315748031499
0
LINE
8
BLACK
6
CONTINUOUS
10
4.2458346062992129
20
-13.5461315748031499
11
4.2383355511811018
21
-13.549881102362205
0
LINE
8
BLACK
6
CONTINUOUS
10
4.2383355511811018
20
-13.549881102362205
11
4.2233374015748026
21
-13.549881102362205
0
LINE
8
BLACK
6
CONTINUOUS
10
4.2233374015748026
20
-13.549881102362205
11
4.2158383464566924
21
-13.5536306692913389
0
LINE
8
BLACK
6
CONTINUOUS
10
4.2158383464566924
20
-13.5536306692913389
11
4.2120888188976373
21
-13.557380196850394
0
LINE
8
BLACK
6
CONTINUOUS
10
4.2120888188976373
20
-13.557380196850394
11
4.2083392913385822
21
-13.5648792519685042
0
LINE
8
BLACK
6
CONTINUOUS
10
4.2083392913385822
20
-13.5648792519685042
11
4.2083392913385822
21
-13.5798773622047246
0
LINE
8
BLACK
6
CONTINUOUS
10
4.2083392913385822
20
-13.5798773622047246
11
4.2120888188976373
21
-13.5873764173228349
0
LINE
8
BLACK
6
CONTINUOUS
10
4.2120888188976373
20
-13.5873764173228349
11
4.2158383464566924
21
-13.5911259842519687
0
LINE
8
BLACK
6
CONTINUOUS
10
4.2158383464566924
20
-13.5911259842519687
11
4.2233374015748026
21
-13.5948755118110238
0
LINE
8
BLACK
6
CONTINUOUS
10
4.2233374015748026
20
-13.5948755118110238
11
4.2383355511811018
21
-13.5948755118110238
0
LINE
8
BLACK
6
CONTINUOUS
10
4.2383355511811018
20
-13.5948755118110238
11
4.2458346062992129
21
-13.5911259842519687
0
LINE
8
BLACK
6
CONTINUOUS
10
4.2458346062992129
20
-13.5911259842519687
11
4.2495841338582681
21
-13.5873764173228349
0
LINE
8
BLACK
6
CONTINUOUS
10
4.2495841338582681
20
-13.5873764173228349
11
4.2533336614173232
21
-13.5798773622047246
0
LINE
8
BLACK
6
CONTINUOUS
10
4.2533336614173232
20
-13.5798773622047246
11
4.2533336614173232
21
-13.5648792519685042
0
LINE
8
BLACK
6
CONTINUOUS
10
4.2533336614173232
20
-13.5648792519685042
11
4.2495841338582681
21
-13.557380196850394
0
LINE
8
BLACK
6
CONTINUOUS
10
4.2495841338582681
20
-13.557380196850394
11
4.2458346062992129
21
-13.5536306692913389
0
LINE
8
BLACK
6
CONTINUOUS
10
4.2458346062992129
20
-13.5536306692913389
11
4.2383355511811018
21
-13.549881102362205
0
LINE
8
BLACK
6
CONTINUOUS
10
4.3208252362204727
20
-13.5423820472440948
11
4.3208252362204727
21
-13.5948755118110238
0
LINE
8
BLACK
6
CONTINUOUS
10
4.3020775590551183
20
-13.5123858267716539
11
4.2833299212598428
21
-13.5686287795275593
0
LINE
8
BLACK
6
CONTINUOUS
10
4.2833299212598428
20
-13.5686287795275593
11
4.332073818897638
21
-13.5686287795275593
0
LINE
8
BLACK
6
CONTINUOUS
10
4.3583205511811025
20
-13.516135354330709
11
4.3583205511811025
21
-13.5311334645669294
0
LINE
8
BLACK
6
CONTINUOUS
10
4.3883168110236221
20
-13.516135354330709
11
4.3883168110236221
21
-13.5311334645669294
0
LINE
8
BLACK
6
CONTINUOUS
10
4.5045523228346456
20
-13.6248717322834647
11
4.5008027559055117
21
-13.6211222047244096
0
LINE
8
BLACK
6
CONTINUOUS
10
4.5008027559055117
20
-13.6211222047244096
11
4.4933037007874015
21
-13.6098736220472443
0
LINE
8
BLACK
6
CONTINUOUS
10
4.4933037007874015
20
-13.6098736220472443
11
4.4895541732283464
21
-13.602374566929134
0
LINE
8
BLACK
6
CONTINUOUS
10
4.4895541732283464
20
-13.602374566929134
11
4.4858046456692913
21
-13.5911259842519687
0
LINE
8
BLACK
6
CONTINUOUS
10
4.4858046456692913
20
-13.5911259842519687
11
4.4820551181102362
21
-13.5723783070866144
0
LINE
8
BLACK
6
CONTINUOUS
10
4.4820551181102362
20
-13.5723783070866144
11
4.4820551181102362
21
-13.557380196850394
0
LINE
8
BLACK
6
CONTINUOUS
10
4.4820551181102362
20
-13.557380196850394
11
4.4858046456692913
21
-13.5386325196850397
0
LINE
8
BLACK
6
CONTINUOUS
10
4.4858046456692913
20
-13.5386325196850397
11
4.4895541732283464
21
-13.5273839370078743
0
LINE
8
BLACK
6
CONTINUOUS
10
4.4895541732283464
20
-13.5273839370078743
11
4.4933037007874015
21
-13.5198848818897641
0
LINE
8
BLACK
6
CONTINUOUS
10
4.4933037007874015
20
-13.5198848818897641
11
4.5008027559055117
21
-13.50863625984252
0
LINE
8
BLACK
6
CONTINUOUS
10
4.5008027559055117
20
-13.50863625984252
11
4.5045523228346456
21
-13.5048867322834649
0
LINE
8
BLACK
6
CONTINUOUS
10
4.5757933858267714
20
-13.5948755118110238
11
4.5307990157480313
21
-13.5948755118110238
0
LINE
8
BLACK
6
CONTINUOUS
10
4.553296181102362
20
-13.5948755118110238
11
4.553296181102362
21
-13.516135354330709
0
LINE
8
BLACK
6
CONTINUOUS
10
4.553296181102362
20
-13.516135354330709
11
4.5457971259842518
21
-13.5273839370078743
0
LINE
8
BLACK
6
CONTINUOUS
10
4.5457971259842518
20
-13.5273839370078743
11
4.5382980708661416
21
-13.5348829921259846
0
LINE
8
BLACK
6
CONTINUOUS
10
4.5382980708661416
20
-13.5348829921259846
11
4.5307990157480313
21
-13.5386325196850397
0
LINE
8
BLACK
6
CONTINUOUS
10
4.6057896456692911
20
-13.5236344094488192
11
4.6095391732283462
21
-13.5198848818897641
0
LINE
8
BLACK
6
CONTINUOUS
10
4.6095391732283462
20
-13.5198848818897641
11
4.6170382283464564
21
-13.516135354330709
0
LINE
8
BLACK
6
CONTINUOUS
10
4.6170382283464564
20
-13.516135354330709
11
4.6357859055118107
21
-13.516135354330709
0
LINE
8
BLACK
6
CONTINUOUS
10
4.6357859055118107
20
-13.516135354330709
11
4.6432849606299209
21
-13.5198848818897641
0
LINE
8
BLACK
6
CONTINUOUS
10
4.6432849606299209
20
-13.5198848818897641
11
4.647034488188976
21
-13.5236344094488192
0
LINE
8
BLACK
6
CONTINUOUS
10
4.647034488188976
20
-13.5236344094488192
11
4.6507840157480311
21
-13.5311334645669294
0
LINE
8
BLACK
6
CONTINUOUS
10
4.6507840157480311
20
-13.5311334645669294
11
4.6507840157480311
21
-13.5386325196850397
0
LINE
8
BLACK
6
CONTINUOUS
10
4.6507840157480311
20
-13.5386325196850397
11
4.647034488188976
21
-13.549881102362205
0
LINE
8
BLACK
6
CONTINUOUS
10
4.647034488188976
20
-13.549881102362205
11
4.6020401181102359
21
-13.5948755118110238
0
LINE
8
BLACK
6
CONTINUOUS
10
4.6020401181102359
20
-13.5948755118110238
11
4.6507840157480311
21
-13.5948755118110238
0
LINE
8
BLACK
6
CONTINUOUS
10
4.7445223228346451
20
-13.5948755118110238
11
4.7445223228346451
21
-13.516135354330709
0
LINE
8
BLACK
6
CONTINUOUS
10
4.7782681102362208
20
-13.5948755118110238
11
4.7782681102362208
21
-13.5536306692913389
0
LINE
8
BLACK
6
CONTINUOUS
10
4.7782681102362208
20
-13.5536306692913389
11
4.7745185826771657
21
-13.5461315748031499
0
LINE
8
BLACK
6
CONTINUOUS
10
4.7745185826771657
20
-13.5461315748031499
11
4.7670195275590554
21
-13.5423820472440948
0
LINE
8
BLACK
6
CONTINUOUS
10
4.7670195275590554
20
-13.5423820472440948
11
4.7557709055118105
21
-13.5423820472440948
0
LINE
8
BLACK
6
CONTINUOUS
10
4.7557709055118105
20
-13.5423820472440948
11
4.7482718503937003
21
-13.5461315748031499
0
LINE
8
BLACK
6
CONTINUOUS
10
4.7482718503937003
20
-13.5461315748031499
11
4.7445223228346451
21
-13.549881102362205
0
LINE
8
BLACK
6
CONTINUOUS
10
4.827012007874016
20
-13.5948755118110238
11
4.8195129527559057
21
-13.5911259842519687
0
LINE
8
BLACK
6
CONTINUOUS
10
4.8195129527559057
20
-13.5911259842519687
11
4.8157634251968506
21
-13.5873764173228349
0
LINE
8
BLACK
6
CONTINUOUS
10
4.8157634251968506
20
-13.5873764173228349
11
4.8120138976377955
21
-13.5798773622047246
0
LINE
8
BLACK
6
CONTINUOUS
10
4.8120138976377955
20
-13.5798773622047246
11
4.8120138976377955
21
-13.557380196850394
0
LINE
8
BLACK
6
CONTINUOUS
10
4.8120138976377955
20
-13.557380196850394
11
4.8157634251968506
21
-13.549881102362205
0
LINE
8
BLACK
6
CONTINUOUS
10
4.8157634251968506
20
-13.549881102362205
11
4.8195129527559057
21
-13.5461315748031499
0
LINE
8
BLACK
6
CONTINUOUS
10
4.8195129527559057
20
-13.5461315748031499
11
4.827012007874016
21
-13.5423820472440948
0
LINE
8
BLACK
6
CONTINUOUS
10
4.827012007874016
20
-13.5423820472440948
11
4.83826062992126
21
-13.5423820472440948
0
LINE
8
BLACK
6
CONTINUOUS
10
4.83826062992126
20
-13.5423820472440948
11
4.8457596850393703
21
-13.5461315748031499
0
LINE
8
BLACK
6
CONTINUOUS
10
4.8457596850393703
20
-13.5461315748031499
11
4.8495092125984254
21
-13.549881102362205
0
LINE
8
BLACK
6
CONTINUOUS
10
4.8495092125984254
20
-13.549881102362205
11
4.8532587401574805
21
-13.557380196850394
0
LINE
8
BLACK
6
CONTINUOUS
10
4.8532587401574805
20
-13.557380196850394
11
4.8532587401574805
21
-13.5798773622047246
0
LINE
8
BLACK
6
CONTINUOUS
10
4.8532587401574805
20
-13.5798773622047246
11
4.8495092125984254
21
-13.5873764173228349
0
LINE
8
BLACK
6
CONTINUOUS
10
4.8495092125984254
20
-13.5873764173228349
11
4.8457596850393703
21
-13.5911259842519687
0
LINE
8
BLACK
6
CONTINUOUS
10
4.8457596850393703
20
-13.5911259842519687
11
4.83826062992126
21
-13.5948755118110238
0
LINE
8
BLACK
6
CONTINUOUS
10
4.83826062992126
20
-13.5948755118110238
11
4.827012007874016
21
-13.5948755118110238
0
LINE
8
BLACK
6
CONTINUOUS
10
4.8982531102362206
20
-13.5948755118110238
11
4.8907540551181103
21
-13.5911259842519687
0
LINE
8
BLACK
6
CONTINUOUS
10
4.8907540551181103
20
-13.5911259842519687
11
4.8870045275590552
21
-13.5836268897637797
0
LINE
8
BLACK
6
CONTINUOUS
10
4.8870045275590552
20
-13.5836268897637797
11
4.8870045275590552
21
-13.516135354330709
0
LINE
8
BLACK
6
CONTINUOUS
10
4.9582456299212598
20
-13.5911259842519687
11
4.9507465748031496
21
-13.5948755118110238
0
LINE
8
BLACK
6
CONTINUOUS
10
4.9507465748031496
20
-13.5948755118110238
11
4.9357484251968504
21
-13.5948755118110238
0
LINE
8
BLACK
6
CONTINUOUS
10
4.9357484251968504
20
-13.5948755118110238
11
4.9282493700787402
21
-13.5911259842519687
0
LINE
8
BLACK
6
CONTINUOUS
10
4.9282493700787402
20
-13.5911259842519687
11
4.9244998425196851
21
-13.5836268897637797
0
LINE
8
BLACK
6
CONTINUOUS
10
4.9244998425196851
20
-13.5836268897637797
11
4.9244998425196851
21
-13.5536306692913389
0
LINE
8
BLACK
6
CONTINUOUS
10
4.9244998425196851
20
-13.5536306692913389
11
4.9282493700787402
21
-13.5461315748031499
0
LINE
8
BLACK
6
CONTINUOUS
10
4.9282493700787402
20
-13.5461315748031499
11
4.9357484251968504
21
-13.5423820472440948
0
LINE
8
BLACK
6
CONTINUOUS
10
4.9357484251968504
20
-13.5423820472440948
11
4.9507465748031496
21
-13.5423820472440948
0
LINE
8
BLACK
6
CONTINUOUS
10
4.9507465748031496
20
-13.5423820472440948
11
4.9582456299212598
21
-13.5461315748031499
0
LINE
8
BLACK
6
CONTINUOUS
10
4.9582456299212598
20
-13.5461315748031499
11
4.9619951574803149
21
-13.5536306692913389
0
LINE
8
BLACK
6
CONTINUOUS
10
4.9619951574803149
20
-13.5536306692913389
11
4.9619951574803149
21
-13.5611297244094491
0
LINE
8
BLACK
6
CONTINUOUS
10
4.9619951574803149
20
-13.5611297244094491
11
4.9244998425196851
21
-13.5686287795275593
0
LINE
8
BLACK
6
CONTINUOUS
10
4.9919914173228346
20
-13.5911259842519687
11
4.9994904724409448
21
-13.5948755118110238
0
LINE
8
BLACK
6
CONTINUOUS
10
4.9994904724409448
20
-13.5948755118110238
11
5.0144885826771652
21
-13.5948755118110238
0
LINE
8
BLACK
6
CONTINUOUS
10
5.0144885826771652
20
-13.5948755118110238
11
5.0219876771653542
21
-13.5911259842519687
0
LINE
8
BLACK
6
CONTINUOUS
10
5.0219876771653542
20
-13.5911259842519687
11
5.0257372047244093
21
-13.5836268897637797
0
LINE
8
BLACK
6
CONTINUOUS
10
5.0257372047244093
20
-13.5836268897637797
11
5.0257372047244093
21
-13.5798773622047246
0
LINE
8
BLACK
6
CONTINUOUS
10
5.0257372047244093
20
-13.5798773622047246
11
5.0219876771653542
21
-13.5723783070866144
0
LINE
8
BLACK
6
CONTINUOUS
10
5.0219876771653542
20
-13.5723783070866144
11
5.0144885826771652
21
-13.5686287795275593
0
LINE
8
BLACK
6
CONTINUOUS
10
5.0144885826771652
20
-13.5686287795275593
11
5.0032399999999999
21
-13.5686287795275593
0
LINE
8
BLACK
6
CONTINUOUS
10
5.0032399999999999
20
-13.5686287795275593
11
4.9957409448818897
21
-13.5648792519685042
0
LINE
8
BLACK
6
CONTINUOUS
10
4.9957409448818897
20
-13.5648792519685042
11
4.9919914173228346
21
-13.557380196850394
0
LINE
8
BLACK
6
CONTINUOUS
10
4.9919914173228346
20
-13.557380196850394
11
4.9919914173228346
21
-13.5536306692913389
0
LINE
8
BLACK
6
CONTINUOUS
10
4.9919914173228346
20
-13.5536306692913389
11
4.9957409448818897
21
-13.5461315748031499
0
LINE
8
BLACK
6
CONTINUOUS
10
4.9957409448818897
20
-13.5461315748031499
11
5.0032399999999999
21
-13.5423820472440948
0
LINE
8
BLACK
6
CONTINUOUS
10
5.0032399999999999
20
-13.5423820472440948
11
5.0144885826771652
21
-13.5423820472440948
0
LINE
8
BLACK
6
CONTINUOUS
10
5.0144885826771652
20
-13.5423820472440948
11
5.0219876771653542
21
-13.5461315748031499
0
LINE
8
BLACK
6
CONTINUOUS
10
5.0519839370078738
20
-13.6248717322834647
11
5.055733464566929
21
-13.6211222047244096
0
LINE
8
BLACK
6
CONTINUOUS
10
5.055733464566929
20
-13.6211222047244096
11
5.0632325196850392
21
-13.6098736220472443
0
LINE
8
BLACK
6
CONTINUOUS
10
5.0632325196850392
20
-13.6098736220472443
11
5.0669820472440943
21
-13.602374566929134
0
LINE
8
BLACK
6
CONTINUOUS
10
5.0669820472440943
20
-13.602374566929134
11
5.0707315748031494
21
-13.5911259842519687
0
LINE
8
BLACK
6
CONTINUOUS
10
5.0707315748031494
20
-13.5911259842519687
11
5.0744811023622045
21
-13.5723783070866144
0
LINE
8
BLACK
6
CONTINUOUS
10
5.0744811023622045
20
-13.5723783070866144
11
5.0744811023622045
21
-13.557380196850394
0
LINE
8
BLACK
6
CONTINUOUS
10
5.0744811023622045
20
-13.557380196850394
11
5.0707315748031494
21
-13.5386325196850397
0
LINE
8
BLACK
6
CONTINUOUS
10
5.0707315748031494
20
-13.5386325196850397
11
5.0669820472440943
21
-13.5273839370078743
0
LINE
8
BLACK
6
CONTINUOUS
10
5.0669820472440943
20
-13.5273839370078743
11
5.0632325196850392
21
-13.5198848818897641
0
LINE
8
BLACK
6
CONTINUOUS
10
5.0632325196850392
20
-13.5198848818897641
11
5.055733464566929
21
-13.50863625984252
0
LINE
8
BLACK
6
CONTINUOUS
10
5.055733464566929
20
-13.50863625984252
11
5.0519839370078738
21
-13.5048867322834649
0
LINE
8
BLACK
6
CONTINUOUS
10
5.194466141732283
20
-13.6248717322834647
11
5.1907165748031492
21
-13.6211222047244096
0
LINE
8
BLACK
6
CONTINUOUS
10
5.1907165748031492
20
-13.6211222047244096
11
5.183217519685039
21
-13.6098736220472443
0
LINE
8
BLACK
6
CONTINUOUS
10
5.183217519685039
20
-13.6098736220472443
11
5.1794679921259839
21
-13.602374566929134
0
LINE
8
BLACK
6
CONTINUOUS
10
5.1794679921259839
20
-13.602374566929134
11
5.1757184645669287
21
-13.5911259842519687
0
LINE
8
BLACK
6
CONTINUOUS
10
5.1757184645669287
20
-13.5911259842519687
11
5.1719689370078736
21
-13.5723783070866144
0
LINE
8
BLACK
6
CONTINUOUS
10
5.1719689370078736
20
-13.5723783070866144
11
5.1719689370078736
21
-13.557380196850394
0
LINE
8
BLACK
6
CONTINUOUS
10
5.1719689370078736
20
-13.557380196850394
11
5.1757184645669287
21
-13.5386325196850397
0
LINE
8
BLACK
6
CONTINUOUS
10
5.1757184645669287
20
-13.5386325196850397
11
5.1794679921259839
21
-13.5273839370078743
0
LINE
8
BLACK
6
CONTINUOUS
10
5.1794679921259839
20
-13.5273839370078743
11
5.183217519685039
21
-13.5198848818897641
0
LINE
8
BLACK
6
CONTINUOUS
10
5.183217519685039
20
-13.5198848818897641
11
5.1907165748031492
21
-13.50863625984252
0
LINE
8
BLACK
6
CONTINUOUS
10
5.1907165748031492
20
-13.50863625984252
11
5.194466141732283
21
-13.5048867322834649
0
LINE
8
BLACK
6
CONTINUOUS
10
5.2244623622047239
20
-13.5423820472440948
11
5.2244623622047239
21
-13.5948755118110238
0
LINE
8
BLACK
6
CONTINUOUS
10
5.2244623622047239
20
-13.549881102362205
11
5.228211889763779
21
-13.5461315748031499
0
LINE
8
BLACK
6
CONTINUOUS
10
5.228211889763779
20
-13.5461315748031499
11
5.2357109448818893
21
-13.5423820472440948
0
LINE
8
BLACK
6
CONTINUOUS
10
5.2357109448818893
20
-13.5423820472440948
11
5.2469595669291333
21
-13.5423820472440948
0
LINE
8
BLACK
6
CONTINUOUS
10
5.2469595669291333
20
-13.5423820472440948
11
5.2544586220472436
21
-13.5461315748031499
0
LINE
8
BLACK
6
CONTINUOUS
10
5.2544586220472436
20
-13.5461315748031499
11
5.2582081496062987
21
-13.5536306692913389
0
LINE
8
BLACK
6
CONTINUOUS
10
5.2582081496062987
20
-13.5536306692913389
11
5.2582081496062987
21
-13.5948755118110238
0
LINE
8
BLACK
6
CONTINUOUS
10
5.3069520472440948
20
-13.5948755118110238
11
5.2994529921259845
21
-13.5911259842519687
0
LINE
8
BLACK
6
CONTINUOUS
10
5.2994529921259845
20
-13.5911259842519687
11
5.2957034645669294
21
-13.5873764173228349
0
LINE
8
BLACK
6
CONTINUOUS
10
5.2957034645669294
20
-13.5873764173228349
11
5.2919539370078743
21
-13.5798773622047246
0
LINE
8
BLACK
6
CONTINUOUS
10
5.2919539370078743
20
-13.5798773622047246
11
5.2919539370078743
21
-13.557380196850394
0
LINE
8
BLACK
6
CONTINUOUS
10
5.2919539370078743
20
-13.557380196850394
11
5.2957034645669294
21
-13.549881102362205
0
LINE
8
BLACK
6
CONTINUOUS
10
5.2957034645669294
20
-13.549881102362205
11
5.2994529921259845
21
-13.5461315748031499
0
LINE
8
BLACK
6
CONTINUOUS
10
5.2994529921259845
20
-13.5461315748031499
11
5.3069520472440948
21
-13.5423820472440948
0
LINE
8
BLACK
6
CONTINUOUS
10
5.3069520472440948
20
-13.5423820472440948
11
5.3182006692913388
21
-13.5423820472440948
0
LINE
8
BLACK
6
CONTINUOUS
10
5.3182006692913388
20
-13.5423820472440948
11
5.3256997244094491
21
-13.5461315748031499
0
LINE
8
BLACK
6
CONTINUOUS
10
5.3256997244094491
20
-13.5461315748031499
11
5.3294492519685042
21
-13.549881102362205
0
LINE
8
BLACK
6
CONTINUOUS
10
5.3294492519685042
20
-13.549881102362205
11
5.3331987795275593
21
-13.557380196850394
0
LINE
8
BLACK
6
CONTINUOUS
10
5.3331987795275593
20
-13.557380196850394
11
5.3331987795275593
21
-13.5798773622047246
0
LINE
8
BLACK
6
CONTINUOUS
10
5.3331987795275593
20
-13.5798773622047246
11
5.3294492519685042
21
-13.5873764173228349
0
LINE
8
BLACK
6
CONTINUOUS
10
5.3294492519685042
20
-13.5873764173228349
11
5.3256997244094491
21
-13.5911259842519687
0
LINE
8
BLACK
6
CONTINUOUS
10
5.3256997244094491
20
-13.5911259842519687
11
5.3182006692913388
21
-13.5948755118110238
0
LINE
8
BLACK
6
CONTINUOUS
10
5.3182006692913388
20
-13.5948755118110238
11
5.3069520472440948
21
-13.5948755118110238
0
LINE
8
BLACK
6
CONTINUOUS
10
5.3556959842519687
20
-13.5423820472440948
11
5.3856922047244096
21
-13.5423820472440948
0
LINE
8
BLACK
6
CONTINUOUS
10
5.366944566929134
20
-13.516135354330709
11
5.366944566929134
21
-13.5836268897637797
0
LINE
8
BLACK
6
CONTINUOUS
10
5.366944566929134
20
-13.5836268897637797
11
5.3706940944881891
21
-13.5911259842519687
0
LINE
8
BLACK
6
CONTINUOUS
10
5.3706940944881891
20
-13.5911259842519687
11
5.3781931496062994
21
-13.5948755118110238
0
LINE
8
BLACK
6
CONTINUOUS
10
5.3781931496062994
20
-13.5948755118110238
11
5.3856922047244096
21
-13.5948755118110238
0
LINE
8
BLACK
6
CONTINUOUS
10
5.4719314566929134
20
-13.5423820472440948
11
5.4719314566929134
21
-13.6211222047244096
0
LINE
8
BLACK
6
CONTINUOUS
10
5.4719314566929134
20
-13.5461315748031499
11
5.4794305118110236
21
-13.5423820472440948
0
LINE
8
BLACK
6
CONTINUOUS
10
5.4794305118110236
20
-13.5423820472440948
11
5.4944286614173228
21
-13.5423820472440948
0
LINE
8
BLACK
6
CONTINUOUS
10
5.4944286614173228
20
-13.5423820472440948
11
5.501927716535433
21
-13.5461315748031499
0
LINE
8
BLACK
6
CONTINUOUS
10
5.501927716535433
20
-13.5461315748031499
11
5.5056772440944881
21
-13.549881102362205
0
LINE
8
BLACK
6
CONTINUOUS
10
5.5056772440944881
20
-13.549881102362205
11
5.5094267716535432
21
-13.557380196850394
0
LINE
8
BLACK
6
CONTINUOUS
10
5.5094267716535432
20
-13.557380196850394
11
5.5094267716535432
21
-13.5798773622047246
0
LINE
8
BLACK
6
CONTINUOUS
10
5.5094267716535432
20
-13.5798773622047246
11
5.5056772440944881
21
-13.5873764173228349
0
LINE
8
BLACK
6
CONTINUOUS
10
5.5056772440944881
20
-13.5873764173228349
11
5.501927716535433
21
-13.5911259842519687
0
LINE
8
BLACK
6
CONTINUOUS
10
5.501927716535433
20
-13.5911259842519687
11
5.4944286614173228
21
-13.5948755118110238
0
LINE
8
BLACK
6
CONTINUOUS
10
5.4944286614173228
20
-13.5948755118110238
11
5.4794305118110236
21
-13.5948755118110238
0
LINE
8
BLACK
6
CONTINUOUS
10
5.4794305118110236
20
-13.5948755118110238
11
5.4719314566929134
21
-13.5911259842519687
0
LINE
8
BLACK
6
CONTINUOUS
10
5.5544211417322833
20
-13.5948755118110238
11
5.5469220866141731
21
-13.5911259842519687
0
LINE
8
BLACK
6
CONTINUOUS
10
5.5469220866141731
20
-13.5911259842519687
11
5.543172559055118
21
-13.5836268897637797
0
LINE
8
BLACK
6
CONTINUOUS
10
5.543172559055118
20
-13.5836268897637797
11
5.543172559055118
21
-13.516135354330709
0
LINE
8
BLACK
6
CONTINUOUS
10
5.6181631889763777
20
-13.5948755118110238
11
5.6181631889763777
21
-13.5536306692913389
0
LINE
8
BLACK
6
CONTINUOUS
10
5.6181631889763777
20
-13.5536306692913389
11
5.6144136614173226
21
-13.5461315748031499
0
LINE
8
BLACK
6
CONTINUOUS
10
5.6144136614173226
20
-13.5461315748031499
11
5.6069146062992123
21
-13.5423820472440948
0
LINE
8
BLACK
6
CONTINUOUS
10
5.6069146062992123
20
-13.5423820472440948
11
5.5919164566929132
21
-13.5423820472440948
0
LINE
8
BLACK
6
CONTINUOUS
10
5.5919164566929132
20
-13.5423820472440948
11
5.5844174015748029
21
-13.5461315748031499
0
LINE
8
BLACK
6
CONTINUOUS
10
5.6181631889763777
20
-13.5911259842519687
11
5.6106641338582675
21
-13.5948755118110238
0
LINE
8
BLACK
6
CONTINUOUS
10
5.6106641338582675
20
-13.5948755118110238
11
5.5919164566929132
21
-13.5948755118110238
0
LINE
8
BLACK
6
CONTINUOUS
10
5.5919164566929132
20
-13.5948755118110238
11
5.5844174015748029
21
-13.5911259842519687
0
LINE
8
BLACK
6
CONTINUOUS
10
5.5844174015748029
20
-13.5911259842519687
11
5.5806678740157478
21
-13.5836268897637797
0
LINE
8
BLACK
6
CONTINUOUS
10
5.5806678740157478
20
-13.5836268897637797
11
5.5806678740157478
21
-13.5761278346456695
0
LINE
8
BLACK
6
CONTINUOUS
10
5.5806678740157478
20
-13.5761278346456695
11
5.5844174015748029
21
-13.5686287795275593
0
LINE
8
BLACK
6
CONTINUOUS
10
5.5844174015748029
20
-13.5686287795275593
11
5.5919164566929132
21
-13.5648792519685042
0
LINE
8
BLACK
6
CONTINUOUS
10
5.5919164566929132
20
-13.5648792519685042
11
5.6106641338582675
21
-13.5648792519685042
0
LINE
8
BLACK
6
CONTINUOUS
10
5.6106641338582675
20
-13.5648792519685042
11
5.6181631889763777
21
-13.5611297244094491
0
LINE
8
BLACK
6
CONTINUOUS
10
5.6444099212598422
20
-13.5423820472440948
11
5.6744061417322831
21
-13.5423820472440948
0
LINE
8
BLACK
6
CONTINUOUS
10
5.6556585039370075
20
-13.516135354330709
11
5.6556585039370075
21
-13.5836268897637797
0
LINE
8
BLACK
6
CONTINUOUS
10
5.6556585039370075
20
-13.5836268897637797
11
5.6594080314960626
21
-13.5911259842519687
0
LINE
8
BLACK
6
CONTINUOUS
10
5.6594080314960626
20
-13.5911259842519687
11
5.6669070866141729
21
-13.5948755118110238
0
LINE
8
BLACK
6
CONTINUOUS
10
5.6669070866141729
20
-13.5948755118110238
11
5.6744061417322831
21
-13.5948755118110238
0
LINE
8
BLACK
6
CONTINUOUS
10
5.7306491338582672
20
-13.5911259842519687
11
5.723150078740157
21
-13.5948755118110238
0
LINE
8
BLACK
6
CONTINUOUS
10
5.723150078740157
20
-13.5948755118110238
11
5.7081519291338578
21
-13.5948755118110238
0
LINE
8
BLACK
6
CONTINUOUS
10
5.7081519291338578
20
-13.5948755118110238
11
5.7006528740157476
21
-13.5911259842519687
0
LINE
8
BLACK
6
CONTINUOUS
10
5.7006528740157476
20
-13.5911259842519687
11
5.6969033464566925
21
-13.5836268897637797
0
LINE
8
BLACK
6
CONTINUOUS
10
5.6969033464566925
20
-13.5836268897637797
11
5.6969033464566925
21
-13.5536306692913389
0
LINE
8
BLACK
6
CONTINUOUS
10
5.6969033464566925
20
-13.5536306692913389
11
5.7006528740157476
21
-13.5461315748031499
0
LINE
8
BLACK
6
CONTINUOUS
10
5.7006528740157476
20
-13.5461315748031499
11
5.7081519291338578
21
-13.5423820472440948
0
LINE
8
BLACK
6
CONTINUOUS
10
5.7081519291338578
20
-13.5423820472440948
11
5.723150078740157
21
-13.5423820472440948
0
LINE
8
BLACK
6
CONTINUOUS
10
5.723150078740157
20
-13.5423820472440948
11
5.7306491338582672
21
-13.5461315748031499
0
LINE
8
BLACK
6
CONTINUOUS
10
5.7306491338582672
20
-13.5461315748031499
11
5.7343986614173224
21
-13.5536306692913389
0
LINE
8
BLACK
6
CONTINUOUS
10
5.7343986614173224
20
-13.5536306692913389
11
5.7343986614173224
21
-13.5611297244094491
0
LINE
8
BLACK
6
CONTINUOUS
10
5.7343986614173224
20
-13.5611297244094491
11
5.6969033464566925
21
-13.5686287795275593
0
LINE
8
BLACK
6
CONTINUOUS
10
5.8018902362204727
20
-13.5948755118110238
11
5.8018902362204727
21
-13.516135354330709
0
LINE
8
BLACK
6
CONTINUOUS
10
5.8018902362204727
20
-13.5911259842519687
11
5.7943911811023625
21
-13.5948755118110238
0
LINE
8
BLACK
6
CONTINUOUS
10
5.7943911811023625
20
-13.5948755118110238
11
5.7793930314960624
21
-13.5948755118110238
0
LINE
8
BLACK
6
CONTINUOUS
10
5.7793930314960624
20
-13.5948755118110238
11
5.7718939763779522
21
-13.5911259842519687
0
LINE
8
BLACK
6
CONTINUOUS
10
5.7718939763779522
20
-13.5911259842519687
11
5.7681444488188971
21
-13.5873764173228349
0
LINE
8
BLACK
6
CONTINUOUS
10
5.7681444488188971
20
-13.5873764173228349
11
5.764394921259842
21
-13.5798773622047246
0
LINE
8
BLACK
6
CONTINUOUS
10
5.764394921259842
20
-13.5798773622047246
11
5.764394921259842
21
-13.557380196850394
0
LINE
8
BLACK
6
CONTINUOUS
10
5.764394921259842
20
-13.557380196850394
11
5.7681444488188971
21
-13.549881102362205
0
LINE
8
BLACK
6
CONTINUOUS
10
5.7681444488188971
20
-13.549881102362205
11
5.7718939763779522
21
-13.5461315748031499
0
LINE
8
BLACK
6
CONTINUOUS
10
5.7718939763779522
20
-13.5461315748031499
11
5.7793930314960624
21
-13.5423820472440948
0
LINE
8
BLACK
6
CONTINUOUS
10
5.7793930314960624
20
-13.5423820472440948
11
5.7943911811023625
21
-13.5423820472440948
0
LINE
8
BLACK
6
CONTINUOUS
10
5.7943911811023625
20
-13.5423820472440948
11
5.8018902362204727
21
-13.5461315748031499
0
LINE
8
BLACK
6
CONTINUOUS
10
5.8318864960629924
20
-13.6248717322834647
11
5.8356360236220475
21
-13.6211222047244096
0
LINE
8
BLACK
6
CONTINUOUS
10
5.8356360236220475
20
-13.6211222047244096
11
5.8431350787401577
21
-13.6098736220472443
0
LINE
8
BLACK
6
CONTINUOUS
10
5.8431350787401577
20
-13.6098736220472443
11
5.8468846062992128
21
-13.602374566929134
0
LINE
8
BLACK
6
CONTINUOUS
10
5.8468846062992128
20
-13.602374566929134
11
5.8506341338582679
21
-13.5911259842519687
0
LINE
8
BLACK
6
CONTINUOUS
10
5.8506341338582679
20
-13.5911259842519687
11
5.854383661417323
21
-13.5723783070866144
0
LINE
8
BLACK
6
CONTINUOUS
10
5.854383661417323
20
-13.5723783070866144
11
5.854383661417323
21
-13.557380196850394
0
LINE
8
BLACK
6
CONTINUOUS
10
5.854383661417323
20
-13.557380196850394
11
5.8506341338582679
21
-13.5386325196850397
0
LINE
8
BLACK
6
CONTINUOUS
10
5.8506341338582679
20
-13.5386325196850397
11
5.8468846062992128
21
-13.5273839370078743
0
LINE
8
BLACK
6
CONTINUOUS
10
5.8468846062992128
20
-13.5273839370078743
11
5.8431350787401577
21
-13.5198848818897641
0
LINE
8
BLACK
6
CONTINUOUS
10
5.8431350787401577
20
-13.5198848818897641
11
5.8356360236220475
21
-13.50863625984252
0
LINE
8
BLACK
6
CONTINUOUS
10
5.8356360236220475
20
-13.50863625984252
11
5.8318864960629924
21
-13.5048867322834649
0
LINE
8
BLACK
6
CONTINUOUS
10
3.0576771653543307
20
-13.6454724409448822
11
3.0576771653543307
21
-13.724212598425197
0
LINE
8
BLACK
6
CONTINUOUS
10
3.0183070866141732
20
-13.6848425196850396
11
3.0970472440944881
21
-13.6848425196850396
0
LINE
8
BLACK
6
CONTINUOUS
10
3.195965748031496
20
-13.6496186614173229
11
3.1997152755905511
21
-13.6458691338582678
0
LINE
8
BLACK
6
CONTINUOUS
10
3.1997152755905511
20
-13.6458691338582678
11
3.2072143307086614
21
-13.6421196062992127
0
LINE
8
BLACK
6
CONTINUOUS
10
3.2072143307086614
20
-13.6421196062992127
11
3.2259620078740157
21
-13.6421196062992127
0
LINE
8
BLACK
6
CONTINUOUS
10
3.2259620078740157
20
-13.6421196062992127
11
3.2334610629921259
21
-13.6458691338582678
0
LINE
8
BLACK
6
CONTINUOUS
10
3.2334610629921259
20
-13.6458691338582678
11
3.237210590551181
21
-13.6496186614173229
0
LINE
8
BLACK
6
CONTINUOUS
10
3.237210590551181
20
-13.6496186614173229
11
3.2409601181102361
21
-13.6571177165354332
0
LINE
8
BLACK
6
CONTINUOUS
10
3.2409601181102361
20
-13.6571177165354332
11
3.2409601181102361
21
-13.6646167716535434
0
LINE
8
BLACK
6
CONTINUOUS
10
3.2409601181102361
20
-13.6646167716535434
11
3.237210590551181
21
-13.6758653543307087
0
LINE
8
BLACK
6
CONTINUOUS
10
3.237210590551181
20
-13.6758653543307087
11
3.1922162204724409
21
-13.7208597637795275
0
LINE
8
BLACK
6
CONTINUOUS
10
3.1922162204724409
20
-13.7208597637795275
11
3.2409601181102361
21
-13.7208597637795275
0
LINE
8
BLACK
6
CONTINUOUS
10
3.2747059055118108
20
-13.7133606692913386
11
3.278455433070866
21
-13.7171102362204724
0
LINE
8
BLACK
6
CONTINUOUS
10
3.278455433070866
20
-13.7171102362204724
11
3.2747059055118108
21
-13.7208597637795275
0
LINE
8
BLACK
6
CONTINUOUS
10
3.2747059055118108
20
-13.7208597637795275
11
3.2709563779527557
21
-13.7171102362204724
0
LINE
8
BLACK
6
CONTINUOUS
10
3.2709563779527557
20
-13.7171102362204724
11
3.2747059055118108
21
-13.7133606692913386
0
LINE
8
BLACK
6
CONTINUOUS
10
3.2747059055118108
20
-13.7133606692913386
11
3.2747059055118108
21
-13.7208597637795275
0
LINE
8
BLACK
6
CONTINUOUS
10
3.3159507480314958
20
-13.7208597637795275
11
3.3309488582677163
21
-13.7208597637795275
0
LINE
8
BLACK
6
CONTINUOUS
10
3.3309488582677163
20
-13.7208597637795275
11
3.3384479527559052
21
-13.7171102362204724
0
LINE
8
BLACK
6
CONTINUOUS
10
3.3384479527559052
20
-13.7171102362204724
11
3.3421974803149603
21
-13.7133606692913386
0
LINE
8
BLACK
6
CONTINUOUS
10
3.3421974803149603
20
-13.7133606692913386
11
3.349696535433071
21
-13.7021120866141732
0
LINE
8
BLACK
6
CONTINUOUS
10
3.349696535433071
20
-13.7021120866141732
11
3.3534460629921261
21
-13.6871139763779528
0
LINE
8
BLACK
6
CONTINUOUS
10
3.3534460629921261
20
-13.6871139763779528
11
3.3534460629921261
21
-13.6571177165354332
0
LINE
8
BLACK
6
CONTINUOUS
10
3.3534460629921261
20
-13.6571177165354332
11
3.349696535433071
21
-13.6496186614173229
0
LINE
8
BLACK
6
CONTINUOUS
10
3.349696535433071
20
-13.6496186614173229
11
3.3459470078740159
21
-13.6458691338582678
0
LINE
8
BLACK
6
CONTINUOUS
10
3.3459470078740159
20
-13.6458691338582678
11
3.3384479527559052
21
-13.6421196062992127
0
LINE
8
BLACK
6
CONTINUOUS
10
3.3384479527559052
20
-13.6421196062992127
11
3.323449803149606
21
-13.6421196062992127
0
LINE
8
BLACK
6
CONTINUOUS
10
3.323449803149606
20
-13.6421196062992127
11
3.3159507480314958
21
-13.6458691338582678
0
LINE
8
BLACK
6
CONTINUOUS
10
3.3159507480314958
20
-13.6458691338582678
11
3.3122012204724407
21
-13.6496186614173229
0
LINE
8
BLACK
6
CONTINUOUS
10
3.3122012204724407
20
-13.6496186614173229
11
3.3084516929133856
21
-13.6571177165354332
0
LINE
8
BLACK
6
CONTINUOUS
10
3.3084516929133856
20
-13.6571177165354332
11
3.3084516929133856
21
-13.6758653543307087
0
LINE
8
BLACK
6
CONTINUOUS
10
3.3084516929133856
20
-13.6758653543307087
11
3.3122012204724407
21
-13.6833644488188977
0
LINE
8
BLACK
6
CONTINUOUS
10
3.3122012204724407
20
-13.6833644488188977
11
3.3159507480314958
21
-13.6871139763779528
0
LINE
8
BLACK
6
CONTINUOUS
10
3.3159507480314958
20
-13.6871139763779528
11
3.323449803149606
21
-13.6908635039370079
0
LINE
8
BLACK
6
CONTINUOUS
10
3.323449803149606
20
-13.6908635039370079
11
3.3384479527559052
21
-13.6908635039370079
0
LINE
8
BLACK
6
CONTINUOUS
10
3.3384479527559052
20
-13.6908635039370079
11
3.3459470078740159
21
-13.6871139763779528
0
LINE
8
BLACK
6
CONTINUOUS
10
3.3459470078740159
20
-13.6871139763779528
11
3.349696535433071
21
-13.6833644488188977
0
LINE
8
BLACK
6
CONTINUOUS
10
3.349696535433071
20
-13.6833644488188977
11
3.3534460629921261
21
-13.6758653543307087
0
LINE
8
BLACK
6
CONTINUOUS
10
3.390941377952756
20
-13.7208597637795275
11
3.4059394881889764
21
-13.7208597637795275
0
LINE
8
BLACK
6
CONTINUOUS
10
3.4059394881889764
20
-13.7208597637795275
11
3.4134385826771654
21
-13.7171102362204724
0
LINE
8
BLACK
6
CONTINUOUS
10
3.4134385826771654
20
-13.7171102362204724
11
3.4171881102362205
21
-13.7133606692913386
0
LINE
8
BLACK
6
CONTINUOUS
10
3.4171881102362205
20
-13.7133606692913386
11
3.4246871653543307
21
-13.7021120866141732
0
LINE
8
BLACK
6
CONTINUOUS
10
3.4246871653543307
20
-13.7021120866141732
11
3.4284366929133858
21
-13.6871139763779528
0
LINE
8
BLACK
6
CONTINUOUS
10
3.4284366929133858
20
-13.6871139763779528
11
3.4284366929133858
21
-13.6571177165354332
0
LINE
8
BLACK
6
CONTINUOUS
10
3.4284366929133858
20
-13.6571177165354332
11
3.4246871653543307
21
-13.6496186614173229
0
LINE
8
BLACK
6
CONTINUOUS
10
3.4246871653543307
20
-13.6496186614173229
11
3.4209376377952756
21
-13.6458691338582678
0
LINE
8
BLACK
6
CONTINUOUS
10
3.4209376377952756
20
-13.6458691338582678
11
3.4134385826771654
21
-13.6421196062992127
0
LINE
8
BLACK
6
CONTINUOUS
10
3.4134385826771654
20
-13.6421196062992127
11
3.3984404330708662
21
-13.6421196062992127
0
LINE
8
BLACK
6
CONTINUOUS
10
3.3984404330708662
20
-13.6421196062992127
11
3.390941377952756
21
-13.6458691338582678
0
LINE
8
BLACK
6
CONTINUOUS
10
3.390941377952756
20
-13.6458691338582678
11
3.3871918503937009
21
-13.6496186614173229
0
LINE
8
BLACK
6
CONTINUOUS
10
3.3871918503937009
20
-13.6496186614173229
11
3.3834423228346457
21
-13.6571177165354332
0
LINE
8
BLACK
6
CONTINUOUS
10
3.3834423228346457
20
-13.6571177165354332
11
3.3834423228346457
21
-13.6758653543307087
0
LINE
8
BLACK
6
CONTINUOUS
10
3.3834423228346457
20
-13.6758653543307087
11
3.3871918503937009
21
-13.6833644488188977
0
LINE
8
BLACK
6
CONTINUOUS
10
3.3871918503937009
20
-13.6833644488188977
11
3.390941377952756
21
-13.6871139763779528
0
LINE
8
BLACK
6
CONTINUOUS
10
3.390941377952756
20
-13.6871139763779528
11
3.3984404330708662
21
-13.6908635039370079
0
LINE
8
BLACK
6
CONTINUOUS
10
3.3984404330708662
20
-13.6908635039370079
11
3.4134385826771654
21
-13.6908635039370079
0
LINE
8
BLACK
6
CONTINUOUS
10
3.4134385826771654
20
-13.6908635039370079
11
3.4209376377952756
21
-13.6871139763779528
0
LINE
8
BLACK
6
CONTINUOUS
10
3.4209376377952756
20
-13.6871139763779528
11
3.4246871653543307
21
-13.6833644488188977
0
LINE
8
BLACK
6
CONTINUOUS
10
3.4246871653543307
20
-13.6833644488188977
11
3.4284366929133858
21
-13.6758653543307087
0
LINE
8
BLACK
6
CONTINUOUS
10
3.4546834251968503
20
-13.6421196062992127
11
3.5071768503937006
21
-13.6421196062992127
0
LINE
8
BLACK
6
CONTINUOUS
10
3.5071768503937006
20
-13.6421196062992127
11
3.4734310629921259
21
-13.7208597637795275
0
LINE
8
BLACK
6
CONTINUOUS
10
3.5371731102362203
20
-13.7208597637795275
11
3.5371731102362203
21
-13.6683662992125985
0
LINE
8
BLACK
6
CONTINUOUS
10
3.5371731102362203
20
-13.6758653543307087
11
3.5409226377952754
21
-13.6721158267716536
0
LINE
8
BLACK
6
CONTINUOUS
10
3.5409226377952754
20
-13.6721158267716536
11
3.5484216929133856
21
-13.6683662992125985
0
LINE
8
BLACK
6
CONTINUOUS
10
3.5484216929133856
20
-13.6683662992125985
11
3.5596703149606297
21
-13.6683662992125985
0
LINE
8
BLACK
6
CONTINUOUS
10
3.5596703149606297
20
-13.6683662992125985
11
3.5671693700787399
21
-13.6721158267716536
0
LINE
8
BLACK
6
CONTINUOUS
10
3.5671693700787399
20
-13.6721158267716536
11
3.570918897637795
21
-13.6796149212598426
0
LINE
8
BLACK
6
CONTINUOUS
10
3.570918897637795
20
-13.6796149212598426
11
3.570918897637795
21
-13.7208597637795275
0
LINE
8
BLACK
6
CONTINUOUS
10
3.570918897637795
20
-13.6796149212598426
11
3.5746684251968501
21
-13.6721158267716536
0
LINE
8
BLACK
6
CONTINUOUS
10
3.5746684251968501
20
-13.6721158267716536
11
3.5821674803149604
21
-13.6683662992125985
0
LINE
8
BLACK
6
CONTINUOUS
10
3.5821674803149604
20
-13.6683662992125985
11
3.5934160629921257
21
-13.6683662992125985
0
LINE
8
BLACK
6
CONTINUOUS
10
3.5934160629921257
20
-13.6683662992125985
11
3.6009151574803151
21
-13.6721158267716536
0
LINE
8
BLACK
6
CONTINUOUS
10
3.6009151574803151
20
-13.6721158267716536
11
3.6046646850393702
21
-13.6796149212598426
0
LINE
8
BLACK
6
CONTINUOUS
10
3.6046646850393702
20
-13.6796149212598426
11
3.6046646850393702
21
-13.7208597637795275
0
LINE
8
BLACK
6
CONTINUOUS
10
3.6421600000000001
20
-13.7208597637795275
11
3.6421600000000001
21
-13.6683662992125985
0
LINE
8
BLACK
6
CONTINUOUS
10
3.6421600000000001
20
-13.6758653543307087
11
3.6459095275590552
21
-13.6721158267716536
0
LINE
8
BLACK
6
CONTINUOUS
10
3.6459095275590552
20
-13.6721158267716536
11
3.6534085826771654
21
-13.6683662992125985
0
LINE
8
BLACK
6
CONTINUOUS
10
3.6534085826771654
20
-13.6683662992125985
11
3.6646572047244095
21
-13.6683662992125985
0
LINE
8
BLACK
6
CONTINUOUS
10
3.6646572047244095
20
-13.6683662992125985
11
3.6721562598425197
21
-13.6721158267716536
0
LINE
8
BLACK
6
CONTINUOUS
10
3.6721562598425197
20
-13.6721158267716536
11
3.6759057874015748
21
-13.6796149212598426
0
LINE
8
BLACK
6
CONTINUOUS
10
3.6759057874015748
20
-13.6796149212598426
11
3.6759057874015748
21
-13.7208597637795275
0
LINE
8
BLACK
6
CONTINUOUS
10
3.6759057874015748
20
-13.6796149212598426
11
3.6796553149606299
21
-13.6721158267716536
0
LINE
8
BLACK
6
CONTINUOUS
10
3.6796553149606299
20
-13.6721158267716536
11
3.6871543700787401
21
-13.6683662992125985
0
LINE
8
BLACK
6
CONTINUOUS
10
3.6871543700787401
20
-13.6683662992125985
11
3.6984029527559055
21
-13.6683662992125985
0
LINE
8
BLACK
6
CONTINUOUS
10
3.6984029527559055
20
-13.6683662992125985
11
3.7059020472440944
21
-13.6721158267716536
0
LINE
8
BLACK
6
CONTINUOUS
10
3.7059020472440944
20
-13.6721158267716536
11
3.7096515748031496
21
-13.6796149212598426
0
LINE
8
BLACK
6
CONTINUOUS
10
3.7096515748031496
20
-13.6796149212598426
11
3.7096515748031496
21
-13.7208597637795275
0
LINE
8
BLACK
6
CONTINUOUS
10
3.8633823622047245
20
-13.6383700787401576
11
3.7958908267716533
21
-13.7396074015748031
0
LINE
8
BLACK
6
CONTINUOUS
10
3.9646197244094488
20
-13.6421196062992127
11
3.9721188188976377
21
-13.6421196062992127
0
LINE
8
BLACK
6
CONTINUOUS
10
3.9721188188976377
20
-13.6421196062992127
11
3.979617874015748
21
-13.6458691338582678
0
LINE
8
BLACK
6
CONTINUOUS
10
3.979617874015748
20
-13.6458691338582678
11
3.9833674015748031
21
-13.6496186614173229
0
LINE
8
BLACK
6
CONTINUOUS
10
3.9833674015748031
20
-13.6496186614173229
11
3.9871169291338582
21
-13.6571177165354332
0
LINE
8
BLACK
6
CONTINUOUS
10
3.9871169291338582
20
-13.6571177165354332
11
3.9908664566929133
21
-13.6721158267716536
0
LINE
8
BLACK
6
CONTINUOUS
10
3.9908664566929133
20
-13.6721158267716536
11
3.9908664566929133
21
-13.6908635039370079
0
LINE
8
BLACK
6
CONTINUOUS
10
3.9908664566929133
20
-13.6908635039370079
11
3.9871169291338582
21
-13.7058616141732283
0
LINE
8
BLACK
6
CONTINUOUS
10
3.9871169291338582
20
-13.7058616141732283
11
3.9833674015748031
21
-13.7133606692913386
0
LINE
8
BLACK
6
CONTINUOUS
10
3.9833674015748031
20
-13.7133606692913386
11
3.979617874015748
21
-13.7171102362204724
0
LINE
8
BLACK
6
CONTINUOUS
10
3.979617874015748
20
-13.7171102362204724
11
3.9721188188976377
21
-13.7208597637795275
0
LINE
8
BLACK
6
CONTINUOUS
10
3.9721188188976377
20
-13.7208597637795275
11
3.9646197244094488
21
-13.7208597637795275
0
LINE
8
BLACK
6
CONTINUOUS
10
3.9646197244094488
20
-13.7208597637795275
11
3.9571206692913385
21
-13.7171102362204724
0
LINE
8
BLACK
6
CONTINUOUS
10
3.9571206692913385
20
-13.7171102362204724
11
3.9533711417322834
21
-13.7133606692913386
0
LINE
8
BLACK
6
CONTINUOUS
10
3.9533711417322834
20
-13.7133606692913386
11
3.9496216141732283
21
-13.7058616141732283
0
LINE
8
BLACK
6
CONTINUOUS
10
3.9496216141732283
20
-13.7058616141732283
11
3.9458720866141732
21
-13.6908635039370079
0
LINE
8
BLACK
6
CONTINUOUS
10
3.9458720866141732
20
-13.6908635039370079
11
3.9458720866141732
21
-13.6721158267716536
0
LINE
8
BLACK
6
CONTINUOUS
10
3.9458720866141732
20
-13.6721158267716536
11
3.9496216141732283
21
-13.6571177165354332
0
LINE
8
BLACK
6
CONTINUOUS
10
3.9496216141732283
20
-13.6571177165354332
11
3.9533711417322834
21
-13.6496186614173229
0
LINE
8
BLACK
6
CONTINUOUS
10
3.9533711417322834
20
-13.6496186614173229
11
3.9571206692913385
21
-13.6458691338582678
0
LINE
8
BLACK
6
CONTINUOUS
10
3.9571206692913385
20
-13.6458691338582678
11
3.9646197244094488
21
-13.6421196062992127
0
LINE
8
BLACK
6
CONTINUOUS
10
4.024612244094488
20
-13.7133606692913386
11
4.0283617716535431
21
-13.7171102362204724
0
LINE
8
BLACK
6
CONTINUOUS
10
4.0283617716535431
20
-13.7171102362204724
11
4.024612244094488
21
-13.7208597637795275
0
LINE
8
BLACK
6
CONTINUOUS
10
4.024612244094488
20
-13.7208597637795275
11
4.0208627165354329
21
-13.7171102362204724
0
LINE
8
BLACK
6
CONTINUOUS
10
4.0208627165354329
20
-13.7171102362204724
11
4.024612244094488
21
-13.7133606692913386
0
LINE
8
BLACK
6
CONTINUOUS
10
4.024612244094488
20
-13.7133606692913386
11
4.024612244094488
21
-13.7208597637795275
0
LINE
8
BLACK
6
CONTINUOUS
10
4.1033524015748029
20
-13.7208597637795275
11
4.0583580314960628
21
-13.7208597637795275
0
LINE
8
BLACK
6
CONTINUOUS
10
4.0808551968503934
20
-13.7208597637795275
11
4.0808551968503934
21
-13.6421196062992127
0
LINE
8
BLACK
6
CONTINUOUS
10
4.0808551968503934
20
-13.6421196062992127
11
4.0733561417322832
21
-13.6533681889763781
0
LINE
8
BLACK
6
CONTINUOUS
10
4.0733561417322832
20
-13.6533681889763781
11
4.065857086614173
21
-13.6608672440944883
0
LINE
8
BLACK
6
CONTINUOUS
10
4.065857086614173
20
-13.6608672440944883
11
4.0583580314960628
21
-13.6646167716535434
0
LINE
8
BLACK
6
CONTINUOUS
10
4.1783430314960626
20
-13.7208597637795275
11
4.1333486614173225
21
-13.7208597637795275
0
LINE
8
BLACK
6
CONTINUOUS
10
4.1558458267716532
20
-13.7208597637795275
11
4.1558458267716532
21
-13.6421196062992127
0
LINE
8
BLACK
6
CONTINUOUS
10
4.1558458267716532
20
-13.6421196062992127
11
4.1483467716535429
21
-13.6533681889763781
0
LINE
8
BLACK
6
CONTINUOUS
10
4.1483467716535429
20
-13.6533681889763781
11
4.1408477165354327
21
-13.6608672440944883
0
LINE
8
BLACK
6
CONTINUOUS
10
4.1408477165354327
20
-13.6608672440944883
11
4.1333486614173225
21
-13.6646167716535434
0
LINE
8
BLACK
6
CONTINUOUS
10
4.2233374015748026
20
-13.6758653543307087
11
4.2158383464566924
21
-13.6721158267716536
0
LINE
8
BLACK
6
CONTINUOUS
10
4.2158383464566924
20
-13.6721158267716536
11
4.2120888188976373
21
-13.6683662992125985
0
LINE
8
BLACK
6
CONTINUOUS
10
4.2120888188976373
20
-13.6683662992125985
11
4.2083392913385822
21
-13.6608672440944883
0
LINE
8
BLACK
6
CONTINUOUS
10
4.2083392913385822
20
-13.6608672440944883
11
4.2083392913385822
21
-13.6571177165354332
0
LINE
8
BLACK
6
CONTINUOUS
10
4.2083392913385822
20
-13.6571177165354332
11
4.2120888188976373
21
-13.6496186614173229
0
LINE
8
BLACK
6
CONTINUOUS
10
4.2120888188976373
20
-13.6496186614173229
11
4.2158383464566924
21
-13.6458691338582678
0
LINE
8
BLACK
6
CONTINUOUS
10
4.2158383464566924
20
-13.6458691338582678
11
4.2233374015748026
21
-13.6421196062992127
0
LINE
8
BLACK
6
CONTINUOUS
10
4.2233374015748026
20
-13.6421196062992127
11
4.2383355511811018
21
-13.6421196062992127
0
LINE
8
BLACK
6
CONTINUOUS
10
4.2383355511811018
20
-13.6421196062992127
11
4.2458346062992129
21
-13.6458691338582678
0
LINE
8
BLACK
6
CONTINUOUS
10
4.2458346062992129
20
-13.6458691338582678
11
4.2495841338582681
21
-13.6496186614173229
0
LINE
8
BLACK
6
CONTINUOUS
10
4.2495841338582681
20
-13.6496186614173229
11
4.2533336614173232
21
-13.6571177165354332
0
LINE
8
BLACK
6
CONTINUOUS
10
4.2533336614173232
20
-13.6571177165354332
11
4.2533336614173232
21
-13.6608672440944883
0
LINE
8
BLACK
6
CONTINUOUS
10
4.2533336614173232
20
-13.6608672440944883
11
4.2495841338582681
21
-13.6683662992125985
0
LINE
8
BLACK
6
CONTINUOUS
10
4.2495841338582681
20
-13.6683662992125985
11
4.2458346062992129
21
-13.6721158267716536
0
LINE
8
BLACK
6
CONTINUOUS
10
4.2458346062992129
20
-13.6721158267716536
11
4.2383355511811018
21
-13.6758653543307087
0
LINE
8
BLACK
6
CONTINUOUS
10
4.2383355511811018
20
-13.6758653543307087
11
4.2233374015748026
21
-13.6758653543307087
0
LINE
8
BLACK
6
CONTINUOUS
10
4.2233374015748026
20
-13.6758653543307087
11
4.2158383464566924
21
-13.6796149212598426
0
LINE
8
BLACK
6
CONTINUOUS
10
4.2158383464566924
20
-13.6796149212598426
11
4.2120888188976373
21
-13.6833644488188977
0
LINE
8
BLACK
6
CONTINUOUS
10
4.2120888188976373
20
-13.6833644488188977
11
4.2083392913385822
21
-13.6908635039370079
0
LINE
8
BLACK
6
CONTINUOUS
10
4.2083392913385822
20
-13.6908635039370079
11
4.2083392913385822
21
-13.7058616141732283
0
LINE
8
BLACK
6
CONTINUOUS
10
4.2083392913385822
20
-13.7058616141732283
11
4.2120888188976373
21
-13.7133606692913386
0
LINE
8
BLACK
6
CONTINUOUS
10
4.2120888188976373
20
-13.7133606692913386
11
4.2158383464566924
21
-13.7171102362204724
0
LINE
8
BLACK
6
CONTINUOUS
10
4.2158383464566924
20
-13.7171102362204724
11
4.2233374015748026
21
-13.7208597637795275
0
LINE
8
BLACK
6
CONTINUOUS
10
4.2233374015748026
20
-13.7208597637795275
11
4.2383355511811018
21
-13.7208597637795275
0
LINE
8
BLACK
6
CONTINUOUS
10
4.2383355511811018
20
-13.7208597637795275
11
4.2458346062992129
21
-13.7171102362204724
0
LINE
8
BLACK
6
CONTINUOUS
10
4.2458346062992129
20
-13.7171102362204724
11
4.2495841338582681
21
-13.7133606692913386
0
LINE
8
BLACK
6
CONTINUOUS
10
4.2495841338582681
20
-13.7133606692913386
11
4.2533336614173232
21
-13.7058616141732283
0
LINE
8
BLACK
6
CONTINUOUS
10
4.2533336614173232
20
-13.7058616141732283
11
4.2533336614173232
21
-13.6908635039370079
0
LINE
8
BLACK
6
CONTINUOUS
10
4.2533336614173232
20
-13.6908635039370079
11
4.2495841338582681
21
-13.6833644488188977
0
LINE
8
BLACK
6
CONTINUOUS
10
4.2495841338582681
20
-13.6833644488188977
11
4.2458346062992129
21
-13.6796149212598426
0
LINE
8
BLACK
6
CONTINUOUS
10
4.2458346062992129
20
-13.6796149212598426
11
4.2383355511811018
21
-13.6758653543307087
0
LINE
8
BLACK
6
CONTINUOUS
10
4.3020775590551183
20
-13.6421196062992127
11
4.3095766535433073
21
-13.6421196062992127
0
LINE
8
BLACK
6
CONTINUOUS
10
4.3095766535433073
20
-13.6421196062992127
11
4.3170757086614175
21
-13.6458691338582678
0
LINE
8
BLACK
6
CONTINUOUS
10
4.3170757086614175
20
-13.6458691338582678
11
4.3208252362204727
21
-13.6496186614173229
0
LINE
8
BLACK
6
CONTINUOUS
10
4.3208252362204727
20
-13.6496186614173229
11
4.3245747637795278
21
-13.6571177165354332
0
LINE
8
BLACK
6
CONTINUOUS
10
4.3245747637795278
20
-13.6571177165354332
11
4.3283242913385829
21
-13.6721158267716536
0
LINE
8
BLACK
6
CONTINUOUS
10
4.3283242913385829
20
-13.6721158267716536
11
4.3283242913385829
21
-13.6908635039370079
0
LINE
8
BLACK
6
CONTINUOUS
10
4.3283242913385829
20
-13.6908635039370079
11
4.3245747637795278
21
-13.7058616141732283
0
LINE
8
BLACK
6
CONTINUOUS
10
4.3245747637795278
20
-13.7058616141732283
11
4.3208252362204727
21
-13.7133606692913386
0
LINE
8
BLACK
6
CONTINUOUS
10
4.3208252362204727
20
-13.7133606692913386
11
4.3170757086614175
21
-13.7171102362204724
0
LINE
8
BLACK
6
CONTINUOUS
10
4.3170757086614175
20
-13.7171102362204724
11
4.3095766535433073
21
-13.7208597637795275
0
LINE
8
BLACK
6
CONTINUOUS
10
4.3095766535433073
20
-13.7208597637795275
11
4.3020775590551183
21
-13.7208597637795275
0
LINE
8
BLACK
6
CONTINUOUS
10
4.3020775590551183
20
-13.7208597637795275
11
4.2945785039370081
21
-13.7171102362204724
0
LINE
8
BLACK
6
CONTINUOUS
10
4.2945785039370081
20
-13.7171102362204724
11
4.290828976377953
21
-13.7133606692913386
0
LINE
8
BLACK
6
CONTINUOUS
10
4.290828976377953
20
-13.7133606692913386
11
4.2870794488188979
21
-13.7058616141732283
0
LINE
8
BLACK
6
CONTINUOUS
10
4.2870794488188979
20
-13.7058616141732283
11
4.2833299212598428
21
-13.6908635039370079
0
LINE
8
BLACK
6
CONTINUOUS
10
4.2833299212598428
20
-13.6908635039370079
11
4.2833299212598428
21
-13.6721158267716536
0
LINE
8
BLACK
6
CONTINUOUS
10
4.2833299212598428
20
-13.6721158267716536
11
4.2870794488188979
21
-13.6571177165354332
0
LINE
8
BLACK
6
CONTINUOUS
10
4.2870794488188979
20
-13.6571177165354332
11
4.290828976377953
21
-13.6496186614173229
0
LINE
8
BLACK
6
CONTINUOUS
10
4.290828976377953
20
-13.6496186614173229
11
4.2945785039370081
21
-13.6458691338582678
0
LINE
8
BLACK
6
CONTINUOUS
10
4.2945785039370081
20
-13.6458691338582678
11
4.3020775590551183
21
-13.6421196062992127
0
LINE
8
BLACK
6
CONTINUOUS
10
4.3583205511811025
20
-13.6421196062992127
11
4.3583205511811025
21
-13.6571177165354332
0
LINE
8
BLACK
6
CONTINUOUS
10
4.3883168110236221
20
-13.6421196062992127
11
4.3883168110236221
21
-13.6571177165354332
0
LINE
8
BLACK
6
CONTINUOUS
10
4.5045523228346456
20
-13.7508559842519684
11
4.5008027559055117
21
-13.7471064566929133
0
LINE
8
BLACK
6
CONTINUOUS
10
4.5008027559055117
20
-13.7471064566929133
11
4.4933037007874015
21
-13.735857874015748
0
LINE
8
BLACK
6
CONTINUOUS
10
4.4933037007874015
20
-13.735857874015748
11
4.4895541732283464
21
-13.7283588188976378
0
LINE
8
BLACK
6
CONTINUOUS
10
4.4895541732283464
20
-13.7283588188976378
11
4.4858046456692913
21
-13.7171102362204724
0
LINE
8
BLACK
6
CONTINUOUS
10
4.4858046456692913
20
-13.7171102362204724
11
4.4820551181102362
21
-13.6983625590551181
0
LINE
8
BLACK
6
CONTINUOUS
10
4.4820551181102362
20
-13.6983625590551181
11
4.4820551181102362
21
-13.6833644488188977
0
LINE
8
BLACK
6
CONTINUOUS
10
4.4820551181102362
20
-13.6833644488188977
11
4.4858046456692913
21
-13.6646167716535434
0
LINE
8
BLACK
6
CONTINUOUS
10
4.4858046456692913
20
-13.6646167716535434
11
4.4895541732283464
21
-13.6533681889763781
0
LINE
8
BLACK
6
CONTINUOUS
10
4.4895541732283464
20
-13.6533681889763781
11
4.4933037007874015
21
-13.6458691338582678
0
LINE
8
BLACK
6
CONTINUOUS
10
4.4933037007874015
20
-13.6458691338582678
11
4.5008027559055117
21
-13.6346205118110237
0
LINE
8
BLACK
6
CONTINUOUS
10
4.5008027559055117
20
-13.6346205118110237
11
4.5045523228346456
21
-13.6308709842519686
0
LINE
8
BLACK
6
CONTINUOUS
10
4.5757933858267714
20
-13.7208597637795275
11
4.5307990157480313
21
-13.7208597637795275
0
LINE
8
BLACK
6
CONTINUOUS
10
4.553296181102362
20
-13.7208597637795275
11
4.553296181102362
21
-13.6421196062992127
0
LINE
8
BLACK
6
CONTINUOUS
10
4.553296181102362
20
-13.6421196062992127
11
4.5457971259842518
21
-13.6533681889763781
0
LINE
8
BLACK
6
CONTINUOUS
10
4.5457971259842518
20
-13.6533681889763781
11
4.5382980708661416
21
-13.6608672440944883
0
LINE
8
BLACK
6
CONTINUOUS
10
4.5382980708661416
20
-13.6608672440944883
11
4.5307990157480313
21
-13.6646167716535434
0
LINE
8
BLACK
6
CONTINUOUS
10
4.6695316929133854
20
-13.7208597637795275
11
4.6695316929133854
21
-13.6421196062992127
0
LINE
8
BLACK
6
CONTINUOUS
10
4.7032774803149602
20
-13.7208597637795275
11
4.7032774803149602
21
-13.6796149212598426
0
LINE
8
BLACK
6
CONTINUOUS
10
4.7032774803149602
20
-13.6796149212598426
11
4.6995279527559051
21
-13.6721158267716536
0
LINE
8
BLACK
6
CONTINUOUS
10
4.6995279527559051
20
-13.6721158267716536
11
4.6920288976377948
21
-13.6683662992125985
0
LINE
8
BLACK
6
CONTINUOUS
10
4.6920288976377948
20
-13.6683662992125985
11
4.6807802755905508
21
-13.6683662992125985
0
LINE
8
BLACK
6
CONTINUOUS
10
4.6807802755905508
20
-13.6683662992125985
11
4.6732812204724405
21
-13.6721158267716536
0
LINE
8
BLACK
6
CONTINUOUS
10
4.6732812204724405
20
-13.6721158267716536
11
4.6695316929133854
21
-13.6758653543307087
0
LINE
8
BLACK
6
CONTINUOUS
10
4.7520213779527554
20
-13.7208597637795275
11
4.7445223228346451
21
-13.7171102362204724
0
LINE
8
BLACK
6
CONTINUOUS
10
4.7445223228346451
20
-13.7171102362204724
11
4.74077279527559
21
-13.7133606692913386
0
LINE
8
BLACK
6
CONTINUOUS
10
4.74077279527559
20
-13.7133606692913386
11
4.7370232677165349
21
-13.7058616141732283
0
LINE
8
BLACK
6
CONTINUOUS
10
4.7370232677165349
20
-13.7058616141732283
11
4.7370232677165349
21
-13.6833644488188977
0
LINE
8
BLACK
6
CONTINUOUS
10
4.7370232677165349
20
-13.6833644488188977
11
4.74077279527559
21
-13.6758653543307087
0
LINE
8
BLACK
6
CONTINUOUS
10
4.74077279527559
20
-13.6758653543307087
11
4.7445223228346451
21
-13.6721158267716536
0
LINE
8
BLACK
6
CONTINUOUS
10
4.7445223228346451
20
-13.6721158267716536
11
4.7520213779527554
21
-13.6683662992125985
0
LINE
8
BLACK
6
CONTINUOUS
10
4.7520213779527554
20
-13.6683662992125985
11
4.7632699999999994
21
-13.6683662992125985
0
LINE
8
BLACK
6
CONTINUOUS
10
4.7632699999999994
20
-13.6683662992125985
11
4.7707690551181106
21
-13.6721158267716536
0
LINE
8
BLACK
6
CONTINUOUS
10
4.7707690551181106
20
-13.6721158267716536
11
4.7745185826771657
21
-13.6758653543307087
0
LINE
8
BLACK
6
CONTINUOUS
10
4.7745185826771657
20
-13.6758653543307087
11
4.7782681102362208
21
-13.6833644488188977
0
LINE
8
BLACK
6
CONTINUOUS
10
4.7782681102362208
20
-13.6833644488188977
11
4.7782681102362208
21
-13.7058616141732283
0
LINE
8
BLACK
6
CONTINUOUS
10
4.7782681102362208
20
-13.7058616141732283
11
4.7745185826771657
21
-13.7133606692913386
0
LINE
8
BLACK
6
CONTINUOUS
10
4.7745185826771657
20
-13.7133606692913386
11
4.7707690551181106
21
-13.7171102362204724
0
LINE
8
BLACK
6
CONTINUOUS
10
4.7707690551181106
20
-13.7171102362204724
11
4.7632699999999994
21
-13.7208597637795275
0
LINE
8
BLACK
6
CONTINUOUS
10
4.7632699999999994
20
-13.7208597637795275
11
4.7520213779527554
21
-13.7208597637795275
0
LINE
8
BLACK
6
CONTINUOUS
10
4.8232624803149609
20
-13.7208597637795275
11
4.8157634251968506
21
-13.7171102362204724
0
LINE
8
BLACK
6
CONTINUOUS
10
4.8157634251968506
20
-13.7171102362204724
11
4.8120138976377955
21
-13.7096111417322835
0
LINE
8
BLACK
6
CONTINUOUS
10
4.8120138976377955
20
-13.7096111417322835
11
4.8120138976377955
21
-13.6421196062992127
0
LINE
8
BLACK
6
CONTINUOUS
10
4.8832550000000001
20
-13.7171102362204724
11
4.8757559448818899
21
-13.7208597637795275
0
LINE
8
BLACK
6
CONTINUOUS
10
4.8757559448818899
20
-13.7208597637795275
11
4.8607577952755907
21
-13.7208597637795275
0
LINE
8
BLACK
6
CONTINUOUS
10
4.8607577952755907
20
-13.7208597637795275
11
4.8532587401574805
21
-13.7171102362204724
0
LINE
8
BLACK
6
CONTINUOUS
10
4.8532587401574805
20
-13.7171102362204724
11
4.8495092125984254
21
-13.7096111417322835
0
LINE
8
BLACK
6
CONTINUOUS
10
4.8495092125984254
20
-13.7096111417322835
11
4.8495092125984254
21
-13.6796149212598426
0
LINE
8
BLACK
6
CONTINUOUS
10
4.8495092125984254
20
-13.6796149212598426
11
4.8532587401574805
21
-13.6721158267716536
0
LINE
8
BLACK
6
CONTINUOUS
10
4.8532587401574805
20
-13.6721158267716536
11
4.8607577952755907
21
-13.6683662992125985
0
LINE
8
BLACK
6
CONTINUOUS
10
4.8607577952755907
20
-13.6683662992125985
11
4.8757559448818899
21
-13.6683662992125985
0
LINE
8
BLACK
6
CONTINUOUS
10
4.8757559448818899
20
-13.6683662992125985
11
4.8832550000000001
21
-13.6721158267716536
0
LINE
8
BLACK
6
CONTINUOUS
10
4.8832550000000001
20
-13.6721158267716536
11
4.8870045275590552
21
-13.6796149212598426
0
LINE
8
BLACK
6
CONTINUOUS
10
4.8870045275590552
20
-13.6796149212598426
11
4.8870045275590552
21
-13.6871139763779528
0
LINE
8
BLACK
6
CONTINUOUS
10
4.8870045275590552
20
-13.6871139763779528
11
4.8495092125984254
21
-13.694613031496063
0
LINE
8
BLACK
6
CONTINUOUS
10
4.9132512598425198
20
-13.7508559842519684
11
4.9170007874015749
21
-13.7471064566929133
0
LINE
8
BLACK
6
CONTINUOUS
10
4.9170007874015749
20
-13.7471064566929133
11
4.9244998425196851
21
-13.735857874015748
0
LINE
8
BLACK
6
CONTINUOUS
10
4.9244998425196851
20
-13.735857874015748
11
4.9282493700787402
21
-13.7283588188976378
0
LINE
8
BLACK
6
CONTINUOUS
10
4.9282493700787402
20
-13.7283588188976378
11
4.9319988976377953
21
-13.7171102362204724
0
LINE
8
BLACK
6
CONTINUOUS
10
4.9319988976377953
20
-13.7171102362204724
11
4.9357484251968504
21
-13.6983625590551181
0
LINE
8
BLACK
6
CONTINUOUS
10
4.9357484251968504
20
-13.6983625590551181
11
4.9357484251968504
21
-13.6833644488188977
0
LINE
8
BLACK
6
CONTINUOUS
10
4.9357484251968504
20
-13.6833644488188977
11
4.9319988976377953
21
-13.6646167716535434
0
LINE
8
BLACK
6
CONTINUOUS
10
4.9319988976377953
20
-13.6646167716535434
11
4.9282493700787402
21
-13.6533681889763781
0
LINE
8
BLACK
6
CONTINUOUS
10
4.9282493700787402
20
-13.6533681889763781
11
4.9244998425196851
21
-13.6458691338582678
0
LINE
8
BLACK
6
CONTINUOUS
10
4.9244998425196851
20
-13.6458691338582678
11
4.9170007874015749
21
-13.6346205118110237
0
LINE
8
BLACK
6
CONTINUOUS
10
4.9170007874015749
20
-13.6346205118110237
11
4.9132512598425198
21
-13.6308709842519686
0
LINE
8
BLACK
6
CONTINUOUS
10
5.055733464566929
20
-13.7508559842519684
11
5.0519838976377951
21
-13.7471064566929133
0
LINE
8
BLACK
6
CONTINUOUS
10
5.0519838976377951
20
-13.7471064566929133
11
5.0444848425196849
21
-13.735857874015748
0
LINE
8
BLACK
6
CONTINUOUS
10
5.0444848425196849
20
-13.735857874015748
11
5.0407353149606298
21
-13.7283588188976378
0
LINE
8
BLACK
6
CONTINUOUS
10
5.0407353149606298
20
-13.7283588188976378
11
5.0369857874015747
21
-13.7171102362204724
0
LINE
8
BLACK
6
CONTINUOUS
10
5.0369857874015747
20
-13.7171102362204724
11
5.0332362598425195
21
-13.6983625590551181
0
LINE
8
BLACK
6
CONTINUOUS
10
5.0332362598425195
20
-13.6983625590551181
11
5.0332362598425195
21
-13.6833644488188977
0
LINE
8
BLACK
6
CONTINUOUS
10
5.0332362598425195
20
-13.6833644488188977
11
5.0369857874015747
21
-13.6646167716535434
0
LINE
8
BLACK
6
CONTINUOUS
10
5.0369857874015747
20
-13.6646167716535434
11
5.0407353149606298
21
-13.6533681889763781
0
LINE
8
BLACK
6
CONTINUOUS
10
5.0407353149606298
20
-13.6533681889763781
11
5.0444848425196849
21
-13.6458691338582678
0
LINE
8
BLACK
6
CONTINUOUS
10
5.0444848425196849
20
-13.6458691338582678
11
5.0519838976377951
21
-13.6346205118110237
0
LINE
8
BLACK
6
CONTINUOUS
10
5.0519838976377951
20
-13.6346205118110237
11
5.055733464566929
21
-13.6308709842519686
0
LINE
8
BLACK
6
CONTINUOUS
10
5.0857296850393698
20
-13.6683662992125985
11
5.0857296850393698
21
-13.7208597637795275
0
LINE
8
BLACK
6
CONTINUOUS
10
5.0857296850393698
20
-13.6758653543307087
11
5.089479212598425
21
-13.6721158267716536
0
LINE
8
BLACK
6
CONTINUOUS
10
5.089479212598425
20
-13.6721158267716536
11
5.0969782677165352
21
-13.6683662992125985
0
LINE
8
BLACK
6
CONTINUOUS
10
5.0969782677165352
20
-13.6683662992125985
11
5.1082268897637793
21
-13.6683662992125985
0
LINE
8
BLACK
6
CONTINUOUS
10
5.1082268897637793
20
-13.6683662992125985
11
5.1157259448818895
21
-13.6721158267716536
0
LINE
8
BLACK
6
CONTINUOUS
10
5.1157259448818895
20
-13.6721158267716536
11
5.1194754724409446
21
-13.6796149212598426
0
LINE
8
BLACK
6
CONTINUOUS
10
5.1194754724409446
20
-13.6796149212598426
11
5.1194754724409446
21
-13.7208597637795275
0
LINE
8
BLACK
6
CONTINUOUS
10
5.1682193700787398
20
-13.7208597637795275
11
5.1607203149606296
21
-13.7171102362204724
0
LINE
8
BLACK
6
CONTINUOUS
10
5.1607203149606296
20
-13.7171102362204724
11
5.1569707874015744
21
-13.7133606692913386
0
LINE
8
BLACK
6
CONTINUOUS
10
5.1569707874015744
20
-13.7133606692913386
11
5.1532212598425193
21
-13.7058616141732283
0
LINE
8
BLACK
6
CONTINUOUS
10
5.1532212598425193
20
-13.7058616141732283
11
5.1532212598425193
21
-13.6833644488188977
0
LINE
8
BLACK
6
CONTINUOUS
10
5.1532212598425193
20
-13.6833644488188977
11
5.1569707874015744
21
-13.6758653543307087
0
LINE
8
BLACK
6
CONTINUOUS
10
5.1569707874015744
20
-13.6758653543307087
11
5.1607203149606296
21
-13.6721158267716536
0
LINE
8
BLACK
6
CONTINUOUS
10
5.1607203149606296
20
-13.6721158267716536
11
5.1682193700787398
21
-13.6683662992125985
0
LINE
8
BLACK
6
CONTINUOUS
10
5.1682193700787398
20
-13.6683662992125985
11
5.1794679921259839
21
-13.6683662992125985
0
LINE
8
BLACK
6
CONTINUOUS
10
5.1794679921259839
20
-13.6683662992125985
11
5.1869670472440941
21
-13.6721158267716536
0
LINE
8
BLACK
6
CONTINUOUS
10
5.1869670472440941
20
-13.6721158267716536
11
5.1907165748031492
21
-13.6758653543307087
0
LINE
8
BLACK
6
CONTINUOUS
10
5.1907165748031492
20
-13.6758653543307087
11
5.1944661023622043
21
-13.6833644488188977
0
LINE
8
BLACK
6
CONTINUOUS
10
5.1944661023622043
20
-13.6833644488188977
11
5.1944661023622043
21
-13.7058616141732283
0
LINE
8
BLACK
6
CONTINUOUS
10
5.1944661023622043
20
-13.7058616141732283
11
5.1907165748031492
21
-13.7133606692913386
0
LINE
8
BLACK
6
CONTINUOUS
10
5.1907165748031492
20
-13.7133606692913386
11
5.1869670472440941
21
-13.7171102362204724
0
LINE
8
BLACK
6
CONTINUOUS
10
5.1869670472440941
20
-13.7171102362204724
11
5.1794679921259839
21
-13.7208597637795275
0
LINE
8
BLACK
6
CONTINUOUS
10
5.1794679921259839
20
-13.7208597637795275
11
5.1682193700787398
21
-13.7208597637795275
0
LINE
8
BLACK
6
CONTINUOUS
10
5.2169633070866137
20
-13.6683662992125985
11
5.2469595275590546
21
-13.6683662992125985
0
LINE
8
BLACK
6
CONTINUOUS
10
5.228211889763779
20
-13.6421196062992127
11
5.228211889763779
21
-13.7096111417322835
0
LINE
8
BLACK
6
CONTINUOUS
10
5.228211889763779
20
-13.7096111417322835
11
5.2319614173228342
21
-13.7171102362204724
0
LINE
8
BLACK
6
CONTINUOUS
10
5.2319614173228342
20
-13.7171102362204724
11
5.2394604724409444
21
-13.7208597637795275
0
LINE
8
BLACK
6
CONTINUOUS
10
5.2394604724409444
20
-13.7208597637795275
11
5.2469595275590546
21
-13.7208597637795275
0
LINE
8
BLACK
6
CONTINUOUS
10
5.3331987795275593
20
-13.6683662992125985
11
5.3331987795275593
21
-13.7471064566929133
0
LINE
8
BLACK
6
CONTINUOUS
10
5.3331987795275593
20
-13.6721158267716536
11
5.3406978346456695
21
-13.6683662992125985
0
LINE
8
BLACK
6
CONTINUOUS
10
5.3406978346456695
20
-13.6683662992125985
11
5.3556959842519687
21
-13.6683662992125985
0
LINE
8
BLACK
6
CONTINUOUS
10
5.3556959842519687
20
-13.6683662992125985
11
5.3631950393700789
21
-13.6721158267716536
0
LINE
8
BLACK
6
CONTINUOUS
10
5.3631950393700789
20
-13.6721158267716536
11
5.366944566929134
21
-13.6758653543307087
0
LINE
8
BLACK
6
CONTINUOUS
10
5.366944566929134
20
-13.6758653543307087
11
5.3706940944881891
21
-13.6833644488188977
0
LINE
8
BLACK
6
CONTINUOUS
10
5.3706940944881891
20
-13.6833644488188977
11
5.3706940944881891
21
-13.7058616141732283
0
LINE
8
BLACK
6
CONTINUOUS
10
5.3706940944881891
20
-13.7058616141732283
11
5.366944566929134
21
-13.7133606692913386
0
LINE
8
BLACK
6
CONTINUOUS
10
5.366944566929134
20
-13.7133606692913386
11
5.3631950393700789
21
-13.7171102362204724
0
LINE
8
BLACK
6
CONTINUOUS
10
5.3631950393700789
20
-13.7171102362204724
11
5.3556959842519687
21
-13.7208597637795275
0
LINE
8
BLACK
6
CONTINUOUS
10
5.3556959842519687
20
-13.7208597637795275
11
5.3406978346456695
21
-13.7208597637795275
0
LINE
8
BLACK
6
CONTINUOUS
10
5.3406978346456695
20
-13.7208597637795275
11
5.3331987795275593
21
-13.7171102362204724
0
LINE
8
BLACK
6
CONTINUOUS
10
5.4156884645669292
20
-13.7208597637795275
11
5.408189409448819
21
-13.7171102362204724
0
LINE
8
BLACK
6
CONTINUOUS
10
5.408189409448819
20
-13.7171102362204724
11
5.4044398818897639
21
-13.7096111417322835
0
LINE
8
BLACK
6
CONTINUOUS
10
5.4044398818897639
20
-13.7096111417322835
11
5.4044398818897639
21
-13.6421196062992127
0
LINE
8
BLACK
6
CONTINUOUS
10
5.4794305118110236
20
-13.7208597637795275
11
5.4794305118110236
21
-13.6796149212598426
0
LINE
8
BLACK
6
CONTINUOUS
10
5.4794305118110236
20
-13.6796149212598426
11
5.4756809842519685
21
-13.6721158267716536
0
LINE
8
BLACK
6
CONTINUOUS
10
5.4756809842519685
20
-13.6721158267716536
11
5.4681819291338583
21
-13.6683662992125985
0
LINE
8
BLACK
6
CONTINUOUS
10
5.4681819291338583
20
-13.6683662992125985
11
5.4531837795275591
21
-13.6683662992125985
0
LINE
8
BLACK
6
CONTINUOUS
10
5.4531837795275591
20
-13.6683662992125985
11
5.4456847244094488
21
-13.6721158267716536
0
LINE
8
BLACK
6
CONTINUOUS
10
5.4794305118110236
20
-13.7171102362204724
11
5.4719314566929134
21
-13.7208597637795275
0
LINE
8
BLACK
6
CONTINUOUS
10
5.4719314566929134
20
-13.7208597637795275
11
5.4531837795275591
21
-13.7208597637795275
0
LINE
8
BLACK
6
CONTINUOUS
10
5.4531837795275591
20
-13.7208597637795275
11
5.4456847244094488
21
-13.7171102362204724
0
LINE
8
BLACK
6
CONTINUOUS
10
5.4456847244094488
20
-13.7171102362204724
11
5.4419351968503937
21
-13.7096111417322835
0
LINE
8
BLACK
6
CONTINUOUS
10
5.4419351968503937
20
-13.7096111417322835
11
5.4419351968503937
21
-13.7021120866141732
0
LINE
8
BLACK
6
CONTINUOUS
10
5.4419351968503937
20
-13.7021120866141732
11
5.4456847244094488
21
-13.694613031496063
0
LINE
8
BLACK
6
CONTINUOUS
10
5.4456847244094488
20
-13.694613031496063
11
5.4531837795275591
21
-13.6908635039370079
0
LINE
8
BLACK
6
CONTINUOUS
10
5.4531837795275591
20
-13.6908635039370079
11
5.4719314566929134
21
-13.6908635039370079
0
LINE
8
BLACK
6
CONTINUOUS
10
5.4719314566929134
20
-13.6908635039370079
11
5.4794305118110236
21
-13.6871139763779528
0
LINE
8
BLACK
6
CONTINUOUS
10
5.5056772440944881
20
-13.6683662992125985
11
5.535673464566929
21
-13.6683662992125985
0
LINE
8
BLACK
6
CONTINUOUS
10
5.5169258267716534
20
-13.6421196062992127
11
5.5169258267716534
21
-13.7096111417322835
0
LINE
8
BLACK
6
CONTINUOUS
10
5.5169258267716534
20
-13.7096111417322835
11
5.5206753543307086
21
-13.7171102362204724
0
LINE
8
BLACK
6
CONTINUOUS
10
5.5206753543307086
20
-13.7171102362204724
11
5.5281744094488188
21
-13.7208597637795275
0
LINE
8
BLACK
6
CONTINUOUS
10
5.5281744094488188
20
-13.7208597637795275
11
5.535673464566929
21
-13.7208597637795275
0
LINE
8
BLACK
6
CONTINUOUS
10
5.5919164566929132
20
-13.7171102362204724
11
5.5844174015748029
21
-13.7208597637795275
0
LINE
8
BLACK
6
CONTINUOUS
10
5.5844174015748029
20
-13.7208597637795275
11
5.5694192519685037
21
-13.7208597637795275
0
LINE
8
BLACK
6
CONTINUOUS
10
5.5694192519685037
20
-13.7208597637795275
11
5.5619201968503935
21
-13.7171102362204724
0
LINE
8
BLACK
6
CONTINUOUS
10
5.5619201968503935
20
-13.7171102362204724
11
5.5581706692913384
21
-13.7096111417322835
0
LINE
8
BLACK
6
CONTINUOUS
10
5.5581706692913384
20
-13.7096111417322835
11
5.5581706692913384
21
-13.6796149212598426
0
LINE
8
BLACK
6
CONTINUOUS
10
5.5581706692913384
20
-13.6796149212598426
11
5.5619201968503935
21
-13.6721158267716536
0
LINE
8
BLACK
6
CONTINUOUS
10
5.5619201968503935
20
-13.6721158267716536
11
5.5694192519685037
21
-13.6683662992125985
0
LINE
8
BLACK
6
CONTINUOUS
10
5.5694192519685037
20
-13.6683662992125985
11
5.5844174015748029
21
-13.6683662992125985
0
LINE
8
BLACK
6
CONTINUOUS
10
5.5844174015748029
20
-13.6683662992125985
11
5.5919164566929132
21
-13.6721158267716536
0
LINE
8
BLACK
6
CONTINUOUS
10
5.5919164566929132
20
-13.6721158267716536
11
5.5956659842519683
21
-13.6796149212598426
0
LINE
8
BLACK
6
CONTINUOUS
10
5.5956659842519683
20
-13.6796149212598426
11
5.5956659842519683
21
-13.6871139763779528
0
LINE
8
BLACK
6
CONTINUOUS
10
5.5956659842519683
20
-13.6871139763779528
11
5.5581706692913384
21
-13.694613031496063
0
LINE
8
BLACK
6
CONTINUOUS
10
5.6631575590551178
20
-13.7208597637795275
11
5.6631575590551178
21
-13.6421196062992127
0
LINE
8
BLACK
6
CONTINUOUS
10
5.6631575590551178
20
-13.7171102362204724
11
5.6556585039370075
21
-13.7208597637795275
0
LINE
8
BLACK
6
CONTINUOUS
10
5.6556585039370075
20
-13.7208597637795275
11
5.6406603543307083
21
-13.7208597637795275
0
LINE
8
BLACK
6
CONTINUOUS
10
5.6406603543307083
20
-13.7208597637795275
11
5.6331612992125981
21
-13.7171102362204724
0
LINE
8
BLACK
6
CONTINUOUS
10
5.6331612992125981
20
-13.7171102362204724
11
5.629411771653543
21
-13.7133606692913386
0
LINE
8
BLACK
6
CONTINUOUS
10
5.629411771653543
20
-13.7133606692913386
11
5.6256622440944879
21
-13.7058616141732283
0
LINE
8
BLACK
6
CONTINUOUS
10
5.6256622440944879
20
-13.7058616141732283
11
5.6256622440944879
21
-13.6833644488188977
0
LINE
8
BLACK
6
CONTINUOUS
10
5.6256622440944879
20
-13.6833644488188977
11
5.629411771653543
21
-13.6758653543307087
0
LINE
8
BLACK
6
CONTINUOUS
10
5.629411771653543
20
-13.6758653543307087
11
5.6331612992125981
21
-13.6721158267716536
0
LINE
8
BLACK
6
CONTINUOUS
10
5.6331612992125981
20
-13.6721158267716536
11
5.6406603543307083
21
-13.6683662992125985
0
LINE
8
BLACK
6
CONTINUOUS
10
5.6406603543307083
20
-13.6683662992125985
11
5.6556585039370075
21
-13.6683662992125985
0
LINE
8
BLACK
6
CONTINUOUS
10
5.6556585039370075
20
-13.6683662992125985
11
5.6631575590551178
21
-13.6721158267716536
0
LINE
8
BLACK
6
CONTINUOUS
10
5.6931538188976374
20
-13.7508559842519684
11
5.6969033464566925
21
-13.7471064566929133
0
LINE
8
BLACK
6
CONTINUOUS
10
5.6969033464566925
20
-13.7471064566929133
11
5.7044024015748027
21
-13.735857874015748
0
LINE
8
BLACK
6
CONTINUOUS
10
5.7044024015748027
20
-13.735857874015748
11
5.7081519291338578
21
-13.7283588188976378
0
LINE
8
BLACK
6
CONTINUOUS
10
5.7081519291338578
20
-13.7283588188976378
11
5.7119014566929129
21
-13.7171102362204724
0
LINE
8
BLACK
6
CONTINUOUS
10
5.7119014566929129
20
-13.7171102362204724
11
5.715650984251968
21
-13.6983625590551181
0
LINE
8
BLACK
6
CONTINUOUS
10
5.715650984251968
20
-13.6983625590551181
11
5.715650984251968
21
-13.6833644488188977
0
LINE
8
BLACK
6
CONTINUOUS
10
5.715650984251968
20
-13.6833644488188977
11
5.7119014566929129
21
-13.6646167716535434
0
LINE
8
BLACK
6
CONTINUOUS
10
5.7119014566929129
20
-13.6646167716535434
11
5.7081519291338578
21
-13.6533681889763781
0
LINE
8
BLACK
6
CONTINUOUS
10
5.7081519291338578
20
-13.6533681889763781
11
5.7044024015748027
21
-13.6458691338582678
0
LINE
8
BLACK
6
CONTINUOUS
10
5.7044024015748027
20
-13.6458691338582678
11
5.6969033464566925
21
-13.6346205118110237
0
LINE
8
BLACK
6
CONTINUOUS
10
5.6969033464566925
20
-13.6346205118110237
11
5.6931538188976374
21
-13.6308709842519686
  0
ENDSEC
  0
EOF
