  0
SECTION
  2
HEADER
  9
$ANGBASE
  50
0.0
  9
$ANGDIR
  70
1
  9
$MEASUREMENT
  70
0
  0
ENDSEC
  0
SECTION
  2
TABLES
  0
TABLE
  2
LTYPE
  70
4
  0
LTYPE
  5
40F
  2
CONTINUOUS
  70
0
  3
Solid line
  72
65
  73
0
  40
0.0
  0
LTYPE
  5
410
  2
DASHDOT
 70
0
  3
Dash Dot ____ _ ____ _
 72
65
 73
4
 40
2.0
 49
1.25
 49
-0.25
 49
0.25
 49
-0.25
  0
LTYPE
  5
411
  2
DASHED
 70
0
  3
Dashed __ __ __ __ __
 72
65
 73
2
 40
0.75
 49
0.5
 49
-0.25
  0
LTYPE
  5
43B
  2
DOTTED
 70
0
  3
Dotted .  .  .  .
 72
65
 73
2
 40
0.2
 49
0.0
 49
-0.2
  0
ENDTAB
  0
TABLE
  2
STYLE
  70
4
  0
STYLE
  2
KICAD
  70
0
  40
0
  41
1
  42
1
  50
0
  71
0
  3
isocp.shx
  0
STYLE
  2
KICADB
  70
0
  40
0
  41
1
  42
1
  50
0
  71
0
  3
isocp.shx
  0
STYLE
  2
KICADI
  70
0
  40
0
  41
1
  42
1
  50
15
  71
0
  3
isocp.shx
  0
STYLE
  2
KICADBI
  70
0
  40
0
  41
1
  42
1
  50
15
  71
0
  3
isocp.shx
  0
ENDTAB
  0
TABLE
  2
LAYER
  70
1
  0
LAYER
  2
BLACK
  70
0
  62
7
  6
CONTINUOUS
  0
ENDTAB
  0
ENDSEC
  0
SECTION
  2
ENTITIES
0
LINE
8
BLACK
6
CONTINUOUS
10
4.05629
20
-7.29669
11
4.05866
21
-7.29096
0
LINE
8
BLACK
6
CONTINUOUS
10
4.05866
20
-7.29096
11
4.06211
21
-7.28581
0
LINE
8
BLACK
6
CONTINUOUS
10
4.06211
20
-7.28581
11
4.06649
21
-7.28143
0
LINE
8
BLACK
6
CONTINUOUS
10
4.06649
20
-7.28143
11
4.07164
21
-7.27799
0
LINE
8
BLACK
6
CONTINUOUS
10
4.07164
20
-7.27799
11
4.07737
21
-7.27561
0
LINE
8
BLACK
6
CONTINUOUS
10
4.07737
20
-7.27561
11
4.08344
21
-7.2744
0
LINE
8
BLACK
6
CONTINUOUS
10
4.08344
20
-7.2744
11
4.08964
21
-7.2744
0
LINE
8
BLACK
6
CONTINUOUS
10
4.08964
20
-7.2744
11
4.09572
21
-7.27561
0
LINE
8
BLACK
6
CONTINUOUS
10
4.09572
20
-7.27561
11
4.10145
21
-7.27799
0
LINE
8
BLACK
6
CONTINUOUS
10
4.10145
20
-7.27799
11
4.1066
21
-7.28143
0
LINE
8
BLACK
6
CONTINUOUS
10
4.1066
20
-7.28143
11
4.11098
21
-7.28581
0
LINE
8
BLACK
6
CONTINUOUS
10
4.11098
20
-7.28581
11
4.11442
21
-7.29096
0
LINE
8
BLACK
6
CONTINUOUS
10
4.11442
20
-7.29096
11
4.1168
21
-7.29669
0
LINE
8
BLACK
6
CONTINUOUS
10
4.1168
20
-7.29669
11
4.118
21
-7.30277
0
LINE
8
BLACK
6
CONTINUOUS
10
4.118
20
-7.30277
11
4.118
21
-7.30896
0
LINE
8
BLACK
6
CONTINUOUS
10
4.118
20
-7.30896
11
4.1168
21
-7.31504
0
LINE
8
BLACK
6
CONTINUOUS
10
4.1168
20
-7.31504
11
4.11442
21
-7.32077
0
LINE
8
BLACK
6
CONTINUOUS
10
4.11442
20
-7.32077
11
4.11098
21
-7.32592
0
LINE
8
BLACK
6
CONTINUOUS
10
4.11098
20
-7.32592
11
4.1066
21
-7.3303
0
LINE
8
BLACK
6
CONTINUOUS
10
4.1066
20
-7.3303
11
4.10145
21
-7.33375
0
LINE
8
BLACK
6
CONTINUOUS
10
4.10145
20
-7.33375
11
4.09572
21
-7.33612
0
LINE
8
BLACK
6
CONTINUOUS
10
4.09572
20
-7.33612
11
4.08964
21
-7.33733
0
LINE
8
BLACK
6
CONTINUOUS
10
4.08964
20
-7.33733
11
4.08344
21
-7.33733
0
LINE
8
BLACK
6
CONTINUOUS
10
4.08344
20
-7.33733
11
4.07737
21
-7.33612
0
LINE
8
BLACK
6
CONTINUOUS
10
4.07737
20
-7.33612
11
4.07164
21
-7.33375
0
LINE
8
BLACK
6
CONTINUOUS
10
4.07164
20
-7.33375
11
4.06649
21
-7.3303
0
LINE
8
BLACK
6
CONTINUOUS
10
4.06649
20
-7.3303
11
4.06211
21
-7.32592
0
LINE
8
BLACK
6
CONTINUOUS
10
4.06211
20
-7.32592
11
4.05866
21
-7.32077
0
LINE
8
BLACK
6
CONTINUOUS
10
4.05866
20
-7.32077
11
4.05629
21
-7.31504
0
LINE
8
BLACK
6
CONTINUOUS
10
4.05629
20
-7.31504
11
4.05508
21
-7.30896
0
LINE
8
BLACK
6
CONTINUOUS
10
4.05508
20
-7.30896
11
4.05508
21
-7.30277
0
LINE
8
BLACK
6
CONTINUOUS
10
4.05508
20
-7.30277
11
4.05629
21
-7.29669
0
LINE
8
BLACK
6
CONTINUOUS
10
4.0627
20
-7.3131
11
4.06457
21
-7.31761
0
LINE
8
BLACK
6
CONTINUOUS
10
4.06457
20
-7.31761
11
4.06728
21
-7.32168
0
LINE
8
BLACK
6
CONTINUOUS
10
4.06728
20
-7.32168
11
4.07073
21
-7.32513
0
LINE
8
BLACK
6
CONTINUOUS
10
4.07073
20
-7.32513
11
4.0748
21
-7.32784
0
LINE
8
BLACK
6
CONTINUOUS
10
4.0748
20
-7.32784
11
4.07931
21
-7.32971
0
LINE
8
BLACK
6
CONTINUOUS
10
4.07931
20
-7.32971
11
4.0841
21
-7.33067
0
LINE
8
BLACK
6
CONTINUOUS
10
4.0841
20
-7.33067
11
4.08899
21
-7.33067
0
LINE
8
BLACK
6
CONTINUOUS
10
4.08899
20
-7.33067
11
4.09378
21
-7.32971
0
LINE
8
BLACK
6
CONTINUOUS
10
4.09378
20
-7.32971
11
4.09829
21
-7.32784
0
LINE
8
BLACK
6
CONTINUOUS
10
4.09829
20
-7.32784
11
4.10235
21
-7.32513
0
LINE
8
BLACK
6
CONTINUOUS
10
4.10235
20
-7.32513
11
4.10581
21
-7.32168
0
LINE
8
BLACK
6
CONTINUOUS
10
4.10581
20
-7.32168
11
4.10852
21
-7.31761
0
LINE
8
BLACK
6
CONTINUOUS
10
4.10852
20
-7.31761
11
4.11039
21
-7.3131
0
LINE
8
BLACK
6
CONTINUOUS
10
4.11039
20
-7.3131
11
4.11134
21
-7.30831
0
LINE
8
BLACK
6
CONTINUOUS
10
4.11134
20
-7.30831
11
4.11134
21
-7.30342
0
LINE
8
BLACK
6
CONTINUOUS
10
4.11134
20
-7.30342
11
4.11039
21
-7.29863
0
LINE
8
BLACK
6
CONTINUOUS
10
4.11039
20
-7.29863
11
4.10852
21
-7.29412
0
LINE
8
BLACK
6
CONTINUOUS
10
4.10852
20
-7.29412
11
4.10581
21
-7.29006
0
LINE
8
BLACK
6
CONTINUOUS
10
4.10581
20
-7.29006
11
4.10235
21
-7.2866
0
LINE
8
BLACK
6
CONTINUOUS
10
4.10235
20
-7.2866
11
4.09829
21
-7.28389
0
LINE
8
BLACK
6
CONTINUOUS
10
4.09829
20
-7.28389
11
4.09378
21
-7.28202
0
LINE
8
BLACK
6
CONTINUOUS
10
4.09378
20
-7.28202
11
4.08899
21
-7.28107
0
LINE
8
BLACK
6
CONTINUOUS
10
4.08899
20
-7.28107
11
4.0841
21
-7.28107
0
LINE
8
BLACK
6
CONTINUOUS
10
4.0841
20
-7.28107
11
4.07931
21
-7.28202
0
LINE
8
BLACK
6
CONTINUOUS
10
4.07931
20
-7.28202
11
4.0748
21
-7.28389
0
LINE
8
BLACK
6
CONTINUOUS
10
4.0748
20
-7.28389
11
4.07073
21
-7.2866
0
LINE
8
BLACK
6
CONTINUOUS
10
4.07073
20
-7.2866
11
4.06728
21
-7.29006
0
LINE
8
BLACK
6
CONTINUOUS
10
4.06728
20
-7.29006
11
4.06457
21
-7.29412
0
LINE
8
BLACK
6
CONTINUOUS
10
4.06457
20
-7.29412
11
4.0627
21
-7.29863
0
LINE
8
BLACK
6
CONTINUOUS
10
4.0627
20
-7.29863
11
4.06174
21
-7.30342
0
LINE
8
BLACK
6
CONTINUOUS
10
4.06174
20
-7.30342
11
4.06174
21
-7.30831
0
LINE
8
BLACK
6
CONTINUOUS
10
4.06174
20
-7.30831
11
4.0627
21
-7.3131
0
LINE
8
BLACK
6
CONTINUOUS
10
4.88298
20
-7.29669
11
4.88535
21
-7.29096
0
LINE
8
BLACK
6
CONTINUOUS
10
4.88535
20
-7.29096
11
4.8888
21
-7.28581
0
LINE
8
BLACK
6
CONTINUOUS
10
4.8888
20
-7.28581
11
4.89318
21
-7.28143
0
LINE
8
BLACK
6
CONTINUOUS
10
4.89318
20
-7.28143
11
4.89833
21
-7.27799
0
LINE
8
BLACK
6
CONTINUOUS
10
4.89833
20
-7.27799
11
4.90406
21
-7.27561
0
LINE
8
BLACK
6
CONTINUOUS
10
4.90406
20
-7.27561
11
4.91014
21
-7.2744
0
LINE
8
BLACK
6
CONTINUOUS
10
4.91014
20
-7.2744
11
4.91633
21
-7.2744
0
LINE
8
BLACK
6
CONTINUOUS
10
4.91633
20
-7.2744
11
4.92241
21
-7.27561
0
LINE
8
BLACK
6
CONTINUOUS
10
4.92241
20
-7.27561
11
4.92814
21
-7.27799
0
LINE
8
BLACK
6
CONTINUOUS
10
4.92814
20
-7.27799
11
4.93329
21
-7.28143
0
LINE
8
BLACK
6
CONTINUOUS
10
4.93329
20
-7.28143
11
4.93767
21
-7.28581
0
LINE
8
BLACK
6
CONTINUOUS
10
4.93767
20
-7.28581
11
4.94112
21
-7.29096
0
LINE
8
BLACK
6
CONTINUOUS
10
4.94112
20
-7.29096
11
4.94349
21
-7.29669
0
LINE
8
BLACK
6
CONTINUOUS
10
4.94349
20
-7.29669
11
4.9447
21
-7.30277
0
LINE
8
BLACK
6
CONTINUOUS
10
4.9447
20
-7.30277
11
4.9447
21
-7.30896
0
LINE
8
BLACK
6
CONTINUOUS
10
4.9447
20
-7.30896
11
4.94349
21
-7.31504
0
LINE
8
BLACK
6
CONTINUOUS
10
4.94349
20
-7.31504
11
4.94112
21
-7.32077
0
LINE
8
BLACK
6
CONTINUOUS
10
4.94112
20
-7.32077
11
4.93767
21
-7.32592
0
LINE
8
BLACK
6
CONTINUOUS
10
4.93767
20
-7.32592
11
4.93329
21
-7.3303
0
LINE
8
BLACK
6
CONTINUOUS
10
4.93329
20
-7.3303
11
4.92814
21
-7.33375
0
LINE
8
BLACK
6
CONTINUOUS
10
4.92814
20
-7.33375
11
4.92241
21
-7.33612
0
LINE
8
BLACK
6
CONTINUOUS
10
4.92241
20
-7.33612
11
4.91633
21
-7.33733
0
LINE
8
BLACK
6
CONTINUOUS
10
4.91633
20
-7.33733
11
4.91014
21
-7.33733
0
LINE
8
BLACK
6
CONTINUOUS
10
4.91014
20
-7.33733
11
4.90406
21
-7.33612
0
LINE
8
BLACK
6
CONTINUOUS
10
4.90406
20
-7.33612
11
4.89833
21
-7.33375
0
LINE
8
BLACK
6
CONTINUOUS
10
4.89833
20
-7.33375
11
4.89318
21
-7.3303
0
LINE
8
BLACK
6
CONTINUOUS
10
4.89318
20
-7.3303
11
4.8888
21
-7.32592
0
LINE
8
BLACK
6
CONTINUOUS
10
4.8888
20
-7.32592
11
4.88535
21
-7.32077
0
LINE
8
BLACK
6
CONTINUOUS
10
4.88535
20
-7.32077
11
4.88298
21
-7.31504
0
LINE
8
BLACK
6
CONTINUOUS
10
4.88298
20
-7.31504
11
4.88177
21
-7.30896
0
LINE
8
BLACK
6
CONTINUOUS
10
4.88177
20
-7.30896
11
4.88177
21
-7.30277
0
LINE
8
BLACK
6
CONTINUOUS
10
4.88177
20
-7.30277
11
4.88298
21
-7.29669
0
LINE
8
BLACK
6
CONTINUOUS
10
4.88939
20
-7.3131
11
4.89126
21
-7.31761
0
LINE
8
BLACK
6
CONTINUOUS
10
4.89126
20
-7.31761
11
4.89397
21
-7.32168
0
LINE
8
BLACK
6
CONTINUOUS
10
4.89397
20
-7.32168
11
4.89743
21
-7.32513
0
LINE
8
BLACK
6
CONTINUOUS
10
4.89743
20
-7.32513
11
4.90149
21
-7.32784
0
LINE
8
BLACK
6
CONTINUOUS
10
4.90149
20
-7.32784
11
4.906
21
-7.32971
0
LINE
8
BLACK
6
CONTINUOUS
10
4.906
20
-7.32971
11
4.91079
21
-7.33067
0
LINE
8
BLACK
6
CONTINUOUS
10
4.91079
20
-7.33067
11
4.91568
21
-7.33067
0
LINE
8
BLACK
6
CONTINUOUS
10
4.91568
20
-7.33067
11
4.92047
21
-7.32971
0
LINE
8
BLACK
6
CONTINUOUS
10
4.92047
20
-7.32971
11
4.92498
21
-7.32784
0
LINE
8
BLACK
6
CONTINUOUS
10
4.92498
20
-7.32784
11
4.92905
21
-7.32513
0
LINE
8
BLACK
6
CONTINUOUS
10
4.92905
20
-7.32513
11
4.9325
21
-7.32168
0
LINE
8
BLACK
6
CONTINUOUS
10
4.9325
20
-7.32168
11
4.93521
21
-7.31761
0
LINE
8
BLACK
6
CONTINUOUS
10
4.93521
20
-7.31761
11
4.93708
21
-7.3131
0
LINE
8
BLACK
6
CONTINUOUS
10
4.93708
20
-7.3131
11
4.93804
21
-7.30831
0
LINE
8
BLACK
6
CONTINUOUS
10
4.93804
20
-7.30831
11
4.93804
21
-7.30342
0
LINE
8
BLACK
6
CONTINUOUS
10
4.93804
20
-7.30342
11
4.93708
21
-7.29863
0
LINE
8
BLACK
6
CONTINUOUS
10
4.93708
20
-7.29863
11
4.93521
21
-7.29412
0
LINE
8
BLACK
6
CONTINUOUS
10
4.93521
20
-7.29412
11
4.9325
21
-7.29006
0
LINE
8
BLACK
6
CONTINUOUS
10
4.9325
20
-7.29006
11
4.92905
21
-7.2866
0
LINE
8
BLACK
6
CONTINUOUS
10
4.92905
20
-7.2866
11
4.92498
21
-7.28389
0
LINE
8
BLACK
6
CONTINUOUS
10
4.92498
20
-7.28389
11
4.92047
21
-7.28202
0
LINE
8
BLACK
6
CONTINUOUS
10
4.92047
20
-7.28202
11
4.91568
21
-7.28107
0
LINE
8
BLACK
6
CONTINUOUS
10
4.91568
20
-7.28107
11
4.91079
21
-7.28107
0
LINE
8
BLACK
6
CONTINUOUS
10
4.91079
20
-7.28107
11
4.906
21
-7.28202
0
LINE
8
BLACK
6
CONTINUOUS
10
4.906
20
-7.28202
11
4.90149
21
-7.28389
0
LINE
8
BLACK
6
CONTINUOUS
10
4.90149
20
-7.28389
11
4.89743
21
-7.2866
0
LINE
8
BLACK
6
CONTINUOUS
10
4.89743
20
-7.2866
11
4.89397
21
-7.29006
0
LINE
8
BLACK
6
CONTINUOUS
10
4.89397
20
-7.29006
11
4.89126
21
-7.29412
0
LINE
8
BLACK
6
CONTINUOUS
10
4.89126
20
-7.29412
11
4.88939
21
-7.29863
0
LINE
8
BLACK
6
CONTINUOUS
10
4.88939
20
-7.29863
11
4.88843
21
-7.30342
0
LINE
8
BLACK
6
CONTINUOUS
10
4.88843
20
-7.30342
11
4.88843
21
-7.30831
0
LINE
8
BLACK
6
CONTINUOUS
10
4.88843
20
-7.30831
11
4.88939
21
-7.3131
0
LINE
8
BLACK
6
CONTINUOUS
10
4.05661
20
-7.09669
11
4.05898
21
-7.09096
0
LINE
8
BLACK
6
CONTINUOUS
10
4.05898
20
-7.09096
11
4.06242
21
-7.08581
0
LINE
8
BLACK
6
CONTINUOUS
10
4.06242
20
-7.08581
11
4.0668
21
-7.08143
0
LINE
8
BLACK
6
CONTINUOUS
10
4.0668
20
-7.08143
11
4.07196
21
-7.07799
0
LINE
8
BLACK
6
CONTINUOUS
10
4.07196
20
-7.07799
11
4.07768
21
-7.07561
0
LINE
8
BLACK
6
CONTINUOUS
10
4.07768
20
-7.07561
11
4.08376
21
-7.0744
0
LINE
8
BLACK
6
CONTINUOUS
10
4.08376
20
-7.0744
11
4.08996
21
-7.0744
0
LINE
8
BLACK
6
CONTINUOUS
10
4.08996
20
-7.0744
11
4.09603
21
-7.07561
0
LINE
8
BLACK
6
CONTINUOUS
10
4.09603
20
-7.07561
11
4.10176
21
-7.07799
0
LINE
8
BLACK
6
CONTINUOUS
10
4.10176
20
-7.07799
11
4.10691
21
-7.08143
0
LINE
8
BLACK
6
CONTINUOUS
10
4.10691
20
-7.08143
11
4.1113
21
-7.08581
0
LINE
8
BLACK
6
CONTINUOUS
10
4.1113
20
-7.08581
11
4.11474
21
-7.09096
0
LINE
8
BLACK
6
CONTINUOUS
10
4.11474
20
-7.09096
11
4.11711
21
-7.09669
0
LINE
8
BLACK
6
CONTINUOUS
10
4.11711
20
-7.09669
11
4.11832
21
-7.10277
0
LINE
8
BLACK
6
CONTINUOUS
10
4.11832
20
-7.10277
11
4.11832
21
-7.10896
0
LINE
8
BLACK
6
CONTINUOUS
10
4.11832
20
-7.10896
11
4.11711
21
-7.11504
0
LINE
8
BLACK
6
CONTINUOUS
10
4.11711
20
-7.11504
11
4.11474
21
-7.12077
0
LINE
8
BLACK
6
CONTINUOUS
10
4.11474
20
-7.12077
11
4.1113
21
-7.12592
0
LINE
8
BLACK
6
CONTINUOUS
10
4.1113
20
-7.12592
11
4.10691
21
-7.1303
0
LINE
8
BLACK
6
CONTINUOUS
10
4.10691
20
-7.1303
11
4.10176
21
-7.13375
0
LINE
8
BLACK
6
CONTINUOUS
10
4.10176
20
-7.13375
11
4.09603
21
-7.13612
0
LINE
8
BLACK
6
CONTINUOUS
10
4.09603
20
-7.13612
11
4.08996
21
-7.13733
0
LINE
8
BLACK
6
CONTINUOUS
10
4.08996
20
-7.13733
11
4.08376
21
-7.13733
0
LINE
8
BLACK
6
CONTINUOUS
10
4.08376
20
-7.13733
11
4.07768
21
-7.13612
0
LINE
8
BLACK
6
CONTINUOUS
10
4.07768
20
-7.13612
11
4.07196
21
-7.13375
0
LINE
8
BLACK
6
CONTINUOUS
10
4.07196
20
-7.13375
11
4.0668
21
-7.1303
0
LINE
8
BLACK
6
CONTINUOUS
10
4.0668
20
-7.1303
11
4.06242
21
-7.12592
0
LINE
8
BLACK
6
CONTINUOUS
10
4.06242
20
-7.12592
11
4.05898
21
-7.12077
0
LINE
8
BLACK
6
CONTINUOUS
10
4.05898
20
-7.12077
11
4.05661
21
-7.11504
0
LINE
8
BLACK
6
CONTINUOUS
10
4.05661
20
-7.11504
11
4.0554
21
-7.10896
0
LINE
8
BLACK
6
CONTINUOUS
10
4.0554
20
-7.10896
11
4.0554
21
-7.10277
0
LINE
8
BLACK
6
CONTINUOUS
10
4.0554
20
-7.10277
11
4.05661
21
-7.09669
0
LINE
8
BLACK
6
CONTINUOUS
10
4.06301
20
-7.1131
11
4.06488
21
-7.11761
0
LINE
8
BLACK
6
CONTINUOUS
10
4.06488
20
-7.11761
11
4.06759
21
-7.12168
0
LINE
8
BLACK
6
CONTINUOUS
10
4.06759
20
-7.12168
11
4.07105
21
-7.12513
0
LINE
8
BLACK
6
CONTINUOUS
10
4.07105
20
-7.12513
11
4.07511
21
-7.12784
0
LINE
8
BLACK
6
CONTINUOUS
10
4.07511
20
-7.12784
11
4.07962
21
-7.12971
0
LINE
8
BLACK
6
CONTINUOUS
10
4.07962
20
-7.12971
11
4.08442
21
-7.13067
0
LINE
8
BLACK
6
CONTINUOUS
10
4.08442
20
-7.13067
11
4.0893
21
-7.13067
0
LINE
8
BLACK
6
CONTINUOUS
10
4.0893
20
-7.13067
11
4.09409
21
-7.12971
0
LINE
8
BLACK
6
CONTINUOUS
10
4.09409
20
-7.12971
11
4.09861
21
-7.12784
0
LINE
8
BLACK
6
CONTINUOUS
10
4.09861
20
-7.12784
11
4.10267
21
-7.12513
0
LINE
8
BLACK
6
CONTINUOUS
10
4.10267
20
-7.12513
11
4.10612
21
-7.12168
0
LINE
8
BLACK
6
CONTINUOUS
10
4.10612
20
-7.12168
11
4.10884
21
-7.11761
0
LINE
8
BLACK
6
CONTINUOUS
10
4.10884
20
-7.11761
11
4.11071
21
-7.1131
0
LINE
8
BLACK
6
CONTINUOUS
10
4.11071
20
-7.1131
11
4.11166
21
-7.10831
0
LINE
8
BLACK
6
CONTINUOUS
10
4.11166
20
-7.10831
11
4.11166
21
-7.10342
0
LINE
8
BLACK
6
CONTINUOUS
10
4.11166
20
-7.10342
11
4.11071
21
-7.09863
0
LINE
8
BLACK
6
CONTINUOUS
10
4.11071
20
-7.09863
11
4.10884
21
-7.09412
0
LINE
8
BLACK
6
CONTINUOUS
10
4.10884
20
-7.09412
11
4.10612
21
-7.09006
0
LINE
8
BLACK
6
CONTINUOUS
10
4.10612
20
-7.09006
11
4.10267
21
-7.0866
0
LINE
8
BLACK
6
CONTINUOUS
10
4.10267
20
-7.0866
11
4.09861
21
-7.08389
0
LINE
8
BLACK
6
CONTINUOUS
10
4.09861
20
-7.08389
11
4.09409
21
-7.08202
0
LINE
8
BLACK
6
CONTINUOUS
10
4.09409
20
-7.08202
11
4.0893
21
-7.08107
0
LINE
8
BLACK
6
CONTINUOUS
10
4.0893
20
-7.08107
11
4.08442
21
-7.08107
0
LINE
8
BLACK
6
CONTINUOUS
10
4.08442
20
-7.08107
11
4.07962
21
-7.08202
0
LINE
8
BLACK
6
CONTINUOUS
10
4.07962
20
-7.08202
11
4.07511
21
-7.08389
0
LINE
8
BLACK
6
CONTINUOUS
10
4.07511
20
-7.08389
11
4.07105
21
-7.0866
0
LINE
8
BLACK
6
CONTINUOUS
10
4.07105
20
-7.0866
11
4.06759
21
-7.09006
0
LINE
8
BLACK
6
CONTINUOUS
10
4.06759
20
-7.09006
11
4.06488
21
-7.09412
0
LINE
8
BLACK
6
CONTINUOUS
10
4.06488
20
-7.09412
11
4.06301
21
-7.09863
0
LINE
8
BLACK
6
CONTINUOUS
10
4.06301
20
-7.09863
11
4.06206
21
-7.10342
0
LINE
8
BLACK
6
CONTINUOUS
10
4.06206
20
-7.10342
11
4.06206
21
-7.10831
0
LINE
8
BLACK
6
CONTINUOUS
10
4.06206
20
-7.10831
11
4.06301
21
-7.1131
0
LINE
8
BLACK
6
CONTINUOUS
10
4.88298
20
-7.09649
11
4.88535
21
-7.09077
0
LINE
8
BLACK
6
CONTINUOUS
10
4.88535
20
-7.09077
11
4.8888
21
-7.08561
0
LINE
8
BLACK
6
CONTINUOUS
10
4.8888
20
-7.08561
11
4.89318
21
-7.08123
0
LINE
8
BLACK
6
CONTINUOUS
10
4.89318
20
-7.08123
11
4.89833
21
-7.07779
0
LINE
8
BLACK
6
CONTINUOUS
10
4.89833
20
-7.07779
11
4.90406
21
-7.07542
0
LINE
8
BLACK
6
CONTINUOUS
10
4.90406
20
-7.07542
11
4.91014
21
-7.07421
0
LINE
8
BLACK
6
CONTINUOUS
10
4.91014
20
-7.07421
11
4.91633
21
-7.07421
0
LINE
8
BLACK
6
CONTINUOUS
10
4.91633
20
-7.07421
11
4.92241
21
-7.07542
0
LINE
8
BLACK
6
CONTINUOUS
10
4.92241
20
-7.07542
11
4.92814
21
-7.07779
0
LINE
8
BLACK
6
CONTINUOUS
10
4.92814
20
-7.07779
11
4.93329
21
-7.08123
0
LINE
8
BLACK
6
CONTINUOUS
10
4.93329
20
-7.08123
11
4.93767
21
-7.08561
0
LINE
8
BLACK
6
CONTINUOUS
10
4.93767
20
-7.08561
11
4.94112
21
-7.09077
0
LINE
8
BLACK
6
CONTINUOUS
10
4.94112
20
-7.09077
11
4.94349
21
-7.09649
0
LINE
8
BLACK
6
CONTINUOUS
10
4.94349
20
-7.09649
11
4.9447
21
-7.10257
0
LINE
8
BLACK
6
CONTINUOUS
10
4.9447
20
-7.10257
11
4.9447
21
-7.10877
0
LINE
8
BLACK
6
CONTINUOUS
10
4.9447
20
-7.10877
11
4.94349
21
-7.11485
0
LINE
8
BLACK
6
CONTINUOUS
10
4.94349
20
-7.11485
11
4.94112
21
-7.12057
0
LINE
8
BLACK
6
CONTINUOUS
10
4.94112
20
-7.12057
11
4.93767
21
-7.12572
0
LINE
8
BLACK
6
CONTINUOUS
10
4.93767
20
-7.12572
11
4.93329
21
-7.13011
0
LINE
8
BLACK
6
CONTINUOUS
10
4.93329
20
-7.13011
11
4.92814
21
-7.13355
0
LINE
8
BLACK
6
CONTINUOUS
10
4.92814
20
-7.13355
11
4.92241
21
-7.13592
0
LINE
8
BLACK
6
CONTINUOUS
10
4.92241
20
-7.13592
11
4.91633
21
-7.13713
0
LINE
8
BLACK
6
CONTINUOUS
10
4.91633
20
-7.13713
11
4.91014
21
-7.13713
0
LINE
8
BLACK
6
CONTINUOUS
10
4.91014
20
-7.13713
11
4.90406
21
-7.13592
0
LINE
8
BLACK
6
CONTINUOUS
10
4.90406
20
-7.13592
11
4.89833
21
-7.13355
0
LINE
8
BLACK
6
CONTINUOUS
10
4.89833
20
-7.13355
11
4.89318
21
-7.13011
0
LINE
8
BLACK
6
CONTINUOUS
10
4.89318
20
-7.13011
11
4.8888
21
-7.12572
0
LINE
8
BLACK
6
CONTINUOUS
10
4.8888
20
-7.12572
11
4.88535
21
-7.12057
0
LINE
8
BLACK
6
CONTINUOUS
10
4.88535
20
-7.12057
11
4.88298
21
-7.11485
0
LINE
8
BLACK
6
CONTINUOUS
10
4.88298
20
-7.11485
11
4.88177
21
-7.10877
0
LINE
8
BLACK
6
CONTINUOUS
10
4.88177
20
-7.10877
11
4.88177
21
-7.10257
0
LINE
8
BLACK
6
CONTINUOUS
10
4.88177
20
-7.10257
11
4.88298
21
-7.09649
0
LINE
8
BLACK
6
CONTINUOUS
10
4.88939
20
-7.1129
11
4.89126
21
-7.11742
0
LINE
8
BLACK
6
CONTINUOUS
10
4.89126
20
-7.11742
11
4.89397
21
-7.12148
0
LINE
8
BLACK
6
CONTINUOUS
10
4.89397
20
-7.12148
11
4.89743
21
-7.12493
0
LINE
8
BLACK
6
CONTINUOUS
10
4.89743
20
-7.12493
11
4.90149
21
-7.12765
0
LINE
8
BLACK
6
CONTINUOUS
10
4.90149
20
-7.12765
11
4.906
21
-7.12952
0
LINE
8
BLACK
6
CONTINUOUS
10
4.906
20
-7.12952
11
4.91079
21
-7.13047
0
LINE
8
BLACK
6
CONTINUOUS
10
4.91079
20
-7.13047
11
4.91568
21
-7.13047
0
LINE
8
BLACK
6
CONTINUOUS
10
4.91568
20
-7.13047
11
4.92047
21
-7.12952
0
LINE
8
BLACK
6
CONTINUOUS
10
4.92047
20
-7.12952
11
4.92498
21
-7.12765
0
LINE
8
BLACK
6
CONTINUOUS
10
4.92498
20
-7.12765
11
4.92905
21
-7.12493
0
LINE
8
BLACK
6
CONTINUOUS
10
4.92905
20
-7.12493
11
4.9325
21
-7.12148
0
LINE
8
BLACK
6
CONTINUOUS
10
4.9325
20
-7.12148
11
4.93521
21
-7.11742
0
LINE
8
BLACK
6
CONTINUOUS
10
4.93521
20
-7.11742
11
4.93708
21
-7.1129
0
LINE
8
BLACK
6
CONTINUOUS
10
4.93708
20
-7.1129
11
4.93804
21
-7.10811
0
LINE
8
BLACK
6
CONTINUOUS
10
4.93804
20
-7.10811
11
4.93804
21
-7.10323
0
LINE
8
BLACK
6
CONTINUOUS
10
4.93804
20
-7.10323
11
4.93708
21
-7.09844
0
LINE
8
BLACK
6
CONTINUOUS
10
4.93708
20
-7.09844
11
4.93521
21
-7.09392
0
LINE
8
BLACK
6
CONTINUOUS
10
4.93521
20
-7.09392
11
4.9325
21
-7.08986
0
LINE
8
BLACK
6
CONTINUOUS
10
4.9325
20
-7.08986
11
4.92905
21
-7.08641
0
LINE
8
BLACK
6
CONTINUOUS
10
4.92905
20
-7.08641
11
4.92498
21
-7.08369
0
LINE
8
BLACK
6
CONTINUOUS
10
4.92498
20
-7.08369
11
4.92047
21
-7.08182
0
LINE
8
BLACK
6
CONTINUOUS
10
4.92047
20
-7.08182
11
4.91568
21
-7.08087
0
LINE
8
BLACK
6
CONTINUOUS
10
4.91568
20
-7.08087
11
4.91079
21
-7.08087
0
LINE
8
BLACK
6
CONTINUOUS
10
4.91079
20
-7.08087
11
4.906
21
-7.08182
0
LINE
8
BLACK
6
CONTINUOUS
10
4.906
20
-7.08182
11
4.90149
21
-7.08369
0
LINE
8
BLACK
6
CONTINUOUS
10
4.90149
20
-7.08369
11
4.89743
21
-7.08641
0
LINE
8
BLACK
6
CONTINUOUS
10
4.89743
20
-7.08641
11
4.89397
21
-7.08986
0
LINE
8
BLACK
6
CONTINUOUS
10
4.89397
20
-7.08986
11
4.89126
21
-7.09392
0
LINE
8
BLACK
6
CONTINUOUS
10
4.89126
20
-7.09392
11
4.88939
21
-7.09844
0
LINE
8
BLACK
6
CONTINUOUS
10
4.88939
20
-7.09844
11
4.88843
21
-7.10323
0
LINE
8
BLACK
6
CONTINUOUS
10
4.88843
20
-7.10323
11
4.88843
21
-7.10811
0
LINE
8
BLACK
6
CONTINUOUS
10
4.88843
20
-7.10811
11
4.88939
21
-7.1129
0
LINE
8
BLACK
6
CONTINUOUS
10
4.55624
20
-6.79427
11
4.55771
21
-6.79072
0
LINE
8
BLACK
6
CONTINUOUS
10
4.55771
20
-6.79072
11
4.55984
21
-6.78752
0
LINE
8
BLACK
6
CONTINUOUS
10
4.55984
20
-6.78752
11
4.56256
21
-6.7848
0
LINE
8
BLACK
6
CONTINUOUS
10
4.56256
20
-6.7848
11
4.56576
21
-6.78267
0
LINE
8
BLACK
6
CONTINUOUS
10
4.56576
20
-6.78267
11
4.56931
21
-6.78119
0
LINE
8
BLACK
6
CONTINUOUS
10
4.56931
20
-6.78119
11
4.57308
21
-6.78044
0
LINE
8
BLACK
6
CONTINUOUS
10
4.57308
20
-6.78044
11
4.57693
21
-6.78044
0
LINE
8
BLACK
6
CONTINUOUS
10
4.57693
20
-6.78044
11
4.5807
21
-6.78119
0
LINE
8
BLACK
6
CONTINUOUS
10
4.5807
20
-6.78119
11
4.58425
21
-6.78267
0
LINE
8
BLACK
6
CONTINUOUS
10
4.58425
20
-6.78267
11
4.58744
21
-6.7848
0
LINE
8
BLACK
6
CONTINUOUS
10
4.58744
20
-6.7848
11
4.59016
21
-6.78752
0
LINE
8
BLACK
6
CONTINUOUS
10
4.59016
20
-6.78752
11
4.5923
21
-6.79072
0
LINE
8
BLACK
6
CONTINUOUS
10
4.5923
20
-6.79072
11
4.59377
21
-6.79427
0
LINE
8
BLACK
6
CONTINUOUS
10
4.59377
20
-6.79427
11
4.59452
21
-6.79804
0
LINE
8
BLACK
6
CONTINUOUS
10
4.59452
20
-6.79804
11
4.59452
21
-6.80188
0
LINE
8
BLACK
6
CONTINUOUS
10
4.59452
20
-6.80188
11
4.59377
21
-6.80565
0
LINE
8
BLACK
6
CONTINUOUS
10
4.59377
20
-6.80565
11
4.5923
21
-6.80921
0
LINE
8
BLACK
6
CONTINUOUS
10
4.5923
20
-6.80921
11
4.59016
21
-6.8124
0
LINE
8
BLACK
6
CONTINUOUS
10
4.59016
20
-6.8124
11
4.58744
21
-6.81512
0
LINE
8
BLACK
6
CONTINUOUS
10
4.58744
20
-6.81512
11
4.58425
21
-6.81726
0
LINE
8
BLACK
6
CONTINUOUS
10
4.58425
20
-6.81726
11
4.5807
21
-6.81873
0
LINE
8
BLACK
6
CONTINUOUS
10
4.5807
20
-6.81873
11
4.57693
21
-6.81948
0
LINE
8
BLACK
6
CONTINUOUS
10
4.57693
20
-6.81948
11
4.57308
21
-6.81948
0
LINE
8
BLACK
6
CONTINUOUS
10
4.57308
20
-6.81948
11
4.56931
21
-6.81873
0
LINE
8
BLACK
6
CONTINUOUS
10
4.56931
20
-6.81873
11
4.56576
21
-6.81726
0
LINE
8
BLACK
6
CONTINUOUS
10
4.56576
20
-6.81726
11
4.56256
21
-6.81512
0
LINE
8
BLACK
6
CONTINUOUS
10
4.56256
20
-6.81512
11
4.55984
21
-6.8124
0
LINE
8
BLACK
6
CONTINUOUS
10
4.55984
20
-6.8124
11
4.55771
21
-6.80921
0
LINE
8
BLACK
6
CONTINUOUS
10
4.55771
20
-6.80921
11
4.55624
21
-6.80565
0
LINE
8
BLACK
6
CONTINUOUS
10
4.55624
20
-6.80565
11
4.55549
21
-6.80188
0
LINE
8
BLACK
6
CONTINUOUS
10
4.55549
20
-6.80188
11
4.55549
21
-6.79804
0
LINE
8
BLACK
6
CONTINUOUS
10
4.55549
20
-6.79804
11
4.55624
21
-6.79427
0
LINE
8
BLACK
6
CONTINUOUS
10
4.56264
20
-6.80371
11
4.56361
21
-6.80605
0
LINE
8
BLACK
6
CONTINUOUS
10
4.56361
20
-6.80605
11
4.56502
21
-6.80816
0
LINE
8
BLACK
6
CONTINUOUS
10
4.56502
20
-6.80816
11
4.56681
21
-6.80995
0
LINE
8
BLACK
6
CONTINUOUS
10
4.56681
20
-6.80995
11
4.56891
21
-6.81135
0
LINE
8
BLACK
6
CONTINUOUS
10
4.56891
20
-6.81135
11
4.57125
21
-6.81232
0
LINE
8
BLACK
6
CONTINUOUS
10
4.57125
20
-6.81232
11
4.57374
21
-6.81282
0
LINE
8
BLACK
6
CONTINUOUS
10
4.57374
20
-6.81282
11
4.57627
21
-6.81282
0
LINE
8
BLACK
6
CONTINUOUS
10
4.57627
20
-6.81282
11
4.57875
21
-6.81232
0
LINE
8
BLACK
6
CONTINUOUS
10
4.57875
20
-6.81232
11
4.58109
21
-6.81135
0
LINE
8
BLACK
6
CONTINUOUS
10
4.58109
20
-6.81135
11
4.5832
21
-6.80995
0
LINE
8
BLACK
6
CONTINUOUS
10
4.5832
20
-6.80995
11
4.58499
21
-6.80816
0
LINE
8
BLACK
6
CONTINUOUS
10
4.58499
20
-6.80816
11
4.5864
21
-6.80605
0
LINE
8
BLACK
6
CONTINUOUS
10
4.5864
20
-6.80605
11
4.58737
21
-6.80371
0
LINE
8
BLACK
6
CONTINUOUS
10
4.58737
20
-6.80371
11
4.58786
21
-6.80123
0
LINE
8
BLACK
6
CONTINUOUS
10
4.58786
20
-6.80123
11
4.58786
21
-6.79869
0
LINE
8
BLACK
6
CONTINUOUS
10
4.58786
20
-6.79869
11
4.58737
21
-6.79621
0
LINE
8
BLACK
6
CONTINUOUS
10
4.58737
20
-6.79621
11
4.5864
21
-6.79387
0
LINE
8
BLACK
6
CONTINUOUS
10
4.5864
20
-6.79387
11
4.58499
21
-6.79177
0
LINE
8
BLACK
6
CONTINUOUS
10
4.58499
20
-6.79177
11
4.5832
21
-6.78998
0
LINE
8
BLACK
6
CONTINUOUS
10
4.5832
20
-6.78998
11
4.58109
21
-6.78857
0
LINE
8
BLACK
6
CONTINUOUS
10
4.58109
20
-6.78857
11
4.57875
21
-6.7876
0
LINE
8
BLACK
6
CONTINUOUS
10
4.57875
20
-6.7876
11
4.57627
21
-6.7871
0
LINE
8
BLACK
6
CONTINUOUS
10
4.57627
20
-6.7871
11
4.57374
21
-6.7871
0
LINE
8
BLACK
6
CONTINUOUS
10
4.57374
20
-6.7871
11
4.57125
21
-6.7876
0
LINE
8
BLACK
6
CONTINUOUS
10
4.57125
20
-6.7876
11
4.56891
21
-6.78857
0
LINE
8
BLACK
6
CONTINUOUS
10
4.56891
20
-6.78857
11
4.56681
21
-6.78998
0
LINE
8
BLACK
6
CONTINUOUS
10
4.56681
20
-6.78998
11
4.56502
21
-6.79177
0
LINE
8
BLACK
6
CONTINUOUS
10
4.56502
20
-6.79177
11
4.56361
21
-6.79387
0
LINE
8
BLACK
6
CONTINUOUS
10
4.56361
20
-6.79387
11
4.56264
21
-6.79621
0
LINE
8
BLACK
6
CONTINUOUS
10
4.56264
20
-6.79621
11
4.56215
21
-6.79869
0
LINE
8
BLACK
6
CONTINUOUS
10
4.56215
20
-6.79869
11
4.56215
21
-6.80123
0
LINE
8
BLACK
6
CONTINUOUS
10
4.56215
20
-6.80123
11
4.56264
21
-6.80371
0
LINE
8
BLACK
6
CONTINUOUS
10
4.45609
20
-6.79427
11
4.45756
21
-6.79072
0
LINE
8
BLACK
6
CONTINUOUS
10
4.45756
20
-6.79072
11
4.4597
21
-6.78752
0
LINE
8
BLACK
6
CONTINUOUS
10
4.4597
20
-6.78752
11
4.46241
21
-6.7848
0
LINE
8
BLACK
6
CONTINUOUS
10
4.46241
20
-6.7848
11
4.46561
21
-6.78267
0
LINE
8
BLACK
6
CONTINUOUS
10
4.46561
20
-6.78267
11
4.46916
21
-6.78119
0
LINE
8
BLACK
6
CONTINUOUS
10
4.46916
20
-6.78119
11
4.47293
21
-6.78044
0
LINE
8
BLACK
6
CONTINUOUS
10
4.47293
20
-6.78044
11
4.47678
21
-6.78044
0
LINE
8
BLACK
6
CONTINUOUS
10
4.47678
20
-6.78044
11
4.48055
21
-6.78119
0
LINE
8
BLACK
6
CONTINUOUS
10
4.48055
20
-6.78119
11
4.4841
21
-6.78267
0
LINE
8
BLACK
6
CONTINUOUS
10
4.4841
20
-6.78267
11
4.4873
21
-6.7848
0
LINE
8
BLACK
6
CONTINUOUS
10
4.4873
20
-6.7848
11
4.49001
21
-6.78752
0
LINE
8
BLACK
6
CONTINUOUS
10
4.49001
20
-6.78752
11
4.49215
21
-6.79072
0
LINE
8
BLACK
6
CONTINUOUS
10
4.49215
20
-6.79072
11
4.49362
21
-6.79427
0
LINE
8
BLACK
6
CONTINUOUS
10
4.49362
20
-6.79427
11
4.49437
21
-6.79804
0
LINE
8
BLACK
6
CONTINUOUS
10
4.49437
20
-6.79804
11
4.49437
21
-6.80188
0
LINE
8
BLACK
6
CONTINUOUS
10
4.49437
20
-6.80188
11
4.49362
21
-6.80565
0
LINE
8
BLACK
6
CONTINUOUS
10
4.49362
20
-6.80565
11
4.49215
21
-6.80921
0
LINE
8
BLACK
6
CONTINUOUS
10
4.49215
20
-6.80921
11
4.49001
21
-6.8124
0
LINE
8
BLACK
6
CONTINUOUS
10
4.49001
20
-6.8124
11
4.4873
21
-6.81512
0
LINE
8
BLACK
6
CONTINUOUS
10
4.4873
20
-6.81512
11
4.4841
21
-6.81726
0
LINE
8
BLACK
6
CONTINUOUS
10
4.4841
20
-6.81726
11
4.48055
21
-6.81873
0
LINE
8
BLACK
6
CONTINUOUS
10
4.48055
20
-6.81873
11
4.47678
21
-6.81948
0
LINE
8
BLACK
6
CONTINUOUS
10
4.47678
20
-6.81948
11
4.47293
21
-6.81948
0
LINE
8
BLACK
6
CONTINUOUS
10
4.47293
20
-6.81948
11
4.46916
21
-6.81873
0
LINE
8
BLACK
6
CONTINUOUS
10
4.46916
20
-6.81873
11
4.46561
21
-6.81726
0
LINE
8
BLACK
6
CONTINUOUS
10
4.46561
20
-6.81726
11
4.46241
21
-6.81512
0
LINE
8
BLACK
6
CONTINUOUS
10
4.46241
20
-6.81512
11
4.4597
21
-6.8124
0
LINE
8
BLACK
6
CONTINUOUS
10
4.4597
20
-6.8124
11
4.45756
21
-6.80921
0
LINE
8
BLACK
6
CONTINUOUS
10
4.45756
20
-6.80921
11
4.45609
21
-6.80565
0
LINE
8
BLACK
6
CONTINUOUS
10
4.45609
20
-6.80565
11
4.45534
21
-6.80188
0
LINE
8
BLACK
6
CONTINUOUS
10
4.45534
20
-6.80188
11
4.45534
21
-6.79804
0
LINE
8
BLACK
6
CONTINUOUS
10
4.45534
20
-6.79804
11
4.45609
21
-6.79427
0
LINE
8
BLACK
6
CONTINUOUS
10
4.46249
20
-6.80371
11
4.46346
21
-6.80605
0
LINE
8
BLACK
6
CONTINUOUS
10
4.46346
20
-6.80605
11
4.46487
21
-6.80816
0
LINE
8
BLACK
6
CONTINUOUS
10
4.46487
20
-6.80816
11
4.46666
21
-6.80995
0
LINE
8
BLACK
6
CONTINUOUS
10
4.46666
20
-6.80995
11
4.46877
21
-6.81135
0
LINE
8
BLACK
6
CONTINUOUS
10
4.46877
20
-6.81135
11
4.4711
21
-6.81232
0
LINE
8
BLACK
6
CONTINUOUS
10
4.4711
20
-6.81232
11
4.47359
21
-6.81282
0
LINE
8
BLACK
6
CONTINUOUS
10
4.47359
20
-6.81282
11
4.47612
21
-6.81282
0
LINE
8
BLACK
6
CONTINUOUS
10
4.47612
20
-6.81282
11
4.4786
21
-6.81232
0
LINE
8
BLACK
6
CONTINUOUS
10
4.4786
20
-6.81232
11
4.48094
21
-6.81135
0
LINE
8
BLACK
6
CONTINUOUS
10
4.48094
20
-6.81135
11
4.48305
21
-6.80995
0
LINE
8
BLACK
6
CONTINUOUS
10
4.48305
20
-6.80995
11
4.48484
21
-6.80816
0
LINE
8
BLACK
6
CONTINUOUS
10
4.48484
20
-6.80816
11
4.48625
21
-6.80605
0
LINE
8
BLACK
6
CONTINUOUS
10
4.48625
20
-6.80605
11
4.48722
21
-6.80371
0
LINE
8
BLACK
6
CONTINUOUS
10
4.48722
20
-6.80371
11
4.48771
21
-6.80123
0
LINE
8
BLACK
6
CONTINUOUS
10
4.48771
20
-6.80123
11
4.48771
21
-6.79869
0
LINE
8
BLACK
6
CONTINUOUS
10
4.48771
20
-6.79869
11
4.48722
21
-6.79621
0
LINE
8
BLACK
6
CONTINUOUS
10
4.48722
20
-6.79621
11
4.48625
21
-6.79387
0
LINE
8
BLACK
6
CONTINUOUS
10
4.48625
20
-6.79387
11
4.48484
21
-6.79177
0
LINE
8
BLACK
6
CONTINUOUS
10
4.48484
20
-6.79177
11
4.48305
21
-6.78998
0
LINE
8
BLACK
6
CONTINUOUS
10
4.48305
20
-6.78998
11
4.48094
21
-6.78857
0
LINE
8
BLACK
6
CONTINUOUS
10
4.48094
20
-6.78857
11
4.4786
21
-6.7876
0
LINE
8
BLACK
6
CONTINUOUS
10
4.4786
20
-6.7876
11
4.47612
21
-6.7871
0
LINE
8
BLACK
6
CONTINUOUS
10
4.47612
20
-6.7871
11
4.47359
21
-6.7871
0
LINE
8
BLACK
6
CONTINUOUS
10
4.47359
20
-6.7871
11
4.4711
21
-6.7876
0
LINE
8
BLACK
6
CONTINUOUS
10
4.4711
20
-6.7876
11
4.46877
21
-6.78857
0
LINE
8
BLACK
6
CONTINUOUS
10
4.46877
20
-6.78857
11
4.46666
21
-6.78998
0
LINE
8
BLACK
6
CONTINUOUS
10
4.46666
20
-6.78998
11
4.46487
21
-6.79177
0
LINE
8
BLACK
6
CONTINUOUS
10
4.46487
20
-6.79177
11
4.46346
21
-6.79387
0
LINE
8
BLACK
6
CONTINUOUS
10
4.46346
20
-6.79387
11
4.46249
21
-6.79621
0
LINE
8
BLACK
6
CONTINUOUS
10
4.46249
20
-6.79621
11
4.462
21
-6.79869
0
LINE
8
BLACK
6
CONTINUOUS
10
4.462
20
-6.79869
11
4.462
21
-6.80123
0
LINE
8
BLACK
6
CONTINUOUS
10
4.462
20
-6.80123
11
4.46249
21
-6.80371
0
LINE
8
BLACK
6
CONTINUOUS
10
4.50648
20
-6.70765
11
4.50795
21
-6.7041
0
LINE
8
BLACK
6
CONTINUOUS
10
4.50795
20
-6.7041
11
4.51009
21
-6.70091
0
LINE
8
BLACK
6
CONTINUOUS
10
4.51009
20
-6.70091
11
4.51281
21
-6.69819
0
LINE
8
BLACK
6
CONTINUOUS
10
4.51281
20
-6.69819
11
4.516
21
-6.69605
0
LINE
8
BLACK
6
CONTINUOUS
10
4.516
20
-6.69605
11
4.51956
21
-6.69458
0
LINE
8
BLACK
6
CONTINUOUS
10
4.51956
20
-6.69458
11
4.52333
21
-6.69383
0
LINE
8
BLACK
6
CONTINUOUS
10
4.52333
20
-6.69383
11
4.52717
21
-6.69383
0
LINE
8
BLACK
6
CONTINUOUS
10
4.52717
20
-6.69383
11
4.53094
21
-6.69458
0
LINE
8
BLACK
6
CONTINUOUS
10
4.53094
20
-6.69458
11
4.53449
21
-6.69605
0
LINE
8
BLACK
6
CONTINUOUS
10
4.53449
20
-6.69605
11
4.53769
21
-6.69819
0
LINE
8
BLACK
6
CONTINUOUS
10
4.53769
20
-6.69819
11
4.54041
21
-6.70091
0
LINE
8
BLACK
6
CONTINUOUS
10
4.54041
20
-6.70091
11
4.54254
21
-6.7041
0
LINE
8
BLACK
6
CONTINUOUS
10
4.54254
20
-6.7041
11
4.54401
21
-6.70765
0
LINE
8
BLACK
6
CONTINUOUS
10
4.54401
20
-6.70765
11
4.54476
21
-6.71142
0
LINE
8
BLACK
6
CONTINUOUS
10
4.54476
20
-6.71142
11
4.54476
21
-6.71527
0
LINE
8
BLACK
6
CONTINUOUS
10
4.54476
20
-6.71527
11
4.54401
21
-6.71904
0
LINE
8
BLACK
6
CONTINUOUS
10
4.54401
20
-6.71904
11
4.54254
21
-6.72259
0
LINE
8
BLACK
6
CONTINUOUS
10
4.54254
20
-6.72259
11
4.54041
21
-6.72579
0
LINE
8
BLACK
6
CONTINUOUS
10
4.54041
20
-6.72579
11
4.53769
21
-6.72851
0
LINE
8
BLACK
6
CONTINUOUS
10
4.53769
20
-6.72851
11
4.53449
21
-6.73064
0
LINE
8
BLACK
6
CONTINUOUS
10
4.53449
20
-6.73064
11
4.53094
21
-6.73211
0
LINE
8
BLACK
6
CONTINUOUS
10
4.53094
20
-6.73211
11
4.52717
21
-6.73286
0
LINE
8
BLACK
6
CONTINUOUS
10
4.52717
20
-6.73286
11
4.52333
21
-6.73286
0
LINE
8
BLACK
6
CONTINUOUS
10
4.52333
20
-6.73286
11
4.51956
21
-6.73211
0
LINE
8
BLACK
6
CONTINUOUS
10
4.51956
20
-6.73211
11
4.516
21
-6.73064
0
LINE
8
BLACK
6
CONTINUOUS
10
4.516
20
-6.73064
11
4.51281
21
-6.72851
0
LINE
8
BLACK
6
CONTINUOUS
10
4.51281
20
-6.72851
11
4.51009
21
-6.72579
0
LINE
8
BLACK
6
CONTINUOUS
10
4.51009
20
-6.72579
11
4.50795
21
-6.72259
0
LINE
8
BLACK
6
CONTINUOUS
10
4.50795
20
-6.72259
11
4.50648
21
-6.71904
0
LINE
8
BLACK
6
CONTINUOUS
10
4.50648
20
-6.71904
11
4.50573
21
-6.71527
0
LINE
8
BLACK
6
CONTINUOUS
10
4.50573
20
-6.71527
11
4.50573
21
-6.71142
0
LINE
8
BLACK
6
CONTINUOUS
10
4.50573
20
-6.71142
11
4.50648
21
-6.70765
0
LINE
8
BLACK
6
CONTINUOUS
10
4.51289
20
-6.7171
11
4.51386
21
-6.71944
0
LINE
8
BLACK
6
CONTINUOUS
10
4.51386
20
-6.71944
11
4.51526
21
-6.72154
0
LINE
8
BLACK
6
CONTINUOUS
10
4.51526
20
-6.72154
11
4.51705
21
-6.72333
0
LINE
8
BLACK
6
CONTINUOUS
10
4.51705
20
-6.72333
11
4.51916
21
-6.72474
0
LINE
8
BLACK
6
CONTINUOUS
10
4.51916
20
-6.72474
11
4.5215
21
-6.72571
0
LINE
8
BLACK
6
CONTINUOUS
10
4.5215
20
-6.72571
11
4.52398
21
-6.7262
0
LINE
8
BLACK
6
CONTINUOUS
10
4.52398
20
-6.7262
11
4.52651
21
-6.7262
0
LINE
8
BLACK
6
CONTINUOUS
10
4.52651
20
-6.7262
11
4.529
21
-6.72571
0
LINE
8
BLACK
6
CONTINUOUS
10
4.529
20
-6.72571
11
4.53134
21
-6.72474
0
LINE
8
BLACK
6
CONTINUOUS
10
4.53134
20
-6.72474
11
4.53344
21
-6.72333
0
LINE
8
BLACK
6
CONTINUOUS
10
4.53344
20
-6.72333
11
4.53523
21
-6.72154
0
LINE
8
BLACK
6
CONTINUOUS
10
4.53523
20
-6.72154
11
4.53664
21
-6.71944
0
LINE
8
BLACK
6
CONTINUOUS
10
4.53664
20
-6.71944
11
4.53761
21
-6.7171
0
LINE
8
BLACK
6
CONTINUOUS
10
4.53761
20
-6.7171
11
4.5381
21
-6.71461
0
LINE
8
BLACK
6
CONTINUOUS
10
4.5381
20
-6.71461
11
4.5381
21
-6.71208
0
LINE
8
BLACK
6
CONTINUOUS
10
4.5381
20
-6.71208
11
4.53761
21
-6.7096
0
LINE
8
BLACK
6
CONTINUOUS
10
4.53761
20
-6.7096
11
4.53664
21
-6.70726
0
LINE
8
BLACK
6
CONTINUOUS
10
4.53664
20
-6.70726
11
4.53523
21
-6.70515
0
LINE
8
BLACK
6
CONTINUOUS
10
4.53523
20
-6.70515
11
4.53344
21
-6.70336
0
LINE
8
BLACK
6
CONTINUOUS
10
4.53344
20
-6.70336
11
4.53134
21
-6.70195
0
LINE
8
BLACK
6
CONTINUOUS
10
4.53134
20
-6.70195
11
4.529
21
-6.70098
0
LINE
8
BLACK
6
CONTINUOUS
10
4.529
20
-6.70098
11
4.52651
21
-6.70049
0
LINE
8
BLACK
6
CONTINUOUS
10
4.52651
20
-6.70049
11
4.52398
21
-6.70049
0
LINE
8
BLACK
6
CONTINUOUS
10
4.52398
20
-6.70049
11
4.5215
21
-6.70098
0
LINE
8
BLACK
6
CONTINUOUS
10
4.5215
20
-6.70098
11
4.51916
21
-6.70195
0
LINE
8
BLACK
6
CONTINUOUS
10
4.51916
20
-6.70195
11
4.51705
21
-6.70336
0
LINE
8
BLACK
6
CONTINUOUS
10
4.51705
20
-6.70336
11
4.51526
21
-6.70515
0
LINE
8
BLACK
6
CONTINUOUS
10
4.51526
20
-6.70515
11
4.51386
21
-6.70726
0
LINE
8
BLACK
6
CONTINUOUS
10
4.51386
20
-6.70726
11
4.51289
21
-6.7096
0
LINE
8
BLACK
6
CONTINUOUS
10
4.51289
20
-6.7096
11
4.51239
21
-6.71208
0
LINE
8
BLACK
6
CONTINUOUS
10
4.51239
20
-6.71208
11
4.51239
21
-6.71461
0
LINE
8
BLACK
6
CONTINUOUS
10
4.51239
20
-6.71461
11
4.51289
21
-6.7171
0
LINE
8
BLACK
6
CONTINUOUS
10
4.40609
20
-6.70765
11
4.40756
21
-6.7041
0
LINE
8
BLACK
6
CONTINUOUS
10
4.40756
20
-6.7041
11
4.4097
21
-6.70091
0
LINE
8
BLACK
6
CONTINUOUS
10
4.4097
20
-6.70091
11
4.41241
21
-6.69819
0
LINE
8
BLACK
6
CONTINUOUS
10
4.41241
20
-6.69819
11
4.41561
21
-6.69605
0
LINE
8
BLACK
6
CONTINUOUS
10
4.41561
20
-6.69605
11
4.41916
21
-6.69458
0
LINE
8
BLACK
6
CONTINUOUS
10
4.41916
20
-6.69458
11
4.42293
21
-6.69383
0
LINE
8
BLACK
6
CONTINUOUS
10
4.42293
20
-6.69383
11
4.42678
21
-6.69383
0
LINE
8
BLACK
6
CONTINUOUS
10
4.42678
20
-6.69383
11
4.43055
21
-6.69458
0
LINE
8
BLACK
6
CONTINUOUS
10
4.43055
20
-6.69458
11
4.4341
21
-6.69605
0
LINE
8
BLACK
6
CONTINUOUS
10
4.4341
20
-6.69605
11
4.4373
21
-6.69819
0
LINE
8
BLACK
6
CONTINUOUS
10
4.4373
20
-6.69819
11
4.44001
21
-6.70091
0
LINE
8
BLACK
6
CONTINUOUS
10
4.44001
20
-6.70091
11
4.44215
21
-6.7041
0
LINE
8
BLACK
6
CONTINUOUS
10
4.44215
20
-6.7041
11
4.44362
21
-6.70765
0
LINE
8
BLACK
6
CONTINUOUS
10
4.44362
20
-6.70765
11
4.44437
21
-6.71142
0
LINE
8
BLACK
6
CONTINUOUS
10
4.44437
20
-6.71142
11
4.44437
21
-6.71527
0
LINE
8
BLACK
6
CONTINUOUS
10
4.44437
20
-6.71527
11
4.44362
21
-6.71904
0
LINE
8
BLACK
6
CONTINUOUS
10
4.44362
20
-6.71904
11
4.44215
21
-6.72259
0
LINE
8
BLACK
6
CONTINUOUS
10
4.44215
20
-6.72259
11
4.44001
21
-6.72579
0
LINE
8
BLACK
6
CONTINUOUS
10
4.44001
20
-6.72579
11
4.4373
21
-6.72851
0
LINE
8
BLACK
6
CONTINUOUS
10
4.4373
20
-6.72851
11
4.4341
21
-6.73064
0
LINE
8
BLACK
6
CONTINUOUS
10
4.4341
20
-6.73064
11
4.43055
21
-6.73211
0
LINE
8
BLACK
6
CONTINUOUS
10
4.43055
20
-6.73211
11
4.42678
21
-6.73286
0
LINE
8
BLACK
6
CONTINUOUS
10
4.42678
20
-6.73286
11
4.42293
21
-6.73286
0
LINE
8
BLACK
6
CONTINUOUS
10
4.42293
20
-6.73286
11
4.41916
21
-6.73211
0
LINE
8
BLACK
6
CONTINUOUS
10
4.41916
20
-6.73211
11
4.41561
21
-6.73064
0
LINE
8
BLACK
6
CONTINUOUS
10
4.41561
20
-6.73064
11
4.41241
21
-6.72851
0
LINE
8
BLACK
6
CONTINUOUS
10
4.41241
20
-6.72851
11
4.4097
21
-6.72579
0
LINE
8
BLACK
6
CONTINUOUS
10
4.4097
20
-6.72579
11
4.40756
21
-6.72259
0
LINE
8
BLACK
6
CONTINUOUS
10
4.40756
20
-6.72259
11
4.40609
21
-6.71904
0
LINE
8
BLACK
6
CONTINUOUS
10
4.40609
20
-6.71904
11
4.40534
21
-6.71527
0
LINE
8
BLACK
6
CONTINUOUS
10
4.40534
20
-6.71527
11
4.40534
21
-6.71142
0
LINE
8
BLACK
6
CONTINUOUS
10
4.40534
20
-6.71142
11
4.40609
21
-6.70765
0
LINE
8
BLACK
6
CONTINUOUS
10
4.41249
20
-6.7171
11
4.41346
21
-6.71944
0
LINE
8
BLACK
6
CONTINUOUS
10
4.41346
20
-6.71944
11
4.41487
21
-6.72154
0
LINE
8
BLACK
6
CONTINUOUS
10
4.41487
20
-6.72154
11
4.41666
21
-6.72333
0
LINE
8
BLACK
6
CONTINUOUS
10
4.41666
20
-6.72333
11
4.41877
21
-6.72474
0
LINE
8
BLACK
6
CONTINUOUS
10
4.41877
20
-6.72474
11
4.4211
21
-6.72571
0
LINE
8
BLACK
6
CONTINUOUS
10
4.4211
20
-6.72571
11
4.42359
21
-6.7262
0
LINE
8
BLACK
6
CONTINUOUS
10
4.42359
20
-6.7262
11
4.42612
21
-6.7262
0
LINE
8
BLACK
6
CONTINUOUS
10
4.42612
20
-6.7262
11
4.4286
21
-6.72571
0
LINE
8
BLACK
6
CONTINUOUS
10
4.4286
20
-6.72571
11
4.43094
21
-6.72474
0
LINE
8
BLACK
6
CONTINUOUS
10
4.43094
20
-6.72474
11
4.43305
21
-6.72333
0
LINE
8
BLACK
6
CONTINUOUS
10
4.43305
20
-6.72333
11
4.43484
21
-6.72154
0
LINE
8
BLACK
6
CONTINUOUS
10
4.43484
20
-6.72154
11
4.43625
21
-6.71944
0
LINE
8
BLACK
6
CONTINUOUS
10
4.43625
20
-6.71944
11
4.43722
21
-6.7171
0
LINE
8
BLACK
6
CONTINUOUS
10
4.43722
20
-6.7171
11
4.43771
21
-6.71461
0
LINE
8
BLACK
6
CONTINUOUS
10
4.43771
20
-6.71461
11
4.43771
21
-6.71208
0
LINE
8
BLACK
6
CONTINUOUS
10
4.43771
20
-6.71208
11
4.43722
21
-6.7096
0
LINE
8
BLACK
6
CONTINUOUS
10
4.43722
20
-6.7096
11
4.43625
21
-6.70726
0
LINE
8
BLACK
6
CONTINUOUS
10
4.43625
20
-6.70726
11
4.43484
21
-6.70515
0
LINE
8
BLACK
6
CONTINUOUS
10
4.43484
20
-6.70515
11
4.43305
21
-6.70336
0
LINE
8
BLACK
6
CONTINUOUS
10
4.43305
20
-6.70336
11
4.43094
21
-6.70195
0
LINE
8
BLACK
6
CONTINUOUS
10
4.43094
20
-6.70195
11
4.4286
21
-6.70098
0
LINE
8
BLACK
6
CONTINUOUS
10
4.4286
20
-6.70098
11
4.42612
21
-6.70049
0
LINE
8
BLACK
6
CONTINUOUS
10
4.42612
20
-6.70049
11
4.42359
21
-6.70049
0
LINE
8
BLACK
6
CONTINUOUS
10
4.42359
20
-6.70049
11
4.4211
21
-6.70098
0
LINE
8
BLACK
6
CONTINUOUS
10
4.4211
20
-6.70098
11
4.41877
21
-6.70195
0
LINE
8
BLACK
6
CONTINUOUS
10
4.41877
20
-6.70195
11
4.41666
21
-6.70336
0
LINE
8
BLACK
6
CONTINUOUS
10
4.41666
20
-6.70336
11
4.41487
21
-6.70515
0
LINE
8
BLACK
6
CONTINUOUS
10
4.41487
20
-6.70515
11
4.41346
21
-6.70726
0
LINE
8
BLACK
6
CONTINUOUS
10
4.41346
20
-6.70726
11
4.41249
21
-6.7096
0
LINE
8
BLACK
6
CONTINUOUS
10
4.41249
20
-6.7096
11
4.412
21
-6.71208
0
LINE
8
BLACK
6
CONTINUOUS
10
4.412
20
-6.71208
11
4.412
21
-6.71461
0
LINE
8
BLACK
6
CONTINUOUS
10
4.412
20
-6.71461
11
4.41249
21
-6.7171
0
LINE
8
BLACK
6
CONTINUOUS
10
4.55624
20
-6.28088
11
4.55771
21
-6.27733
0
LINE
8
BLACK
6
CONTINUOUS
10
4.55771
20
-6.27733
11
4.55984
21
-6.27413
0
LINE
8
BLACK
6
CONTINUOUS
10
4.55984
20
-6.27413
11
4.56256
21
-6.27142
0
LINE
8
BLACK
6
CONTINUOUS
10
4.56256
20
-6.27142
11
4.56576
21
-6.26928
0
LINE
8
BLACK
6
CONTINUOUS
10
4.56576
20
-6.26928
11
4.56931
21
-6.26781
0
LINE
8
BLACK
6
CONTINUOUS
10
4.56931
20
-6.26781
11
4.57308
21
-6.26706
0
LINE
8
BLACK
6
CONTINUOUS
10
4.57308
20
-6.26706
11
4.57693
21
-6.26706
0
LINE
8
BLACK
6
CONTINUOUS
10
4.57693
20
-6.26706
11
4.5807
21
-6.26781
0
LINE
8
BLACK
6
CONTINUOUS
10
4.5807
20
-6.26781
11
4.58425
21
-6.26928
0
LINE
8
BLACK
6
CONTINUOUS
10
4.58425
20
-6.26928
11
4.58744
21
-6.27142
0
LINE
8
BLACK
6
CONTINUOUS
10
4.58744
20
-6.27142
11
4.59016
21
-6.27413
0
LINE
8
BLACK
6
CONTINUOUS
10
4.59016
20
-6.27413
11
4.5923
21
-6.27733
0
LINE
8
BLACK
6
CONTINUOUS
10
4.5923
20
-6.27733
11
4.59377
21
-6.28088
0
LINE
8
BLACK
6
CONTINUOUS
10
4.59377
20
-6.28088
11
4.59452
21
-6.28465
0
LINE
8
BLACK
6
CONTINUOUS
10
4.59452
20
-6.28465
11
4.59452
21
-6.2885
0
LINE
8
BLACK
6
CONTINUOUS
10
4.59452
20
-6.2885
11
4.59377
21
-6.29227
0
LINE
8
BLACK
6
CONTINUOUS
10
4.59377
20
-6.29227
11
4.5923
21
-6.29582
0
LINE
8
BLACK
6
CONTINUOUS
10
4.5923
20
-6.29582
11
4.59016
21
-6.29902
0
LINE
8
BLACK
6
CONTINUOUS
10
4.59016
20
-6.29902
11
4.58744
21
-6.30173
0
LINE
8
BLACK
6
CONTINUOUS
10
4.58744
20
-6.30173
11
4.58425
21
-6.30387
0
LINE
8
BLACK
6
CONTINUOUS
10
4.58425
20
-6.30387
11
4.5807
21
-6.30534
0
LINE
8
BLACK
6
CONTINUOUS
10
4.5807
20
-6.30534
11
4.57693
21
-6.30609
0
LINE
8
BLACK
6
CONTINUOUS
10
4.57693
20
-6.30609
11
4.57308
21
-6.30609
0
LINE
8
BLACK
6
CONTINUOUS
10
4.57308
20
-6.30609
11
4.56931
21
-6.30534
0
LINE
8
BLACK
6
CONTINUOUS
10
4.56931
20
-6.30534
11
4.56576
21
-6.30387
0
LINE
8
BLACK
6
CONTINUOUS
10
4.56576
20
-6.30387
11
4.56256
21
-6.30173
0
LINE
8
BLACK
6
CONTINUOUS
10
4.56256
20
-6.30173
11
4.55984
21
-6.29902
0
LINE
8
BLACK
6
CONTINUOUS
10
4.55984
20
-6.29902
11
4.55771
21
-6.29582
0
LINE
8
BLACK
6
CONTINUOUS
10
4.55771
20
-6.29582
11
4.55624
21
-6.29227
0
LINE
8
BLACK
6
CONTINUOUS
10
4.55624
20
-6.29227
11
4.55549
21
-6.2885
0
LINE
8
BLACK
6
CONTINUOUS
10
4.55549
20
-6.2885
11
4.55549
21
-6.28465
0
LINE
8
BLACK
6
CONTINUOUS
10
4.55549
20
-6.28465
11
4.55624
21
-6.28088
0
LINE
8
BLACK
6
CONTINUOUS
10
4.56264
20
-6.29032
11
4.56361
21
-6.29266
0
LINE
8
BLACK
6
CONTINUOUS
10
4.56361
20
-6.29266
11
4.56502
21
-6.29477
0
LINE
8
BLACK
6
CONTINUOUS
10
4.56502
20
-6.29477
11
4.56681
21
-6.29656
0
LINE
8
BLACK
6
CONTINUOUS
10
4.56681
20
-6.29656
11
4.56891
21
-6.29797
0
LINE
8
BLACK
6
CONTINUOUS
10
4.56891
20
-6.29797
11
4.57125
21
-6.29894
0
LINE
8
BLACK
6
CONTINUOUS
10
4.57125
20
-6.29894
11
4.57374
21
-6.29943
0
LINE
8
BLACK
6
CONTINUOUS
10
4.57374
20
-6.29943
11
4.57627
21
-6.29943
0
LINE
8
BLACK
6
CONTINUOUS
10
4.57627
20
-6.29943
11
4.57875
21
-6.29894
0
LINE
8
BLACK
6
CONTINUOUS
10
4.57875
20
-6.29894
11
4.58109
21
-6.29797
0
LINE
8
BLACK
6
CONTINUOUS
10
4.58109
20
-6.29797
11
4.5832
21
-6.29656
0
LINE
8
BLACK
6
CONTINUOUS
10
4.5832
20
-6.29656
11
4.58499
21
-6.29477
0
LINE
8
BLACK
6
CONTINUOUS
10
4.58499
20
-6.29477
11
4.5864
21
-6.29266
0
LINE
8
BLACK
6
CONTINUOUS
10
4.5864
20
-6.29266
11
4.58737
21
-6.29032
0
LINE
8
BLACK
6
CONTINUOUS
10
4.58737
20
-6.29032
11
4.58786
21
-6.28784
0
LINE
8
BLACK
6
CONTINUOUS
10
4.58786
20
-6.28784
11
4.58786
21
-6.28531
0
LINE
8
BLACK
6
CONTINUOUS
10
4.58786
20
-6.28531
11
4.58737
21
-6.28282
0
LINE
8
BLACK
6
CONTINUOUS
10
4.58737
20
-6.28282
11
4.5864
21
-6.28049
0
LINE
8
BLACK
6
CONTINUOUS
10
4.5864
20
-6.28049
11
4.58499
21
-6.27838
0
LINE
8
BLACK
6
CONTINUOUS
10
4.58499
20
-6.27838
11
4.5832
21
-6.27659
0
LINE
8
BLACK
6
CONTINUOUS
10
4.5832
20
-6.27659
11
4.58109
21
-6.27518
0
LINE
8
BLACK
6
CONTINUOUS
10
4.58109
20
-6.27518
11
4.57875
21
-6.27421
0
LINE
8
BLACK
6
CONTINUOUS
10
4.57875
20
-6.27421
11
4.57627
21
-6.27372
0
LINE
8
BLACK
6
CONTINUOUS
10
4.57627
20
-6.27372
11
4.57374
21
-6.27372
0
LINE
8
BLACK
6
CONTINUOUS
10
4.57374
20
-6.27372
11
4.57125
21
-6.27421
0
LINE
8
BLACK
6
CONTINUOUS
10
4.57125
20
-6.27421
11
4.56891
21
-6.27518
0
LINE
8
BLACK
6
CONTINUOUS
10
4.56891
20
-6.27518
11
4.56681
21
-6.27659
0
LINE
8
BLACK
6
CONTINUOUS
10
4.56681
20
-6.27659
11
4.56502
21
-6.27838
0
LINE
8
BLACK
6
CONTINUOUS
10
4.56502
20
-6.27838
11
4.56361
21
-6.28049
0
LINE
8
BLACK
6
CONTINUOUS
10
4.56361
20
-6.28049
11
4.56264
21
-6.28282
0
LINE
8
BLACK
6
CONTINUOUS
10
4.56264
20
-6.28282
11
4.56215
21
-6.28531
0
LINE
8
BLACK
6
CONTINUOUS
10
4.56215
20
-6.28531
11
4.56215
21
-6.28784
0
LINE
8
BLACK
6
CONTINUOUS
10
4.56215
20
-6.28784
11
4.56264
21
-6.29032
0
LINE
8
BLACK
6
CONTINUOUS
10
4.45609
20
-6.28088
11
4.45756
21
-6.27733
0
LINE
8
BLACK
6
CONTINUOUS
10
4.45756
20
-6.27733
11
4.4597
21
-6.27413
0
LINE
8
BLACK
6
CONTINUOUS
10
4.4597
20
-6.27413
11
4.46241
21
-6.27142
0
LINE
8
BLACK
6
CONTINUOUS
10
4.46241
20
-6.27142
11
4.46561
21
-6.26928
0
LINE
8
BLACK
6
CONTINUOUS
10
4.46561
20
-6.26928
11
4.46916
21
-6.26781
0
LINE
8
BLACK
6
CONTINUOUS
10
4.46916
20
-6.26781
11
4.47293
21
-6.26706
0
LINE
8
BLACK
6
CONTINUOUS
10
4.47293
20
-6.26706
11
4.47678
21
-6.26706
0
LINE
8
BLACK
6
CONTINUOUS
10
4.47678
20
-6.26706
11
4.48055
21
-6.26781
0
LINE
8
BLACK
6
CONTINUOUS
10
4.48055
20
-6.26781
11
4.4841
21
-6.26928
0
LINE
8
BLACK
6
CONTINUOUS
10
4.4841
20
-6.26928
11
4.4873
21
-6.27142
0
LINE
8
BLACK
6
CONTINUOUS
10
4.4873
20
-6.27142
11
4.49001
21
-6.27413
0
LINE
8
BLACK
6
CONTINUOUS
10
4.49001
20
-6.27413
11
4.49215
21
-6.27733
0
LINE
8
BLACK
6
CONTINUOUS
10
4.49215
20
-6.27733
11
4.49362
21
-6.28088
0
LINE
8
BLACK
6
CONTINUOUS
10
4.49362
20
-6.28088
11
4.49437
21
-6.28465
0
LINE
8
BLACK
6
CONTINUOUS
10
4.49437
20
-6.28465
11
4.49437
21
-6.2885
0
LINE
8
BLACK
6
CONTINUOUS
10
4.49437
20
-6.2885
11
4.49362
21
-6.29227
0
LINE
8
BLACK
6
CONTINUOUS
10
4.49362
20
-6.29227
11
4.49215
21
-6.29582
0
LINE
8
BLACK
6
CONTINUOUS
10
4.49215
20
-6.29582
11
4.49001
21
-6.29902
0
LINE
8
BLACK
6
CONTINUOUS
10
4.49001
20
-6.29902
11
4.4873
21
-6.30173
0
LINE
8
BLACK
6
CONTINUOUS
10
4.4873
20
-6.30173
11
4.4841
21
-6.30387
0
LINE
8
BLACK
6
CONTINUOUS
10
4.4841
20
-6.30387
11
4.48055
21
-6.30534
0
LINE
8
BLACK
6
CONTINUOUS
10
4.48055
20
-6.30534
11
4.47678
21
-6.30609
0
LINE
8
BLACK
6
CONTINUOUS
10
4.47678
20
-6.30609
11
4.47293
21
-6.30609
0
LINE
8
BLACK
6
CONTINUOUS
10
4.47293
20
-6.30609
11
4.46916
21
-6.30534
0
LINE
8
BLACK
6
CONTINUOUS
10
4.46916
20
-6.30534
11
4.46561
21
-6.30387
0
LINE
8
BLACK
6
CONTINUOUS
10
4.46561
20
-6.30387
11
4.46241
21
-6.30173
0
LINE
8
BLACK
6
CONTINUOUS
10
4.46241
20
-6.30173
11
4.4597
21
-6.29902
0
LINE
8
BLACK
6
CONTINUOUS
10
4.4597
20
-6.29902
11
4.45756
21
-6.29582
0
LINE
8
BLACK
6
CONTINUOUS
10
4.45756
20
-6.29582
11
4.45609
21
-6.29227
0
LINE
8
BLACK
6
CONTINUOUS
10
4.45609
20
-6.29227
11
4.45534
21
-6.2885
0
LINE
8
BLACK
6
CONTINUOUS
10
4.45534
20
-6.2885
11
4.45534
21
-6.28465
0
LINE
8
BLACK
6
CONTINUOUS
10
4.45534
20
-6.28465
11
4.45609
21
-6.28088
0
LINE
8
BLACK
6
CONTINUOUS
10
4.46249
20
-6.29032
11
4.46346
21
-6.29266
0
LINE
8
BLACK
6
CONTINUOUS
10
4.46346
20
-6.29266
11
4.46487
21
-6.29477
0
LINE
8
BLACK
6
CONTINUOUS
10
4.46487
20
-6.29477
11
4.46666
21
-6.29656
0
LINE
8
BLACK
6
CONTINUOUS
10
4.46666
20
-6.29656
11
4.46877
21
-6.29797
0
LINE
8
BLACK
6
CONTINUOUS
10
4.46877
20
-6.29797
11
4.4711
21
-6.29894
0
LINE
8
BLACK
6
CONTINUOUS
10
4.4711
20
-6.29894
11
4.47359
21
-6.29943
0
LINE
8
BLACK
6
CONTINUOUS
10
4.47359
20
-6.29943
11
4.47612
21
-6.29943
0
LINE
8
BLACK
6
CONTINUOUS
10
4.47612
20
-6.29943
11
4.4786
21
-6.29894
0
LINE
8
BLACK
6
CONTINUOUS
10
4.4786
20
-6.29894
11
4.48094
21
-6.29797
0
LINE
8
BLACK
6
CONTINUOUS
10
4.48094
20
-6.29797
11
4.48305
21
-6.29656
0
LINE
8
BLACK
6
CONTINUOUS
10
4.48305
20
-6.29656
11
4.48484
21
-6.29477
0
LINE
8
BLACK
6
CONTINUOUS
10
4.48484
20
-6.29477
11
4.48625
21
-6.29266
0
LINE
8
BLACK
6
CONTINUOUS
10
4.48625
20
-6.29266
11
4.48722
21
-6.29032
0
LINE
8
BLACK
6
CONTINUOUS
10
4.48722
20
-6.29032
11
4.48771
21
-6.28784
0
LINE
8
BLACK
6
CONTINUOUS
10
4.48771
20
-6.28784
11
4.48771
21
-6.28531
0
LINE
8
BLACK
6
CONTINUOUS
10
4.48771
20
-6.28531
11
4.48722
21
-6.28282
0
LINE
8
BLACK
6
CONTINUOUS
10
4.48722
20
-6.28282
11
4.48625
21
-6.28049
0
LINE
8
BLACK
6
CONTINUOUS
10
4.48625
20
-6.28049
11
4.48484
21
-6.27838
0
LINE
8
BLACK
6
CONTINUOUS
10
4.48484
20
-6.27838
11
4.48305
21
-6.27659
0
LINE
8
BLACK
6
CONTINUOUS
10
4.48305
20
-6.27659
11
4.48094
21
-6.27518
0
LINE
8
BLACK
6
CONTINUOUS
10
4.48094
20
-6.27518
11
4.4786
21
-6.27421
0
LINE
8
BLACK
6
CONTINUOUS
10
4.4786
20
-6.27421
11
4.47612
21
-6.27372
0
LINE
8
BLACK
6
CONTINUOUS
10
4.47612
20
-6.27372
11
4.47359
21
-6.27372
0
LINE
8
BLACK
6
CONTINUOUS
10
4.47359
20
-6.27372
11
4.4711
21
-6.27421
0
LINE
8
BLACK
6
CONTINUOUS
10
4.4711
20
-6.27421
11
4.46877
21
-6.27518
0
LINE
8
BLACK
6
CONTINUOUS
10
4.46877
20
-6.27518
11
4.46666
21
-6.27659
0
LINE
8
BLACK
6
CONTINUOUS
10
4.46666
20
-6.27659
11
4.46487
21
-6.27838
0
LINE
8
BLACK
6
CONTINUOUS
10
4.46487
20
-6.27838
11
4.46346
21
-6.28049
0
LINE
8
BLACK
6
CONTINUOUS
10
4.46346
20
-6.28049
11
4.46249
21
-6.28282
0
LINE
8
BLACK
6
CONTINUOUS
10
4.46249
20
-6.28282
11
4.462
21
-6.28531
0
LINE
8
BLACK
6
CONTINUOUS
10
4.462
20
-6.28531
11
4.462
21
-6.28784
0
LINE
8
BLACK
6
CONTINUOUS
10
4.462
20
-6.28784
11
4.46249
21
-6.29032
0
LINE
8
BLACK
6
CONTINUOUS
10
4.40624
20
-6.19427
11
4.40771
21
-6.19072
0
LINE
8
BLACK
6
CONTINUOUS
10
4.40771
20
-6.19072
11
4.40984
21
-6.18752
0
LINE
8
BLACK
6
CONTINUOUS
10
4.40984
20
-6.18752
11
4.41256
21
-6.1848
0
LINE
8
BLACK
6
CONTINUOUS
10
4.41256
20
-6.1848
11
4.41576
21
-6.18267
0
LINE
8
BLACK
6
CONTINUOUS
10
4.41576
20
-6.18267
11
4.41931
21
-6.18119
0
LINE
8
BLACK
6
CONTINUOUS
10
4.41931
20
-6.18119
11
4.42308
21
-6.18044
0
LINE
8
BLACK
6
CONTINUOUS
10
4.42308
20
-6.18044
11
4.42693
21
-6.18044
0
LINE
8
BLACK
6
CONTINUOUS
10
4.42693
20
-6.18044
11
4.4307
21
-6.18119
0
LINE
8
BLACK
6
CONTINUOUS
10
4.4307
20
-6.18119
11
4.43425
21
-6.18267
0
LINE
8
BLACK
6
CONTINUOUS
10
4.43425
20
-6.18267
11
4.43744
21
-6.1848
0
LINE
8
BLACK
6
CONTINUOUS
10
4.43744
20
-6.1848
11
4.44016
21
-6.18752
0
LINE
8
BLACK
6
CONTINUOUS
10
4.44016
20
-6.18752
11
4.4423
21
-6.19072
0
LINE
8
BLACK
6
CONTINUOUS
10
4.4423
20
-6.19072
11
4.44377
21
-6.19427
0
LINE
8
BLACK
6
CONTINUOUS
10
4.44377
20
-6.19427
11
4.44452
21
-6.19804
0
LINE
8
BLACK
6
CONTINUOUS
10
4.44452
20
-6.19804
11
4.44452
21
-6.20188
0
LINE
8
BLACK
6
CONTINUOUS
10
4.44452
20
-6.20188
11
4.44377
21
-6.20565
0
LINE
8
BLACK
6
CONTINUOUS
10
4.44377
20
-6.20565
11
4.4423
21
-6.20921
0
LINE
8
BLACK
6
CONTINUOUS
10
4.4423
20
-6.20921
11
4.44016
21
-6.2124
0
LINE
8
BLACK
6
CONTINUOUS
10
4.44016
20
-6.2124
11
4.43744
21
-6.21512
0
LINE
8
BLACK
6
CONTINUOUS
10
4.43744
20
-6.21512
11
4.43425
21
-6.21726
0
LINE
8
BLACK
6
CONTINUOUS
10
4.43425
20
-6.21726
11
4.4307
21
-6.21873
0
LINE
8
BLACK
6
CONTINUOUS
10
4.4307
20
-6.21873
11
4.42693
21
-6.21948
0
LINE
8
BLACK
6
CONTINUOUS
10
4.42693
20
-6.21948
11
4.42308
21
-6.21948
0
LINE
8
BLACK
6
CONTINUOUS
10
4.42308
20
-6.21948
11
4.41931
21
-6.21873
0
LINE
8
BLACK
6
CONTINUOUS
10
4.41931
20
-6.21873
11
4.41576
21
-6.21726
0
LINE
8
BLACK
6
CONTINUOUS
10
4.41576
20
-6.21726
11
4.41256
21
-6.21512
0
LINE
8
BLACK
6
CONTINUOUS
10
4.41256
20
-6.21512
11
4.40984
21
-6.2124
0
LINE
8
BLACK
6
CONTINUOUS
10
4.40984
20
-6.2124
11
4.40771
21
-6.20921
0
LINE
8
BLACK
6
CONTINUOUS
10
4.40771
20
-6.20921
11
4.40624
21
-6.20565
0
LINE
8
BLACK
6
CONTINUOUS
10
4.40624
20
-6.20565
11
4.40549
21
-6.20188
0
LINE
8
BLACK
6
CONTINUOUS
10
4.40549
20
-6.20188
11
4.40549
21
-6.19804
0
LINE
8
BLACK
6
CONTINUOUS
10
4.40549
20
-6.19804
11
4.40624
21
-6.19427
0
LINE
8
BLACK
6
CONTINUOUS
10
4.41264
20
-6.20371
11
4.41361
21
-6.20605
0
LINE
8
BLACK
6
CONTINUOUS
10
4.41361
20
-6.20605
11
4.41502
21
-6.20816
0
LINE
8
BLACK
6
CONTINUOUS
10
4.41502
20
-6.20816
11
4.41681
21
-6.20995
0
LINE
8
BLACK
6
CONTINUOUS
10
4.41681
20
-6.20995
11
4.41891
21
-6.21135
0
LINE
8
BLACK
6
CONTINUOUS
10
4.41891
20
-6.21135
11
4.42125
21
-6.21232
0
LINE
8
BLACK
6
CONTINUOUS
10
4.42125
20
-6.21232
11
4.42374
21
-6.21282
0
LINE
8
BLACK
6
CONTINUOUS
10
4.42374
20
-6.21282
11
4.42627
21
-6.21282
0
LINE
8
BLACK
6
CONTINUOUS
10
4.42627
20
-6.21282
11
4.42875
21
-6.21232
0
LINE
8
BLACK
6
CONTINUOUS
10
4.42875
20
-6.21232
11
4.43109
21
-6.21135
0
LINE
8
BLACK
6
CONTINUOUS
10
4.43109
20
-6.21135
11
4.4332
21
-6.20995
0
LINE
8
BLACK
6
CONTINUOUS
10
4.4332
20
-6.20995
11
4.43499
21
-6.20816
0
LINE
8
BLACK
6
CONTINUOUS
10
4.43499
20
-6.20816
11
4.4364
21
-6.20605
0
LINE
8
BLACK
6
CONTINUOUS
10
4.4364
20
-6.20605
11
4.43737
21
-6.20371
0
LINE
8
BLACK
6
CONTINUOUS
10
4.43737
20
-6.20371
11
4.43786
21
-6.20123
0
LINE
8
BLACK
6
CONTINUOUS
10
4.43786
20
-6.20123
11
4.43786
21
-6.19869
0
LINE
8
BLACK
6
CONTINUOUS
10
4.43786
20
-6.19869
11
4.43737
21
-6.19621
0
LINE
8
BLACK
6
CONTINUOUS
10
4.43737
20
-6.19621
11
4.4364
21
-6.19387
0
LINE
8
BLACK
6
CONTINUOUS
10
4.4364
20
-6.19387
11
4.43499
21
-6.19177
0
LINE
8
BLACK
6
CONTINUOUS
10
4.43499
20
-6.19177
11
4.4332
21
-6.18997
0
LINE
8
BLACK
6
CONTINUOUS
10
4.4332
20
-6.18997
11
4.43109
21
-6.18857
0
LINE
8
BLACK
6
CONTINUOUS
10
4.43109
20
-6.18857
11
4.42875
21
-6.1876
0
LINE
8
BLACK
6
CONTINUOUS
10
4.42875
20
-6.1876
11
4.42627
21
-6.1871
0
LINE
8
BLACK
6
CONTINUOUS
10
4.42627
20
-6.1871
11
4.42374
21
-6.1871
0
LINE
8
BLACK
6
CONTINUOUS
10
4.42374
20
-6.1871
11
4.42125
21
-6.1876
0
LINE
8
BLACK
6
CONTINUOUS
10
4.42125
20
-6.1876
11
4.41891
21
-6.18857
0
LINE
8
BLACK
6
CONTINUOUS
10
4.41891
20
-6.18857
11
4.41681
21
-6.18997
0
LINE
8
BLACK
6
CONTINUOUS
10
4.41681
20
-6.18997
11
4.41502
21
-6.19177
0
LINE
8
BLACK
6
CONTINUOUS
10
4.41502
20
-6.19177
11
4.41361
21
-6.19387
0
LINE
8
BLACK
6
CONTINUOUS
10
4.41361
20
-6.19387
11
4.41264
21
-6.19621
0
LINE
8
BLACK
6
CONTINUOUS
10
4.41264
20
-6.19621
11
4.41215
21
-6.19869
0
LINE
8
BLACK
6
CONTINUOUS
10
4.41215
20
-6.19869
11
4.41215
21
-6.20123
0
LINE
8
BLACK
6
CONTINUOUS
10
4.41215
20
-6.20123
11
4.41264
21
-6.20371
0
LINE
8
BLACK
6
CONTINUOUS
10
4.50624
20
-6.19427
11
4.50771
21
-6.19072
0
LINE
8
BLACK
6
CONTINUOUS
10
4.50771
20
-6.19072
11
4.50984
21
-6.18752
0
LINE
8
BLACK
6
CONTINUOUS
10
4.50984
20
-6.18752
11
4.51256
21
-6.1848
0
LINE
8
BLACK
6
CONTINUOUS
10
4.51256
20
-6.1848
11
4.51576
21
-6.18267
0
LINE
8
BLACK
6
CONTINUOUS
10
4.51576
20
-6.18267
11
4.51931
21
-6.18119
0
LINE
8
BLACK
6
CONTINUOUS
10
4.51931
20
-6.18119
11
4.52308
21
-6.18044
0
LINE
8
BLACK
6
CONTINUOUS
10
4.52308
20
-6.18044
11
4.52693
21
-6.18044
0
LINE
8
BLACK
6
CONTINUOUS
10
4.52693
20
-6.18044
11
4.5307
21
-6.18119
0
LINE
8
BLACK
6
CONTINUOUS
10
4.5307
20
-6.18119
11
4.53425
21
-6.18267
0
LINE
8
BLACK
6
CONTINUOUS
10
4.53425
20
-6.18267
11
4.53744
21
-6.1848
0
LINE
8
BLACK
6
CONTINUOUS
10
4.53744
20
-6.1848
11
4.54016
21
-6.18752
0
LINE
8
BLACK
6
CONTINUOUS
10
4.54016
20
-6.18752
11
4.5423
21
-6.19072
0
LINE
8
BLACK
6
CONTINUOUS
10
4.5423
20
-6.19072
11
4.54377
21
-6.19427
0
LINE
8
BLACK
6
CONTINUOUS
10
4.54377
20
-6.19427
11
4.54452
21
-6.19804
0
LINE
8
BLACK
6
CONTINUOUS
10
4.54452
20
-6.19804
11
4.54452
21
-6.20188
0
LINE
8
BLACK
6
CONTINUOUS
10
4.54452
20
-6.20188
11
4.54377
21
-6.20565
0
LINE
8
BLACK
6
CONTINUOUS
10
4.54377
20
-6.20565
11
4.5423
21
-6.20921
0
LINE
8
BLACK
6
CONTINUOUS
10
4.5423
20
-6.20921
11
4.54016
21
-6.2124
0
LINE
8
BLACK
6
CONTINUOUS
10
4.54016
20
-6.2124
11
4.53744
21
-6.21512
0
LINE
8
BLACK
6
CONTINUOUS
10
4.53744
20
-6.21512
11
4.53425
21
-6.21726
0
LINE
8
BLACK
6
CONTINUOUS
10
4.53425
20
-6.21726
11
4.5307
21
-6.21873
0
LINE
8
BLACK
6
CONTINUOUS
10
4.5307
20
-6.21873
11
4.52693
21
-6.21948
0
LINE
8
BLACK
6
CONTINUOUS
10
4.52693
20
-6.21948
11
4.52308
21
-6.21948
0
LINE
8
BLACK
6
CONTINUOUS
10
4.52308
20
-6.21948
11
4.51931
21
-6.21873
0
LINE
8
BLACK
6
CONTINUOUS
10
4.51931
20
-6.21873
11
4.51576
21
-6.21726
0
LINE
8
BLACK
6
CONTINUOUS
10
4.51576
20
-6.21726
11
4.51256
21
-6.21512
0
LINE
8
BLACK
6
CONTINUOUS
10
4.51256
20
-6.21512
11
4.50984
21
-6.2124
0
LINE
8
BLACK
6
CONTINUOUS
10
4.50984
20
-6.2124
11
4.50771
21
-6.20921
0
LINE
8
BLACK
6
CONTINUOUS
10
4.50771
20
-6.20921
11
4.50624
21
-6.20565
0
LINE
8
BLACK
6
CONTINUOUS
10
4.50624
20
-6.20565
11
4.50549
21
-6.20188
0
LINE
8
BLACK
6
CONTINUOUS
10
4.50549
20
-6.20188
11
4.50549
21
-6.19804
0
LINE
8
BLACK
6
CONTINUOUS
10
4.50549
20
-6.19804
11
4.50624
21
-6.19427
0
LINE
8
BLACK
6
CONTINUOUS
10
4.51264
20
-6.20371
11
4.51361
21
-6.20605
0
LINE
8
BLACK
6
CONTINUOUS
10
4.51361
20
-6.20605
11
4.51502
21
-6.20816
0
LINE
8
BLACK
6
CONTINUOUS
10
4.51502
20
-6.20816
11
4.51681
21
-6.20995
0
LINE
8
BLACK
6
CONTINUOUS
10
4.51681
20
-6.20995
11
4.51891
21
-6.21135
0
LINE
8
BLACK
6
CONTINUOUS
10
4.51891
20
-6.21135
11
4.52125
21
-6.21232
0
LINE
8
BLACK
6
CONTINUOUS
10
4.52125
20
-6.21232
11
4.52374
21
-6.21282
0
LINE
8
BLACK
6
CONTINUOUS
10
4.52374
20
-6.21282
11
4.52627
21
-6.21282
0
LINE
8
BLACK
6
CONTINUOUS
10
4.52627
20
-6.21282
11
4.52875
21
-6.21232
0
LINE
8
BLACK
6
CONTINUOUS
10
4.52875
20
-6.21232
11
4.53109
21
-6.21135
0
LINE
8
BLACK
6
CONTINUOUS
10
4.53109
20
-6.21135
11
4.5332
21
-6.20995
0
LINE
8
BLACK
6
CONTINUOUS
10
4.5332
20
-6.20995
11
4.53499
21
-6.20816
0
LINE
8
BLACK
6
CONTINUOUS
10
4.53499
20
-6.20816
11
4.5364
21
-6.20605
0
LINE
8
BLACK
6
CONTINUOUS
10
4.5364
20
-6.20605
11
4.53737
21
-6.20371
0
LINE
8
BLACK
6
CONTINUOUS
10
4.53737
20
-6.20371
11
4.53786
21
-6.20123
0
LINE
8
BLACK
6
CONTINUOUS
10
4.53786
20
-6.20123
11
4.53786
21
-6.19869
0
LINE
8
BLACK
6
CONTINUOUS
10
4.53786
20
-6.19869
11
4.53737
21
-6.19621
0
LINE
8
BLACK
6
CONTINUOUS
10
4.53737
20
-6.19621
11
4.5364
21
-6.19387
0
LINE
8
BLACK
6
CONTINUOUS
10
4.5364
20
-6.19387
11
4.53499
21
-6.19177
0
LINE
8
BLACK
6
CONTINUOUS
10
4.53499
20
-6.19177
11
4.5332
21
-6.18997
0
LINE
8
BLACK
6
CONTINUOUS
10
4.5332
20
-6.18997
11
4.53109
21
-6.18857
0
LINE
8
BLACK
6
CONTINUOUS
10
4.53109
20
-6.18857
11
4.52875
21
-6.1876
0
LINE
8
BLACK
6
CONTINUOUS
10
4.52875
20
-6.1876
11
4.52627
21
-6.1871
0
LINE
8
BLACK
6
CONTINUOUS
10
4.52627
20
-6.1871
11
4.52374
21
-6.1871
0
LINE
8
BLACK
6
CONTINUOUS
10
4.52374
20
-6.1871
11
4.52125
21
-6.1876
0
LINE
8
BLACK
6
CONTINUOUS
10
4.52125
20
-6.1876
11
4.51891
21
-6.18857
0
LINE
8
BLACK
6
CONTINUOUS
10
4.51891
20
-6.18857
11
4.51681
21
-6.18997
0
LINE
8
BLACK
6
CONTINUOUS
10
4.51681
20
-6.18997
11
4.51502
21
-6.19177
0
LINE
8
BLACK
6
CONTINUOUS
10
4.51502
20
-6.19177
11
4.51361
21
-6.19387
0
LINE
8
BLACK
6
CONTINUOUS
10
4.51361
20
-6.19387
11
4.51264
21
-6.19621
0
LINE
8
BLACK
6
CONTINUOUS
10
4.51264
20
-6.19621
11
4.51215
21
-6.19869
0
LINE
8
BLACK
6
CONTINUOUS
10
4.51215
20
-6.19869
11
4.51215
21
-6.20123
0
LINE
8
BLACK
6
CONTINUOUS
10
4.51215
20
-6.20123
11
4.51264
21
-6.20371
0
LINE
8
BLACK
6
CONTINUOUS
10
4.88298
20
-5.88488
11
4.88535
21
-5.87915
0
LINE
8
BLACK
6
CONTINUOUS
10
4.88535
20
-5.87915
11
4.8888
21
-5.874
0
LINE
8
BLACK
6
CONTINUOUS
10
4.8888
20
-5.874
11
4.89318
21
-5.86962
0
LINE
8
BLACK
6
CONTINUOUS
10
4.89318
20
-5.86962
11
4.89833
21
-5.86617
0
LINE
8
BLACK
6
CONTINUOUS
10
4.89833
20
-5.86617
11
4.90406
21
-5.8638
0
LINE
8
BLACK
6
CONTINUOUS
10
4.90406
20
-5.8638
11
4.91014
21
-5.86259
0
LINE
8
BLACK
6
CONTINUOUS
10
4.91014
20
-5.86259
11
4.91633
21
-5.86259
0
LINE
8
BLACK
6
CONTINUOUS
10
4.91633
20
-5.86259
11
4.92241
21
-5.8638
0
LINE
8
BLACK
6
CONTINUOUS
10
4.92241
20
-5.8638
11
4.92814
21
-5.86617
0
LINE
8
BLACK
6
CONTINUOUS
10
4.92814
20
-5.86617
11
4.93329
21
-5.86962
0
LINE
8
BLACK
6
CONTINUOUS
10
4.93329
20
-5.86962
11
4.93767
21
-5.874
0
LINE
8
BLACK
6
CONTINUOUS
10
4.93767
20
-5.874
11
4.94112
21
-5.87915
0
LINE
8
BLACK
6
CONTINUOUS
10
4.94112
20
-5.87915
11
4.94349
21
-5.88488
0
LINE
8
BLACK
6
CONTINUOUS
10
4.94349
20
-5.88488
11
4.9447
21
-5.89096
0
LINE
8
BLACK
6
CONTINUOUS
10
4.9447
20
-5.89096
11
4.9447
21
-5.89715
0
LINE
8
BLACK
6
CONTINUOUS
10
4.9447
20
-5.89715
11
4.94349
21
-5.90323
0
LINE
8
BLACK
6
CONTINUOUS
10
4.94349
20
-5.90323
11
4.94112
21
-5.90896
0
LINE
8
BLACK
6
CONTINUOUS
10
4.94112
20
-5.90896
11
4.93767
21
-5.91411
0
LINE
8
BLACK
6
CONTINUOUS
10
4.93767
20
-5.91411
11
4.93329
21
-5.91849
0
LINE
8
BLACK
6
CONTINUOUS
10
4.93329
20
-5.91849
11
4.92814
21
-5.92194
0
LINE
8
BLACK
6
CONTINUOUS
10
4.92814
20
-5.92194
11
4.92241
21
-5.92431
0
LINE
8
BLACK
6
CONTINUOUS
10
4.92241
20
-5.92431
11
4.91633
21
-5.92552
0
LINE
8
BLACK
6
CONTINUOUS
10
4.91633
20
-5.92552
11
4.91014
21
-5.92552
0
LINE
8
BLACK
6
CONTINUOUS
10
4.91014
20
-5.92552
11
4.90406
21
-5.92431
0
LINE
8
BLACK
6
CONTINUOUS
10
4.90406
20
-5.92431
11
4.89833
21
-5.92194
0
LINE
8
BLACK
6
CONTINUOUS
10
4.89833
20
-5.92194
11
4.89318
21
-5.91849
0
LINE
8
BLACK
6
CONTINUOUS
10
4.89318
20
-5.91849
11
4.8888
21
-5.91411
0
LINE
8
BLACK
6
CONTINUOUS
10
4.8888
20
-5.91411
11
4.88535
21
-5.90896
0
LINE
8
BLACK
6
CONTINUOUS
10
4.88535
20
-5.90896
11
4.88298
21
-5.90323
0
LINE
8
BLACK
6
CONTINUOUS
10
4.88298
20
-5.90323
11
4.88177
21
-5.89715
0
LINE
8
BLACK
6
CONTINUOUS
10
4.88177
20
-5.89715
11
4.88177
21
-5.89096
0
LINE
8
BLACK
6
CONTINUOUS
10
4.88177
20
-5.89096
11
4.88298
21
-5.88488
0
LINE
8
BLACK
6
CONTINUOUS
10
4.88939
20
-5.90129
11
4.89126
21
-5.9058
0
LINE
8
BLACK
6
CONTINUOUS
10
4.89126
20
-5.9058
11
4.89397
21
-5.90986
0
LINE
8
BLACK
6
CONTINUOUS
10
4.89397
20
-5.90986
11
4.89743
21
-5.91332
0
LINE
8
BLACK
6
CONTINUOUS
10
4.89743
20
-5.91332
11
4.90149
21
-5.91603
0
LINE
8
BLACK
6
CONTINUOUS
10
4.90149
20
-5.91603
11
4.906
21
-5.9179
0
LINE
8
BLACK
6
CONTINUOUS
10
4.906
20
-5.9179
11
4.91079
21
-5.91886
0
LINE
8
BLACK
6
CONTINUOUS
10
4.91079
20
-5.91886
11
4.91568
21
-5.91886
0
LINE
8
BLACK
6
CONTINUOUS
10
4.91568
20
-5.91886
11
4.92047
21
-5.9179
0
LINE
8
BLACK
6
CONTINUOUS
10
4.92047
20
-5.9179
11
4.92498
21
-5.91603
0
LINE
8
BLACK
6
CONTINUOUS
10
4.92498
20
-5.91603
11
4.92905
21
-5.91332
0
LINE
8
BLACK
6
CONTINUOUS
10
4.92905
20
-5.91332
11
4.9325
21
-5.90986
0
LINE
8
BLACK
6
CONTINUOUS
10
4.9325
20
-5.90986
11
4.93521
21
-5.9058
0
LINE
8
BLACK
6
CONTINUOUS
10
4.93521
20
-5.9058
11
4.93708
21
-5.90129
0
LINE
8
BLACK
6
CONTINUOUS
10
4.93708
20
-5.90129
11
4.93804
21
-5.8965
0
LINE
8
BLACK
6
CONTINUOUS
10
4.93804
20
-5.8965
11
4.93804
21
-5.89161
0
LINE
8
BLACK
6
CONTINUOUS
10
4.93804
20
-5.89161
11
4.93708
21
-5.88682
0
LINE
8
BLACK
6
CONTINUOUS
10
4.93708
20
-5.88682
11
4.93521
21
-5.88231
0
LINE
8
BLACK
6
CONTINUOUS
10
4.93521
20
-5.88231
11
4.9325
21
-5.87825
0
LINE
8
BLACK
6
CONTINUOUS
10
4.9325
20
-5.87825
11
4.92905
21
-5.87479
0
LINE
8
BLACK
6
CONTINUOUS
10
4.92905
20
-5.87479
11
4.92498
21
-5.87208
0
LINE
8
BLACK
6
CONTINUOUS
10
4.92498
20
-5.87208
11
4.92047
21
-5.87021
0
LINE
8
BLACK
6
CONTINUOUS
10
4.92047
20
-5.87021
11
4.91568
21
-5.86925
0
LINE
8
BLACK
6
CONTINUOUS
10
4.91568
20
-5.86925
11
4.91079
21
-5.86925
0
LINE
8
BLACK
6
CONTINUOUS
10
4.91079
20
-5.86925
11
4.906
21
-5.87021
0
LINE
8
BLACK
6
CONTINUOUS
10
4.906
20
-5.87021
11
4.90149
21
-5.87208
0
LINE
8
BLACK
6
CONTINUOUS
10
4.90149
20
-5.87208
11
4.89743
21
-5.87479
0
LINE
8
BLACK
6
CONTINUOUS
10
4.89743
20
-5.87479
11
4.89397
21
-5.87825
0
LINE
8
BLACK
6
CONTINUOUS
10
4.89397
20
-5.87825
11
4.89126
21
-5.88231
0
LINE
8
BLACK
6
CONTINUOUS
10
4.89126
20
-5.88231
11
4.88939
21
-5.88682
0
LINE
8
BLACK
6
CONTINUOUS
10
4.88939
20
-5.88682
11
4.88843
21
-5.89161
0
LINE
8
BLACK
6
CONTINUOUS
10
4.88843
20
-5.89161
11
4.88843
21
-5.8965
0
LINE
8
BLACK
6
CONTINUOUS
10
4.88843
20
-5.8965
11
4.88939
21
-5.90129
0
LINE
8
BLACK
6
CONTINUOUS
10
4.05629
20
-5.88488
11
4.05866
21
-5.87915
0
LINE
8
BLACK
6
CONTINUOUS
10
4.05866
20
-5.87915
11
4.06211
21
-5.874
0
LINE
8
BLACK
6
CONTINUOUS
10
4.06211
20
-5.874
11
4.06649
21
-5.86962
0
LINE
8
BLACK
6
CONTINUOUS
10
4.06649
20
-5.86962
11
4.07164
21
-5.86617
0
LINE
8
BLACK
6
CONTINUOUS
10
4.07164
20
-5.86617
11
4.07737
21
-5.8638
0
LINE
8
BLACK
6
CONTINUOUS
10
4.07737
20
-5.8638
11
4.08344
21
-5.86259
0
LINE
8
BLACK
6
CONTINUOUS
10
4.08344
20
-5.86259
11
4.08964
21
-5.86259
0
LINE
8
BLACK
6
CONTINUOUS
10
4.08964
20
-5.86259
11
4.09572
21
-5.8638
0
LINE
8
BLACK
6
CONTINUOUS
10
4.09572
20
-5.8638
11
4.10145
21
-5.86617
0
LINE
8
BLACK
6
CONTINUOUS
10
4.10145
20
-5.86617
11
4.1066
21
-5.86962
0
LINE
8
BLACK
6
CONTINUOUS
10
4.1066
20
-5.86962
11
4.11098
21
-5.874
0
LINE
8
BLACK
6
CONTINUOUS
10
4.11098
20
-5.874
11
4.11442
21
-5.87915
0
LINE
8
BLACK
6
CONTINUOUS
10
4.11442
20
-5.87915
11
4.1168
21
-5.88488
0
LINE
8
BLACK
6
CONTINUOUS
10
4.1168
20
-5.88488
11
4.118
21
-5.89096
0
LINE
8
BLACK
6
CONTINUOUS
10
4.118
20
-5.89096
11
4.118
21
-5.89715
0
LINE
8
BLACK
6
CONTINUOUS
10
4.118
20
-5.89715
11
4.1168
21
-5.90323
0
LINE
8
BLACK
6
CONTINUOUS
10
4.1168
20
-5.90323
11
4.11442
21
-5.90896
0
LINE
8
BLACK
6
CONTINUOUS
10
4.11442
20
-5.90896
11
4.11098
21
-5.91411
0
LINE
8
BLACK
6
CONTINUOUS
10
4.11098
20
-5.91411
11
4.1066
21
-5.91849
0
LINE
8
BLACK
6
CONTINUOUS
10
4.1066
20
-5.91849
11
4.10145
21
-5.92194
0
LINE
8
BLACK
6
CONTINUOUS
10
4.10145
20
-5.92194
11
4.09572
21
-5.92431
0
LINE
8
BLACK
6
CONTINUOUS
10
4.09572
20
-5.92431
11
4.08964
21
-5.92552
0
LINE
8
BLACK
6
CONTINUOUS
10
4.08964
20
-5.92552
11
4.08344
21
-5.92552
0
LINE
8
BLACK
6
CONTINUOUS
10
4.08344
20
-5.92552
11
4.07737
21
-5.92431
0
LINE
8
BLACK
6
CONTINUOUS
10
4.07737
20
-5.92431
11
4.07164
21
-5.92194
0
LINE
8
BLACK
6
CONTINUOUS
10
4.07164
20
-5.92194
11
4.06649
21
-5.91849
0
LINE
8
BLACK
6
CONTINUOUS
10
4.06649
20
-5.91849
11
4.06211
21
-5.91411
0
LINE
8
BLACK
6
CONTINUOUS
10
4.06211
20
-5.91411
11
4.05866
21
-5.90896
0
LINE
8
BLACK
6
CONTINUOUS
10
4.05866
20
-5.90896
11
4.05629
21
-5.90323
0
LINE
8
BLACK
6
CONTINUOUS
10
4.05629
20
-5.90323
11
4.05508
21
-5.89715
0
LINE
8
BLACK
6
CONTINUOUS
10
4.05508
20
-5.89715
11
4.05508
21
-5.89096
0
LINE
8
BLACK
6
CONTINUOUS
10
4.05508
20
-5.89096
11
4.05629
21
-5.88488
0
LINE
8
BLACK
6
CONTINUOUS
10
4.0627
20
-5.90129
11
4.06457
21
-5.9058
0
LINE
8
BLACK
6
CONTINUOUS
10
4.06457
20
-5.9058
11
4.06728
21
-5.90986
0
LINE
8
BLACK
6
CONTINUOUS
10
4.06728
20
-5.90986
11
4.07073
21
-5.91332
0
LINE
8
BLACK
6
CONTINUOUS
10
4.07073
20
-5.91332
11
4.0748
21
-5.91603
0
LINE
8
BLACK
6
CONTINUOUS
10
4.0748
20
-5.91603
11
4.07931
21
-5.9179
0
LINE
8
BLACK
6
CONTINUOUS
10
4.07931
20
-5.9179
11
4.0841
21
-5.91886
0
LINE
8
BLACK
6
CONTINUOUS
10
4.0841
20
-5.91886
11
4.08899
21
-5.91886
0
LINE
8
BLACK
6
CONTINUOUS
10
4.08899
20
-5.91886
11
4.09378
21
-5.9179
0
LINE
8
BLACK
6
CONTINUOUS
10
4.09378
20
-5.9179
11
4.09829
21
-5.91603
0
LINE
8
BLACK
6
CONTINUOUS
10
4.09829
20
-5.91603
11
4.10235
21
-5.91332
0
LINE
8
BLACK
6
CONTINUOUS
10
4.10235
20
-5.91332
11
4.10581
21
-5.90986
0
LINE
8
BLACK
6
CONTINUOUS
10
4.10581
20
-5.90986
11
4.10852
21
-5.9058
0
LINE
8
BLACK
6
CONTINUOUS
10
4.10852
20
-5.9058
11
4.11039
21
-5.90129
0
LINE
8
BLACK
6
CONTINUOUS
10
4.11039
20
-5.90129
11
4.11134
21
-5.8965
0
LINE
8
BLACK
6
CONTINUOUS
10
4.11134
20
-5.8965
11
4.11134
21
-5.89161
0
LINE
8
BLACK
6
CONTINUOUS
10
4.11134
20
-5.89161
11
4.11039
21
-5.88682
0
LINE
8
BLACK
6
CONTINUOUS
10
4.11039
20
-5.88682
11
4.10852
21
-5.88231
0
LINE
8
BLACK
6
CONTINUOUS
10
4.10852
20
-5.88231
11
4.10581
21
-5.87825
0
LINE
8
BLACK
6
CONTINUOUS
10
4.10581
20
-5.87825
11
4.10235
21
-5.87479
0
LINE
8
BLACK
6
CONTINUOUS
10
4.10235
20
-5.87479
11
4.09829
21
-5.87208
0
LINE
8
BLACK
6
CONTINUOUS
10
4.09829
20
-5.87208
11
4.09378
21
-5.87021
0
LINE
8
BLACK
6
CONTINUOUS
10
4.09378
20
-5.87021
11
4.08899
21
-5.86925
0
LINE
8
BLACK
6
CONTINUOUS
10
4.08899
20
-5.86925
11
4.0841
21
-5.86925
0
LINE
8
BLACK
6
CONTINUOUS
10
4.0841
20
-5.86925
11
4.07931
21
-5.87021
0
LINE
8
BLACK
6
CONTINUOUS
10
4.07931
20
-5.87021
11
4.0748
21
-5.87208
0
LINE
8
BLACK
6
CONTINUOUS
10
4.0748
20
-5.87208
11
4.07073
21
-5.87479
0
LINE
8
BLACK
6
CONTINUOUS
10
4.07073
20
-5.87479
11
4.06728
21
-5.87825
0
LINE
8
BLACK
6
CONTINUOUS
10
4.06728
20
-5.87825
11
4.06457
21
-5.88231
0
LINE
8
BLACK
6
CONTINUOUS
10
4.06457
20
-5.88231
11
4.0627
21
-5.88682
0
LINE
8
BLACK
6
CONTINUOUS
10
4.0627
20
-5.88682
11
4.06174
21
-5.89161
0
LINE
8
BLACK
6
CONTINUOUS
10
4.06174
20
-5.89161
11
4.06174
21
-5.8965
0
LINE
8
BLACK
6
CONTINUOUS
10
4.06174
20
-5.8965
11
4.0627
21
-5.90129
0
LINE
8
BLACK
6
CONTINUOUS
10
4.88298
20
-5.68476
11
4.88535
21
-5.67903
0
LINE
8
BLACK
6
CONTINUOUS
10
4.88535
20
-5.67903
11
4.8888
21
-5.67388
0
LINE
8
BLACK
6
CONTINUOUS
10
4.8888
20
-5.67388
11
4.89318
21
-5.6695
0
LINE
8
BLACK
6
CONTINUOUS
10
4.89318
20
-5.6695
11
4.89833
21
-5.66606
0
LINE
8
BLACK
6
CONTINUOUS
10
4.89833
20
-5.66606
11
4.90406
21
-5.66368
0
LINE
8
BLACK
6
CONTINUOUS
10
4.90406
20
-5.66368
11
4.91014
21
-5.66248
0
LINE
8
BLACK
6
CONTINUOUS
10
4.91014
20
-5.66248
11
4.91633
21
-5.66248
0
LINE
8
BLACK
6
CONTINUOUS
10
4.91633
20
-5.66248
11
4.92241
21
-5.66368
0
LINE
8
BLACK
6
CONTINUOUS
10
4.92241
20
-5.66368
11
4.92814
21
-5.66606
0
LINE
8
BLACK
6
CONTINUOUS
10
4.92814
20
-5.66606
11
4.93329
21
-5.6695
0
LINE
8
BLACK
6
CONTINUOUS
10
4.93329
20
-5.6695
11
4.93767
21
-5.67388
0
LINE
8
BLACK
6
CONTINUOUS
10
4.93767
20
-5.67388
11
4.94112
21
-5.67903
0
LINE
8
BLACK
6
CONTINUOUS
10
4.94112
20
-5.67903
11
4.94349
21
-5.68476
0
LINE
8
BLACK
6
CONTINUOUS
10
4.94349
20
-5.68476
11
4.9447
21
-5.69084
0
LINE
8
BLACK
6
CONTINUOUS
10
4.9447
20
-5.69084
11
4.9447
21
-5.69704
0
LINE
8
BLACK
6
CONTINUOUS
10
4.9447
20
-5.69704
11
4.94349
21
-5.70311
0
LINE
8
BLACK
6
CONTINUOUS
10
4.94349
20
-5.70311
11
4.94112
21
-5.70884
0
LINE
8
BLACK
6
CONTINUOUS
10
4.94112
20
-5.70884
11
4.93767
21
-5.71399
0
LINE
8
BLACK
6
CONTINUOUS
10
4.93767
20
-5.71399
11
4.93329
21
-5.71838
0
LINE
8
BLACK
6
CONTINUOUS
10
4.93329
20
-5.71838
11
4.92814
21
-5.72182
0
LINE
8
BLACK
6
CONTINUOUS
10
4.92814
20
-5.72182
11
4.92241
21
-5.72419
0
LINE
8
BLACK
6
CONTINUOUS
10
4.92241
20
-5.72419
11
4.91633
21
-5.7254
0
LINE
8
BLACK
6
CONTINUOUS
10
4.91633
20
-5.7254
11
4.91014
21
-5.7254
0
LINE
8
BLACK
6
CONTINUOUS
10
4.91014
20
-5.7254
11
4.90406
21
-5.72419
0
LINE
8
BLACK
6
CONTINUOUS
10
4.90406
20
-5.72419
11
4.89833
21
-5.72182
0
LINE
8
BLACK
6
CONTINUOUS
10
4.89833
20
-5.72182
11
4.89318
21
-5.71838
0
LINE
8
BLACK
6
CONTINUOUS
10
4.89318
20
-5.71838
11
4.8888
21
-5.71399
0
LINE
8
BLACK
6
CONTINUOUS
10
4.8888
20
-5.71399
11
4.88535
21
-5.70884
0
LINE
8
BLACK
6
CONTINUOUS
10
4.88535
20
-5.70884
11
4.88298
21
-5.70311
0
LINE
8
BLACK
6
CONTINUOUS
10
4.88298
20
-5.70311
11
4.88177
21
-5.69704
0
LINE
8
BLACK
6
CONTINUOUS
10
4.88177
20
-5.69704
11
4.88177
21
-5.69084
0
LINE
8
BLACK
6
CONTINUOUS
10
4.88177
20
-5.69084
11
4.88298
21
-5.68476
0
LINE
8
BLACK
6
CONTINUOUS
10
4.88939
20
-5.70117
11
4.89126
21
-5.70568
0
LINE
8
BLACK
6
CONTINUOUS
10
4.89126
20
-5.70568
11
4.89397
21
-5.70975
0
LINE
8
BLACK
6
CONTINUOUS
10
4.89397
20
-5.70975
11
4.89743
21
-5.7132
0
LINE
8
BLACK
6
CONTINUOUS
10
4.89743
20
-5.7132
11
4.90149
21
-5.71592
0
LINE
8
BLACK
6
CONTINUOUS
10
4.90149
20
-5.71592
11
4.906
21
-5.71779
0
LINE
8
BLACK
6
CONTINUOUS
10
4.906
20
-5.71779
11
4.91079
21
-5.71874
0
LINE
8
BLACK
6
CONTINUOUS
10
4.91079
20
-5.71874
11
4.91568
21
-5.71874
0
LINE
8
BLACK
6
CONTINUOUS
10
4.91568
20
-5.71874
11
4.92047
21
-5.71779
0
LINE
8
BLACK
6
CONTINUOUS
10
4.92047
20
-5.71779
11
4.92498
21
-5.71592
0
LINE
8
BLACK
6
CONTINUOUS
10
4.92498
20
-5.71592
11
4.92905
21
-5.7132
0
LINE
8
BLACK
6
CONTINUOUS
10
4.92905
20
-5.7132
11
4.9325
21
-5.70975
0
LINE
8
BLACK
6
CONTINUOUS
10
4.9325
20
-5.70975
11
4.93521
21
-5.70568
0
LINE
8
BLACK
6
CONTINUOUS
10
4.93521
20
-5.70568
11
4.93708
21
-5.70117
0
LINE
8
BLACK
6
CONTINUOUS
10
4.93708
20
-5.70117
11
4.93804
21
-5.69638
0
LINE
8
BLACK
6
CONTINUOUS
10
4.93804
20
-5.69638
11
4.93804
21
-5.69149
0
LINE
8
BLACK
6
CONTINUOUS
10
4.93804
20
-5.69149
11
4.93708
21
-5.6867
0
LINE
8
BLACK
6
CONTINUOUS
10
4.93708
20
-5.6867
11
4.93521
21
-5.68219
0
LINE
8
BLACK
6
CONTINUOUS
10
4.93521
20
-5.68219
11
4.9325
21
-5.67813
0
LINE
8
BLACK
6
CONTINUOUS
10
4.9325
20
-5.67813
11
4.92905
21
-5.67467
0
LINE
8
BLACK
6
CONTINUOUS
10
4.92905
20
-5.67467
11
4.92498
21
-5.67196
0
LINE
8
BLACK
6
CONTINUOUS
10
4.92498
20
-5.67196
11
4.92047
21
-5.67009
0
LINE
8
BLACK
6
CONTINUOUS
10
4.92047
20
-5.67009
11
4.91568
21
-5.66914
0
LINE
8
BLACK
6
CONTINUOUS
10
4.91568
20
-5.66914
11
4.91079
21
-5.66914
0
LINE
8
BLACK
6
CONTINUOUS
10
4.91079
20
-5.66914
11
4.906
21
-5.67009
0
LINE
8
BLACK
6
CONTINUOUS
10
4.906
20
-5.67009
11
4.90149
21
-5.67196
0
LINE
8
BLACK
6
CONTINUOUS
10
4.90149
20
-5.67196
11
4.89743
21
-5.67467
0
LINE
8
BLACK
6
CONTINUOUS
10
4.89743
20
-5.67467
11
4.89397
21
-5.67813
0
LINE
8
BLACK
6
CONTINUOUS
10
4.89397
20
-5.67813
11
4.89126
21
-5.68219
0
LINE
8
BLACK
6
CONTINUOUS
10
4.89126
20
-5.68219
11
4.88939
21
-5.6867
0
LINE
8
BLACK
6
CONTINUOUS
10
4.88939
20
-5.6867
11
4.88843
21
-5.69149
0
LINE
8
BLACK
6
CONTINUOUS
10
4.88843
20
-5.69149
11
4.88843
21
-5.69638
0
LINE
8
BLACK
6
CONTINUOUS
10
4.88843
20
-5.69638
11
4.88939
21
-5.70117
0
LINE
8
BLACK
6
CONTINUOUS
10
4.05629
20
-5.68476
11
4.05866
21
-5.67903
0
LINE
8
BLACK
6
CONTINUOUS
10
4.05866
20
-5.67903
11
4.06211
21
-5.67388
0
LINE
8
BLACK
6
CONTINUOUS
10
4.06211
20
-5.67388
11
4.06649
21
-5.6695
0
LINE
8
BLACK
6
CONTINUOUS
10
4.06649
20
-5.6695
11
4.07164
21
-5.66606
0
LINE
8
BLACK
6
CONTINUOUS
10
4.07164
20
-5.66606
11
4.07737
21
-5.66368
0
LINE
8
BLACK
6
CONTINUOUS
10
4.07737
20
-5.66368
11
4.08344
21
-5.66248
0
LINE
8
BLACK
6
CONTINUOUS
10
4.08344
20
-5.66248
11
4.08964
21
-5.66248
0
LINE
8
BLACK
6
CONTINUOUS
10
4.08964
20
-5.66248
11
4.09572
21
-5.66368
0
LINE
8
BLACK
6
CONTINUOUS
10
4.09572
20
-5.66368
11
4.10145
21
-5.66606
0
LINE
8
BLACK
6
CONTINUOUS
10
4.10145
20
-5.66606
11
4.1066
21
-5.6695
0
LINE
8
BLACK
6
CONTINUOUS
10
4.1066
20
-5.6695
11
4.11098
21
-5.67388
0
LINE
8
BLACK
6
CONTINUOUS
10
4.11098
20
-5.67388
11
4.11442
21
-5.67903
0
LINE
8
BLACK
6
CONTINUOUS
10
4.11442
20
-5.67903
11
4.1168
21
-5.68476
0
LINE
8
BLACK
6
CONTINUOUS
10
4.1168
20
-5.68476
11
4.118
21
-5.69084
0
LINE
8
BLACK
6
CONTINUOUS
10
4.118
20
-5.69084
11
4.118
21
-5.69704
0
LINE
8
BLACK
6
CONTINUOUS
10
4.118
20
-5.69704
11
4.1168
21
-5.70311
0
LINE
8
BLACK
6
CONTINUOUS
10
4.1168
20
-5.70311
11
4.11442
21
-5.70884
0
LINE
8
BLACK
6
CONTINUOUS
10
4.11442
20
-5.70884
11
4.11098
21
-5.71399
0
LINE
8
BLACK
6
CONTINUOUS
10
4.11098
20
-5.71399
11
4.1066
21
-5.71838
0
LINE
8
BLACK
6
CONTINUOUS
10
4.1066
20
-5.71838
11
4.10145
21
-5.72182
0
LINE
8
BLACK
6
CONTINUOUS
10
4.10145
20
-5.72182
11
4.09572
21
-5.72419
0
LINE
8
BLACK
6
CONTINUOUS
10
4.09572
20
-5.72419
11
4.08964
21
-5.7254
0
LINE
8
BLACK
6
CONTINUOUS
10
4.08964
20
-5.7254
11
4.08344
21
-5.7254
0
LINE
8
BLACK
6
CONTINUOUS
10
4.08344
20
-5.7254
11
4.07737
21
-5.72419
0
LINE
8
BLACK
6
CONTINUOUS
10
4.07737
20
-5.72419
11
4.07164
21
-5.72182
0
LINE
8
BLACK
6
CONTINUOUS
10
4.07164
20
-5.72182
11
4.06649
21
-5.71838
0
LINE
8
BLACK
6
CONTINUOUS
10
4.06649
20
-5.71838
11
4.06211
21
-5.71399
0
LINE
8
BLACK
6
CONTINUOUS
10
4.06211
20
-5.71399
11
4.05866
21
-5.70884
0
LINE
8
BLACK
6
CONTINUOUS
10
4.05866
20
-5.70884
11
4.05629
21
-5.70311
0
LINE
8
BLACK
6
CONTINUOUS
10
4.05629
20
-5.70311
11
4.05508
21
-5.69704
0
LINE
8
BLACK
6
CONTINUOUS
10
4.05508
20
-5.69704
11
4.05508
21
-5.69084
0
LINE
8
BLACK
6
CONTINUOUS
10
4.05508
20
-5.69084
11
4.05629
21
-5.68476
0
LINE
8
BLACK
6
CONTINUOUS
10
4.0627
20
-5.70117
11
4.06457
21
-5.70568
0
LINE
8
BLACK
6
CONTINUOUS
10
4.06457
20
-5.70568
11
4.06728
21
-5.70975
0
LINE
8
BLACK
6
CONTINUOUS
10
4.06728
20
-5.70975
11
4.07073
21
-5.7132
0
LINE
8
BLACK
6
CONTINUOUS
10
4.07073
20
-5.7132
11
4.0748
21
-5.71592
0
LINE
8
BLACK
6
CONTINUOUS
10
4.0748
20
-5.71592
11
4.07931
21
-5.71779
0
LINE
8
BLACK
6
CONTINUOUS
10
4.07931
20
-5.71779
11
4.0841
21
-5.71874
0
LINE
8
BLACK
6
CONTINUOUS
10
4.0841
20
-5.71874
11
4.08899
21
-5.71874
0
LINE
8
BLACK
6
CONTINUOUS
10
4.08899
20
-5.71874
11
4.09378
21
-5.71779
0
LINE
8
BLACK
6
CONTINUOUS
10
4.09378
20
-5.71779
11
4.09829
21
-5.71592
0
LINE
8
BLACK
6
CONTINUOUS
10
4.09829
20
-5.71592
11
4.10235
21
-5.7132
0
LINE
8
BLACK
6
CONTINUOUS
10
4.10235
20
-5.7132
11
4.10581
21
-5.70975
0
LINE
8
BLACK
6
CONTINUOUS
10
4.10581
20
-5.70975
11
4.10852
21
-5.70568
0
LINE
8
BLACK
6
CONTINUOUS
10
4.10852
20
-5.70568
11
4.11039
21
-5.70117
0
LINE
8
BLACK
6
CONTINUOUS
10
4.11039
20
-5.70117
11
4.11134
21
-5.69638
0
LINE
8
BLACK
6
CONTINUOUS
10
4.11134
20
-5.69638
11
4.11134
21
-5.69149
0
LINE
8
BLACK
6
CONTINUOUS
10
4.11134
20
-5.69149
11
4.11039
21
-5.6867
0
LINE
8
BLACK
6
CONTINUOUS
10
4.11039
20
-5.6867
11
4.10852
21
-5.68219
0
LINE
8
BLACK
6
CONTINUOUS
10
4.10852
20
-5.68219
11
4.10581
21
-5.67813
0
LINE
8
BLACK
6
CONTINUOUS
10
4.10581
20
-5.67813
11
4.10235
21
-5.67467
0
LINE
8
BLACK
6
CONTINUOUS
10
4.10235
20
-5.67467
11
4.09829
21
-5.67196
0
LINE
8
BLACK
6
CONTINUOUS
10
4.09829
20
-5.67196
11
4.09378
21
-5.67009
0
LINE
8
BLACK
6
CONTINUOUS
10
4.09378
20
-5.67009
11
4.08899
21
-5.66914
0
LINE
8
BLACK
6
CONTINUOUS
10
4.08899
20
-5.66914
11
4.0841
21
-5.66914
0
LINE
8
BLACK
6
CONTINUOUS
10
4.0841
20
-5.66914
11
4.07931
21
-5.67009
0
LINE
8
BLACK
6
CONTINUOUS
10
4.07931
20
-5.67009
11
4.0748
21
-5.67196
0
LINE
8
BLACK
6
CONTINUOUS
10
4.0748
20
-5.67196
11
4.07073
21
-5.67467
0
LINE
8
BLACK
6
CONTINUOUS
10
4.07073
20
-5.67467
11
4.06728
21
-5.67813
0
LINE
8
BLACK
6
CONTINUOUS
10
4.06728
20
-5.67813
11
4.06457
21
-5.68219
0
LINE
8
BLACK
6
CONTINUOUS
10
4.06457
20
-5.68219
11
4.0627
21
-5.6867
0
LINE
8
BLACK
6
CONTINUOUS
10
4.0627
20
-5.6867
11
4.06174
21
-5.69149
0
LINE
8
BLACK
6
CONTINUOUS
10
4.06174
20
-5.69149
11
4.06174
21
-5.69638
0
LINE
8
BLACK
6
CONTINUOUS
10
4.06174
20
-5.69638
11
4.0627
21
-5.70117
  0
ENDSEC
  0
EOF
