  0
SECTION
  2
HEADER
  9
$ANGBASE
  50
0.0
  9
$ANGDIR
  70
1
  9
$MEASUREMENT
  70
0
  0
ENDSEC
  0
SECTION
  2
TABLES
  0
TABLE
  2
LTYPE
  70
4
  0
LTYPE
  5
40F
  2
CONTINUOUS
  70
0
  3
Solid line
  72
65
  73
0
  40
0.0
  0
LTYPE
  5
410
  2
DASHDOT
 70
0
  3
Dash Dot ____ _ ____ _
 72
65
 73
4
 40
2.0
 49
1.25
 49
-0.25
 49
0.25
 49
-0.25
  0
LTYPE
  5
411
  2
DASHED
 70
0
  3
Dashed __ __ __ __ __
 72
65
 73
2
 40
0.75
 49
0.5
 49
-0.25
  0
LTYPE
  5
43B
  2
DOTTED
 70
0
  3
Dotted .  .  .  .
 72
65
 73
2
 40
0.2
 49
0.0
 49
-0.2
  0
ENDTAB
  0
TABLE
  2
STYLE
  70
4
  0
STYLE
  2
KICAD
  70
0
  40
0
  41
1
  42
1
  50
0
  71
0
  3
isocp.shx
  0
STYLE
  2
KICADB
  70
0
  40
0
  41
1
  42
1
  50
0
  71
0
  3
isocp.shx
  0
STYLE
  2
KICADI
  70
0
  40
0
  41
1
  42
1
  50
15
  71
0
  3
isocp.shx
  0
STYLE
  2
KICADBI
  70
0
  40
0
  41
1
  42
1
  50
15
  71
0
  3
isocp.shx
  0
ENDTAB
  0
TABLE
  2
LAYER
  70
1
  0
LAYER
  2
BLACK
  70
0
  62
7
  6
CONTINUOUS
  0
ENDTAB
  0
ENDSEC
  0
SECTION
  2
ENTITIES
0
LINE
8
BLACK
6
CONTINUOUS
10
18.8503835039370067
20
-2.6971148425196851
11
18.8505127559055126
21
-2.6970920866141732
0
LINE
8
BLACK
6
CONTINUOUS
10
18.8505127559055126
20
-2.6970920866141732
11
18.8506263385826784
21
-2.6971576771653543
0
LINE
8
BLACK
6
CONTINUOUS
10
18.8506263385826784
20
-2.6971576771653543
11
18.8510099212598412
21
-2.69722531496063
0
LINE
8
BLACK
6
CONTINUOUS
10
18.8510099212598412
20
-2.69722531496063
11
18.8515975984251973
21
-2.6977184251968502
0
LINE
8
BLACK
6
CONTINUOUS
10
18.8515975984251973
20
-2.6977184251968502
11
18.8522619291338565
21
-2.6981020078740157
0
LINE
8
BLACK
6
CONTINUOUS
10
18.8522619291338565
20
-2.6981020078740157
11
18.8523530314960617
21
-2.6983523228346455
0
LINE
8
BLACK
6
CONTINUOUS
10
18.8523530314960617
20
-2.6983523228346455
11
18.8525571653543302
21
-2.6985236220472442
0
LINE
8
BLACK
6
CONTINUOUS
10
18.8525571653543302
20
-2.6985236220472442
11
18.8526903937007866
21
-2.6992791732283465
0
LINE
8
BLACK
6
CONTINUOUS
10
18.8526903937007866
20
-2.6992791732283465
11
18.8529527559055126
21
-2.6999999999999997
0
LINE
8
BLACK
6
CONTINUOUS
10
18.8529527559055126
20
-2.6999999999999997
11
18.8529527559055126
21
-13.1999999999999993
0
LINE
8
BLACK
6
CONTINUOUS
10
18.8529527559055126
20
-13.1999999999999993
11
18.8528851181102368
21
-13.2003835039370081
0
LINE
8
BLACK
6
CONTINUOUS
10
18.8528851181102368
20
-13.2003835039370081
11
18.8529079133858275
21
-13.2005127559055122
0
LINE
8
BLACK
6
CONTINUOUS
10
18.8529079133858275
20
-13.2005127559055122
11
18.8528422834645681
21
-13.2006263385826763
0
LINE
8
BLACK
6
CONTINUOUS
10
18.8528422834645681
20
-13.2006263385826763
11
18.8527746850393711
21
-13.2010099212598426
0
LINE
8
BLACK
6
CONTINUOUS
10
18.8527746850393711
20
-13.2010099212598426
11
18.8522815354330717
21
-13.201597598425197
0
LINE
8
BLACK
6
CONTINUOUS
10
18.8522815354330717
20
-13.201597598425197
11
18.8518979921259842
21
-13.2022619291338579
0
LINE
8
BLACK
6
CONTINUOUS
10
18.8518979921259842
20
-13.2022619291338579
11
18.8516476377952742
21
-13.2023530314960631
0
LINE
8
BLACK
6
CONTINUOUS
10
18.8516476377952742
20
-13.2023530314960631
11
18.851476377952757
21
-13.2025571653543299
0
LINE
8
BLACK
6
CONTINUOUS
10
18.851476377952757
20
-13.2025571653543299
11
18.8507207874015741
21
-13.2026903937007862
0
LINE
8
BLACK
6
CONTINUOUS
10
18.8507207874015741
20
-13.2026903937007862
11
18.8499999999999979
21
-13.2029527559055122
0
LINE
8
BLACK
6
CONTINUOUS
10
18.8499999999999979
20
-13.2029527559055122
11
3.1000000000000001
21
-13.2029527559055122
0
LINE
8
BLACK
6
CONTINUOUS
10
3.1000000000000001
20
-13.2029527559055122
11
3.0996164566929134
21
-13.2028851181102365
0
LINE
8
BLACK
6
CONTINUOUS
10
3.0996164566929134
20
-13.2028851181102365
11
3.0994872440944881
21
-13.2029079133858271
0
LINE
8
BLACK
6
CONTINUOUS
10
3.0994872440944881
20
-13.2029079133858271
11
3.0993736220472439
21
-13.202842283464566
0
LINE
8
BLACK
6
CONTINUOUS
10
3.0993736220472439
20
-13.202842283464566
11
3.0989900787401572
21
-13.202774685039369
0
LINE
8
BLACK
6
CONTINUOUS
10
3.0989900787401572
20
-13.202774685039369
11
3.0984023622047245
21
-13.2022815354330714
0
LINE
8
BLACK
6
CONTINUOUS
10
3.0984023622047245
20
-13.2022815354330714
11
3.0977380708661415
21
-13.2018979921259838
0
LINE
8
BLACK
6
CONTINUOUS
10
3.0977380708661415
20
-13.2018979921259838
11
3.0976469291338584
21
-13.2016476377952756
0
LINE
8
BLACK
6
CONTINUOUS
10
3.0976469291338584
20
-13.2016476377952756
11
3.0974428346456691
21
-13.2014763779527549
0
LINE
8
BLACK
6
CONTINUOUS
10
3.0974428346456691
20
-13.2014763779527549
11
3.097309566929134
21
-13.2007207874015737
0
LINE
8
BLACK
6
CONTINUOUS
10
3.097309566929134
20
-13.2007207874015737
11
3.0970472440944881
21
-13.1999999999999993
0
LINE
8
BLACK
6
CONTINUOUS
10
3.0970472440944881
20
-13.1999999999999993
11
3.0970472440944881
21
-2.6999999999999997
0
LINE
8
BLACK
6
CONTINUOUS
10
3.0970472440944881
20
-2.6999999999999997
11
3.0971148425196851
21
-2.6996164566929135
0
LINE
8
BLACK
6
CONTINUOUS
10
3.0971148425196851
20
-2.6996164566929135
11
3.0970920866141731
21
-2.6994872440944881
0
LINE
8
BLACK
6
CONTINUOUS
10
3.0970920866141731
20
-2.6994872440944881
11
3.0971576771653542
21
-2.699373622047244
0
LINE
8
BLACK
6
CONTINUOUS
10
3.0971576771653542
20
-2.699373622047244
11
3.0972253149606299
21
-2.6989900787401573
0
LINE
8
BLACK
6
CONTINUOUS
10
3.0972253149606299
20
-2.6989900787401573
11
3.0977184251968501
21
-2.6984023622047242
0
LINE
8
BLACK
6
CONTINUOUS
10
3.0977184251968501
20
-2.6984023622047242
11
3.0981020078740156
21
-2.6977380708661416
0
LINE
8
BLACK
6
CONTINUOUS
10
3.0981020078740156
20
-2.6977380708661416
11
3.0983523228346455
21
-2.6976469291338581
0
LINE
8
BLACK
6
CONTINUOUS
10
3.0983523228346455
20
-2.6976469291338581
11
3.0985236220472441
21
-2.6974428346456691
0
LINE
8
BLACK
6
CONTINUOUS
10
3.0985236220472441
20
-2.6974428346456691
11
3.0992791732283465
21
-2.6973095669291336
0
LINE
8
BLACK
6
CONTINUOUS
10
3.0992791732283465
20
-2.6973095669291336
11
3.1000000000000001
21
-2.6970472440944881
0
LINE
8
BLACK
6
CONTINUOUS
10
3.1000000000000001
20
-2.6970472440944881
11
18.8499999999999979
21
-2.6970472440944881
0
LINE
8
BLACK
6
CONTINUOUS
10
18.8499999999999979
20
-2.6970472440944881
11
18.8503835039370067
21
-2.6971148425196851
0
LINE
8
BLACK
6
CONTINUOUS
10
3.1029527559055117
20
-2.7029527559055118
11
3.1029527559055117
21
-13.1970472440944881
0
LINE
8
BLACK
6
CONTINUOUS
10
3.1029527559055117
20
-13.1970472440944881
11
18.8470472440944867
21
-13.1970472440944881
0
LINE
8
BLACK
6
CONTINUOUS
10
18.8470472440944867
20
-13.1970472440944881
11
18.8470472440944867
21
-2.7029527559055118
0
LINE
8
BLACK
6
CONTINUOUS
10
18.8470472440944867
20
-2.7029527559055118
11
3.1029527559055117
21
-2.7029527559055118
  0
ENDSEC
  0
EOF
