G04 #@! TF.GenerationSoftware,KiCad,Pcbnew,9.0.6*
G04 #@! TF.CreationDate,2025-12-03T16:16:46-05:00*
G04 #@! TF.ProjectId,Smart Tank Motherboard,536d6172-7420-4546-916e-6b204d6f7468,rev?*
G04 #@! TF.SameCoordinates,Original*
G04 #@! TF.FileFunction,Soldermask,Top*
G04 #@! TF.FilePolarity,Negative*
%FSLAX46Y46*%
G04 Gerber Fmt 4.6, Leading zero omitted, Abs format (unit mm)*
G04 Created by KiCad (PCBNEW 9.0.6) date 2025-12-03 16:16:46*
%MOMM*%
%LPD*%
G01*
G04 APERTURE LIST*
G04 Aperture macros list*
%AMRoundRect*
0 Rectangle with rounded corners*
0 $1 Rounding radius*
0 $2 $3 $4 $5 $6 $7 $8 $9 X,Y pos of 4 corners*
0 Add a 4 corners polygon primitive as box body*
4,1,4,$2,$3,$4,$5,$6,$7,$8,$9,$2,$3,0*
0 Add four circle primitives for the rounded corners*
1,1,$1+$1,$2,$3*
1,1,$1+$1,$4,$5*
1,1,$1+$1,$6,$7*
1,1,$1+$1,$8,$9*
0 Add four rect primitives between the rounded corners*
20,1,$1+$1,$2,$3,$4,$5,0*
20,1,$1+$1,$4,$5,$6,$7,0*
20,1,$1+$1,$6,$7,$8,$9,0*
20,1,$1+$1,$8,$9,$2,$3,0*%
G04 Aperture macros list end*
%ADD10C,5.400000*%
%ADD11C,2.250000*%
%ADD12C,4.900000*%
%ADD13C,2.900000*%
%ADD14C,3.400000*%
%ADD15RoundRect,0.200000X-0.775000X0.125000X-0.775000X-0.125000X0.775000X-0.125000X0.775000X0.125000X0*%
%ADD16RoundRect,0.336956X-0.763044X0.438044X-0.763044X-0.438044X0.763044X-0.438044X0.763044X0.438044X0*%
%ADD17RoundRect,0.336956X0.438044X0.763044X-0.438044X0.763044X-0.438044X-0.763044X0.438044X-0.763044X0*%
%ADD18RoundRect,0.336956X0.763044X-0.438044X0.763044X0.438044X-0.763044X0.438044X-0.763044X-0.438044X0*%
%ADD19RoundRect,0.102000X-1.250000X-0.800000X1.250000X-0.800000X1.250000X0.800000X-1.250000X0.800000X0*%
%ADD20RoundRect,0.336956X-0.438044X-0.763044X0.438044X-0.763044X0.438044X0.763044X-0.438044X0.763044X0*%
%ADD21RoundRect,0.250000X0.925000X0.250000X-0.925000X0.250000X-0.925000X-0.250000X0.925000X-0.250000X0*%
%ADD22RoundRect,0.305556X1.144444X0.794444X-1.144444X0.794444X-1.144444X-0.794444X1.144444X-0.794444X0*%
%ADD23RoundRect,0.305556X-1.144444X-0.794444X1.144444X-0.794444X1.144444X0.794444X-1.144444X0.794444X0*%
%ADD24RoundRect,0.325000X-0.475000X0.325000X-0.475000X-0.325000X0.475000X-0.325000X0.475000X0.325000X0*%
%ADD25RoundRect,0.200000X-1.330000X0.400000X-1.330000X-0.400000X1.330000X-0.400000X1.330000X0.400000X0*%
%ADD26RoundRect,0.250000X-0.925000X-0.250000X0.925000X-0.250000X0.925000X0.250000X-0.925000X0.250000X0*%
%ADD27C,4.300000*%
%ADD28RoundRect,0.250000X0.250000X-0.687500X0.250000X0.687500X-0.250000X0.687500X-0.250000X-0.687500X0*%
%ADD29RoundRect,0.250000X-0.687500X-0.250000X0.687500X-0.250000X0.687500X0.250000X-0.687500X0.250000X0*%
%ADD30RoundRect,0.338889X-0.736111X0.423611X-0.736111X-0.423611X0.736111X-0.423611X0.736111X0.423611X0*%
%ADD31RoundRect,0.338889X0.736111X-0.423611X0.736111X0.423611X-0.736111X0.423611X-0.736111X-0.423611X0*%
%ADD32RoundRect,0.338889X0.423611X0.736111X-0.423611X0.736111X-0.423611X-0.736111X0.423611X-0.736111X0*%
%ADD33RoundRect,0.338889X-0.423611X-0.736111X0.423611X-0.736111X0.423611X0.736111X-0.423611X0.736111X0*%
%ADD34C,1.700000*%
%ADD35C,2.400000*%
%ADD36C,1.670000*%
%ADD37C,1.040000*%
%ADD38RoundRect,0.200000X-0.775000X-0.300000X0.775000X-0.300000X0.775000X0.300000X-0.775000X0.300000X0*%
%ADD39C,6.597600*%
%ADD40C,0.900000*%
%ADD41C,2.379000*%
%ADD42RoundRect,0.200000X1.220000X-2.600000X1.220000X2.600000X-1.220000X2.600000X-1.220000X-2.600000X0*%
%ADD43RoundRect,0.200000X1.220000X-0.445000X1.220000X0.445000X-1.220000X0.445000X-1.220000X-0.445000X0*%
%ADD44RoundRect,0.200000X0.800000X0.700000X-0.800000X0.700000X-0.800000X-0.700000X0.800000X-0.700000X0*%
%ADD45RoundRect,0.200000X-1.220000X2.600000X-1.220000X-2.600000X1.220000X-2.600000X1.220000X2.600000X0*%
%ADD46RoundRect,0.200000X-1.220000X0.445000X-1.220000X-0.445000X1.220000X-0.445000X1.220000X0.445000X0*%
%ADD47RoundRect,0.200000X-0.850000X-0.850000X0.850000X-0.850000X0.850000X0.850000X-0.850000X0.850000X0*%
%ADD48C,2.100000*%
%ADD49RoundRect,0.250000X0.687500X0.250000X-0.687500X0.250000X-0.687500X-0.250000X0.687500X-0.250000X0*%
%ADD50RoundRect,0.200000X0.863600X-0.863600X0.863600X0.863600X-0.863600X0.863600X-0.863600X-0.863600X0*%
%ADD51O,2.127200X2.127200*%
%ADD52RoundRect,0.339285X-1.080715X-0.420715X1.080715X-0.420715X1.080715X0.420715X-1.080715X0.420715X0*%
%ADD53RoundRect,0.200000X-0.863600X0.863600X-0.863600X-0.863600X0.863600X-0.863600X0.863600X0.863600X0*%
G04 APERTURE END LIST*
D10*
X383540000Y-189230000D03*
X383540000Y-125730000D03*
D11*
X382120000Y-174040000D03*
X382120000Y-176810000D03*
X382120000Y-179580000D03*
X382120000Y-182350000D03*
X384960000Y-175440000D03*
X384960000Y-178210000D03*
X384960000Y-180980000D03*
D12*
X383540000Y-134950000D03*
X383540000Y-141680000D03*
X383540000Y-148410000D03*
X383540000Y-155140000D03*
X383540000Y-161870000D03*
X383540000Y-168600000D03*
D10*
X139700000Y-189230000D03*
X139700000Y-125730000D03*
D11*
X138280000Y-174040000D03*
X138280000Y-176810000D03*
X138280000Y-179580000D03*
X138280000Y-182350000D03*
X141120000Y-175440000D03*
X141120000Y-178210000D03*
X141120000Y-180980000D03*
D12*
X139700000Y-134950000D03*
X139700000Y-141680000D03*
X139700000Y-148410000D03*
X139700000Y-155140000D03*
X139700000Y-161870000D03*
X139700000Y-168600000D03*
D10*
X200660000Y-189230000D03*
X200660000Y-125730000D03*
D11*
X199240000Y-174040000D03*
X199240000Y-176810000D03*
X199240000Y-179580000D03*
X199240000Y-182350000D03*
X202080000Y-175440000D03*
X202080000Y-178210000D03*
X202080000Y-180980000D03*
D12*
X200660000Y-134950000D03*
X200660000Y-141680000D03*
X200660000Y-148410000D03*
X200660000Y-155140000D03*
X200660000Y-161870000D03*
X200660000Y-168600000D03*
D10*
X261620000Y-189230000D03*
X261620000Y-125730000D03*
D11*
X260200000Y-174040000D03*
X260200000Y-176810000D03*
X260200000Y-179580000D03*
X260200000Y-182350000D03*
X263040000Y-175440000D03*
X263040000Y-178210000D03*
X263040000Y-180980000D03*
D12*
X261620000Y-134950000D03*
X261620000Y-141680000D03*
X261620000Y-148410000D03*
X261620000Y-155140000D03*
X261620000Y-161870000D03*
X261620000Y-168600000D03*
D10*
X322580000Y-189230000D03*
X322580000Y-125730000D03*
D11*
X321160000Y-174040000D03*
X321160000Y-176810000D03*
X321160000Y-179580000D03*
X321160000Y-182350000D03*
X324000000Y-175440000D03*
X324000000Y-178210000D03*
X324000000Y-180980000D03*
D12*
X322580000Y-134950000D03*
X322580000Y-141680000D03*
X322580000Y-148410000D03*
X322580000Y-155140000D03*
X322580000Y-161870000D03*
X322580000Y-168600000D03*
D10*
X444500000Y-189230000D03*
X444500000Y-125730000D03*
D11*
X443080000Y-174040000D03*
X443080000Y-176810000D03*
X443080000Y-179580000D03*
X443080000Y-182350000D03*
X445920000Y-175440000D03*
X445920000Y-178210000D03*
X445920000Y-180980000D03*
D12*
X444500000Y-134950000D03*
X444500000Y-141680000D03*
X444500000Y-148410000D03*
X444500000Y-155140000D03*
X444500000Y-161870000D03*
X444500000Y-168600000D03*
D13*
X106680000Y-322580000D03*
X116200000Y-322580000D03*
X125720000Y-322580000D03*
X135240000Y-322580000D03*
X167640000Y-322580000D03*
X177160000Y-322580000D03*
X186680000Y-322580000D03*
X196200000Y-322580000D03*
X228600000Y-322580000D03*
X238120000Y-322580000D03*
X247640000Y-322580000D03*
X257160000Y-322580000D03*
X289560000Y-322580000D03*
X299080000Y-322580000D03*
X308600000Y-322580000D03*
X318120000Y-322580000D03*
X350520000Y-322580000D03*
X360040000Y-322580000D03*
X369560000Y-322580000D03*
X379080000Y-322580000D03*
X411480000Y-322580000D03*
X421000000Y-322580000D03*
X430520000Y-322580000D03*
X440040000Y-322580000D03*
X135255000Y-81280000D03*
X125735000Y-81280000D03*
X116215000Y-81280000D03*
X106695000Y-81280000D03*
X196215000Y-81280000D03*
X186695000Y-81280000D03*
X177175000Y-81280000D03*
X167655000Y-81280000D03*
X257175000Y-81280000D03*
X247655000Y-81280000D03*
X238135000Y-81280000D03*
X228615000Y-81280000D03*
X318135000Y-81280000D03*
X308615000Y-81280000D03*
X299095000Y-81280000D03*
X289575000Y-81280000D03*
X379095000Y-81280000D03*
X369575000Y-81280000D03*
X360055000Y-81280000D03*
X350535000Y-81280000D03*
X440055000Y-81280000D03*
X430535000Y-81280000D03*
X421015000Y-81280000D03*
X411495000Y-81280000D03*
D14*
X116205000Y-205105000D03*
X123825000Y-205105000D03*
X116205000Y-205105000D03*
X142795000Y-205105000D03*
X150415000Y-205105000D03*
D15*
X421218200Y-199625000D03*
X421218200Y-200275000D03*
X421218200Y-200925000D03*
X421218200Y-201575000D03*
X421218200Y-202225000D03*
X421218200Y-202875000D03*
X421218200Y-203525000D03*
X421218200Y-204175000D03*
X421218200Y-204825000D03*
X421218200Y-205475000D03*
X421218200Y-206125000D03*
X421218200Y-206775000D03*
X426818200Y-206775000D03*
X426818200Y-206125000D03*
X426818200Y-205475000D03*
X426818200Y-204825000D03*
X426818200Y-204175000D03*
X426818200Y-203525000D03*
X426818200Y-202875000D03*
X426818200Y-202225000D03*
X426818200Y-201575000D03*
X426818200Y-200925000D03*
X426818200Y-200275000D03*
X426818200Y-199625000D03*
X421218200Y-223120000D03*
X421218200Y-223770000D03*
X421218200Y-224420000D03*
X421218200Y-225070000D03*
X421218200Y-225720000D03*
X421218200Y-226370000D03*
X421218200Y-227020000D03*
X421218200Y-227670000D03*
X421218200Y-228320000D03*
X421218200Y-228970000D03*
X421218200Y-229620000D03*
X421218200Y-230270000D03*
X426818200Y-230270000D03*
X426818200Y-229620000D03*
X426818200Y-228970000D03*
X426818200Y-228320000D03*
X426818200Y-227670000D03*
X426818200Y-227020000D03*
X426818200Y-226370000D03*
X426818200Y-225720000D03*
X426818200Y-225070000D03*
X426818200Y-224420000D03*
X426818200Y-223770000D03*
X426818200Y-223120000D03*
X421218200Y-247250000D03*
X421218200Y-247900000D03*
X421218200Y-248550000D03*
X421218200Y-249200000D03*
X421218200Y-249850000D03*
X421218200Y-250500000D03*
X421218200Y-251150000D03*
X421218200Y-251800000D03*
X421218200Y-252450000D03*
X421218200Y-253100000D03*
X421218200Y-253750000D03*
X421218200Y-254400000D03*
X426818200Y-254400000D03*
X426818200Y-253750000D03*
X426818200Y-253100000D03*
X426818200Y-252450000D03*
X426818200Y-251800000D03*
X426818200Y-251150000D03*
X426818200Y-250500000D03*
X426818200Y-249850000D03*
X426818200Y-249200000D03*
X426818200Y-248550000D03*
X426818200Y-247900000D03*
X426818200Y-247250000D03*
X421218200Y-271380000D03*
X421218200Y-272030000D03*
X421218200Y-272680000D03*
X421218200Y-273330000D03*
X421218200Y-273980000D03*
X421218200Y-274630000D03*
X421218200Y-275280000D03*
X421218200Y-275930000D03*
X421218200Y-276580000D03*
X421218200Y-277230000D03*
X421218200Y-277880000D03*
X421218200Y-278530000D03*
X426818200Y-278530000D03*
X426818200Y-277880000D03*
X426818200Y-277230000D03*
X426818200Y-276580000D03*
X426818200Y-275930000D03*
X426818200Y-275280000D03*
X426818200Y-274630000D03*
X426818200Y-273980000D03*
X426818200Y-273330000D03*
X426818200Y-272680000D03*
X426818200Y-272030000D03*
X426818200Y-271380000D03*
D13*
X472440000Y-156210000D03*
X472440000Y-161290000D03*
X472440000Y-166370000D03*
X472440000Y-171450000D03*
X472440000Y-176530000D03*
X472440000Y-181610000D03*
X472440000Y-186690000D03*
X472440000Y-191770000D03*
X472440000Y-196850000D03*
X472440000Y-201930000D03*
X472440000Y-257810000D03*
X472440000Y-252730000D03*
X472440000Y-247650000D03*
X472440000Y-242570000D03*
X472440000Y-237490000D03*
X472440000Y-232410000D03*
X472440000Y-227330000D03*
X472440000Y-222250000D03*
X472440000Y-217170000D03*
X472440000Y-212090000D03*
X472440000Y-313690000D03*
X472440000Y-308610000D03*
X472440000Y-303530000D03*
X472440000Y-298450000D03*
X472440000Y-293370000D03*
X472440000Y-288290000D03*
X472440000Y-283210000D03*
X472440000Y-278130000D03*
X472440000Y-273050000D03*
X472440000Y-267970000D03*
X85090000Y-262890000D03*
X85090000Y-267970000D03*
X85090000Y-273050000D03*
X85090000Y-278130000D03*
X85090000Y-283210000D03*
X85090000Y-288290000D03*
D16*
X425288200Y-210615000D03*
X425288200Y-213565000D03*
X422748200Y-210615000D03*
X422748200Y-213565000D03*
D17*
X425493200Y-217170000D03*
X422543200Y-217170000D03*
D16*
X425288200Y-258240000D03*
X425288200Y-261190000D03*
X422748200Y-258240000D03*
X422748200Y-261190000D03*
D17*
X425493200Y-264795000D03*
X422543200Y-264795000D03*
D16*
X425288200Y-234110000D03*
X425288200Y-237060000D03*
X422748200Y-234110000D03*
X422748200Y-237060000D03*
D17*
X425493200Y-240665000D03*
X422543200Y-240665000D03*
D16*
X425288200Y-282370000D03*
X425288200Y-285320000D03*
X422748200Y-282370000D03*
X422748200Y-285320000D03*
D17*
X425493200Y-288925000D03*
X422543200Y-288925000D03*
D16*
X122998200Y-168234000D03*
X122998200Y-171184000D03*
D17*
X97673200Y-327359000D03*
X94723200Y-327359000D03*
D18*
X105998200Y-156684000D03*
X105998200Y-153734000D03*
D19*
X102355700Y-250959000D03*
X105855700Y-250959000D03*
D20*
X423233200Y-312249000D03*
X426183200Y-312249000D03*
D16*
X122998200Y-173734000D03*
X122998200Y-176684000D03*
D18*
X105998200Y-151184000D03*
X105998200Y-148234000D03*
D20*
X170748200Y-313309000D03*
X173698200Y-313309000D03*
X240198200Y-312184000D03*
X243148200Y-312184000D03*
X301223200Y-312259000D03*
X304173200Y-312259000D03*
X362423200Y-312284000D03*
X365373200Y-312284000D03*
D16*
X183998200Y-168234000D03*
X183998200Y-171184000D03*
D18*
X166998200Y-156684000D03*
X166998200Y-153734000D03*
D16*
X183998200Y-173734000D03*
X183998200Y-176684000D03*
D18*
X166998200Y-151184000D03*
X166998200Y-148234000D03*
D16*
X244998200Y-168234000D03*
X244998200Y-171184000D03*
D18*
X227998200Y-156684000D03*
X227998200Y-153734000D03*
D16*
X244998200Y-173734000D03*
X244998200Y-176684000D03*
D18*
X227998200Y-151184000D03*
X227998200Y-148234000D03*
D16*
X305998200Y-168234000D03*
X305998200Y-171184000D03*
D18*
X288998200Y-156684000D03*
X288998200Y-153734000D03*
D16*
X305998200Y-173734000D03*
X305998200Y-176684000D03*
D18*
X288998200Y-151184000D03*
X288998200Y-148234000D03*
D16*
X366998200Y-168234000D03*
X366998200Y-171184000D03*
D18*
X349998200Y-156684000D03*
X349998200Y-153734000D03*
D16*
X366998200Y-173734000D03*
X366998200Y-176684000D03*
D18*
X349998200Y-151184000D03*
X349998200Y-148234000D03*
D16*
X427998200Y-168234000D03*
X427998200Y-171184000D03*
D18*
X410998200Y-156684000D03*
X410998200Y-153734000D03*
D16*
X427998200Y-173734000D03*
X427998200Y-176684000D03*
D18*
X410998200Y-151184000D03*
X410998200Y-148234000D03*
D21*
X116973200Y-157614000D03*
X116973200Y-156344000D03*
X116973200Y-155074000D03*
X116973200Y-153804000D03*
X112023200Y-153804000D03*
X112023200Y-155074000D03*
X112023200Y-156344000D03*
X112023200Y-157614000D03*
X177973200Y-157614000D03*
X177973200Y-156344000D03*
X177973200Y-155074000D03*
X177973200Y-153804000D03*
X173023200Y-153804000D03*
X173023200Y-155074000D03*
X173023200Y-156344000D03*
X173023200Y-157614000D03*
X238973200Y-157614000D03*
X238973200Y-156344000D03*
X238973200Y-155074000D03*
X238973200Y-153804000D03*
X234023200Y-153804000D03*
X234023200Y-155074000D03*
X234023200Y-156344000D03*
X234023200Y-157614000D03*
X299973200Y-157614000D03*
X299973200Y-156344000D03*
X299973200Y-155074000D03*
X299973200Y-153804000D03*
X295023200Y-153804000D03*
X295023200Y-155074000D03*
X295023200Y-156344000D03*
X295023200Y-157614000D03*
X360973200Y-157614000D03*
X360973200Y-156344000D03*
X360973200Y-155074000D03*
X360973200Y-153804000D03*
X356023200Y-153804000D03*
X356023200Y-155074000D03*
X356023200Y-156344000D03*
X356023200Y-157614000D03*
X421973200Y-157614000D03*
X421973200Y-156344000D03*
X421973200Y-155074000D03*
X421973200Y-153804000D03*
X417023200Y-153804000D03*
X417023200Y-155074000D03*
X417023200Y-156344000D03*
X417023200Y-157614000D03*
D22*
X163598200Y-313334000D03*
X159598200Y-313334000D03*
D23*
X231848200Y-312209000D03*
X235848200Y-312209000D03*
D24*
X207010000Y-310770000D03*
X207010000Y-314070000D03*
X267970000Y-310770000D03*
X267970000Y-314070000D03*
X328930000Y-310770000D03*
X328930000Y-314070000D03*
X389890000Y-310770000D03*
X389890000Y-314070000D03*
X450850000Y-310770000D03*
X450850000Y-314070000D03*
X146050000Y-310770000D03*
X146050000Y-314070000D03*
D25*
X109025000Y-223520000D03*
X109025000Y-228600000D03*
X115765000Y-228600000D03*
X115765000Y-220980000D03*
D13*
X85090000Y-207010000D03*
X85090000Y-212090000D03*
X85090000Y-217170000D03*
X85090000Y-222250000D03*
X85090000Y-227330000D03*
X85090000Y-232410000D03*
X85090000Y-237490000D03*
X85090000Y-242570000D03*
X85090000Y-247650000D03*
X85090000Y-252730000D03*
D26*
X234023200Y-167304000D03*
X234023200Y-168574000D03*
X234023200Y-169844000D03*
X234023200Y-171114000D03*
X238973200Y-171114000D03*
X238973200Y-169844000D03*
X238973200Y-168574000D03*
X238973200Y-167304000D03*
D14*
X104140000Y-101600000D03*
X111760000Y-101600000D03*
X104140000Y-101600000D03*
X130730000Y-101600000D03*
X138350000Y-101600000D03*
X165100000Y-101600000D03*
X172720000Y-101600000D03*
X165100000Y-101600000D03*
X191690000Y-101600000D03*
X199310000Y-101600000D03*
X226060000Y-101600000D03*
X233680000Y-101600000D03*
X226060000Y-101600000D03*
X252650000Y-101600000D03*
X260270000Y-101600000D03*
X287020000Y-101600000D03*
X294640000Y-101600000D03*
X287020000Y-101600000D03*
X313610000Y-101600000D03*
X321230000Y-101600000D03*
X347980000Y-101600000D03*
X355600000Y-101600000D03*
X347980000Y-101600000D03*
X374570000Y-101600000D03*
X382190000Y-101600000D03*
X408940000Y-101600000D03*
X416560000Y-101600000D03*
X408940000Y-101600000D03*
X435530000Y-101600000D03*
X443150000Y-101600000D03*
D13*
X85090000Y-181610000D03*
X85090000Y-186690000D03*
X85090000Y-191770000D03*
X85090000Y-196850000D03*
X108204000Y-116687600D03*
X122199400Y-129692400D03*
D27*
X124206000Y-123190000D03*
X114706400Y-131648200D03*
X114706400Y-114757200D03*
X106299000Y-123190000D03*
X114300000Y-123190000D03*
D13*
X169164000Y-116687600D03*
X183159400Y-129692400D03*
D27*
X185166000Y-123190000D03*
X175666400Y-131648200D03*
X175666400Y-114757200D03*
X167259000Y-123190000D03*
X175260000Y-123190000D03*
D13*
X230124000Y-116687600D03*
X244119400Y-129692400D03*
D27*
X246126000Y-123190000D03*
X236626400Y-131648200D03*
X236626400Y-114757200D03*
X228219000Y-123190000D03*
X236220000Y-123190000D03*
D13*
X291084000Y-116687600D03*
X305079400Y-129692400D03*
D27*
X307086000Y-123190000D03*
X297586400Y-131648200D03*
X297586400Y-114757200D03*
X289179000Y-123190000D03*
X297180000Y-123190000D03*
D13*
X352044000Y-116687600D03*
X366039400Y-129692400D03*
D27*
X368046000Y-123190000D03*
X358546400Y-131648200D03*
X358546400Y-114757200D03*
X350139000Y-123190000D03*
X358140000Y-123190000D03*
D13*
X413004000Y-116687600D03*
X426999400Y-129692400D03*
D27*
X429006000Y-123190000D03*
X419506400Y-131648200D03*
X419506400Y-114757200D03*
X411099000Y-123190000D03*
X419100000Y-123190000D03*
D28*
X214048200Y-184646500D03*
X215948200Y-184646500D03*
X214998200Y-182771500D03*
D29*
X184130700Y-113749000D03*
X184130700Y-115649000D03*
X186005700Y-114699000D03*
D28*
X275048200Y-184639000D03*
X276948200Y-184639000D03*
X275998200Y-182764000D03*
D29*
X245200700Y-113839000D03*
X245200700Y-115739000D03*
X247075700Y-114789000D03*
D28*
X336048200Y-184646500D03*
X337948200Y-184646500D03*
X336998200Y-182771500D03*
D29*
X306110700Y-113729000D03*
X306110700Y-115629000D03*
X307985700Y-114679000D03*
D28*
X397048200Y-184646500D03*
X398948200Y-184646500D03*
X397998200Y-182771500D03*
D29*
X367190700Y-113699000D03*
X367190700Y-115599000D03*
X369065700Y-114649000D03*
D28*
X456048200Y-184646500D03*
X457948200Y-184646500D03*
X456998200Y-182771500D03*
D29*
X428130700Y-113799000D03*
X428130700Y-115699000D03*
X430005700Y-114749000D03*
D30*
X152908200Y-187246500D03*
X152908200Y-190171500D03*
X155498200Y-187246500D03*
X155498200Y-190171500D03*
D31*
X153848200Y-180181500D03*
X153848200Y-177256500D03*
X212918200Y-314024000D03*
X212918200Y-311099000D03*
X275748200Y-314671500D03*
X275748200Y-311746500D03*
X335298200Y-313781500D03*
X335298200Y-310856500D03*
X397748200Y-313671500D03*
X397748200Y-310746500D03*
X458748200Y-313671500D03*
X458748200Y-310746500D03*
X444798200Y-275934000D03*
X444798200Y-273009000D03*
D32*
X450623200Y-278209000D03*
X447698200Y-278209000D03*
D31*
X444798200Y-280996500D03*
X444798200Y-278071500D03*
D32*
X95442500Y-101600000D03*
X92517500Y-101600000D03*
D33*
X92517500Y-106680000D03*
X95442500Y-106680000D03*
D31*
X247488200Y-208472500D03*
X247488200Y-205547500D03*
D32*
X447410700Y-250271500D03*
X444485700Y-250271500D03*
X447410700Y-252811500D03*
X444485700Y-252811500D03*
X447410700Y-255351500D03*
X444485700Y-255351500D03*
X447410700Y-257891500D03*
X444485700Y-257891500D03*
X447410700Y-260431500D03*
X444485700Y-260431500D03*
X447410700Y-262971500D03*
X444485700Y-262971500D03*
X447410700Y-231837500D03*
X444485700Y-231837500D03*
X447410700Y-234377500D03*
X444485700Y-234377500D03*
X447410700Y-236917500D03*
X444485700Y-236917500D03*
X447410700Y-239457500D03*
X444485700Y-239457500D03*
X447410700Y-241997500D03*
X444485700Y-241997500D03*
X447410700Y-244537500D03*
X444485700Y-244537500D03*
X450623200Y-293409000D03*
X447698200Y-293409000D03*
D31*
X444798200Y-296234000D03*
X444798200Y-293309000D03*
D32*
X450623200Y-288309000D03*
X447698200Y-288309000D03*
D31*
X444798200Y-291134000D03*
X444798200Y-288209000D03*
D32*
X450623200Y-283309000D03*
X447698200Y-283309000D03*
D31*
X444798200Y-286034000D03*
X444798200Y-283109000D03*
X130810000Y-180532500D03*
X130810000Y-177607500D03*
D30*
X130810000Y-172527500D03*
X130810000Y-175452500D03*
X216498200Y-187184000D03*
X216498200Y-190109000D03*
X213998200Y-187184000D03*
X213998200Y-190109000D03*
D31*
X214998200Y-180171500D03*
X214998200Y-177246500D03*
X191770000Y-180532500D03*
X191770000Y-177607500D03*
D30*
X191770000Y-172527500D03*
X191770000Y-175452500D03*
X277498200Y-187246500D03*
X277498200Y-190171500D03*
X274998200Y-187246500D03*
X274998200Y-190171500D03*
D31*
X275998200Y-180171500D03*
X275998200Y-177246500D03*
X252730000Y-180532500D03*
X252730000Y-177607500D03*
D30*
X252730000Y-172527500D03*
X252730000Y-175452500D03*
X338498200Y-187246500D03*
X338498200Y-190171500D03*
X335998200Y-187246500D03*
X335998200Y-190171500D03*
D31*
X336998200Y-180171500D03*
X336998200Y-177246500D03*
X313690000Y-180532500D03*
X313690000Y-177607500D03*
D30*
X313690000Y-172527500D03*
X313690000Y-175452500D03*
X399498200Y-187246500D03*
X399498200Y-190171500D03*
X396998200Y-187246500D03*
X396998200Y-190171500D03*
D31*
X397998200Y-180171500D03*
X397998200Y-177246500D03*
X374650000Y-180532500D03*
X374650000Y-177607500D03*
D30*
X374650000Y-172527500D03*
X374650000Y-175452500D03*
X458498200Y-187246500D03*
X458498200Y-190171500D03*
X455998200Y-187246500D03*
X455998200Y-190171500D03*
D31*
X456998200Y-180171500D03*
X456998200Y-177246500D03*
X435610000Y-180532500D03*
X435610000Y-177607500D03*
D30*
X435610000Y-172527500D03*
X435610000Y-175452500D03*
D34*
X412588200Y-287655000D03*
X410588200Y-287655000D03*
X412588200Y-285655000D03*
X410588200Y-285655000D03*
X412588200Y-283655000D03*
X410588200Y-283655000D03*
X412588200Y-281655000D03*
X410588200Y-281655000D03*
X412588200Y-279655000D03*
X410588200Y-279655000D03*
X412588200Y-277655000D03*
X410588200Y-277655000D03*
X412588200Y-275655000D03*
X410588200Y-275655000D03*
X412588200Y-273655000D03*
X410588200Y-273655000D03*
X412588200Y-271655000D03*
X410588200Y-271655000D03*
X412588200Y-269655000D03*
X410588200Y-269655000D03*
X412588200Y-267655000D03*
X410588200Y-267655000D03*
X412588200Y-265655000D03*
X410588200Y-265655000D03*
X412588200Y-263655000D03*
X410588200Y-263655000D03*
X412588200Y-261655000D03*
X410588200Y-261655000D03*
X412588200Y-259655000D03*
X410588200Y-259655000D03*
X412588200Y-257655000D03*
X410588200Y-257655000D03*
X412588200Y-255655000D03*
X410588200Y-255655000D03*
X412588200Y-253655000D03*
X410588200Y-253655000D03*
X412588200Y-251655000D03*
X410588200Y-251655000D03*
X412588200Y-249655000D03*
X410588200Y-249655000D03*
X412588200Y-247655000D03*
X410588200Y-247655000D03*
X412588200Y-245655000D03*
X410588200Y-245655000D03*
X412588200Y-243655000D03*
X410588200Y-243655000D03*
X412588200Y-241655000D03*
X410588200Y-241655000D03*
X412588200Y-239655000D03*
X410588200Y-239655000D03*
D35*
X335308200Y-159329000D03*
X340388200Y-159329000D03*
D36*
X317248200Y-296900000D03*
X262868200Y-299950000D03*
D37*
X265293200Y-303125000D03*
X265293200Y-301855000D03*
X265293200Y-300585000D03*
X265293200Y-299315000D03*
X265293200Y-298045000D03*
X265293200Y-296775000D03*
X266563200Y-303125000D03*
X266563200Y-301855000D03*
X266563200Y-300585000D03*
X266563200Y-299315000D03*
X266563200Y-298045000D03*
X266563200Y-296775000D03*
X267833200Y-303125000D03*
X267833200Y-301855000D03*
X267833200Y-300585000D03*
X267833200Y-299315000D03*
X267833200Y-298045000D03*
X267833200Y-296775000D03*
X269103200Y-303125000D03*
X269103200Y-301855000D03*
X269103200Y-300585000D03*
X269103200Y-299315000D03*
X269103200Y-298045000D03*
X269103200Y-296775000D03*
X270373200Y-303125000D03*
X270373200Y-301855000D03*
X270373200Y-300585000D03*
X270373200Y-299315000D03*
X270373200Y-298045000D03*
X270373200Y-296775000D03*
X271643200Y-303125000D03*
X271643200Y-301855000D03*
X271643200Y-300585000D03*
X271643200Y-299315000D03*
X271643200Y-298045000D03*
X271643200Y-296775000D03*
X272913200Y-303125000D03*
X272913200Y-301855000D03*
X272913200Y-300585000D03*
X272913200Y-299315000D03*
X272913200Y-298045000D03*
X272913200Y-296775000D03*
X274183200Y-303125000D03*
X274183200Y-301855000D03*
X274183200Y-300585000D03*
X274183200Y-299315000D03*
X274183200Y-298045000D03*
X274183200Y-296775000D03*
X275453200Y-303125000D03*
X275453200Y-301855000D03*
X275453200Y-300585000D03*
X275453200Y-299315000D03*
X275453200Y-298045000D03*
X275453200Y-296775000D03*
X276723200Y-303125000D03*
X276723200Y-301855000D03*
X276723200Y-300585000D03*
X276723200Y-299315000D03*
X276723200Y-298045000D03*
X276723200Y-296775000D03*
X277993200Y-303125000D03*
X277993200Y-301855000D03*
X277993200Y-300585000D03*
X277993200Y-299315000D03*
X277993200Y-298045000D03*
X277993200Y-296775000D03*
X279263200Y-303125000D03*
X279263200Y-301855000D03*
X279263200Y-300585000D03*
X279263200Y-299315000D03*
X279263200Y-298045000D03*
X279263200Y-296775000D03*
X280533200Y-303125000D03*
X280533200Y-301855000D03*
X280533200Y-300585000D03*
X280533200Y-299315000D03*
X280533200Y-298045000D03*
X280533200Y-296775000D03*
X281803200Y-303125000D03*
X281803200Y-301855000D03*
X281803200Y-300585000D03*
X281803200Y-299315000D03*
X281803200Y-298045000D03*
X281803200Y-296775000D03*
X283073200Y-303125000D03*
X283073200Y-301855000D03*
X283073200Y-300585000D03*
X283073200Y-299315000D03*
X283073200Y-298045000D03*
X283073200Y-296775000D03*
X284343200Y-303125000D03*
X284343200Y-301855000D03*
X284343200Y-300585000D03*
X284343200Y-299315000D03*
X284343200Y-298045000D03*
X284343200Y-296775000D03*
X285613200Y-303125000D03*
X285613200Y-301855000D03*
X285613200Y-300585000D03*
X285613200Y-299315000D03*
X285613200Y-298045000D03*
X285613200Y-296775000D03*
X286883200Y-303125000D03*
X286883200Y-301855000D03*
X286883200Y-300585000D03*
X286883200Y-299315000D03*
X286883200Y-298045000D03*
X286883200Y-296775000D03*
X288153200Y-303125000D03*
X288153200Y-301855000D03*
X288153200Y-300585000D03*
X288153200Y-299315000D03*
X288153200Y-298045000D03*
X288153200Y-296775000D03*
X289423200Y-303125000D03*
X289423200Y-301855000D03*
X289423200Y-300585000D03*
X289423200Y-299315000D03*
X289423200Y-298045000D03*
X289423200Y-296775000D03*
X290693200Y-303125000D03*
X290693200Y-301855000D03*
X290693200Y-300585000D03*
X290693200Y-299315000D03*
X290693200Y-298045000D03*
X290693200Y-296775000D03*
X291963200Y-303125000D03*
X291963200Y-301855000D03*
X291963200Y-300585000D03*
X291963200Y-299315000D03*
X291963200Y-298045000D03*
X291963200Y-296775000D03*
X293233200Y-303125000D03*
X293233200Y-301855000D03*
X293233200Y-300585000D03*
X293233200Y-299315000D03*
X293233200Y-298045000D03*
X293233200Y-296775000D03*
X294503200Y-303125000D03*
X294503200Y-301855000D03*
X294503200Y-300585000D03*
X294503200Y-299315000D03*
X294503200Y-298045000D03*
X294503200Y-296775000D03*
X295773200Y-303125000D03*
X295773200Y-301855000D03*
X295773200Y-300585000D03*
X295773200Y-299315000D03*
X295773200Y-298045000D03*
X295773200Y-296775000D03*
X297043200Y-303125000D03*
X297043200Y-301855000D03*
X297043200Y-300585000D03*
X297043200Y-299315000D03*
X297043200Y-298045000D03*
X297043200Y-296775000D03*
X298313200Y-303125000D03*
X298313200Y-301855000D03*
X298313200Y-300585000D03*
X298313200Y-299315000D03*
X298313200Y-298045000D03*
X298313200Y-296775000D03*
X299583200Y-303125000D03*
X299583200Y-301855000D03*
X299583200Y-300585000D03*
X299583200Y-299315000D03*
X299583200Y-298045000D03*
X299583200Y-296775000D03*
X300853200Y-303125000D03*
X300853200Y-301855000D03*
X300853200Y-300585000D03*
X300853200Y-299315000D03*
X300853200Y-298045000D03*
X300853200Y-296775000D03*
X302123200Y-303125000D03*
X302123200Y-301855000D03*
X302123200Y-300585000D03*
X302123200Y-299315000D03*
X302123200Y-298045000D03*
X302123200Y-296775000D03*
X303393200Y-303125000D03*
X303393200Y-301855000D03*
X303393200Y-300585000D03*
X303393200Y-299315000D03*
X303393200Y-298045000D03*
X303393200Y-296775000D03*
X304663200Y-303125000D03*
X304663200Y-301855000D03*
X304663200Y-300585000D03*
X304663200Y-299315000D03*
X304663200Y-298045000D03*
X304663200Y-296775000D03*
X305933200Y-303125000D03*
X305933200Y-301855000D03*
X305933200Y-300585000D03*
X305933200Y-299315000D03*
X305933200Y-298045000D03*
X305933200Y-296775000D03*
X307203200Y-303125000D03*
X307203200Y-301855000D03*
X307203200Y-300585000D03*
X307203200Y-299315000D03*
X307203200Y-298045000D03*
X307203200Y-296775000D03*
X308473200Y-303125000D03*
X308473200Y-301855000D03*
X308473200Y-300585000D03*
X308473200Y-299315000D03*
X308473200Y-298045000D03*
X308473200Y-296775000D03*
X309743200Y-303125000D03*
X309743200Y-301855000D03*
X309743200Y-300585000D03*
X309743200Y-299315000D03*
X309743200Y-298045000D03*
X309743200Y-296775000D03*
X311013200Y-303125000D03*
X311013200Y-301855000D03*
X311013200Y-300585000D03*
X311013200Y-299315000D03*
X311013200Y-298045000D03*
X311013200Y-296775000D03*
X312283200Y-303125000D03*
X312283200Y-301855000D03*
X312283200Y-300585000D03*
X312283200Y-299315000D03*
X312283200Y-298045000D03*
X312283200Y-296775000D03*
X313553200Y-303125000D03*
X313553200Y-301855000D03*
X313553200Y-300585000D03*
X313553200Y-299315000D03*
X313553200Y-298045000D03*
X313553200Y-296775000D03*
X314823200Y-303125000D03*
X314823200Y-301855000D03*
X314823200Y-300585000D03*
X314823200Y-299315000D03*
X314823200Y-298045000D03*
X314823200Y-296775000D03*
D38*
X101440000Y-265430000D03*
X101440000Y-266700000D03*
X101440000Y-267970000D03*
X101440000Y-269240000D03*
X106840000Y-269240000D03*
X106840000Y-267970000D03*
X106840000Y-266700000D03*
X106840000Y-265430000D03*
X101440000Y-273685000D03*
X101440000Y-274955000D03*
X101440000Y-276225000D03*
X101440000Y-277495000D03*
X106840000Y-277495000D03*
X106840000Y-276225000D03*
X106840000Y-274955000D03*
X106840000Y-273685000D03*
D39*
X326868200Y-229870000D03*
X400498200Y-229870000D03*
X400498200Y-301600000D03*
X326868200Y-301600000D03*
X253228200Y-301600000D03*
X253228200Y-229870000D03*
X191608200Y-300990000D03*
X191608200Y-234950000D03*
X85039200Y-74930000D03*
X85039200Y-167640000D03*
X85039200Y-328930000D03*
X212039200Y-74930000D03*
X158699200Y-167640000D03*
X219659200Y-167640000D03*
X219659200Y-312420000D03*
X280619200Y-167640000D03*
X334086200Y-74930000D03*
X341706200Y-167640000D03*
X341706200Y-312420000D03*
X402666200Y-167640000D03*
X472516200Y-74930000D03*
X472516200Y-144780000D03*
X472516200Y-328930000D03*
X100025200Y-258699000D03*
X202133200Y-258572000D03*
X339293200Y-257302000D03*
X457403200Y-252095000D03*
D13*
X472440000Y-132209000D03*
X472440000Y-127129000D03*
X472440000Y-122049000D03*
X472440000Y-116969000D03*
X472440000Y-111889000D03*
X472440000Y-106809000D03*
X472440000Y-101729000D03*
X472440000Y-96649000D03*
X472440000Y-91569000D03*
X472440000Y-86489000D03*
X143818200Y-328879000D03*
X148898200Y-328879000D03*
X153978200Y-328879000D03*
X159058200Y-328879000D03*
X204778200Y-328879000D03*
X209858200Y-328879000D03*
X214938200Y-328879000D03*
X220018200Y-328879000D03*
X265728200Y-328859000D03*
X270808200Y-328859000D03*
X275888200Y-328859000D03*
X280968200Y-328859000D03*
X326698200Y-328859000D03*
X331778200Y-328859000D03*
X336858200Y-328859000D03*
X341938200Y-328859000D03*
X387618200Y-328879000D03*
X392698200Y-328879000D03*
X397778200Y-328879000D03*
X402858200Y-328879000D03*
X448618200Y-328879000D03*
X453698200Y-328879000D03*
X458778200Y-328879000D03*
X463858200Y-328879000D03*
D40*
X300698200Y-145304000D03*
X414458950Y-148009750D03*
D41*
X215498200Y-150999000D03*
X215498200Y-145919000D03*
D40*
X109498200Y-178719000D03*
X178689700Y-146200500D03*
X109468200Y-148919000D03*
X354356700Y-146220500D03*
X117728200Y-180509000D03*
X232368200Y-144414000D03*
D41*
X104018200Y-180499000D03*
X104018200Y-175419000D03*
D40*
X292498200Y-177814000D03*
X119498200Y-148009000D03*
D42*
X171398200Y-178264000D03*
D43*
X171398200Y-174490500D03*
X179628200Y-174490500D03*
D42*
X179628200Y-178264000D03*
D40*
X241528200Y-176004000D03*
X414458950Y-147109750D03*
X240628200Y-176004000D03*
X109498200Y-180519000D03*
X424488950Y-145299750D03*
X110398200Y-177819000D03*
X424518950Y-180499750D03*
X118628200Y-177809000D03*
X111298200Y-177819000D03*
X241528200Y-178704000D03*
X170459700Y-145310500D03*
D42*
X293398200Y-178264000D03*
D43*
X293398200Y-174490500D03*
X301628200Y-174490500D03*
D42*
X301628200Y-178264000D03*
D40*
X414488950Y-177809750D03*
D44*
X83738200Y-117769000D03*
X91738200Y-117769000D03*
X83738200Y-122269000D03*
X91738200Y-122269000D03*
D40*
X363486700Y-147110500D03*
D45*
X301598200Y-146654000D03*
D46*
X301598200Y-150427500D03*
X293368200Y-150427500D03*
D45*
X293368200Y-146654000D03*
D39*
X143602800Y-300990000D03*
D40*
X423618950Y-178699750D03*
X119528200Y-177809000D03*
X292498200Y-178714000D03*
X424518950Y-177799750D03*
X239728200Y-180504000D03*
X240628200Y-180504000D03*
D39*
X143602800Y-234950000D03*
D40*
X293368200Y-144414000D03*
X294268200Y-147114000D03*
D26*
X417023200Y-167304000D03*
X417023200Y-168574000D03*
X417023200Y-169844000D03*
X417023200Y-171114000D03*
X421973200Y-171114000D03*
X421973200Y-169844000D03*
X421973200Y-168574000D03*
X421973200Y-167304000D03*
D40*
X354356700Y-145320500D03*
X416288950Y-178709750D03*
X179589700Y-148000500D03*
X233268200Y-146214000D03*
X362586700Y-148910500D03*
X353486700Y-178720500D03*
X240598200Y-148904000D03*
X292468200Y-144414000D03*
X231498200Y-178714000D03*
D26*
X112023200Y-167304000D03*
X112023200Y-168574000D03*
X112023200Y-169844000D03*
X112023200Y-171114000D03*
X116973200Y-171114000D03*
X116973200Y-169844000D03*
X116973200Y-168574000D03*
X116973200Y-167304000D03*
D40*
X355256700Y-145320500D03*
X241528200Y-180504000D03*
X355286700Y-180520500D03*
X117698200Y-146209000D03*
X423588950Y-147999750D03*
X232368200Y-148914000D03*
X416288950Y-176009750D03*
D47*
X456308200Y-129339000D03*
D48*
X456308200Y-131879000D03*
X456308200Y-134419000D03*
D40*
X118628200Y-180509000D03*
X171359700Y-147110500D03*
D26*
X295023200Y-167304000D03*
X295023200Y-168574000D03*
X295023200Y-169844000D03*
X295023200Y-171114000D03*
X299973200Y-171114000D03*
X299973200Y-169844000D03*
X299973200Y-168574000D03*
X299973200Y-167304000D03*
D40*
X414458950Y-146209750D03*
X170489700Y-178710500D03*
X363486700Y-148910500D03*
X293398200Y-177814000D03*
X355256700Y-148020500D03*
X414458950Y-148909750D03*
X363516700Y-177810500D03*
D42*
X232398200Y-178264000D03*
D43*
X232398200Y-174490500D03*
X240628200Y-174490500D03*
D42*
X240628200Y-178264000D03*
D40*
X354386700Y-178720500D03*
X232368200Y-147114000D03*
X178719700Y-177800500D03*
X170459700Y-148910500D03*
X109468200Y-147119000D03*
X110398200Y-178719000D03*
X292468200Y-145314000D03*
X424488950Y-146199750D03*
X302528200Y-177804000D03*
X293368200Y-148914000D03*
X110368200Y-146219000D03*
X294298200Y-176014000D03*
X233298200Y-179614000D03*
D49*
X121975700Y-221929000D03*
X121975700Y-220029000D03*
X120100700Y-220979000D03*
D40*
X354386700Y-177820500D03*
X294268200Y-144414000D03*
X422718950Y-177799750D03*
X354356700Y-144420500D03*
X241498200Y-148004000D03*
X179589700Y-148900500D03*
X178689700Y-148900500D03*
X415388950Y-179609750D03*
X232368200Y-145314000D03*
X354386700Y-176920500D03*
X302498200Y-148004000D03*
X293368200Y-147114000D03*
X178719700Y-178700500D03*
X422688950Y-147999750D03*
X294268200Y-148014000D03*
X363486700Y-145310500D03*
X170489700Y-176010500D03*
X354356700Y-147120500D03*
D45*
X179598200Y-146654000D03*
D46*
X179598200Y-150427500D03*
X171368200Y-150427500D03*
D45*
X171368200Y-146654000D03*
D40*
X302498200Y-148904000D03*
X362616700Y-180510500D03*
X178719700Y-180500500D03*
X231498200Y-177814000D03*
X355286700Y-178720500D03*
X179619700Y-176900500D03*
X292468200Y-148014000D03*
X300728200Y-177804000D03*
X301628200Y-176004000D03*
X241498200Y-148904000D03*
X171389700Y-178710500D03*
X231498200Y-179614000D03*
X231468200Y-148914000D03*
X355256700Y-147120500D03*
X232368200Y-146214000D03*
X171389700Y-179610500D03*
X422718950Y-178699750D03*
X415388950Y-180509750D03*
X232398200Y-180514000D03*
X294298200Y-180514000D03*
X118598200Y-146209000D03*
X302528200Y-176004000D03*
X110398200Y-176019000D03*
X110368200Y-145319000D03*
X423618950Y-179599750D03*
X414488950Y-176909750D03*
X240628200Y-178704000D03*
X423618950Y-180499750D03*
X171359700Y-148910500D03*
X300728200Y-176004000D03*
D50*
X241138200Y-213360000D03*
D51*
X238598200Y-213360000D03*
X241138200Y-210820000D03*
X238598200Y-210820000D03*
X241138200Y-208280000D03*
X238598200Y-208280000D03*
X241138200Y-205740000D03*
X238598200Y-205740000D03*
X241138200Y-203200000D03*
X238598200Y-203200000D03*
D40*
X414488950Y-176009750D03*
X422718950Y-175999750D03*
X240628200Y-176904000D03*
X119498200Y-145309000D03*
X178689700Y-144400500D03*
X111298200Y-178719000D03*
X293398200Y-176914000D03*
X239698200Y-148904000D03*
X294298200Y-177814000D03*
X180519700Y-179600500D03*
X355286700Y-176920500D03*
X180519700Y-176900500D03*
X117728200Y-176009000D03*
D29*
X123580700Y-113639000D03*
X123580700Y-115539000D03*
X125455700Y-114589000D03*
D40*
X241498200Y-147104000D03*
X294298200Y-176914000D03*
X170489700Y-177810500D03*
X300728200Y-179604000D03*
X414488950Y-178709750D03*
X422688950Y-148899750D03*
X239728200Y-176004000D03*
X172289700Y-180510500D03*
X302498200Y-146204000D03*
X239698200Y-147104000D03*
X302498200Y-147104000D03*
X423588950Y-147099750D03*
X354356700Y-148920500D03*
D26*
X356023200Y-167304000D03*
X356023200Y-168574000D03*
X356023200Y-169844000D03*
X356023200Y-171114000D03*
X360973200Y-171114000D03*
X360973200Y-169844000D03*
X360973200Y-168574000D03*
X360973200Y-167304000D03*
D41*
X337498200Y-137749000D03*
X337498200Y-132669000D03*
D40*
X294268200Y-146214000D03*
X293368200Y-146214000D03*
X363516700Y-180510500D03*
X422688950Y-144399750D03*
X301628200Y-177804000D03*
X361716700Y-179610500D03*
X239698200Y-145304000D03*
X292468200Y-146214000D03*
X239698200Y-148004000D03*
X361716700Y-178710500D03*
X233268200Y-147114000D03*
X172289700Y-177810500D03*
X233298200Y-176014000D03*
X424488950Y-147999750D03*
X171389700Y-176010500D03*
X422718950Y-176899750D03*
X110398200Y-176919000D03*
D45*
X118598200Y-146654000D03*
D46*
X118598200Y-150427500D03*
X110368200Y-150427500D03*
D45*
X110368200Y-146654000D03*
D40*
X118628200Y-178709000D03*
X172289700Y-178710500D03*
X361716700Y-180510500D03*
X302498200Y-144404000D03*
X233298200Y-177814000D03*
X300728200Y-180504000D03*
X424488950Y-147099750D03*
X302528200Y-176904000D03*
X423588950Y-148899750D03*
X180489700Y-146200500D03*
X293398200Y-178714000D03*
X180519700Y-180500500D03*
X300698200Y-144404000D03*
X292468200Y-147114000D03*
X172259700Y-148910500D03*
X293398200Y-180514000D03*
X239728200Y-176904000D03*
X355286700Y-179620500D03*
X300698200Y-148904000D03*
X171389700Y-177810500D03*
X416288950Y-177809750D03*
X111298200Y-180519000D03*
X119528200Y-178709000D03*
X424518950Y-175999750D03*
X170489700Y-176910500D03*
X180489700Y-144400500D03*
X424518950Y-179599750D03*
X118598200Y-144409000D03*
X111268200Y-144419000D03*
X232398200Y-176914000D03*
D31*
X153748200Y-315421500D03*
X153748200Y-312496500D03*
D40*
X110368200Y-148019000D03*
X233268200Y-144414000D03*
X354356700Y-148020500D03*
X301598200Y-147104000D03*
D41*
X337498200Y-150999000D03*
X337498200Y-145919000D03*
D40*
X353456700Y-145320500D03*
X170459700Y-148010500D03*
X110368200Y-147119000D03*
X118598200Y-147109000D03*
X293398200Y-179614000D03*
X172259700Y-144410500D03*
X172289700Y-176910500D03*
X302528200Y-180504000D03*
X119498200Y-144409000D03*
X361686700Y-147110500D03*
X231498200Y-176014000D03*
X111268200Y-147119000D03*
X354386700Y-176020500D03*
X353456700Y-148020500D03*
X240598200Y-147104000D03*
X178719700Y-179600500D03*
X119528200Y-176909000D03*
X111268200Y-145319000D03*
X300698200Y-146204000D03*
X362616700Y-179610500D03*
X241498200Y-146204000D03*
X416288950Y-176909750D03*
X292498200Y-180514000D03*
X361716700Y-176910500D03*
X300728200Y-176904000D03*
X354386700Y-179620500D03*
X363516700Y-176910500D03*
X111298200Y-176919000D03*
X416258950Y-148009750D03*
X180519700Y-178700500D03*
X118598200Y-148009000D03*
D41*
X398998200Y-150999000D03*
X398998200Y-145919000D03*
D40*
X301598200Y-148904000D03*
X180519700Y-176000500D03*
X239698200Y-144404000D03*
X353486700Y-177820500D03*
X362586700Y-148010500D03*
X233298200Y-176914000D03*
X119528200Y-179609000D03*
X362616700Y-176910500D03*
X118628200Y-179609000D03*
D42*
X415398200Y-178264000D03*
D43*
X415398200Y-174490500D03*
X423628200Y-174490500D03*
D42*
X423628200Y-178264000D03*
D40*
X361716700Y-177810500D03*
X172259700Y-148010500D03*
X233268200Y-148914000D03*
X241528200Y-179604000D03*
X363486700Y-144410500D03*
X117698200Y-145309000D03*
X171389700Y-176910500D03*
X301628200Y-178704000D03*
X118598200Y-148909000D03*
D23*
X414798200Y-312234000D03*
X418798200Y-312234000D03*
D41*
X398998200Y-137749000D03*
X398998200Y-132669000D03*
D40*
X415388950Y-177809750D03*
X239728200Y-178704000D03*
X415388950Y-178709750D03*
X172259700Y-146210500D03*
X179589700Y-146200500D03*
X180489700Y-147100500D03*
X354386700Y-180520500D03*
X353456700Y-148920500D03*
X363486700Y-148010500D03*
X178689700Y-145300500D03*
X117698200Y-148909000D03*
X423618950Y-176899750D03*
X178689700Y-147100500D03*
X414458950Y-145309750D03*
X179589700Y-145300500D03*
X171359700Y-146210500D03*
X178719700Y-176900500D03*
X302528200Y-179604000D03*
X170489700Y-179610500D03*
X353486700Y-179620500D03*
D41*
X276498200Y-137749000D03*
X276498200Y-132669000D03*
D40*
X415358950Y-147109750D03*
X423618950Y-175999750D03*
X241498200Y-144404000D03*
X110398200Y-179619000D03*
X180489700Y-148000500D03*
X109468200Y-148019000D03*
X109468200Y-145319000D03*
X300698200Y-147104000D03*
X363516700Y-176010500D03*
X179619700Y-177800500D03*
D32*
X450623200Y-273209000D03*
X447698200Y-273209000D03*
D40*
X179619700Y-178700500D03*
D41*
X155498200Y-132669000D03*
X155498200Y-137749000D03*
D40*
X232398200Y-178714000D03*
X414458950Y-144409750D03*
X415358950Y-146209750D03*
X233268200Y-148014000D03*
X172259700Y-145310500D03*
X110368200Y-144419000D03*
X118628200Y-176909000D03*
X117698200Y-144409000D03*
X294298200Y-178714000D03*
X109468200Y-144419000D03*
X362616700Y-177810500D03*
X172289700Y-176010500D03*
X355256700Y-144420500D03*
D50*
X86098200Y-310219000D03*
D51*
X83558200Y-310219000D03*
X86098200Y-307679000D03*
X83558200Y-307679000D03*
X86098200Y-305139000D03*
X83558200Y-305139000D03*
X86098200Y-302599000D03*
X83558200Y-302599000D03*
X86098200Y-300059000D03*
X83558200Y-300059000D03*
D40*
X415358950Y-144409750D03*
X118598200Y-145309000D03*
X415358950Y-148009750D03*
X414488950Y-180509750D03*
X119498200Y-146209000D03*
X362616700Y-178710500D03*
D28*
X152898200Y-184576500D03*
X154798200Y-184576500D03*
X153848200Y-182701500D03*
D32*
X450623200Y-268009000D03*
X447698200Y-268009000D03*
D40*
X179589700Y-144400500D03*
X241528200Y-176904000D03*
D41*
X276498200Y-150999000D03*
X276498200Y-145919000D03*
D40*
X119528200Y-180509000D03*
X172259700Y-147110500D03*
X111298200Y-179619000D03*
X362586700Y-146210500D03*
X111268200Y-148919000D03*
X240598200Y-144404000D03*
X361686700Y-144410500D03*
D52*
X119088200Y-254007500D03*
X119088200Y-256547500D03*
X119088200Y-259087500D03*
X119088200Y-261627500D03*
X119088200Y-264167500D03*
X119088200Y-266707500D03*
X119088200Y-269247500D03*
X119088200Y-271787500D03*
X119088200Y-274327500D03*
X119088200Y-276867500D03*
X119088200Y-279407500D03*
X119088200Y-281947500D03*
X127698200Y-281947500D03*
X127698200Y-279407500D03*
X127698200Y-276867500D03*
X127698200Y-274327500D03*
X127698200Y-271787500D03*
X127698200Y-269247500D03*
X127698200Y-266707500D03*
X127698200Y-264167500D03*
X127698200Y-261627500D03*
X127698200Y-259087500D03*
X127698200Y-256547500D03*
X127698200Y-254007500D03*
D40*
X361716700Y-176010500D03*
X294268200Y-145314000D03*
X416258950Y-146209750D03*
X422688950Y-147099750D03*
X353486700Y-180520500D03*
X233298200Y-180514000D03*
X111268200Y-146219000D03*
X423618950Y-177799750D03*
X232398200Y-179614000D03*
D45*
X362598200Y-146654000D03*
D46*
X362598200Y-150427500D03*
X354368200Y-150427500D03*
D45*
X354368200Y-146654000D03*
D40*
X353486700Y-176020500D03*
D50*
X220138200Y-213360000D03*
D51*
X217598200Y-213360000D03*
X220138200Y-210820000D03*
X217598200Y-210820000D03*
X220138200Y-208280000D03*
X217598200Y-208280000D03*
X220138200Y-205740000D03*
X217598200Y-205740000D03*
X220138200Y-203200000D03*
X217598200Y-203200000D03*
D41*
X215498200Y-137749000D03*
X215498200Y-132669000D03*
D40*
X110368200Y-148919000D03*
D50*
X412850000Y-220154000D03*
D51*
X410310000Y-220154000D03*
X412850000Y-217614000D03*
X410310000Y-217614000D03*
X412850000Y-215074000D03*
X410310000Y-215074000D03*
X412850000Y-212534000D03*
X410310000Y-212534000D03*
X412850000Y-209994000D03*
X410310000Y-209994000D03*
D40*
X179619700Y-176000500D03*
D23*
X292723200Y-312284000D03*
X296723200Y-312284000D03*
D40*
X301628200Y-176904000D03*
X241498200Y-145304000D03*
X231468200Y-144414000D03*
X241528200Y-177804000D03*
X302528200Y-178704000D03*
X179619700Y-179600500D03*
X416258950Y-147109750D03*
X231468200Y-148014000D03*
X109468200Y-146219000D03*
X231468200Y-147114000D03*
X231468200Y-146214000D03*
X416258950Y-148909750D03*
X117698200Y-147109000D03*
X233268200Y-145314000D03*
D31*
X444798200Y-270734000D03*
X444798200Y-267809000D03*
D40*
X179589700Y-147100500D03*
X239728200Y-179604000D03*
D22*
X98273200Y-322434000D03*
X94273200Y-322434000D03*
D40*
X293368200Y-145314000D03*
X111268200Y-148019000D03*
X294298200Y-179614000D03*
X362586700Y-145310500D03*
X293398200Y-176014000D03*
X231498200Y-180514000D03*
X424518950Y-176899750D03*
X240598200Y-146204000D03*
X170489700Y-180510500D03*
X292498200Y-179614000D03*
X353456700Y-144420500D03*
X361686700Y-145310500D03*
X355256700Y-146220500D03*
X179619700Y-180500500D03*
X240628200Y-179604000D03*
X171359700Y-145310500D03*
X424518950Y-178699750D03*
X422688950Y-146199750D03*
X416258950Y-145309750D03*
X119498200Y-147109000D03*
X422718950Y-180499750D03*
X361686700Y-148010500D03*
X111298200Y-176019000D03*
X240628200Y-177804000D03*
D45*
X240598200Y-146654000D03*
D46*
X240598200Y-150427500D03*
X232368200Y-150427500D03*
D45*
X232368200Y-146654000D03*
D40*
X117728200Y-179609000D03*
X301598200Y-144404000D03*
X414488950Y-179609750D03*
X231498200Y-176914000D03*
X119528200Y-176009000D03*
X293368200Y-148014000D03*
X239728200Y-177804000D03*
D41*
X155498200Y-145919000D03*
X155498200Y-150999000D03*
D40*
X109498200Y-176019000D03*
X416258950Y-144409750D03*
X294268200Y-148914000D03*
X178719700Y-176000500D03*
D42*
X110398200Y-178264000D03*
D43*
X110398200Y-174490500D03*
X118628200Y-174490500D03*
D42*
X118628200Y-178264000D03*
D40*
X301628200Y-180504000D03*
X119498200Y-148909000D03*
X415358950Y-148909750D03*
X353456700Y-146220500D03*
X300698200Y-148004000D03*
X300728200Y-178704000D03*
X170459700Y-144410500D03*
X362586700Y-147110500D03*
X355256700Y-148920500D03*
X110398200Y-180519000D03*
D53*
X238598200Y-237490000D03*
D51*
X241138200Y-237490000D03*
X238598200Y-240030000D03*
X241138200Y-240030000D03*
X238598200Y-242570000D03*
X241138200Y-242570000D03*
X238598200Y-245110000D03*
X241138200Y-245110000D03*
X238598200Y-247650000D03*
X241138200Y-247650000D03*
X238598200Y-250190000D03*
X241138200Y-250190000D03*
X238598200Y-252730000D03*
X241138200Y-252730000D03*
X238598200Y-255270000D03*
X241138200Y-255270000D03*
X238598200Y-257810000D03*
X241138200Y-257810000D03*
X238598200Y-260350000D03*
X241138200Y-260350000D03*
X238598200Y-262890000D03*
X241138200Y-262890000D03*
X238598200Y-265430000D03*
X241138200Y-265430000D03*
X238598200Y-267970000D03*
X241138200Y-267970000D03*
X238598200Y-270510000D03*
X241138200Y-270510000D03*
X238598200Y-273050000D03*
X241138200Y-273050000D03*
X238598200Y-275590000D03*
X241138200Y-275590000D03*
X238598200Y-278130000D03*
X241138200Y-278130000D03*
X238598200Y-280670000D03*
X241138200Y-280670000D03*
X238598200Y-283210000D03*
X241138200Y-283210000D03*
X238598200Y-285750000D03*
X241138200Y-285750000D03*
X238598200Y-288290000D03*
X241138200Y-288290000D03*
X238598200Y-290830000D03*
X241138200Y-290830000D03*
X238598200Y-293370000D03*
X241138200Y-293370000D03*
X238598200Y-295910000D03*
X241138200Y-295910000D03*
X238598200Y-298450000D03*
X241138200Y-298450000D03*
D40*
X171359700Y-148010500D03*
X302498200Y-145304000D03*
X232398200Y-176014000D03*
X422688950Y-145299750D03*
X361686700Y-146210500D03*
X423588950Y-144399750D03*
D23*
X353973200Y-312284000D03*
X357973200Y-312284000D03*
D40*
X171359700Y-144410500D03*
X172289700Y-179610500D03*
X170459700Y-147110500D03*
X180489700Y-145300500D03*
X301598200Y-145304000D03*
X118628200Y-176009000D03*
X231468200Y-145314000D03*
X233298200Y-178714000D03*
X292498200Y-176914000D03*
X239698200Y-146204000D03*
X178689700Y-148000500D03*
D42*
X354398200Y-178264000D03*
D43*
X354398200Y-174490500D03*
X362628200Y-174490500D03*
D42*
X362628200Y-178264000D03*
D40*
X180489700Y-148900500D03*
X232398200Y-177814000D03*
X424488950Y-148899750D03*
X362586700Y-144410500D03*
X355286700Y-177820500D03*
X292498200Y-176014000D03*
X117698200Y-148009000D03*
X240598200Y-148004000D03*
X170459700Y-146210500D03*
X363486700Y-146210500D03*
X301628200Y-179604000D03*
X416288950Y-180509750D03*
X292468200Y-148914000D03*
X353456700Y-147120500D03*
X424488950Y-144399750D03*
X423588950Y-146199750D03*
X301598200Y-148004000D03*
X361686700Y-148910500D03*
D45*
X423598200Y-146654000D03*
D46*
X423598200Y-150427500D03*
X415368200Y-150427500D03*
D45*
X415368200Y-146654000D03*
D40*
X117728200Y-178709000D03*
X117728200Y-177809000D03*
X353486700Y-176920500D03*
X363516700Y-178710500D03*
X171389700Y-180510500D03*
X109498200Y-177819000D03*
X362616700Y-176010500D03*
X301598200Y-146204000D03*
X109498200Y-179619000D03*
X232368200Y-148014000D03*
X415358950Y-145309750D03*
X355286700Y-176020500D03*
X180519700Y-177800500D03*
X117728200Y-176909000D03*
X423588950Y-145299750D03*
D26*
X173023200Y-167304000D03*
X173023200Y-168574000D03*
X173023200Y-169844000D03*
X173023200Y-171114000D03*
X177973200Y-171114000D03*
X177973200Y-169844000D03*
X177973200Y-168574000D03*
X177973200Y-167304000D03*
D40*
X416288950Y-179609750D03*
X240598200Y-145304000D03*
X422718950Y-179599750D03*
X415388950Y-176909750D03*
X363516700Y-179610500D03*
X415388950Y-176009750D03*
X109498200Y-176919000D03*
M02*
