G04 #@! TF.FileFunction,Soldermask,Top*
%FSLAX46Y46*%
G04 Gerber Fmt 4.6, Leading zero omitted, Abs format (unit mm)*
G04 Created by KiCad (PCBNEW 4.0.2-stable) date 10/20/2016 9:17:17 AM*
%MOMM*%
G01*
G04 APERTURE LIST*
%ADD10C,0.100000*%
%ADD11C,6.597600*%
%ADD12C,4.300000*%
%ADD13C,2.900000*%
%ADD14R,2.127200X2.127200*%
%ADD15O,2.127200X2.127200*%
%ADD16C,1.670000*%
%ADD17C,1.040000*%
%ADD18C,3.400000*%
%ADD19R,1.950000X0.650000*%
%ADD20R,2.000000X1.400000*%
%ADD21R,1.400000X2.000000*%
%ADD22R,1.100000X1.000000*%
%ADD23R,3.060000X1.200000*%
%ADD24R,2.840000X1.530000*%
%ADD25R,2.432000X2.127200*%
%ADD26O,2.432000X2.127200*%
%ADD27R,1.200100X1.200100*%
%ADD28R,1.300000X2.100000*%
%ADD29R,2.100000X1.300000*%
%ADD30C,1.700000*%
%ADD31C,3.397200*%
%ADD32C,3.100000*%
%ADD33R,1.850000X0.850000*%
%ADD34R,1.950000X1.000000*%
%ADD35C,2.400000*%
%ADD36C,2.250000*%
%ADD37C,5.400000*%
%ADD38C,4.900000*%
%ADD39C,2.300000*%
%ADD40C,3.500000*%
%ADD41R,0.800000X0.870000*%
%ADD42R,1.400000X1.450000*%
%ADD43R,0.800000X1.060000*%
%ADD44R,1.620000X1.310000*%
G04 APERTURE END LIST*
D10*
D11*
X457403200Y-252095000D03*
X339293200Y-257302000D03*
X202133200Y-258572000D03*
X100025200Y-258699000D03*
X319410000Y-229870000D03*
X393040000Y-229870000D03*
X393040000Y-301600000D03*
X319410000Y-301600000D03*
X245770000Y-301600000D03*
X245770000Y-229870000D03*
X184150000Y-300990000D03*
X184150000Y-234950000D03*
D12*
X358546400Y-114757200D03*
X358546400Y-131648200D03*
X350139000Y-123190000D03*
X368046000Y-123190000D03*
X358140000Y-123190000D03*
D13*
X352044000Y-116687600D03*
X366039400Y-129692400D03*
D14*
X231140000Y-237490000D03*
D15*
X233680000Y-237490000D03*
X231140000Y-240030000D03*
X233680000Y-240030000D03*
X231140000Y-242570000D03*
X233680000Y-242570000D03*
X231140000Y-245110000D03*
X233680000Y-245110000D03*
X231140000Y-247650000D03*
X233680000Y-247650000D03*
X231140000Y-250190000D03*
X233680000Y-250190000D03*
X231140000Y-252730000D03*
X233680000Y-252730000D03*
X231140000Y-255270000D03*
X233680000Y-255270000D03*
X231140000Y-257810000D03*
X233680000Y-257810000D03*
X231140000Y-260350000D03*
X233680000Y-260350000D03*
X231140000Y-262890000D03*
X233680000Y-262890000D03*
X231140000Y-265430000D03*
X233680000Y-265430000D03*
X231140000Y-267970000D03*
X233680000Y-267970000D03*
X231140000Y-270510000D03*
X233680000Y-270510000D03*
X231140000Y-273050000D03*
X233680000Y-273050000D03*
X231140000Y-275590000D03*
X233680000Y-275590000D03*
X231140000Y-278130000D03*
X233680000Y-278130000D03*
X231140000Y-280670000D03*
X233680000Y-280670000D03*
X231140000Y-283210000D03*
X233680000Y-283210000D03*
X231140000Y-285750000D03*
X233680000Y-285750000D03*
X231140000Y-288290000D03*
X233680000Y-288290000D03*
X231140000Y-290830000D03*
X233680000Y-290830000D03*
X231140000Y-293370000D03*
X233680000Y-293370000D03*
X231140000Y-295910000D03*
X233680000Y-295910000D03*
X231140000Y-298450000D03*
X233680000Y-298450000D03*
D16*
X255410000Y-299950000D03*
D17*
X257835000Y-303125000D03*
X257835000Y-301855000D03*
X257835000Y-300585000D03*
X257835000Y-299315000D03*
X257835000Y-298045000D03*
X257835000Y-296775000D03*
X259105000Y-303125000D03*
X259105000Y-301855000D03*
X259105000Y-300585000D03*
X259105000Y-299315000D03*
X259105000Y-298045000D03*
X259105000Y-296775000D03*
X260375000Y-303125000D03*
X260375000Y-301855000D03*
X260375000Y-300585000D03*
X260375000Y-299315000D03*
X260375000Y-298045000D03*
X260375000Y-296775000D03*
X261645000Y-303125000D03*
X261645000Y-301855000D03*
X261645000Y-300585000D03*
X261645000Y-299315000D03*
X261645000Y-298045000D03*
X261645000Y-296775000D03*
X262915000Y-303125000D03*
X262915000Y-301855000D03*
X262915000Y-300585000D03*
X262915000Y-299315000D03*
X262915000Y-298045000D03*
X262915000Y-296775000D03*
X264185000Y-303125000D03*
X264185000Y-301855000D03*
X264185000Y-300585000D03*
X264185000Y-299315000D03*
X264185000Y-298045000D03*
X264185000Y-296775000D03*
X265455000Y-303125000D03*
X265455000Y-301855000D03*
X265455000Y-300585000D03*
X265455000Y-299315000D03*
X265455000Y-298045000D03*
X265455000Y-296775000D03*
X266725000Y-303125000D03*
X266725000Y-301855000D03*
X266725000Y-300585000D03*
X266725000Y-299315000D03*
X266725000Y-298045000D03*
X266725000Y-296775000D03*
X267995000Y-303125000D03*
X267995000Y-301855000D03*
X267995000Y-300585000D03*
X267995000Y-299315000D03*
X267995000Y-298045000D03*
X267995000Y-296775000D03*
X269265000Y-303125000D03*
X269265000Y-301855000D03*
X269265000Y-300585000D03*
X269265000Y-299315000D03*
X269265000Y-298045000D03*
X269265000Y-296775000D03*
X270535000Y-303125000D03*
X270535000Y-301855000D03*
X270535000Y-300585000D03*
X270535000Y-299315000D03*
X270535000Y-298045000D03*
X270535000Y-296775000D03*
X271805000Y-303125000D03*
X271805000Y-301855000D03*
X271805000Y-300585000D03*
X271805000Y-299315000D03*
X271805000Y-298045000D03*
X271805000Y-296775000D03*
X273075000Y-303125000D03*
X273075000Y-301855000D03*
X273075000Y-300585000D03*
X273075000Y-299315000D03*
X273075000Y-298045000D03*
X273075000Y-296775000D03*
X274345000Y-303125000D03*
X274345000Y-301855000D03*
X274345000Y-300585000D03*
X274345000Y-299315000D03*
X274345000Y-298045000D03*
X274345000Y-296775000D03*
X275615000Y-303125000D03*
X275615000Y-301855000D03*
X275615000Y-300585000D03*
X275615000Y-299315000D03*
X275615000Y-298045000D03*
X275615000Y-296775000D03*
X276885000Y-303125000D03*
X276885000Y-301855000D03*
X276885000Y-300585000D03*
X276885000Y-299315000D03*
X276885000Y-298045000D03*
X276885000Y-296775000D03*
X278155000Y-303125000D03*
X278155000Y-301855000D03*
X278155000Y-300585000D03*
X278155000Y-299315000D03*
X278155000Y-298045000D03*
X278155000Y-296775000D03*
X279425000Y-303125000D03*
X279425000Y-301855000D03*
X279425000Y-300585000D03*
X279425000Y-299315000D03*
X279425000Y-298045000D03*
X279425000Y-296775000D03*
X280695000Y-303125000D03*
X280695000Y-301855000D03*
X280695000Y-300585000D03*
X280695000Y-299315000D03*
X280695000Y-298045000D03*
X280695000Y-296775000D03*
X281965000Y-303125000D03*
X281965000Y-301855000D03*
X281965000Y-300585000D03*
X281965000Y-299315000D03*
X281965000Y-298045000D03*
X281965000Y-296775000D03*
X283235000Y-303125000D03*
X283235000Y-301855000D03*
X283235000Y-300585000D03*
X283235000Y-299315000D03*
X283235000Y-298045000D03*
X283235000Y-296775000D03*
X284505000Y-303125000D03*
X284505000Y-301855000D03*
X284505000Y-300585000D03*
X284505000Y-299315000D03*
X284505000Y-298045000D03*
X284505000Y-296775000D03*
X285775000Y-303125000D03*
X285775000Y-301855000D03*
X285775000Y-300585000D03*
X285775000Y-299315000D03*
X285775000Y-298045000D03*
X285775000Y-296775000D03*
X287045000Y-303125000D03*
X287045000Y-301855000D03*
X287045000Y-300585000D03*
X287045000Y-299315000D03*
X287045000Y-298045000D03*
X287045000Y-296775000D03*
X288315000Y-303125000D03*
X288315000Y-301855000D03*
X288315000Y-300585000D03*
X288315000Y-299315000D03*
X288315000Y-298045000D03*
X288315000Y-296775000D03*
X289585000Y-303125000D03*
X289585000Y-301855000D03*
X289585000Y-300585000D03*
X289585000Y-299315000D03*
X289585000Y-298045000D03*
X289585000Y-296775000D03*
X290855000Y-303125000D03*
X290855000Y-301855000D03*
X290855000Y-300585000D03*
X290855000Y-299315000D03*
X290855000Y-298045000D03*
X290855000Y-296775000D03*
X292125000Y-303125000D03*
X292125000Y-301855000D03*
X292125000Y-300585000D03*
X292125000Y-299315000D03*
X292125000Y-298045000D03*
X292125000Y-296775000D03*
X293395000Y-303125000D03*
X293395000Y-301855000D03*
X293395000Y-300585000D03*
X293395000Y-299315000D03*
X293395000Y-298045000D03*
X293395000Y-296775000D03*
X294665000Y-303125000D03*
X294665000Y-301855000D03*
X294665000Y-300585000D03*
X294665000Y-299315000D03*
X294665000Y-298045000D03*
X294665000Y-296775000D03*
X295935000Y-303125000D03*
X295935000Y-301855000D03*
X295935000Y-300585000D03*
X295935000Y-299315000D03*
X295935000Y-298045000D03*
X295935000Y-296775000D03*
X297205000Y-303125000D03*
X297205000Y-301855000D03*
X297205000Y-300585000D03*
X297205000Y-299315000D03*
X297205000Y-298045000D03*
X297205000Y-296775000D03*
X298475000Y-303125000D03*
X298475000Y-301855000D03*
X298475000Y-300585000D03*
X298475000Y-299315000D03*
X298475000Y-298045000D03*
X298475000Y-296775000D03*
X299745000Y-303125000D03*
X299745000Y-301855000D03*
X299745000Y-300585000D03*
X299745000Y-299315000D03*
X299745000Y-298045000D03*
X299745000Y-296775000D03*
X301015000Y-303125000D03*
X301015000Y-301855000D03*
X301015000Y-300585000D03*
X301015000Y-299315000D03*
X301015000Y-298045000D03*
X301015000Y-296775000D03*
X302285000Y-303125000D03*
X302285000Y-301855000D03*
X302285000Y-300585000D03*
X302285000Y-299315000D03*
X302285000Y-298045000D03*
X302285000Y-296775000D03*
X303555000Y-303125000D03*
X303555000Y-301855000D03*
X303555000Y-300585000D03*
X303555000Y-299315000D03*
X303555000Y-298045000D03*
X303555000Y-296775000D03*
X304825000Y-303125000D03*
X304825000Y-301855000D03*
X304825000Y-300585000D03*
X304825000Y-299315000D03*
X304825000Y-298045000D03*
X304825000Y-296775000D03*
X306095000Y-303125000D03*
X306095000Y-301855000D03*
X306095000Y-300585000D03*
X306095000Y-299315000D03*
X306095000Y-298045000D03*
X306095000Y-296775000D03*
X307365000Y-303125000D03*
X307365000Y-301855000D03*
X307365000Y-300585000D03*
X307365000Y-299315000D03*
X307365000Y-298045000D03*
X307365000Y-296775000D03*
D16*
X309790000Y-296900000D03*
D18*
X123825000Y-205105000D03*
X116205000Y-205105000D03*
X116205000Y-205105000D03*
X142795000Y-205105000D03*
X150415000Y-205105000D03*
D19*
X419360000Y-199625000D03*
X413760000Y-199625000D03*
X419360000Y-200275000D03*
X413760000Y-200275000D03*
X419360000Y-200925000D03*
X413760000Y-200925000D03*
X419360000Y-201575000D03*
X413760000Y-201575000D03*
X419360000Y-202225000D03*
X413760000Y-202225000D03*
X419360000Y-202875000D03*
X413760000Y-202875000D03*
X419360000Y-203525000D03*
X413760000Y-203525000D03*
X419360000Y-204175000D03*
X413760000Y-204175000D03*
X419360000Y-204825000D03*
X413760000Y-204825000D03*
X419360000Y-205475000D03*
X413760000Y-205475000D03*
X419360000Y-206125000D03*
X413760000Y-206125000D03*
X419360000Y-206775000D03*
X413760000Y-206775000D03*
X419360000Y-223120000D03*
X413760000Y-223120000D03*
X419360000Y-223770000D03*
X413760000Y-223770000D03*
X419360000Y-224420000D03*
X413760000Y-224420000D03*
X419360000Y-225070000D03*
X413760000Y-225070000D03*
X419360000Y-225720000D03*
X413760000Y-225720000D03*
X419360000Y-226370000D03*
X413760000Y-226370000D03*
X419360000Y-227020000D03*
X413760000Y-227020000D03*
X419360000Y-227670000D03*
X413760000Y-227670000D03*
X419360000Y-228320000D03*
X413760000Y-228320000D03*
X419360000Y-228970000D03*
X413760000Y-228970000D03*
X419360000Y-229620000D03*
X413760000Y-229620000D03*
X419360000Y-230270000D03*
X413760000Y-230270000D03*
X419360000Y-247250000D03*
X413760000Y-247250000D03*
X419360000Y-247900000D03*
X413760000Y-247900000D03*
X419360000Y-248550000D03*
X413760000Y-248550000D03*
X419360000Y-249200000D03*
X413760000Y-249200000D03*
X419360000Y-249850000D03*
X413760000Y-249850000D03*
X419360000Y-250500000D03*
X413760000Y-250500000D03*
X419360000Y-251150000D03*
X413760000Y-251150000D03*
X419360000Y-251800000D03*
X413760000Y-251800000D03*
X419360000Y-252450000D03*
X413760000Y-252450000D03*
X419360000Y-253100000D03*
X413760000Y-253100000D03*
X419360000Y-253750000D03*
X413760000Y-253750000D03*
X419360000Y-254400000D03*
X413760000Y-254400000D03*
X419360000Y-271380000D03*
X413760000Y-271380000D03*
X419360000Y-272030000D03*
X413760000Y-272030000D03*
X419360000Y-272680000D03*
X413760000Y-272680000D03*
X419360000Y-273330000D03*
X413760000Y-273330000D03*
X419360000Y-273980000D03*
X413760000Y-273980000D03*
X419360000Y-274630000D03*
X413760000Y-274630000D03*
X419360000Y-275280000D03*
X413760000Y-275280000D03*
X419360000Y-275930000D03*
X413760000Y-275930000D03*
X419360000Y-276580000D03*
X413760000Y-276580000D03*
X419360000Y-277230000D03*
X413760000Y-277230000D03*
X419360000Y-277880000D03*
X413760000Y-277880000D03*
X419360000Y-278530000D03*
X413760000Y-278530000D03*
D20*
X417830000Y-210590000D03*
X417830000Y-213590000D03*
X415290000Y-210590000D03*
X415290000Y-213590000D03*
D21*
X418060000Y-217170000D03*
X415060000Y-217170000D03*
D20*
X417830000Y-258215000D03*
X417830000Y-261215000D03*
X415290000Y-258215000D03*
X415290000Y-261215000D03*
D21*
X418060000Y-264795000D03*
X415060000Y-264795000D03*
D20*
X417830000Y-234085000D03*
X417830000Y-237085000D03*
X415290000Y-234085000D03*
X415290000Y-237085000D03*
D21*
X418060000Y-240665000D03*
X415060000Y-240665000D03*
D20*
X417830000Y-282345000D03*
X417830000Y-285345000D03*
X415290000Y-282345000D03*
X415290000Y-285345000D03*
D21*
X418060000Y-288925000D03*
X415060000Y-288925000D03*
D20*
X106680000Y-172950000D03*
X106680000Y-169950000D03*
X123190000Y-289155000D03*
X123190000Y-286155000D03*
X106756200Y-157377000D03*
X106756200Y-160377000D03*
D21*
X125960000Y-292735000D03*
X122960000Y-292735000D03*
X115340000Y-287020000D03*
X118340000Y-287020000D03*
D20*
X125730000Y-286155000D03*
X125730000Y-289155000D03*
D21*
X115340000Y-284480000D03*
X118340000Y-284480000D03*
D20*
X121920000Y-172950000D03*
X121920000Y-169950000D03*
X121996200Y-157377000D03*
X121996200Y-160377000D03*
X123190000Y-304395000D03*
X123190000Y-301395000D03*
D21*
X125960000Y-307975000D03*
X122960000Y-307975000D03*
X115340000Y-302260000D03*
X118340000Y-302260000D03*
D20*
X125730000Y-301395000D03*
X125730000Y-304395000D03*
D21*
X115340000Y-299720000D03*
X118340000Y-299720000D03*
D20*
X167640000Y-172950000D03*
X167640000Y-169950000D03*
X167640000Y-157250000D03*
X167640000Y-160250000D03*
X182880000Y-172950000D03*
X182880000Y-169950000D03*
X182880000Y-157250000D03*
X182880000Y-160250000D03*
X228600000Y-172950000D03*
X228600000Y-169950000D03*
X228600000Y-157250000D03*
X228600000Y-160250000D03*
X243840000Y-172950000D03*
X243840000Y-169950000D03*
X243840000Y-157250000D03*
X243840000Y-160250000D03*
X289560000Y-172950000D03*
X289560000Y-169950000D03*
X289560000Y-157250000D03*
X289560000Y-160250000D03*
X304800000Y-172950000D03*
X304800000Y-169950000D03*
X304800000Y-157250000D03*
X304800000Y-160250000D03*
X350520000Y-172950000D03*
X350520000Y-169950000D03*
X350520000Y-157250000D03*
X350520000Y-160250000D03*
X365760000Y-172950000D03*
X365760000Y-169950000D03*
X365760000Y-157250000D03*
X365760000Y-160250000D03*
X411480000Y-169950000D03*
X411480000Y-172950000D03*
X411480000Y-157250000D03*
X411480000Y-160250000D03*
X426720000Y-172950000D03*
X426720000Y-169950000D03*
X426720000Y-157250000D03*
X426720000Y-160250000D03*
D14*
X233680000Y-213360000D03*
D15*
X231140000Y-213360000D03*
X233680000Y-210820000D03*
X231140000Y-210820000D03*
X233680000Y-208280000D03*
X231140000Y-208280000D03*
X233680000Y-205740000D03*
X231140000Y-205740000D03*
X233680000Y-203200000D03*
X231140000Y-203200000D03*
D22*
X146050000Y-115505000D03*
X146050000Y-116905000D03*
X118745000Y-224725000D03*
X118745000Y-226125000D03*
X118745000Y-238695000D03*
X118745000Y-240095000D03*
X118745000Y-252665000D03*
X118745000Y-254065000D03*
X207010000Y-115505000D03*
X207010000Y-116905000D03*
X267970000Y-115505000D03*
X267970000Y-116905000D03*
X328930000Y-115505000D03*
X328930000Y-116905000D03*
X389890000Y-115505000D03*
X389890000Y-116905000D03*
X450850000Y-115505000D03*
X450850000Y-116905000D03*
D23*
X115765000Y-220980000D03*
X109025000Y-223520000D03*
X115765000Y-228600000D03*
X109025000Y-228600000D03*
X143070000Y-111760000D03*
X136330000Y-114300000D03*
X143070000Y-119380000D03*
X136330000Y-119380000D03*
X204030000Y-111760000D03*
X197290000Y-114300000D03*
X204030000Y-119380000D03*
X197290000Y-119380000D03*
X264990000Y-111760000D03*
X258250000Y-114300000D03*
X264990000Y-119380000D03*
X258250000Y-119380000D03*
X325950000Y-111760000D03*
X319210000Y-114300000D03*
X325950000Y-119380000D03*
X319210000Y-119380000D03*
X386910000Y-111760000D03*
X380170000Y-114300000D03*
X386910000Y-119380000D03*
X380170000Y-119380000D03*
X447870000Y-111760000D03*
X441130000Y-114300000D03*
X447870000Y-119380000D03*
X441130000Y-119380000D03*
D24*
X434830000Y-231775000D03*
X426230000Y-231775000D03*
X434830000Y-234315000D03*
X426230000Y-234315000D03*
X434830000Y-236855000D03*
X426230000Y-236855000D03*
X434830000Y-239395000D03*
X426230000Y-239395000D03*
X434830000Y-241935000D03*
X426230000Y-241935000D03*
X434830000Y-244475000D03*
X426230000Y-244475000D03*
X434830000Y-253365000D03*
X426230000Y-253365000D03*
X434830000Y-255905000D03*
X426230000Y-255905000D03*
X434830000Y-258445000D03*
X426230000Y-258445000D03*
X434830000Y-260985000D03*
X426230000Y-260985000D03*
X434830000Y-263525000D03*
X426230000Y-263525000D03*
X434830000Y-266065000D03*
X426230000Y-266065000D03*
X434830000Y-275590000D03*
X426230000Y-275590000D03*
X434830000Y-278130000D03*
X426230000Y-278130000D03*
X434830000Y-280670000D03*
X426230000Y-280670000D03*
X434830000Y-283210000D03*
X426230000Y-283210000D03*
X434830000Y-285750000D03*
X426230000Y-285750000D03*
X434830000Y-288290000D03*
X426230000Y-288290000D03*
X136035000Y-244475000D03*
X144635000Y-244475000D03*
X136035000Y-241935000D03*
X144635000Y-241935000D03*
X136035000Y-239395000D03*
X144635000Y-239395000D03*
X136035000Y-236855000D03*
X144635000Y-236855000D03*
X136035000Y-234315000D03*
X144635000Y-234315000D03*
X136035000Y-231775000D03*
X144635000Y-231775000D03*
X136035000Y-266065000D03*
X144635000Y-266065000D03*
X136035000Y-263525000D03*
X144635000Y-263525000D03*
X136035000Y-260985000D03*
X144635000Y-260985000D03*
X136035000Y-258445000D03*
X144635000Y-258445000D03*
X136035000Y-255905000D03*
X144635000Y-255905000D03*
X136035000Y-253365000D03*
X144635000Y-253365000D03*
X136035000Y-287655000D03*
X144635000Y-287655000D03*
X136035000Y-285115000D03*
X144635000Y-285115000D03*
X136035000Y-282575000D03*
X144635000Y-282575000D03*
X136035000Y-280035000D03*
X144635000Y-280035000D03*
X136035000Y-277495000D03*
X144635000Y-277495000D03*
X136035000Y-274955000D03*
X144635000Y-274955000D03*
X158260000Y-244475000D03*
X166860000Y-244475000D03*
X158260000Y-241935000D03*
X166860000Y-241935000D03*
X158260000Y-239395000D03*
X166860000Y-239395000D03*
X158260000Y-236855000D03*
X166860000Y-236855000D03*
X158260000Y-234315000D03*
X166860000Y-234315000D03*
X158260000Y-231775000D03*
X166860000Y-231775000D03*
X158260000Y-266065000D03*
X166860000Y-266065000D03*
X158260000Y-263525000D03*
X166860000Y-263525000D03*
X158260000Y-260985000D03*
X166860000Y-260985000D03*
X158260000Y-258445000D03*
X166860000Y-258445000D03*
X158260000Y-255905000D03*
X166860000Y-255905000D03*
X158260000Y-253365000D03*
X166860000Y-253365000D03*
X158260000Y-287655000D03*
X166860000Y-287655000D03*
X158260000Y-285115000D03*
X166860000Y-285115000D03*
X158260000Y-282575000D03*
X166860000Y-282575000D03*
X158260000Y-280035000D03*
X166860000Y-280035000D03*
X158260000Y-277495000D03*
X166860000Y-277495000D03*
X158260000Y-274955000D03*
X166860000Y-274955000D03*
D18*
X111760000Y-101600000D03*
X104140000Y-101600000D03*
X104140000Y-101600000D03*
X130730000Y-101600000D03*
X138350000Y-101600000D03*
X172720000Y-101600000D03*
X165100000Y-101600000D03*
X165100000Y-101600000D03*
X191690000Y-101600000D03*
X199310000Y-101600000D03*
X233680000Y-101600000D03*
X226060000Y-101600000D03*
X226060000Y-101600000D03*
X252650000Y-101600000D03*
X260270000Y-101600000D03*
X294640000Y-101600000D03*
X287020000Y-101600000D03*
X287020000Y-101600000D03*
X313610000Y-101600000D03*
X321230000Y-101600000D03*
X355600000Y-101600000D03*
X347980000Y-101600000D03*
X347980000Y-101600000D03*
X374570000Y-101600000D03*
X382190000Y-101600000D03*
X416560000Y-101600000D03*
X408940000Y-101600000D03*
X408940000Y-101600000D03*
X435530000Y-101600000D03*
X443150000Y-101600000D03*
D25*
X450850000Y-238760000D03*
D26*
X450850000Y-241300000D03*
X450850000Y-243840000D03*
D25*
X450850000Y-260350000D03*
D26*
X450850000Y-262890000D03*
X450850000Y-265430000D03*
D25*
X450850000Y-283210000D03*
D26*
X450850000Y-285750000D03*
X450850000Y-288290000D03*
D27*
X150860760Y-116520000D03*
X150860760Y-114620000D03*
X148861780Y-115570000D03*
X153400760Y-240345000D03*
X153400760Y-238445000D03*
X151401780Y-239395000D03*
X149590760Y-240345000D03*
X149590760Y-238445000D03*
X147591780Y-239395000D03*
X123555760Y-225740000D03*
X123555760Y-223840000D03*
X121556780Y-224790000D03*
X123555760Y-239710000D03*
X123555760Y-237810000D03*
X121556780Y-238760000D03*
X123555760Y-253680000D03*
X123555760Y-251780000D03*
X121556780Y-252730000D03*
X153400760Y-261935000D03*
X153400760Y-260035000D03*
X151401780Y-260985000D03*
X211820760Y-116520000D03*
X211820760Y-114620000D03*
X209821780Y-115570000D03*
X149590760Y-261935000D03*
X149590760Y-260035000D03*
X147591780Y-260985000D03*
X153400760Y-283525000D03*
X153400760Y-281625000D03*
X151401780Y-282575000D03*
X272780760Y-116520000D03*
X272780760Y-114620000D03*
X270781780Y-115570000D03*
X149590760Y-283525000D03*
X149590760Y-281625000D03*
X147591780Y-282575000D03*
X175625760Y-240345000D03*
X175625760Y-238445000D03*
X173626780Y-239395000D03*
X333740760Y-116520000D03*
X333740760Y-114620000D03*
X331741780Y-115570000D03*
X171815760Y-240345000D03*
X171815760Y-238445000D03*
X169816780Y-239395000D03*
X175625760Y-261935000D03*
X175625760Y-260035000D03*
X173626780Y-260985000D03*
X394700760Y-116520000D03*
X394700760Y-114620000D03*
X392701780Y-115570000D03*
X171815760Y-261935000D03*
X171815760Y-260035000D03*
X169816780Y-260985000D03*
X175625760Y-283525000D03*
X175625760Y-281625000D03*
X173626780Y-282575000D03*
X455660760Y-116520000D03*
X455660760Y-114620000D03*
X453661780Y-115570000D03*
X171815760Y-283525000D03*
X171815760Y-281625000D03*
X169816780Y-282575000D03*
D28*
X125550000Y-116840000D03*
X128450000Y-116840000D03*
X125550000Y-111760000D03*
X128450000Y-111760000D03*
X153490000Y-118110000D03*
X156390000Y-118110000D03*
X153490000Y-113030000D03*
X156390000Y-113030000D03*
D29*
X153035000Y-242390000D03*
X153035000Y-245290000D03*
X150495000Y-242390000D03*
X150495000Y-245290000D03*
D28*
X151945000Y-234315000D03*
X149045000Y-234315000D03*
X126185000Y-222250000D03*
X129085000Y-222250000D03*
X126185000Y-236220000D03*
X129085000Y-236220000D03*
X126185000Y-250190000D03*
X129085000Y-250190000D03*
X126185000Y-227330000D03*
X129085000Y-227330000D03*
X126185000Y-241300000D03*
X129085000Y-241300000D03*
X126185000Y-255270000D03*
X129085000Y-255270000D03*
X107135000Y-290195000D03*
X110035000Y-290195000D03*
X107135000Y-287655000D03*
X110035000Y-287655000D03*
X107135000Y-292735000D03*
X110035000Y-292735000D03*
X95430000Y-101600000D03*
X92530000Y-101600000D03*
X92530000Y-106680000D03*
X95430000Y-106680000D03*
D29*
X240030000Y-208460000D03*
X240030000Y-205560000D03*
D28*
X440870000Y-253365000D03*
X437970000Y-253365000D03*
X440870000Y-255905000D03*
X437970000Y-255905000D03*
X440870000Y-258445000D03*
X437970000Y-258445000D03*
X440870000Y-260985000D03*
X437970000Y-260985000D03*
X440870000Y-263525000D03*
X437970000Y-263525000D03*
X440870000Y-266065000D03*
X437970000Y-266065000D03*
X440870000Y-231775000D03*
X437970000Y-231775000D03*
X440870000Y-234315000D03*
X437970000Y-234315000D03*
X440870000Y-236855000D03*
X437970000Y-236855000D03*
X440870000Y-239395000D03*
X437970000Y-239395000D03*
X440870000Y-241935000D03*
X437970000Y-241935000D03*
X440870000Y-244475000D03*
X437970000Y-244475000D03*
X440870000Y-275590000D03*
X437970000Y-275590000D03*
X440870000Y-278130000D03*
X437970000Y-278130000D03*
X440870000Y-280670000D03*
X437970000Y-280670000D03*
X440870000Y-283210000D03*
X437970000Y-283210000D03*
X440870000Y-285750000D03*
X437970000Y-285750000D03*
X440870000Y-288290000D03*
X437970000Y-288290000D03*
X107135000Y-305435000D03*
X110035000Y-305435000D03*
X107135000Y-302895000D03*
X110035000Y-302895000D03*
X107135000Y-307975000D03*
X110035000Y-307975000D03*
D29*
X130810000Y-180520000D03*
X130810000Y-177620000D03*
X130810000Y-172540000D03*
X130810000Y-175440000D03*
X150495000Y-263980000D03*
X150495000Y-266880000D03*
D28*
X214450000Y-113030000D03*
X217350000Y-113030000D03*
X186510000Y-111760000D03*
X189410000Y-111760000D03*
D29*
X153035000Y-263980000D03*
X153035000Y-266880000D03*
D28*
X214450000Y-118110000D03*
X217350000Y-118110000D03*
X186510000Y-116840000D03*
X189410000Y-116840000D03*
X151945000Y-255905000D03*
X149045000Y-255905000D03*
D29*
X191770000Y-180520000D03*
X191770000Y-177620000D03*
X191770000Y-172540000D03*
X191770000Y-175440000D03*
X150495000Y-285570000D03*
X150495000Y-288470000D03*
D28*
X275410000Y-113030000D03*
X278310000Y-113030000D03*
X247470000Y-111760000D03*
X250370000Y-111760000D03*
D29*
X153035000Y-285570000D03*
X153035000Y-288470000D03*
D28*
X275410000Y-118110000D03*
X278310000Y-118110000D03*
X247470000Y-116840000D03*
X250370000Y-116840000D03*
X151945000Y-277495000D03*
X149045000Y-277495000D03*
D29*
X252730000Y-180520000D03*
X252730000Y-177620000D03*
X252730000Y-172540000D03*
X252730000Y-175440000D03*
X172720000Y-242390000D03*
X172720000Y-245290000D03*
D28*
X336370000Y-113030000D03*
X339270000Y-113030000D03*
X308430000Y-111760000D03*
X311330000Y-111760000D03*
D29*
X175260000Y-242390000D03*
X175260000Y-245290000D03*
D28*
X336370000Y-118110000D03*
X339270000Y-118110000D03*
X308430000Y-116840000D03*
X311330000Y-116840000D03*
X174170000Y-234315000D03*
X171270000Y-234315000D03*
D29*
X313690000Y-180520000D03*
X313690000Y-177620000D03*
X313690000Y-172540000D03*
X313690000Y-175440000D03*
X172720000Y-263980000D03*
X172720000Y-266880000D03*
D28*
X397330000Y-113030000D03*
X400230000Y-113030000D03*
X369390000Y-111760000D03*
X372290000Y-111760000D03*
D29*
X175260000Y-263980000D03*
X175260000Y-266880000D03*
D28*
X397330000Y-118110000D03*
X400230000Y-118110000D03*
X369390000Y-116840000D03*
X372290000Y-116840000D03*
X174170000Y-255905000D03*
X171270000Y-255905000D03*
D29*
X374650000Y-180520000D03*
X374650000Y-177620000D03*
X374650000Y-172540000D03*
X374650000Y-175440000D03*
X172720000Y-285570000D03*
X172720000Y-288470000D03*
D28*
X458290000Y-113030000D03*
X461190000Y-113030000D03*
X430350000Y-111760000D03*
X433250000Y-111760000D03*
D29*
X175260000Y-285570000D03*
X175260000Y-288470000D03*
D28*
X458290000Y-118110000D03*
X461190000Y-118110000D03*
X430350000Y-116840000D03*
X433250000Y-116840000D03*
X174170000Y-277495000D03*
X171270000Y-277495000D03*
D29*
X435610000Y-180520000D03*
X435610000Y-177620000D03*
X435610000Y-172540000D03*
X435610000Y-175440000D03*
D23*
X115765000Y-234950000D03*
X109025000Y-237490000D03*
X115765000Y-242570000D03*
X109025000Y-242570000D03*
X115765000Y-248920000D03*
X109025000Y-251460000D03*
X115765000Y-256540000D03*
X109025000Y-256540000D03*
D30*
X405130000Y-287655000D03*
X403130000Y-287655000D03*
X405130000Y-285655000D03*
X403130000Y-285655000D03*
X405130000Y-283655000D03*
X403130000Y-283655000D03*
X405130000Y-281655000D03*
X403130000Y-281655000D03*
X405130000Y-279655000D03*
X403130000Y-279655000D03*
X405130000Y-277655000D03*
X403130000Y-277655000D03*
X405130000Y-275655000D03*
X403130000Y-275655000D03*
X405130000Y-273655000D03*
X403130000Y-273655000D03*
X405130000Y-271655000D03*
X403130000Y-271655000D03*
X405130000Y-269655000D03*
X403130000Y-269655000D03*
X405130000Y-267655000D03*
X403130000Y-267655000D03*
X405130000Y-265655000D03*
X403130000Y-265655000D03*
X405130000Y-263655000D03*
X403130000Y-263655000D03*
X405130000Y-261655000D03*
X403130000Y-261655000D03*
X405130000Y-259655000D03*
X403130000Y-259655000D03*
X405130000Y-257655000D03*
X403130000Y-257655000D03*
X405130000Y-255655000D03*
X403130000Y-255655000D03*
X405130000Y-253655000D03*
X403130000Y-253655000D03*
X405130000Y-251655000D03*
X403130000Y-251655000D03*
X405130000Y-249655000D03*
X403130000Y-249655000D03*
X405130000Y-247655000D03*
X403130000Y-247655000D03*
X405130000Y-245655000D03*
X403130000Y-245655000D03*
X405130000Y-243655000D03*
X403130000Y-243655000D03*
X405130000Y-241655000D03*
X403130000Y-241655000D03*
X405130000Y-239655000D03*
X403130000Y-239655000D03*
D31*
X337820000Y-136855200D03*
D32*
X337820000Y-124040000D03*
X337820000Y-129540000D03*
D33*
X119040000Y-293075000D03*
X119040000Y-292425000D03*
X119040000Y-291775000D03*
X119040000Y-291125000D03*
X114640000Y-291125000D03*
X114640000Y-291775000D03*
X114640000Y-292425000D03*
X114640000Y-293075000D03*
X119040000Y-308315000D03*
X119040000Y-307665000D03*
X119040000Y-307015000D03*
X119040000Y-306365000D03*
X114640000Y-306365000D03*
X114640000Y-307015000D03*
X114640000Y-307665000D03*
X114640000Y-308315000D03*
D34*
X101440000Y-265430000D03*
X101440000Y-266700000D03*
X101440000Y-267970000D03*
X101440000Y-269240000D03*
X106840000Y-269240000D03*
X106840000Y-267970000D03*
X106840000Y-266700000D03*
X106840000Y-265430000D03*
X101440000Y-273685000D03*
X101440000Y-274955000D03*
X101440000Y-276225000D03*
X101440000Y-277495000D03*
X106840000Y-277495000D03*
X106840000Y-276225000D03*
X106840000Y-274955000D03*
X106840000Y-273685000D03*
D13*
X440055000Y-81280000D03*
X430535000Y-81280000D03*
X421015000Y-81280000D03*
X411495000Y-81280000D03*
X379095000Y-81280000D03*
X369575000Y-81280000D03*
X360055000Y-81280000D03*
X350535000Y-81280000D03*
X318135000Y-81280000D03*
X308615000Y-81280000D03*
X299095000Y-81280000D03*
X289575000Y-81280000D03*
X257175000Y-81280000D03*
X247655000Y-81280000D03*
X238135000Y-81280000D03*
X228615000Y-81280000D03*
X196215000Y-81280000D03*
X186695000Y-81280000D03*
X177175000Y-81280000D03*
X167655000Y-81280000D03*
X135255000Y-81280000D03*
X125735000Y-81280000D03*
X116215000Y-81280000D03*
X106695000Y-81280000D03*
X411480000Y-322580000D03*
X421000000Y-322580000D03*
X430520000Y-322580000D03*
X440040000Y-322580000D03*
X350520000Y-322580000D03*
X360040000Y-322580000D03*
X369560000Y-322580000D03*
X379080000Y-322580000D03*
X289560000Y-322580000D03*
X299080000Y-322580000D03*
X308600000Y-322580000D03*
X318120000Y-322580000D03*
X228600000Y-322580000D03*
X238120000Y-322580000D03*
X247640000Y-322580000D03*
X257160000Y-322580000D03*
X167640000Y-322580000D03*
X177160000Y-322580000D03*
X186680000Y-322580000D03*
X196200000Y-322580000D03*
X106680000Y-322580000D03*
X116200000Y-322580000D03*
X125720000Y-322580000D03*
X135240000Y-322580000D03*
D35*
X450850000Y-329628500D03*
X455930000Y-329628500D03*
X389890000Y-329628500D03*
X394970000Y-329628500D03*
X328930000Y-329628500D03*
X334010000Y-329628500D03*
X267970000Y-329628500D03*
X273050000Y-329628500D03*
X207010000Y-329628500D03*
X212090000Y-329628500D03*
X146050000Y-329628500D03*
X151130000Y-329628500D03*
D36*
X445920000Y-180980000D03*
X445920000Y-178210000D03*
X445920000Y-175440000D03*
X443080000Y-182350000D03*
X443080000Y-179580000D03*
X443080000Y-176810000D03*
X443080000Y-174040000D03*
D37*
X444500000Y-189230000D03*
X444500000Y-125730000D03*
D38*
X444500000Y-168600000D03*
X444500000Y-161870000D03*
X444500000Y-155140000D03*
X444500000Y-148410000D03*
X444500000Y-141680000D03*
X444500000Y-134950000D03*
D36*
X384960000Y-180980000D03*
X384960000Y-178210000D03*
X384960000Y-175440000D03*
X382120000Y-182350000D03*
X382120000Y-179580000D03*
X382120000Y-176810000D03*
X382120000Y-174040000D03*
D37*
X383540000Y-189230000D03*
X383540000Y-125730000D03*
D38*
X383540000Y-168600000D03*
X383540000Y-161870000D03*
X383540000Y-155140000D03*
X383540000Y-148410000D03*
X383540000Y-141680000D03*
X383540000Y-134950000D03*
D36*
X324000000Y-180980000D03*
X324000000Y-178210000D03*
X324000000Y-175440000D03*
X321160000Y-182350000D03*
X321160000Y-179580000D03*
X321160000Y-176810000D03*
X321160000Y-174040000D03*
D37*
X322580000Y-189230000D03*
X322580000Y-125730000D03*
D38*
X322580000Y-168600000D03*
X322580000Y-161870000D03*
X322580000Y-155140000D03*
X322580000Y-148410000D03*
X322580000Y-141680000D03*
X322580000Y-134950000D03*
D36*
X263040000Y-180980000D03*
X263040000Y-178210000D03*
X263040000Y-175440000D03*
X260200000Y-182350000D03*
X260200000Y-179580000D03*
X260200000Y-176810000D03*
X260200000Y-174040000D03*
D37*
X261620000Y-189230000D03*
X261620000Y-125730000D03*
D38*
X261620000Y-168600000D03*
X261620000Y-161870000D03*
X261620000Y-155140000D03*
X261620000Y-148410000D03*
X261620000Y-141680000D03*
X261620000Y-134950000D03*
D36*
X202080000Y-180980000D03*
X202080000Y-178210000D03*
X202080000Y-175440000D03*
X199240000Y-182350000D03*
X199240000Y-179580000D03*
X199240000Y-176810000D03*
X199240000Y-174040000D03*
D37*
X200660000Y-189230000D03*
X200660000Y-125730000D03*
D38*
X200660000Y-168600000D03*
X200660000Y-161870000D03*
X200660000Y-155140000D03*
X200660000Y-148410000D03*
X200660000Y-141680000D03*
X200660000Y-134950000D03*
D36*
X141120000Y-180980000D03*
X141120000Y-178210000D03*
X141120000Y-175440000D03*
X138280000Y-182350000D03*
X138280000Y-179580000D03*
X138280000Y-176810000D03*
X138280000Y-174040000D03*
D37*
X139700000Y-189230000D03*
X139700000Y-125730000D03*
D38*
X139700000Y-168600000D03*
X139700000Y-161870000D03*
X139700000Y-155140000D03*
X139700000Y-148410000D03*
X139700000Y-141680000D03*
X139700000Y-134950000D03*
D13*
X85090000Y-181610000D03*
X85090000Y-186690000D03*
X85090000Y-191770000D03*
X85090000Y-196850000D03*
X85090000Y-298450000D03*
X85090000Y-303530000D03*
X85090000Y-308610000D03*
X85090000Y-313690000D03*
X85090000Y-262890000D03*
X85090000Y-267970000D03*
X85090000Y-273050000D03*
X85090000Y-278130000D03*
X85090000Y-283210000D03*
X85090000Y-288290000D03*
X472440000Y-201930000D03*
X472440000Y-196850000D03*
X472440000Y-191770000D03*
X472440000Y-186690000D03*
X472440000Y-181610000D03*
X472440000Y-176530000D03*
X472440000Y-171450000D03*
X472440000Y-166370000D03*
X472440000Y-161290000D03*
X472440000Y-156210000D03*
X472440000Y-257810000D03*
X472440000Y-252730000D03*
X472440000Y-247650000D03*
X472440000Y-242570000D03*
X472440000Y-237490000D03*
X472440000Y-232410000D03*
X472440000Y-227330000D03*
X472440000Y-222250000D03*
X472440000Y-217170000D03*
X472440000Y-212090000D03*
X472440000Y-313690000D03*
X472440000Y-308610000D03*
X472440000Y-303530000D03*
X472440000Y-298450000D03*
X472440000Y-293370000D03*
X472440000Y-288290000D03*
X472440000Y-283210000D03*
X472440000Y-278130000D03*
X472440000Y-273050000D03*
X472440000Y-267970000D03*
X85090000Y-207010000D03*
X85090000Y-212090000D03*
X85090000Y-217170000D03*
X85090000Y-222250000D03*
X85090000Y-227330000D03*
X85090000Y-232410000D03*
X85090000Y-237490000D03*
X85090000Y-242570000D03*
X85090000Y-247650000D03*
X85090000Y-252730000D03*
D39*
X112395000Y-157480000D03*
X114935000Y-157480000D03*
X113665000Y-159680000D03*
X116205000Y-159680000D03*
D40*
X124800000Y-147170000D03*
X124800000Y-144630000D03*
X124800000Y-149710000D03*
X103800000Y-144630000D03*
X103800000Y-147170000D03*
X103800000Y-149710000D03*
D39*
X173355000Y-157480000D03*
X175895000Y-157480000D03*
X174625000Y-159680000D03*
X177165000Y-159680000D03*
D40*
X185760000Y-147170000D03*
X185760000Y-144630000D03*
X185760000Y-149710000D03*
X164760000Y-144630000D03*
X164760000Y-147170000D03*
X164760000Y-149710000D03*
D39*
X234315000Y-157480000D03*
X236855000Y-157480000D03*
X235585000Y-159680000D03*
X238125000Y-159680000D03*
D40*
X246720000Y-147170000D03*
X246720000Y-144630000D03*
X246720000Y-149710000D03*
X225720000Y-144630000D03*
X225720000Y-147170000D03*
X225720000Y-149710000D03*
D39*
X295275000Y-157480000D03*
X297815000Y-157480000D03*
X296545000Y-159680000D03*
X299085000Y-159680000D03*
D40*
X307680000Y-147170000D03*
X307680000Y-144630000D03*
X307680000Y-149710000D03*
X286680000Y-144630000D03*
X286680000Y-147170000D03*
X286680000Y-149710000D03*
D39*
X356235000Y-157480000D03*
X358775000Y-157480000D03*
X357505000Y-159680000D03*
X360045000Y-159680000D03*
D40*
X368640000Y-147170000D03*
X368640000Y-144630000D03*
X368640000Y-149710000D03*
X347640000Y-144630000D03*
X347640000Y-147170000D03*
X347640000Y-149710000D03*
D39*
X417195000Y-157480000D03*
X419735000Y-157480000D03*
X418465000Y-159680000D03*
X421005000Y-159680000D03*
D40*
X429600000Y-147170000D03*
X429600000Y-144630000D03*
X429600000Y-149710000D03*
X408600000Y-144630000D03*
X408600000Y-147170000D03*
X408600000Y-149710000D03*
D39*
X116205000Y-172720000D03*
X113665000Y-172720000D03*
X114935000Y-170520000D03*
X112395000Y-170520000D03*
D40*
X103800000Y-183030000D03*
X103800000Y-185570000D03*
X103800000Y-180490000D03*
X124800000Y-185570000D03*
X124800000Y-183030000D03*
X124800000Y-180490000D03*
D39*
X177165000Y-172720000D03*
X174625000Y-172720000D03*
X175895000Y-170520000D03*
X173355000Y-170520000D03*
D40*
X164760000Y-183030000D03*
X164760000Y-185570000D03*
X164760000Y-180490000D03*
X185760000Y-185570000D03*
X185760000Y-183030000D03*
X185760000Y-180490000D03*
D39*
X238125000Y-172720000D03*
X235585000Y-172720000D03*
X236855000Y-170520000D03*
X234315000Y-170520000D03*
D40*
X225720000Y-183030000D03*
X225720000Y-185570000D03*
X225720000Y-180490000D03*
X246720000Y-185570000D03*
X246720000Y-183030000D03*
X246720000Y-180490000D03*
D39*
X299085000Y-172720000D03*
X296545000Y-172720000D03*
X297815000Y-170520000D03*
X295275000Y-170520000D03*
D40*
X286680000Y-183030000D03*
X286680000Y-185570000D03*
X286680000Y-180490000D03*
X307680000Y-185570000D03*
X307680000Y-183030000D03*
X307680000Y-180490000D03*
D39*
X360045000Y-172720000D03*
X357505000Y-172720000D03*
X358775000Y-170520000D03*
X356235000Y-170520000D03*
D40*
X347640000Y-183030000D03*
X347640000Y-185570000D03*
X347640000Y-180490000D03*
X368640000Y-185570000D03*
X368640000Y-183030000D03*
X368640000Y-180490000D03*
D39*
X421005000Y-172720000D03*
X418465000Y-172720000D03*
X419735000Y-170520000D03*
X417195000Y-170520000D03*
D40*
X408600000Y-183030000D03*
X408600000Y-185570000D03*
X408600000Y-180490000D03*
X429600000Y-185570000D03*
X429600000Y-183030000D03*
X429600000Y-180490000D03*
D41*
X426705000Y-115215000D03*
X427355000Y-115215000D03*
X428005000Y-115215000D03*
X426705000Y-113385000D03*
X427355000Y-113385000D03*
X428005000Y-113385000D03*
D42*
X427055000Y-114300000D03*
D43*
X428005000Y-114300000D03*
D41*
X365745000Y-115215000D03*
X366395000Y-115215000D03*
X367045000Y-115215000D03*
X365745000Y-113385000D03*
X366395000Y-113385000D03*
X367045000Y-113385000D03*
D42*
X366095000Y-114300000D03*
D43*
X367045000Y-114300000D03*
D41*
X304785000Y-115215000D03*
X305435000Y-115215000D03*
X306085000Y-115215000D03*
X304785000Y-113385000D03*
X305435000Y-113385000D03*
X306085000Y-113385000D03*
D42*
X305135000Y-114300000D03*
D43*
X306085000Y-114300000D03*
D41*
X243825000Y-115215000D03*
X244475000Y-115215000D03*
X245125000Y-115215000D03*
X243825000Y-113385000D03*
X244475000Y-113385000D03*
X245125000Y-113385000D03*
D42*
X244175000Y-114300000D03*
D43*
X245125000Y-114300000D03*
D41*
X182865000Y-115215000D03*
X183515000Y-115215000D03*
X184165000Y-115215000D03*
X182865000Y-113385000D03*
X183515000Y-113385000D03*
X184165000Y-113385000D03*
D42*
X183215000Y-114300000D03*
D43*
X184165000Y-114300000D03*
D41*
X121905000Y-115215000D03*
X122555000Y-115215000D03*
X123205000Y-115215000D03*
X121905000Y-113385000D03*
X122555000Y-113385000D03*
X123205000Y-113385000D03*
D42*
X122255000Y-114300000D03*
D43*
X123205000Y-114300000D03*
D44*
X450850000Y-310785000D03*
X450850000Y-314055000D03*
X389890000Y-310785000D03*
X389890000Y-314055000D03*
X328930000Y-310785000D03*
X328930000Y-314055000D03*
X267970000Y-310785000D03*
X267970000Y-314055000D03*
X207010000Y-310785000D03*
X207010000Y-314055000D03*
X146050000Y-310785000D03*
X146050000Y-314055000D03*
D12*
X114706400Y-114757200D03*
X114706400Y-131648200D03*
X106299000Y-123190000D03*
X124206000Y-123190000D03*
X114300000Y-123190000D03*
D13*
X108204000Y-116687600D03*
X122199400Y-129692400D03*
D12*
X175666400Y-114757200D03*
X175666400Y-131648200D03*
X167259000Y-123190000D03*
X185166000Y-123190000D03*
X175260000Y-123190000D03*
D13*
X169164000Y-116687600D03*
X183159400Y-129692400D03*
D12*
X236626400Y-114757200D03*
X236626400Y-131648200D03*
X228219000Y-123190000D03*
X246126000Y-123190000D03*
X236220000Y-123190000D03*
D13*
X230124000Y-116687600D03*
X244119400Y-129692400D03*
D12*
X297586400Y-114757200D03*
X297586400Y-131648200D03*
X289179000Y-123190000D03*
X307086000Y-123190000D03*
X297180000Y-123190000D03*
D13*
X291084000Y-116687600D03*
X305079400Y-129692400D03*
D12*
X419506400Y-114757200D03*
X419506400Y-131648200D03*
X411099000Y-123190000D03*
X429006000Y-123190000D03*
X419100000Y-123190000D03*
D13*
X413004000Y-116687600D03*
X426999400Y-129692400D03*
D20*
X125552200Y-172950000D03*
X125552200Y-169950000D03*
X103200200Y-157377000D03*
X103200200Y-160377000D03*
X186512200Y-172950000D03*
X186512200Y-169950000D03*
X164033200Y-157250000D03*
X164033200Y-160250000D03*
X247472200Y-172950000D03*
X247472200Y-169950000D03*
X224866200Y-157250000D03*
X224866200Y-160250000D03*
X308686200Y-172950000D03*
X308686200Y-169950000D03*
X285826200Y-157250000D03*
X285826200Y-160250000D03*
X369392200Y-172950000D03*
X369392200Y-169950000D03*
X346913200Y-157250000D03*
X346913200Y-160250000D03*
X430352200Y-172950000D03*
X430352200Y-169950000D03*
X407746200Y-157250000D03*
X407746200Y-160250000D03*
D11*
X85039200Y-74930000D03*
X85039200Y-167640000D03*
X85039200Y-328930000D03*
X212039200Y-74930000D03*
X158699200Y-167640000D03*
X219659200Y-167640000D03*
X219659200Y-312420000D03*
X280619200Y-167640000D03*
X334086200Y-74930000D03*
X341706200Y-167640000D03*
X341706200Y-312420000D03*
X402666200Y-167640000D03*
X472516200Y-74930000D03*
X472516200Y-144780000D03*
X472516200Y-328930000D03*
M02*
