G04 #@! TF.FileFunction,Legend,Bot*
%FSLAX46Y46*%
G04 Gerber Fmt 4.6, Leading zero omitted, Abs format (unit mm)*
G04 Created by KiCad (PCBNEW 4.0.2-stable) date 10/20/2016 9:17:17 AM*
%MOMM*%
G01*
G04 APERTURE LIST*
%ADD10C,0.100000*%
%ADD11C,0.150000*%
G04 APERTURE END LIST*
D10*
D11*
X458641295Y-248299762D02*
X458498438Y-248347381D01*
X458260342Y-248347381D01*
X458165104Y-248299762D01*
X458117485Y-248252143D01*
X458069866Y-248156905D01*
X458069866Y-248061667D01*
X458117485Y-247966429D01*
X458165104Y-247918810D01*
X458260342Y-247871190D01*
X458450819Y-247823571D01*
X458546057Y-247775952D01*
X458593676Y-247728333D01*
X458641295Y-247633095D01*
X458641295Y-247537857D01*
X458593676Y-247442619D01*
X458546057Y-247395000D01*
X458450819Y-247347381D01*
X458212723Y-247347381D01*
X458069866Y-247395000D01*
X457688914Y-247442619D02*
X457641295Y-247395000D01*
X457546057Y-247347381D01*
X457307961Y-247347381D01*
X457212723Y-247395000D01*
X457165104Y-247442619D01*
X457117485Y-247537857D01*
X457117485Y-247633095D01*
X457165104Y-247775952D01*
X457736533Y-248347381D01*
X457117485Y-248347381D01*
X456784152Y-247347381D02*
X456117485Y-247347381D01*
X456546057Y-248347381D01*
X340531295Y-253506762D02*
X340388438Y-253554381D01*
X340150342Y-253554381D01*
X340055104Y-253506762D01*
X340007485Y-253459143D01*
X339959866Y-253363905D01*
X339959866Y-253268667D01*
X340007485Y-253173429D01*
X340055104Y-253125810D01*
X340150342Y-253078190D01*
X340340819Y-253030571D01*
X340436057Y-252982952D01*
X340483676Y-252935333D01*
X340531295Y-252840095D01*
X340531295Y-252744857D01*
X340483676Y-252649619D01*
X340436057Y-252602000D01*
X340340819Y-252554381D01*
X340102723Y-252554381D01*
X339959866Y-252602000D01*
X339578914Y-252649619D02*
X339531295Y-252602000D01*
X339436057Y-252554381D01*
X339197961Y-252554381D01*
X339102723Y-252602000D01*
X339055104Y-252649619D01*
X339007485Y-252744857D01*
X339007485Y-252840095D01*
X339055104Y-252982952D01*
X339626533Y-253554381D01*
X339007485Y-253554381D01*
X338150342Y-252554381D02*
X338340819Y-252554381D01*
X338436057Y-252602000D01*
X338483676Y-252649619D01*
X338578914Y-252792476D01*
X338626533Y-252982952D01*
X338626533Y-253363905D01*
X338578914Y-253459143D01*
X338531295Y-253506762D01*
X338436057Y-253554381D01*
X338245580Y-253554381D01*
X338150342Y-253506762D01*
X338102723Y-253459143D01*
X338055104Y-253363905D01*
X338055104Y-253125810D01*
X338102723Y-253030571D01*
X338150342Y-252982952D01*
X338245580Y-252935333D01*
X338436057Y-252935333D01*
X338531295Y-252982952D01*
X338578914Y-253030571D01*
X338626533Y-253125810D01*
X203371295Y-254776762D02*
X203228438Y-254824381D01*
X202990342Y-254824381D01*
X202895104Y-254776762D01*
X202847485Y-254729143D01*
X202799866Y-254633905D01*
X202799866Y-254538667D01*
X202847485Y-254443429D01*
X202895104Y-254395810D01*
X202990342Y-254348190D01*
X203180819Y-254300571D01*
X203276057Y-254252952D01*
X203323676Y-254205333D01*
X203371295Y-254110095D01*
X203371295Y-254014857D01*
X203323676Y-253919619D01*
X203276057Y-253872000D01*
X203180819Y-253824381D01*
X202942723Y-253824381D01*
X202799866Y-253872000D01*
X202418914Y-253919619D02*
X202371295Y-253872000D01*
X202276057Y-253824381D01*
X202037961Y-253824381D01*
X201942723Y-253872000D01*
X201895104Y-253919619D01*
X201847485Y-254014857D01*
X201847485Y-254110095D01*
X201895104Y-254252952D01*
X202466533Y-254824381D01*
X201847485Y-254824381D01*
X200942723Y-253824381D02*
X201418914Y-253824381D01*
X201466533Y-254300571D01*
X201418914Y-254252952D01*
X201323676Y-254205333D01*
X201085580Y-254205333D01*
X200990342Y-254252952D01*
X200942723Y-254300571D01*
X200895104Y-254395810D01*
X200895104Y-254633905D01*
X200942723Y-254729143D01*
X200990342Y-254776762D01*
X201085580Y-254824381D01*
X201323676Y-254824381D01*
X201418914Y-254776762D01*
X201466533Y-254729143D01*
X101263295Y-254903762D02*
X101120438Y-254951381D01*
X100882342Y-254951381D01*
X100787104Y-254903762D01*
X100739485Y-254856143D01*
X100691866Y-254760905D01*
X100691866Y-254665667D01*
X100739485Y-254570429D01*
X100787104Y-254522810D01*
X100882342Y-254475190D01*
X101072819Y-254427571D01*
X101168057Y-254379952D01*
X101215676Y-254332333D01*
X101263295Y-254237095D01*
X101263295Y-254141857D01*
X101215676Y-254046619D01*
X101168057Y-253999000D01*
X101072819Y-253951381D01*
X100834723Y-253951381D01*
X100691866Y-253999000D01*
X100310914Y-254046619D02*
X100263295Y-253999000D01*
X100168057Y-253951381D01*
X99929961Y-253951381D01*
X99834723Y-253999000D01*
X99787104Y-254046619D01*
X99739485Y-254141857D01*
X99739485Y-254237095D01*
X99787104Y-254379952D01*
X100358533Y-254951381D01*
X99739485Y-254951381D01*
X98882342Y-254284714D02*
X98882342Y-254951381D01*
X99120438Y-253903762D02*
X99358533Y-254618048D01*
X98739485Y-254618048D01*
X85801105Y-71134762D02*
X85658248Y-71182381D01*
X85420152Y-71182381D01*
X85324914Y-71134762D01*
X85277295Y-71087143D01*
X85229676Y-70991905D01*
X85229676Y-70896667D01*
X85277295Y-70801429D01*
X85324914Y-70753810D01*
X85420152Y-70706190D01*
X85610629Y-70658571D01*
X85705867Y-70610952D01*
X85753486Y-70563333D01*
X85801105Y-70468095D01*
X85801105Y-70372857D01*
X85753486Y-70277619D01*
X85705867Y-70230000D01*
X85610629Y-70182381D01*
X85372533Y-70182381D01*
X85229676Y-70230000D01*
X84277295Y-71182381D02*
X84848724Y-71182381D01*
X84563010Y-71182381D02*
X84563010Y-70182381D01*
X84658248Y-70325238D01*
X84753486Y-70420476D01*
X84848724Y-70468095D01*
X85801105Y-163844762D02*
X85658248Y-163892381D01*
X85420152Y-163892381D01*
X85324914Y-163844762D01*
X85277295Y-163797143D01*
X85229676Y-163701905D01*
X85229676Y-163606667D01*
X85277295Y-163511429D01*
X85324914Y-163463810D01*
X85420152Y-163416190D01*
X85610629Y-163368571D01*
X85705867Y-163320952D01*
X85753486Y-163273333D01*
X85801105Y-163178095D01*
X85801105Y-163082857D01*
X85753486Y-162987619D01*
X85705867Y-162940000D01*
X85610629Y-162892381D01*
X85372533Y-162892381D01*
X85229676Y-162940000D01*
X84848724Y-162987619D02*
X84801105Y-162940000D01*
X84705867Y-162892381D01*
X84467771Y-162892381D01*
X84372533Y-162940000D01*
X84324914Y-162987619D01*
X84277295Y-163082857D01*
X84277295Y-163178095D01*
X84324914Y-163320952D01*
X84896343Y-163892381D01*
X84277295Y-163892381D01*
X85801105Y-325134762D02*
X85658248Y-325182381D01*
X85420152Y-325182381D01*
X85324914Y-325134762D01*
X85277295Y-325087143D01*
X85229676Y-324991905D01*
X85229676Y-324896667D01*
X85277295Y-324801429D01*
X85324914Y-324753810D01*
X85420152Y-324706190D01*
X85610629Y-324658571D01*
X85705867Y-324610952D01*
X85753486Y-324563333D01*
X85801105Y-324468095D01*
X85801105Y-324372857D01*
X85753486Y-324277619D01*
X85705867Y-324230000D01*
X85610629Y-324182381D01*
X85372533Y-324182381D01*
X85229676Y-324230000D01*
X84896343Y-324182381D02*
X84277295Y-324182381D01*
X84610629Y-324563333D01*
X84467771Y-324563333D01*
X84372533Y-324610952D01*
X84324914Y-324658571D01*
X84277295Y-324753810D01*
X84277295Y-324991905D01*
X84324914Y-325087143D01*
X84372533Y-325134762D01*
X84467771Y-325182381D01*
X84753486Y-325182381D01*
X84848724Y-325134762D01*
X84896343Y-325087143D01*
X212801105Y-71134762D02*
X212658248Y-71182381D01*
X212420152Y-71182381D01*
X212324914Y-71134762D01*
X212277295Y-71087143D01*
X212229676Y-70991905D01*
X212229676Y-70896667D01*
X212277295Y-70801429D01*
X212324914Y-70753810D01*
X212420152Y-70706190D01*
X212610629Y-70658571D01*
X212705867Y-70610952D01*
X212753486Y-70563333D01*
X212801105Y-70468095D01*
X212801105Y-70372857D01*
X212753486Y-70277619D01*
X212705867Y-70230000D01*
X212610629Y-70182381D01*
X212372533Y-70182381D01*
X212229676Y-70230000D01*
X211372533Y-70515714D02*
X211372533Y-71182381D01*
X211610629Y-70134762D02*
X211848724Y-70849048D01*
X211229676Y-70849048D01*
X159461105Y-163844762D02*
X159318248Y-163892381D01*
X159080152Y-163892381D01*
X158984914Y-163844762D01*
X158937295Y-163797143D01*
X158889676Y-163701905D01*
X158889676Y-163606667D01*
X158937295Y-163511429D01*
X158984914Y-163463810D01*
X159080152Y-163416190D01*
X159270629Y-163368571D01*
X159365867Y-163320952D01*
X159413486Y-163273333D01*
X159461105Y-163178095D01*
X159461105Y-163082857D01*
X159413486Y-162987619D01*
X159365867Y-162940000D01*
X159270629Y-162892381D01*
X159032533Y-162892381D01*
X158889676Y-162940000D01*
X157984914Y-162892381D02*
X158461105Y-162892381D01*
X158508724Y-163368571D01*
X158461105Y-163320952D01*
X158365867Y-163273333D01*
X158127771Y-163273333D01*
X158032533Y-163320952D01*
X157984914Y-163368571D01*
X157937295Y-163463810D01*
X157937295Y-163701905D01*
X157984914Y-163797143D01*
X158032533Y-163844762D01*
X158127771Y-163892381D01*
X158365867Y-163892381D01*
X158461105Y-163844762D01*
X158508724Y-163797143D01*
X220421105Y-163844762D02*
X220278248Y-163892381D01*
X220040152Y-163892381D01*
X219944914Y-163844762D01*
X219897295Y-163797143D01*
X219849676Y-163701905D01*
X219849676Y-163606667D01*
X219897295Y-163511429D01*
X219944914Y-163463810D01*
X220040152Y-163416190D01*
X220230629Y-163368571D01*
X220325867Y-163320952D01*
X220373486Y-163273333D01*
X220421105Y-163178095D01*
X220421105Y-163082857D01*
X220373486Y-162987619D01*
X220325867Y-162940000D01*
X220230629Y-162892381D01*
X219992533Y-162892381D01*
X219849676Y-162940000D01*
X218992533Y-162892381D02*
X219183010Y-162892381D01*
X219278248Y-162940000D01*
X219325867Y-162987619D01*
X219421105Y-163130476D01*
X219468724Y-163320952D01*
X219468724Y-163701905D01*
X219421105Y-163797143D01*
X219373486Y-163844762D01*
X219278248Y-163892381D01*
X219087771Y-163892381D01*
X218992533Y-163844762D01*
X218944914Y-163797143D01*
X218897295Y-163701905D01*
X218897295Y-163463810D01*
X218944914Y-163368571D01*
X218992533Y-163320952D01*
X219087771Y-163273333D01*
X219278248Y-163273333D01*
X219373486Y-163320952D01*
X219421105Y-163368571D01*
X219468724Y-163463810D01*
X220421105Y-308624762D02*
X220278248Y-308672381D01*
X220040152Y-308672381D01*
X219944914Y-308624762D01*
X219897295Y-308577143D01*
X219849676Y-308481905D01*
X219849676Y-308386667D01*
X219897295Y-308291429D01*
X219944914Y-308243810D01*
X220040152Y-308196190D01*
X220230629Y-308148571D01*
X220325867Y-308100952D01*
X220373486Y-308053333D01*
X220421105Y-307958095D01*
X220421105Y-307862857D01*
X220373486Y-307767619D01*
X220325867Y-307720000D01*
X220230629Y-307672381D01*
X219992533Y-307672381D01*
X219849676Y-307720000D01*
X219516343Y-307672381D02*
X218849676Y-307672381D01*
X219278248Y-308672381D01*
X281381105Y-163844762D02*
X281238248Y-163892381D01*
X281000152Y-163892381D01*
X280904914Y-163844762D01*
X280857295Y-163797143D01*
X280809676Y-163701905D01*
X280809676Y-163606667D01*
X280857295Y-163511429D01*
X280904914Y-163463810D01*
X281000152Y-163416190D01*
X281190629Y-163368571D01*
X281285867Y-163320952D01*
X281333486Y-163273333D01*
X281381105Y-163178095D01*
X281381105Y-163082857D01*
X281333486Y-162987619D01*
X281285867Y-162940000D01*
X281190629Y-162892381D01*
X280952533Y-162892381D01*
X280809676Y-162940000D01*
X280238248Y-163320952D02*
X280333486Y-163273333D01*
X280381105Y-163225714D01*
X280428724Y-163130476D01*
X280428724Y-163082857D01*
X280381105Y-162987619D01*
X280333486Y-162940000D01*
X280238248Y-162892381D01*
X280047771Y-162892381D01*
X279952533Y-162940000D01*
X279904914Y-162987619D01*
X279857295Y-163082857D01*
X279857295Y-163130476D01*
X279904914Y-163225714D01*
X279952533Y-163273333D01*
X280047771Y-163320952D01*
X280238248Y-163320952D01*
X280333486Y-163368571D01*
X280381105Y-163416190D01*
X280428724Y-163511429D01*
X280428724Y-163701905D01*
X280381105Y-163797143D01*
X280333486Y-163844762D01*
X280238248Y-163892381D01*
X280047771Y-163892381D01*
X279952533Y-163844762D01*
X279904914Y-163797143D01*
X279857295Y-163701905D01*
X279857295Y-163511429D01*
X279904914Y-163416190D01*
X279952533Y-163368571D01*
X280047771Y-163320952D01*
X334848105Y-71134762D02*
X334705248Y-71182381D01*
X334467152Y-71182381D01*
X334371914Y-71134762D01*
X334324295Y-71087143D01*
X334276676Y-70991905D01*
X334276676Y-70896667D01*
X334324295Y-70801429D01*
X334371914Y-70753810D01*
X334467152Y-70706190D01*
X334657629Y-70658571D01*
X334752867Y-70610952D01*
X334800486Y-70563333D01*
X334848105Y-70468095D01*
X334848105Y-70372857D01*
X334800486Y-70277619D01*
X334752867Y-70230000D01*
X334657629Y-70182381D01*
X334419533Y-70182381D01*
X334276676Y-70230000D01*
X333800486Y-71182381D02*
X333610010Y-71182381D01*
X333514771Y-71134762D01*
X333467152Y-71087143D01*
X333371914Y-70944286D01*
X333324295Y-70753810D01*
X333324295Y-70372857D01*
X333371914Y-70277619D01*
X333419533Y-70230000D01*
X333514771Y-70182381D01*
X333705248Y-70182381D01*
X333800486Y-70230000D01*
X333848105Y-70277619D01*
X333895724Y-70372857D01*
X333895724Y-70610952D01*
X333848105Y-70706190D01*
X333800486Y-70753810D01*
X333705248Y-70801429D01*
X333514771Y-70801429D01*
X333419533Y-70753810D01*
X333371914Y-70706190D01*
X333324295Y-70610952D01*
X342944295Y-163844762D02*
X342801438Y-163892381D01*
X342563342Y-163892381D01*
X342468104Y-163844762D01*
X342420485Y-163797143D01*
X342372866Y-163701905D01*
X342372866Y-163606667D01*
X342420485Y-163511429D01*
X342468104Y-163463810D01*
X342563342Y-163416190D01*
X342753819Y-163368571D01*
X342849057Y-163320952D01*
X342896676Y-163273333D01*
X342944295Y-163178095D01*
X342944295Y-163082857D01*
X342896676Y-162987619D01*
X342849057Y-162940000D01*
X342753819Y-162892381D01*
X342515723Y-162892381D01*
X342372866Y-162940000D01*
X341420485Y-163892381D02*
X341991914Y-163892381D01*
X341706200Y-163892381D02*
X341706200Y-162892381D01*
X341801438Y-163035238D01*
X341896676Y-163130476D01*
X341991914Y-163178095D01*
X340801438Y-162892381D02*
X340706199Y-162892381D01*
X340610961Y-162940000D01*
X340563342Y-162987619D01*
X340515723Y-163082857D01*
X340468104Y-163273333D01*
X340468104Y-163511429D01*
X340515723Y-163701905D01*
X340563342Y-163797143D01*
X340610961Y-163844762D01*
X340706199Y-163892381D01*
X340801438Y-163892381D01*
X340896676Y-163844762D01*
X340944295Y-163797143D01*
X340991914Y-163701905D01*
X341039533Y-163511429D01*
X341039533Y-163273333D01*
X340991914Y-163082857D01*
X340944295Y-162987619D01*
X340896676Y-162940000D01*
X340801438Y-162892381D01*
X342944295Y-308624762D02*
X342801438Y-308672381D01*
X342563342Y-308672381D01*
X342468104Y-308624762D01*
X342420485Y-308577143D01*
X342372866Y-308481905D01*
X342372866Y-308386667D01*
X342420485Y-308291429D01*
X342468104Y-308243810D01*
X342563342Y-308196190D01*
X342753819Y-308148571D01*
X342849057Y-308100952D01*
X342896676Y-308053333D01*
X342944295Y-307958095D01*
X342944295Y-307862857D01*
X342896676Y-307767619D01*
X342849057Y-307720000D01*
X342753819Y-307672381D01*
X342515723Y-307672381D01*
X342372866Y-307720000D01*
X341420485Y-308672381D02*
X341991914Y-308672381D01*
X341706200Y-308672381D02*
X341706200Y-307672381D01*
X341801438Y-307815238D01*
X341896676Y-307910476D01*
X341991914Y-307958095D01*
X340468104Y-308672381D02*
X341039533Y-308672381D01*
X340753819Y-308672381D02*
X340753819Y-307672381D01*
X340849057Y-307815238D01*
X340944295Y-307910476D01*
X341039533Y-307958095D01*
X403904295Y-163844762D02*
X403761438Y-163892381D01*
X403523342Y-163892381D01*
X403428104Y-163844762D01*
X403380485Y-163797143D01*
X403332866Y-163701905D01*
X403332866Y-163606667D01*
X403380485Y-163511429D01*
X403428104Y-163463810D01*
X403523342Y-163416190D01*
X403713819Y-163368571D01*
X403809057Y-163320952D01*
X403856676Y-163273333D01*
X403904295Y-163178095D01*
X403904295Y-163082857D01*
X403856676Y-162987619D01*
X403809057Y-162940000D01*
X403713819Y-162892381D01*
X403475723Y-162892381D01*
X403332866Y-162940000D01*
X402380485Y-163892381D02*
X402951914Y-163892381D01*
X402666200Y-163892381D02*
X402666200Y-162892381D01*
X402761438Y-163035238D01*
X402856676Y-163130476D01*
X402951914Y-163178095D01*
X401999533Y-162987619D02*
X401951914Y-162940000D01*
X401856676Y-162892381D01*
X401618580Y-162892381D01*
X401523342Y-162940000D01*
X401475723Y-162987619D01*
X401428104Y-163082857D01*
X401428104Y-163178095D01*
X401475723Y-163320952D01*
X402047152Y-163892381D01*
X401428104Y-163892381D01*
X473754295Y-71134762D02*
X473611438Y-71182381D01*
X473373342Y-71182381D01*
X473278104Y-71134762D01*
X473230485Y-71087143D01*
X473182866Y-70991905D01*
X473182866Y-70896667D01*
X473230485Y-70801429D01*
X473278104Y-70753810D01*
X473373342Y-70706190D01*
X473563819Y-70658571D01*
X473659057Y-70610952D01*
X473706676Y-70563333D01*
X473754295Y-70468095D01*
X473754295Y-70372857D01*
X473706676Y-70277619D01*
X473659057Y-70230000D01*
X473563819Y-70182381D01*
X473325723Y-70182381D01*
X473182866Y-70230000D01*
X472230485Y-71182381D02*
X472801914Y-71182381D01*
X472516200Y-71182381D02*
X472516200Y-70182381D01*
X472611438Y-70325238D01*
X472706676Y-70420476D01*
X472801914Y-70468095D01*
X471897152Y-70182381D02*
X471278104Y-70182381D01*
X471611438Y-70563333D01*
X471468580Y-70563333D01*
X471373342Y-70610952D01*
X471325723Y-70658571D01*
X471278104Y-70753810D01*
X471278104Y-70991905D01*
X471325723Y-71087143D01*
X471373342Y-71134762D01*
X471468580Y-71182381D01*
X471754295Y-71182381D01*
X471849533Y-71134762D01*
X471897152Y-71087143D01*
X473754295Y-140984762D02*
X473611438Y-141032381D01*
X473373342Y-141032381D01*
X473278104Y-140984762D01*
X473230485Y-140937143D01*
X473182866Y-140841905D01*
X473182866Y-140746667D01*
X473230485Y-140651429D01*
X473278104Y-140603810D01*
X473373342Y-140556190D01*
X473563819Y-140508571D01*
X473659057Y-140460952D01*
X473706676Y-140413333D01*
X473754295Y-140318095D01*
X473754295Y-140222857D01*
X473706676Y-140127619D01*
X473659057Y-140080000D01*
X473563819Y-140032381D01*
X473325723Y-140032381D01*
X473182866Y-140080000D01*
X472230485Y-141032381D02*
X472801914Y-141032381D01*
X472516200Y-141032381D02*
X472516200Y-140032381D01*
X472611438Y-140175238D01*
X472706676Y-140270476D01*
X472801914Y-140318095D01*
X471373342Y-140365714D02*
X471373342Y-141032381D01*
X471611438Y-139984762D02*
X471849533Y-140699048D01*
X471230485Y-140699048D01*
X473754295Y-325134762D02*
X473611438Y-325182381D01*
X473373342Y-325182381D01*
X473278104Y-325134762D01*
X473230485Y-325087143D01*
X473182866Y-324991905D01*
X473182866Y-324896667D01*
X473230485Y-324801429D01*
X473278104Y-324753810D01*
X473373342Y-324706190D01*
X473563819Y-324658571D01*
X473659057Y-324610952D01*
X473706676Y-324563333D01*
X473754295Y-324468095D01*
X473754295Y-324372857D01*
X473706676Y-324277619D01*
X473659057Y-324230000D01*
X473563819Y-324182381D01*
X473325723Y-324182381D01*
X473182866Y-324230000D01*
X472230485Y-325182381D02*
X472801914Y-325182381D01*
X472516200Y-325182381D02*
X472516200Y-324182381D01*
X472611438Y-324325238D01*
X472706676Y-324420476D01*
X472801914Y-324468095D01*
X471325723Y-324182381D02*
X471801914Y-324182381D01*
X471849533Y-324658571D01*
X471801914Y-324610952D01*
X471706676Y-324563333D01*
X471468580Y-324563333D01*
X471373342Y-324610952D01*
X471325723Y-324658571D01*
X471278104Y-324753810D01*
X471278104Y-324991905D01*
X471325723Y-325087143D01*
X471373342Y-325134762D01*
X471468580Y-325182381D01*
X471706676Y-325182381D01*
X471801914Y-325134762D01*
X471849533Y-325087143D01*
M02*
