M48
; DRILL file {KiCad 9.0.6} date 2026-02-18T11:15:31-0500
; FORMAT={-:-/ absolute / inch / decimal}
; #@! TF.CreationDate,2026-02-18T11:15:31-05:00
; #@! TF.GenerationSoftware,Kicad,Pcbnew,9.0.6
; #@! TF.FileFunction,Plated,1,10,PTH
FMAT,2
INCH
; #@! TA.AperFunction,Plated,PTH,ComponentDrill
T1C0.0118
; #@! TA.AperFunction,Plated,PTH,ViaDrill
T2C0.0170
; #@! TA.AperFunction,Plated,PTH,ComponentDrill
T3C0.0315
; #@! TA.AperFunction,Plated,PTH,ComponentDrill
T4C0.0394
; #@! TA.AperFunction,Plated,PTH,ComponentDrill
T5C0.0400
; #@! TA.AperFunction,Plated,PTH,ComponentDrill
T6C0.0449
; #@! TA.AperFunction,Plated,PTH,ComponentDrill
T7C0.0512
; #@! TA.AperFunction,Plated,PTH,ComponentDrill
T8C0.0551
; #@! TA.AperFunction,Plated,PTH,ComponentDrill
T9C0.0571
; #@! TA.AperFunction,Plated,PTH,ComponentDrill
T10C0.0780
; #@! TA.AperFunction,Plated,PTH,ComponentDrill
T11C0.0980
; #@! TA.AperFunction,Plated,PTH,ComponentDrill
T12C0.1063
; #@! TA.AperFunction,Plated,PTH,ComponentDrill
T13C0.1228
; #@! TA.AperFunction,Plated,PTH,ComponentDrill
T14C0.1660
%
G90
G05
T1
X4.3098Y-5.6858
X4.3098Y-5.7212
X4.3098Y-5.7567
X4.3098Y-5.7921
X4.3098Y-5.8275
X4.3098Y-5.863
X4.311Y-6.9299
X4.311Y-6.9653
X4.311Y-7.0007
X4.311Y-7.0362
X4.311Y-7.0716
X4.311Y-7.107
X4.3452Y-5.6858
X4.3452Y-5.7212
X4.3452Y-5.7567
X4.3452Y-5.7921
X4.3452Y-5.8275
X4.3452Y-5.863
X4.3464Y-6.9299
X4.3464Y-6.9653
X4.3464Y-7.0007
X4.3464Y-7.0362
X4.3464Y-7.0716
X4.3464Y-7.107
X4.3806Y-5.6858
X4.3806Y-5.7212
X4.3806Y-5.7567
X4.3806Y-5.7921
X4.3806Y-5.8275
X4.3806Y-5.863
X4.3818Y-6.9299
X4.3818Y-6.9653
X4.3818Y-7.0007
X4.3818Y-7.0362
X4.3818Y-7.0716
X4.3818Y-7.107
X4.6338Y-5.6854
X4.6338Y-5.7208
X4.6338Y-5.7563
X4.6338Y-5.7917
X4.6338Y-5.8271
X4.6338Y-5.8626
X4.635Y-6.9295
X4.635Y-6.9649
X4.635Y-7.0004
X4.635Y-7.0358
X4.635Y-7.0712
X4.635Y-7.1067
X4.6692Y-5.6854
X4.6692Y-5.7208
X4.6692Y-5.7563
X4.6692Y-5.7917
X4.6692Y-5.8271
X4.6692Y-5.8626
X4.6704Y-6.9295
X4.6704Y-6.9649
X4.6704Y-7.0004
X4.6704Y-7.0358
X4.6704Y-7.0712
X4.6704Y-7.1067
X4.7047Y-5.6854
X4.7047Y-5.7208
X4.7047Y-5.7563
X4.7047Y-5.7917
X4.7047Y-5.8271
X4.7047Y-5.8626
X4.7058Y-6.9295
X4.7058Y-6.9649
X4.7058Y-7.0004
X4.7058Y-7.0358
X4.7058Y-7.0712
X4.7058Y-7.1067
X6.711Y-5.6855
X6.711Y-5.7209
X6.711Y-5.7563
X6.711Y-5.7918
X6.711Y-5.8272
X6.711Y-5.8626
X6.7122Y-6.9295
X6.7122Y-6.965
X6.7122Y-7.0004
X6.7122Y-7.0358
X6.7122Y-7.0713
X6.7122Y-7.1067
X6.7464Y-5.6855
X6.7464Y-5.7209
X6.7464Y-5.7563
X6.7464Y-5.7918
X6.7464Y-5.8272
X6.7464Y-5.8626
X6.7476Y-6.9295
X6.7476Y-6.965
X6.7476Y-7.0004
X6.7476Y-7.0358
X6.7476Y-7.0713
X6.7476Y-7.1067
X6.7819Y-5.6855
X6.7819Y-5.7209
X6.7819Y-5.7563
X6.7819Y-5.7918
X6.7819Y-5.8272
X6.7819Y-5.8626
X6.7831Y-6.9295
X6.7831Y-6.965
X6.7831Y-7.0004
X6.7831Y-7.0358
X6.7831Y-7.0713
X6.7831Y-7.1067
X7.035Y-5.6851
X7.035Y-5.7205
X7.035Y-5.7559
X7.035Y-5.7914
X7.035Y-5.8268
X7.035Y-5.8622
X7.0362Y-6.9292
X7.0362Y-6.9646
X7.0362Y-7.0
X7.0362Y-7.0355
X7.0362Y-7.0709
X7.0362Y-7.1063
X7.0705Y-5.6851
X7.0705Y-5.7205
X7.0705Y-5.7559
X7.0705Y-5.7914
X7.0705Y-5.8268
X7.0705Y-5.8622
X7.0716Y-6.9292
X7.0716Y-6.9646
X7.0716Y-7.0
X7.0716Y-7.0355
X7.0716Y-7.0709
X7.0716Y-7.1063
X7.1059Y-5.6851
X7.1059Y-5.7205
X7.1059Y-5.7559
X7.1059Y-5.7914
X7.1059Y-5.8268
X7.1059Y-5.8622
X7.1071Y-6.9292
X7.1071Y-6.9646
X7.1071Y-7.0
X7.1071Y-7.0355
X7.1071Y-7.0709
X7.1071Y-7.1063
X9.1129Y-5.6856
X9.1129Y-5.721
X9.1129Y-5.7565
X9.1129Y-5.7919
X9.1129Y-5.8273
X9.1129Y-5.8628
X9.1141Y-6.9297
X9.1141Y-6.9651
X9.1141Y-7.0006
X9.1141Y-7.036
X9.1141Y-7.0714
X9.1141Y-7.1069
X9.1484Y-5.6856
X9.1484Y-5.721
X9.1484Y-5.7565
X9.1484Y-5.7919
X9.1484Y-5.8273
X9.1484Y-5.8628
X9.1495Y-6.9297
X9.1495Y-6.9651
X9.1495Y-7.0006
X9.1495Y-7.036
X9.1495Y-7.0714
X9.1495Y-7.1069
X9.1838Y-5.6856
X9.1838Y-5.721
X9.1838Y-5.7565
X9.1838Y-5.7919
X9.1838Y-5.8273
X9.1838Y-5.8628
X9.185Y-6.9297
X9.185Y-6.9651
X9.185Y-7.0006
X9.185Y-7.036
X9.185Y-7.0714
X9.185Y-7.1069
X9.4369Y-5.6852
X9.4369Y-5.7206
X9.4369Y-5.7561
X9.4369Y-5.7915
X9.4369Y-5.8269
X9.4369Y-5.8624
X9.4381Y-6.9293
X9.4381Y-6.9647
X9.4381Y-7.0002
X9.4381Y-7.0356
X9.4381Y-7.071
X9.4381Y-7.1065
X9.4724Y-5.6852
X9.4724Y-5.7206
X9.4724Y-5.7561
X9.4724Y-5.7915
X9.4724Y-5.8269
X9.4724Y-5.8624
X9.4736Y-6.9293
X9.4736Y-6.9647
X9.4736Y-7.0002
X9.4736Y-7.0356
X9.4736Y-7.071
X9.4736Y-7.1065
X9.5078Y-5.6852
X9.5078Y-5.7206
X9.5078Y-5.7561
X9.5078Y-5.7915
X9.5078Y-5.8269
X9.5078Y-5.8624
X9.509Y-6.9293
X9.509Y-6.9647
X9.509Y-7.0002
X9.509Y-7.0356
X9.509Y-7.071
X9.509Y-7.1065
X11.5145Y-5.6856
X11.5145Y-5.721
X11.5145Y-5.7565
X11.5145Y-5.7919
X11.5145Y-5.8273
X11.5145Y-5.8628
X11.5157Y-6.9297
X11.5157Y-6.9651
X11.5157Y-7.0006
X11.5157Y-7.036
X11.5157Y-7.0714
X11.5157Y-7.1069
X11.5499Y-5.6856
X11.5499Y-5.721
X11.5499Y-5.7565
X11.5499Y-5.7919
X11.5499Y-5.8273
X11.5499Y-5.8628
X11.5511Y-6.9297
X11.5511Y-6.9651
X11.5511Y-7.0006
X11.5511Y-7.036
X11.5511Y-7.0714
X11.5511Y-7.1069
X11.5854Y-5.6856
X11.5854Y-5.721
X11.5854Y-5.7565
X11.5854Y-5.7919
X11.5854Y-5.8273
X11.5854Y-5.8628
X11.5865Y-6.9297
X11.5865Y-6.9651
X11.5865Y-7.0006
X11.5865Y-7.036
X11.5865Y-7.0714
X11.5865Y-7.1069
X11.8385Y-5.6852
X11.8385Y-5.7206
X11.8385Y-5.7561
X11.8385Y-5.7915
X11.8385Y-5.8269
X11.8385Y-5.8624
X11.8397Y-6.9293
X11.8397Y-6.9647
X11.8397Y-7.0002
X11.8397Y-7.0356
X11.8397Y-7.071
X11.8397Y-7.1065
X11.8739Y-5.6852
X11.8739Y-5.7206
X11.8739Y-5.7561
X11.8739Y-5.7915
X11.8739Y-5.8269
X11.8739Y-5.8624
X11.8751Y-6.9293
X11.8751Y-6.9647
X11.8751Y-7.0002
X11.8751Y-7.0356
X11.8751Y-7.071
X11.8751Y-7.1065
X11.9094Y-5.6852
X11.9094Y-5.7206
X11.9094Y-5.7561
X11.9094Y-5.7915
X11.9094Y-5.8269
X11.9094Y-5.8624
X11.9106Y-6.9293
X11.9106Y-6.9647
X11.9106Y-7.0002
X11.9106Y-7.0356
X11.9106Y-7.071
X11.9106Y-7.1065
X13.9156Y-5.6858
X13.9156Y-5.7213
X13.9156Y-5.7567
X13.9156Y-5.7921
X13.9156Y-5.8276
X13.9156Y-5.863
X13.9168Y-6.9299
X13.9168Y-6.9654
X13.9168Y-7.0008
X13.9168Y-7.0362
X13.9168Y-7.0717
X13.9168Y-7.1071
X13.9511Y-5.6858
X13.9511Y-5.7213
X13.9511Y-5.7567
X13.9511Y-5.7921
X13.9511Y-5.8276
X13.9511Y-5.863
X13.9522Y-6.9299
X13.9522Y-6.9654
X13.9522Y-7.0008
X13.9522Y-7.0362
X13.9522Y-7.0717
X13.9522Y-7.1071
X13.9865Y-5.6858
X13.9865Y-5.7213
X13.9865Y-5.7567
X13.9865Y-5.7921
X13.9865Y-5.8276
X13.9865Y-5.863
X13.9877Y-6.9299
X13.9877Y-6.9654
X13.9877Y-7.0008
X13.9877Y-7.0362
X13.9877Y-7.0717
X13.9877Y-7.1071
X14.2396Y-5.6855
X14.2396Y-5.7209
X14.2396Y-5.7563
X14.2396Y-5.7918
X14.2396Y-5.8272
X14.2396Y-5.8626
X14.2408Y-6.9295
X14.2408Y-6.965
X14.2408Y-7.0004
X14.2408Y-7.0358
X14.2408Y-7.0713
X14.2408Y-7.1067
X14.2751Y-5.6855
X14.2751Y-5.7209
X14.2751Y-5.7563
X14.2751Y-5.7918
X14.2751Y-5.8272
X14.2751Y-5.8626
X14.2762Y-6.9295
X14.2762Y-6.965
X14.2762Y-7.0004
X14.2762Y-7.0358
X14.2762Y-7.0713
X14.2762Y-7.1067
X14.3105Y-5.6855
X14.3105Y-5.7209
X14.3105Y-5.7563
X14.3105Y-5.7918
X14.3105Y-5.8272
X14.3105Y-5.8626
X14.3117Y-6.9295
X14.3117Y-6.965
X14.3117Y-7.0004
X14.3117Y-7.0358
X14.3117Y-7.0713
X14.3117Y-7.1067
X16.3173Y-5.6854
X16.3173Y-5.7209
X16.3173Y-5.7563
X16.3173Y-5.7917
X16.3173Y-5.8272
X16.3173Y-5.8626
X16.3185Y-6.9295
X16.3185Y-6.965
X16.3185Y-7.0004
X16.3185Y-7.0358
X16.3185Y-7.0713
X16.3185Y-7.1067
X16.3527Y-5.6854
X16.3527Y-5.7209
X16.3527Y-5.7563
X16.3527Y-5.7917
X16.3527Y-5.8272
X16.3527Y-5.8626
X16.3539Y-6.9295
X16.3539Y-6.965
X16.3539Y-7.0004
X16.3539Y-7.0358
X16.3539Y-7.0713
X16.3539Y-7.1067
X16.3881Y-5.6854
X16.3881Y-5.7209
X16.3881Y-5.7563
X16.3881Y-5.7917
X16.3881Y-5.8272
X16.3881Y-5.8626
X16.3893Y-6.9295
X16.3893Y-6.965
X16.3893Y-7.0004
X16.3893Y-7.0358
X16.3893Y-7.0713
X16.3893Y-7.1067
X16.6413Y-5.685
X16.6413Y-5.7205
X16.6413Y-5.7559
X16.6413Y-5.7913
X16.6413Y-5.8268
X16.6413Y-5.8622
X16.6425Y-6.9291
X16.6425Y-6.9646
X16.6425Y-7.0
X16.6425Y-7.0354
X16.6425Y-7.0709
X16.6425Y-7.1063
X16.6767Y-5.685
X16.6767Y-5.7205
X16.6767Y-5.7559
X16.6767Y-5.7913
X16.6767Y-5.8268
X16.6767Y-5.8622
X16.6779Y-6.9291
X16.6779Y-6.9646
X16.6779Y-7.0
X16.6779Y-7.0354
X16.6779Y-7.0709
X16.6779Y-7.1063
X16.7122Y-5.685
X16.7122Y-5.7205
X16.7122Y-5.7559
X16.7122Y-5.7913
X16.7122Y-5.8268
X16.7122Y-5.8622
X16.7133Y-6.9291
X16.7133Y-6.9646
X16.7133Y-7.0
X16.7133Y-7.0354
X16.7133Y-7.0709
X16.7133Y-7.1063
T2
X3.2145Y-4.6358
X3.693Y-4.2
X3.758Y-4.373
X3.93Y-10.874
X3.933Y-10.55
X4.057Y-10.925
X4.058Y-10.6
X4.206Y-10.981
X4.2063Y-10.652
X4.3129Y-6.6366
X4.3247Y-6.0259
X4.7676Y-6.7641
X4.8031Y-9.7944
X4.8739Y-8.6626
X4.9924Y-8.1858
X5.078Y-7.156
X5.5586Y-7.7015
X6.0621Y-12.4921
X6.1566Y-7.2653
X6.3507Y-8.5362
X6.3995Y-7.7287
X6.4094Y-8.537
X6.7058Y-6.637
X6.7342Y-6.0338
X7.1692Y-6.7641
X7.1976Y-8.5193
X7.1984Y-8.4732
X7.1995Y-8.572
X7.2263Y-8.6
X7.255Y-8.628
X7.3125Y-7.1385
X7.5409Y-8.5319
X7.5893Y-8.5051
X8.2117Y-7.8015
X8.2684Y-7.7346
X8.3039Y-12.5535
X8.331Y-5.972
X8.496Y-9.9716
X9.0999Y-6.6366
X9.1161Y-7.9996
X9.1339Y-6.0318
X9.1625Y-7.9626
X9.1846Y-8.4153
X9.1858Y-7.6157
X9.2117Y-8.0
X9.2322Y-11.2
X9.233Y-11.1011
X9.2547Y-7.5893
X9.5039Y-6.7366
X10.0976Y-8.0283
X10.3539Y-8.6716
X10.4936Y-8.5224
X10.5826Y-8.5228
X10.6446Y-11.646
X10.6686Y-11.86
X10.6946Y-11.647
X10.699Y-5.972
X10.7696Y-11.909
X10.7696Y-11.709
X10.7696Y-11.809
X10.7746Y-9.399
X10.7747Y-9.3289
X10.7755Y-7.1303
X10.8196Y-11.709
X10.8196Y-11.859
X10.8446Y-11.645
X10.8946Y-11.645
X10.9191Y-11.8095
X10.9259Y-8.5409
X10.9295Y-11.4693
X10.9295Y-11.5102
X10.9446Y-11.645
X10.9696Y-11.71
X10.9696Y-11.859
X10.9946Y-11.647
X11.0446Y-11.647
X11.0686Y-11.81
X11.0696Y-11.709
X11.1196Y-11.859
X11.1255Y-12.259
X11.1946Y-11.645
X11.2196Y-11.709
X11.2197Y-11.809
X11.2696Y-11.859
X11.3446Y-11.645
X11.3696Y-11.709
X11.3696Y-11.809
X11.4187Y-11.86
X11.4192Y-11.3736
X11.4336Y-10.25
X11.4436Y-11.64
X11.468Y-11.4208
X11.4691Y-11.8595
X11.4692Y-8.1519
X11.4976Y-11.55
X11.5106Y-6.635
X11.5196Y-11.858
X11.52Y-11.909
X11.5255Y-11.5279
X11.5515Y-10.3511
X11.5684Y-11.4476
X11.5952Y-11.3885
X11.6196Y-11.858
X11.6206Y-11.908
X11.644Y-11.3063
X11.6446Y-10.451
X11.6448Y-11.6441
X11.6686Y-11.809
X11.6686Y-11.858
X11.6706Y-11.909
X11.6932Y-11.2448
X11.694Y-10.5011
X11.7196Y-11.759
X11.72Y-11.7098
X11.7201Y-11.8585
X11.7296Y-10.553
X11.7365Y-8.0464
X11.7436Y-11.175
X11.757Y-10.5917
X11.7686Y-11.91
X11.7696Y-11.859
X11.7901Y-11.4177
X11.7946Y-11.643
X11.8176Y-10.654
X11.8192Y-11.759
X11.8196Y-11.809
X11.8196Y-11.709
X11.8206Y-11.858
X11.8436Y-11.026
X11.8706Y-11.858
X11.8946Y-11.641
X11.9094Y-6.7366
X11.9186Y-11.859
X11.9255Y-10.383
X11.9256Y-10.755
X11.9696Y-11.709
X11.9696Y-11.809
X11.9936Y-11.64
X11.9956Y-11.975
X12.0446Y-11.641
X12.0456Y-7.1732
X12.0946Y-11.643
X12.1196Y-11.859
X12.1196Y-11.709
X12.1196Y-11.809
X12.1334Y-12.0748
X12.1436Y-11.64
X12.1696Y-11.8586
X12.1936Y-11.64
X12.2196Y-11.8578
X12.222Y-7.422
X12.226Y-7.0
X12.2446Y-11.645
X12.251Y-6.857
X12.2692Y-11.8586
X12.2696Y-11.809
X12.274Y-8.9846
X12.2956Y-11.642
X12.3196Y-11.709
X12.35Y-8.9846
X12.3696Y-11.8582
X12.4074Y-8.098
X12.4326Y-11.8341
X12.546Y-10.8023
X12.6192Y-9.0594
X13.077Y-5.974
X13.1999Y-7.146
X13.8027Y-8.9732
X13.911Y-6.6366
X13.9241Y-10.3655
X14.2991Y-6.7368
X14.3028Y-8.1782
X14.3302Y-8.672
X14.3807Y-8.663
X14.4476Y-7.183
X14.63Y-6.989
X14.631Y-7.384
X14.6555Y-6.8575
X14.753Y-8.8822
X14.834Y-8.8807
X14.9196Y-8.2082
X15.0806Y-8.8204
X15.1712Y-8.8531
X15.2135Y-8.8923
X15.451Y-5.973
X15.5728Y-12.4027
X15.5842Y-7.1405
X15.6885Y-7.6921
X15.8666Y-8.785
X15.9239Y-11.4889
X15.9275Y-8.8204
X15.9743Y-11.4901
X16.02Y-11.4413
X16.1831Y-7.7855
X16.2649Y-6.0539
X16.2936Y-7.86
X16.2936Y-7.985
X16.331Y-6.6368
X16.3365Y-6.0299
X16.3386Y-7.885
X16.3426Y-9.069
X16.3426Y-10.018
X16.3426Y-10.969
X16.344Y-6.3177
X16.3986Y-8.015
X16.4126Y-10.966
X16.42Y-8.8098
X16.4206Y-9.067
X16.4206Y-10.017
X16.4346Y-8.068
X16.4472Y-6.422
X16.4491Y-8.115
X16.4586Y-7.91
X16.4746Y-9.015
X16.4746Y-10.915
X16.4766Y-9.965
X16.4854Y-8.1407
X16.5016Y-8.989
X16.5066Y-9.938
X16.5192Y-8.089
X16.5196Y-8.886
X16.5197Y-7.936
X16.5296Y-10.889
X16.6476Y-8.8354
X16.6486Y-7.96
X16.6636Y-10.103
X16.6816Y-9.475
X16.6886Y-10.425
X16.6926Y-8.55
X16.6966Y-11.375
X16.7322Y-6.7364
X16.7358Y-6.1051
X16.7394Y-7.8593
X16.7436Y-9.159
X16.7436Y-11.176
X16.7446Y-8.353
X16.7446Y-9.032
X16.8106Y-9.334
X16.8116Y-8.2909
X16.8226Y-11.116
X16.8336Y-10.284
X16.8495Y-7.1811
X16.8664Y-9.8878
X16.8665Y-10.8374
X16.8666Y-8.121
X16.8676Y-9.045
X16.8686Y-10.68
X16.8696Y-7.863
X16.8766Y-8.186
X16.8786Y-9.095
X16.8806Y-10.96
X16.8856Y-10.018
X16.8872Y-10.7866
X16.9116Y-8.09
X16.9126Y-9.965
X16.9136Y-9.015
X16.9386Y-10.854
X16.9706Y-9.887
X17.0196Y-7.1145
X17.02Y-7.2059
X17.049Y-6.86
X17.0527Y-6.5295
X17.1058Y-9.733
X17.1659Y-9.3273
X17.1661Y-9.126
X17.1661Y-9.225
X17.1661Y-9.425
X17.1661Y-9.525
X17.1661Y-9.625
X17.1661Y-9.975
X17.1661Y-10.07
X17.1661Y-10.175
X17.1661Y-10.275
X17.1661Y-10.3765
X17.1661Y-10.47
X17.6098Y-7.3279
X17.8188Y-10.7484
X17.8188Y-10.9492
X17.8188Y-11.15
X17.8188Y-11.3507
X17.8188Y-11.5476
X17.8525Y-11.462
X17.8708Y-10.55
X17.9173Y-7.1381
X18.0535Y-7.6952
T3
X16.1649Y-9.4352
X16.1649Y-9.514
X16.1649Y-9.5927
X16.1649Y-9.6715
X16.1649Y-9.7502
X16.1649Y-9.8289
X16.1649Y-9.9077
X16.1649Y-9.9864
X16.1649Y-10.0652
X16.1649Y-10.1439
X16.1649Y-10.2226
X16.1649Y-10.3014
X16.1649Y-10.3801
X16.1649Y-10.4589
X16.1649Y-10.5376
X16.1649Y-10.6163
X16.1649Y-10.6951
X16.1649Y-10.7738
X16.1649Y-10.8526
X16.1649Y-10.9313
X16.1649Y-11.01
X16.1649Y-11.0888
X16.1649Y-11.1675
X16.1649Y-11.2463
X16.1649Y-11.325
X16.2436Y-9.4352
X16.2436Y-9.514
X16.2436Y-9.5927
X16.2436Y-9.6715
X16.2436Y-9.7502
X16.2436Y-9.8289
X16.2436Y-9.9077
X16.2436Y-9.9864
X16.2436Y-10.0652
X16.2436Y-10.1439
X16.2436Y-10.2226
X16.2436Y-10.3014
X16.2436Y-10.3801
X16.2436Y-10.4589
X16.2436Y-10.5376
X16.2436Y-10.6163
X16.2436Y-10.6951
X16.2436Y-10.7738
X16.2436Y-10.8526
X16.2436Y-10.9313
X16.2436Y-11.01
X16.2436Y-11.0888
X16.2436Y-11.1675
X16.2436Y-11.2463
X16.2436Y-11.325
T4
X17.9649Y-5.0921
X17.9649Y-5.1921
X17.9649Y-5.2921
T5
X3.2897Y-11.8133
X3.2897Y-11.9133
X3.2897Y-12.0133
X3.2897Y-12.1133
X3.2897Y-12.2133
X3.3897Y-11.8133
X3.3897Y-11.9133
X3.3897Y-12.0133
X3.3897Y-12.1133
X3.3897Y-12.2133
X8.5669Y-8.0
X8.5669Y-8.1
X8.5669Y-8.2
X8.5669Y-8.3
X8.5669Y-8.4
X8.6669Y-8.0
X8.6669Y-8.1
X8.6669Y-8.2
X8.6669Y-8.3
X8.6669Y-8.4
X9.3936Y-8.0
X9.3936Y-8.1
X9.3936Y-8.2
X9.3936Y-8.3
X9.3936Y-8.4
X9.3936Y-9.35
X9.3936Y-9.45
X9.3936Y-9.55
X9.3936Y-9.65
X9.3936Y-9.75
X9.3936Y-9.85
X9.3936Y-9.95
X9.3936Y-10.05
X9.3936Y-10.15
X9.3936Y-10.25
X9.3936Y-10.35
X9.3936Y-10.45
X9.3936Y-10.55
X9.3936Y-10.65
X9.3936Y-10.75
X9.3936Y-10.85
X9.3936Y-10.95
X9.3936Y-11.05
X9.3936Y-11.15
X9.3936Y-11.25
X9.3936Y-11.35
X9.3936Y-11.45
X9.3936Y-11.55
X9.3936Y-11.65
X9.3936Y-11.75
X9.4936Y-8.0
X9.4936Y-8.1
X9.4936Y-8.2
X9.4936Y-8.3
X9.4936Y-8.4
X9.4936Y-9.35
X9.4936Y-9.45
X9.4936Y-9.55
X9.4936Y-9.65
X9.4936Y-9.75
X9.4936Y-9.85
X9.4936Y-9.95
X9.4936Y-10.05
X9.4936Y-10.15
X9.4936Y-10.25
X9.4936Y-10.35
X9.4936Y-10.45
X9.4936Y-10.55
X9.4936Y-10.65
X9.4936Y-10.75
X9.4936Y-10.85
X9.4936Y-10.95
X9.4936Y-11.05
X9.4936Y-11.15
X9.4936Y-11.25
X9.4936Y-11.35
X9.4936Y-11.45
X9.4936Y-11.55
X9.4936Y-11.65
X9.4936Y-11.75
X16.1539Y-8.2675
X16.1539Y-8.3675
X16.1539Y-8.4675
X16.1539Y-8.5675
X16.1539Y-8.6675
X16.2539Y-8.2675
X16.2539Y-8.3675
X16.2539Y-8.4675
X16.2539Y-8.5675
X16.2539Y-8.6675
T6
X5.4441Y-6.852
X5.4441Y-6.961
X5.4441Y-7.0701
X5.4441Y-7.1791
X5.5559Y-6.9071
X5.5559Y-7.0161
X5.5559Y-7.1252
X7.8441Y-6.852
X7.8441Y-6.961
X7.8441Y-7.0701
X7.8441Y-7.1791
X7.9559Y-6.9071
X7.9559Y-7.0161
X7.9559Y-7.1252
X10.2441Y-6.852
X10.2441Y-6.961
X10.2441Y-7.0701
X10.2441Y-7.1791
X10.3559Y-6.9071
X10.3559Y-7.0161
X10.3559Y-7.1252
X12.6441Y-6.852
X12.6441Y-6.961
X12.6441Y-7.0701
X12.6441Y-7.1791
X12.7559Y-6.9071
X12.7559Y-7.0161
X12.7559Y-7.1252
X15.0441Y-6.852
X15.0441Y-6.961
X15.0441Y-7.0701
X15.0441Y-7.1791
X15.1559Y-6.9071
X15.1559Y-7.0161
X15.1559Y-7.1252
X17.4441Y-6.852
X17.4441Y-6.961
X17.4441Y-7.0701
X17.4441Y-7.1791
X17.5559Y-6.9071
X17.5559Y-7.0161
X17.5559Y-7.1252
T7
X4.2Y-12.7
X4.2006Y-3.2
X4.5748Y-12.7
X4.5754Y-3.2
X4.9496Y-12.7
X4.9502Y-3.2
X5.3244Y-12.7
X5.325Y-3.2
X6.6Y-12.7
X6.6006Y-3.2
X6.9748Y-12.7
X6.9754Y-3.2
X7.3496Y-12.7
X7.3502Y-3.2
X7.7244Y-12.7
X7.725Y-3.2
X9.0Y-12.7
X9.0006Y-3.2
X9.3748Y-12.7
X9.3754Y-3.2
X9.7496Y-12.7
X9.7502Y-3.2
X10.1244Y-12.7
X10.125Y-3.2
X11.4Y-12.7
X11.4006Y-3.2
X11.7748Y-12.7
X11.7754Y-3.2
X12.1496Y-12.7
X12.1502Y-3.2
X12.5244Y-12.7
X12.525Y-3.2
X13.2011Y-6.2728
X13.4011Y-6.2728
X13.8Y-12.7
X13.8006Y-3.2
X14.1748Y-12.7
X14.1754Y-3.2
X14.5496Y-12.7
X14.5502Y-3.2
X14.9244Y-12.7
X14.925Y-3.2
X16.2Y-12.7
X16.2006Y-3.2
X16.5748Y-12.7
X16.5754Y-3.2
X16.9496Y-12.7
X16.9502Y-3.2
X17.3244Y-12.7
X17.325Y-3.2
T8
X3.35Y-7.15
X3.35Y-7.35
X3.35Y-7.55
X3.35Y-7.75
X3.35Y-8.15
X3.35Y-8.35
X3.35Y-8.55
X3.35Y-8.75
X3.35Y-8.95
X3.35Y-9.15
X3.35Y-9.35
X3.35Y-9.55
X3.35Y-9.75
X3.35Y-9.95
X3.35Y-10.35
X3.35Y-10.55
X3.35Y-10.75
X3.35Y-10.95
X3.35Y-11.15
X3.35Y-11.35
X5.6621Y-12.948
X5.8621Y-12.948
X6.0621Y-12.948
X6.2621Y-12.948
X8.0621Y-12.948
X8.2621Y-12.948
X8.4621Y-12.948
X8.6621Y-12.948
X10.4617Y-12.9472
X10.6617Y-12.9472
X10.8617Y-12.9472
X11.0617Y-12.9472
X12.8621Y-12.9472
X13.0621Y-12.9472
X13.2621Y-12.9472
X13.4621Y-12.9472
X15.2606Y-12.948
X15.4606Y-12.948
X15.6606Y-12.948
X15.8606Y-12.948
X17.6621Y-12.948
X17.8621Y-12.948
X18.0621Y-12.948
X18.2621Y-12.948
X18.6Y-3.4051
X18.6Y-3.6051
X18.6Y-3.8051
X18.6Y-4.0051
X18.6Y-4.2051
X18.6Y-4.4051
X18.6Y-4.6051
X18.6Y-4.8051
X18.6Y-5.0051
X18.6Y-5.2051
X18.6Y-6.15
X18.6Y-6.35
X18.6Y-6.55
X18.6Y-6.75
X18.6Y-6.95
X18.6Y-7.15
X18.6Y-7.35
X18.6Y-7.55
X18.6Y-7.75
X18.6Y-7.95
X18.6Y-8.35
X18.6Y-8.55
X18.6Y-8.75
X18.6Y-8.95
X18.6Y-9.15
X18.6Y-9.35
X18.6Y-9.55
X18.6Y-9.75
X18.6Y-9.95
X18.6Y-10.15
X18.6Y-10.55
X18.6Y-10.75
X18.6Y-10.95
X18.6Y-11.15
X18.6Y-11.35
X18.6Y-11.55
X18.6Y-11.75
X18.6Y-11.95
X18.6Y-12.15
X18.6Y-12.35
T9
X4.0952Y-6.9063
X4.0952Y-7.1063
X6.122Y-5.2232
X6.122Y-5.4232
X6.122Y-5.7448
X6.122Y-5.9448
X8.4842Y-5.2232
X8.4842Y-5.4232
X8.4842Y-5.7448
X8.4842Y-5.9448
X10.8858Y-5.2232
X10.8858Y-5.4232
X10.8858Y-5.7448
X10.8858Y-5.9448
X13.2873Y-5.2232
X13.2873Y-5.4232
X13.2873Y-5.7448
X13.2873Y-5.9448
X15.7086Y-5.2232
X15.7086Y-5.4232
X15.7086Y-5.7448
X15.7086Y-5.9448
T10
X4.1Y-4.0
X4.1Y-4.0
X4.4Y-4.0
X4.575Y-8.075
X4.575Y-8.075
X4.875Y-8.075
X5.1469Y-4.0
X5.4469Y-4.0
X5.6219Y-8.075
X5.9219Y-8.075
X6.5Y-4.0
X6.5Y-4.0
X6.8Y-4.0
X7.5469Y-4.0
X7.8469Y-4.0
X8.9Y-4.0
X8.9Y-4.0
X9.2Y-4.0
X9.9469Y-4.0
X10.2469Y-4.0
X11.3Y-4.0
X11.3Y-4.0
X11.6Y-4.0
X12.3469Y-4.0
X12.6469Y-4.0
X13.7Y-4.0
X13.7Y-4.0
X14.0Y-4.0
X14.7469Y-4.0
X15.0469Y-4.0
X16.1Y-4.0
X16.1Y-4.0
X16.4Y-4.0
X17.1469Y-4.0
X17.4469Y-4.0
T11
X5.5Y-5.313
X5.5Y-5.578
X5.5Y-5.8429
X5.5Y-6.1079
X5.5Y-6.3728
X5.5Y-6.6378
X7.9Y-5.313
X7.9Y-5.578
X7.9Y-5.8429
X7.9Y-6.1079
X7.9Y-6.3728
X7.9Y-6.6378
X10.3Y-5.313
X10.3Y-5.578
X10.3Y-5.8429
X10.3Y-6.1079
X10.3Y-6.3728
X10.3Y-6.6378
X12.7Y-5.313
X12.7Y-5.578
X12.7Y-5.8429
X12.7Y-6.1079
X12.7Y-6.3728
X12.7Y-6.6378
X15.1Y-5.313
X15.1Y-5.578
X15.1Y-5.8429
X15.1Y-6.1079
X15.1Y-6.3728
X15.1Y-6.6378
X17.5Y-5.313
X17.5Y-5.578
X17.5Y-5.8429
X17.5Y-6.1079
X17.5Y-6.3728
X17.5Y-6.6378
T12
X4.185Y-4.85
X4.5Y-4.85
X4.516Y-4.518
X4.516Y-5.183
X4.89Y-4.85
X6.585Y-4.85
X6.9Y-4.85
X6.916Y-4.518
X6.916Y-5.183
X7.29Y-4.85
X8.985Y-4.85
X9.3Y-4.85
X9.316Y-4.518
X9.316Y-5.183
X9.69Y-4.85
X11.385Y-4.85
X11.7Y-4.85
X11.716Y-4.518
X11.716Y-5.183
X12.09Y-4.85
X13.785Y-4.85
X14.1Y-4.85
X14.116Y-4.518
X14.116Y-5.183
X14.49Y-4.85
X16.185Y-4.85
X16.5Y-4.85
X16.516Y-4.518
X16.516Y-5.183
X16.89Y-4.85
T13
X5.5Y-4.95
X5.5Y-7.45
X7.9Y-4.95
X7.9Y-7.45
X10.3Y-4.95
X10.3Y-7.45
X12.7Y-4.95
X12.7Y-7.45
X15.1Y-4.95
X15.1Y-7.45
X17.5Y-4.95
X17.5Y-7.45
T14
X3.348Y-2.95
X3.348Y-6.6
X3.348Y-12.95
X3.938Y-10.185
X5.6537Y-9.25
X5.6537Y-11.85
X6.248Y-6.6
X7.5436Y-9.25
X7.5436Y-11.85
X7.958Y-10.18
X8.348Y-2.95
X8.648Y-6.6
X8.648Y-12.3
X9.9696Y-9.05
X9.9696Y-11.874
X11.048Y-6.6
X12.8688Y-9.05
X12.8688Y-11.874
X13.153Y-2.95
X13.358Y-10.13
X13.453Y-6.6
X13.453Y-12.3
X15.7676Y-9.05
X15.7676Y-11.874
X15.853Y-6.6
X18.008Y-9.925
X18.603Y-2.95
X18.603Y-5.7
X18.603Y-12.95
M30
