M48
;DRILL file {KiCad 4.0.2-stable} date 10/20/2016 9:17:26 AM
;FORMAT={-:-/ absolute / inch / decimal}
FMAT,2
INCH,TZ
T1C0.017
T2C0.031
T3C0.039
T4C0.040
T5C0.045
T6C0.051
T7C0.055
T8C0.063
T9C0.071
T10C0.078
T11C0.098
T12C0.106
T13C0.123
%
G90
G05
M72
T1
X3.693Y-4.2
X3.758Y-4.373
X3.93Y-10.874
X3.933Y-10.55
X4.057Y-10.925
X4.058Y-10.6
X4.206Y-10.981
X4.2063Y-10.652
X4.287Y-12.025
X4.294Y-11.425
X4.5714Y-11.5384
X4.58Y-12.075
X4.587Y-11.8
X4.589Y-11.2
X4.59Y-11.475
X4.598Y-8.848
X4.6054Y-12.1384
X4.712Y-11.8
X4.714Y-11.202
X4.744Y-4.4
X4.85Y-11.21
X4.85Y-11.81
X4.905Y-12.143
X4.908Y-11.538
X4.967Y-8.677
X4.967Y-9.226
X5.003Y-7.484
X5.014Y-9.849
X5.078Y-7.156
X5.083Y-9.232
X5.084Y-9.769
X5.148Y-8.749
X5.178Y-7.757
X5.443Y-11.271
X5.447Y-11.024
X5.511Y-10.175
X5.723Y-8.197
X5.81Y-10.375
X5.813Y-10.075
X5.819Y-8.197
X5.822Y-11.226
X5.838Y-10.475
X5.846Y-11.328
X5.925Y-11.288
X5.962Y-9.6
X6.038Y-10.187
X6.0429Y-4.518
X6.07Y-11.3
X6.078Y-10.448
X6.119Y-7.752
X6.258Y-8.965
X6.263Y-7.07
X6.31Y-9.326
X6.347Y-9.578
X6.355Y-7.81
X6.378Y-10.429
X6.383Y-10.175
X6.408Y-11.283
X6.413Y-11.026
X6.554Y-8.952
X6.65Y-9.525
X6.672Y-11.225
X6.673Y-9.622
X6.674Y-10.378
X6.674Y-11.322
X6.677Y-10.473
X6.767Y-9.59
X6.8Y-11.291
X6.802Y-10.441
X6.945Y-11.3
X6.957Y-9.601
X6.965Y-10.429
X6.971Y-8.789
X7.038Y-8.64
X7.077Y-8.639
X7.1Y-8.6
X7.137Y-8.572
X7.343Y-4.47
X7.418Y-7.001
X7.424Y-7.444
X7.455Y-6.859
X7.515Y-8.903
X7.548Y-8.874
X7.849Y-8.547
X7.882Y-8.516
X7.915Y-9.616
X7.943Y-9.66
X8.331Y-5.972
X8.4429Y-4.519
X8.658Y-7.745
X8.742Y-7.484
X9.611Y-7.835
X9.743Y-4.47
X9.83Y-7.02
X9.856Y-6.851
X10.091Y-8.378
X10.091Y-8.417
X10.351Y-11.646
X10.375Y-11.86
X10.401Y-11.647
X10.451Y-9.359
X10.476Y-11.709
X10.476Y-11.809
X10.481Y-9.399
X10.526Y-11.709
X10.526Y-11.859
X10.551Y-11.645
X10.601Y-11.645
X10.6255Y-11.8095
X10.651Y-11.645
X10.676Y-11.71
X10.676Y-11.859
X10.699Y-5.972
X10.701Y-11.647
X10.751Y-11.647
X10.775Y-7.743
X10.775Y-11.81
X10.7759Y-11.709
X10.826Y-11.859
X10.8429Y-4.519
X10.85Y-8.055
X10.851Y-11.641
X10.901Y-11.645
X10.9035Y-8.1055
X10.926Y-11.709
X10.926Y-11.809
X10.951Y-11.643
X10.976Y-11.859
X11.001Y-11.643
X11.051Y-11.645
X11.075Y-11.71
X11.076Y-11.809
X11.088Y-7.38
X11.101Y-11.641
X11.125Y-11.86
X11.14Y-10.25
X11.15Y-11.64
X11.1755Y-11.8595
X11.204Y-11.55
X11.225Y-11.908
X11.226Y-11.858
X11.251Y-11.501
X11.252Y-10.353
X11.253Y-6.255
X11.3Y-11.405
X11.326Y-11.858
X11.327Y-11.908
X11.351Y-10.451
X11.375Y-11.809
X11.375Y-11.858
X11.377Y-11.909
X11.401Y-11.266
X11.402Y-6.876
X11.426Y-11.759
X11.4265Y-11.8585
X11.436Y-10.553
X11.45Y-11.175
X11.475Y-11.91
X11.476Y-11.859
X11.488Y-8.101
X11.501Y-11.643
X11.524Y-10.654
X11.526Y-11.709
X11.527Y-11.858
X11.528Y-11.807
X11.55Y-11.026
X11.577Y-11.858
X11.601Y-11.641
X11.625Y-11.859
X11.627Y-11.909
X11.632Y-10.755
X11.676Y-11.709
X11.676Y-11.809
X11.676Y-11.859
X11.7Y-11.64
X11.702Y-11.975
X11.726Y-11.86
X11.751Y-11.641
X11.7755Y-11.9085
X11.801Y-11.643
X11.825Y-11.859
X11.826Y-11.709
X11.826Y-11.809
X11.826Y-11.909
X11.838Y-12.021
X11.85Y-11.64
X11.876Y-11.859
X11.9Y-11.64
X11.925Y-11.91
X11.951Y-11.645
X11.975Y-11.859
X11.976Y-11.809
X12.002Y-11.642
X12.026Y-11.709
X12.026Y-11.909
X12.137Y-4.472
X12.1389Y-11.8341
X12.14Y-8.733
X12.222Y-7.422
X12.226Y-7.
X12.251Y-6.857
X12.274Y-8.099
X12.35Y-8.098
X13.077Y-5.974
X13.145Y-7.888
X13.2429Y-4.5199
X13.801Y-6.867
X14.299Y-10.418
X14.354Y-8.22
X14.402Y-8.571
X14.543Y-4.47
X14.63Y-6.989
X14.631Y-7.384
X14.6555Y-6.8575
X14.753Y-8.078
X14.834Y-8.079
X15.395Y-7.69
X15.451Y-5.973
X15.471Y-7.887
X15.573Y-8.785
X15.6429Y-4.518
X15.679Y-11.476
X15.732Y-11.485
X15.734Y-4.743
X15.735Y-7.525
X15.8895Y-7.7855
X15.9052Y-8.8098
X15.99Y-8.86
X15.996Y-10.812
X16.Y-7.86
X16.Y-7.985
X16.045Y-7.885
X16.049Y-9.069
X16.049Y-10.018
X16.049Y-10.969
X16.087Y-8.115
X16.105Y-8.015
X16.119Y-10.966
X16.123Y-8.141
X16.127Y-9.067
X16.127Y-10.017
X16.141Y-8.068
X16.165Y-7.91
X16.171Y-8.09
X16.181Y-9.015
X16.181Y-10.915
X16.183Y-9.965
X16.208Y-8.989
X16.213Y-9.938
X16.226Y-8.886
X16.226Y-7.936
X16.236Y-10.889
X16.354Y-8.8354
X16.355Y-7.96
X16.37Y-10.103
X16.388Y-9.475
X16.395Y-10.425
X16.399Y-8.55
X16.403Y-11.375
X16.4457Y-7.8593
X16.45Y-9.159
X16.45Y-11.176
X16.451Y-8.353
X16.451Y-9.032
X16.517Y-9.334
X16.5179Y-8.2909
X16.529Y-11.116
X16.54Y-10.284
X16.563Y-10.839
X16.5728Y-9.8878
X16.573Y-8.121
X16.574Y-9.045
X16.575Y-10.68
X16.5755Y-9.7345
X16.576Y-7.863
X16.583Y-8.186
X16.585Y-9.095
X16.587Y-10.96
X16.592Y-10.018
X16.5936Y-10.7866
X16.618Y-8.09
X16.619Y-9.965
X16.62Y-9.015
X16.645Y-10.854
X16.677Y-9.887
X16.8735Y-10.3765
X16.8735Y-11.0465
X16.874Y-9.425
X16.874Y-10.275
X16.874Y-10.85
X16.875Y-9.225
X16.875Y-9.325
X16.875Y-9.525
X16.875Y-9.625
X16.875Y-9.975
X16.875Y-10.07
X16.875Y-10.175
X16.875Y-10.47
X16.875Y-10.945
X16.875Y-11.15
X16.875Y-11.245
X16.875Y-11.35
X16.877Y-9.126
X16.943Y-4.47
X16.99Y-7.433
X17.021Y-7.003
X17.049Y-6.86
X17.3571Y-11.4289
X17.666Y-7.101
X18.0429Y-4.5199
T2
X15.8713Y-9.4352
X15.8713Y-9.514
X15.8713Y-9.5927
X15.8713Y-9.6715
X15.8713Y-9.7502
X15.8713Y-9.8289
X15.8713Y-9.9077
X15.8713Y-9.9864
X15.8713Y-10.0652
X15.8713Y-10.1439
X15.8713Y-10.2226
X15.8713Y-10.3014
X15.8713Y-10.3801
X15.8713Y-10.4589
X15.8713Y-10.5376
X15.8713Y-10.6163
X15.8713Y-10.6951
X15.8713Y-10.7738
X15.8713Y-10.8526
X15.8713Y-10.9313
X15.8713Y-11.01
X15.8713Y-11.0888
X15.8713Y-11.1675
X15.8713Y-11.2463
X15.8713Y-11.325
X15.95Y-9.4352
X15.95Y-9.514
X15.95Y-9.5927
X15.95Y-9.6715
X15.95Y-9.7502
X15.95Y-9.8289
X15.95Y-9.9077
X15.95Y-9.9864
X15.95Y-10.0652
X15.95Y-10.1439
X15.95Y-10.2226
X15.95Y-10.3014
X15.95Y-10.3801
X15.95Y-10.4589
X15.95Y-10.5376
X15.95Y-10.6163
X15.95Y-10.6951
X15.95Y-10.7738
X15.95Y-10.8526
X15.95Y-10.9313
X15.95Y-11.01
X15.95Y-11.0888
X15.95Y-11.1675
X15.95Y-11.2463
X15.95Y-11.325
T3
X4.425Y-6.2
X4.425Y-6.7134
X4.475Y-6.2866
X4.475Y-6.8
X4.525Y-6.2
X4.525Y-6.7134
X4.575Y-6.2866
X4.575Y-6.8
X6.825Y-6.2
X6.825Y-6.7134
X6.875Y-6.2866
X6.875Y-6.8
X6.925Y-6.2
X6.925Y-6.7134
X6.975Y-6.2866
X6.975Y-6.8
X9.225Y-6.2
X9.225Y-6.7134
X9.275Y-6.2866
X9.275Y-6.8
X9.325Y-6.2
X9.325Y-6.7134
X9.375Y-6.2866
X9.375Y-6.8
X11.625Y-6.2
X11.625Y-6.7134
X11.675Y-6.2866
X11.675Y-6.8
X11.725Y-6.2
X11.725Y-6.7134
X11.775Y-6.2866
X11.775Y-6.8
X14.025Y-6.2
X14.025Y-6.7134
X14.075Y-6.2866
X14.075Y-6.8
X14.125Y-6.2
X14.125Y-6.7134
X14.175Y-6.2866
X14.175Y-6.8
X16.425Y-6.2
X16.425Y-6.7134
X16.475Y-6.2866
X16.475Y-6.8
X16.525Y-6.2
X16.525Y-6.7134
X16.575Y-6.2866
X16.575Y-6.8
T4
X9.1Y-8.
X9.1Y-8.1
X9.1Y-8.2
X9.1Y-8.3
X9.1Y-8.4
X9.1Y-9.35
X9.1Y-9.45
X9.1Y-9.55
X9.1Y-9.65
X9.1Y-9.75
X9.1Y-9.85
X9.1Y-9.95
X9.1Y-10.05
X9.1Y-10.15
X9.1Y-10.25
X9.1Y-10.35
X9.1Y-10.45
X9.1Y-10.55
X9.1Y-10.65
X9.1Y-10.75
X9.1Y-10.85
X9.1Y-10.95
X9.1Y-11.05
X9.1Y-11.15
X9.1Y-11.25
X9.1Y-11.35
X9.1Y-11.45
X9.1Y-11.55
X9.1Y-11.65
X9.1Y-11.75
X9.2Y-8.
X9.2Y-8.1
X9.2Y-8.2
X9.2Y-8.3
X9.2Y-8.4
X9.2Y-9.35
X9.2Y-9.45
X9.2Y-9.55
X9.2Y-9.65
X9.2Y-9.75
X9.2Y-9.85
X9.2Y-9.95
X9.2Y-10.05
X9.2Y-10.15
X9.2Y-10.25
X9.2Y-10.35
X9.2Y-10.45
X9.2Y-10.55
X9.2Y-10.65
X9.2Y-10.75
X9.2Y-10.85
X9.2Y-10.95
X9.2Y-11.05
X9.2Y-11.15
X9.2Y-11.25
X9.2Y-11.35
X9.2Y-11.45
X9.2Y-11.55
X9.2Y-11.65
X9.2Y-11.75
X17.75Y-9.4
X17.75Y-9.5
X17.75Y-9.6
X17.75Y-10.25
X17.75Y-10.35
X17.75Y-10.45
X17.75Y-11.15
X17.75Y-11.25
X17.75Y-11.35
T5
X5.4441Y-6.852
X5.4441Y-6.961
X5.4441Y-7.0701
X5.4441Y-7.1791
X5.5559Y-6.9071
X5.5559Y-7.0161
X5.5559Y-7.1252
X7.8441Y-6.852
X7.8441Y-6.961
X7.8441Y-7.0701
X7.8441Y-7.1791
X7.9559Y-6.9071
X7.9559Y-7.0161
X7.9559Y-7.1252
X10.2441Y-6.852
X10.2441Y-6.961
X10.2441Y-7.0701
X10.2441Y-7.1791
X10.3559Y-6.9071
X10.3559Y-7.0161
X10.3559Y-7.1252
X12.6441Y-6.852
X12.6441Y-6.961
X12.6441Y-7.0701
X12.6441Y-7.1791
X12.7559Y-6.9071
X12.7559Y-7.0161
X12.7559Y-7.1252
X15.0441Y-6.852
X15.0441Y-6.961
X15.0441Y-7.0701
X15.0441Y-7.1791
X15.1559Y-6.9071
X15.1559Y-7.0161
X15.1559Y-7.1252
X17.4441Y-6.852
X17.4441Y-6.961
X17.4441Y-7.0701
X17.4441Y-7.1791
X17.5559Y-6.9071
X17.5559Y-7.0161
X17.5559Y-7.1252
T6
X4.2Y-12.7
X4.2006Y-3.2
X4.5748Y-12.7
X4.5754Y-3.2
X4.9496Y-12.7
X4.9502Y-3.2
X5.3244Y-12.7
X5.325Y-3.2
X5.75Y-12.9775
X5.95Y-12.9775
X6.6Y-12.7
X6.6006Y-3.2
X6.9748Y-12.7
X6.9754Y-3.2
X7.3496Y-12.7
X7.3502Y-3.2
X7.7244Y-12.7
X7.725Y-3.2
X8.15Y-12.9775
X8.35Y-12.9775
X9.Y-12.7
X9.0006Y-3.2
X9.3748Y-12.7
X9.3754Y-3.2
X9.7496Y-12.7
X9.7502Y-3.2
X10.1244Y-12.7
X10.125Y-3.2
X10.55Y-12.9775
X10.75Y-12.9775
X11.4Y-12.7
X11.4006Y-3.2
X11.7748Y-12.7
X11.7754Y-3.2
X12.1496Y-12.7
X12.1502Y-3.2
X12.5244Y-12.7
X12.525Y-3.2
X12.95Y-12.9775
X13.15Y-12.9775
X13.8Y-12.7
X13.8006Y-3.2
X14.1748Y-12.7
X14.1754Y-3.2
X14.5496Y-12.7
X14.5502Y-3.2
X14.9244Y-12.7
X14.925Y-3.2
X15.35Y-12.9775
X15.55Y-12.9775
X16.2Y-12.7
X16.2006Y-3.2
X16.5748Y-12.7
X16.5754Y-3.2
X16.9496Y-12.7
X16.9502Y-3.2
X17.3244Y-12.7
X17.325Y-3.2
X17.75Y-12.9775
X17.95Y-12.9775
T7
X3.35Y-7.15
X3.35Y-7.35
X3.35Y-7.55
X3.35Y-7.75
X3.35Y-8.15
X3.35Y-8.35
X3.35Y-8.55
X3.35Y-8.75
X3.35Y-8.95
X3.35Y-9.15
X3.35Y-9.35
X3.35Y-9.55
X3.35Y-9.75
X3.35Y-9.95
X3.35Y-10.35
X3.35Y-10.55
X3.35Y-10.75
X3.35Y-10.95
X3.35Y-11.15
X3.35Y-11.35
X3.35Y-11.75
X3.35Y-11.95
X3.35Y-12.15
X3.35Y-12.35
X18.6Y-6.15
X18.6Y-6.35
X18.6Y-6.55
X18.6Y-6.75
X18.6Y-6.95
X18.6Y-7.15
X18.6Y-7.35
X18.6Y-7.55
X18.6Y-7.75
X18.6Y-7.95
X18.6Y-8.35
X18.6Y-8.55
X18.6Y-8.75
X18.6Y-8.95
X18.6Y-9.15
X18.6Y-9.35
X18.6Y-9.55
X18.6Y-9.75
X18.6Y-9.95
X18.6Y-10.15
X18.6Y-10.55
X18.6Y-10.75
X18.6Y-10.95
X18.6Y-11.15
X18.6Y-11.35
X18.6Y-11.55
X18.6Y-11.75
X18.6Y-11.95
X18.6Y-12.15
X18.6Y-12.35
T8
X4.0866Y-5.6941
X4.0866Y-5.7941
X4.0866Y-5.8941
X4.0866Y-7.1059
X4.0866Y-7.2059
X4.0866Y-7.3059
X4.9134Y-5.6941
X4.9134Y-5.7941
X4.9134Y-5.8941
X4.9134Y-7.1059
X4.9134Y-7.2059
X4.9134Y-7.3059
X6.4866Y-5.6941
X6.4866Y-5.7941
X6.4866Y-5.8941
X6.4866Y-7.1059
X6.4866Y-7.2059
X6.4866Y-7.3059
X7.3134Y-5.6941
X7.3134Y-5.7941
X7.3134Y-5.8941
X7.3134Y-7.1059
X7.3134Y-7.2059
X7.3134Y-7.3059
X8.8866Y-5.6941
X8.8866Y-5.7941
X8.8866Y-5.8941
X8.8866Y-7.1059
X8.8866Y-7.2059
X8.8866Y-7.3059
X9.7134Y-5.6941
X9.7134Y-5.7941
X9.7134Y-5.8941
X9.7134Y-7.1059
X9.7134Y-7.2059
X9.7134Y-7.3059
X11.2866Y-5.6941
X11.2866Y-5.7941
X11.2866Y-5.8941
X11.2866Y-7.1059
X11.2866Y-7.2059
X11.2866Y-7.3059
X12.1134Y-5.6941
X12.1134Y-5.7941
X12.1134Y-5.8941
X12.1134Y-7.1059
X12.1134Y-7.2059
X12.1134Y-7.3059
X13.6866Y-5.6941
X13.6866Y-5.7941
X13.6866Y-5.8941
X13.6866Y-7.1059
X13.6866Y-7.2059
X13.6866Y-7.3059
X14.5134Y-5.6941
X14.5134Y-5.7941
X14.5134Y-5.8941
X14.5134Y-7.1059
X14.5134Y-7.2059
X14.5134Y-7.3059
X16.0866Y-5.6941
X16.0866Y-5.7941
X16.0866Y-5.8941
X16.0866Y-7.1059
X16.0866Y-7.2059
X16.0866Y-7.3059
X16.9134Y-5.6941
X16.9134Y-5.7941
X16.9134Y-5.8941
X16.9134Y-7.1059
X16.9134Y-7.2059
X16.9134Y-7.3059
T9
X13.3Y-4.8835
X13.3Y-5.1
T10
X4.1Y-4.
X4.1Y-4.
X4.4Y-4.
X4.575Y-8.075
X4.575Y-8.075
X4.875Y-8.075
X5.1469Y-4.
X5.4469Y-4.
X5.6219Y-8.075
X5.9219Y-8.075
X6.5Y-4.
X6.5Y-4.
X6.8Y-4.
X7.5469Y-4.
X7.8469Y-4.
X8.9Y-4.
X8.9Y-4.
X9.2Y-4.
X9.9469Y-4.
X10.2469Y-4.
X11.3Y-4.
X11.3Y-4.
X11.6Y-4.
X12.3469Y-4.
X12.6469Y-4.
X13.7Y-4.
X13.7Y-4.
X14.Y-4.
X14.7469Y-4.
X15.0469Y-4.
X16.1Y-4.
X16.1Y-4.
X16.4Y-4.
X17.1469Y-4.
X17.4469Y-4.
T11
X5.5Y-5.313
X5.5Y-5.578
X5.5Y-5.8429
X5.5Y-6.1079
X5.5Y-6.3728
X5.5Y-6.6378
X7.9Y-5.313
X7.9Y-5.578
X7.9Y-5.8429
X7.9Y-6.1079
X7.9Y-6.3728
X7.9Y-6.6378
X10.3Y-5.313
X10.3Y-5.578
X10.3Y-5.8429
X10.3Y-6.1079
X10.3Y-6.3728
X10.3Y-6.6378
X12.7Y-5.313
X12.7Y-5.578
X12.7Y-5.8429
X12.7Y-6.1079
X12.7Y-6.3728
X12.7Y-6.6378
X15.1Y-5.313
X15.1Y-5.578
X15.1Y-5.8429
X15.1Y-6.1079
X15.1Y-6.3728
X15.1Y-6.6378
X17.5Y-5.313
X17.5Y-5.578
X17.5Y-5.8429
X17.5Y-6.1079
X17.5Y-6.3728
X17.5Y-6.6378
T12
X4.185Y-4.85
X4.5Y-4.85
X4.516Y-4.518
X4.516Y-5.183
X4.89Y-4.85
X6.585Y-4.85
X6.9Y-4.85
X6.916Y-4.518
X6.916Y-5.183
X7.29Y-4.85
X8.985Y-4.85
X9.3Y-4.85
X9.316Y-4.518
X9.316Y-5.183
X9.69Y-4.85
X11.385Y-4.85
X11.7Y-4.85
X11.716Y-4.518
X11.716Y-5.183
X12.09Y-4.85
X13.785Y-4.85
X14.1Y-4.85
X14.116Y-4.518
X14.116Y-5.183
X14.49Y-4.85
X16.185Y-4.85
X16.5Y-4.85
X16.516Y-4.518
X16.516Y-5.183
X16.89Y-4.85
T13
X5.5Y-4.95
X5.5Y-7.45
X7.9Y-4.95
X7.9Y-7.45
X10.3Y-4.95
X10.3Y-7.45
X12.7Y-4.95
X12.7Y-7.45
X15.1Y-4.95
X15.1Y-7.45
X17.5Y-4.95
X17.5Y-7.45
T0
M30
