G04 #@! TF.FileFunction,Paste,Top*
%FSLAX46Y46*%
G04 Gerber Fmt 4.6, Leading zero omitted, Abs format (unit mm)*
G04 Created by KiCad (PCBNEW 4.0.2-stable) date 10/20/2016 9:17:17 AM*
%MOMM*%
G01*
G04 APERTURE LIST*
%ADD10C,0.100000*%
%ADD11C,0.640000*%
%ADD12R,1.550000X0.250000*%
%ADD13R,1.600000X1.000000*%
%ADD14R,1.000000X1.600000*%
%ADD15R,0.700000X0.600000*%
%ADD16R,2.660000X0.800000*%
%ADD17R,2.440000X1.130000*%
%ADD18R,0.800100X0.800100*%
%ADD19R,0.900000X1.700000*%
%ADD20R,1.700000X0.900000*%
%ADD21R,1.450000X0.450000*%
%ADD22R,1.550000X0.600000*%
%ADD23R,0.400000X0.470000*%
%ADD24R,1.000000X1.050000*%
%ADD25R,0.400000X0.660000*%
%ADD26R,1.220000X0.910000*%
G04 APERTURE END LIST*
D10*
D11*
X257835000Y-303125000D03*
X257835000Y-301855000D03*
X257835000Y-300585000D03*
X257835000Y-299315000D03*
X257835000Y-298045000D03*
X257835000Y-296775000D03*
X259105000Y-303125000D03*
X259105000Y-301855000D03*
X259105000Y-300585000D03*
X259105000Y-299315000D03*
X259105000Y-298045000D03*
X259105000Y-296775000D03*
X260375000Y-303125000D03*
X260375000Y-301855000D03*
X260375000Y-300585000D03*
X260375000Y-299315000D03*
X260375000Y-298045000D03*
X260375000Y-296775000D03*
X261645000Y-303125000D03*
X261645000Y-301855000D03*
X261645000Y-300585000D03*
X261645000Y-299315000D03*
X261645000Y-298045000D03*
X261645000Y-296775000D03*
X262915000Y-303125000D03*
X262915000Y-301855000D03*
X262915000Y-300585000D03*
X262915000Y-299315000D03*
X262915000Y-298045000D03*
X262915000Y-296775000D03*
X264185000Y-303125000D03*
X264185000Y-301855000D03*
X264185000Y-300585000D03*
X264185000Y-299315000D03*
X264185000Y-298045000D03*
X264185000Y-296775000D03*
X265455000Y-303125000D03*
X265455000Y-301855000D03*
X265455000Y-300585000D03*
X265455000Y-299315000D03*
X265455000Y-298045000D03*
X265455000Y-296775000D03*
X266725000Y-303125000D03*
X266725000Y-301855000D03*
X266725000Y-300585000D03*
X266725000Y-299315000D03*
X266725000Y-298045000D03*
X266725000Y-296775000D03*
X267995000Y-303125000D03*
X267995000Y-301855000D03*
X267995000Y-300585000D03*
X267995000Y-299315000D03*
X267995000Y-298045000D03*
X267995000Y-296775000D03*
X269265000Y-303125000D03*
X269265000Y-301855000D03*
X269265000Y-300585000D03*
X269265000Y-299315000D03*
X269265000Y-298045000D03*
X269265000Y-296775000D03*
X270535000Y-303125000D03*
X270535000Y-301855000D03*
X270535000Y-300585000D03*
X270535000Y-299315000D03*
X270535000Y-298045000D03*
X270535000Y-296775000D03*
X271805000Y-303125000D03*
X271805000Y-301855000D03*
X271805000Y-300585000D03*
X271805000Y-299315000D03*
X271805000Y-298045000D03*
X271805000Y-296775000D03*
X273075000Y-303125000D03*
X273075000Y-301855000D03*
X273075000Y-300585000D03*
X273075000Y-299315000D03*
X273075000Y-298045000D03*
X273075000Y-296775000D03*
X274345000Y-303125000D03*
X274345000Y-301855000D03*
X274345000Y-300585000D03*
X274345000Y-299315000D03*
X274345000Y-298045000D03*
X274345000Y-296775000D03*
X275615000Y-303125000D03*
X275615000Y-301855000D03*
X275615000Y-300585000D03*
X275615000Y-299315000D03*
X275615000Y-298045000D03*
X275615000Y-296775000D03*
X276885000Y-303125000D03*
X276885000Y-301855000D03*
X276885000Y-300585000D03*
X276885000Y-299315000D03*
X276885000Y-298045000D03*
X276885000Y-296775000D03*
X278155000Y-303125000D03*
X278155000Y-301855000D03*
X278155000Y-300585000D03*
X278155000Y-299315000D03*
X278155000Y-298045000D03*
X278155000Y-296775000D03*
X279425000Y-303125000D03*
X279425000Y-301855000D03*
X279425000Y-300585000D03*
X279425000Y-299315000D03*
X279425000Y-298045000D03*
X279425000Y-296775000D03*
X280695000Y-303125000D03*
X280695000Y-301855000D03*
X280695000Y-300585000D03*
X280695000Y-299315000D03*
X280695000Y-298045000D03*
X280695000Y-296775000D03*
X281965000Y-303125000D03*
X281965000Y-301855000D03*
X281965000Y-300585000D03*
X281965000Y-299315000D03*
X281965000Y-298045000D03*
X281965000Y-296775000D03*
X283235000Y-303125000D03*
X283235000Y-301855000D03*
X283235000Y-300585000D03*
X283235000Y-299315000D03*
X283235000Y-298045000D03*
X283235000Y-296775000D03*
X284505000Y-303125000D03*
X284505000Y-301855000D03*
X284505000Y-300585000D03*
X284505000Y-299315000D03*
X284505000Y-298045000D03*
X284505000Y-296775000D03*
X285775000Y-303125000D03*
X285775000Y-301855000D03*
X285775000Y-300585000D03*
X285775000Y-299315000D03*
X285775000Y-298045000D03*
X285775000Y-296775000D03*
X287045000Y-303125000D03*
X287045000Y-301855000D03*
X287045000Y-300585000D03*
X287045000Y-299315000D03*
X287045000Y-298045000D03*
X287045000Y-296775000D03*
X288315000Y-303125000D03*
X288315000Y-301855000D03*
X288315000Y-300585000D03*
X288315000Y-299315000D03*
X288315000Y-298045000D03*
X288315000Y-296775000D03*
X289585000Y-303125000D03*
X289585000Y-301855000D03*
X289585000Y-300585000D03*
X289585000Y-299315000D03*
X289585000Y-298045000D03*
X289585000Y-296775000D03*
X290855000Y-303125000D03*
X290855000Y-301855000D03*
X290855000Y-300585000D03*
X290855000Y-299315000D03*
X290855000Y-298045000D03*
X290855000Y-296775000D03*
X292125000Y-303125000D03*
X292125000Y-301855000D03*
X292125000Y-300585000D03*
X292125000Y-299315000D03*
X292125000Y-298045000D03*
X292125000Y-296775000D03*
X293395000Y-303125000D03*
X293395000Y-301855000D03*
X293395000Y-300585000D03*
X293395000Y-299315000D03*
X293395000Y-298045000D03*
X293395000Y-296775000D03*
X294665000Y-303125000D03*
X294665000Y-301855000D03*
X294665000Y-300585000D03*
X294665000Y-299315000D03*
X294665000Y-298045000D03*
X294665000Y-296775000D03*
X295935000Y-303125000D03*
X295935000Y-301855000D03*
X295935000Y-300585000D03*
X295935000Y-299315000D03*
X295935000Y-298045000D03*
X295935000Y-296775000D03*
X297205000Y-303125000D03*
X297205000Y-301855000D03*
X297205000Y-300585000D03*
X297205000Y-299315000D03*
X297205000Y-298045000D03*
X297205000Y-296775000D03*
X298475000Y-303125000D03*
X298475000Y-301855000D03*
X298475000Y-300585000D03*
X298475000Y-299315000D03*
X298475000Y-298045000D03*
X298475000Y-296775000D03*
X299745000Y-303125000D03*
X299745000Y-301855000D03*
X299745000Y-300585000D03*
X299745000Y-299315000D03*
X299745000Y-298045000D03*
X299745000Y-296775000D03*
X301015000Y-303125000D03*
X301015000Y-301855000D03*
X301015000Y-300585000D03*
X301015000Y-299315000D03*
X301015000Y-298045000D03*
X301015000Y-296775000D03*
X302285000Y-303125000D03*
X302285000Y-301855000D03*
X302285000Y-300585000D03*
X302285000Y-299315000D03*
X302285000Y-298045000D03*
X302285000Y-296775000D03*
X303555000Y-303125000D03*
X303555000Y-301855000D03*
X303555000Y-300585000D03*
X303555000Y-299315000D03*
X303555000Y-298045000D03*
X303555000Y-296775000D03*
X304825000Y-303125000D03*
X304825000Y-301855000D03*
X304825000Y-300585000D03*
X304825000Y-299315000D03*
X304825000Y-298045000D03*
X304825000Y-296775000D03*
X306095000Y-303125000D03*
X306095000Y-301855000D03*
X306095000Y-300585000D03*
X306095000Y-299315000D03*
X306095000Y-298045000D03*
X306095000Y-296775000D03*
X307365000Y-303125000D03*
X307365000Y-301855000D03*
X307365000Y-300585000D03*
X307365000Y-299315000D03*
X307365000Y-298045000D03*
X307365000Y-296775000D03*
D12*
X419360000Y-199625000D03*
X413760000Y-199625000D03*
X419360000Y-200275000D03*
X413760000Y-200275000D03*
X419360000Y-200925000D03*
X413760000Y-200925000D03*
X419360000Y-201575000D03*
X413760000Y-201575000D03*
X419360000Y-202225000D03*
X413760000Y-202225000D03*
X419360000Y-202875000D03*
X413760000Y-202875000D03*
X419360000Y-203525000D03*
X413760000Y-203525000D03*
X419360000Y-204175000D03*
X413760000Y-204175000D03*
X419360000Y-204825000D03*
X413760000Y-204825000D03*
X419360000Y-205475000D03*
X413760000Y-205475000D03*
X419360000Y-206125000D03*
X413760000Y-206125000D03*
X419360000Y-206775000D03*
X413760000Y-206775000D03*
X419360000Y-223120000D03*
X413760000Y-223120000D03*
X419360000Y-223770000D03*
X413760000Y-223770000D03*
X419360000Y-224420000D03*
X413760000Y-224420000D03*
X419360000Y-225070000D03*
X413760000Y-225070000D03*
X419360000Y-225720000D03*
X413760000Y-225720000D03*
X419360000Y-226370000D03*
X413760000Y-226370000D03*
X419360000Y-227020000D03*
X413760000Y-227020000D03*
X419360000Y-227670000D03*
X413760000Y-227670000D03*
X419360000Y-228320000D03*
X413760000Y-228320000D03*
X419360000Y-228970000D03*
X413760000Y-228970000D03*
X419360000Y-229620000D03*
X413760000Y-229620000D03*
X419360000Y-230270000D03*
X413760000Y-230270000D03*
X419360000Y-247250000D03*
X413760000Y-247250000D03*
X419360000Y-247900000D03*
X413760000Y-247900000D03*
X419360000Y-248550000D03*
X413760000Y-248550000D03*
X419360000Y-249200000D03*
X413760000Y-249200000D03*
X419360000Y-249850000D03*
X413760000Y-249850000D03*
X419360000Y-250500000D03*
X413760000Y-250500000D03*
X419360000Y-251150000D03*
X413760000Y-251150000D03*
X419360000Y-251800000D03*
X413760000Y-251800000D03*
X419360000Y-252450000D03*
X413760000Y-252450000D03*
X419360000Y-253100000D03*
X413760000Y-253100000D03*
X419360000Y-253750000D03*
X413760000Y-253750000D03*
X419360000Y-254400000D03*
X413760000Y-254400000D03*
X419360000Y-271380000D03*
X413760000Y-271380000D03*
X419360000Y-272030000D03*
X413760000Y-272030000D03*
X419360000Y-272680000D03*
X413760000Y-272680000D03*
X419360000Y-273330000D03*
X413760000Y-273330000D03*
X419360000Y-273980000D03*
X413760000Y-273980000D03*
X419360000Y-274630000D03*
X413760000Y-274630000D03*
X419360000Y-275280000D03*
X413760000Y-275280000D03*
X419360000Y-275930000D03*
X413760000Y-275930000D03*
X419360000Y-276580000D03*
X413760000Y-276580000D03*
X419360000Y-277230000D03*
X413760000Y-277230000D03*
X419360000Y-277880000D03*
X413760000Y-277880000D03*
X419360000Y-278530000D03*
X413760000Y-278530000D03*
D13*
X417830000Y-210590000D03*
X417830000Y-213590000D03*
X415290000Y-210590000D03*
X415290000Y-213590000D03*
D14*
X418060000Y-217170000D03*
X415060000Y-217170000D03*
D13*
X417830000Y-258215000D03*
X417830000Y-261215000D03*
X415290000Y-258215000D03*
X415290000Y-261215000D03*
D14*
X418060000Y-264795000D03*
X415060000Y-264795000D03*
D13*
X417830000Y-234085000D03*
X417830000Y-237085000D03*
X415290000Y-234085000D03*
X415290000Y-237085000D03*
D14*
X418060000Y-240665000D03*
X415060000Y-240665000D03*
D13*
X417830000Y-282345000D03*
X417830000Y-285345000D03*
X415290000Y-282345000D03*
X415290000Y-285345000D03*
D14*
X418060000Y-288925000D03*
X415060000Y-288925000D03*
D13*
X106680000Y-172950000D03*
X106680000Y-169950000D03*
X123190000Y-289155000D03*
X123190000Y-286155000D03*
X106756200Y-157377000D03*
X106756200Y-160377000D03*
D14*
X125960000Y-292735000D03*
X122960000Y-292735000D03*
X115340000Y-287020000D03*
X118340000Y-287020000D03*
D13*
X125730000Y-286155000D03*
X125730000Y-289155000D03*
D14*
X115340000Y-284480000D03*
X118340000Y-284480000D03*
D13*
X121920000Y-172950000D03*
X121920000Y-169950000D03*
X121996200Y-157377000D03*
X121996200Y-160377000D03*
X123190000Y-304395000D03*
X123190000Y-301395000D03*
D14*
X125960000Y-307975000D03*
X122960000Y-307975000D03*
X115340000Y-302260000D03*
X118340000Y-302260000D03*
D13*
X125730000Y-301395000D03*
X125730000Y-304395000D03*
D14*
X115340000Y-299720000D03*
X118340000Y-299720000D03*
D13*
X167640000Y-172950000D03*
X167640000Y-169950000D03*
X167640000Y-157250000D03*
X167640000Y-160250000D03*
X182880000Y-172950000D03*
X182880000Y-169950000D03*
X182880000Y-157250000D03*
X182880000Y-160250000D03*
X228600000Y-172950000D03*
X228600000Y-169950000D03*
X228600000Y-157250000D03*
X228600000Y-160250000D03*
X243840000Y-172950000D03*
X243840000Y-169950000D03*
X243840000Y-157250000D03*
X243840000Y-160250000D03*
X289560000Y-172950000D03*
X289560000Y-169950000D03*
X289560000Y-157250000D03*
X289560000Y-160250000D03*
X304800000Y-172950000D03*
X304800000Y-169950000D03*
X304800000Y-157250000D03*
X304800000Y-160250000D03*
X350520000Y-172950000D03*
X350520000Y-169950000D03*
X350520000Y-157250000D03*
X350520000Y-160250000D03*
X365760000Y-172950000D03*
X365760000Y-169950000D03*
X365760000Y-157250000D03*
X365760000Y-160250000D03*
X411480000Y-169950000D03*
X411480000Y-172950000D03*
X411480000Y-157250000D03*
X411480000Y-160250000D03*
X426720000Y-172950000D03*
X426720000Y-169950000D03*
X426720000Y-157250000D03*
X426720000Y-160250000D03*
D15*
X146050000Y-115505000D03*
X146050000Y-116905000D03*
X118745000Y-224725000D03*
X118745000Y-226125000D03*
X118745000Y-238695000D03*
X118745000Y-240095000D03*
X118745000Y-252665000D03*
X118745000Y-254065000D03*
X207010000Y-115505000D03*
X207010000Y-116905000D03*
X267970000Y-115505000D03*
X267970000Y-116905000D03*
X328930000Y-115505000D03*
X328930000Y-116905000D03*
X389890000Y-115505000D03*
X389890000Y-116905000D03*
X450850000Y-115505000D03*
X450850000Y-116905000D03*
D16*
X115765000Y-220980000D03*
X109025000Y-223520000D03*
X115765000Y-228600000D03*
X109025000Y-228600000D03*
X143070000Y-111760000D03*
X136330000Y-114300000D03*
X143070000Y-119380000D03*
X136330000Y-119380000D03*
X204030000Y-111760000D03*
X197290000Y-114300000D03*
X204030000Y-119380000D03*
X197290000Y-119380000D03*
X264990000Y-111760000D03*
X258250000Y-114300000D03*
X264990000Y-119380000D03*
X258250000Y-119380000D03*
X325950000Y-111760000D03*
X319210000Y-114300000D03*
X325950000Y-119380000D03*
X319210000Y-119380000D03*
X386910000Y-111760000D03*
X380170000Y-114300000D03*
X386910000Y-119380000D03*
X380170000Y-119380000D03*
X447870000Y-111760000D03*
X441130000Y-114300000D03*
X447870000Y-119380000D03*
X441130000Y-119380000D03*
D17*
X434830000Y-231775000D03*
X426230000Y-231775000D03*
X434830000Y-234315000D03*
X426230000Y-234315000D03*
X434830000Y-236855000D03*
X426230000Y-236855000D03*
X434830000Y-239395000D03*
X426230000Y-239395000D03*
X434830000Y-241935000D03*
X426230000Y-241935000D03*
X434830000Y-244475000D03*
X426230000Y-244475000D03*
X434830000Y-253365000D03*
X426230000Y-253365000D03*
X434830000Y-255905000D03*
X426230000Y-255905000D03*
X434830000Y-258445000D03*
X426230000Y-258445000D03*
X434830000Y-260985000D03*
X426230000Y-260985000D03*
X434830000Y-263525000D03*
X426230000Y-263525000D03*
X434830000Y-266065000D03*
X426230000Y-266065000D03*
X434830000Y-275590000D03*
X426230000Y-275590000D03*
X434830000Y-278130000D03*
X426230000Y-278130000D03*
X434830000Y-280670000D03*
X426230000Y-280670000D03*
X434830000Y-283210000D03*
X426230000Y-283210000D03*
X434830000Y-285750000D03*
X426230000Y-285750000D03*
X434830000Y-288290000D03*
X426230000Y-288290000D03*
X136035000Y-244475000D03*
X144635000Y-244475000D03*
X136035000Y-241935000D03*
X144635000Y-241935000D03*
X136035000Y-239395000D03*
X144635000Y-239395000D03*
X136035000Y-236855000D03*
X144635000Y-236855000D03*
X136035000Y-234315000D03*
X144635000Y-234315000D03*
X136035000Y-231775000D03*
X144635000Y-231775000D03*
X136035000Y-266065000D03*
X144635000Y-266065000D03*
X136035000Y-263525000D03*
X144635000Y-263525000D03*
X136035000Y-260985000D03*
X144635000Y-260985000D03*
X136035000Y-258445000D03*
X144635000Y-258445000D03*
X136035000Y-255905000D03*
X144635000Y-255905000D03*
X136035000Y-253365000D03*
X144635000Y-253365000D03*
X136035000Y-287655000D03*
X144635000Y-287655000D03*
X136035000Y-285115000D03*
X144635000Y-285115000D03*
X136035000Y-282575000D03*
X144635000Y-282575000D03*
X136035000Y-280035000D03*
X144635000Y-280035000D03*
X136035000Y-277495000D03*
X144635000Y-277495000D03*
X136035000Y-274955000D03*
X144635000Y-274955000D03*
X158260000Y-244475000D03*
X166860000Y-244475000D03*
X158260000Y-241935000D03*
X166860000Y-241935000D03*
X158260000Y-239395000D03*
X166860000Y-239395000D03*
X158260000Y-236855000D03*
X166860000Y-236855000D03*
X158260000Y-234315000D03*
X166860000Y-234315000D03*
X158260000Y-231775000D03*
X166860000Y-231775000D03*
X158260000Y-266065000D03*
X166860000Y-266065000D03*
X158260000Y-263525000D03*
X166860000Y-263525000D03*
X158260000Y-260985000D03*
X166860000Y-260985000D03*
X158260000Y-258445000D03*
X166860000Y-258445000D03*
X158260000Y-255905000D03*
X166860000Y-255905000D03*
X158260000Y-253365000D03*
X166860000Y-253365000D03*
X158260000Y-287655000D03*
X166860000Y-287655000D03*
X158260000Y-285115000D03*
X166860000Y-285115000D03*
X158260000Y-282575000D03*
X166860000Y-282575000D03*
X158260000Y-280035000D03*
X166860000Y-280035000D03*
X158260000Y-277495000D03*
X166860000Y-277495000D03*
X158260000Y-274955000D03*
X166860000Y-274955000D03*
D18*
X150860760Y-116520000D03*
X150860760Y-114620000D03*
X148861780Y-115570000D03*
X153400760Y-240345000D03*
X153400760Y-238445000D03*
X151401780Y-239395000D03*
X149590760Y-240345000D03*
X149590760Y-238445000D03*
X147591780Y-239395000D03*
X123555760Y-225740000D03*
X123555760Y-223840000D03*
X121556780Y-224790000D03*
X123555760Y-239710000D03*
X123555760Y-237810000D03*
X121556780Y-238760000D03*
X123555760Y-253680000D03*
X123555760Y-251780000D03*
X121556780Y-252730000D03*
X153400760Y-261935000D03*
X153400760Y-260035000D03*
X151401780Y-260985000D03*
X211820760Y-116520000D03*
X211820760Y-114620000D03*
X209821780Y-115570000D03*
X149590760Y-261935000D03*
X149590760Y-260035000D03*
X147591780Y-260985000D03*
X153400760Y-283525000D03*
X153400760Y-281625000D03*
X151401780Y-282575000D03*
X272780760Y-116520000D03*
X272780760Y-114620000D03*
X270781780Y-115570000D03*
X149590760Y-283525000D03*
X149590760Y-281625000D03*
X147591780Y-282575000D03*
X175625760Y-240345000D03*
X175625760Y-238445000D03*
X173626780Y-239395000D03*
X333740760Y-116520000D03*
X333740760Y-114620000D03*
X331741780Y-115570000D03*
X171815760Y-240345000D03*
X171815760Y-238445000D03*
X169816780Y-239395000D03*
X175625760Y-261935000D03*
X175625760Y-260035000D03*
X173626780Y-260985000D03*
X394700760Y-116520000D03*
X394700760Y-114620000D03*
X392701780Y-115570000D03*
X171815760Y-261935000D03*
X171815760Y-260035000D03*
X169816780Y-260985000D03*
X175625760Y-283525000D03*
X175625760Y-281625000D03*
X173626780Y-282575000D03*
X455660760Y-116520000D03*
X455660760Y-114620000D03*
X453661780Y-115570000D03*
X171815760Y-283525000D03*
X171815760Y-281625000D03*
X169816780Y-282575000D03*
D19*
X125550000Y-116840000D03*
X128450000Y-116840000D03*
X125550000Y-111760000D03*
X128450000Y-111760000D03*
X153490000Y-118110000D03*
X156390000Y-118110000D03*
X153490000Y-113030000D03*
X156390000Y-113030000D03*
D20*
X153035000Y-242390000D03*
X153035000Y-245290000D03*
X150495000Y-242390000D03*
X150495000Y-245290000D03*
D19*
X151945000Y-234315000D03*
X149045000Y-234315000D03*
X126185000Y-222250000D03*
X129085000Y-222250000D03*
X126185000Y-236220000D03*
X129085000Y-236220000D03*
X126185000Y-250190000D03*
X129085000Y-250190000D03*
X126185000Y-227330000D03*
X129085000Y-227330000D03*
X126185000Y-241300000D03*
X129085000Y-241300000D03*
X126185000Y-255270000D03*
X129085000Y-255270000D03*
X107135000Y-290195000D03*
X110035000Y-290195000D03*
X107135000Y-287655000D03*
X110035000Y-287655000D03*
X107135000Y-292735000D03*
X110035000Y-292735000D03*
X95430000Y-101600000D03*
X92530000Y-101600000D03*
X92530000Y-106680000D03*
X95430000Y-106680000D03*
D20*
X240030000Y-208460000D03*
X240030000Y-205560000D03*
D19*
X440870000Y-253365000D03*
X437970000Y-253365000D03*
X440870000Y-255905000D03*
X437970000Y-255905000D03*
X440870000Y-258445000D03*
X437970000Y-258445000D03*
X440870000Y-260985000D03*
X437970000Y-260985000D03*
X440870000Y-263525000D03*
X437970000Y-263525000D03*
X440870000Y-266065000D03*
X437970000Y-266065000D03*
X440870000Y-231775000D03*
X437970000Y-231775000D03*
X440870000Y-234315000D03*
X437970000Y-234315000D03*
X440870000Y-236855000D03*
X437970000Y-236855000D03*
X440870000Y-239395000D03*
X437970000Y-239395000D03*
X440870000Y-241935000D03*
X437970000Y-241935000D03*
X440870000Y-244475000D03*
X437970000Y-244475000D03*
X440870000Y-275590000D03*
X437970000Y-275590000D03*
X440870000Y-278130000D03*
X437970000Y-278130000D03*
X440870000Y-280670000D03*
X437970000Y-280670000D03*
X440870000Y-283210000D03*
X437970000Y-283210000D03*
X440870000Y-285750000D03*
X437970000Y-285750000D03*
X440870000Y-288290000D03*
X437970000Y-288290000D03*
X107135000Y-305435000D03*
X110035000Y-305435000D03*
X107135000Y-302895000D03*
X110035000Y-302895000D03*
X107135000Y-307975000D03*
X110035000Y-307975000D03*
D20*
X130810000Y-180520000D03*
X130810000Y-177620000D03*
X130810000Y-172540000D03*
X130810000Y-175440000D03*
X150495000Y-263980000D03*
X150495000Y-266880000D03*
D19*
X214450000Y-113030000D03*
X217350000Y-113030000D03*
X186510000Y-111760000D03*
X189410000Y-111760000D03*
D20*
X153035000Y-263980000D03*
X153035000Y-266880000D03*
D19*
X214450000Y-118110000D03*
X217350000Y-118110000D03*
X186510000Y-116840000D03*
X189410000Y-116840000D03*
X151945000Y-255905000D03*
X149045000Y-255905000D03*
D20*
X191770000Y-180520000D03*
X191770000Y-177620000D03*
X191770000Y-172540000D03*
X191770000Y-175440000D03*
X150495000Y-285570000D03*
X150495000Y-288470000D03*
D19*
X275410000Y-113030000D03*
X278310000Y-113030000D03*
X247470000Y-111760000D03*
X250370000Y-111760000D03*
D20*
X153035000Y-285570000D03*
X153035000Y-288470000D03*
D19*
X275410000Y-118110000D03*
X278310000Y-118110000D03*
X247470000Y-116840000D03*
X250370000Y-116840000D03*
X151945000Y-277495000D03*
X149045000Y-277495000D03*
D20*
X252730000Y-180520000D03*
X252730000Y-177620000D03*
X252730000Y-172540000D03*
X252730000Y-175440000D03*
X172720000Y-242390000D03*
X172720000Y-245290000D03*
D19*
X336370000Y-113030000D03*
X339270000Y-113030000D03*
X308430000Y-111760000D03*
X311330000Y-111760000D03*
D20*
X175260000Y-242390000D03*
X175260000Y-245290000D03*
D19*
X336370000Y-118110000D03*
X339270000Y-118110000D03*
X308430000Y-116840000D03*
X311330000Y-116840000D03*
X174170000Y-234315000D03*
X171270000Y-234315000D03*
D20*
X313690000Y-180520000D03*
X313690000Y-177620000D03*
X313690000Y-172540000D03*
X313690000Y-175440000D03*
X172720000Y-263980000D03*
X172720000Y-266880000D03*
D19*
X397330000Y-113030000D03*
X400230000Y-113030000D03*
X369390000Y-111760000D03*
X372290000Y-111760000D03*
D20*
X175260000Y-263980000D03*
X175260000Y-266880000D03*
D19*
X397330000Y-118110000D03*
X400230000Y-118110000D03*
X369390000Y-116840000D03*
X372290000Y-116840000D03*
X174170000Y-255905000D03*
X171270000Y-255905000D03*
D20*
X374650000Y-180520000D03*
X374650000Y-177620000D03*
X374650000Y-172540000D03*
X374650000Y-175440000D03*
X172720000Y-285570000D03*
X172720000Y-288470000D03*
D19*
X458290000Y-113030000D03*
X461190000Y-113030000D03*
X430350000Y-111760000D03*
X433250000Y-111760000D03*
D20*
X175260000Y-285570000D03*
X175260000Y-288470000D03*
D19*
X458290000Y-118110000D03*
X461190000Y-118110000D03*
X430350000Y-116840000D03*
X433250000Y-116840000D03*
X174170000Y-277495000D03*
X171270000Y-277495000D03*
D20*
X435610000Y-180520000D03*
X435610000Y-177620000D03*
X435610000Y-172540000D03*
X435610000Y-175440000D03*
D16*
X115765000Y-234950000D03*
X109025000Y-237490000D03*
X115765000Y-242570000D03*
X109025000Y-242570000D03*
X115765000Y-248920000D03*
X109025000Y-251460000D03*
X115765000Y-256540000D03*
X109025000Y-256540000D03*
D21*
X119040000Y-293075000D03*
X119040000Y-292425000D03*
X119040000Y-291775000D03*
X119040000Y-291125000D03*
X114640000Y-291125000D03*
X114640000Y-291775000D03*
X114640000Y-292425000D03*
X114640000Y-293075000D03*
X119040000Y-308315000D03*
X119040000Y-307665000D03*
X119040000Y-307015000D03*
X119040000Y-306365000D03*
X114640000Y-306365000D03*
X114640000Y-307015000D03*
X114640000Y-307665000D03*
X114640000Y-308315000D03*
D22*
X101440000Y-265430000D03*
X101440000Y-266700000D03*
X101440000Y-267970000D03*
X101440000Y-269240000D03*
X106840000Y-269240000D03*
X106840000Y-267970000D03*
X106840000Y-266700000D03*
X106840000Y-265430000D03*
X101440000Y-273685000D03*
X101440000Y-274955000D03*
X101440000Y-276225000D03*
X101440000Y-277495000D03*
X106840000Y-277495000D03*
X106840000Y-276225000D03*
X106840000Y-274955000D03*
X106840000Y-273685000D03*
D23*
X426705000Y-115215000D03*
X427355000Y-115215000D03*
X428005000Y-115215000D03*
X426705000Y-113385000D03*
X427355000Y-113385000D03*
X428005000Y-113385000D03*
D24*
X427055000Y-114300000D03*
D25*
X428005000Y-114300000D03*
D23*
X365745000Y-115215000D03*
X366395000Y-115215000D03*
X367045000Y-115215000D03*
X365745000Y-113385000D03*
X366395000Y-113385000D03*
X367045000Y-113385000D03*
D24*
X366095000Y-114300000D03*
D25*
X367045000Y-114300000D03*
D23*
X304785000Y-115215000D03*
X305435000Y-115215000D03*
X306085000Y-115215000D03*
X304785000Y-113385000D03*
X305435000Y-113385000D03*
X306085000Y-113385000D03*
D24*
X305135000Y-114300000D03*
D25*
X306085000Y-114300000D03*
D23*
X243825000Y-115215000D03*
X244475000Y-115215000D03*
X245125000Y-115215000D03*
X243825000Y-113385000D03*
X244475000Y-113385000D03*
X245125000Y-113385000D03*
D24*
X244175000Y-114300000D03*
D25*
X245125000Y-114300000D03*
D23*
X182865000Y-115215000D03*
X183515000Y-115215000D03*
X184165000Y-115215000D03*
X182865000Y-113385000D03*
X183515000Y-113385000D03*
X184165000Y-113385000D03*
D24*
X183215000Y-114300000D03*
D25*
X184165000Y-114300000D03*
D23*
X121905000Y-115215000D03*
X122555000Y-115215000D03*
X123205000Y-115215000D03*
X121905000Y-113385000D03*
X122555000Y-113385000D03*
X123205000Y-113385000D03*
D24*
X122255000Y-114300000D03*
D25*
X123205000Y-114300000D03*
D26*
X450850000Y-310785000D03*
X450850000Y-314055000D03*
X389890000Y-310785000D03*
X389890000Y-314055000D03*
X328930000Y-310785000D03*
X328930000Y-314055000D03*
X267970000Y-310785000D03*
X267970000Y-314055000D03*
X207010000Y-310785000D03*
X207010000Y-314055000D03*
X146050000Y-310785000D03*
X146050000Y-314055000D03*
D13*
X125552200Y-172950000D03*
X125552200Y-169950000D03*
X103200200Y-157377000D03*
X103200200Y-160377000D03*
X186512200Y-172950000D03*
X186512200Y-169950000D03*
X164033200Y-157250000D03*
X164033200Y-160250000D03*
X247472200Y-172950000D03*
X247472200Y-169950000D03*
X224866200Y-157250000D03*
X224866200Y-160250000D03*
X308686200Y-172950000D03*
X308686200Y-169950000D03*
X285826200Y-157250000D03*
X285826200Y-160250000D03*
X369392200Y-172950000D03*
X369392200Y-169950000D03*
X346913200Y-157250000D03*
X346913200Y-160250000D03*
X430352200Y-172950000D03*
X430352200Y-169950000D03*
X407746200Y-157250000D03*
X407746200Y-160250000D03*
M02*
