M48
;DRILL file {KiCad 4.0.2-stable} date 10/20/2016 9:17:26 AM
;FORMAT={-:-/ absolute / inch / decimal}
FMAT,2
INCH,TZ
T1C0.050
T2C0.098
T3C0.118
T4C0.166
%
G90
G05
M72
T1
X10.0555Y-11.8091
X12.1965Y-11.689
T2
X4.26Y-4.594
X4.811Y-5.106
X6.66Y-4.594
X7.211Y-5.106
X9.06Y-4.594
X9.611Y-5.106
X11.46Y-4.594
X12.011Y-5.106
X13.86Y-4.594
X14.411Y-5.106
X16.26Y-4.594
X16.811Y-5.106
T3
X13.3Y-5.388
T4
X3.348Y-2.95
X3.348Y-6.6
X3.348Y-12.95
X3.938Y-10.185
X6.248Y-6.6
X7.25Y-9.25
X7.25Y-11.85
X7.958Y-10.18
X8.348Y-2.95
X8.648Y-6.6
X8.648Y-12.3
X9.676Y-9.05
X9.676Y-11.874
X11.048Y-6.6
X12.5752Y-9.05
X12.5752Y-11.874
X13.153Y-2.95
X13.358Y-10.13
X13.453Y-6.6
X13.453Y-12.3
X15.474Y-9.05
X15.474Y-11.874
X15.853Y-6.6
X18.008Y-9.925
X18.603Y-2.95
X18.603Y-5.7
X18.603Y-12.95
T0
M30
