M48
;DRILL file {KiCad 4.0.2-stable} date 3/31/2017 5:15:46 PM
;FORMAT={-:-/ absolute / inch / decimal}
FMAT,2
INCH,TZ
T1C0.024
T2C0.040
T3C0.047
T4C0.118
%
G90
G05
M72
T1
X4.5563Y-3.9524
X4.5575Y-4.5858
X4.6126Y-4.6441
X4.6457Y-5.0957
X4.7449Y-4.835
X4.7654Y-3.2768
X4.7697Y-3.6839
X4.8961Y-3.7673
X5.0205Y-4.6004
X5.0953Y-3.0906
X5.1154Y-4.987
X5.1161Y-5.1161
X5.1173Y-4.5386
X5.1177Y-3.6417
X5.1193Y-3.1878
X5.1209Y-4.0165
X5.2575Y-4.6591
X5.2713Y-3.7831
X5.3512Y-4.9882
X5.3898Y-3.9358
X5.4602Y-4.6587
X5.4665Y-4.5606
X5.4665Y-5.6138
X5.4681Y-5.0736
X5.4839Y-4.1378
X5.4858Y-4.4886
X5.5083Y-3.5941
X5.5591Y-4.6591
X5.8752Y-3.2933
X6.0378Y-5.1854
X6.0409Y-4.0799
X6.0642Y-4.8433
X6.0654Y-4.6795
X6.0831Y-5.9543
X6.0839Y-4.9488
X6.1598Y-3.1921
X6.16Y-5.1081
X6.1681Y-5.9031
X6.1689Y-5.8268
X6.172Y-3.761
X6.1728Y-3.8831
X6.1744Y-5.2689
X6.1787Y-5.3713
X6.4591Y-3.128
T2
X6.3591Y-3.3277
X6.3591Y-3.4277
X6.3591Y-3.5277
X6.3591Y-3.6277
X6.3591Y-3.7277
X6.3591Y-3.8277
X6.3591Y-3.9277
X6.3591Y-4.0277
X6.3591Y-4.1277
X6.3591Y-4.2277
X6.3591Y-4.3277
X6.3591Y-4.4277
X6.3591Y-4.5277
X6.3591Y-4.6277
X6.3591Y-4.7277
X6.3591Y-4.8277
X6.3591Y-4.9277
X6.3591Y-5.0277
X6.3591Y-5.1277
X6.3591Y-5.2277
X6.3591Y-5.3277
X6.3591Y-5.4277
X6.3591Y-5.5277
X6.3591Y-5.6277
X6.3591Y-5.7277
X6.4591Y-3.3277
X6.4591Y-3.4277
X6.4591Y-3.5277
X6.4591Y-3.6277
X6.4591Y-3.7277
X6.4591Y-3.8277
X6.4591Y-3.9277
X6.4591Y-4.0277
X6.4591Y-4.1277
X6.4591Y-4.2277
X6.4591Y-4.3277
X6.4591Y-4.4277
X6.4591Y-4.5277
X6.4591Y-4.6277
X6.4591Y-4.7277
X6.4591Y-4.8277
X6.4591Y-4.9277
X6.4591Y-5.0277
X6.4591Y-5.1277
X6.4591Y-5.2277
X6.4591Y-5.3277
X6.4591Y-5.4277
X6.4591Y-5.5277
X6.4591Y-5.6277
X6.4591Y-5.7277
T3
X5.0591Y-4.8228
X5.0591Y-5.8268
X5.1591Y-4.8228
X5.1591Y-5.8268
X5.2591Y-4.8228
X5.2591Y-5.8268
X5.3591Y-4.8228
X5.3591Y-5.8268
X5.4591Y-4.8228
X5.4591Y-5.8268
X5.5591Y-4.8228
X5.5591Y-5.8268
X5.6591Y-4.8228
X5.6591Y-5.8268
X5.7591Y-4.8228
X5.7591Y-5.8268
X5.8591Y-4.8228
X5.8591Y-5.8268
X5.9591Y-4.8228
X5.9591Y-5.8268
T4
X4.5091Y-3.2276
X4.5091Y-5.8276
T0
M30
